<svg xmlns="http://www.w3.org/2000/svg" xmlns:xlink="http://www.w3.org/1999/xlink" width="228" height="89.256" viewBox="0 0 228 89.256">
  <defs>
    <filter id="Rect치ngulo_276363" x="0" y="29.901" width="228" height="59" filterUnits="userSpaceOnUse">
      <feOffset dy="3" input="SourceAlpha"/>
      <feGaussianBlur stdDeviation="3" result="blur"/>
      <feFlood flood-opacity="0.161"/>
      <feComposite operator="in" in2="blur"/>
      <feComposite in="SourceGraphic"/>
    </filter>
    <filter id="Trazado_502571" x="0.125" y="0" width="89.256" height="89.256" filterUnits="userSpaceOnUse">
      <feOffset dy="3" input="SourceAlpha"/>
      <feGaussianBlur stdDeviation="3" result="blur-2"/>
      <feFlood flood-opacity="0.161"/>
      <feComposite operator="in" in2="blur-2"/>
      <feComposite in="SourceGraphic"/>
    </filter>
  </defs>
  <g id="Grupo_1034307" data-name="Grupo 1034307" transform="translate(6080 6621)">
    <g id="Grupo_876992" data-name="Grupo 876992" transform="translate(-6881 -11972.1)">
      <g transform="matrix(1, 0, 0, 1, 801, 5351.1)" filter="url(#Rect치ngulo_276363)">
        <path id="Rect치ngulo_276363-2" data-name="Rect치ngulo 276363" d="M0,0H200a10,10,0,0,1,10,10V41a0,0,0,0,1,0,0H0a0,0,0,0,1,0,0V0A0,0,0,0,1,0,0Z" transform="translate(9 35.9)" fill="#fff"/>
      </g>
      <g id="Grupo_734093" data-name="Grupo 734093" transform="translate(-399.935)">
        <g id="Grupo_734091" data-name="Grupo 734091" transform="translate(1029.935 -2175.645)">
          <text id="Convertir" transform="translate(281 7569.643)" fill="#12263f" font-size="20" font-family="Roboto-Black, Roboto" font-weight="800"><tspan x="0" y="19">Convertir</tspan></text>
          <path id="Trazado_194609" data-name="Trazado 194609" d="M0,0,85,40H0Z" transform="translate(180 7563.643)" fill="#ffb338"/>
          <g id="tarea-completada" transform="translate(180.125 7532.744)">
            <path id="Trazado_203286" data-name="Trazado 203286" d="M0,20.438ZM4.438,16" transform="translate(13.875 -13.525)" fill="#ffc846"/>
            <g transform="matrix(1, 0, 0, 1, -9.12, -6)" filter="url(#Trazado_502571)">
              <path id="Trazado_502571-2" data-name="Trazado 502571" d="M295.256,259.628A35.628,35.628,0,1,1,259.628,224,35.629,35.629,0,0,1,295.256,259.628Zm0,0" transform="translate(-214.88 -218)" fill="#cee4c6"/>
            </g>
          </g>
        </g>
        <g id="Grupo_734092" data-name="Grupo 734092" transform="translate(-153 161.131)">
          <path id="Trazado_621730" data-name="Trazado 621730" d="M138.44,145.09A18.361,18.361,0,0,0,154.3,172.674a18.409,18.409,0,0,0,9.311-2.528,1.375,1.375,0,0,1,.364-2.713l3.639.131a1.376,1.376,0,0,1,1.273,1.752l-1,3.5a1.375,1.375,0,0,1-2.7-.409,21.029,21.029,0,0,1-8.668,2.9,21.485,21.485,0,0,1-2.25.118,21.113,21.113,0,0,1-18.212-31.72,1.375,1.375,0,1,1,2.377,1.384Zm5-8.871a21.111,21.111,0,0,1,29.13,28.7,1.376,1.376,0,0,1-2.378-1.384,18.361,18.361,0,0,0-25.172-25.056,1.375,1.375,0,0,1-.314,2.714h-.05l-3.639-.131a1.376,1.376,0,0,1-1.273-1.752l1-3.5a1.375,1.375,0,0,1,2.7.41Zm23.429.384ZM142.5,162.445a1.375,1.375,0,0,0,1.368,1.522h20.886a1.375,1.375,0,0,0,1.368-1.522,11.84,11.84,0,0,0-7.219-9.684,6.686,6.686,0,1,0-9.183,0A11.84,11.84,0,0,0,142.5,162.445Zm7.875-14.538a3.935,3.935,0,1,1,3.937,3.935h0A3.94,3.94,0,0,1,150.38,147.907Zm3.933,6.686h0a9.106,9.106,0,0,1,8.78,6.622H145.534a9.107,9.107,0,0,1,8.78-6.622Z" transform="translate(1243.94 5077.975)"/>
        </g>
      </g>
    </g>
  </g>
</svg>
