<svg xmlns="http://www.w3.org/2000/svg" xmlns:xlink="http://www.w3.org/1999/xlink" width="497.016" height="219.113" viewBox="0 0 497.016 219.113">
  <defs>
    <clipPath id="clip-path">
      <rect id="Rectángulo_327137" data-name="Rectángulo 327137" width="497.016" height="216.846" fill="none"/>
    </clipPath>
    <clipPath id="clip-path-2">
      <rect id="Rectángulo_327143" data-name="Rectángulo 327143" width="422.89" height="219.113" fill="none"/>
    </clipPath>
    <clipPath id="clip-path-3">
      <rect id="Rectángulo_327138" data-name="Rectángulo 327138" width="88.951" height="113.36" fill="#eb6f2d"/>
    </clipPath>
    <clipPath id="clip-path-4">
      <rect id="Rectángulo_327139" data-name="Rectángulo 327139" width="29.175" height="24.35" fill="none"/>
    </clipPath>
    <clipPath id="clip-path-5">
      <rect id="Rectángulo_327140" data-name="Rectángulo 327140" width="8.561" height="13.08" fill="none"/>
    </clipPath>
    <clipPath id="clip-path-6">
      <rect id="Rectángulo_327141" data-name="Rectángulo 327141" width="9.449" height="7.841" fill="none"/>
    </clipPath>
    <clipPath id="clip-path-7">
      <rect id="Rectángulo_327142" data-name="Rectángulo 327142" width="9.59" height="8.668" fill="none"/>
    </clipPath>
    <clipPath id="clip-path-9">
      <rect id="Rectángulo_327144" data-name="Rectángulo 327144" width="9.015" height="34.415" fill="none"/>
    </clipPath>
    <clipPath id="clip-path-10">
      <rect id="Rectángulo_327145" data-name="Rectángulo 327145" width="18.489" height="8.728" fill="none"/>
    </clipPath>
    <clipPath id="clip-path-11">
      <rect id="Rectángulo_327146" data-name="Rectángulo 327146" width="22.902" height="39.317" fill="none"/>
    </clipPath>
    <clipPath id="clip-path-12">
      <rect id="Rectángulo_327147" data-name="Rectángulo 327147" width="4.676" height="7.973" fill="none"/>
    </clipPath>
    <clipPath id="clip-path-13">
      <rect id="Rectángulo_327148" data-name="Rectángulo 327148" width="24.36" height="21.875" fill="none"/>
    </clipPath>
    <clipPath id="clip-path-14">
      <rect id="Rectángulo_327149" data-name="Rectángulo 327149" width="28.154" height="28.773" fill="none"/>
    </clipPath>
  </defs>
  <g id="Grupo_878872" data-name="Grupo 878872" transform="translate(-837.984 -3547.937)">
    <g id="Grupo_876937" data-name="Grupo 876937" transform="translate(837.984 3547.937)">
      <g id="Enmascarar_grupo_876936" data-name="Enmascarar grupo 876936" transform="translate(0)" clip-path="url(#clip-path)">
        <path id="Trazado_621585" data-name="Trazado 621585" d="M497.016,363.632c0,.086-111.27.155-248.5.155-137.274,0-248.52-.069-248.52-.155s111.246-.155,248.52-.155c137.226,0,248.5.069,248.5.155" transform="translate(0 -147.437)" fill="#263238"/>
      </g>
    </g>
    <path id="Trazado_621586" data-name="Trazado 621586" d="M149.764,188.424l28.716,102.8h9.283l-28.145-103.41Z" transform="translate(838.353 3472.921)" fill="#455a64"/>
    <path id="Trazado_621587" data-name="Trazado 621587" d="M91.192,295.618l15.194-96.8,8.726.237L102.06,295.618Z" transform="translate(859.395 3468.526)" fill="#455a64"/>
    <path id="Trazado_621588" data-name="Trazado 621588" d="M68.5,211.475l-32.656,89.2H46.356l28.431-80.881Z" transform="translate(879.28 3463.47)" fill="#455a64"/>
    <g id="Grupo_876954" data-name="Grupo 876954" transform="translate(892.157 3547.937)">
      <g id="Grupo_876953" data-name="Grupo 876953" clip-path="url(#clip-path-2)">
        <path id="Trazado_621589" data-name="Trazado 621589" d="M138.323,131.033c11.183,30.883,6.364,60.185-15.224,67.054s-51.77-11.3-62.954-42.18S57.4,94.421,78.985,87.552s48.155,12.6,59.338,43.481" transform="translate(-19.832 -34.419)" fill="#ff725e"/>
        <g id="Grupo_876940" data-name="Grupo 876940" transform="translate(35.37 51.755)" opacity="0.3">
          <g id="Grupo_876939" data-name="Grupo 876939">
            <g id="Grupo_876938" data-name="Grupo 876938" clip-path="url(#clip-path-3)">
              <path id="Trazado_621590" data-name="Trazado 621590" d="M138.323,131.033c11.183,30.883,6.364,60.185-15.224,67.054s-51.77-11.3-62.954-42.18S57.4,94.421,78.985,87.552s48.155,12.6,59.338,43.481" transform="translate(-55.202 -86.174)" fill="#eb6f2d"/>
            </g>
          </g>
        </g>
        <path id="Trazado_621591" data-name="Trazado 621591" d="M152.4,126.3c11.077,30.589,2.556,60.954-19.032,67.823S85.3,181.759,74.224,151.17,71.668,90.216,93.256,83.348,141.326,95.708,152.4,126.3" transform="translate(-24.922 -32.735)" fill="#ffb338"/>
        <path id="Trazado_621592" data-name="Trazado 621592" d="M151.377,133.36c9.337,25.785,2.783,51.182-14.639,56.725s-39.116-10.866-48.453-36.651S85.5,102.252,102.924,96.709s39.116,10.866,48.453,36.651" transform="translate(-30.19 -38.197)" fill="#fafafa"/>
        <path id="Trazado_621593" data-name="Trazado 621593" d="M150.139,141.576c7.545,20.834,2.689,41.213-10.846,45.52S108.67,178,101.126,157.171s-2.689-41.213,10.846-45.52,30.623,9.092,38.167,29.925" transform="translate(-35.054 -44.273)" fill="#ffb338"/>
        <path id="Trazado_621594" data-name="Trazado 621594" d="M148.564,149.514c5.021,13.864,1.675,27.463-7.474,30.374s-20.635-5.969-25.656-19.833-1.674-27.464,7.474-30.374,20.634,5.969,25.655,19.833" transform="translate(-40.633 -51.576)" fill="#fafafa"/>
        <path id="Trazado_621595" data-name="Trazado 621595" d="M146.306,159.5c2.938,8.115,1.349,15.956-3.551,17.515s-11.253-3.755-14.192-11.87-1.349-15.957,3.551-17.515,11.254,3.755,14.192,11.87" transform="translate(-45.658 -58.855)" fill="#ffb338"/>
        <path id="Trazado_621596" data-name="Trazado 621596" d="M152.314,126.217s-.108-.25-.3-.745l-.861-2.193c-.812-1.907-2-4.728-3.879-8.211a80.523,80.523,0,0,0-7.973-12.062,65.717,65.717,0,0,0-14.147-13.234,47.872,47.872,0,0,0-10.147-5.316c-.928-.383-1.912-.653-2.884-.978l-1.5-.4c-.5-.142-1.009-.252-1.526-.347a32.418,32.418,0,0,0-6.366-.709c-.544.007-1.092-.032-1.64.013l-1.651.1a32.028,32.028,0,0,0-3.3.509A28.088,28.088,0,0,0,89.7,84.79a30.19,30.19,0,0,0-10.764,8.654,41,41,0,0,0-6.673,12.583,58.307,58.307,0,0,0-1.81,7.095,67.443,67.443,0,0,0-.888,7.394,77.576,77.576,0,0,0,4.729,30.518,81.062,81.062,0,0,0,16.068,26.919,74.1,74.1,0,0,0,5.507,5.361,65.315,65.315,0,0,0,6.045,4.6,46.114,46.114,0,0,0,13.468,6.176,32.624,32.624,0,0,0,14.162.724,28.173,28.173,0,0,0,6.5-1.977,30.692,30.692,0,0,0,2.95-1.48l1.374-.863c.464-.277.873-.621,1.31-.926a29.636,29.636,0,0,0,4.59-4.2,14.767,14.767,0,0,0,.985-1.146l.932-1.168c.561-.813,1.165-1.589,1.652-2.422a42.545,42.545,0,0,0,4.6-10.008,59.714,59.714,0,0,0,2.628-18.571,76.246,76.246,0,0,0-1.508-14.118c-.773-3.834-1.661-6.75-2.255-8.726-.325-.977-.573-1.722-.741-2.231s-.243-.763-.243-.763.1.253.276.753l.774,2.223a86.817,86.817,0,0,1,2.318,8.721,75.726,75.726,0,0,1,1.567,14.139,59.689,59.689,0,0,1-2.588,18.636,42.706,42.706,0,0,1-4.6,10.068c-.49.839-1.1,1.622-1.659,2.441l-.937,1.178a15.117,15.117,0,0,1-.991,1.156,29.923,29.923,0,0,1-4.623,4.238c-.44.308-.853.656-1.32.936l-1.387.873a31.088,31.088,0,0,1-2.977,1.5,28.475,28.475,0,0,1-6.569,2,32.911,32.911,0,0,1-14.3-.717,46.409,46.409,0,0,1-13.569-6.21,65.439,65.439,0,0,1-6.08-4.618,74.307,74.307,0,0,1-5.535-5.384,81.272,81.272,0,0,1-16.137-27.019A77.761,77.761,0,0,1,69.236,120.5a67.479,67.479,0,0,1,.9-7.428,58.606,58.606,0,0,1,1.824-7.132,41.289,41.289,0,0,1,6.731-12.667,30.493,30.493,0,0,1,10.879-8.728,28.37,28.37,0,0,1,6.512-2.158,32.348,32.348,0,0,1,3.336-.51l1.667-.1c.554-.045,1.107,0,1.656-.011a32.694,32.694,0,0,1,6.42.724c.52.1,1.034.208,1.536.352l1.508.4c.978.329,1.968.6,2.9.989a48.013,48.013,0,0,1,10.189,5.361A65.646,65.646,0,0,1,139.448,102.9a79.76,79.76,0,0,1,7.94,12.112,88.346,88.346,0,0,1,3.826,8.243l.83,2.205c.184.5.27.755.27.755" transform="translate(-24.833 -32.655)" fill="#263238"/>
        <g id="Grupo_876943" data-name="Grupo 876943" transform="translate(103.154 96.715)" opacity="0.3">
          <g id="Grupo_876942" data-name="Grupo 876942">
            <g id="Grupo_876941" data-name="Grupo 876941" clip-path="url(#clip-path-4)">
              <path id="Trazado_621597" data-name="Trazado 621597" d="M183.606,161.035l-22.613,5.549,29.175,18.8s-.5-13.844-2.737-21.891Z" transform="translate(-160.993 -161.034)"/>
            </g>
          </g>
        </g>
        <g id="Grupo_876946" data-name="Grupo 876946" transform="translate(48.81 140.561)" opacity="0.3">
          <g id="Grupo_876945" data-name="Grupo 876945">
            <g id="Grupo_876944" data-name="Grupo 876944" clip-path="url(#clip-path-5)">
              <path id="Trazado_621598" data-name="Trazado 621598" d="M76.178,239.1l6.662,8.026,1.9-5.4-6.711-7.677Z" transform="translate(-76.178 -234.041)"/>
            </g>
          </g>
        </g>
        <g id="Grupo_876949" data-name="Grupo 876949" transform="translate(67.252 156.662)" opacity="0.3">
          <g id="Grupo_876948" data-name="Grupo 876948">
            <g id="Grupo_876947" data-name="Grupo 876947" clip-path="url(#clip-path-6)">
              <path id="Trazado_621599" data-name="Trazado 621599" d="M104.96,264.568a13.143,13.143,0,0,0,9.034,4.122l.415-3.065a57.414,57.414,0,0,1-8.925-4.775Z" transform="translate(-104.96 -260.849)"/>
            </g>
          </g>
        </g>
        <g id="Grupo_876952" data-name="Grupo 876952" transform="translate(109.283 156.447)" opacity="0.3">
          <g id="Grupo_876951" data-name="Grupo 876951">
            <g id="Grupo_876950" data-name="Grupo 876950" clip-path="url(#clip-path-7)">
              <path id="Trazado_621600" data-name="Trazado 621600" d="M171.678,269.16l-1.12-4.01s6.038-2.107,8.41-4.658l1.18,4.334s-4.071,3.97-8.47,4.334" transform="translate(-170.558 -260.492)"/>
            </g>
          </g>
        </g>
      </g>
    </g>
    <path id="Trazado_621601" data-name="Trazado 621601" d="M504.51,293.7l19.53,12.286,6.142-7.638-18.327-15.172Z" transform="translate(730.858 3434.833)" fill="#bc8f86"/>
    <g id="Grupo_876974" data-name="Grupo 876974" transform="translate(912.11 3547.937)">
      <g id="Grupo_876973" data-name="Grupo 876973" clip-path="url(#clip-path-2)">
        <path id="Trazado_621602" data-name="Trazado 621602" d="M529.98,313.112l.536.39s-3.367,11.184-1.713,12.524L542.661,309l-6.231-4.091a12.339,12.339,0,0,1-6.449,8.2" transform="translate(-189.816 -121.787)" fill="#3d672f"/>
        <path id="Trazado_621603" data-name="Trazado 621603" d="M541.6,309.975a.978.978,0,0,1,1.237.125.8.8,0,0,1-.121,1.151,1.031,1.031,0,0,1-1.31-.139.839.839,0,0,1,.268-1.184" transform="translate(-194.46 -123.743)" fill="#fff"/>
        <path id="Trazado_621604" data-name="Trazado 621604" d="M542.676,311.071l-1.5-.984-12.733,16.675s-.265,1.01.374,1.331Z" transform="translate(-189.832 -123.854)" fill="#263238"/>
        <path id="Trazado_621605" data-name="Trazado 621605" d="M531.726,318.718c.091.061.47-.326,1.087-.531.613-.22,1.168-.157,1.2-.258.045-.089-.586-.344-1.33-.083s-1.049.832-.953.873" transform="translate(-191.024 -126.907)" fill="#263238"/>
        <path id="Trazado_621606" data-name="Trazado 621606" d="M530.691,322.918c.07.081.515-.172,1.119-.186.6-.031,1.068.188,1.132.1.077-.068-.4-.5-1.147-.467s-1.187.487-1.1.55" transform="translate(-190.655 -128.758)" fill="#263238"/>
        <path id="Trazado_621607" data-name="Trazado 621607" d="M531.815,327.243c.081-.062-.268-.495-.928-.628s-1.169.116-1.124.2.5.033,1.041.151.935.35,1.011.273" transform="translate(-190.324 -130.439)" fill="#263238"/>
        <path id="Trazado_621608" data-name="Trazado 621608" d="M413.071,317.39l-1.583,22,10.128,1.166,4.85-22.464Z" transform="translate(-147.833 -126.771)" fill="#bc8f86"/>
        <path id="Trazado_621609" data-name="Trazado 621609" d="M404.661,349.177l-.093.63s-12.016,2.861-12.427,4.873l22.656,2.735.663-7.1a13.837,13.837,0,0,1-10.8-1.134" transform="translate(-140.882 -139.467)" fill="#3d672f"/>
        <path id="Trazado_621610" data-name="Trazado 621610" d="M423.791,354.323a.856.856,0,0,1,.5,1.067.916.916,0,0,1-1.124.477.9.9,0,0,1-.527-1.132.963.963,0,0,1,1.228-.375" transform="translate(-151.817 -141.496)" fill="#fff"/>
        <path id="Trazado_621611" data-name="Trazado 621611" d="M414.8,360.43l.16-1.709-21.773-2s-1.066.289-1.043.969Z" transform="translate(-140.883 -142.482)" fill="#263238"/>
        <path id="Trazado_621612" data-name="Trazado 621612" d="M411.4,350.267c-.01.1.536.218,1.035.617s.729.87.836.841c.1-.008.025-.647-.588-1.121s-1.294-.435-1.283-.338" transform="translate(-147.801 -139.877)" fill="#263238"/>
        <path id="Trazado_621613" data-name="Trazado 621613" d="M407.493,351.345c-.039.1.416.332.731.816.331.475.361.961.471.97.1.029.262-.569-.142-1.164s-1.044-.72-1.06-.622" transform="translate(-146.397 -140.32)" fill="#263238"/>
        <path id="Trazado_621614" data-name="Trazado 621614" d="M404.453,354.276c.1.034.323-.465.117-1.067s-.693-.891-.752-.81.22.423.381.92.145.934.254.957" transform="translate(-145.074 -140.748)" fill="#263238"/>
        <path id="Trazado_621615" data-name="Trazado 621615" d="M483.254,12.743a4.477,4.477,0,0,1,3.55-3.279,9.7,9.7,0,0,1,5.182.49,12.527,12.527,0,0,1,4.986,2.907,6.8,6.8,0,0,1,2.106,5.037c-.1,1.734-1.021,3.474-.506,5.142A6.083,6.083,0,0,0,501.253,26a11.227,11.227,0,0,1,3.161,2.584,2.754,2.754,0,0,1-.144,3.629c-.928.789-2.593.878-2.983,1.993-.242.692.169,1.414.4,2.11a5.213,5.213,0,0,1-.759,4.424,9.688,9.688,0,0,1-3.616,3.065c-2.508,1.328-5.635,1.948-8.283.888a7.883,7.883,0,0,1-3.265-2.513,11.352,11.352,0,0,1-2.161-6.262,33.17,33.17,0,0,1,.459-6.646" transform="translate(-173.616 -3.711)" fill="#263238"/>
        <path id="Trazado_621616" data-name="Trazado 621616" d="M481.819,41.707a7.81,7.81,0,0,0,6.424-1.2,6.8,6.8,0,0,0,2.808-5.547c-.048-1.981-1-4-.347-5.884.452-1.294,1.608-2.3,2-3.613.579-1.958-.684-3.936-1.889-5.624a13.392,13.392,0,0,0-2.642-3.005,4.964,4.964,0,0,0-3.867-1.071" transform="translate(-173.101 -6.268)" fill="#263238"/>
        <path id="Trazado_621617" data-name="Trazado 621617" d="M448.868,16.1c.118,1.5-.936,2.832-2,3.954s-2.243,2.291-2.473,3.775c-.406,2.631,2.341,5.073,1.774,7.677-.3,1.4-1.523,2.517-1.74,3.927a4.713,4.713,0,0,0,1.536,3.736c.966,1.038,2.144,1.9,3,3.025,0,0,1.78,2.737,7.259.985" transform="translate(-159.642 -6.431)" fill="#263238"/>
        <path id="Trazado_621618" data-name="Trazado 621618" d="M475.894,13.666c.042-1.356-1.3-2.4-2.644-2.9A20.92,20.92,0,0,1,469.2,9.323a18.691,18.691,0,0,1-2.678-2.573,9.517,9.517,0,0,0-8.689-2.192,8.812,8.812,0,0,0-6.3,6.024,5.243,5.243,0,0,0,1.46,5.5c1.885,1.489,4.681,1.159,7.1.7s5.15-.921,7.167.409a9.773,9.773,0,0,1,2.657,3.314A6.13,6.13,0,0,0,473,23.394c1.406.454,3.315-.33,3.37-1.723" transform="translate(-162.143 -1.709)" fill="#263238"/>
        <path id="Trazado_621619" data-name="Trazado 621619" d="M469.4,18.314a2.326,2.326,0,0,1,2.161,2.307l-1.445,30.653c-.06,3.62-5.706,5.655-9.841,5.564-4.176-.091-4.311-2.011-4.363-5.455-.087-5.754-.08-7.914-.082-7.881,0,0-5.275-.832-6.353-7.287-.536-3.21-.352-8.472-.053-12.773.27-3.871,3.017-8.615,7.131-8.2Z" transform="translate(-161.36 -6.078)" fill="#bc8f86"/>
        <path id="Trazado_621620" data-name="Trazado 621620" d="M451.494,35.487a.852.852,0,0,0,.85.837.827.827,0,0,0,.912-.744.853.853,0,0,0-.848-.837.828.828,0,0,0-.913.745" transform="translate(-162.206 -13.876)" fill="#263238"/>
        <path id="Trazado_621621" data-name="Trazado 621621" d="M451.132,31.735c.11.108.779-.354,1.729-.35s1.645.451,1.749.342c.051-.048-.06-.243-.363-.451a2.533,2.533,0,0,0-1.4-.408,2.431,2.431,0,0,0-1.377.414c-.293.21-.392.4-.338.453" transform="translate(-162.071 -12.329)" fill="#263238"/>
        <path id="Trazado_621622" data-name="Trazado 621622" d="M465.267,35.749a.852.852,0,0,0,.85.837.828.828,0,0,0,.912-.744.853.853,0,0,0-.849-.837.828.828,0,0,0-.912.745" transform="translate(-167.154 -13.981)" fill="#263238"/>
        <path id="Trazado_621623" data-name="Trazado 621623" d="M466.049,32.47c.11.108.78-.354,1.73-.35s1.645.451,1.749.342c.051-.048-.06-.243-.364-.451a2.529,2.529,0,0,0-1.4-.408,2.432,2.432,0,0,0-1.377.414c-.292.209-.392.4-.338.453" transform="translate(-167.43 -12.623)" fill="#263238"/>
        <path id="Trazado_621624" data-name="Trazado 621624" d="M459.3,39.832a6.652,6.652,0,0,0-1.542-.264c-.243-.024-.472-.07-.513-.225a1.1,1.1,0,0,1,.164-.674l.721-1.73a28.553,28.553,0,0,0,1.622-4.526,28.8,28.8,0,0,0-2.007,4.393q-.362.911-.692,1.74a1.24,1.24,0,0,0-.128.892.594.594,0,0,0,.4.333,1.717,1.717,0,0,0,.412.055,6.574,6.574,0,0,0,1.564.005" transform="translate(-164.139 -12.946)" fill="#263238"/>
        <path id="Trazado_621625" data-name="Trazado 621625" d="M459.589,60.79a18.477,18.477,0,0,0,9.225-2.286s-2.336,4.432-9.225,3.814Z" transform="translate(-165.114 -23.367)" fill="#7f473d"/>
        <path id="Trazado_621626" data-name="Trazado 621626" d="M465.405,29c.093.242,1.042.13,2.156.258,1.117.108,2.016.415,2.164.2.067-.1-.09-.332-.452-.567a3.767,3.767,0,0,0-1.6-.53,3.837,3.837,0,0,0-1.688.182c-.409.154-.616.344-.576.459" transform="translate(-167.202 -11.317)" fill="#263238"/>
        <path id="Trazado_621627" data-name="Trazado 621627" d="M451.346,28.412c.189.2.932-.006,1.824-.014.892-.034,1.648.139,1.822-.072.077-.1-.042-.305-.372-.5a2.927,2.927,0,0,0-1.482-.335,2.881,2.881,0,0,0-1.456.4c-.316.207-.42.415-.336.514" transform="translate(-162.143 -10.981)" fill="#263238"/>
        <path id="Trazado_621628" data-name="Trazado 621628" d="M477.481,38.63a6.507,6.507,0,0,1-5.37-1.42,5.625,5.625,0,0,1-1.9-4.916c.214-1.585,1.126-3.2.539-4.7-.775-1.983-3.741-2.593-4.528-4.573-.457-1.15-.047-2.5-.565-3.623a4.557,4.557,0,0,0-2.836-2.063,12.276,12.276,0,0,1-3.372-1.372,2.4,2.4,0,0,1-.952-3.039,68.826,68.826,0,0,1,15.044,3.426,5.85,5.85,0,0,1,2.969,1.8,5.387,5.387,0,0,1,.61,3.459Q476.684,30.3,476.251,39" transform="translate(-164.629 -5.163)" fill="#263238"/>
        <path id="Trazado_621629" data-name="Trazado 621629" d="M481.079,16.731a.5.5,0,0,1,.115.264.944.944,0,0,1-.265.776,1.767,1.767,0,0,1-1.233.583,4.167,4.167,0,0,1-1.744-.488,5.073,5.073,0,0,0-2.009-.556,11.144,11.144,0,0,0-2.43.207,17.453,17.453,0,0,1-2.749.332,4.117,4.117,0,0,1-2.82-.965,7.61,7.61,0,0,1-1.623-2.36,11.608,11.608,0,0,0-1.314-2.214,3.961,3.961,0,0,0-6.37.3,8.722,8.722,0,0,0-.5.957.763.763,0,0,1,.052-.277,3.373,3.373,0,0,1,.333-.745,4.018,4.018,0,0,1,2.453-1.825,4.281,4.281,0,0,1,2.212.041,4.146,4.146,0,0,1,2.084,1.357,11.657,11.657,0,0,1,1.371,2.263,7.419,7.419,0,0,0,1.551,2.257,3.764,3.764,0,0,0,2.576.881,17.709,17.709,0,0,0,2.692-.308,11.153,11.153,0,0,1,2.508-.18,5.273,5.273,0,0,1,2.1.62,4.084,4.084,0,0,0,1.629.515,1.651,1.651,0,0,0,1.132-.482.919.919,0,0,0,.3-.683c-.008-.176-.063-.264-.043-.271" transform="translate(-164.589 -4.232)" fill="#455a64"/>
        <path id="Trazado_621630" data-name="Trazado 621630" d="M491.015,19.161a13.279,13.279,0,0,0-3.26-2.693,14.23,14.23,0,0,0-4.125-1.282,3.437,3.437,0,0,1,1.31.014,8.887,8.887,0,0,1,2.993.977,8.378,8.378,0,0,1,2.408,1.93,3,3,0,0,1,.674,1.053" transform="translate(-173.751 -6.047)" fill="#455a64"/>
        <path id="Trazado_621631" data-name="Trazado 621631" d="M473.654,11.917c.01.006-.022.07-.1.19a2,2,0,0,1-.444.438,3.163,3.163,0,0,1-2.278.474,5.826,5.826,0,0,1-2.98-1.665,15.465,15.465,0,0,0-3.061-2.62,5.738,5.738,0,0,0-3.952-.471,5.282,5.282,0,0,0-3.809,3.553c-.151.488-.179.772-.21.769-.012,0-.015-.072-.01-.208a3.168,3.168,0,0,1,.087-.592,4.908,4.908,0,0,1,.987-1.99,5.374,5.374,0,0,1,2.871-1.825,5.992,5.992,0,0,1,4.206.478,14.856,14.856,0,0,1,3.119,2.692,5.7,5.7,0,0,0,2.794,1.65,3.132,3.132,0,0,0,2.157-.35,4.286,4.286,0,0,0,.619-.524" transform="translate(-164.116 -3.11)" fill="#455a64"/>
        <path id="Trazado_621632" data-name="Trazado 621632" d="M482.6,45.159a.98.98,0,0,0,.306.079,5.755,5.755,0,0,0,.9.085,7.438,7.438,0,0,0,3.256-.688,7.315,7.315,0,0,0,3.47-3.289,7.671,7.671,0,0,0,.588-5.623,15.331,15.331,0,0,1-.605-2.827,4.272,4.272,0,0,1,.681-2.507,8.893,8.893,0,0,0,1.066-2.286,5.037,5.037,0,0,0,.067-2.189,5.629,5.629,0,0,0-1.422-2.828,4.384,4.384,0,0,0-.661-.587c-.167-.117-.258-.172-.267-.161-.026.029.327.274.805.843a5.732,5.732,0,0,1,1.259,2.775,4.87,4.87,0,0,1-.11,2.07,8.862,8.862,0,0,1-1.07,2.2,6.428,6.428,0,0,0-.579,1.255,4.2,4.2,0,0,0-.168,1.435,15.082,15.082,0,0,0,.607,2.9,7.428,7.428,0,0,1-.529,5.382,7.121,7.121,0,0,1-3.261,3.2,7.726,7.726,0,0,1-3.127.781c-.775.022-1.2-.051-1.21-.016" transform="translate(-173.382 -8.922)" fill="#455a64"/>
        <path id="Trazado_621633" data-name="Trazado 621633" d="M497.739,12.264a2.315,2.315,0,0,0-1.175-.57,4.985,4.985,0,0,0-3.187.229,4.55,4.55,0,0,0-2.264,2.115,2.018,2.018,0,0,0-.306,1.207c.066.014.172-.447.562-1.082a4.847,4.847,0,0,1,2.178-1.892,5.273,5.273,0,0,1,2.95-.314c.768.137,1.21.363,1.242.306" transform="translate(-176.323 -4.606)" fill="#455a64"/>
        <path id="Trazado_621634" data-name="Trazado 621634" d="M493.62,17.306a3.676,3.676,0,0,0-.029-.42,2.05,2.05,0,0,1,.3-1.133,3.239,3.239,0,0,1,1.427-1.256,3.161,3.161,0,0,1,2.519-.06,4.532,4.532,0,0,1,2.251,2.02,6.153,6.153,0,0,1,.7,3.345,20.961,20.961,0,0,1-.645,3.824,15.226,15.226,0,0,0-.528,4.205,12.061,12.061,0,0,0,1.165,4.1,34.151,34.151,0,0,1,1.5,3.625,7.488,7.488,0,0,1,.312,3.428,9.63,9.63,0,0,1-.955,2.888,22.933,22.933,0,0,1-2.524,3.748l-.777.97a1.816,1.816,0,0,0-.253.353,1.821,1.821,0,0,0,.317-.3c.2-.207.482-.518.838-.927a20.827,20.827,0,0,0,2.659-3.721,9.762,9.762,0,0,0,1.031-2.962,7.725,7.725,0,0,0-.286-3.568,33.05,33.05,0,0,0-1.488-3.671,11.842,11.842,0,0,1-1.128-3.976c-.125-2.832,1.1-5.452,1.142-8a6.429,6.429,0,0,0-.779-3.507,4.818,4.818,0,0,0-2.443-2.121,3.408,3.408,0,0,0-2.729.121,3.317,3.317,0,0,0-1.465,1.379,2,2,0,0,0-.244,1.207,1.313,1.313,0,0,0,.111.414" transform="translate(-177.295 -5.575)" fill="#455a64"/>
        <path id="Trazado_621635" data-name="Trazado 621635" d="M461.135,47.659a4.2,4.2,0,0,0,.591,1.087,1.565,1.565,0,0,0,1.1.6,1.409,1.409,0,0,0,1.169-.6,1.968,1.968,0,0,0,.326-1.246c-.019-.393-.211-.862-.628-.908a1.1,1.1,0,0,0-.506.105l-2.19.832" transform="translate(-165.618 -18.607)" fill="#7f473d"/>
        <path id="Trazado_621636" data-name="Trazado 621636" d="M461.776,49.206a3.364,3.364,0,0,0,1.168-.135,1.642,1.642,0,0,0,.883-.752,1.557,1.557,0,0,0,.029-1.343,1.492,1.492,0,0,0-.191-.307c-.087-.085-.071-.081-.165-.068s-.234.086-.351.129l-.359.138c-.469.178-.893.333-1.252.458a4.194,4.194,0,0,1-1.192.337,4.021,4.021,0,0,1,1.083-.575c.345-.156.757-.336,1.219-.531l.354-.149a4.24,4.24,0,0,1,.4-.154.544.544,0,0,1,.325.009.59.59,0,0,1,.242.179,1.714,1.714,0,0,1,.246.389,1.814,1.814,0,0,1-.067,1.642,1.857,1.857,0,0,1-1.112.843,1.876,1.876,0,0,1-.948.034c-.218-.053-.32-.123-.311-.144" transform="translate(-165.386 -18.466)" fill="#263238"/>
        <path id="Trazado_621637" data-name="Trazado 621637" d="M465.822,212.036l-4.1-30.807c2.668-5.839,3.635-11.67,2.856-15.293.046.379.067.849-.043-.215-.664-6.415-6.573-11.132-6.573-11.132l-1.977-7.783-25.306,3.336.957,13.029-15.886,48.381-3.709,52.3,13.5,1.416s5.152-23.741,6.55-33.287a123.71,123.71,0,0,0,1.313-15.624l12.426-17.424c1.47,7.193,3.133,16.07,3.99,20.7a11.823,11.823,0,0,0,2.755,5.638l32.513,23.986,7.767-9.454c-3.1-6.92-27.035-27.766-27.035-27.766" transform="translate(-148.033 -58.637)" fill="#263238"/>
        <path id="Trazado_621638" data-name="Trazado 621638" d="M445.31,162.305a5.2,5.2,0,0,1-.529-1.291,21.814,21.814,0,0,1-.784-3.254,21.591,21.591,0,0,1-.278-3.326,5.061,5.061,0,0,1,.1-1.38,7.486,7.486,0,0,1,.125,1.373c.056.846.161,2.012.366,3.289s.474,2.419.688,3.243a7.578,7.578,0,0,1,.315,1.346" transform="translate(-159.413 -61.132)" fill="#455a64"/>
        <path id="Trazado_621639" data-name="Trazado 621639" d="M447.452,153.592c-.008-.014.1-.089.326-.137a1.61,1.61,0,0,1,.97.131,1.425,1.425,0,0,1,.861,1.109,1.573,1.573,0,0,1-.809,1.494,1.658,1.658,0,0,1-1.773-.152,1.4,1.4,0,0,1-.6-1.248,2.114,2.114,0,0,1,.283-.871c.107-.187.185-.279.2-.271s-.022.12-.091.316a2.541,2.541,0,0,0-.174.833,1.215,1.215,0,0,0,.552,1.026,1.374,1.374,0,0,0,1.436.115,1.336,1.336,0,0,0,.68-1.218,1.223,1.223,0,0,0-.675-.949,2.026,2.026,0,0,0-1.192-.178" transform="translate(-160.384 -61.282)" fill="#455a64"/>
        <path id="Trazado_621640" data-name="Trazado 621640" d="M467.884,162.01a1.488,1.488,0,0,1-.445.172,7.28,7.28,0,0,1-1.279.271,9.971,9.971,0,0,1-1.949.064,11.577,11.577,0,0,1-2.348-.419,11.255,11.255,0,0,1-2.177-.927,9.279,9.279,0,0,1-1.553-1.106,6.677,6.677,0,0,1-.878-.912c-.183-.234-.274-.369-.257-.381.046-.034.459.476,1.283,1.139a10.667,10.667,0,0,0,1.552,1.028,12.259,12.259,0,0,0,2.125.879,12.493,12.493,0,0,0,2.277.429,11.343,11.343,0,0,0,1.9,0c1.082-.1,1.733-.29,1.749-.237" transform="translate(-164.183 -63.415)" fill="#455a64"/>
        <path id="Trazado_621641" data-name="Trazado 621641" d="M471.85,202.874a2.508,2.508,0,0,1-.276.362l-.834,1c-.7.886-1.717,2.167-2.936,3.776-2.443,3.214-5.742,7.7-9.35,12.686l-9.214,12.78-2.8,3.87-.771,1.046a2.515,2.515,0,0,1-.287.354,2.447,2.447,0,0,1,.234-.387l.723-1.076,2.715-3.922c2.309-3.3,5.527-7.846,9.139-12.83s6.939-9.457,9.43-12.643c1.243-1.595,2.287-2.859,3.02-3.724l.882-.968a2.6,2.6,0,0,1,.324-.324" transform="translate(-160.01 -81.031)" fill="#455a64"/>
        <path id="Trazado_621642" data-name="Trazado 621642" d="M482.507,79.173c.053,0,.051-.623.229-1.6a10.712,10.712,0,0,1,1.39-3.626,6.337,6.337,0,0,1,2.821-2.692A4.161,4.161,0,0,1,488.6,71a.988.988,0,0,0-.457-.117,3,3,0,0,0-1.285.166,6.158,6.158,0,0,0-3.015,2.739,9.559,9.559,0,0,0-1.335,3.745,4.5,4.5,0,0,0,0,1.636" transform="translate(-173.326 -28.307)" fill="#263238"/>
        <path id="Trazado_621643" data-name="Trazado 621643" d="M464.843,68.567l-12.816,1.862-7.974,9.848a20.8,20.8,0,0,0-4.625,13.776,23.189,23.189,0,0,0,1.99,7.413l-2,14.108c-.3,1.62.827,3.175,1.582,3.175l24.013-3.019c3.131-.577,4.416-2.11,4.222-3.808l-.357-3.144L476.8,77.044c.607,1.9.255-6.125-4.324-7.7a14.757,14.757,0,0,0-7.629-.774" transform="translate(-157.849 -27.3)" fill="#b1de19"/>
        <path id="Trazado_621644" data-name="Trazado 621644" d="M448.013,79.581c-.009-.006-.078.067-.2.211l-.527.638c-.451.557-1.1,1.371-1.864,2.393a38.114,38.114,0,0,0-5.036,8.509,17.412,17.412,0,0,0-1.133,9.55,12.126,12.126,0,0,0,.885,2.827,7.78,7.78,0,0,0,.37.726.989.989,0,0,0,.154.242c.026-.011-.147-.362-.407-1.008a13.521,13.521,0,0,1-.777-2.819,17.894,17.894,0,0,1,1.211-9.421,41.145,41.145,0,0,1,4.923-8.494l1.776-2.441.477-.668a.986.986,0,0,0,.149-.244" transform="translate(-157.718 -31.786)" fill="#263238"/>
        <path id="Trazado_621645" data-name="Trazado 621645" d="M483.1,92.337a.983.983,0,0,0,.013.286l.1.814c.1.7.273,1.721.513,2.972.477,2.5,1.24,5.941,2.15,9.723s1.8,7.193,2.483,9.654c.339,1.23.625,2.223.833,2.906.1.313.181.572.249.785a.964.964,0,0,0,.108.268.989.989,0,0,0-.045-.283c-.051-.217-.114-.48-.19-.8l-.732-2.928c-.622-2.516-1.462-5.914-2.39-9.669-.909-3.78-1.707-7.208-2.241-9.7l-.613-2.951-.161-.8a.988.988,0,0,0-.078-.277" transform="translate(-173.56 -36.881)" fill="#263238"/>
        <g id="Grupo_876957" data-name="Grupo 876957" transform="translate(304.577 53.573)" opacity="0.3">
          <g id="Grupo_876956" data-name="Grupo 876956">
            <g id="Grupo_876955" data-name="Grupo 876955" clip-path="url(#clip-path-9)">
              <path id="Trazado_621646" data-name="Trazado 621646" d="M479.7,123.617c-1.378-1.3-1.667-3.262-1.883-5.08q-1.03-8.676-2.061-17.351c-.428-3.606-.833-7.388.618-10.752a1.869,1.869,0,0,1,1.1-1.194,1.47,1.47,0,0,1,1.444.56c.334.414,1.271,1.01,1.408,1.513,1.4,5.156,2.01,10.235,3.411,15.391.37,1.363.853,1.31.532,2.684-.466,1.995-2.46,7.721-2.46,7.721s.285,2.079.37,3.295a3.17,3.17,0,0,1-2.477,3.215" transform="translate(-475.355 -89.202)"/>
            </g>
          </g>
        </g>
        <path id="Trazado_621647" data-name="Trazado 621647" d="M458.013,70.162l-.4-3.176,17-2.032v3.559Z" transform="translate(-164.404 -25.943)" fill="#b1de19"/>
        <path id="Trazado_621648" data-name="Trazado 621648" d="M346.426,317.644l7.375,11.627s-10.132,10.931-8.992,13.2l24.565-12.593-10.7-18.558Z" transform="translate(-123.846 -124.348)" fill="#455a64"/>
        <path id="Trazado_621649" data-name="Trazado 621649" d="M369.372,333.045a1.154,1.154,0,0,1,1.32.718,1.024,1.024,0,0,1-.747,1.232,1.216,1.216,0,0,1-1.394-.767,1.081,1.081,0,0,1,.929-1.2" transform="translate(-132.403 -133.013)" fill="#e0e0e0"/>
        <path id="Trazado_621650" data-name="Trazado 621650" d="M369.32,341.006l-1.157-1.831-23.12,12.759s-.834,1.007-.289,1.665Z" transform="translate(-123.792 -135.472)" fill="#263238"/>
        <path id="Trazado_621651" data-name="Trazado 621651" d="M358.16,340.993c.07.111.7-.146,1.5-.087.8.04,1.392.371,1.476.269.1-.078-.473-.659-1.444-.714s-1.618.443-1.531.532" transform="translate(-128.671 -135.983)" fill="#263238"/>
        <path id="Trazado_621652" data-name="Trazado 621652" d="M355.051,345.053c.036.123.667.048,1.352.315.693.247,1.1.709,1.213.643.123-.04-.178-.741-1.037-1.058s-1.588-.009-1.528.1" transform="translate(-127.556 -137.723)" fill="#263238"/>
        <path id="Trazado_621653" data-name="Trazado 621653" d="M354.239,350.268c.123-.032-.038-.679-.705-1.137s-1.371-.416-1.367-.3c-.013.127.543.271,1.085.655s.862.828.988.778" transform="translate(-126.521 -139.298)" fill="#263238"/>
        <path id="Trazado_621654" data-name="Trazado 621654" d="M356.02,335.783c.11.077.57-.36,1.273-.665s1.349-.375,1.355-.5c.022-.117-.736-.269-1.559.1s-1.18,1.01-1.069,1.068" transform="translate(-127.898 -133.597)" fill="#263238"/>
        <path id="Trazado_621655" data-name="Trazado 621655" d="M340.974,329.7l.539,13.517s-14.476,5.054-14.636,7.561l28-.04.081-21.094Z" transform="translate(-117.435 -131.665)" fill="#455a64"/>
        <path id="Trazado_621656" data-name="Trazado 621656" d="M362.463,350.3a1.069,1.069,0,0,1,.793,1.222,1.1,1.1,0,0,1-1.285.747,1.126,1.126,0,0,1-.832-1.3,1.164,1.164,0,0,1,1.429-.638" transform="translate(-129.729 -139.898)" fill="#e0e0e0"/>
        <path id="Trazado_621657" data-name="Trazado 621657" d="M354.87,363.353l-.081-2.127-26.815.833s-1.246.51-1.1,1.333Z" transform="translate(-117.429 -144.279)" fill="#263238"/>
        <path id="Trazado_621658" data-name="Trazado 621658" d="M349.012,351.943c0,.128.688.186,1.362.6.685.395,1.033.95,1.158.9.126-.025-.079-.791-.9-1.275s-1.646-.337-1.616-.22" transform="translate(-125.387 -140.524)" fill="#263238"/>
        <path id="Trazado_621659" data-name="Trazado 621659" d="M344.43,353.89c-.031.124.561.341,1.026.883.482.529.6,1.114.737,1.109.128.02.222-.731-.37-1.394s-1.39-.719-1.393-.6" transform="translate(-123.741 -141.329)" fill="#263238"/>
        <path id="Trazado_621660" data-name="Trazado 621660" d="M341.22,357.944c.124.027.313-.613-.038-1.315s-.993-.98-1.05-.873c-.077.106.339.482.618,1.062s.334,1.113.47,1.126" transform="translate(-122.194 -142.086)" fill="#263238"/>
        <path id="Trazado_621661" data-name="Trazado 621661" d="M349.386,346.564c.058.117.684-.061,1.457-.013.774.033,1.376.276,1.447.166.079-.093-.509-.567-1.42-.611s-1.551.357-1.484.458" transform="translate(-125.52 -138.238)" fill="#263238"/>
        <path id="Trazado_621662" data-name="Trazado 621662" d="M353.737,187.3s1.581,7.444.787,8.514a33.834,33.834,0,0,0-2.216,4.481l.463,33.468L355.218,283l-16.666-.305L332.3,239.2a34.337,34.337,0,0,1-3.318-7.476c-.893-3.453-5.874-37.727-5.874-37.727l.274-13.171Z" transform="translate(-116.082 -72.224)" fill="#263238"/>
        <path id="Trazado_621663" data-name="Trazado 621663" d="M311.736,182.072s2.546,44.871,3.621,48.87,23.922,45.1,23.922,45.1l14.433-6.319-18.065-43.29.863-41.445Z" transform="translate(-111.996 -72.722)" fill="#263238"/>
        <path id="Trazado_621664" data-name="Trazado 621664" d="M320.512,188.667a1.383,1.383,0,0,0,.02.255c.024.183.055.429.1.743.094.669.226,1.627.4,2.852.365,2.492.887,6.068,1.53,10.48.659,4.428,1.442,9.693,2.312,15.537.445,2.923.881,5.993,1.4,9.173a52.715,52.715,0,0,0,2.4,9.7c1.189,3.234,2.921,6.189,3.458,9.363.653,3.145,1.089,6.22,1.516,9.143.822,5.853,1.471,11.135,2.025,15.571s1,8.026,1.344,10.5c.174,1.238.313,2.2.426,2.849.056.312.1.557.132.738a1.43,1.43,0,0,0,.056.25,1.224,1.224,0,0,0-.021-.255c-.024-.183-.058-.429-.1-.742-.084-.67-.205-1.629-.359-2.855-.295-2.5-.715-6.086-1.235-10.513s-1.148-9.725-1.952-15.584c-.42-2.928-.848-6-1.5-9.167-.545-3.226-2.292-6.21-3.463-9.407a52.707,52.707,0,0,1-2.387-9.647c-.52-3.172-.963-6.245-1.417-9.165-.9-5.841-1.706-11.1-2.386-15.528-.69-4.406-1.249-7.977-1.639-10.465-.2-1.222-.354-2.176-.463-2.843-.055-.312-.1-.557-.129-.739a1.524,1.524,0,0,0-.055-.25" transform="translate(-115.148 -75.356)" fill="#455a64"/>
        <path id="Trazado_621665" data-name="Trazado 621665" d="M371.156,306.915a5.982,5.982,0,0,0-.02,1.035c.009.665.039,1.629.086,2.818.094,2.379.277,5.662.495,9.287s.4,6.908.516,9.284c.057,1.146.1,2.094.14,2.814a5.948,5.948,0,0,0,.091,1.032,5.906,5.906,0,0,0,.044-1.034c.007-.666,0-1.629-.029-2.82-.053-2.38-.2-5.667-.416-9.294-.231-3.6-.44-6.851-.6-9.28-.079-1.145-.145-2.092-.2-2.812a6.005,6.005,0,0,0-.115-1.03" transform="translate(-133.335 -122.587)" fill="#455a64"/>
        <path id="Trazado_621666" data-name="Trazado 621666" d="M330.776,16.963l3.445,24.754c.586,4.21.529,10.506-6.614,11.071-6.237.052-8.558-5.232-9.1-9.161-.257-1.864-.476-3.417-.516-3.607,0,0-6.805.229-8.159-5.949-.654-2.986-1.467-9.238-2.132-14.9-.715-6.083,3.682-11.659,10.093-12.816l.638-.115c6.951-.864,11.617,4.187,12.346,10.723" transform="translate(-110.519 -2.454)" fill="#ffd5bd"/>
        <path id="Trazado_621667" data-name="Trazado 621667" d="M323.759,59.845A16.147,16.147,0,0,0,331.9,56s-1.121,4.824-7.828,5.456Z" transform="translate(-116.315 -22.366)" fill="#ffb294"/>
        <path id="Trazado_621668" data-name="Trazado 621668" d="M310.262,32.237c.139.108,1.03-.258,2.273-.174s2.137.55,2.276.459c.068-.04-.071-.227-.461-.441a4.491,4.491,0,0,0-1.817-.489,4.146,4.146,0,0,0-1.814.261c-.39.166-.526.336-.457.384" transform="translate(-111.46 -12.614)" fill="#263238"/>
        <path id="Trazado_621669" data-name="Trazado 621669" d="M326.47,30.108c.174.037.8-.652,1.948-1.091s2.164-.4,2.245-.538c.042-.063-.169-.17-.617-.2a4.59,4.59,0,0,0-1.85.322,3.943,3.943,0,0,0-1.5.978c-.27.307-.313.512-.229.526" transform="translate(-117.275 -11.294)" fill="#263238"/>
        <path id="Trazado_621670" data-name="Trazado 621670" d="M326.18,34.144a.738.738,0,0,0,.844.563.675.675,0,0,0,.624-.751.738.738,0,0,0-.843-.563.676.676,0,0,0-.625.751" transform="translate(-117.182 -13.335)" fill="#263238"/>
        <path id="Trazado_621671" data-name="Trazado 621671" d="M311.351,35.878a.738.738,0,0,0,.844.562.675.675,0,0,0,.625-.751.738.738,0,0,0-.843-.563.676.676,0,0,0-.625.752" transform="translate(-111.855 -14.027)" fill="#263238"/>
        <path id="Trazado_621672" data-name="Trazado 621672" d="M321.534,37.294a7.282,7.282,0,0,0-1.706.019c-.264.022-.52.018-.6-.14a1.187,1.187,0,0,1,.025-.752q.185-.948.386-1.989a30.505,30.505,0,0,0,.729-5.151,30.615,30.615,0,0,0-1.169,5.083q-.185,1.044-.352,1.994a1.353,1.353,0,0,0,.061.978.671.671,0,0,0,.5.278,1.9,1.9,0,0,0,.452-.022,7.123,7.123,0,0,0,1.672-.3" transform="translate(-114.529 -11.696)" fill="#263238"/>
        <path id="Trazado_621673" data-name="Trazado 621673" d="M325.972,22.685c.137.22,1.008-.053,2.084-.12,1.074-.088,1.982.058,2.079-.179.042-.113-.152-.308-.541-.474a3.6,3.6,0,0,0-1.617-.24,3.518,3.518,0,0,0-1.554.468c-.355.22-.511.441-.45.546" transform="translate(-117.106 -8.652)" fill="#263238"/>
        <path id="Trazado_621674" data-name="Trazado 621674" d="M309.817,27.821c.141.176.985-.13,2.036-.277,1.049-.165,1.943-.117,2.029-.327.037-.1-.158-.25-.545-.36a4.2,4.2,0,0,0-3.1.46c-.341.217-.487.419-.424.5" transform="translate(-111.301 -10.681)" fill="#263238"/>
        <path id="Trazado_621675" data-name="Trazado 621675" d="M344.385,31.6c.1-.066,4.281-2.077,5.006,2.182s-3.987,4.064-4.016,3.943-.991-6.125-.991-6.125" transform="translate(-123.725 -12.41)" fill="#ffd5bd"/>
        <path id="Trazado_621676" data-name="Trazado 621676" d="M347.557,36.787c.018-.017.088.04.232.077a.848.848,0,0,0,.593-.077A1.8,1.8,0,0,0,349.008,35a2.39,2.39,0,0,0-.4-1.029.927.927,0,0,0-.693-.48.407.407,0,0,0-.432.273c-.04.129,0,.209-.02.22s-.11-.056-.1-.238a.464.464,0,0,1,.133-.294.624.624,0,0,1,.419-.174,1.139,1.139,0,0,1,.939.537,2.458,2.458,0,0,1,.477,1.146,1.9,1.9,0,0,1-.842,2.013.91.91,0,0,1-.743,0c-.159-.085-.2-.176-.185-.186" transform="translate(-124.793 -13.293)" fill="#ffb294"/>
        <path id="Trazado_621677" data-name="Trazado 621677" d="M325.336,45.351c-.063-.1.8-.453,1.33-1.309a4.655,4.655,0,0,0,.491-1.187c.094-.326.17-.532.222-.523s.063.22.033.566a3.043,3.043,0,0,1-.431,1.317,2.685,2.685,0,0,1-1.061.966c-.333.171-.567.205-.584.17" transform="translate(-116.881 -16.908)" fill="#263238"/>
        <path id="Trazado_621678" data-name="Trazado 621678" d="M292.838,12.091a1.011,1.011,0,0,1,.432-.646A3.506,3.506,0,0,1,294.94,11a10.009,10.009,0,0,0,4.828-1.98,21.037,21.037,0,0,1,2-2.9,16.647,16.647,0,0,1,4.9-4.522,16.459,16.459,0,0,1,8.178-1.52c2.388.314,4.69,1.846,5.292,4.035a5.081,5.081,0,0,1,4.779-.959l.037-.02c1.836.394,3.057,2.029,3.789,3.656s1.18,3.4,2.321,4.808c.238.294.522.646.39.993a.756.756,0,0,1-.738.4,2.288,2.288,0,0,1-.864-.258l.756,1.258a4.463,4.463,0,0,1-1.932.092,36.387,36.387,0,0,1-.7,4.58,2.84,2.84,0,0,0-1.811.637c-.552.588-.7,1.6-1.777,1.339-.546-.132-1.151-1.106-1.388-1.585a23.246,23.246,0,0,1-2.421-10.185,8.579,8.579,0,0,0-2.8-1.46l.087.058c-1.937-.4-4.117-.763-5.779.25-1.289.786-1.927,2.207-2.817,3.383a10.647,10.647,0,0,1-7.045,4.049c.122,1.768.592,4.235.715,6l-1.931-2.641v.014c-.154-.192-.288-.387-.417-.584l-.044-.059v-.008a11.065,11.065,0,0,0-.653-.941l-.016.017c-.91.953-2.569-.167-1.9-1.279a2.515,2.515,0,0,1,.5-.6,1.931,1.931,0,0,1-1.711.624,1.409,1.409,0,0,1-1.2-1.234,1.156,1.156,0,0,1,.62-1.011,4.463,4.463,0,0,1-2.437-.228c-.5-.2-1.012-.56-.923-1.131" transform="translate(-105.203 0)" fill="#263238"/>
        <path id="Trazado_621679" data-name="Trazado 621679" d="M332.32,8.417a5.831,5.831,0,0,1,.74.5,4.475,4.475,0,0,1,1.283,1.96,7.5,7.5,0,0,1,.37,1.568c.075.575.1,1.2.138,1.85a15.408,15.408,0,0,0,.208,2.053,6.818,6.818,0,0,0,.286,1.064,2.23,2.23,0,0,0,.6,1,1.065,1.065,0,0,0,.977.193,1.509,1.509,0,0,0,.789-.542,3.093,3.093,0,0,0,.442-1.658l-.138.032a5.323,5.323,0,0,0,.975,1.218,2.07,2.07,0,0,0,1.379.518,1.352,1.352,0,0,0,.673-.189,1.066,1.066,0,0,0,.413-.482,1.018,1.018,0,0,0,.072-.569.767.767,0,0,0-.276-.462l-.063.067a4.414,4.414,0,0,0,1.557.848,4.056,4.056,0,0,0,.464.112.85.85,0,0,0,.163.02.8.8,0,0,0-.158-.044c-.1-.027-.258-.067-.453-.133a4.536,4.536,0,0,1-1.509-.868l-.063.067a.769.769,0,0,1,.161.922.959.959,0,0,1-.374.428,1.23,1.23,0,0,1-.611.163,1.938,1.938,0,0,1-1.281-.5,5.221,5.221,0,0,1-.941-1.193l-.121-.19-.017.221a3,3,0,0,1-.421,1.584,1.354,1.354,0,0,1-.706.485.9.9,0,0,1-.83-.163,2.114,2.114,0,0,1-.557-.932,6.808,6.808,0,0,1-.282-1.041,15.776,15.776,0,0,1-.215-2.035c-.038-.653-.071-1.277-.153-1.858a7.427,7.427,0,0,0-.393-1.586A4.44,4.44,0,0,0,333.1,8.873a2.774,2.774,0,0,0-.78-.456" transform="translate(-119.391 -3.362)" fill="#455a64"/>
        <path id="Trazado_621680" data-name="Trazado 621680" d="M301.355,14.7a.236.236,0,0,0,.059.037l.181.1a2.269,2.269,0,0,0,.3.139,3.91,3.91,0,0,0,.431.155,6.327,6.327,0,0,0,2.911.166,7.8,7.8,0,0,0,3.845-1.835,12.332,12.332,0,0,0,2.984-4.112c.39-.809.687-1.628,1.032-2.392a8.2,8.2,0,0,1,1.249-2.065,4.551,4.551,0,0,1,1.782-1.3,3.453,3.453,0,0,1,1-.221,3.853,3.853,0,0,1,.948.064,4,4,0,0,1,1.487.631,3.748,3.748,0,0,1,.866.831,4.214,4.214,0,0,1,.461.9.206.206,0,0,0-.013-.065l-.056-.188a3.043,3.043,0,0,0-.342-.677,3.671,3.671,0,0,0-.864-.865,4.047,4.047,0,0,0-1.517-.666,3.935,3.935,0,0,0-.978-.076,3.582,3.582,0,0,0-1.04.221A4.669,4.669,0,0,0,314.238,4.8,8.271,8.271,0,0,0,312.959,6.9c-.35.769-.648,1.586-1.034,2.388a12.345,12.345,0,0,1-2.939,4.073,7.749,7.749,0,0,1-3.767,1.832,6.427,6.427,0,0,1-2.872-.118,9.782,9.782,0,0,1-.992-.371" transform="translate(-108.266 -1.296)" fill="#455a64"/>
        <path id="Trazado_621681" data-name="Trazado 621681" d="M299.871,17.484a1.1,1.1,0,0,0,.259.13,5.424,5.424,0,0,0,.749.258,7.36,7.36,0,0,0,1.164.221,8.478,8.478,0,0,0,1.454.02,8.379,8.379,0,0,0,1.429-.251,7.232,7.232,0,0,0,1.107-.4,5.362,5.362,0,0,0,.692-.374,1.049,1.049,0,0,0,.231-.169c-.016-.023-.362.195-.97.449a8.218,8.218,0,0,1-1.1.366,9.015,9.015,0,0,1-1.4.235,9.211,9.211,0,0,1-1.426-.008,8.337,8.337,0,0,1-1.149-.187c-.646-.153-1.026-.313-1.037-.288" transform="translate(-107.733 -6.756)" fill="#455a64"/>
        <path id="Trazado_621682" data-name="Trazado 621682" d="M312.912,101.306c-.005-.789,6.717-35.707,6.717-35.707,1.263-1.122,15.451-10.837,15.451-10.837l12.246,13.777a149.755,149.755,0,0,1,4.039,18.606c.626,5.153,3.474,29.734,4.292,40.11a7.723,7.723,0,0,1-3.627,7.083l-1.3.127-.34,3.095c-11.321.242-38.646-4.473-38.992-4.274-.419.24,1.529-29.142,1.51-31.981" transform="translate(-111.854 -21.873)" fill="#455a64"/>
        <path id="Trazado_621683" data-name="Trazado 621683" d="M311.435,179.106a2.264,2.264,0,0,0,.389.1l1.126.236c.979.2,2.4.465,4.167.765,3.527.6,8.427,1.294,13.855,1.925s10.352,1.133,13.912,1.512l4.217.444,1.148.112a2.212,2.212,0,0,0,.4.021,2.291,2.291,0,0,0-.4-.074l-1.141-.162c-.992-.136-2.43-.315-4.208-.527l-13.9-1.589c-5.424-.632-10.323-1.292-13.856-1.847-1.767-.275-3.195-.509-4.18-.681l-1.137-.187a2.31,2.31,0,0,0-.4-.047" transform="translate(-111.888 -71.537)" fill="#263238"/>
        <path id="Trazado_621684" data-name="Trazado 621684" d="M353.844,53.155a15.2,15.2,0,0,1,5.181,3.005l6.814,5.284a9.313,9.313,0,0,1,3.273,3.616,5.372,5.372,0,0,1-2.228,6.089,9.964,9.964,0,0,1-7.015,1.39,25.735,25.735,0,0,1-6.922-2.262l-5.335-15.935c1.182-1.566,4.265-1.716,6.232-1.187" transform="translate(-124.885 -21.121)" fill="#455a64"/>
        <path id="Trazado_621685" data-name="Trazado 621685" d="M324.01,66.166a4.27,4.27,0,0,0,.726-.281c.462-.193,1.116-.5,1.916-.892a58.362,58.362,0,0,0,6-3.485c2.256-1.488,4.226-2.921,5.656-3.952l1.686-1.229a4.086,4.086,0,0,0,.6-.478,4.2,4.2,0,0,0-.663.395c-.417.267-1.01.665-1.74,1.163-1.462.992-3.45,2.4-5.7,3.885s-4.365,2.707-5.934,3.537c-.785.414-1.423.744-1.869.965a4.275,4.275,0,0,0-.677.374" transform="translate(-116.405 -22.306)" fill="#263238"/>
        <path id="Trazado_621686" data-name="Trazado 621686" d="M353.931,64.77a4.611,4.611,0,0,0,.638.492c.213.148.466.338.755.563s.623.474.974.773a24.168,24.168,0,0,1,4.779,5.234,23.68,23.68,0,0,1,2.956,6.31c.241.857.432,1.553.532,2.041a4.133,4.133,0,0,0,.2.75,4.035,4.035,0,0,0-.1-.769c-.067-.5-.229-1.2-.447-2.07a21.9,21.9,0,0,0-2.91-6.4,22.548,22.548,0,0,0-4.888-5.235c-.361-.291-.7-.538-1.007-.748s-.564-.394-.788-.529a4.7,4.7,0,0,0-.7-.408" transform="translate(-127.155 -25.87)" fill="#263238"/>
        <g id="Grupo_876960" data-name="Grupo 876960" transform="translate(222.728 32.314)" opacity="0.3">
          <g id="Grupo_876959" data-name="Grupo 876959">
            <g id="Grupo_876958" data-name="Grupo 876958" clip-path="url(#clip-path-10)">
              <path id="Trazado_621687" data-name="Trazado 621687" d="M352.089,53.819c4.868.551,10.054,5.628,14.014,8.672-1.631.319-4.158-1.231-5.644-1.939-3.721-1.774-6.454-4.636-11.387-5.519l-1.458-.321c.863-.728,3.406-.97,4.476-.892" transform="translate(-347.613 -53.805)"/>
            </g>
          </g>
        </g>
        <path id="Trazado_621688" data-name="Trazado 621688" d="M350.149,55.822c0,.023.267.046.735.151a8.9,8.9,0,0,1,1.9.685c1.531.745,3.492,2.052,5.721,3.4a32.554,32.554,0,0,0,6,2.992,16.657,16.657,0,0,0,1.973.569,3.45,3.45,0,0,0,.747.119,5.179,5.179,0,0,0-.718-.219c-.463-.134-1.13-.336-1.929-.644a37.03,37.03,0,0,1-5.924-3.041,66.537,66.537,0,0,0-5.785-3.342,7.86,7.86,0,0,0-1.964-.618,4.159,4.159,0,0,0-.56-.058.557.557,0,0,0-.2.008" transform="translate(-125.796 -22.292)" fill="#263238"/>
        <g id="Grupo_876963" data-name="Grupo 876963" transform="translate(200.487 57.481)" opacity="0.3">
          <g id="Grupo_876962" data-name="Grupo 876962">
            <g id="Grupo_876961" data-name="Grupo 876961" clip-path="url(#clip-path-11)">
              <path id="Trazado_621689" data-name="Trazado 621689" d="M335.8,95.709c-1.95,12.09-4.138,24.733-11.982,34.5-2.068,2.577-5.013,5.093-8.438,4.788-1.367-.122-2.928-1.265-2.364-2.439a10.2,10.2,0,0,0,2.544-1.2c2.312-1.406,4.349-1.989,5.851-4.154a54.529,54.529,0,0,0,3.876-7.518c3.489-7.426,7.663-16.418,10.512-23.984" transform="translate(-312.902 -95.709)"/>
            </g>
          </g>
        </g>
        <path id="Trazado_621690" data-name="Trazado 621690" d="M358.134,190.047a4.013,4.013,0,0,0,.616-1.84,3.936,3.936,0,0,0-.054-1.928c-.083,0-.069.858-.226,1.891s-.414,1.85-.336,1.877" transform="translate(-128.66 -74.403)" fill="#263238"/>
        <path id="Trazado_621691" data-name="Trazado 621691" d="M350.079,188.67a10.725,10.725,0,0,0,.418-3.451,5.481,5.481,0,0,0-.35,1.71,5.418,5.418,0,0,0-.068,1.74" transform="translate(-125.755 -73.979)" fill="#263238"/>
        <path id="Trazado_621692" data-name="Trazado 621692" d="M340.709,187.043a5.6,5.6,0,0,0,.47-1.7,5.518,5.518,0,0,0,.192-1.746,5.6,5.6,0,0,0-.471,1.7,5.523,5.523,0,0,0-.191,1.746" transform="translate(-122.395 -73.332)" fill="#263238"/>
        <path id="Trazado_621693" data-name="Trazado 621693" d="M332.477,186.424a13.59,13.59,0,0,0,.409-1.674,13.79,13.79,0,0,0,.469-1.661,3.518,3.518,0,0,0-.745,1.6,3.383,3.383,0,0,0-.134,1.738" transform="translate(-119.426 -73.128)" fill="#263238"/>
        <path id="Trazado_621694" data-name="Trazado 621694" d="M324.174,185.092a4.063,4.063,0,0,0,.452-1.428,4.006,4.006,0,0,0,.174-1.481,4.063,4.063,0,0,0-.452,1.429,3.987,3.987,0,0,0-.174,1.48" transform="translate(-116.454 -72.767)" fill="#263238"/>
        <path id="Trazado_621695" data-name="Trazado 621695" d="M316.665,184.1c.083,0,.124-.836.341-1.838s.514-1.79.437-1.82a3.951,3.951,0,0,0-.715,1.768,3.832,3.832,0,0,0-.063,1.89" transform="translate(-113.738 -72.071)" fill="#263238"/>
        <path id="Trazado_621696" data-name="Trazado 621696" d="M328.9,150.337a2.5,2.5,0,0,0-.089.6,5.247,5.247,0,0,0-.037.709,8.636,8.636,0,0,0,.024.941,12.68,12.68,0,0,0,.4,2.423,14.819,14.819,0,0,0,1.1,2.822,15.366,15.366,0,0,0,1.709,2.542,13.939,13.939,0,0,0,1.8,1.778,9.669,9.669,0,0,0,.78.593,5.859,5.859,0,0,0,.621.407,2.854,2.854,0,0,0,.561.3c.032-.044-.75-.5-1.826-1.439a15.272,15.272,0,0,1-1.729-1.79,16.275,16.275,0,0,1-1.661-2.51,15.7,15.7,0,0,1-1.1-2.766,14.033,14.033,0,0,1-.454-2.377c-.135-1.373-.04-2.231-.1-2.235" transform="translate(-118.116 -60.047)" fill="#263238"/>
        <g id="Grupo_876966" data-name="Grupo 876966" transform="translate(210.91 93.759)" opacity="0.3">
          <g id="Grupo_876965" data-name="Grupo 876965">
            <g id="Grupo_876964" data-name="Grupo 876964" clip-path="url(#clip-path-12)">
              <path id="Trazado_621697" data-name="Trazado 621697" d="M333.844,164.086l-.176-.136a13.28,13.28,0,0,1-4.5-7.836,15.231,15.231,0,0,1,4.676,7.973" transform="translate(-329.168 -156.113)"/>
            </g>
          </g>
        </g>
        <path id="Trazado_621698" data-name="Trazado 621698" d="M338.286,179.527a6.253,6.253,0,0,0,1.169-2.781,6.057,6.057,0,0,0-.02-2.99,24.8,24.8,0,0,1-.259,2.941,25.1,25.1,0,0,1-.891,2.83" transform="translate(-121.532 -69.401)" fill="#263238"/>
        <path id="Trazado_621699" data-name="Trazado 621699" d="M325.364,148.734c-.033.067.41.325.99.577a2.6,2.6,0,0,0,1.109.335c.033-.067-.41-.325-.99-.577a2.6,2.6,0,0,0-1.109-.335" transform="translate(-116.891 -59.401)" fill="#263238"/>
        <path id="Trazado_621700" data-name="Trazado 621700" d="M365.578,190.353a2.916,2.916,0,0,0,.728-1.724,2.837,2.837,0,0,0-.221-1.843c-.084.017.086.824-.06,1.808s-.523,1.723-.447,1.76" transform="translate(-131.336 -74.605)" fill="#263238"/>
        <path id="Trazado_621701" data-name="Trazado 621701" d="M429.162,135.048l-2.006-28.991L228.3,118.148l-1.178-17.017-40.635,34.116,45.04,29.539-1.221-17.646Z" transform="translate(-67 -40.393)" fill="#e0e0e0"/>
        <path id="Trazado_621702" data-name="Trazado 621702" d="M429.012,134.83,230.17,147.07l.148-.158c.384,5.537.8,11.55,1.224,17.646l.022.315-.276-.181-45.042-29.535-.172-.113.156-.132,11.126-9.342L226.865,100.8l.254-.213.022.318q.6,8.637,1.176,17.016l-.174-.142L427,105.769l.074,0,0,.07c1.256,18.855,1.9,28.5,1.932,29-.036-.5-.728-10.137-2.081-28.987l.079.065L228.164,118.083l-.163.01-.011-.153q-.581-8.377-1.18-17.017l.276.106L197.579,125.8l-11.126,9.341-.015-.244,45.037,29.543-.254.135c-.421-6.1-.836-12.11-1.218-17.647l-.01-.148.158-.01L429.012,134.83" transform="translate(-66.85 -40.175)" fill="#263238"/>
        <g id="Grupo_876969" data-name="Grupo 876969" transform="translate(293.29 68.27)" opacity="0.3">
          <g id="Grupo_876968" data-name="Grupo 876968">
            <g id="Grupo_876967" data-name="Grupo 876967" clip-path="url(#clip-path-13)">
              <path id="Trazado_621703" data-name="Trazado 621703" d="M481.794,119.2c-.45-1.84-1.215-3.643-1.209-5.53l-6.167.477c.586,2.6,1.155,5.4.057,7.848-.991,2.216-3.174,3.743-5.358,5-4.117,2.37-8.8,4.36-11.378,8.192,1.973.913,4.3-.1,6.225-1.1l14.26-7.384a8.6,8.6,0,0,0,2.9-2.058c1.2-1.516,1.115-3.608.666-5.448" transform="translate(-457.74 -113.672)"/>
            </g>
          </g>
        </g>
        <path id="Trazado_621704" data-name="Trazado 621704" d="M287.785,159.294l-9.184,1.213-6.938,7.641s1.042.883,2.911-.157c.811-.452-.992,1.568-.992,1.568l-4.944.326a1.119,1.119,0,0,0,.693,1.524,34.194,34.194,0,0,0,5.269.523l.421-.586a2.325,2.325,0,0,0,1.942.525,7.267,7.267,0,0,0,3.513.321,11.011,11.011,0,0,0,3.041-.817l8.685-7.7Z" transform="translate(-96.48 -63.624)" fill="#ffd5bd"/>
        <path id="Trazado_621705" data-name="Trazado 621705" d="M283.333,165.641a12.941,12.941,0,0,0-2.754,2.192,12.385,12.385,0,0,0-2.264,2.64c.074.054,1.111-1.1,2.495-2.429s2.583-2.335,2.523-2.4" transform="translate(-99.988 -66.158)" fill="#ffb294"/>
        <path id="Trazado_621706" data-name="Trazado 621706" d="M281.814,174.107a11.93,11.93,0,0,0-2.053,1.763,11.649,11.649,0,0,0-1.822,1.975,11.861,11.861,0,0,0,2.054-1.764,11.527,11.527,0,0,0,1.821-1.974" transform="translate(-99.853 -69.54)" fill="#ffb294"/>
        <path id="Trazado_621707" data-name="Trazado 621707" d="M285.115,175.642a77.989,77.989,0,0,1-3.411,2.76,5.21,5.21,0,0,0,1.938-1.128,4.864,4.864,0,0,0,1.473-1.632" transform="translate(-101.206 -70.153)" fill="#ffb294"/>
        <path id="Trazado_621708" data-name="Trazado 621708" d="M288.67,176.936a7.762,7.762,0,0,0-1.357,1.1,7.656,7.656,0,0,0-1.292,1.168,3.9,3.9,0,0,0,1.51-.944,3.653,3.653,0,0,0,1.139-1.325" transform="translate(-102.756 -70.67)" fill="#ffb294"/>
        <g id="Grupo_876972" data-name="Grupo 876972" transform="translate(196.435 74.104)" opacity="0.3">
          <g id="Grupo_876971" data-name="Grupo 876971">
            <g id="Grupo_876970" data-name="Grupo 876970" clip-path="url(#clip-path-14)">
              <path id="Trazado_621709" data-name="Trazado 621709" d="M334.238,123.735c-3.152-1.071-6.742.458-9.014,2.77s-3.572,5.29-5.114,8.081a51.328,51.328,0,0,1-13.532,15.7l3.622,1.868a99.484,99.484,0,0,0,14.333-6.885c3.25-1.9,6.491-4.086,8.33-7.233,2.5-4.271,1.97-9.468,1.376-14.305" transform="translate(-306.577 -123.386)"/>
            </g>
          </g>
        </g>
        <path id="Trazado_621710" data-name="Trazado 621710" d="M328.818,79.889s1.354,30.537-3.3,35.677-20.776,15.691-20.776,15.691l-2-.176-3.408.71-5.481-7.673L310.615,107.3s.641-31.739,1.206-32.551,1.363-4.726,7.08-4.241,10.076,5.235,9.917,9.384" transform="translate(-105.571 -28.144)" fill="#455a64"/>
        <path id="Trazado_621711" data-name="Trazado 621711" d="M331.406,73.1a3,3,0,0,1,.605.419,6.849,6.849,0,0,1,1.249,1.68,14.9,14.9,0,0,1,1.3,3.026,15.858,15.858,0,0,1,.313,4.292c-.041,6.413-.32,15.264-1.016,25.011-.08,1.218-.174,2.42-.342,3.591a14.607,14.607,0,0,1-.817,3.369,10.761,10.761,0,0,1-1.945,2.713c-.764.8-1.547,1.554-2.353,2.248-3.212,2.788-6.346,5.034-8.972,6.913s-4.8,3.342-6.3,4.358l-1.722,1.172-.444.311a.98.98,0,0,0-.146.112,1.036,1.036,0,0,0,.161-.091l.459-.29,1.75-1.134c1.515-.992,3.694-2.446,6.349-4.3a113,113,0,0,0,9.024-6.885c.811-.694,1.6-1.452,2.375-2.258a10.923,10.923,0,0,0,1.993-2.774,14.7,14.7,0,0,0,.837-3.428c.17-1.181.265-2.389.346-3.61.7-9.749.947-18.611.942-25.028a15.816,15.816,0,0,0-.356-4.33,14.643,14.643,0,0,0-1.349-3.039,6.6,6.6,0,0,0-1.3-1.671,1.725,1.725,0,0,0-.639-.383" transform="translate(-111.665 -29.198)" fill="#263238"/>
        <path id="Trazado_621712" data-name="Trazado 621712" d="M319.974,131.8c-.012.073,1.144.279,2.436.9s2.211,1.339,2.26,1.28a6.173,6.173,0,0,0-2.154-1.5,5.773,5.773,0,0,0-2.542-.676" transform="translate(-114.955 -52.635)" fill="#263238"/>
        <path id="Trazado_621713" data-name="Trazado 621713" d="M321.788,78.618c.045,0-.026-.539.063-1.386a7.184,7.184,0,0,1,1.078-3.1,7.351,7.351,0,0,1,2.383-2.286c.741-.444,1.265-.611,1.248-.652a1.09,1.09,0,0,0-.379.086,5.915,5.915,0,0,0-.964.414,6.844,6.844,0,0,0-2.507,2.3,6.671,6.671,0,0,0-1.041,3.212,5.652,5.652,0,0,0,.033,1.032,1.018,1.018,0,0,0,.084.372" transform="translate(-115.562 -28.436)" fill="#263238"/>
        <path id="Trazado_621714" data-name="Trazado 621714" d="M293.853,130.247a2.681,2.681,0,0,1,.31-.356l.939-.983,3.513-3.6,11.854-11.981-.044.1c.033-.741.069-1.528.105-2.324.336-6.973.641-13.285.862-17.889.126-2.266.227-4.11.3-5.42q.062-.926.1-1.473a2.991,2.991,0,0,1,.057-.513,2.963,2.963,0,0,1,.01.515q-.013.548-.036,1.476c-.047,1.311-.112,3.156-.193,5.424-.2,4.6-.466,10.917-.765,17.893-.037.8-.072,1.583-.106,2.324l0,.058-.042.042-11.931,11.913-3.588,3.534-.982.945a2.821,2.821,0,0,1-.357.315" transform="translate(-105.571 -34.273)" fill="#263238"/>
        <path id="Trazado_621715" data-name="Trazado 621715" d="M453.232,151.3l-8.465.555-6.855,6.558s.891.868,2.667.031c.771-.363-1.013,1.371-1.013,1.371h-4.534a1.017,1.017,0,0,0,.528,1.433,31.229,31.229,0,0,0,4.774.793l.424-.509a2.109,2.109,0,0,0,1.736.6,6.618,6.618,0,0,0,3.184.5,10.133,10.133,0,0,0,2.831-.562l8.453-6.508Z" transform="translate(-156.249 -60.433)" fill="#bc8f86"/>
        <path id="Trazado_621716" data-name="Trazado 621716" d="M449.005,156.3a12,12,0,0,0-2.664,1.835,11.475,11.475,0,0,0-2.247,2.273c.063.053,1.089-.938,2.444-2.067s2.517-1.977,2.467-2.042" transform="translate(-159.547 -62.427)" fill="#7f473d"/>
        <path id="Trazado_621717" data-name="Trazado 621717" d="M447.117,163.889a11.028,11.028,0,0,0-1.994,1.486,10.763,10.763,0,0,0-1.8,1.692,11,11,0,0,0,1.995-1.486,10.692,10.692,0,0,0,1.8-1.692" transform="translate(-159.27 -65.458)" fill="#7f473d"/>
        <path id="Trazado_621718" data-name="Trazado 621718" d="M450.068,165.484a17.956,17.956,0,0,0-1.633,1.179,18.193,18.193,0,0,0-1.668,1.135,4.807,4.807,0,0,0,1.845-.913,4.5,4.5,0,0,0,1.456-1.4" transform="translate(-160.507 -66.095)" fill="#7f473d"/>
        <path id="Trazado_621719" data-name="Trazado 621719" d="M453.25,166.866a7.22,7.22,0,0,0-1.314.924,7.115,7.115,0,0,0-1.259.988,3.617,3.617,0,0,0,1.443-.771c.723-.536,1.189-1.091,1.13-1.141" transform="translate(-161.911 -66.647)" fill="#7f473d"/>
        <path id="Trazado_621720" data-name="Trazado 621720" d="M476.471,69.343s6-.338,8.726,7.327,7.991,26.119,7.517,31.191-29.806,17.571-29.806,17.571l-6.654-7.734L478.5,104.015l-5.87-24.5s-2.337-9.508,3.841-10.176" transform="translate(-163.916 -27.696)" fill="#b1de19"/>
        <path id="Trazado_621721" data-name="Trazado 621721" d="M487.785,70.207a8.2,8.2,0,0,0-1.844.427,6.353,6.353,0,0,0-3.164,2.954,10.728,10.728,0,0,0-1.007,4.185,16.708,16.708,0,0,1-.108,1.808,6.978,6.978,0,0,1-.128-1.816,9.764,9.764,0,0,1,.943-4.313,6.259,6.259,0,0,1,3.376-3.024,4.484,4.484,0,0,1,1.409-.268,1.4,1.4,0,0,1,.523.046" transform="translate(-172.998 -28.023)" fill="#263238"/>
        <path id="Trazado_621722" data-name="Trazado 621722" d="M496.73,128.242c-.045.085-1.123-.407-2.56-.6-1.435-.21-2.62-.037-2.635-.131a5.168,5.168,0,0,1,2.685-.178,5.032,5.032,0,0,1,2.51.912" transform="translate(-176.591 -50.828)" fill="#263238"/>
      </g>
    </g>
    <rect id="Rectángulo_327151" data-name="Rectángulo 327151" width="422.89" height="219.113" transform="translate(912.11 3547.937)" fill="none"/>
  </g>
</svg>
