<svg xmlns="http://www.w3.org/2000/svg" xmlns:xlink="http://www.w3.org/1999/xlink" width="228" height="89.256" viewBox="0 0 228 89.256">
  <defs>
    <filter id="Trazado_749223" x="0" y="30" width="228" height="59" filterUnits="userSpaceOnUse">
      <feOffset dy="3" input="SourceAlpha"/>
      <feGaussianBlur stdDeviation="3" result="blur"/>
      <feFlood flood-opacity="0.161"/>
      <feComposite operator="in" in2="blur"/>
      <feComposite in="SourceGraphic"/>
    </filter>
    <filter id="Trazado_502571" x="0" y="0" width="89.256" height="89.256" filterUnits="userSpaceOnUse">
      <feOffset dy="3" input="SourceAlpha"/>
      <feGaussianBlur stdDeviation="3" result="blur-2"/>
      <feFlood flood-opacity="0.161"/>
      <feComposite operator="in" in2="blur-2"/>
      <feComposite in="SourceGraphic"/>
    </filter>
  </defs>
  <g id="Grupo_1034301" data-name="Grupo 1034301" transform="translate(-844 -4534.872)">
    <g transform="matrix(1, 0, 0, 1, 844, 4534.87)" filter="url(#Trazado_749223)">
      <path id="Trazado_749223-2" data-name="Trazado 749223" d="M0,0H200a10,10,0,0,1,10,10V41H0Z" transform="translate(9 36)" fill="#fff"/>
    </g>
    <path id="Trazado_749224" data-name="Trazado 749224" d="M12.578,14.186a5.193,5.193,0,0,1-.8,2.622A4.833,4.833,0,0,1,9.722,18.57,7,7,0,0,1,6.7,19.2a5.584,5.584,0,0,1-4.414-1.826A7.54,7.54,0,0,1,.674,12.213v-.7A8.607,8.607,0,0,1,1.4,7.853,5.513,5.513,0,0,1,3.5,5.431,5.844,5.844,0,0,1,6.66,4.576a6.129,6.129,0,0,1,4.16,1.362,5.383,5.383,0,0,1,1.787,3.755H9.189a2.547,2.547,0,0,0-.654-1.865A2.691,2.691,0,0,0,6.66,7.262a2.048,2.048,0,0,0-1.875.957,6.151,6.151,0,0,0-.625,3.057v1.006a6.806,6.806,0,0,0,.571,3.252A2.091,2.091,0,0,0,6.7,16.51a2.632,2.632,0,0,0,1.807-.557,2.363,2.363,0,0,0,.664-1.768Zm1.055-.566a6.236,6.236,0,0,1,.615-2.817,4.4,4.4,0,0,1,1.768-1.9,5.323,5.323,0,0,1,2.705-.664,4.858,4.858,0,0,1,3.74,1.47,5.64,5.64,0,0,1,1.367,4v.117a5.472,5.472,0,0,1-1.372,3.921A4.871,4.871,0,0,1,18.74,19.2a4.927,4.927,0,0,1-3.623-1.353,5.29,5.29,0,0,1-1.475-3.667Zm3.291.205a3.932,3.932,0,0,0,.459,2.148,1.529,1.529,0,0,0,1.357.684q1.758,0,1.8-2.705v-.332q0-2.842-1.816-2.842-1.65,0-1.787,2.451ZM28.3,8.434l.107,1.24a3.583,3.583,0,0,1,3.018-1.436,3.015,3.015,0,0,1,2.466.986,4.7,4.7,0,0,1,.845,2.969V19h-3.3V12.33a1.783,1.783,0,0,0-.322-1.177,1.491,1.491,0,0,0-1.172-.376,1.569,1.569,0,0,0-1.436.762V19H25.215V8.434Zm12.471,6.65,1.67-6.65h3.467L42.461,19H39.1L35.654,8.434h3.477Zm11.1,4.111a5.432,5.432,0,0,1-3.936-1.45,5.008,5.008,0,0,1-1.5-3.774V13.7a6.489,6.489,0,0,1,.6-2.861,4.395,4.395,0,0,1,1.753-1.919,5.292,5.292,0,0,1,2.734-.679A4.574,4.574,0,0,1,55.039,9.62a5.43,5.43,0,0,1,1.289,3.853v1.279H49.785a2.372,2.372,0,0,0,.771,1.4,2.3,2.3,0,0,0,1.543.508,2.958,2.958,0,0,0,2.441-1.094l1.5,1.777A4.2,4.2,0,0,1,54.3,18.692,5.891,5.891,0,0,1,51.875,19.2ZM51.5,10.777q-1.445,0-1.719,1.914h3.32v-.254a1.63,1.63,0,0,0-.4-1.226A1.593,1.593,0,0,0,51.5,10.777Zm9.17-2.344.107,1.24A3.583,3.583,0,0,1,63.8,8.238a3.015,3.015,0,0,1,2.466.986,4.7,4.7,0,0,1,.845,2.969V19h-3.3V12.33a1.783,1.783,0,0,0-.322-1.177,1.491,1.491,0,0,0-1.172-.376,1.569,1.569,0,0,0-1.436.762V19H57.588V8.434ZM73.4,16.656a1.464,1.464,0,0,0,1.074-.376,1.379,1.379,0,0,0,.371-1.05H77.93a3.653,3.653,0,0,1-1.245,2.852A4.631,4.631,0,0,1,73.477,19.2a4.689,4.689,0,0,1-3.633-1.445,5.7,5.7,0,0,1-1.328-4v-.137a6.436,6.436,0,0,1,.591-2.827,4.3,4.3,0,0,1,1.7-1.885,5.081,5.081,0,0,1,2.637-.659,4.573,4.573,0,0,1,3.271,1.143,4.053,4.053,0,0,1,1.211,3.1H74.844a1.806,1.806,0,0,0-.4-1.26,1.382,1.382,0,0,0-1.074-.439q-1.279,0-1.494,1.631a11.508,11.508,0,0,0-.068,1.426,4.52,4.52,0,0,0,.381,2.207A1.319,1.319,0,0,0,73.4,16.656ZM84.434,19.2a5.432,5.432,0,0,1-3.936-1.45,5.008,5.008,0,0,1-1.5-3.774V13.7a6.489,6.489,0,0,1,.6-2.861,4.395,4.395,0,0,1,1.753-1.919,5.292,5.292,0,0,1,2.734-.679A4.574,4.574,0,0,1,87.6,9.62a5.43,5.43,0,0,1,1.289,3.853v1.279H82.344a2.372,2.372,0,0,0,.771,1.4,2.3,2.3,0,0,0,1.543.508A2.958,2.958,0,0,0,87.1,15.563l1.5,1.777a4.2,4.2,0,0,1-1.743,1.353A5.891,5.891,0,0,1,84.434,19.2Zm-.371-8.418q-1.445,0-1.719,1.914h3.32v-.254a1.63,1.63,0,0,0-.4-1.226A1.593,1.593,0,0,0,84.063,10.777Zm12.539.635-1.084-.078a1.947,1.947,0,0,0-1.992.977V19H90.234V8.434H93.32l.107,1.357a2.548,2.548,0,0,1,2.314-1.553,3.209,3.209,0,0,1,.918.117Z" transform="translate(949 4577.771)" fill="#12263f"/>
    <path id="Trazado_194609" data-name="Trazado 194609" d="M0,0,85,40H0Z" transform="translate(853 4571.771)" fill="#ffb338"/>
    <g id="tarea-completada" transform="translate(853 4540.872)">
      <path id="Trazado_203286" data-name="Trazado 203286" d="M0,20.438ZM4.438,16" transform="translate(13.875 -13.525)" fill="#ffc846"/>
      <g transform="matrix(1, 0, 0, 1, -9, -6)" filter="url(#Trazado_502571)">
        <path id="Trazado_502571-2" data-name="Trazado 502571" d="M295.256,259.628A35.628,35.628,0,1,1,259.628,224,35.629,35.629,0,0,1,295.256,259.628Zm0,0" transform="translate(-215 -218)" fill="#cee4c6"/>
      </g>
    </g>
    <g id="Page-1" transform="translate(869.521 4558.663)">
      <g id="_001---Speech-Bubble" data-name="001---Speech-Bubble">
        <path id="Shape" d="M7.643,31.847H25.569l5.35,5.963a1.26,1.26,0,0,0,.922.406,1.274,1.274,0,0,0,.582-.141A1.253,1.253,0,0,0,33.1,36.72l-.818-5.1A7.747,7.747,0,0,0,38.216,24.2V7.643A7.651,7.651,0,0,0,30.573,0H7.643A7.651,7.651,0,0,0,0,7.643V24.2A7.651,7.651,0,0,0,7.643,31.847ZM1.274,7.643A6.376,6.376,0,0,1,7.643,1.274H30.573a6.376,6.376,0,0,1,6.369,6.369V24.2a6.462,6.462,0,0,1-4.973,6.178,1.269,1.269,0,0,0-.947,1.436l.834,5.13-5.339-5.955a1.274,1.274,0,0,0-.948-.42H7.643A6.376,6.376,0,0,1,1.274,24.2Z" stroke="#000" stroke-width="1"/>
        <path id="Shape-2" data-name="Shape" d="M5.274,9.1A3.825,3.825,0,0,1,9.1,5.274.637.637,0,0,0,9.1,4,5.1,5.1,0,0,0,4,9.1a.637.637,0,0,0,1.274,0Z" transform="translate(-0.351 -0.452)" stroke="#000" stroke-width="1"/>
        <circle id="Oval" cx="0.5" cy="0.5" r="0.5" transform="translate(11.102 4)" stroke="#000" stroke-width="1"/>
        <path id="Shape-3" data-name="Shape" d="M9,23.185A3.185,3.185,0,1,0,12.185,20,3.185,3.185,0,0,0,9,23.185Zm3.185-1.911a1.911,1.911,0,1,1-1.911,1.911A1.911,1.911,0,0,1,12.185,21.274Z" transform="translate(-3.268 -7.261)" stroke="#000" stroke-width="1"/>
        <path id="Shape-4" data-name="Shape" d="M28.185,26.369A3.185,3.185,0,1,0,25,23.185,3.185,3.185,0,0,0,28.185,26.369Zm0-5.1a1.911,1.911,0,1,1-1.911,1.911A1.911,1.911,0,0,1,28.185,21.274Z" transform="translate(-9.077 -7.261)" stroke="#000" stroke-width="1"/>
        <path id="Shape-5" data-name="Shape" d="M44.185,26.369A3.185,3.185,0,1,0,41,23.185,3.185,3.185,0,0,0,44.185,26.369Zm0-5.1a1.911,1.911,0,1,1-1.911,1.911A1.911,1.911,0,0,1,44.185,21.274Z" transform="translate(-14.886 -7.261)" stroke="#000" stroke-width="1"/>
      </g>
    </g>
  </g>
</svg>
