<svg xmlns="http://www.w3.org/2000/svg" xmlns:xlink="http://www.w3.org/1999/xlink" width="505" height="179" viewBox="0 0 505 179">
  <defs>
    <clipPath id="clip-path">
      <rect id="Rectángulo_327192" data-name="Rectángulo 327192" width="505" height="179" fill="#fff" stroke="#707070" stroke-width="1"/>
    </clipPath>
    <clipPath id="clip-path-2">
      <rect id="Rectángulo_327191" data-name="Rectángulo 327191" width="472.732" height="357.251" fill="none"/>
    </clipPath>
    <clipPath id="clip-path-3">
      <rect id="Rectángulo_327190" data-name="Rectángulo 327190" width="452.875" height="357.251" fill="none"/>
    </clipPath>
    <clipPath id="clip-path-4">
      <rect id="Rectángulo_327165" data-name="Rectángulo 327165" width="2.699" height="3.927" fill="none"/>
    </clipPath>
    <clipPath id="clip-path-6">
      <rect id="Rectángulo_327166" data-name="Rectángulo 327166" width="233.279" height="152.271" fill="none"/>
    </clipPath>
    <clipPath id="clip-path-7">
      <rect id="Rectángulo_327167" data-name="Rectángulo 327167" width="232.279" height="151.322" fill="none"/>
    </clipPath>
    <clipPath id="clip-path-8">
      <rect id="Rectángulo_327170" data-name="Rectángulo 327170" width="51.813" height="124.512" fill="none"/>
    </clipPath>
    <clipPath id="clip-path-9">
      <rect id="Rectángulo_327174" data-name="Rectángulo 327174" width="2.116" height="10.926" fill="none"/>
    </clipPath>
    <clipPath id="clip-path-10">
      <rect id="Rectángulo_327175" data-name="Rectángulo 327175" width="6.672" height="4.724" fill="none"/>
    </clipPath>
    <clipPath id="clip-path-11">
      <rect id="Rectángulo_327176" data-name="Rectángulo 327176" width="18.231" height="59.392" fill="none"/>
    </clipPath>
  </defs>
  <g id="Grupo_1034307" data-name="Grupo 1034307" transform="translate(-810 -7098)">
    <g id="Enmascarar_grupo_875990" data-name="Enmascarar grupo 875990" transform="translate(810 7098)" clip-path="url(#clip-path)">
      <g id="Grupo_877059" data-name="Grupo 877059" transform="translate(32.268 0.128)">
        <g id="Grupo_877058" data-name="Grupo 877058" clip-path="url(#clip-path-2)">
          <g id="Grupo_877057" data-name="Grupo 877057" transform="translate(19.857)">
            <g id="Grupo_877056" data-name="Grupo 877056" clip-path="url(#clip-path-3)">
              <g id="Grupo_877025" data-name="Grupo 877025" transform="translate(265.486 101.432)" opacity="0.12">
                <g id="Grupo_877024" data-name="Grupo 877024" transform="translate(0)">
                  <g id="Grupo_877023" data-name="Grupo 877023" clip-path="url(#clip-path-4)">
                    <path id="Trazado_621815" data-name="Trazado 621815" d="M118.293,101.817c2.643-.688,2.7-3.927,2.7-3.927l-2.541.486a10.516,10.516,0,0,1-.157,3.441" transform="translate(-118.293 -97.89)"/>
                  </g>
                </g>
              </g>
              <g id="Grupo_877061" data-name="Grupo 877061" transform="translate(140.134 101.432)" opacity="0.12">
                <g id="Grupo_877024-2" data-name="Grupo 877024" transform="translate(0)">
                  <g id="Grupo_877023-2" data-name="Grupo 877023" clip-path="url(#clip-path-4)">
                    <path id="Trazado_621815-2" data-name="Trazado 621815" d="M118.293,101.817c2.643-.688,2.7-3.927,2.7-3.927l-2.541.486a10.516,10.516,0,0,1-.157,3.441" transform="translate(-118.293 -97.89)"/>
                  </g>
                </g>
              </g>
              <path id="Trazado_621816" data-name="Trazado 621816" d="M27.692,8.109V144.218c0,4.2,5.046,7.609,11.265,7.609H343.464c6.219,0,11.255-3.408,11.255-7.609V8.109c0-4.2-5.036-7.609-11.255-7.609H38.957C32.738.5,27.692,3.908,27.692,8.109" transform="translate(98.157 8.98)" fill="#b6e1fd"/>
              <path id="Trazado_621870" data-name="Trazado 621870" d="M27.692,8.109V144.218a7.815,7.815,0,0,0,8,7.609H251.984a7.809,7.809,0,0,0,7.994-7.609V8.109A7.809,7.809,0,0,0,251.984.5H35.693a7.815,7.815,0,0,0-8,7.609" transform="translate(-27.196 8.98)" fill="#407bff"/>
              <g id="Grupo_877060" data-name="Grupo 877060" transform="translate(0 9.008)" opacity="0.7">
                <g id="Grupo_877027" data-name="Grupo 877027">
                  <g id="Grupo_877026" data-name="Grupo 877026" clip-path="url(#clip-path-6)">
                    <path id="Trazado_621817" data-name="Trazado 621817" d="M27.692,8.109V144.218a7.815,7.815,0,0,0,8,7.609H251.984a7.809,7.809,0,0,0,7.994-7.609V8.109A7.809,7.809,0,0,0,251.984.5H35.693a7.815,7.815,0,0,0-8,7.609" transform="translate(-27.196 -0.028)" fill="#fff"/>
                    <path id="Trazado_621818" data-name="Trazado 621818" d="M27.692,8.109V144.218a7.815,7.815,0,0,0,8,7.609H251.984a7.809,7.809,0,0,0,7.994-7.609V8.109A7.809,7.809,0,0,0,251.984.5H35.693A7.815,7.815,0,0,0,27.692,8.109Z" transform="translate(-27.196 -0.028)" fill="none" stroke="#fff" stroke-miterlimit="10" stroke-width="1"/>
                  </g>
                </g>
              </g>
              <path id="Trazado_621819" data-name="Trazado 621819" d="M245.923,10.323a2.16,2.16,0,0,0,4.315,0,2.16,2.16,0,0,0-4.315,0" transform="translate(-108.769 8.546)" fill="#407bff"/>
              <path id="Trazado_621869" data-name="Trazado 621869" d="M245.923,10.323a2.16,2.16,0,0,0,4.315,0,2.16,2.16,0,0,0-4.315,0" transform="translate(-234.121 8.546)" fill="#407bff"/>
              <path id="Trazado_621820" data-name="Trazado 621820" d="M233.373,10.323a2.16,2.16,0,0,0,4.315,0,2.16,2.16,0,0,0-4.315,0" transform="translate(-83.759 8.546)" fill="#407bff"/>
              <path id="Trazado_621868" data-name="Trazado 621868" d="M233.373,10.323a2.16,2.16,0,0,0,4.315,0,2.16,2.16,0,0,0-4.315,0" transform="translate(-209.111 8.546)" fill="#407bff"/>
              <path id="Trazado_621821" data-name="Trazado 621821" d="M220.824,10.323a2.16,2.16,0,0,0,4.315,0,2.16,2.16,0,0,0-4.315,0" transform="translate(-58.751 8.546)" fill="#407bff"/>
              <path id="Trazado_621867" data-name="Trazado 621867" d="M220.824,10.323a2.16,2.16,0,0,0,4.315,0,2.16,2.16,0,0,0-4.315,0" transform="translate(-184.103 8.546)" fill="#407bff"/>
              <path id="Trazado_621822" data-name="Trazado 621822" d="M10.558,37.367V173.483a7.812,7.812,0,0,0,7.994,7.6h216.3a7.806,7.806,0,0,0,7.987-7.6V37.367a7.805,7.805,0,0,0-7.987-7.6H18.552a7.811,7.811,0,0,0-7.994,7.6" transform="translate(6.956 -1.662)" fill="#407bff"/>
              <g id="Grupo_877031" data-name="Grupo 877031" transform="translate(17.514 28.103)" opacity="0.8">
                <g id="Grupo_877030" data-name="Grupo 877030">
                  <g id="Grupo_877029" data-name="Grupo 877029" clip-path="url(#clip-path-7)">
                    <path id="Trazado_621823" data-name="Trazado 621823" d="M10.558,37.367V173.483a7.812,7.812,0,0,0,7.994,7.6h216.3a7.806,7.806,0,0,0,7.987-7.6V37.367a7.805,7.805,0,0,0-7.987-7.6H18.552a7.811,7.811,0,0,0-7.994,7.6" transform="translate(-10.558 -29.765)" fill="#fff"/>
                  </g>
                </g>
              </g>
              <rect id="Rectángulo_327168" data-name="Rectángulo 327168" width="51.813" height="124.512" transform="translate(17.511 44.074)" fill="#407bff"/>
              <g id="Grupo_877034" data-name="Grupo 877034" transform="translate(17.511 44.074)" opacity="0.2">
                <g id="Grupo_877033" data-name="Grupo 877033" transform="translate(0)">
                  <g id="Grupo_877032" data-name="Grupo 877032" clip-path="url(#clip-path-8)">
                    <rect id="Rectángulo_327169" data-name="Rectángulo 327169" width="51.813" height="124.512" transform="translate(0)"/>
                  </g>
                </g>
              </g>
              <rect id="Rectángulo_327171" data-name="Rectángulo 327171" width="51.813" height="1.582" transform="translate(17.511 81.474)" fill="#fafafa"/>
              <rect id="Rectángulo_327172" data-name="Rectángulo 327172" width="51.813" height="1.581" transform="translate(17.511 120.553)" fill="#fafafa"/>
              <rect id="Rectángulo_327173" data-name="Rectángulo 327173" width="51.813" height="1.581" transform="translate(17.511 159.052)" fill="#fafafa"/>
              <path id="Trazado_621824" data-name="Trazado 621824" d="M229.868,97.827v18.6l-14.773-9.3Z" transform="translate(-183.145 -5.463)" fill="#fafafa"/>
              <path id="Trazado_621825" data-name="Trazado 621825" d="M229.868,139.056v18.6l-14.773-9.3Z" transform="translate(-183.145 -7.765)" fill="#fafafa"/>
              <path id="Trazado_621826" data-name="Trazado 621826" d="M229.868,55.881v18.6l-14.773-9.3Z" transform="translate(-183.145 -3.12)" fill="#fafafa"/>
              <path id="Trazado_621827" data-name="Trazado 621827" d="M44.888,127.683s13.251,18.774,17.372,22.51c0,0,22.2,1.912,31.337-4.056l2.312,5.4S74.827,162.879,60.538,160.1s-24.851-29-24.851-29Z" transform="translate(128.937 -7.13)" fill="#b55b52"/>
              <path id="Trazado_621828" data-name="Trazado 621828" d="M177.435,114.594s-12.66,3.3-20.552,3.928c0,0-5.908-13.147-6.942-25.094l-4.493.241s-4.134,23.258,6.7,32.688c7.491,6.522,32.47-5.567,32.47-5.567Z" transform="translate(-67.977 -5.217)" fill="#b55b52"/>
              <path id="Trazado_621829" data-name="Trazado 621829" d="M127.106,61.341s17.15-1.575,18.926,15.051a59.376,59.376,0,0,1-5.1,30.163s-10.377,20.08-22.957,17.289-23.242-9.27-21.021-20.113,6.368-10.423,6.22-25.489,14.749-23.8,23.93-16.9" transform="translate(17.982 -3.292)" fill="#263238"/>
              <path id="Trazado_621830" data-name="Trazado 621830" d="M106,85.556c1.793,8.34,5.8,11.661,13.929,11.025a10.522,10.522,0,0,1-.157,3.441,6.5,6.5,0,0,1-5.663,5.378c-6.992,1.137-3.146,9.641-3.146,9.641l6.929,3.254,9.148-5.012,6.9-7.053-2.438.015s-4.7-6.77.039-18.161a7.039,7.039,0,0,0,3.626-5.528c.2-3.792-3.9-4-5.451-2.588,0,0-7.055-2.924-6-14.234a23.317,23.317,0,0,1-15.88,3.516S104.2,77.208,106,85.556" transform="translate(20.366 -3.671)" fill="#b55b52"/>
              <path id="Trazado_621831" data-name="Trazado 621831" d="M131.6,79.384l-.087,5.833a3.867,3.867,0,0,1-3.061-.17Z" transform="translate(1.139 -4.433)" fill="#a02724"/>
              <path id="Trazado_621832" data-name="Trazado 621832" d="M122.993,72.308a.353.353,0,0,0,.175-.046.313.313,0,0,0,.115-.442,3.766,3.766,0,0,0-4.415-1.337.319.319,0,0,0-.208.412.345.345,0,0,0,.432.2,3.014,3.014,0,0,1,3.611,1.061.342.342,0,0,0,.29.156" transform="translate(19.154 -3.922)" fill="#263238"/>
              <path id="Trazado_621833" data-name="Trazado 621833" d="M131.34,74.271a.349.349,0,0,0,.233-.088c.958-.857,2.724-.226,2.741-.219a.344.344,0,0,0,.438-.184.317.317,0,0,0-.194-.416c-.087-.032-2.178-.786-3.45.35a.311.311,0,0,0-.015.455.344.344,0,0,0,.246.1" transform="translate(-4.562 -4.081)" fill="#263238"/>
              <path id="Trazado_621834" data-name="Trazado 621834" d="M120.169,88.334h0a6.636,6.636,0,0,0,5.836-2.9.236.236,0,0,0-.1-.327.26.26,0,0,0-.344.1,6.141,6.141,0,0,1-5.394,2.645.242.242,0,1,0,0,.483" transform="translate(15.183 -4.751)" fill="#263238"/>
              <path id="Trazado_621835" data-name="Trazado 621835" d="M122.221,78.247c-.021.7.364,1.27.862,1.284s.917-.539.938-1.234-.364-1.271-.862-1.284-.917.539-.938,1.234" transform="translate(14.91 -4.3)" fill="#263238"/>
              <path id="Trazado_621836" data-name="Trazado 621836" d="M131.108,78.326c-.021.7.364,1.27.862,1.284s.917-.539.939-1.234-.365-1.271-.863-1.284-.917.539-.938,1.234" transform="translate(-2.801 -4.305)" fill="#263238"/>
              <path id="Trazado_621837" data-name="Trazado 621837" d="M125.2,77l-2.258-.608s.409,1.15,2.258.608" transform="translate(13.018 -4.266)" fill="#263238"/>
              <path id="Trazado_621838" data-name="Trazado 621838" d="M133.633,77.079l-1.656-.228a1.05,1.05,0,0,0,1.656.228" transform="translate(-4.388 -4.291)" fill="#263238"/>
              <path id="Trazado_621839" data-name="Trazado 621839" d="M81.013,115.014l7.751,16.275,4.132-1.424s-.417,29.554,2.957,44.733H136.3l2.326-40.327,2.116,4.208,14.939-7.953s-4.121-16.054-10.551-18.9c-3.069-1.359-9.614-2.39-16.342-3.06a146.727,146.727,0,0,0-18.482-.831s-.629-.02-1.754.012a64.251,64.251,0,0,0-27.541,7.262" transform="translate(24.16 -6.013)" fill="#ffb338"/>
              <path id="Trazado_621840" data-name="Trazado 621840" d="M183.245,92.528a15.648,15.648,0,0,0,2.237-14.96L177.46,77.3l-1,6.682a12.208,12.208,0,0,0,2.291,8.789Z" transform="translate(-101.282 -4.316)" fill="#b55b52"/>
              <path id="Trazado_621841" data-name="Trazado 621841" d="M25.045,146.708l4.179-7.084,5.085-1.684,3.614,6.419-3.229,4.21s-4.257,3.442-7.337,3.537Z" transform="translate(197.488 -7.703)" fill="#b55b52"/>
              <path id="Trazado_621842" data-name="Trazado 621842" d="M108.1,107.754c.068,10.18,6.761,21.333,6.761,21.333,5.963-5.47,11.87-17.19,13.476-20.515a146.949,146.949,0,0,0-18.482-.832s-.629-.019-1.754.013" transform="translate(24.614 -6.013)" fill="#b55b52"/>
              <g id="Grupo_877037" data-name="Grupo 877037" transform="translate(162.789 121.542)" opacity="0.12">
                <g id="Grupo_877036" data-name="Grupo 877036">
                  <g id="Grupo_877035" data-name="Grupo 877035" clip-path="url(#clip-path-9)">
                    <path id="Trazado_621843" data-name="Trazado 621843" d="M98.176,139.656,96.1,128.729l-.037,6.719Z" transform="translate(-96.06 -128.73)"/>
                  </g>
                </g>
              </g>
              <g id="Grupo_877040" data-name="Grupo 877040" transform="translate(112.924 120.553)" opacity="0.12">
                <g id="Grupo_877039" data-name="Grupo 877039">
                  <g id="Grupo_877038" data-name="Grupo 877038" clip-path="url(#clip-path-10)">
                    <path id="Trazado_621844" data-name="Trazado 621844" d="M141.7,132.407l6.672-4.724-2.539,3.3Z" transform="translate(-141.697 -127.683)"/>
                  </g>
                </g>
              </g>
              <path id="Trazado_621845" data-name="Trazado 621845" d="M93.032,318.852l-9.55,9.831,22.166,20.045,7.9-5.349Z" transform="translate(63.842 -17.805)" fill="#b55b52"/>
              <path id="Trazado_621846" data-name="Trazado 621846" d="M82.805,349.478c-.538,3.053-1.325,6.462-5.893,12.451-1.016,1.329,1.647,3.822,4.64,1.191s7.281-6.767,9.446-8.667c3.522-3.1,5-4.137,7.83-6.551a1.443,1.443,0,0,0,.122-.109,1.38,1.38,0,0,0-.05-2.02l-6.287-4.845a.773.773,0,0,0-1.037.069l-8.006,7.042a2.548,2.548,0,0,0-.766,1.438" transform="translate(84.768 -19.028)" fill="#263238"/>
              <path id="Trazado_621847" data-name="Trazado 621847" d="M97.432,349.785a.219.219,0,0,0,0-.246.232.232,0,0,0-.238-.078c-.456.138-4.536,1.339-5,2.531a.661.661,0,0,0,.1.66,1.128,1.128,0,0,0,1.036.463,3.882,3.882,0,0,0,2.071-1.133,17.373,17.373,0,0,0,2.03-2.2m-.766.276c-1.357,1.645-2.589,2.63-3.346,2.63a.73.73,0,0,1-.652-.315.238.238,0,0,1-.052-.257.913.913,0,0,1,.269-.334,13.4,13.4,0,0,1,3.781-1.724" transform="translate(71.322 -19.513)" fill="#407bff"/>
              <path id="Trazado_621848" data-name="Trazado 621848" d="M97.083,349.609a.2.2,0,0,0-.063-.2c-.072-.069-1.864-1.635-3.4-1.517a1.805,1.805,0,0,0-1.181.571c-.424.463-.362.788-.227.985.569.837,3.531.729,4.713.326l.082-.05a.4.4,0,0,0,.072-.118m-3.449-1.28a4.862,4.862,0,0,1,2.776,1.162c-1.306.3-3.47.217-3.811-.286-.021-.039-.1-.167.176-.463l.093-.1a1.324,1.324,0,0,1,.766-.315" transform="translate(71.734 -19.426)" fill="#407bff"/>
              <path id="Trazado_621849" data-name="Trazado 621849" d="M112.786,337.849l-13.009-.178,1.8,31.106,9.363-.3Z" transform="translate(48.428 -18.855)" fill="#b55b52"/>
              <path id="Trazado_621850" data-name="Trazado 621850" d="M112.237,368.151c-2.652,1.989-3.956,4.068-11.394,5.615-1.657.345-1.709,4.038,2.217,4.009s8.1-.355,10.948-.355c4.62-.029,6.37.2,10.027.2a1.6,1.6,0,0,0,1.615-1.6l-.631-7.88a.662.662,0,0,0-.7-.6l-10.513.069a2.714,2.714,0,0,0-1.564.542" transform="translate(35.563 -20.523)" fill="#263238"/>
              <path id="Trazado_621851" data-name="Trazado 621851" d="M151.1,166.745c1.129,19.306-25.552,77.017-28.536,97.279,9.2,20.271,33.3,46.167,33.3,46.167l-11.394,11.82s-39.919-33.835-41.99-57.406c-1.73-20.163,13.266-95.929,13.266-95.929Z" transform="translate(2.799 -9.311)" fill="#407bff"/>
              <path id="Trazado_621852" data-name="Trazado 621852" d="M151.1,166.745c1.129,19.306-25.552,77.017-28.536,97.279,9.2,20.271,33.3,46.167,33.3,46.167l-11.394,11.82s-39.919-33.835-41.99-57.406c-1.73-20.163,13.266-95.929,13.266-95.929Z" transform="translate(2.799 -9.311)" fill="#263238"/>
              <path id="Trazado_621853" data-name="Trazado 621853" d="M114.828,315.753l-14.9,13.465,4.018,2.393,13.641-11.672Z" transform="translate(43.486 -17.632)" fill="#407bff"/>
              <g id="Grupo_877043" data-name="Grupo 877043" transform="translate(127.084 186.731)" opacity="0.3" style="isolation: isolate">
                <g id="Grupo_877042" data-name="Grupo 877042" transform="translate(0)">
                  <g id="Grupo_877041" data-name="Grupo 877041" clip-path="url(#clip-path-11)">
                    <path id="Trazado_621854" data-name="Trazado 621854" d="M134.022,205.129c-6.256,18.371-14.283,38.376-18.033,52.038-.684-14.864-.156-41.331,10.772-55.721,5.106-6.768,7.116-3.378,7.261,3.683" transform="translate(-115.791 -197.775)"/>
                  </g>
                </g>
              </g>
              <path id="Trazado_621855" data-name="Trazado 621855" d="M128.072,166.985c7.758,20.3,1.72,66.153,1.3,99.012,2.32,24.762-.786,62.341-.786,62.341l-13.994.551s-4.225-44.326-7.1-71.974c-2.434-23.285-11.154-88.8-11.154-88.8Z" transform="translate(32.625 -9.324)" fill="#407bff"/>
              <path id="Trazado_621856" data-name="Trazado 621856" d="M128.21,166.232c7.758,20.3,1.281,66.864.867,99.723,2.32,24.763-.787,62.341-.787,62.341l-13.993.551s-4.226-44.326-7.106-71.974c-2.434-23.285-11.154-88.8-11.154-88.8Z" transform="translate(32.925 -9.282)" fill="#263238"/>
              <path id="Trazado_621857" data-name="Trazado 621857" d="M115.869,334.386l-18.147.482,1.119,4.8,16.044.433Z" transform="translate(47.385 -18.672)" fill="#407bff"/>
              <path id="Trazado_621858" data-name="Trazado 621858" d="M112.676,368.749c.829.758,3.014.394,4.247.118a.242.242,0,0,0,.176-.178.191.191,0,0,0-.083-.207c-.3-.2-3.013-1.92-4.143-1.447a.782.782,0,0,0-.476.6,1.087,1.087,0,0,0,.2.985.371.371,0,0,0,.082.128m3.636-.227c-1.647.315-2.869.266-3.314-.118a.721.721,0,0,1-.166-.749.306.306,0,0,1,.2-.266c.591-.245,2.175.493,3.283,1.153Z" transform="translate(31.624 -20.491)" fill="#407bff"/>
              <path id="Trazado_621859" data-name="Trazado 621859" d="M114.477,368.661a.239.239,0,0,0,.217,0,.248.248,0,0,0,.124-.177c.01-.109.166-2.669-.777-3.517a1.07,1.07,0,0,0-.921-.276.833.833,0,0,0-.787.591,3.316,3.316,0,0,0,1.036,2.4,4.617,4.617,0,0,0,1.109.975m-.083-.582c-.849-.669-1.8-2.108-1.636-2.718a.347.347,0,0,1,.383-.257.687.687,0,0,1,.58.177l.093.1a4.926,4.926,0,0,1,.58,2.7" transform="translate(33.915 -20.363)" fill="#407bff"/>
              <rect id="Rectángulo_327177" data-name="Rectángulo 327177" width="3.425" height="19.189" transform="translate(151.832 100.343)" fill="#fafafa"/>
              <rect id="Rectángulo_327178" data-name="Rectángulo 327178" width="3.425" height="19.189" transform="translate(159.856 100.343)" fill="#fafafa"/>
              <ellipse id="Elipse_6637" data-name="Elipse 6637" cx="16.409" cy="15.605" rx="16.409" ry="15.605" transform="translate(141.484 94.067)" fill="none" stroke="#fafafa" stroke-miterlimit="10" stroke-width="1"/>
              <path id="Trazado_621860" data-name="Trazado 621860" d="M10.559,37.369v8.367H242.84V37.369a7.806,7.806,0,0,0-7.99-7.606H18.557a7.813,7.813,0,0,0-8,7.606" transform="translate(6.952 -1.662)" fill="#407bff"/>
              <path id="Trazado_621861" data-name="Trazado 621861" d="M10.558,178.557v3.235a7.812,7.812,0,0,0,7.994,7.6h216.3a7.806,7.806,0,0,0,7.987-7.6v-3.235Z" transform="translate(6.956 -9.971)" fill="#407bff"/>
              <path id="Trazado_621862" data-name="Trazado 621862" d="M22.549,42.2H56.486a3.5,3.5,0,1,0,0-7H22.549a3.5,3.5,0,1,0,0,7Z" transform="translate(181.375 -1.965)" fill="none" stroke="#fff" stroke-miterlimit="10" stroke-width="0.5"/>
              <path id="Trazado_621863" data-name="Trazado 621863" d="M70.261,42.2h4.991a3.5,3.5,0,1,0,0-7H70.261a3.5,3.5,0,1,0,0,7Z" transform="translate(115.24 -1.965)" fill="none" stroke="#fff" stroke-miterlimit="10" stroke-width="0.5"/>
              <path id="Rectángulo_327179" data-name="Rectángulo 327179" d="M15.043,0h140.1a15.043,15.043,0,0,1,15.043,15.043v86.541a15.042,15.042,0,0,1-15.042,15.042H15.042A15.042,15.042,0,0,1,0,101.584V15.043A15.043,15.043,0,0,1,15.043,0Z" transform="translate(74.2 48.373)" fill="none" stroke="#fff" stroke-miterlimit="10" stroke-width="0.5"/>
              <path id="Trazado_621864" data-name="Trazado 621864" d="M8.19,97.791H68.17A8,8,0,0,0,76.359,90V69.679a8,8,0,0,0-8.19-7.788H8.19A8,8,0,0,0,0,69.679V90A8,8,0,0,0,8.19,97.791" transform="translate(183.915 -3.456)" fill="#3d672f"/>
              <path id="Trazado_621865" data-name="Trazado 621865" d="M2.949,68.017V91.664A6.286,6.286,0,0,0,9.39,97.79H32.368c6.972,2.279,2.607,11.434,2.451,11.76a12.772,12.772,0,0,0,3.669-1.893,11.38,11.38,0,0,0,4.263-9.867H72.865a6.286,6.286,0,0,0,6.44-6.126V68.017a6.286,6.286,0,0,0-6.44-6.126H9.39a6.286,6.286,0,0,0-6.441,6.126" transform="translate(178.043 -3.456)" fill="#b1de19"/>
              <rect id="Rectángulo_327181" data-name="Rectángulo 327181" width="64.856" height="3.27" transform="translate(189.865 64.135)" fill="#3d672f"/>
              <rect id="Rectángulo_327182" data-name="Rectángulo 327182" width="64.856" height="3.27" transform="translate(189.865 70.136)" fill="#3d672f"/>
              <rect id="Rectángulo_327183" data-name="Rectángulo 327183" width="64.856" height="3.27" transform="translate(189.865 76.136)" fill="#3d672f"/>
            </g>
          </g>
        </g>
      </g>
    </g>
  </g>
</svg>
