<svg xmlns="http://www.w3.org/2000/svg" xmlns:xlink="http://www.w3.org/1999/xlink" width="228" height="89.256" viewBox="0 0 228 89.256">
  <defs>
    <clipPath id="clip-path">
      <rect width="228" height="89.256" fill="none"/>
    </clipPath>
    <filter id="Rectángulo_276363" x="0" y="30.256" width="228" height="59" filterUnits="userSpaceOnUse">
      <feOffset dy="3" input="SourceAlpha"/>
      <feGaussianBlur stdDeviation="3" result="blur"/>
      <feFlood flood-opacity="0.161"/>
      <feComposite operator="in" in2="blur"/>
      <feComposite in="SourceGraphic"/>
    </filter>
    <filter id="Trazado_502571" x="0.125" y="0" width="89.256" height="89.256" filterUnits="userSpaceOnUse">
      <feOffset dy="3" input="SourceAlpha"/>
      <feGaussianBlur stdDeviation="3" result="blur-2"/>
      <feFlood flood-opacity="0.161"/>
      <feComposite operator="in" in2="blur-2"/>
      <feComposite in="SourceGraphic"/>
    </filter>
  </defs>
  <g id="Grupo_1034311" data-name="Grupo 1034311" transform="translate(6712 7018.256)">
    <g id="Cuadrícula_de_repetición_1" data-name="Cuadrícula de repetición 1" transform="translate(-6712 -7018.256)" clip-path="url(#clip-path)">
      <g id="Grupo_1034310" data-name="Grupo 1034310" transform="translate(6712 7018.256)">
        <g id="Grupo_876989" data-name="Grupo 876989" transform="translate(-6883 -11971)">
          <g transform="matrix(1, 0, 0, 1, 171, 4952.74)" filter="url(#Rectángulo_276363)">
            <path id="Rectángulo_276363-2" data-name="Rectángulo 276363" d="M0,0H200a10,10,0,0,1,10,10V41a0,0,0,0,1,0,0H0a0,0,0,0,1,0,0V0A0,0,0,0,1,0,0Z" transform="translate(9 36.26)" fill="#fff"/>
          </g>
          <g id="Grupo_152495" data-name="Grupo 152495" transform="translate(0 -2574)">
            <text id="Atraer" transform="translate(296.065 7571.643)" fill="#12263f" font-size="20" font-family="Roboto-Black, Roboto" font-weight="800"><tspan x="0" y="19">Atraer</tspan></text>
            <path id="Trazado_194609" data-name="Trazado 194609" d="M0,0,85,40H0Z" transform="translate(180 7563.643)" fill="#ffb338"/>
            <g id="tarea-completada" transform="translate(180.125 7532.744)">
              <path id="Trazado_203286" data-name="Trazado 203286" d="M0,20.438ZM4.438,16" transform="translate(13.875 -13.525)" fill="#ffc846"/>
              <g transform="matrix(1, 0, 0, 1, -9.12, -6)" filter="url(#Trazado_502571)">
                <path id="Trazado_502571-2" data-name="Trazado 502571" d="M295.256,259.628A35.628,35.628,0,1,1,259.628,224,35.629,35.629,0,0,1,295.256,259.628Zm0,0" transform="translate(-214.88 -218)" fill="#cee4c6"/>
              </g>
              <g id="Grupo_876985" data-name="Grupo 876985" transform="translate(-50.016 9.161)">
                <g id="Grupo_876976" data-name="Grupo 876976" transform="translate(70.137 32.257)">
                  <g id="Grupo_876975" data-name="Grupo 876975" transform="translate(0)">
                    <path id="Trazado_621723" data-name="Trazado 621723" d="M107.035,312a1.034,1.034,0,1,0,1.034,1.034A1.034,1.034,0,0,0,107.035,312Z" transform="translate(-106.001 -312.002)"/>
                  </g>
                </g>
                <g id="Grupo_876978" data-name="Grupo 876978" transform="translate(66.001 12.406)">
                  <g id="Grupo_876977" data-name="Grupo 876977" transform="translate(0)">
                    <path id="Trazado_621724" data-name="Trazado 621724" d="M104.254,120H93.916a1.034,1.034,0,0,0-1.034,1.034v19.85a7.237,7.237,0,1,1-14.474,0v-19.85A1.034,1.034,0,0,0,77.374,120H67.035A1.034,1.034,0,0,0,66,121.037v19.85a19.644,19.644,0,0,0,39.287,0v-19.85A1.034,1.034,0,0,0,104.254,120Zm-36.185,2.068H76.34v7.444H68.069Zm35.152,18.816a17.576,17.576,0,1,1-35.152,0v-9.3H76.34v9.3a9.3,9.3,0,1,0,18.61,0v-9.3h8.271Zm0-11.373H94.949v-7.444h8.271Z" transform="translate(-66.001 -120.003)"/>
                  </g>
                </g>
                <g id="Grupo_876980" data-name="Grupo 876980" transform="translate(70.726 36.35)">
                  <g id="Grupo_876979" data-name="Grupo 876979" transform="translate(0)">
                    <path id="Trazado_621725" data-name="Trazado 621725" d="M118.5,359.245a13.57,13.57,0,0,1-4.78-6.907,1.034,1.034,0,0,0-1.983.586,15.652,15.652,0,0,0,5.513,7.968,1.034,1.034,0,1,0,1.251-1.647Z" transform="translate(-111.698 -351.596)"/>
                  </g>
                </g>
                <g id="Grupo_876982" data-name="Grupo 876982" transform="translate(68.069 0)">
                  <g id="Grupo_876981" data-name="Grupo 876981" transform="translate(0 0)">
                    <path id="Trazado_621726" data-name="Trazado 621726" d="M92.05,4.626a1.034,1.034,0,0,0-.88-.49H88.708L90.028,1.5a1.034,1.034,0,0,0-1.85-.925L86.11,4.707a1.034,1.034,0,0,0,.925,1.5H89.5l-1.32,2.639a1.034,1.034,0,0,0,1.85.925L92.1,5.632A1.034,1.034,0,0,0,92.05,4.626Z" transform="translate(-86.001 0)"/>
                  </g>
                </g>
                <g id="Grupo_876984" data-name="Grupo 876984" transform="translate(97.017 0)">
                  <g id="Grupo_876983" data-name="Grupo 876983" transform="translate(0 0)">
                    <path id="Trazado_621727" data-name="Trazado 621727" d="M372.048,4.626a1.034,1.034,0,0,0-.88-.49h-2.463l1.32-2.639a1.034,1.034,0,0,0-1.85-.925l-2.068,4.136a1.034,1.034,0,0,0,.925,1.5H369.5l-1.32,2.639a1.034,1.034,0,0,0,1.849.925l2.068-4.136A1.034,1.034,0,0,0,372.048,4.626Z" transform="translate(-365.999 0)"/>
                  </g>
                </g>
              </g>
            </g>
          </g>
        </g>
      </g>
    </g>
  </g>
</svg>
