<svg xmlns="http://www.w3.org/2000/svg" xmlns:xlink="http://www.w3.org/1999/xlink" width="505" height="204.744" viewBox="0 0 505 204.744">
  <defs>
    <clipPath id="clip-path">
      <rect id="Rectángulo_327725" data-name="Rectángulo 327725" width="364.312" height="78.847" transform="translate(0 0)" fill="none"/>
    </clipPath>
    <clipPath id="clip-path-2">
      <rect id="Rectángulo_327722" data-name="Rectángulo 327722" width="246.279" height="164.141" fill="none"/>
    </clipPath>
    <clipPath id="clip-path-5">
      <rect id="Rectángulo_327719" data-name="Rectángulo 327719" width="59.112" height="25.41" transform="translate(31 117.446)" fill="none"/>
    </clipPath>
    <clipPath id="clip-path-6">
      <rect id="Rectángulo_327720" data-name="Rectángulo 327720" width="28.429" height="55.458" transform="translate(67.591 68.707)" fill="none"/>
    </clipPath>
    <clipPath id="clip-path-7">
      <rect id="Rectángulo_327717" data-name="Rectángulo 327717" width="315" height="204.681" fill="none"/>
    </clipPath>
    <clipPath id="clip-path-10">
      <rect id="Rectángulo_327714" data-name="Rectángulo 327714" width="11.141" height="37.96" fill="none"/>
    </clipPath>
    <clipPath id="clip-path-11">
      <rect id="Rectángulo_327715" data-name="Rectángulo 327715" width="16.853" height="12.744" fill="none"/>
    </clipPath>
  </defs>
  <g id="Grupo_878889" data-name="Grupo 878889" transform="translate(-810 -5051.256)">
    <g id="Grupo_877779" data-name="Grupo 877779" transform="translate(865.688 5083.187)">
      <g id="Grupo_877778" data-name="Grupo 877778" clip-path="url(#clip-path)">
        <path id="Trazado_625420" data-name="Trazado 625420" d="M0,15.606V63.242A15.605,15.605,0,0,0,15.606,78.848H186.414A15.606,15.606,0,0,0,202.02,63.242V22.992L223.285.649,15.654,0A15.606,15.606,0,0,0,0,15.606" fill="#f5f5f5"/>
        <path id="Trazado_625421" data-name="Trazado 625421" d="M176.841,28.86l-155-.716.016-4.764,155,.716Z" fill="#e0e0e0"/>
        <path id="Trazado_625422" data-name="Trazado 625422" d="M176.841,44.533l-155-.716.016-4.764,155,.716Z" fill="#e0e0e0"/>
        <rect id="Rectángulo_327723" data-name="Rectángulo 327723" width="4.764" height="61.329" transform="matrix(0.005, -1, 1, 0.005, 115.511, 59.508)" fill="#e0e0e0"/>
        <path id="Trazado_625423" data-name="Trazado 625423" d="M364.312,30.575V62.169a10.35,10.35,0,0,1-10.35,10.351H240.674a10.351,10.351,0,0,1-10.351-10.351V35.474l-14.1-14.819,137.71-.43a10.35,10.35,0,0,1,10.383,10.35" fill="#e0e0e0"/>
        <path id="Trazado_625424" data-name="Trazado 625424" d="M247.023,39.367l102.8-.475-.011-3.159-102.8.475Z" fill="#f5f5f5"/>
        <path id="Trazado_625425" data-name="Trazado 625425" d="M247.023,49.762l102.8-.475-.011-3.159-102.8.474Z" fill="#f5f5f5"/>
        <rect id="Rectángulo_327724" data-name="Rectángulo 327724" width="40.676" height="3.16" transform="matrix(1, -0.005, 0.005, 1, 247.008, 56.734)" fill="#f5f5f5"/>
      </g>
    </g>
    <g id="Grupo_877780" data-name="Grupo 877780" transform="translate(832 5068.131)">
      <g id="Grupo_877775" data-name="Grupo 877775" clip-path="url(#clip-path-2)">
        <g id="Grupo_877766" data-name="Grupo 877766">
          <g id="Grupo_877765" data-name="Grupo 877765" clip-path="url(#clip-path-2)">
            <path id="Trazado_625368" data-name="Trazado 625368" d="M240.111,61.491H12.816a6.168,6.168,0,0,0-6.168,6.168v73.986a6.168,6.168,0,0,0,6.168,6.168H177.9l15.027,16.328s1.577-9.177,2.9-16.328h44.285a6.168,6.168,0,0,0,6.168-6.168V67.659a6.168,6.168,0,0,0-6.168-6.168" fill="#455a64"/>
            <path id="Trazado_625369" data-name="Trazado 625369" d="M231.194,99.643c0,.144-26.832.26-59.924.26s-59.93-.116-59.93-.26,26.827-.26,59.93-.26,59.924.116,59.924.26" fill="#f5f5f5"/>
            <path id="Trazado_625370" data-name="Trazado 625370" d="M231.194,88.893c0,.144-26.832.26-59.924.26s-59.93-.116-59.93-.26,26.827-.26,59.93-.26,59.924.116,59.924.26" fill="#f5f5f5"/>
            <path id="Trazado_625371" data-name="Trazado 625371" d="M231.194,110.274c0,.144-26.832.26-59.924.26s-59.93-.116-59.93-.26,26.827-.26,59.93-.26,59.924.116,59.924.26" fill="#f5f5f5"/>
            <path id="Trazado_625372" data-name="Trazado 625372" d="M189.847,121.286c0,.144-17.576.26-39.251.26s-39.255-.116-39.255-.26,17.572-.26,39.255-.26,39.251.116,39.251.26" fill="#f5f5f5"/>
          </g>
        </g>
        <g id="Grupo_877774" data-name="Grupo 877774">
          <g id="Grupo_877773" data-name="Grupo 877773" clip-path="url(#clip-path-2)">
            <path id="Trazado_625373" data-name="Trazado 625373" d="M17.75,103.225c0,22.807,19.382,41.3,43.29,41.3s43.29-18.489,43.29-41.3-19.382-41.3-43.29-41.3-43.29,18.489-43.29,41.3" fill="#e0e0e0"/>
            <path id="Trazado_625374" data-name="Trazado 625374" d="M52.22,3.656c-6.868.358-9.564,7.517-10.385,9.115a13.853,13.853,0,0,0-1.1,5.239,11.4,11.4,0,0,1-1.317,5.172c-1.513,2.413-4.688,3.659-5.554,6.372-.978,3.066,1.534,6.348.864,9.5-.359,1.691-1.593,3.082-2.029,4.754A7,7,0,0,0,33.625,49c2.255,3.874,6.931,5.82,11.411,5.98S53.9,53.8,58.182,52.469" fill="#263238"/>
            <path id="Trazado_625375" data-name="Trazado 625375" d="M82.44,12.555a4.278,4.278,0,0,0,1.017,4.425,27.568,27.568,0,0,0,3.717,3.029,6.073,6.073,0,0,1,2.538,3.924c.133,1.465-.6,2.918-.4,4.375.513,3.744,6.483,4.866,6.8,8.632.212,2.507-2.361,4.81-1.648,7.223a11.448,11.448,0,0,0,1.486,2.467c1.694,2.813.545,6.693-1.909,8.874s-5.868,2.951-9.148,3.1c-2.759.124-5.893-.327-7.517-2.56-1.487-2.044-1.182-4.83-.885-7.339,1.387-11.719,1.151-23.561.913-35.359" fill="#263238"/>
            <path id="Trazado_625376" data-name="Trazado 625376" d="M54.024,66.786c.052-6.157,0-12.639,0-12.639S46.1,52.738,44.58,42.372c-1.453-9.887,1.011-31.15,1.011-31.15C57.059,6.7,69.971,8.448,78.006,17.678l-1.25,50c-.144,5.8-5.25,10.3-11.464,10.1-6.275-.205-11.318-5.122-11.268-10.988" fill="#ffbe9d"/>
            <path id="Trazado_625377" data-name="Trazado 625377" d="M47.745,27.549A1.327,1.327,0,0,0,49.009,28.9a1.27,1.27,0,0,0,1.382-1.181,1.328,1.328,0,0,0-1.263-1.355,1.271,1.271,0,0,0-1.383,1.182" fill="#263238"/>
            <path id="Trazado_625378" data-name="Trazado 625378" d="M45.611,26.523c.162.175,1.176-.557,2.6-.537,2.687.389,2.637.8,2.623.573.077-.076-.087-.39-.54-.728a3.637,3.637,0,0,0-2.1-.673,3.5,3.5,0,0,0-2.076.643c-.443.332-.6.644-.515.722" fill="#263238"/>
            <path id="Trazado_625379" data-name="Trazado 625379" d="M62.361,27.971a1.327,1.327,0,0,0,1.264,1.354,1.27,1.27,0,0,0,1.382-1.181,1.328,1.328,0,0,0-1.263-1.355,1.271,1.271,0,0,0-1.383,1.182" fill="#263238"/>
            <path id="Trazado_625380" data-name="Trazado 625380" d="M60.505,27.016c.163.175,1.178-.557,2.6-.537,1.426,0,2.466.747,2.623.573.077-.076-.086-.39-.54-.728a3.642,3.642,0,0,0-2.1-.673,3.507,3.507,0,0,0-2.076.643c-.441.332-.6.644-.515.722" fill="#263238"/>
            <path id="Trazado_625381" data-name="Trazado 625381" d="M55.2,37.26a9.427,9.427,0,0,0-2.315-.445c-.364-.042-.708-.119-.767-.368a1.859,1.859,0,0,1,.256-1.078L53.485,32.6c1.543-3.936,2.665-7.174,2.506-7.235s-1.539,3.08-3.083,7.016q-.557,1.456-1.065,2.781a2.109,2.109,0,0,0-.206,1.429.913.913,0,0,0,.594.54,2.485,2.485,0,0,0,.618.094,9.321,9.321,0,0,0,2.351.03" fill="#263238"/>
            <path id="Trazado_625382" data-name="Trazado 625382" d="M54.018,54.147a26.329,26.329,0,0,0,13.9-3.536s-3.444,7.069-13.789,5.981Z" fill="#eb996e"/>
            <path id="Trazado_625383" data-name="Trazado 625383" d="M55.764,40.708a2.572,2.572,0,0,1,2.318-.929,2.35,2.35,0,0,1,1.612.889,1.489,1.489,0,0,1,.094,1.7,1.726,1.726,0,0,1-1.878.452,5.425,5.425,0,0,1-1.813-1.11,1.617,1.617,0,0,1-.4-.427.478.478,0,0,1,.009-.532" fill="#eb996e"/>
            <path id="Trazado_625384" data-name="Trazado 625384" d="M59.391,38.3c-.232-.016-.253,1.534-1.592,2.619s-2.988.9-3,1.112c-.023.1.364.305,1.061.332a3.861,3.861,0,0,0,2.5-.841,3.36,3.36,0,0,0,1.236-2.2c.067-.648-.1-1.034-.208-1.026" fill="#263238"/>
            <path id="Trazado_625385" data-name="Trazado 625385" d="M73.511,10.294c-3.786,5.4-13.81,10.952-20.988,12.241.838-1.1,5.247-3.822,6.085-4.925-3.254,2.43-7.91,5.68-12.226,5.9a2.615,2.615,0,0,1-1.484-.232,2,2,0,0,1-.755-1.625,43.129,43.129,0,0,1,.3-9.377,10.379,10.379,0,0,1,3.734-6.691C50.941,3.449,54.9,2.922,58.629,2.832A23.657,23.657,0,0,1,67.84,4.071c2.859,1.128,5.3,3.358,5.722,6.041" fill="#263238"/>
            <path id="Trazado_625386" data-name="Trazado 625386" d="M84.366,34.484A58.763,58.763,0,0,0,85.4,27.567c.305-5.34-1.237-25.049-19.649-23.463l-.743,5.608s-2.845,19.194,9.064,19.335a21.416,21.416,0,0,0,6.052,11.282s3.122-.095,4.242-5.845" fill="#263238"/>
            <path id="Trazado_625387" data-name="Trazado 625387" d="M74.073,29.048A6.175,6.175,0,0,1,77.4,29.3a4.308,4.308,0,0,1,2.413,2.24,4.505,4.505,0,0,1-.01,3.308,7.611,7.611,0,0,1-1.917,2.761,5.156,5.156,0,0,1-2.024,1.31,2.467,2.467,0,0,1-2.3-.384" fill="#ffbe9d"/>
            <path id="Trazado_625388" data-name="Trazado 625388" d="M74.607,35.763c-.127.04.346.715,1.361.454a2.181,2.181,0,0,0,1.263-1.077,4.915,4.915,0,0,0,.572-1.83,2.9,2.9,0,0,0-.445-1.954,1.924,1.924,0,0,0-1.444-.875c-1.04-.035-1.371.682-1.254.7.083.085.491-.281,1.17-.11a1.868,1.868,0,0,1,1.129,2.151c-.137,1.137-.587,2.174-1.2,2.427-.634.314-1.085.019-1.156.11" fill="#eb996e"/>
            <path id="Trazado_625389" data-name="Trazado 625389" d="M76.082,8.27a6.275,6.275,0,0,0,8.5-2.233,4.015,4.015,0,0,0,.582-3A4.133,4.133,0,0,0,82.068.353a6.32,6.32,0,0,0-5.806,1.394,5.541,5.541,0,0,0-1.5,5.7,4.942,4.942,0,0,0,4.775,3.295" fill="#263238"/>
            <path id="Trazado_625390" data-name="Trazado 625390" d="M77.76,38.12A14.636,14.636,0,0,0,74.9,40.588a4.928,4.928,0,0,0-1.235,3.482,9.01,9.01,0,0,1,.232,2.1,7.011,7.011,0,0,1-1.451,2.5,5.929,5.929,0,0,0,.935,6.949,9.622,9.622,0,0,0,6.8,2.765,6.856,6.856,0,0,0,4.181-.992c1.722-1.205,2.385-3.465,2.429-5.566" fill="#263238"/>
            <path id="Trazado_625391" data-name="Trazado 625391" d="M79.011,12.4a6.817,6.817,0,0,1-1.085,1.888,21.785,21.785,0,0,1-3.546,3.881,21.726,21.726,0,0,1-4.371,2.923,6.823,6.823,0,0,1-2.029.789,47.291,47.291,0,0,0,6.061-4.107,47.4,47.4,0,0,0,4.97-5.374" fill="#455a64"/>
            <path id="Trazado_625392" data-name="Trazado 625392" d="M80.921,12.3a8.231,8.231,0,0,1-.34,2.524,20.354,20.354,0,0,1-6.27,10.421,8.252,8.252,0,0,1-2.07,1.482A31.606,31.606,0,0,0,77.8,20.243,31.684,31.684,0,0,0,80.921,12.3" fill="#455a64"/>
            <path id="Trazado_625393" data-name="Trazado 625393" d="M40.947,20.633c.153-.011.35,1.722.948,3.767s1.341,3.621,1.2,3.694a8.621,8.621,0,0,1-1.7-3.549,8.6,8.6,0,0,1-.448-3.912" fill="#455a64"/>
            <path id="Trazado_625394" data-name="Trazado 625394" d="M85.051,56.012a2.892,2.892,0,0,0,1.523.489,3.109,3.109,0,0,0,1.761-.555,3.551,3.551,0,0,0,1.335-2.021,6.516,6.516,0,0,0,.019-3.014c-.216-1.085-.637-2.207-1.008-3.431a9.037,9.037,0,0,1-.444-4.03c.23-1.466,1.18-2.654,1.643-3.97a5.2,5.2,0,0,0-3.037-6.451c-.572-.244-1.165-.451-1.715-.75a3.5,3.5,0,0,1-1.369-1.227,5.759,5.759,0,0,1-.619-3.146,10.746,10.746,0,0,0-.1-2.543,4.155,4.155,0,0,0-.75-1.722,2.481,2.481,0,0,0-1.349-.834.913.913,0,0,1,.436.034,2.082,2.082,0,0,1,1.067.669,4.217,4.217,0,0,1,.88,1.788,10.5,10.5,0,0,1,.187,2.608,5.475,5.475,0,0,0,.615,2.914c.559.918,1.724,1.3,2.906,1.767a5.67,5.67,0,0,1,3.343,7.065c-.521,1.434-1.433,2.577-1.632,3.884a8.67,8.67,0,0,0,.4,3.809c.35,1.2.764,2.351.971,3.484a6.806,6.806,0,0,1-.089,3.2A3.816,3.816,0,0,1,88.5,56.188a3.251,3.251,0,0,1-1.93.516,2.354,2.354,0,0,1-1.2-.392,1.076,1.076,0,0,1-.319-.3" fill="#455a64"/>
            <path id="Trazado_625395" data-name="Trazado 625395" d="M77.832,55.309c.046-.03.131.321.616.541a1.64,1.64,0,0,0,1.94-.526,3.057,3.057,0,0,0-.162-3.129c-.57-1.131-1.7-2.238-1.992-3.889A2.817,2.817,0,0,1,78.79,46c.489-.6,1.065-1.005,1.439-1.5a4.359,4.359,0,0,0,.7-3.193,12.369,12.369,0,0,0-.573-2.269,2.979,2.979,0,0,1-.231-.846,2.775,2.775,0,0,1,.42.772,9.738,9.738,0,0,1,.748,2.288,4.628,4.628,0,0,1-.678,3.537c-.425.574-1.007.995-1.419,1.525a2.314,2.314,0,0,0-.445,1.907c.236,1.438,1.3,2.529,1.9,3.752a3.4,3.4,0,0,1,.034,3.568,1.794,1.794,0,0,1-1.269.694,1.753,1.753,0,0,1-1.062-.2c-.535-.328-.542-.737-.523-.722" fill="#455a64"/>
            <path id="Trazado_625396" data-name="Trazado 625396" d="M38.633,52.7a4.441,4.441,0,0,1-.814-.813,9.814,9.814,0,0,1-1.745-2.629,5.255,5.255,0,0,1-.42-2.182,3.8,3.8,0,0,1,.882-2.423c.62-.719,1.519-1.09,2.061-1.764a2.948,2.948,0,0,0,.414-2.572,10.939,10.939,0,0,0-1.1-2.643,9.115,9.115,0,0,1-.973-2.624,3.435,3.435,0,0,1,.515-2.525,8.777,8.777,0,0,1,1.524-1.588A4.558,4.558,0,0,0,40.687,28.5a2.945,2.945,0,0,0-.043-1.1c.012-.007.079.076.151.263a1.778,1.778,0,0,1,.092.87A4.546,4.546,0,0,1,39.23,31.2a8.864,8.864,0,0,0-1.412,1.552,3,3,0,0,0-.4,2.212,8.865,8.865,0,0,0,.952,2.469A11.074,11.074,0,0,1,39.518,40.2a3.436,3.436,0,0,1-.525,3.009c-.68.8-1.574,1.145-2.1,1.76a3.391,3.391,0,0,0-.809,2.122,4.975,4.975,0,0,0,.33,2.029,11.153,11.153,0,0,0,1.56,2.638,5.414,5.414,0,0,1,.657.94" fill="#455a64"/>
            <path id="Trazado_625397" data-name="Trazado 625397" d="M80.336,9.577A16.51,16.51,0,0,0,77.9,6.929,16.5,16.5,0,0,0,74.686,5.3a4.935,4.935,0,0,1,3.526,1.21,4.933,4.933,0,0,1,2.124,3.064" fill="#e8505b"/>
            <path id="Trazado_625398" data-name="Trazado 625398" d="M81.78,0c.052-.033.387.358.658,1.134a5.418,5.418,0,0,1-1.617,5.851c-.63.528-1.119.691-1.146.636s.367-.343.893-.9a6.186,6.186,0,0,0,1.456-2.549,6.189,6.189,0,0,0,.059-2.935A7.336,7.336,0,0,1,81.78,0" fill="#455a64"/>
            <g id="Grupo_877769" data-name="Grupo 877769" opacity="0.3">
              <g id="Grupo_877768" data-name="Grupo 877768">
                <g id="Grupo_877767" data-name="Grupo 877767" clip-path="url(#clip-path-5)">
                  <path id="Trazado_625399" data-name="Trazado 625399" d="M31,123.017s24.845,23.593,39.614,19.321,19.14-15.352,19.14-15.352l.358-3.969-1.48-.968-56.86-4.6Z"/>
                </g>
              </g>
            </g>
            <path id="Trazado_625400" data-name="Trazado 625400" d="M16.3,100.918l4.791-12.287,17.174,10.79-15.3,23.6s-6.224-8.085-6.662-22.1" fill="#eb996e"/>
            <path id="Trazado_625401" data-name="Trazado 625401" d="M35.681,66.97c7.99-4.174,18.338-5.377,18.338-5.377,3,6.013,12.469,6.775,18.2,2.672L77.052,61a17.638,17.638,0,0,1,2.025.082,25.811,25.811,0,0,1,22.862,20.556,51.5,51.5,0,0,1,1.209,12.992c-.628,10.924-11.942,11.912-11.942,11.912s-.582,10.8-1.347,19.52h0a16.286,16.286,0,0,1-9.9,14.112,40.184,40.184,0,0,1-12.613,3.888,42.361,42.361,0,0,1-37.583-13.013c1.716-10.406,3.356-23.879,3.24-24.482a.293.293,0,0,1,.019-.2L21.813,96.414l-6.355-5.337s13.947-20.7,20.223-24.107" fill="#2b95f9"/>
            <path id="Trazado_625402" data-name="Trazado 625402" d="M49.575,73.7a5.967,5.967,0,0,0-2.773-.767,4.553,4.553,0,0,0-2.858.992,11.958,11.958,0,0,0-1.274,1.367,3.3,3.3,0,0,1-1.815,1.2,2.944,2.944,0,0,1-2.112-.566c-.576-.368-1.069-.772-1.575-1.062a3.431,3.431,0,0,0-2.932-.256,3.884,3.884,0,0,0-1.706,1.176c-.315.39-.428.655-.472.636a1.514,1.514,0,0,1,.309-.755A3.869,3.869,0,0,1,37.4,74.453c.558.306,1.066.71,1.61,1.048a2.485,2.485,0,0,0,1.75.486,2.881,2.881,0,0,0,1.528-1.034,11.533,11.533,0,0,1,1.351-1.4,4.8,4.8,0,0,1,3.165-.985,4.58,4.58,0,0,1,2.143.611c.451.278.64.5.624.524" fill="#fafafa"/>
            <path id="Trazado_625403" data-name="Trazado 625403" d="M60.969,88.632a5.947,5.947,0,0,0-2.382-1.612,4.556,4.556,0,0,0-3.026.026,12.084,12.084,0,0,0-1.643.889,3.312,3.312,0,0,1-2.1.561,2.946,2.946,0,0,1-1.821-1.211c-.429-.533-.766-1.073-1.153-1.51a3.433,3.433,0,0,0-2.7-1.179,3.884,3.884,0,0,0-1.991.569c-.422.269-.616.483-.651.452-.02-.014.122-.278.534-.617a3.871,3.871,0,0,1,5.163.455c.431.468.782,1.012,1.191,1.507a2.479,2.479,0,0,0,1.5,1.019,2.867,2.867,0,0,0,1.778-.491A11.686,11.686,0,0,1,55.4,86.6a4.8,4.8,0,0,1,3.315.078,4.566,4.566,0,0,1,1.834,1.263,1.688,1.688,0,0,1,.424.7" fill="#fafafa"/>
            <path id="Trazado_625404" data-name="Trazado 625404" d="M86.276,66.771a5.956,5.956,0,0,0-2.872-.163,4.562,4.562,0,0,0-2.584,1.575,12.016,12.016,0,0,0-.954,1.606,3.313,3.313,0,0,1-1.519,1.561,2.951,2.951,0,0,1-2.185-.106c-.641-.238-1.207-.528-1.763-.705a3.436,3.436,0,0,0-2.922.371,3.885,3.885,0,0,0-1.417,1.51,6.711,6.711,0,0,1-.326.722,1.5,1.5,0,0,1,.141-.8,3.87,3.87,0,0,1,4.666-2.257c.61.181,1.191.468,1.795.683a2.48,2.48,0,0,0,1.812.1,2.873,2.873,0,0,0,1.275-1.333,11.491,11.491,0,0,1,1.025-1.655,4.8,4.8,0,0,1,2.884-1.633,4.571,4.571,0,0,1,2.224.144,1.7,1.7,0,0,1,.72.38" fill="#fafafa"/>
            <path id="Trazado_625405" data-name="Trazado 625405" d="M74.6,83.179a5.112,5.112,0,0,0-1.8-1.287,3.489,3.489,0,0,0-2.3-.071,9.3,9.3,0,0,0-1.287.628,2.611,2.611,0,0,1-1.679.365,2.328,2.328,0,0,1-1.4-1.02c-.314-.43-.554-.858-.832-1.2a2.61,2.61,0,0,0-2-1,3.627,3.627,0,0,0-2.071.653c-.021-.017.091-.222.42-.477a2.882,2.882,0,0,1,1.654-.544,2.935,2.935,0,0,1,2.365,1.06c.32.379.574.812.869,1.2a1.864,1.864,0,0,0,1.087.814c.92.161,1.764-.666,2.723-.94a3.725,3.725,0,0,1,2.584.188c1.39.64,1.71,1.639,1.657,1.628" fill="#fafafa"/>
            <path id="Trazado_625406" data-name="Trazado 625406" d="M48.843,97a5.1,5.1,0,0,0-1.8-1.287,3.489,3.489,0,0,0-2.3-.071,9.3,9.3,0,0,0-1.287.628,2.61,2.61,0,0,1-1.679.365,2.328,2.328,0,0,1-1.4-1.02c-.314-.43-.553-.858-.831-1.2a2.613,2.613,0,0,0-2-1,3.627,3.627,0,0,0-2.071.653c-.021-.017.091-.222.42-.477a2.882,2.882,0,0,1,1.654-.544,2.935,2.935,0,0,1,2.365,1.06c.32.379.574.812.869,1.2a1.862,1.862,0,0,0,1.087.815c.92.161,1.764-.666,2.723-.94a3.725,3.725,0,0,1,2.584.188c1.39.64,1.71,1.639,1.657,1.628" fill="#fafafa"/>
            <path id="Trazado_625407" data-name="Trazado 625407" d="M72.92,97.311a5.115,5.115,0,0,0-2.116-.636,3.487,3.487,0,0,0-2.2.676,9.361,9.361,0,0,0-1.015,1.011,2.6,2.6,0,0,1-1.471.889,2.325,2.325,0,0,1-1.652-.513c-.435-.305-.8-.632-1.175-.87a2.613,2.613,0,0,0-2.212-.3,3.624,3.624,0,0,0-1.748,1.288c-.025-.009.015-.239.243-.587a2.88,2.88,0,0,1,1.389-1.051,2.935,2.935,0,0,1,2.58.238c.427.256.805.583,1.212.857a1.861,1.861,0,0,0,1.292.418c.922-.145,1.452-1.2,2.272-1.77a3.73,3.73,0,0,1,2.507-.658,2.7,2.7,0,0,1,2.094,1" fill="#fafafa"/>
            <path id="Trazado_625408" data-name="Trazado 625408" d="M64.966,108.293a5.107,5.107,0,0,0-2.115-.636,3.492,3.492,0,0,0-2.2.676,9.543,9.543,0,0,0-1.015,1.011,2.6,2.6,0,0,1-1.47.889,2.323,2.323,0,0,1-1.652-.513c-.436-.305-.8-.632-1.176-.87a2.613,2.613,0,0,0-2.212-.3,3.631,3.631,0,0,0-1.748,1.288c-.026-.009.015-.239.243-.587a2.885,2.885,0,0,1,1.389-1.051,2.935,2.935,0,0,1,2.58.238c.427.256.806.583,1.212.857a1.862,1.862,0,0,0,1.292.418c.923-.145,1.453-1.2,2.273-1.77a3.729,3.729,0,0,1,2.506-.658,2.7,2.7,0,0,1,2.094,1" fill="#fafafa"/>
            <path id="Trazado_625409" data-name="Trazado 625409" d="M48.172,135.554a5.115,5.115,0,0,0-1.814-1.261,3.494,3.494,0,0,0-2.3-.039,9.424,9.424,0,0,0-1.278.646,2.6,2.6,0,0,1-1.674.389,2.328,2.328,0,0,1-1.411-1c-.32-.426-.565-.85-.848-1.192a2.614,2.614,0,0,0-2.011-.968,3.641,3.641,0,0,0-2.062.683c-.021-.017.089-.223.414-.483a2.881,2.881,0,0,1,1.646-.568,2.937,2.937,0,0,1,2.38,1.027c.325.375.585.8.886,1.19a1.864,1.864,0,0,0,1.1.8c.922.148,1.754-.691,2.71-.979a3.725,3.725,0,0,1,2.586.152c1.4.62,1.733,1.614,1.68,1.6" fill="#fafafa"/>
            <path id="Trazado_625410" data-name="Trazado 625410" d="M67.824,141.352a5.1,5.1,0,0,0-2.106-.666,3.491,3.491,0,0,0-2.21.647,9.444,9.444,0,0,0-1.029,1A2.606,2.606,0,0,1,61,143.2a2.332,2.332,0,0,1-1.644-.536c-.432-.311-.792-.643-1.164-.886a2.609,2.609,0,0,0-2.207-.327,3.631,3.631,0,0,0-1.766,1.264c-.026-.01.018-.239.251-.584a2.885,2.885,0,0,1,1.4-1.031,2.934,2.934,0,0,1,2.577.273c.423.262.8.594,1.2.874a1.863,1.863,0,0,0,1.286.436c.924-.132,1.47-1.18,2.3-1.739a3.732,3.732,0,0,1,2.515-.623,2.7,2.7,0,0,1,2.08,1.033" fill="#fafafa"/>
            <path id="Trazado_625411" data-name="Trazado 625411" d="M3.063,58.654c.607.715,22.593,30.114,22.593,30.114l-3.095,1.754L0,61.5Z" fill="#263238"/>
            <path id="Trazado_625412" data-name="Trazado 625412" d="M88.88,79.629s-20.623,35.562-22.017,36.217c-2.745,1.288-34.386-26.056-37.4-28.673-.414-.555-1.273-1.728-2.958-4.06,0,0-2.5-11.424-5.161-10.546s1.46,5.805-.276,10.146-9.681-6.013-10-6.942L9.015,73.093s-2.149,6.093-2,8.637c.466,8.15,8.176,17.844,8.176,17.844s31.335,39.264,55.055,40.6c6.833.383,19.882-19.286,28-33.822,4.9-8.779,2.626-17.7-5.5-23.62Z" fill="#ffbe9d"/>
            <path id="Trazado_625413" data-name="Trazado 625413" d="M10.9,83.179A12.527,12.527,0,0,1,9.141,80.3a12.561,12.561,0,0,1-1.218-3.147c.084-.032.675,1.35,1.5,3.008s1.558,2.969,1.482,3.016" fill="#eb996e"/>
            <path id="Trazado_625414" data-name="Trazado 625414" d="M87.91,69.736c-.815.489-19.991,36.089-19.991,36.089L92.6,125.16a285.773,285.773,0,0,0,9.809-28.678c.919-3.49.445-12.818-.853-16.415-1.843-5.113-4.624-3.84-8.788-6.835Z" fill="#2b95f9"/>
            <g id="Grupo_877772" data-name="Grupo 877772" opacity="0.7">
              <g id="Grupo_877771" data-name="Grupo 877771">
                <g id="Grupo_877770" data-name="Grupo 877770" clip-path="url(#clip-path-6)">
                  <path id="Trazado_625415" data-name="Trazado 625415" d="M96.019,69.736c-.015.022-.242-.137-.7-.369a4.156,4.156,0,0,0-2.17-.455,5.924,5.924,0,0,0-3.22,1.344,16.038,16.038,0,0,0-3.213,3.461c-1.043,1.422-1.9,3.156-2.957,4.964-1.035,1.816-2.138,3.753-3.3,5.79-2.334,4.079-4.9,8.554-7.586,13.253l-4.732,8.226-.064-.324,16.7,13.2,4.846,3.89,1.284,1.06a2.72,2.72,0,0,1,.426.391,2.848,2.848,0,0,1-.481-.32c-.34-.254-.783-.583-1.337-.994l-4.937-3.773L67.763,106.024l-.172-.135.109-.19,4.717-8.231,7.62-13.228,3.338-5.766A56.8,56.8,0,0,1,86.413,73.5a16,16,0,0,1,3.338-3.479,6.055,6.055,0,0,1,3.386-1.314,4.093,4.093,0,0,1,2.227.565,3.7,3.7,0,0,1,.5.33c.108.08.16.125.155.132"/>
                </g>
              </g>
            </g>
            <path id="Trazado_625416" data-name="Trazado 625416" d="M88.648,103.116a5.113,5.113,0,0,0-1.8-1.287,3.489,3.489,0,0,0-2.3-.071,9.3,9.3,0,0,0-1.287.628,2.611,2.611,0,0,1-1.679.365,2.328,2.328,0,0,1-1.4-1.02c-.314-.431-.553-.858-.832-1.2a2.61,2.61,0,0,0-2-1,3.627,3.627,0,0,0-2.071.653c-.021-.017.091-.222.42-.477a2.882,2.882,0,0,1,1.654-.544,2.935,2.935,0,0,1,2.365,1.06c.32.379.574.812.869,1.2a1.862,1.862,0,0,0,1.087.815c.92.161,1.764-.666,2.723-.94a3.725,3.725,0,0,1,2.584.188c1.39.64,1.71,1.639,1.657,1.628" fill="#fafafa"/>
            <path id="Trazado_625417" data-name="Trazado 625417" d="M99.931,98.512a5.094,5.094,0,0,0-1.382-1.723,3.487,3.487,0,0,0-2.2-.69,9.41,9.41,0,0,0-1.41.257,2.6,2.6,0,0,1-1.715-.1,2.33,2.33,0,0,1-1.07-1.359c-.186-.5-.3-.975-.476-1.383a2.609,2.609,0,0,0-1.654-1.5,3.646,3.646,0,0,0-2.17.07c-.016-.022.148-.188.533-.345a2.875,2.875,0,0,1,1.74-.079,2.937,2.937,0,0,1,1.991,1.659c.206.452.333.937.512,1.393a1.864,1.864,0,0,0,.828,1.077c.842.4,1.877-.166,2.875-.171a3.731,3.731,0,0,1,2.438.879,2.694,2.694,0,0,1,1.156,2.014" fill="#fafafa"/>
            <path id="Trazado_625418" data-name="Trazado 625418" d="M100.51,83.8a5.094,5.094,0,0,0-1.382-1.723,3.487,3.487,0,0,0-2.2-.69,9.411,9.411,0,0,0-1.41.257,2.6,2.6,0,0,1-1.715-.1,2.33,2.33,0,0,1-1.07-1.359c-.186-.5-.3-.975-.476-1.383a2.609,2.609,0,0,0-1.654-1.5,3.646,3.646,0,0,0-2.17.07c-.016-.022.148-.188.533-.345a2.873,2.873,0,0,1,1.739-.079A2.936,2.936,0,0,1,92.7,78.6c.206.452.333.937.512,1.393a1.864,1.864,0,0,0,.828,1.077c.842.4,1.877-.166,2.875-.171a3.731,3.731,0,0,1,2.438.879A2.694,2.694,0,0,1,100.51,83.8" fill="#fafafa"/>
            <path id="Trazado_625419" data-name="Trazado 625419" d="M95.049,117.627a5.094,5.094,0,0,0-1.382-1.723,3.487,3.487,0,0,0-2.2-.69,9.411,9.411,0,0,0-1.41.257,2.6,2.6,0,0,1-1.715-.1,2.33,2.33,0,0,1-1.07-1.359c-.186-.5-.3-.975-.476-1.384a2.61,2.61,0,0,0-1.654-1.5,3.646,3.646,0,0,0-2.17.07c-.016-.022.148-.188.533-.345a2.873,2.873,0,0,1,1.739-.079,2.936,2.936,0,0,1,1.992,1.659c.206.452.333.936.512,1.393a1.864,1.864,0,0,0,.828,1.077c.842.4,1.877-.166,2.875-.171a3.731,3.731,0,0,1,2.438.879,2.694,2.694,0,0,1,1.156,2.014" fill="#fafafa"/>
          </g>
        </g>
      </g>
    </g>
    <g id="Grupo_877781" data-name="Grupo 877781" transform="translate(1000 5051.256)">
      <g id="Grupo_877763" data-name="Grupo 877763" clip-path="url(#clip-path-7)">
        <g id="Grupo_877754" data-name="Grupo 877754">
          <g id="Grupo_877753" data-name="Grupo 877753" clip-path="url(#clip-path-7)">
            <path id="Trazado_625319" data-name="Trazado 625319" d="M290.857,60.772H10.946C4.9,60.772,0,65.146,0,70.542v77.5c0,5.4,4.9,9.771,10.946,9.771H31.8c1.679,8.092,3.644,18.3,3.644,18.3l18.875-18.3H290.857c6.045,0,10.947-4.375,10.947-9.771v-77.5c0-5.4-4.9-9.77-10.947-9.77" transform="translate(0 28.566)" fill="#eb6f2d"/>
            <path id="Trazado_625320" data-name="Trazado 625320" d="M170.2,98.768c0,.179-33.315.323-74.4.323s-74.409-.144-74.409-.323S54.7,98.445,95.8,98.445s74.4.144,74.4.323" transform="translate(5.169 31.73)" fill="#f5f5f5"/>
            <path id="Trazado_625321" data-name="Trazado 625321" d="M170.2,88.019c0,.179-33.315.323-74.4.323s-74.409-.144-74.409-.323S54.7,87.7,95.8,87.7s74.4.144,74.4.323" transform="translate(5.169 29.133)" fill="#f5f5f5"/>
            <path id="Trazado_625322" data-name="Trazado 625322" d="M170.2,109.4c0,.179-33.315.324-74.4.324s-74.409-.145-74.409-.324,33.308-.323,74.409-.323,74.4.145,74.4.323" transform="translate(5.169 34.298)" fill="#f5f5f5"/>
            <path id="Trazado_625323" data-name="Trazado 625323" d="M118.866,120.412c0,.179-21.822.323-48.734.323s-48.739-.144-48.739-.323,21.817-.323,48.739-.323,48.734.144,48.734.323" transform="translate(5.169 36.959)" fill="#f5f5f5"/>
          </g>
        </g>
        <g id="Grupo_877762" data-name="Grupo 877762">
          <g id="Grupo_877761" data-name="Grupo 877761" clip-path="url(#clip-path-7)">
            <path id="Trazado_625324" data-name="Trazado 625324" d="M178.791,38.628c.166-2.282-1.869-5.43-3.756-7.239a7.429,7.429,0,0,1-2.071-7.91c.76-2.818,2.548-2.609,3.254-4.265.523-1.228.3-2.626.41-3.956a8.244,8.244,0,0,1,9.83-7,11.417,11.417,0,0,1,21.059-2.193,8.783,8.783,0,0,1,12.808,7.128,6.393,6.393,0,0,1,8.313,1.255,7.88,7.88,0,0,1,.6,8.681,10.33,10.33,0,0,1-7.462,4.914,15.165,15.165,0,0,1-8.959-1.628,28.987,28.987,0,0,1-7.35-5.552" transform="translate(41.702 0)" fill="#263238"/>
            <path id="Trazado_625325" data-name="Trazado 625325" d="M258.146,113.963c0,28.989-24.065,52.489-53.749,52.489s-53.749-23.5-53.749-52.489S174.713,61.474,204.4,61.474s53.749,23.5,53.749,52.489" transform="translate(36.396 14.852)" fill="#e0e0e0"/>
            <path id="Trazado_625326" data-name="Trazado 625326" d="M242.711,106.753,236.762,91.5l-21.323,13.4,19,29.3s7.728-10.038,8.272-27.438" transform="translate(52.05 22.106)" fill="#eb996e"/>
            <path id="Trazado_625327" data-name="Trazado 625327" d="M192.787,92.921h0A14.3,14.3,0,0,0,207.15,79.4c.315-6.317.579-12.4.579-12.4s11.729-.85,12.812-12.317,1.23-37.984,1.23-37.984a40.7,40.7,0,0,0-40.857,1.774l-1.116.716-1.355,59.341a14.3,14.3,0,0,0,14.344,14.394" transform="translate(43.112 2.909)" fill="#ffbe9d"/>
            <path id="Trazado_625328" data-name="Trazado 625328" d="M195.849,30.013a1.67,1.67,0,0,1,1.07,2.113,1.69,1.69,0,0,1-2.132,1.062,1.671,1.671,0,0,1-1.071-2.114,1.691,1.691,0,0,1,2.133-1.06" transform="translate(46.781 7.23)" fill="#263238"/>
            <path id="Trazado_625329" data-name="Trazado 625329" d="M199.146,30.829c-.194.189-1.28-.749-2.877-.85-1.6-.125-2.806.647-2.97.433-.082-.1.122-.444.649-.8a3.975,3.975,0,0,1,4.667.334c.473.422.623.8.53.879" transform="translate(46.697 7.01)" fill="#263238"/>
            <path id="Trazado_625330" data-name="Trazado 625330" d="M209.947,30.013a1.669,1.669,0,0,1,1.07,2.113,1.69,1.69,0,0,1-2.132,1.062,1.671,1.671,0,0,1-1.072-2.114,1.692,1.692,0,0,1,2.133-1.06" transform="translate(50.187 7.23)" fill="#263238"/>
            <path id="Trazado_625331" data-name="Trazado 625331" d="M213.418,30.857c-.194.189-1.28-.747-2.877-.85-1.6-.125-2.806.647-2.97.433-.082-.1.12-.444.649-.8a3.975,3.975,0,0,1,4.667.334c.473.422.623.8.53.879" transform="translate(50.145 7.016)" fill="#263238"/>
            <path id="Trazado_625332" data-name="Trazado 625332" d="M202.573,43.179a7.827,7.827,0,0,1,2.624-.334c.421-.011.756-.078.8-.3a2.239,2.239,0,0,0-.2-1.208l-1-3.314c-1.368-4.717-2.281-8.6-2.04-8.665s1.547,3.7,2.915,8.416c.32,1.151.627,2.249.93,3.334a2.62,2.62,0,0,1,.087,1.737,1.093,1.093,0,0,1-.772.6,2.687,2.687,0,0,1-.72.035,7.826,7.826,0,0,1-2.627-.3" transform="translate(48.942 7.093)" fill="#263238"/>
            <path id="Trazado_625333" data-name="Trazado 625333" d="M204.926,57.234a27.185,27.185,0,0,1-14.75-5.47s2.893,8.548,14.534,8.447Z" transform="translate(45.946 12.506)" fill="#eb996e"/>
            <path id="Trazado_625334" data-name="Trazado 625334" d="M180.834,31.706a1.742,1.742,0,0,0-1.639-1.772c-2.163-.1-5.719.68-6.166,6.592-.639,8.444,7.606,6.495,7.64,6.254.025-.189.124-7.789.165-11.074" transform="translate(41.795 7.23)" fill="#ffbe9d"/>
            <path id="Trazado_625335" data-name="Trazado 625335" d="M178.409,38.9c-.036-.03-.156.092-.416.187a1.5,1.5,0,0,1-1.111-.061c-.875-.395-1.526-1.867-1.451-3.392a4.82,4.82,0,0,1,.575-2.076,1.713,1.713,0,0,1,1.2-1.045.76.76,0,0,1,.846.469c.1.245.029.408.073.426.022.024.194-.127.151-.481a.944.944,0,0,0-.3-.555,1.127,1.127,0,0,0-.8-.276,2.087,2.087,0,0,0-1.65,1.193,4.961,4.961,0,0,0-.692,2.316c-.075,1.7.684,3.362,1.888,3.808a1.606,1.606,0,0,0,1.374-.122c.279-.189.339-.375.31-.392" transform="translate(42.239 7.754)" fill="#eb996e"/>
            <path id="Trazado_625336" data-name="Trazado 625336" d="M191.933,27.3c.421.541,1.89.288,3.8.207,1.9-.153,3.393-.081,3.74-.669.395-.613-1.448-2.02-3.9-1.819-2.461.1-4.1,1.721-3.634,2.281" transform="translate(46.351 6.04)" fill="#263238"/>
            <path id="Trazado_625337" data-name="Trazado 625337" d="M206.9,26.754c.23.738,1.629.959,3.181.949,1.552-.031,2.945-.289,3.157-1.032.217-.723-1.191-1.759-3.191-1.731s-3.383,1.1-3.147,1.814" transform="translate(49.98 6.025)" fill="#263238"/>
            <path id="Trazado_625338" data-name="Trazado 625338" d="M223.417,20.741s-6.958,3.368-16.013-1.151c-5.942-2.966-12.869-4.415-14.4-3.221s-1.85,7.318-7.736,9.1c0,0,.4,11.682-4.254,11.265s-1.746-18.509-1.746-18.509l11.394-5.565L203.1,10.317l11.716,1.651,9.065,2.482Z" transform="translate(43.095 2.493)" fill="#263238"/>
            <path id="Trazado_625339" data-name="Trazado 625339" d="M151.846,75.337c12.175-12.522,33.608-11.156,33.608-11.156L203.217,76.9l10.074-11.728A65.334,65.334,0,0,1,233.8,71.516l.683.212-.009.142C242.264,76.1,253.3,86.25,263.81,96.1l-12.579,11.674L237.309,120.13a.364.364,0,0,1,.024.247c-.145.749,1.936,17.749,4.066,30.669-12.679,12.1-28.841,17.279-46.785,14.134-5.7-1-8.452-2.386-13.725-3.769a19.1,19.1,0,0,1-14.143-16.831c-.95-10.828-1.672-24.236-1.672-24.236" transform="translate(36.686 15.496)" fill="#3d672f"/>
            <path id="Trazado_625340" data-name="Trazado 625340" d="M210.307,66.729a13.491,13.491,0,0,1,.765,2c.456,1.3,1.075,3.192,1.808,5.541,1.466,4.7,3.334,11.238,5.1,18.538s3.085,13.977,3.925,18.826c.42,2.424.733,4.39.92,5.754a13.716,13.716,0,0,1,.231,2.127,13.429,13.429,0,0,1-.479-2.085c-.286-1.455-.664-3.381-1.121-5.713-.954-4.821-2.345-11.467-4.1-18.758s-3.556-13.834-4.909-18.559l-1.609-5.6a13.544,13.544,0,0,1-.525-2.073" transform="translate(50.809 16.122)" fill="#263238"/>
            <path id="Trazado_625341" data-name="Trazado 625341" d="M219.519,106.608c-.113-.138,5.2-4.652,11.862-10.081s12.158-9.719,12.271-9.581-5.2,4.652-11.863,10.082-12.156,9.718-12.269,9.58" transform="translate(53.035 21.005)" fill="#263238"/>
            <g id="Grupo_877757" data-name="Grupo 877757" transform="translate(193.706 108.02)" opacity="0.2">
              <g id="Grupo_877756" data-name="Grupo 877756">
                <g id="Grupo_877755" data-name="Grupo 877755" clip-path="url(#clip-path-10)">
                  <path id="Trazado_625342" data-name="Trazado 625342" d="M166.912,87l-10.9,35.85,4.056,2.109,4-10.139s4.108-21.3,2.845-27.821" transform="translate(-156.013 -87)"/>
                </g>
              </g>
            </g>
            <g id="Grupo_877760" data-name="Grupo 877760" transform="translate(244.437 80.48)" opacity="0.2">
              <g id="Grupo_877759" data-name="Grupo 877759">
                <g id="Grupo_877758" data-name="Grupo 877758" clip-path="url(#clip-path-11)">
                  <path id="Trazado_625343" data-name="Trazado 625343" d="M212.371,67.212c5.874,3.1-8.849,10.55-15.5,10.349l4.83-12.741s8.7,1.353,10.669,2.393" transform="translate(-196.873 -64.82)"/>
                </g>
              </g>
            </g>
            <path id="Trazado_625344" data-name="Trazado 625344" d="M177.5,66.667V57.174s18.542,4.771,19.215,15.865c0,0,2.359-12.263,11.912-12.851l1.35,17.25-11.117,9.673H187.595l-8.926-7.7L177.5,67.433" transform="translate(42.885 13.813)" fill="#3d672f"/>
            <path id="Trazado_625345" data-name="Trazado 625345" d="M197.175,122.842a12.391,12.391,0,0,1-.032-2.042c.027-1.311.051-3.21.057-5.554.016-4.688-.13-11.166-.718-18.292s-1.521-13.542-2.311-18.163c-.4-2.224-.724-4.066-.973-5.468a12.458,12.458,0,0,1-.305-2.019,12.049,12.049,0,0,1,.551,1.967c.32,1.275.726,3.133,1.177,5.438A170.485,170.485,0,0,1,197.127,96.9a170.879,170.879,0,0,1,.531,18.352c-.066,2.349-.159,4.249-.264,5.559a12.253,12.253,0,0,1-.219,2.031" transform="translate(46.601 17.227)" fill="#263238"/>
            <path id="Trazado_625346" data-name="Trazado 625346" d="M196,68.348a2.243,2.243,0,0,0-1.1.1c-.709.228-1.342,1.111-1.861,2.37a53.7,53.7,0,0,0-3.527,10.258l-.1.425-.374-.226c-1.109-.669-2.246-1.394-3.388-2.169a67.73,67.73,0,0,1-6.013-4.568,7.576,7.576,0,0,1-2.046-2.681A8.425,8.425,0,0,1,176.964,69a16.594,16.594,0,0,1,.412-4.152,6.145,6.145,0,0,1,.406-1.469,7.691,7.691,0,0,1-.158,1.511,19.537,19.537,0,0,0-.2,4.08,8.212,8.212,0,0,0,.658,2.674,7.132,7.132,0,0,0,1.951,2.451c1.753,1.466,3.789,2.99,5.982,4.481,1.134.769,2.258,1.491,3.354,2.163l-.472.2a46.836,46.836,0,0,1,3.774-10.293,7.765,7.765,0,0,1,.975-1.6,2.481,2.481,0,0,1,1.183-.8c.788-.22,1.2.1,1.172.107" transform="translate(42.752 15.311)" fill="#263238"/>
            <path id="Trazado_625347" data-name="Trazado 625347" d="M204.615,59.6a6.711,6.711,0,0,1,.174,1.482c.081,1.089.18,2.44.3,4.04.139,1.7.345,3.725.694,5.952A9.93,9.93,0,0,1,206,74.72a6.261,6.261,0,0,1-2.439,3.115,27.324,27.324,0,0,0-4.08,3.1l-.494.554-.05-.739A22.209,22.209,0,0,0,196.2,71.5c-1.178-2.114-2.15-3.2-2.073-3.264a3.518,3.518,0,0,1,.731.733,18.115,18.115,0,0,1,1.682,2.334,21.181,21.181,0,0,1,3.02,9.4l-.543-.185a26.068,26.068,0,0,1,4.156-3.2,5.752,5.752,0,0,0,2.215-2.758,9.812,9.812,0,0,0-.2-3.4c-.319-2.251-.479-4.295-.56-6.009s-.1-3.1-.092-4.061a6.537,6.537,0,0,1,.077-1.491" transform="translate(46.9 14.4)" fill="#263238"/>
            <path id="Trazado_625348" data-name="Trazado 625348" d="M256.1,61.52c-.754.888-28.051,37.39-28.051,37.39l3.843,2.178L259.9,65.05Z" transform="translate(55.097 14.863)" fill="#263238"/>
            <path id="Trazado_625349" data-name="Trazado 625349" d="M165.16,87.029s28.717,41.338,30.448,42.151c3.408,1.6,42.7-32.352,46.442-35.6.517-.689,1.582-2.145,3.675-5.041,0,0,3.1-14.184,6.407-13.094s-1.811,7.207.343,12.6,12.02-7.464,12.415-8.618l2.544-3.325s2.668,7.565,2.488,10.724c-.58,10.119-10.154,22.154-10.154,22.154s-43,53.262-72.447,54.915c-8.483.476-23.557-23.593-33.635-41.641a24.7,24.7,0,0,1,7.037-31.985Z" transform="translate(36.375 18.213)" fill="#ffbe9d"/>
            <path id="Trazado_625350" data-name="Trazado 625350" d="M242.8,87.5c-.1-.058.824-1.684,1.84-3.745s1.757-3.774,1.861-3.735a15.574,15.574,0,0,1-1.514,3.907A15.525,15.525,0,0,1,242.8,87.5" transform="translate(58.66 19.333)" fill="#eb996e"/>
            <path id="Trazado_625351" data-name="Trazado 625351" d="M161.591,68.515s-30.824,10.958-7.907,62.793l35.583-21.476-5.062-12.12Z" transform="translate(35.083 16.553)" fill="#3d672f"/>
            <path id="Trazado_625352" data-name="Trazado 625352" d="M157.58,69.246a10.7,10.7,0,0,1,3.711.312,15.121,15.121,0,0,1,4.043,1.706,21.927,21.927,0,0,1,4.491,3.685A53.869,53.869,0,0,1,178.2,87.458c2.607,5.04,5.041,10.78,7.535,16.811.747,1.807,1.485,3.587,2.182,5.273l.112.268-.253.138c-10.3,5.612-19.261,10.868-25.6,14.8-3.171,1.962-5.7,3.576-7.428,4.7l-2,1.283a4.257,4.257,0,0,1-.715.413,4.346,4.346,0,0,1,.647-.514c.438-.318,1.084-.791,1.936-1.377,1.694-1.182,4.185-2.853,7.329-4.867,6.282-4.034,15.221-9.364,25.517-15l-.143.4-2.186-5.273c-2.494-6.029-4.9-11.76-7.468-16.786a54.834,54.834,0,0,0-8.175-12.467,22.038,22.038,0,0,0-4.348-3.691,15.446,15.446,0,0,0-3.917-1.771,22.242,22.242,0,0,0-3.647-.555" transform="translate(36.732 16.719)" fill="#263238"/>
            <path id="Trazado_625353" data-name="Trazado 625353" d="M214.753,7.342a1.831,1.831,0,0,1,.153.541A7.024,7.024,0,0,1,215,9.492a8.228,8.228,0,0,1-10.647,7.469,7.323,7.323,0,0,1-4.248-3.079,4.334,4.334,0,0,1-.636-2.8,3.626,3.626,0,0,1,1.523-2.561,3.146,3.146,0,0,1,2.981-.192,3.79,3.79,0,0,1,2.037,2.049,5.434,5.434,0,0,1-.815,5.16A6.473,6.473,0,0,1,197.05,17.3a13.894,13.894,0,0,0-3.067-1.176,3.846,3.846,0,0,0-2.373.25,12.852,12.852,0,0,0-1.766,1.163c-.016-.016.108-.161.363-.427a3.079,3.079,0,0,1,.507-.457,3.755,3.755,0,0,1,.79-.507,4.032,4.032,0,0,1,2.54-.379,13.506,13.506,0,0,1,3.188,1.114,9.106,9.106,0,0,0,1.792.592,5.667,5.667,0,0,0,2-.037,5.857,5.857,0,0,0,3.688-2.258,4.855,4.855,0,0,0,.71-4.564c-.555-1.5-2.642-2.513-4.079-1.559a3,3,0,0,0-1.242,2.107,3.715,3.715,0,0,0,.543,2.394,6.775,6.775,0,0,0,3.871,2.832,7.943,7.943,0,0,0,7.8-1.845,8.436,8.436,0,0,0,2.425-5.074,16.967,16.967,0,0,0,.009-2.129" transform="translate(45.866 1.774)" fill="#455a64"/>
            <path id="Trazado_625354" data-name="Trazado 625354" d="M205.683,45.647c.014.078-.381.242-1.064.271a5.525,5.525,0,0,1-4.586-2.311c-.382-.566-.485-.981-.415-1.017.163-.1.99,1.316,2.714,2.16,1.7.884,3.334.706,3.351.9" transform="translate(48.223 10.289)" fill="#263238"/>
            <path id="Trazado_625355" data-name="Trazado 625355" d="M179.064,41.04c.057-.053.406.546-.045,1.4a2.074,2.074,0,0,1-1.266,1,2.147,2.147,0,0,1-1.927-.505,2.317,2.317,0,0,1-.817-1.8,2.49,2.49,0,0,1,.567-1.486c.6-.7,1.2-.766,1.212-.7.046.093-.438.313-.842.962a1.931,1.931,0,0,0,.3,2.534,1.633,1.633,0,0,0,1.367.413,1.744,1.744,0,0,0,1.016-.668c.451-.6.329-1.144.431-1.157" transform="translate(42.282 9.406)" fill="#263238"/>
            <path id="Trazado_625356" data-name="Trazado 625356" d="M213.235,10.71a4.1,4.1,0,0,1,.6,2.281,7.583,7.583,0,0,1-6.9,7.96,4.1,4.1,0,0,1-2.342-.268c.015-.111.9.053,2.281-.185a8.025,8.025,0,0,0,4.632-2.556,8.025,8.025,0,0,0,1.874-4.947c.04-1.4-.247-2.254-.14-2.285" transform="translate(49.428 2.587)" fill="#455a64"/>
            <path id="Trazado_625357" data-name="Trazado 625357" d="M184.906,94.38c.079.16-8.108,4.369-18.284,9.4s-18.494,8.983-18.572,8.823,8.105-4.369,18.285-9.4,18.491-8.982,18.571-8.822" transform="translate(35.769 22.801)" fill="#e0e0e0"/>
            <path id="Trazado_625358" data-name="Trazado 625358" d="M178.119,83.039c.084.158-7.2,4.233-16.276,9.1s-16.5,8.69-16.583,8.534,7.2-4.233,16.277-9.1,16.5-8.69,16.582-8.532" transform="translate(35.095 20.061)" fill="#e0e0e0"/>
            <path id="Trazado_625359" data-name="Trazado 625359" d="M170.815,73.867a29.275,29.275,0,0,1-3.645,2.158L158.256,81l-8.869,5.057a29.13,29.13,0,0,1-3.732,2,25.828,25.828,0,0,1,3.5-2.4c2.211-1.4,5.308-3.267,8.787-5.228s6.676-3.645,9.018-4.814a25.749,25.749,0,0,1,3.859-1.753" transform="translate(35.19 17.845)" fill="#e0e0e0"/>
            <path id="Trazado_625360" data-name="Trazado 625360" d="M190.385,73.709a5.848,5.848,0,0,1-2.4-.646,18.377,18.377,0,0,1-5.021-3.268,34.518,34.518,0,0,1-4.05-4.384,8.962,8.962,0,0,1-1.4-2.035,9.834,9.834,0,0,1,1.749,1.738,58.5,58.5,0,0,0,4.131,4.2,22.974,22.974,0,0,0,4.784,3.336c1.333.683,2.232.962,2.205,1.06" transform="translate(42.886 15.311)" fill="#e0e0e0"/>
            <path id="Trazado_625361" data-name="Trazado 625361" d="M203.768,66.282c.158.046-.595,2.066-2.579,3.721-1.969,1.675-4.089,2.071-4.107,1.908-.062-.186,1.849-.829,3.691-2.4,1.862-1.547,2.823-3.32,2.995-3.227" transform="translate(47.615 16.013)" fill="#e0e0e0"/>
            <path id="Trazado_625362" data-name="Trazado 625362" d="M241.884,81.333a2.882,2.882,0,0,1-.692.129l-2,.246c-1.736.192-4.253.435-7.368.677-6.227.5-14.843.983-24.368,1.33s-18.157.462-24.4.411c-3.124-.019-5.652-.081-7.4-.149l-2.009-.1a2.906,2.906,0,0,1-.7-.079,2.851,2.851,0,0,1,.7-.051l2.01-.019,7.391-.056c6.24-.066,14.862-.267,24.383-.6s18.13-.761,24.359-1.14l7.376-.472,2.008-.124a2.913,2.913,0,0,1,.7,0" transform="translate(41.785 19.646)" fill="#e0e0e0"/>
            <path id="Trazado_625363" data-name="Trazado 625363" d="M230.768,93.192a12.558,12.558,0,0,1-2.04.322c-1.319.164-3.229.37-5.595.582-4.729.436-11.277.886-18.517,1.181s-13.807.37-18.556.317c-2.375-.02-4.3-.072-5.623-.129a12.61,12.61,0,0,1-2.06-.156,12.711,12.711,0,0,1,2.062-.1l5.619-.076c4.743-.065,11.3-.215,18.531-.505s13.774-.672,18.507-.991l5.607-.377a12.509,12.509,0,0,1,2.064-.071" transform="translate(43.096 22.51)" fill="#e0e0e0"/>
            <path id="Trazado_625364" data-name="Trazado 625364" d="M208.151,107.822a24.7,24.7,0,0,1-4.115.58c-2.551.263-6.085.546-9.995.741s-7.455.263-10.02.255a24.7,24.7,0,0,1-4.152-.169,28.481,28.481,0,0,1,4.142-.288l10-.443,9.991-.551a28.174,28.174,0,0,1,4.151-.124" transform="translate(43.457 26.04)" fill="#e0e0e0"/>
            <path id="Trazado_625365" data-name="Trazado 625365" d="M183.042,73.164c0,.186-3.813.227-8.5.423s-8.488.461-8.507.277,3.767-.733,8.48-.923,8.534.052,8.527.222" transform="translate(40.114 17.605)" fill="#e0e0e0"/>
            <path id="Trazado_625366" data-name="Trazado 625366" d="M226.213,72.639c0,.179-4.94.3-11.033.282s-11.032-.186-11.032-.365,4.94-.3,11.034-.282,11.03.186,11.03.365" transform="translate(49.322 17.461)" fill="#e0e0e0"/>
            <path id="Trazado_625367" data-name="Trazado 625367" d="M229.673,133.419a5.023,5.023,0,0,1-1.131.649c-.745.386-1.848.893-3.229,1.471a70.612,70.612,0,0,1-22.744,5.242c-1.5.084-2.709.112-3.547.091a5.079,5.079,0,0,1-1.3-.088c0-.1,1.846-.175,4.814-.458a87.181,87.181,0,0,0,22.611-5.211c2.791-1.044,4.485-1.79,4.528-1.7" transform="translate(47.769 32.232)" fill="#e0e0e0"/>
          </g>
        </g>
      </g>
    </g>
    <rect id="Rectángulo_356457" data-name="Rectángulo 356457" width="505" height="188" transform="translate(810 5068)" fill="none"/>
  </g>
</svg>
