<svg xmlns="http://www.w3.org/2000/svg" width="100.556" height="95.152" viewBox="0 0 100.556 95.152">
  <g id="Grupo_877685" data-name="Grupo 877685" transform="translate(0 0)">
    <path id="Trazado_624964" data-name="Trazado 624964" d="M32.9,210.293,44.684,230.7l-17.008,9.82a11.784,11.784,0,0,1-11.784-20.41Zm0,0" transform="translate(-8.035 -168.992)" fill="#ffb338"/>
    <path id="Trazado_624965" data-name="Trazado 624965" d="M282.567,73.885a3.928,3.928,0,0,1-3.306,5.89l-2.209.434L277,79.96,251.72,36.168l-.165-.13,1.414-1.8a3.928,3.928,0,0,1,6.754.081c39.239,67.96-10.264-17.779,22.844,39.567Zm0,0" transform="translate(-202.15 -26)" fill="#ffb338"/>
    <path id="Trazado_624966" data-name="Trazado 624966" d="M121.011,352.926a5.892,5.892,0,0,1-10.205,5.892L100,340.107l10.205-5.892,10.8,18.711Zm0,0" transform="translate(-80.364 -268.575)" fill="#727997"/>
    <path id="Trazado_624967" data-name="Trazado 624967" d="M341.9,108.934l3.928,6.8-4.839,7.33-7.856-13.607Zm0,0" transform="translate(-267.709 -87.539)" fill="#f6f6f6"/>
    <path id="Trazado_624968" data-name="Trazado 624968" d="M176.592,95.034l.049.249-38.252,7.5L126.6,82.375l24.54-31.263.165.13Zm0,0" transform="translate(-101.74 -41.074)" fill="#f9d9a2"/>
    <path id="Trazado_624969" data-name="Trazado 624969" d="M124.91,293.24a1.964,1.964,0,1,0-2.683-.719A1.965,1.965,0,0,0,124.91,293.24Zm0,0" transform="translate(-98.01 -232.703)"/>
    <path id="Trazado_624970" data-name="Trazado 624970" d="M18.851,92.057l9.89,17.132a7.856,7.856,0,1,0,13.607-7.855L36.456,91.127l5.1-2.946a1.964,1.964,0,0,0,.719-2.683l-2.554-4.424L77.341,73.7a5.891,5.891,0,0,0,4.776-8.828L75.59,53.563l4.171-6.318a1.965,1.965,0,0,0,.062-2.064l-3.928-6.8a1.968,1.968,0,0,0-1.819-.978l-7.556.453L59.274,25.3a5.841,5.841,0,0,0-5.029-2.945H54.17a5.84,5.84,0,0,0-4.961,2.717L23.554,57.755,6.875,67.385A13.748,13.748,0,0,0,18.851,92.057Zm20.1,11.241a3.928,3.928,0,0,1-6.8,3.927l-9.82-17.011,6.8-3.928L38.947,103.3ZM34.492,87.724l-1.964-3.4,3.4-1.964,1.964,3.4ZM73.1,41.392l2.714,4.7-2.42,3.666-4.678-8.1ZM52.495,27.226a1.963,1.963,0,0,1,3.377.039L78.716,66.832a1.963,1.963,0,0,1-1.652,2.944,7.21,7.21,0,0,0-1.077.183L51.822,28.106c.507-.652.572-.715.673-.88Zm-3.287,4.21,22.7,39.323-34.264,6.72L27.229,59.434ZM5.244,84.2A9.813,9.813,0,0,1,8.838,70.787l15.308-8.838,9.82,17.008L18.658,87.8A9.832,9.832,0,0,1,5.244,84.2Zm0,0" transform="translate(0 -17.965)"/>
    <path id="Trazado_624971" data-name="Trazado 624971" d="M55.114,310.555a1.964,1.964,0,0,0-2.683-.719l-3.4,1.964a1.967,1.967,0,0,1-2.683-.719,1.964,1.964,0,0,0-3.4,1.964,5.9,5.9,0,0,0,8.048,2.157l3.4-1.964a1.964,1.964,0,0,0,.719-2.683Zm0,0" transform="translate(-34.299 -248.773)"/>
    <path id="Trazado_624972" data-name="Trazado 624972" d="M448.228,42.729l-10.944,6.09a1.964,1.964,0,1,0,1.91,3.432l10.943-6.09a1.964,1.964,0,0,0-1.909-3.432Zm0,0" transform="translate(-350.592 -34.138)"/>
    <path id="Trazado_624973" data-name="Trazado 624973" d="M450.125,138.721l-7.588-2.033a1.964,1.964,0,1,0-1.017,3.794l7.589,2.033a1.964,1.964,0,1,0,1.016-3.794Zm0,0" transform="translate(-353.636 -109.789)"/>
    <path id="Trazado_624974" data-name="Trazado 624974" d="M385.6,1.456,383.56,9.045a1.964,1.964,0,0,0,3.794,1.017l2.035-7.589A1.964,1.964,0,1,0,385.6,1.456Zm0,0" transform="translate(-308.175 0)"/>
  </g>
</svg>
