<svg xmlns="http://www.w3.org/2000/svg" width="103.035" height="94.238" viewBox="0 0 103.035 94.238">
  <g id="Grupo_878042" data-name="Grupo 878042" transform="translate(0 -21.856)">
    <path id="Trazado_626221" data-name="Trazado 626221" d="M93.514,59.348,77.808,47.924,53.125,29.971a3.281,3.281,0,0,0-3.86,0L8.875,59.348A3.281,3.281,0,0,0,7.524,62v55.272a3.281,3.281,0,0,0,3.281,3.281H91.584a3.281,3.281,0,0,0,3.281-3.281V62A3.28,3.28,0,0,0,93.514,59.348Z" transform="translate(-6.01 -5.981)" fill="#2b95f9"/>
    <path id="Trazado_626222" data-name="Trazado 626222" d="M11.558,117.273V63.211a3.28,3.28,0,0,1,1.351-2.653L53.3,31.181a3.272,3.272,0,0,1,.871-.45l-1.045-.76a3.281,3.281,0,0,0-3.86,0L8.875,59.348A3.281,3.281,0,0,0,7.524,62v55.272a3.281,3.281,0,0,0,3.281,3.281h4.034A3.281,3.281,0,0,1,11.558,117.273Z" transform="translate(-6.01 -5.981)" fill="#009aef"/>
    <path id="Trazado_626223" data-name="Trazado 626223" d="M62.574,320.858,23.828,352.931h80.779L65.861,320.858A2.578,2.578,0,0,0,62.574,320.858Z" transform="translate(-19.033 -238.359)" fill="#2b95f9"/>
    <g id="Grupo_878041" data-name="Grupo 878041" transform="translate(1.514 56.02)">
      <path id="Trazado_626224" data-name="Trazado 626224" d="M25.307,476.5l-1.48,1.225H27.86A3.272,3.272,0,0,1,25.307,476.5Z" transform="translate(-20.546 -419.169)" fill="#b6e1fd"/>
      <path id="Trazado_626225" data-name="Trazado 626225" d="M238.916,219.141l37.495,31.037a3.281,3.281,0,0,0,3.281-3.281V191.625Z" transform="translate(-192.351 -191.625)" fill="#b6e1fd"/>
      <path id="Trazado_626226" data-name="Trazado 626226" d="M7.524,191.625V246.9a3.281,3.281,0,0,0,3.281,3.281L48.3,219.141Z" transform="translate(-7.524 -191.625)" fill="#b6e1fd"/>
    </g>
    <path id="Trazado_626227" data-name="Trazado 626227" d="M11.558,194.347l-4.034-2.722h0V246.9a3.281,3.281,0,0,0,3.281,3.281l1.48-1.225a3.266,3.266,0,0,1-.726-2.056Z" transform="translate(-6.01 -135.605)" fill="#00aaf0"/>
    <path id="Trazado_626228" data-name="Trazado 626228" d="M121.2,92.943a20.509,20.509,0,0,1,7.34-15.741H78.35a2.542,2.542,0,0,0-2.542,2.542V109.5l27.034,18.243,1.251-1.036a2.578,2.578,0,0,1,3.287,0l1.251,1.036,24.155-16.3A20.556,20.556,0,0,1,121.2,92.943Z" transform="translate(-60.552 -44.208)" fill="#e4eaf8"/>
    <path id="Trazado_626229" data-name="Trazado 626229" d="M79.841,77.2H78.349a2.542,2.542,0,0,0-2.542,2.542V109.5l4.034,2.722Z" transform="translate(-60.552 -44.209)" fill="#d8dce5"/>
    <path id="Trazado_626236" data-name="Trazado 626236" d="M20.6,0A20.6,20.6,0,1,1,0,20.6,20.6,20.6,0,0,1,20.6,0Z" transform="translate(60.564 28.138)" fill="#ffb338"/>
    <path id="Trazado_626230" data-name="Trazado 626230" d="M304.915,73.674a20.6,20.6,0,0,1,18.619-20.5c-.651-.062-1.31-.095-1.977-.095a20.6,20.6,0,0,0,0,41.191c.667,0,1.326-.033,1.977-.095A20.6,20.6,0,0,1,304.915,73.674Z" transform="translate(-240.396 -24.94)" fill="#eb6f2d"/>
    <path id="Trazado_626231" data-name="Trazado 626231" d="M355.709,131.292l-5.953-5.738a3.1,3.1,0,1,1,4.3-4.465l3.6,3.466,7.284-8.427a3.1,3.1,0,0,1,4.692,4.055l-9.425,10.9A3.1,3.1,0,0,1,355.709,131.292Z" transform="translate(-278.613 -74.444)" fill="#e4eaf8"/>
    <path id="Trazado_626232" data-name="Trazado 626232" d="M359.609,149.864l-5.953-5.738a3.1,3.1,0,0,1-.78-3.233,3.1,3.1,0,0,0-3.12,5.175l5.953,5.738a3.1,3.1,0,0,0,4.5-.2l.829-.959A3.094,3.094,0,0,1,359.609,149.864Z" transform="translate(-278.613 -94.958)" fill="#d8dce5"/>
    <path id="Trazado_626233" data-name="Trazado 626233" d="M122.219,234.117h38.759a1.513,1.513,0,0,0,0-3.025H122.219a1.513,1.513,0,1,0,0,3.025Z" transform="translate(-96.415 -167.13)"/>
    <path id="Trazado_626234" data-name="Trazado 626234" d="M367.15,108.7a4.609,4.609,0,0,0-6.507.473l-6.24,7.219-2.446-2.358a4.613,4.613,0,0,0-6.4,6.643l5.953,5.738a4.615,4.615,0,0,0,6.692-.3l9.425-10.9A4.61,4.61,0,0,0,367.15,108.7Zm-1.816,4.528-9.425,10.9a1.59,1.59,0,0,1-2.3.105l-5.953-5.738a1.588,1.588,0,1,1,2.2-2.286l3.6,3.466a1.513,1.513,0,0,0,2.194-.1l7.284-8.427a1.588,1.588,0,1,1,2.4,2.076Z" transform="translate(-274.887 -68.466)"/>
    <path id="Trazado_626235" data-name="Trazado 626235" d="M100.026,45.869a1.513,1.513,0,0,0,2.992-.453A22.058,22.058,0,0,0,67.454,31.49h-7.47L48,22.776a4.781,4.781,0,0,0-5.639,0L30.382,31.49H17.8a4.06,4.06,0,0,0-4.055,4.055v8.049L1.974,52.152A4.807,4.807,0,0,0,0,56.029V111.3a4.8,4.8,0,0,0,4.794,4.794h37.12a1.513,1.513,0,1,0,0-3.025H8.994L44.5,83.674a1.064,1.064,0,0,1,1.358,0l35.511,29.394h-32.4a1.513,1.513,0,0,0,0,3.025h36.6a4.8,4.8,0,0,0,4.794-4.794V68.81a22.075,22.075,0,0,0,12.49-15.819,1.513,1.513,0,1,0-2.97-.579,19.044,19.044,0,1,1,.139-6.544ZM45.183,80.405A4.346,4.346,0,0,0,42.2,81.657l-9.341-6.3H57.511l-9.34,6.3A4.353,4.353,0,0,0,45.183,80.405Zm-1.04-55.182a1.764,1.764,0,0,1,2.08,0L54.84,31.49H35.527ZM16.767,35.545a1.031,1.031,0,0,1,1.03-1.03H64.33A22.056,22.056,0,0,0,59.182,47.23H25.8a1.513,1.513,0,1,0,0,3.025H59.182A22,22,0,0,0,60.217,55.6H25.8a1.513,1.513,0,1,0,0,3.025H61.461a22.125,22.125,0,0,0,7.89,8.742l-7.356,4.964H28.372L16.767,64.5ZM3.754,54.6l9.988-7.264V62.456L3.175,55.326A1.77,1.77,0,0,1,3.754,54.6Zm-.728,4.276L39.767,83.668,4.327,113a1.771,1.771,0,0,1-1.3-1.7ZM87.341,69.941V111.3a1.769,1.769,0,0,1-1.3,1.7L50.6,83.668,72.373,68.975A22.1,22.1,0,0,0,87.341,69.941Z" transform="translate(0 0)"/>
  </g>
</svg>
