<svg xmlns="http://www.w3.org/2000/svg" xmlns:xlink="http://www.w3.org/1999/xlink" width="399" height="89.256" viewBox="0 0 399 89.256">
  <defs>
    <filter id="Trazado_749223" x="0" y="29.901" width="399" height="59" filterUnits="userSpaceOnUse">
      <feOffset dy="3" input="SourceAlpha"/>
      <feGaussianBlur stdDeviation="3" result="blur"/>
      <feFlood flood-opacity="0.161"/>
      <feComposite operator="in" in2="blur"/>
      <feComposite in="SourceGraphic"/>
    </filter>
    <filter id="Trazado_502571" x="0" y="0" width="89.256" height="89.256" filterUnits="userSpaceOnUse">
      <feOffset dy="3" input="SourceAlpha"/>
      <feGaussianBlur stdDeviation="3" result="blur-2"/>
      <feFlood flood-opacity="0.161"/>
      <feComposite operator="in" in2="blur-2"/>
      <feComposite in="SourceGraphic"/>
    </filter>
  </defs>
  <g id="Grupo_1034312" data-name="Grupo 1034312" transform="translate(-210 -1247.744)">
    <g transform="matrix(1, 0, 0, 1, 210, 1247.74)" filter="url(#Trazado_749223)">
      <path id="Trazado_749223-2" data-name="Trazado 749223" d="M0,0H371a10,10,0,0,1,10,10V41H0Z" transform="translate(9 35.9)" fill="#fff"/>
    </g>
    <g id="Grupo_735154" data-name="Grupo 735154" transform="translate(6932 7411.645)">
      <g id="Grupo_735153" data-name="Grupo 735153" transform="translate(-7923.06 -11515)">
        <g id="Grupo_734091" data-name="Grupo 734091" transform="translate(1029.935 -2175.645)">
          <text id="Acciones_de_la_competencia" data-name="Acciones de la competencia" transform="translate(289.065 7569.643)" fill="#12263f" font-size="20" font-family="Roboto-Black, Roboto" font-weight="800"><tspan x="0" y="19">Acciones de la competencia</tspan></text>
          <path id="Trazado_194609" data-name="Trazado 194609" d="M0,0,84.875,40H0Z" transform="translate(180.125 7563.643)" fill="#ffb338"/>
          <g id="tarea-completada" transform="translate(180.125 7532.744)">
            <path id="Trazado_203286" data-name="Trazado 203286" d="M0,20.438ZM4.438,16" transform="translate(13.875 -13.525)" fill="#cee4c6"/>
            <g transform="matrix(1, 0, 0, 1, -9, -6)" filter="url(#Trazado_502571)">
              <path id="Trazado_502571-2" data-name="Trazado 502571" d="M295.256,259.628A35.628,35.628,0,1,1,259.628,224,35.629,35.629,0,0,1,295.256,259.628Zm0,0" transform="translate(-215 -218)" fill="#cee4c6"/>
            </g>
          </g>
        </g>
        <g id="Grupo_881476" data-name="Grupo 881476" transform="translate(1186.865 5314.762)">
          <path id="Trazado_749151" data-name="Trazado 749151" d="M57.515,166.236a2.869,2.869,0,0,0-2.866-2.866H51.621l-2.665-2.7a4.287,4.287,0,0,0-4.987-.815l-7.313,3.685c-.924.538-2.686.348-3.719.376a.943.943,0,0,0-.937.949h0l.15,11.266a.937.937,0,0,0,.759.907c-.041-.044,1.377.326,2.606.543a.939.939,0,0,0,.212-1.85c-.685-.16-1.28-.289-1.713-.38l-.128-9.561a7.132,7.132,0,0,0,3.615-.579l7.311-3.683a2.417,2.417,0,0,1,2.811.46l3.688,3.734a.768.768,0,0,1,0,1.087h0L47.768,170.4a.955.955,0,0,1-1.441-1.243l2.033-2.67a.972.972,0,1,0-1.394-1.26,5.946,5.946,0,0,1-1.284-1.406.937.937,0,0,0-1.779.592c.129.391.475,1,1.919,2.311l-.99,1.3a2.832,2.832,0,0,0,3.295,4.329.932.932,0,0,0,.871.607s4.411,0,4.411,0a.993.993,0,1,1,0,1.985s-5.277-.008-5.307,0a2.754,2.754,0,0,0-2.728,2.718,2.789,2.789,0,0,0,.125.828,9.3,9.3,0,0,1-3.041-.611,21.189,21.189,0,0,0-2.916-1.112.938.938,0,1,0-.558,1.79h0a19.389,19.389,0,0,1,2.655,1.008c1.281.651,3.848.92,7.082.89,3.115-.279,6.3.583,6.645-2.859a2.62,2.62,0,0,0-.341-1.275,2.889,2.889,0,0,0,.75-3.981,3.1,3.1,0,0,0,.584-3.816,2.854,2.854,0,0,0,1.155-2.286Zm-1.875,0c-.036,1.277-1.547.961-2.415.991a2.652,2.652,0,0,0-.023-1.983h1.447a.993.993,0,0,1,.991.991Zm-.771,3.64c.052.584-.082,1.18-.779,1.207H49.724L51.68,169.1h1.973c.583-.051,1.188.073,1.216.774Zm-2.1,8.49a35.428,35.428,0,0,1-4.72.158.856.856,0,0,1,.057-1.709c1.077,0,3.534.008,4.634,0a.775.775,0,0,1,.029,1.546Z" transform="translate(0 -92.964)"/>
          <path id="Trazado_749152" data-name="Trazado 749152" d="M76.2,248.252a.937.937,0,0,0-.233-1.86,4.437,4.437,0,0,1-2.789-.428.937.937,0,0,0-1.278.348h0C71.124,248.2,74.952,248.453,76.2,248.252Z" transform="translate(-35.137 -169.281)"/>
          <path id="Trazado_749153" data-name="Trazado 749153" d="M287.642,164.2a.938.938,0,0,0-.667-.279h-2.118a4.139,4.139,0,0,1-2.1-.629.937.937,0,0,0-.852,1.67,7.019,7.019,0,0,0,4.116.834l-.128,9.558a42.871,42.871,0,0,0-8.441,2.524,9.3,9.3,0,0,1-3.044.613,2.927,2.927,0,0,0,.122-1,2.745,2.745,0,0,0-2.725-2.55c-.422,0-5.033,0-5.307,0a.993.993,0,1,1,0-1.985h0c.936,0,3.442,0,4.411,0a.932.932,0,0,0,.87-.606,2.825,2.825,0,0,0,3.292-4.333l-.989-1.3c1.445-1.308,1.791-1.922,1.92-2.312a.938.938,0,0,0-1.778-.594,5.826,5.826,0,0,1-1.285,1.409.958.958,0,1,0-1.393,1.259l2.03,2.666a.955.955,0,0,1-1.434,1.252l-3.547-3.594a.768.768,0,0,1,0-1.086h0l3.683-3.729a2.416,2.416,0,0,1,2.81-.461l3.065,1.547a.937.937,0,0,0,.845-1.673l-3.066-1.548a4.289,4.289,0,0,0-4.987.817l-2.664,2.7h-3.029a2.868,2.868,0,0,0-1.71,5.152,3.1,3.1,0,0,0,.583,3.816,2.889,2.889,0,0,0,.75,3.981,2.653,2.653,0,0,0,2.1,3.915c2.514.3,9.736.39,11.289-.673,2.887-1.408,8.665-2.507,8.723-2.518a.937.937,0,0,0,.764-.908l.15-11.266a.938.938,0,0,0-.27-.671Zm-21.825,4.9h2.415l1.956,1.982h-4.366c-1.067.018-1.087-1.989,0-1.982Zm-.554-3.857h1.448a2.651,2.651,0,0,0-.025,1.983h-1.422a.991.991,0,0,1,0-1.983Zm7.4,12.415a.859.859,0,0,1-.79.865,35.575,35.575,0,0,1-4.736-.159.775.775,0,0,1,.04-1.545c.034,0,4.634,0,4.634,0a.84.84,0,0,1,.853.826c0,.006,0,.012,0,.018Z" transform="translate(-203.424 -92.964)"/>
          <path id="Trazado_749154" data-name="Trazado 749154" d="M395.6,247.2c-.112,1.067,1.07,1.134,1.839,1.113,1.194-.04,3.958-.373,3.276-2a.935.935,0,0,0-1.275-.351l0,0a4.448,4.448,0,0,1-2.789.428.939.939,0,0,0-1.047.813Z" transform="translate(-320.997 -169.279)"/>
          <path id="Trazado_749155" data-name="Trazado 749155" d="M168.7,109.262a.937.937,0,0,0,1.652-.884l-1.655-3.091a.937.937,0,0,0-1.652.884Z" transform="translate(-119.131 -44.768)"/>
          <path id="Trazado_749156" data-name="Trazado 749156" d="M315.479,109.554a.938.938,0,0,0,1.269-.385l1.655-3.091a.937.937,0,1,0-1.651-.886v0l-1.655,3.091a.937.937,0,0,0,.383,1.269Z" transform="translate(-249.829 -44.675)"/>
          <path id="Trazado_749157" data-name="Trazado 749157" d="M200.141,80.058a.937.937,0,0,0,1.749-.674l-.965-2.505a.937.937,0,0,0-1.749.674Z" transform="translate(-147.538 -19.595)"/>
          <path id="Trazado_749158" data-name="Trazado 749158" d="M289.282,80.5a.939.939,0,0,0,1.211-.538l.965-2.505a.937.937,0,0,0-1.748-.677v0l-.965,2.505a.938.938,0,0,0,.538,1.212Z" transform="translate(-226.608 -19.498)"/>
          <path id="Trazado_749159" data-name="Trazado 749159" d="M248.937,58.182a.937.937,0,0,0,.937-.937h0V55.031a.937.937,0,0,0-1.875,0v2.213a.937.937,0,0,0,.937.937Z" transform="translate(-190.693)"/>
          <path id="Trazado_749160" data-name="Trazado 749160" d="M169.919,365.022a.937.937,0,0,0-1.268.384h0L167,368.5a.937.937,0,1,0,1.651.886v0l1.655-3.091a.937.937,0,0,0-.384-1.269Z" transform="translate(-119.081 -274.401)"/>
          <path id="Trazado_749161" data-name="Trazado 749161" d="M316.794,365.5a.937.937,0,0,0-1.652.884l1.655,3.091a.937.937,0,0,0,1.652-.884Z" transform="translate(-249.876 -274.49)"/>
          <path id="Trazado_749162" data-name="Trazado 749162" d="M201.314,398.485a.939.939,0,0,0-1.211.538l-.965,2.505a.937.937,0,1,0,1.748.677v0l.965-2.505a.937.937,0,0,0-.538-1.212Z" transform="translate(-147.5 -303.986)"/>
          <path id="Trazado_749163" data-name="Trazado 749163" d="M290.527,399.106a.937.937,0,0,0-1.749.674l.965,2.505a.937.937,0,0,0,1.749-.674Z" transform="translate(-226.641 -304.069)"/>
          <path id="Trazado_749164" data-name="Trazado 749164" d="M248.937,423.016a.937.937,0,0,0-.937.937h0v2.213a.937.937,0,0,0,1.875,0v-2.213a.937.937,0,0,0-.937-.937Z" transform="translate(-190.693 -325.698)"/>
        </g>
      </g>
    </g>
  </g>
</svg>
