<svg xmlns="http://www.w3.org/2000/svg" xmlns:xlink="http://www.w3.org/1999/xlink" width="228" height="89.256" viewBox="0 0 228 89.256">
  <defs>
    <filter id="Trazado_749446" x="0" y="30.256" width="228" height="59" filterUnits="userSpaceOnUse">
      <feOffset dy="3" input="SourceAlpha"/>
      <feGaussianBlur stdDeviation="3" result="blur"/>
      <feFlood flood-opacity="0.161"/>
      <feComposite operator="in" in2="blur"/>
      <feComposite in="SourceGraphic"/>
    </filter>
    <filter id="Trazado_502571" x="0.125" y="0" width="89.256" height="89.256" filterUnits="userSpaceOnUse">
      <feOffset dy="3" input="SourceAlpha"/>
      <feGaussianBlur stdDeviation="3" result="blur-2"/>
      <feFlood flood-opacity="0.161"/>
      <feComposite operator="in" in2="blur-2"/>
      <feComposite in="SourceGraphic"/>
    </filter>
    <clipPath id="clip-path">
      <rect id="Rectángulo_361492" data-name="Rectángulo 361492" width="51.958" height="51.958" fill="none"/>
    </clipPath>
  </defs>
  <g id="Grupo_1034316" data-name="Grupo 1034316" transform="translate(-8796.002 10544)">
    <g transform="matrix(1, 0, 0, 1, 8796, -10544)" filter="url(#Trazado_749446)">
      <path id="Trazado_749446-2" data-name="Trazado 749446" d="M0,0H200a10,10,0,0,1,10,10V41H0Z" transform="translate(9 36.26)" fill="#fff"/>
    </g>
    <path id="Trazado_749447" data-name="Trazado 749447" d="M1.074,19V4.781H6.182a7.232,7.232,0,0,1,4.175,1.006,3.347,3.347,0,0,1,1.431,2.92,3.383,3.383,0,0,1-.508,1.885,2.959,2.959,0,0,1-1.494,1.152,3,3,0,0,1,1.709,1.094,3.18,3.18,0,0,1,.6,1.953,3.765,3.765,0,0,1-1.323,3.14A6.3,6.3,0,0,1,6.846,19ZM4.5,12.955v3.408H6.748a2.136,2.136,0,0,0,1.426-.425,1.487,1.487,0,0,0,.5-1.2A1.576,1.576,0,0,0,6.9,12.955Zm0-2.246H6.289a2.539,2.539,0,0,0,1.6-.411,1.46,1.46,0,0,0,.479-1.185,1.533,1.533,0,0,0-.518-1.3,2.77,2.77,0,0,0-1.67-.4H4.5ZM19.775,19a3.716,3.716,0,0,1-.312-.947A3.06,3.06,0,0,1,16.924,19.2a3.749,3.749,0,0,1-2.539-.9,2.875,2.875,0,0,1-1.045-2.271,2.955,2.955,0,0,1,1.27-2.6,6.468,6.468,0,0,1,3.691-.879h1.016v-.559q0-1.462-1.26-1.462a1.03,1.03,0,0,0-1.172,1.158H13.594a2.95,2.95,0,0,1,1.3-2.487,5.479,5.479,0,0,1,3.325-.956,4.8,4.8,0,0,1,3.193.986,3.429,3.429,0,0,1,1.2,2.705v4.678a4.79,4.79,0,0,0,.449,2.227V19Zm-2.061-2.148a1.836,1.836,0,0,0,1.021-.264,1.653,1.653,0,0,0,.581-.6V14.3h-.957q-1.719,0-1.719,1.543a.942.942,0,0,0,.3.728A1.1,1.1,0,0,0,17.715,16.852Zm12.256-.82a.76.76,0,0,0-.439-.674,6.685,6.685,0,0,0-1.67-.527,7.615,7.615,0,0,1-2.031-.718,3.4,3.4,0,0,1-1.221-1.079,2.577,2.577,0,0,1-.42-1.455,2.92,2.92,0,0,1,1.2-2.4,4.948,4.948,0,0,1,3.145-.942,5.482,5.482,0,0,1,3.359.947,2.962,2.962,0,0,1,1.27,2.49h-3.3q0-1.27-1.338-1.27a1.326,1.326,0,0,0-.869.288.892.892,0,0,0-.352.718.819.819,0,0,0,.43.713,4.06,4.06,0,0,0,1.372.449,11.857,11.857,0,0,1,1.655.42,3.007,3.007,0,0,1,2.383,2.939,2.767,2.767,0,0,1-1.284,2.354,5.631,5.631,0,0,1-3.325.908,5.747,5.747,0,0,1-2.422-.488,4.05,4.05,0,0,1-1.66-1.328,3.007,3.007,0,0,1-.6-1.768h3.076a1.272,1.272,0,0,0,.488,1.069,2.009,2.009,0,0,0,1.2.337,1.58,1.58,0,0,0,1.011-.273A.875.875,0,0,0,29.971,16.031ZM39.795,19.2a5.432,5.432,0,0,1-3.936-1.45,5.008,5.008,0,0,1-1.5-3.774V13.7a6.489,6.489,0,0,1,.6-2.861,4.395,4.395,0,0,1,1.753-1.919,5.292,5.292,0,0,1,2.734-.679A4.574,4.574,0,0,1,42.959,9.62a5.43,5.43,0,0,1,1.289,3.853v1.279H37.705a2.372,2.372,0,0,0,.771,1.4,2.3,2.3,0,0,0,1.543.508,2.958,2.958,0,0,0,2.441-1.094l1.5,1.777a4.2,4.2,0,0,1-1.743,1.353A5.891,5.891,0,0,1,39.795,19.2Zm-.371-8.418q-1.445,0-1.719,1.914h3.32v-.254a1.63,1.63,0,0,0-.4-1.226A1.593,1.593,0,0,0,39.424,10.777Zm15.6,5.879a1.464,1.464,0,0,0,1.074-.376,1.379,1.379,0,0,0,.371-1.05h3.086a3.653,3.653,0,0,1-1.245,2.852A4.631,4.631,0,0,1,55.1,19.2a4.689,4.689,0,0,1-3.633-1.445,5.7,5.7,0,0,1-1.328-4v-.137a6.436,6.436,0,0,1,.591-2.827,4.3,4.3,0,0,1,1.7-1.885,5.081,5.081,0,0,1,2.637-.659A4.573,4.573,0,0,1,58.34,9.381a4.053,4.053,0,0,1,1.211,3.1H56.465a1.807,1.807,0,0,0-.4-1.26,1.382,1.382,0,0,0-1.074-.439q-1.279,0-1.494,1.631a11.507,11.507,0,0,0-.068,1.426,4.52,4.52,0,0,0,.381,2.207A1.319,1.319,0,0,0,55.02,16.656ZM66.055,19.2a5.432,5.432,0,0,1-3.936-1.45,5.008,5.008,0,0,1-1.5-3.774V13.7a6.489,6.489,0,0,1,.6-2.861,4.395,4.395,0,0,1,1.753-1.919A5.292,5.292,0,0,1,65.7,8.238,4.574,4.574,0,0,1,69.219,9.62a5.43,5.43,0,0,1,1.289,3.853v1.279H63.965a2.372,2.372,0,0,0,.771,1.4,2.3,2.3,0,0,0,1.543.508,2.958,2.958,0,0,0,2.441-1.094l1.5,1.777a4.2,4.2,0,0,1-1.743,1.353A5.891,5.891,0,0,1,66.055,19.2Zm-.371-8.418q-1.445,0-1.719,1.914h3.32v-.254a1.63,1.63,0,0,0-.4-1.226A1.593,1.593,0,0,0,65.684,10.777Zm12.539.635-1.084-.078a1.947,1.947,0,0,0-1.992.977V19H71.855V8.434h3.086l.107,1.357a2.548,2.548,0,0,1,2.314-1.553,3.209,3.209,0,0,1,.918.117Zm.42,2.207a6.236,6.236,0,0,1,.615-2.817,4.4,4.4,0,0,1,1.768-1.9,5.323,5.323,0,0,1,2.705-.664,4.858,4.858,0,0,1,3.74,1.47,5.64,5.64,0,0,1,1.367,4v.117a5.472,5.472,0,0,1-1.372,3.921A4.871,4.871,0,0,1,83.75,19.2a4.927,4.927,0,0,1-3.623-1.353,5.29,5.29,0,0,1-1.475-3.667Zm3.291.205a3.932,3.932,0,0,0,.459,2.148,1.529,1.529,0,0,0,1.357.684q1.758,0,1.8-2.705v-.332q0-2.842-1.816-2.842-1.65,0-1.787,2.451Z" transform="translate(8911.067 -10499.102)" fill="#12263f"/>
    <path id="Trazado_194609" data-name="Trazado 194609" d="M0,0,85,40H0Z" transform="translate(8805.002 -10507.102)" fill="#ffb338"/>
    <g id="tarea-completada" transform="translate(8805.127 -10538)">
      <path id="Trazado_203286" data-name="Trazado 203286" d="M0,20.438ZM4.438,16" transform="translate(13.875 -13.525)" fill="#ffc846"/>
      <g transform="matrix(1, 0, 0, 1, -9.13, -6)" filter="url(#Trazado_502571)">
        <path id="Trazado_502571-2" data-name="Trazado 502571" d="M295.256,259.628A35.628,35.628,0,1,1,259.628,224,35.629,35.629,0,0,1,295.256,259.628Zm0,0" transform="translate(-214.87 -218)" fill="#cee4c6"/>
      </g>
      <g id="g4635" transform="translate(857.209 266.971)">
        <g id="g4637" transform="translate(-847.293 -257.6)">
          <g id="Grupo_881418" data-name="Grupo 881418" transform="translate(0 0)">
            <g id="Grupo_881417" data-name="Grupo 881417" clip-path="url(#clip-path)">
              <g id="g4639" transform="translate(0 -0.013)">
                <g id="g4645" transform="translate(41.005 17.527)">
                  <path id="Trazado_749126" data-name="Trazado 749126" d="M-308.272-13.061c-.026-.475-.055-.952-.086-1.458-.266-4.319-.567-9.213,1.652-11.573a4.613,4.613,0,0,1,3.514-1.395v1.522a3.114,3.114,0,0,0-2.4.915c-1.768,1.881-1.489,6.426-1.242,10.437.03.486.061.988.087,1.469Z" transform="translate(308.541 27.487)"/>
                </g>
                <g id="g4649" transform="translate(36.714 43.281)">
                  <path id="Trazado_749127" data-name="Trazado 749127" d="M-364.163,319.565a.765.765,0,0,1-.085,0,.761.761,0,0,1-.672-.841,27.5,27.5,0,0,0,0-4.887.761.761,0,0,1,.319-.7c.924-.65,1.871-1.353,2.816-2.087a.761.761,0,0,1,1.068.134.761.761,0,0,1-.134,1.068c-.843.656-1.688,1.286-2.518,1.878a27.807,27.807,0,0,1-.038,4.761A.761.761,0,0,1-364.163,319.565Z" transform="translate(364.925 -310.888)"/>
                </g>
                <g id="g4653" transform="translate(42.375 14.244)">
                  <path id="Trazado_749128" data-name="Trazado 749128" d="M-289.781-42.347a.759.759,0,0,1-.581-.269.761.761,0,0,1,.088-1.073,91.246,91.246,0,0,0,7.775-7.42,173.921,173.921,0,0,1,.019-18.8.76.76,0,0,1,.809-.71.761.761,0,0,1,.71.809,171.956,171.956,0,0,0,0,18.925.761.761,0,0,1-.191.552,90.383,90.383,0,0,1-8.138,7.8A.758.758,0,0,1-289.781-42.347Z" transform="translate(290.542 70.615)"/>
                </g>
                <g id="g4657" transform="translate(42.323 14.244)">
                  <path id="Trazado_749129" data-name="Trazado 749129" d="M-290.466-51.828a.759.759,0,0,1-.562-.248.761.761,0,0,1,.049-1.075l2.372-2.165c0-5.557.014-9.251.72-11.6.777-2.589,2.432-3.694,5.535-3.694a.761.761,0,0,1,.761.761.761.761,0,0,1-.761.761c-2.432,0-3.5.683-4.077,2.61-.656,2.186-.656,5.892-.656,11.5a.761.761,0,0,1-.248.562l-2.62,2.392A.759.759,0,0,1-290.466-51.828Z" transform="translate(291.228 70.615)"/>
                </g>
                <g id="g4661" transform="translate(27.266 30.839)">
                  <path id="Trazado_749130" data-name="Trazado 749130" d="M-488.1,168.544a.761.761,0,0,1-.758-.7,67.6,67.6,0,0,1,.059-10.809.761.761,0,0,1,.258-.5c.918-.8,1.753-1.532,2.561-2.241,3.975-3.49,6.374-5.6,8.425-6.447,2.208-.916,3.956-.363,6.034,1.912a.761.761,0,0,1,.2.549.761.761,0,0,1-.249.528c-.031.028-3.1,2.8-6.749,5.763a.761.761,0,0,1-1.071-.112.761.761,0,0,1,.112-1.071c2.68-2.173,5.045-4.247,6.1-5.185-2.7-2.628-4.38-1.3-11.8,5.207-.741.651-1.5,1.321-2.336,2.044a68.342,68.342,0,0,0-.029,10.244.761.761,0,0,1-.7.817Z" transform="translate(489.048 -147.425)"/>
                </g>
                <g id="g4665" transform="translate(0 14.956)">
                  <path id="Trazado_749131" data-name="Trazado 749131" d="M-832.81-24.266a.761.761,0,0,1-.755-.677A27.812,27.812,0,0,1-833.6-29.7a91.758,91.758,0,0,1-13.5-11.989.761.761,0,0,1-.191-.552c.595-9.846.595-9.846,0-18.923l1.519-.1-.759.05.76-.047c.594,9.073.6,9.172.019,18.793A90.328,90.328,0,0,0-832.371-30.7a.761.761,0,0,1,.319.7,27.5,27.5,0,0,0,0,4.887.761.761,0,0,1-.672.841A.771.771,0,0,1-832.81-24.266Z" transform="translate(847.293 61.269)"/>
                </g>
                <g id="g4669" transform="translate(0 14.244)">
                  <path id="Trazado_749132" data-name="Trazado 749132" d="M-838.419-51.828a.758.758,0,0,1-.513-.2l-2.62-2.392a.761.761,0,0,1-.248-.562c0-5.61,0-9.316-.656-11.5-.578-1.927-1.645-2.61-4.077-2.61a.761.761,0,0,1-.761-.761.761.761,0,0,1,.761-.761c3.1,0,4.758,1.1,5.535,3.694.706,2.353.72,6.047.72,11.6l2.372,2.165a.761.761,0,0,1,.049,1.075A.759.759,0,0,1-838.419-51.828Z" transform="translate(847.293 70.615)"/>
                </g>
                <g id="g4673" transform="translate(17.571 35.082)">
                  <path id="Trazado_749133" data-name="Trazado 749133" d="M-610.252,220.049l-.059,0a.761.761,0,0,1-.7-.817,68.353,68.353,0,0,0-.029-10.244c-.83-.723-1.594-1.393-2.334-2.043-1.046-.918-1.949-1.711-2.789-2.431a.761.761,0,0,1-.082-1.073.761.761,0,0,1,1.073-.082c.847.726,1.8,1.56,2.8,2.443.807.709,1.642,1.442,2.56,2.239a.761.761,0,0,1,.258.5,67.584,67.584,0,0,1,.059,10.809A.761.761,0,0,1-610.252,220.049Z" transform="translate(616.429 -203.173)"/>
                </g>
                <g id="g4677" transform="translate(6.97 30.844)">
                  <path id="Trazado_749134" data-name="Trazado 749134" d="M-748.232,156.827a.758.758,0,0,1-.479-.17c-3.649-2.958-6.719-5.735-6.749-5.762a.761.761,0,0,1-.249-.528.761.761,0,0,1,.2-.549c1.441-1.578,2.688-2.3,4.042-2.327,1.3-.031,2.685.565,4.618,1.99a.761.761,0,0,1,.161,1.064.761.761,0,0,1-1.064.161c-2.866-2.111-4.2-2.264-6.1-.416,1.056.938,3.42,3.012,6.1,5.185a.761.761,0,0,1,.112,1.071A.76.76,0,0,1-748.232,156.827Z" transform="translate(755.71 -147.489)"/>
                </g>
                <g id="g4681" transform="translate(5.604 17.527)">
                  <path id="Trazado_749135" data-name="Trazado 749135" d="M-768.613-13.038l-1.52-.082c.027-.5.058-1,.091-1.528.249-4,.53-8.532-1.229-10.4a3.1,3.1,0,0,0-2.394-.911v-1.522a4.6,4.6,0,0,1,3.5,1.391c2.211,2.352,1.907,7.234,1.64,11.541C-768.555-14.029-768.586-13.532-768.613-13.038Z" transform="translate(773.665 27.487)"/>
                </g>
                <g id="g4685" transform="translate(15.489 4.206)">
                  <path id="Trazado_749136" data-name="Trazado 749136" d="M-633.243-181.441a10.481,10.481,0,0,1-6.02-1.886,10.516,10.516,0,0,1-3.808-4.835.761.761,0,0,1,.434-.985.761.761,0,0,1,.985.434,9.078,9.078,0,0,0,8.409,5.751,9.023,9.023,0,0,0,9.016-9.01,9.023,9.023,0,0,0-9.016-9.01,9.023,9.023,0,0,0-9.016,9.01.761.761,0,0,1-.761.761.761.761,0,0,1-.761-.761,10.547,10.547,0,0,1,10.539-10.532A10.547,10.547,0,0,1-622.7-191.973,10.547,10.547,0,0,1-633.243-181.441Z" transform="translate(643.782 202.505)"/>
                </g>
                <g id="g4689" transform="translate(11.281)">
                  <path id="Trazado_749137" data-name="Trazado 749137" d="M-684.333-228.29a14.759,14.759,0,0,1-14.747-14.738,14.759,14.759,0,0,1,14.747-14.738,14.774,14.774,0,0,1,9.412,3.391.761.761,0,0,1,.1,1.072.761.761,0,0,1-1.072.1,13.247,13.247,0,0,0-8.44-3.041,13.235,13.235,0,0,0-13.225,13.216,13.235,13.235,0,0,0,13.225,13.216,13.235,13.235,0,0,0,13.225-13.216,13.113,13.113,0,0,0-2.5-7.732.761.761,0,0,1,.171-1.063.761.761,0,0,1,1.063.171,14.626,14.626,0,0,1,2.787,8.624A14.759,14.759,0,0,1-684.333-228.29Z" transform="translate(699.08 257.765)"/>
                </g>
                <g id="g4693" transform="translate(22.993 9.432)">
                  <path id="Trazado_749138" data-name="Trazado 749138" d="M-542.158-123.228a3.038,3.038,0,0,1-3.035-3.033.761.761,0,0,1,.761-.761.761.761,0,0,1,.761.761,1.514,1.514,0,0,0,1.513,1.511,1.514,1.514,0,0,0,1.513-1.511,1.514,1.514,0,0,0-1.513-1.511,3.038,3.038,0,0,1-3.035-3.033,3.038,3.038,0,0,1,3.035-3.033,3.038,3.038,0,0,1,3.035,3.033.761.761,0,0,1-.761.761.761.761,0,0,1-.761-.761,1.514,1.514,0,0,0-1.513-1.511,1.514,1.514,0,0,0-1.513,1.511,1.514,1.514,0,0,0,1.513,1.511,3.038,3.038,0,0,1,3.035,3.033A3.038,3.038,0,0,1-542.158-123.228Z" transform="translate(545.193 133.839)"/>
                </g>
                <g id="g4697" transform="translate(25.267 7.728)">
                  <path id="Trazado_749139" data-name="Trazado 749139" d="M-514.557-153a.761.761,0,0,1-.761-.761v-1.7a.761.761,0,0,1,.761-.761.761.761,0,0,1,.761.761v1.7A.761.761,0,0,1-514.557-153Z" transform="translate(515.318 156.229)"/>
                </g>
                <g id="g4701" transform="translate(25.267 18.521)">
                  <path id="Trazado_749140" data-name="Trazado 749140" d="M-514.557-11.2a.761.761,0,0,1-.761-.761v-1.7a.761.761,0,0,1,.761-.761.761.761,0,0,1,.761.761v1.7A.761.761,0,0,1-514.557-11.2Z" transform="translate(515.318 14.422)"/>
                </g>
              </g>
            </g>
          </g>
        </g>
      </g>
    </g>
  </g>
</svg>
