<svg id="Grupo_878496" data-name="Grupo 878496" xmlns="http://www.w3.org/2000/svg" xmlns:xlink="http://www.w3.org/1999/xlink" width="517.564" height="307.488" viewBox="0 0 517.564 307.488">
  <defs>
    <clipPath id="clip-path">
      <rect id="Rectángulo_328290" data-name="Rectángulo 328290" width="517.564" height="307.488" fill="none"/>
    </clipPath>
    <clipPath id="clip-path-8">
      <rect id="Rectángulo_328279" data-name="Rectángulo 328279" width="37.584" height="39.529" fill="#eb6f2d"/>
    </clipPath>
    <clipPath id="clip-path-9">
      <rect id="Rectángulo_328280" data-name="Rectángulo 328280" width="42.712" height="8.855" fill="none"/>
    </clipPath>
    <clipPath id="clip-path-10">
      <rect id="Rectángulo_328281" data-name="Rectángulo 328281" width="40.64" height="4.268" fill="none"/>
    </clipPath>
    <clipPath id="clip-path-12">
      <rect id="Rectángulo_328283" data-name="Rectángulo 328283" width="49.024" height="23.519" fill="none"/>
    </clipPath>
    <clipPath id="clip-path-13">
      <rect id="Rectángulo_328284" data-name="Rectángulo 328284" width="9.925" height="9.925" fill="none"/>
    </clipPath>
    <clipPath id="clip-path-15">
      <rect id="Rectángulo_328286" data-name="Rectángulo 328286" width="21.208" height="9.212" fill="none"/>
    </clipPath>
    <clipPath id="clip-path-16">
      <rect id="Rectángulo_328287" data-name="Rectángulo 328287" width="24.794" height="14.32" fill="none"/>
    </clipPath>
    <clipPath id="clip-path-17">
      <rect id="Rectángulo_328288" data-name="Rectángulo 328288" width="24.081" height="30.068" fill="none"/>
    </clipPath>
  </defs>
  <g id="Grupo_878495" data-name="Grupo 878495" clip-path="url(#clip-path)">
    <g id="Grupo_878456" data-name="Grupo 878456">
      <g id="Grupo_878455" data-name="Grupo 878455" clip-path="url(#clip-path)">
        <path id="Trazado_626864" data-name="Trazado 626864" d="M2.97,318.419s-3.924,1.589.6,9.921a109.684,109.684,0,0,0,7.618,12.433s.815,1.94-.827,2.287-5.29-.138-5.973,1.9c-.708,2.113.864,4.049,3.993,5.7s9.851,5.526,10.457,5.878,1.207,1.243.126,1.659-9.23,1.48-8.494,5.317,10.21,7.009,11.239,7.376,1.284.792,1.215,1.354-2.842.661-5.147,1.059-4.909,1.263-4.3,3.441,6.289,6.64,19.821,7.614l6.3.04,3.288-5.406c6.331-12,5.546-19.178,4.021-20.848s-3.637.082-5.194,1.828-3.108,4.047-3.62,3.808-.739-.68-.507-1.748,2.55-10.784-.316-13.439-8.081,3.7-9,4.4-1.363-.3-1.341-.984.289-8.455.541-11.984-.56-5.888-2.728-6.4c-2.091-.5-3.609,2.854-4.771,4.064s-2.379-.508-2.379-.508a109.773,109.773,0,0,0-6.523-13.042c-4.677-8.248-8.176-5.678-8.176-5.678" transform="translate(-0.344 -78.581)" fill="#ebebeb"/>
        <path id="Trazado_626865" data-name="Trazado 626865" d="M41.81,388.436c-3.411-6.071-9.292-16.963-14.39-26.287S17.7,344.392,14.322,338.3l-4.01-7.2-1.089-1.96-.279-.512c-.062-.116-.089-.178-.089-.178s.038.055.106.168l.3.5,1.121,1.942c.972,1.687,2.36,4.14,4.064,7.176,3.412,6.07,8.053,14.5,13.149,23.817s10.96,20.227,14.34,26.314" transform="translate(-2.188 -81.144)" fill="#e0e0e0"/>
        <path id="Trazado_626866" data-name="Trazado 626866" d="M12.117,354.955a2.025,2.025,0,0,1,.442.111c.282.083.684.214,1.181.38.992.335,2.35.833,3.839,1.409l3.805,1.489,1.155.444a2.055,2.055,0,0,1,.419.18,2.075,2.075,0,0,1-.443-.108c-.281-.083-.684-.214-1.179-.385-.989-.346-2.339-.861-3.828-1.437l-3.814-1.461-1.159-.438a2.023,2.023,0,0,1-.417-.183" transform="translate(-2.993 -87.691)" fill="#e0e0e0"/>
        <path id="Trazado_626867" data-name="Trazado 626867" d="M27.071,355.586c-.051-.017.852-2.862,2.016-6.354s2.15-6.309,2.2-6.292-.852,2.862-2.016,6.355-2.15,6.309-2.2,6.292" transform="translate(-6.687 -84.723)" fill="#e0e0e0"/>
        <path id="Trazado_626868" data-name="Trazado 626868" d="M36.61,375.949a2.174,2.174,0,0,1,.245-.4l.72-1.04c.605-.878,1.437-2.1,2.306-3.471s1.618-2.647,2.15-3.571l.632-1.095a2.125,2.125,0,0,1,.251-.392,2.1,2.1,0,0,1-.184.428c-.13.269-.326.654-.578,1.126-.5.943-1.231,2.23-2.105,3.609s-1.724,2.588-2.359,3.447c-.32.428-.582.773-.771,1a2.1,2.1,0,0,1-.306.35" transform="translate(-9.044 -90.416)" fill="#e0e0e0"/>
        <path id="Trazado_626869" data-name="Trazado 626869" d="M22.131,377.869a1.8,1.8,0,0,1,.43,0l1.168.063c.985.061,2.345.159,3.845.279s2.859.239,3.842.337l1.162.123a1.837,1.837,0,0,1,.425.072,1.813,1.813,0,0,1-.431,0l-1.167-.062c-.985-.061-2.345-.159-3.846-.279s-2.858-.239-3.841-.336l-1.163-.124a1.823,1.823,0,0,1-.424-.072" transform="translate(-5.467 -93.35)" fill="#e0e0e0"/>
        <path id="Trazado_626870" data-name="Trazado 626870" d="M28.367,396.14a2.916,2.916,0,0,1,.55,0l1.5.074c1.264.072,3.007.183,4.932.318s3.668.27,4.929.376l1.491.136a2.992,2.992,0,0,1,.545.077,2.922,2.922,0,0,1-.55,0l-1.5-.074c-1.263-.072-3.007-.183-4.933-.319s-3.667-.269-4.927-.375l-1.492-.136a2.972,2.972,0,0,1-.544-.077" transform="translate(-7.008 -97.864)" fill="#e0e0e0"/>
        <path id="Trazado_626871" data-name="Trazado 626871" d="M46.451,393.073a3.228,3.228,0,0,1,.3-.508c.222-.349.514-.8.864-1.352.729-1.141,1.729-2.722,2.784-4.5s1.974-3.406,2.628-4.591l.776-1.4a3.245,3.245,0,0,1,.306-.5,3.466,3.466,0,0,1-.238.54c-.164.342-.409.833-.721,1.434-.624,1.2-1.522,2.848-2.58,4.626s-2.078,3.35-2.837,4.473c-.381.561-.694,1.011-.916,1.318a3.559,3.559,0,0,1-.361.466" transform="translate(-11.475 -93.932)" fill="#e0e0e0"/>
        <path id="Trazado_626872" data-name="Trazado 626872" d="M96.387,64H44.316a4.448,4.448,0,0,1-4.448-4.448V12.939a4.448,4.448,0,0,1,4.448-4.448H96.387a4.448,4.448,0,0,1,4.448,4.448V59.547A4.448,4.448,0,0,1,96.387,64" transform="translate(-9.849 -2.098)" fill="#fff"/>
        <path id="Trazado_626873" data-name="Trazado 626873" d="M100.836,17.937H39.868V13.061a4.571,4.571,0,0,1,4.57-4.57H96.626a4.21,4.21,0,0,1,4.21,4.21Z" transform="translate(-9.849 -2.098)" fill="#ebebeb"/>
        <path id="Trazado_626874" data-name="Trazado 626874" d="M50.546,15.528a1.5,1.5,0,1,1-1.495-1.407,1.453,1.453,0,0,1,1.495,1.407" transform="translate(-11.749 -3.489)" fill="#fff"/>
        <path id="Trazado_626875" data-name="Trazado 626875" d="M55.955,15.528a1.5,1.5,0,1,1-1.495-1.407,1.453,1.453,0,0,1,1.495,1.407" transform="translate(-13.085 -3.489)" fill="#fff"/>
        <path id="Trazado_626876" data-name="Trazado 626876" d="M61.365,15.528a1.5,1.5,0,1,1-1.495-1.407,1.453,1.453,0,0,1,1.495,1.407" transform="translate(-14.422 -3.489)" fill="#fff"/>
        <path id="Trazado_626877" data-name="Trazado 626877" d="M96.323,63.931c0-.012.2-.011.577-.062a4.291,4.291,0,0,0,1.592-.551,4.4,4.4,0,0,0,2.2-3.688c.011-.627,0-1.3,0-2.015-.015-5.713-.036-13.957-.062-24.143-.008-5.1-.015-10.679-.024-16.671q0-1.124,0-2.266c-.019-.753.041-1.551-.053-2.278A4.283,4.283,0,0,0,96.73,8.621c-.379-.028-.79-.019-1.193-.02l-2.446,0-4.99,0-43.844.015a4.27,4.27,0,0,0-4.1,3.126A4.59,4.59,0,0,0,40,13.12v1.433q0,1.431,0,2.851,0,5.681,0,11.187c0,7.334-.008,14.408-.011,21.148q0,5.052,0,9.843a4.293,4.293,0,0,0,2.269,3.683,4.4,4.4,0,0,0,2.141.5l2.266,0,16.672.024,24.141.062,6.563.037,1.707.019c.384.007.581.02.581.02s-.2.014-.581.02l-1.707.019-6.563.037L63.33,64.07l-16.672.024-2.266,0a4.723,4.723,0,0,1-2.3-.535,4.633,4.633,0,0,1-2.457-3.971q-.007-4.791-.014-9.852c0-6.74-.008-13.814-.011-21.148q0-5.5,0-11.187,0-1.421,0-2.851V13.12a5.019,5.019,0,0,1,.169-1.475,4.663,4.663,0,0,1,4.48-3.414L88.1,8.246l4.99,0,2.446,0c.406,0,.8-.008,1.226.023a4.627,4.627,0,0,1,4.124,3.935,22.869,22.869,0,0,1,.05,2.325q0,1.143,0,2.266c-.008,5.992-.017,11.574-.024,16.671-.026,10.186-.047,18.43-.062,24.143-.006.714,0,1.383-.017,2.019a4.483,4.483,0,0,1-2.3,3.753,4.2,4.2,0,0,1-1.626.522,3.564,3.564,0,0,1-.582.022" transform="translate(-9.785 -2.033)" fill="#ebebeb"/>
        <path id="Trazado_626878" data-name="Trazado 626878" d="M94.348,63.627H49.129a3.355,3.355,0,0,1-3.355-3.355V30.044a3.355,3.355,0,0,1,3.355-3.355H94.348A3.355,3.355,0,0,1,97.7,30.044V60.272a3.355,3.355,0,0,1-3.355,3.355" transform="translate(-11.308 -6.594)" fill="#f5f5f5"/>
        <path id="Trazado_626879" data-name="Trazado 626879" d="M51.479,66.558,64.155,48.518a1.435,1.435,0,0,1,2.291-.076l8.71,10.8a1.436,1.436,0,0,0,2.112.134l5.1-4.9a1.436,1.436,0,0,1,2.092.111l10,11.871a1.435,1.435,0,0,1-1.1,2.36H52.653a1.435,1.435,0,0,1-1.175-2.26" transform="translate(-12.653 -11.836)" fill="#ebebeb"/>
        <path id="Trazado_626880" data-name="Trazado 626880" d="M87.084,40.407a4.414,4.414,0,1,1-3.661-3.662,4.417,4.417,0,0,1,3.661,3.662" transform="translate(-19.347 -9.065)" fill="#ebebeb"/>
        <path id="Trazado_626881" data-name="Trazado 626881" d="M668.818,233.054H635.377a4.448,4.448,0,0,1-4.448-4.448V198.958a4.448,4.448,0,0,1,4.448-4.448h33.441a4.448,4.448,0,0,1,4.448,4.448v29.647a4.448,4.448,0,0,1-4.448,4.448" transform="translate(-155.871 -48.054)" fill="#fff"/>
        <path id="Trazado_626882" data-name="Trazado 626882" d="M673.267,201.07H630.929v-1.989a4.57,4.57,0,0,1,4.57-4.57h33.557a4.21,4.21,0,0,1,4.21,4.21Z" transform="translate(-155.871 -48.054)" fill="#e0e0e0"/>
        <path id="Trazado_626883" data-name="Trazado 626883" d="M638.344,199.4a1.04,1.04,0,1,1-1.038-.977,1.009,1.009,0,0,1,1.038.977" transform="translate(-157.19 -49.02)" fill="#fff"/>
        <path id="Trazado_626884" data-name="Trazado 626884" d="M642.1,199.4a1.039,1.039,0,1,1-1.038-.977,1.009,1.009,0,0,1,1.038.977" transform="translate(-158.118 -49.02)" fill="#fff"/>
        <path id="Trazado_626885" data-name="Trazado 626885" d="M645.857,199.4a1.04,1.04,0,1,1-1.038-.977,1.009,1.009,0,0,1,1.038.977" transform="translate(-159.046 -49.02)" fill="#fff"/>
        <path id="Trazado_626886" data-name="Trazado 626886" d="M668.754,232.989a5.355,5.355,0,0,0,1.519-.314,4.4,4.4,0,0,0,2.758-3.227,7.226,7.226,0,0,0,.087-1.521q0-.812-.008-1.7-.008-1.781-.017-3.86c-.008-2.772-.018-5.926-.029-9.41s-.016-7.307-.024-11.4c-.013-1.017.02-2.086-.029-3.108a4.3,4.3,0,0,0-1.377-2.7c-1.586-1.594-4.068-1-6.325-1.113l-29.992.015a4.245,4.245,0,0,0-4.132,3.25,7.717,7.717,0,0,0-.125,1.894q0,3.886,0,7.652c0,5.017-.008,9.856-.011,14.466q0,3.455,0,6.733a4.229,4.229,0,0,0,1.136,2.812,4.276,4.276,0,0,0,2.622,1.345c4.058.074,7.907.033,11.384.057l16.514.063,4.49.037,1.168.019c.263.007.4.02.4.02s-.135.014-.4.02l-1.168.019-4.49.037-16.514.063c-3.494-.007-7.287.053-11.422-.012a4.617,4.617,0,0,1-4.065-4.472q-.007-3.279-.013-6.74c0-4.61-.007-9.45-.011-14.466q0-3.763,0-7.652a8.06,8.06,0,0,1,.135-1.986,4.638,4.638,0,0,1,4.512-3.55l29.992.016,3.413,0a4.633,4.633,0,0,1,4.622,4.14c.05,1.093.011,2.111.021,3.144-.009,4.1-.017,7.917-.024,11.4s-.02,6.637-.029,9.41q-.009,2.076-.017,3.86,0,.889-.008,1.7a7.346,7.346,0,0,1-.108,1.553,4.568,4.568,0,0,1-1.26,2.267,4.523,4.523,0,0,1-1.62,1,4.179,4.179,0,0,1-1.147.239c-.264.007-.4,0-.4,0" transform="translate(-155.807 -47.989)" fill="#e0e0e0"/>
        <path id="Trazado_626887" data-name="Trazado 626887" d="M667.736,232.8h-29.35a3.355,3.355,0,0,1-3.355-3.355V210.5a3.355,3.355,0,0,1,3.355-3.355h29.35a3.355,3.355,0,0,1,3.355,3.355v18.94a3.355,3.355,0,0,1-3.355,3.355" transform="translate(-156.884 -51.176)" fill="#f5f5f5"/>
        <path id="Trazado_626888" data-name="Trazado 626888" d="M638.992,234.833l8.8-12.528a1,1,0,0,1,1.592-.053l6.048,7.5a1,1,0,0,0,1.466.093l3.543-3.4a1,1,0,0,1,1.453.077l6.946,8.243a1,1,0,0,1-.762,1.639H639.807a1,1,0,0,1-.815-1.57" transform="translate(-157.818 -54.816)" fill="#ebebeb"/>
        <path id="Trazado_626889" data-name="Trazado 626889" d="M663.717,216.674a3.065,3.065,0,1,1-2.543-2.543,3.067,3.067,0,0,1,2.543,2.543" transform="translate(-162.466 -52.892)" fill="#ebebeb"/>
        <path id="Trazado_626890" data-name="Trazado 626890" d="M50.549,262.678H4.708A4.448,4.448,0,0,1,.26,258.23v-50.7a4.448,4.448,0,0,1,4.448-4.448h45.84A4.448,4.448,0,0,1,55,207.533v50.7a4.448,4.448,0,0,1-4.448,4.448" transform="translate(-0.064 -50.172)" fill="#fff"/>
        <path id="Trazado_626891" data-name="Trazado 626891" d="M55,213.225H.26v-5.571a4.57,4.57,0,0,1,4.57-4.57H50.787a4.21,4.21,0,0,1,4.21,4.21Z" transform="translate(-0.064 -50.172)" fill="#e0e0e0"/>
        <path id="Trazado_626892" data-name="Trazado 626892" d="M11.724,210.639a1.607,1.607,0,1,1-1.6-1.51,1.56,1.56,0,0,1,1.6,1.51" transform="translate(-2.104 -51.665)" fill="#fff"/>
        <path id="Trazado_626893" data-name="Trazado 626893" d="M17.532,210.639a1.607,1.607,0,1,1-1.6-1.51,1.56,1.56,0,0,1,1.6,1.51" transform="translate(-3.538 -51.665)" fill="#fff"/>
        <path id="Trazado_626894" data-name="Trazado 626894" d="M23.34,210.639a1.607,1.607,0,1,1-1.6-1.51,1.56,1.56,0,0,1,1.6,1.51" transform="translate(-4.973 -51.665)" fill="#fff"/>
        <path id="Trazado_626895" data-name="Trazado 626895" d="M50.485,262.614c0-.012.194-.012.566-.06a4.419,4.419,0,0,0,3.376-2.467,4.352,4.352,0,0,0,.425-1.646c.025-.611,0-1.278.005-1.974-.015-5.6-.036-13.692-.062-23.683-.008-5-.016-10.477-.024-16.355q-.008-4.406-.017-9.1a4.27,4.27,0,0,0-2.353-3.669,4.557,4.557,0,0,0-2.278-.456l-2.463,0-43.01.015A4.283,4.283,0,0,0,.573,206.24a10.118,10.118,0,0,0-.182,2.741v2.8q0,5.573,0,10.974c0,7.194-.008,14.134-.011,20.745q0,4.958-.008,9.661,0,2.348-.005,4.628a4.372,4.372,0,0,0,1.7,3.793,4.161,4.161,0,0,0,1.916.817,18.106,18.106,0,0,0,2.119.06l4.175.006,7.847.013,23.682.063,6.439.037,1.674.019c.377.007.571.02.571.02s-.194.014-.571.02l-1.674.02-6.439.036-23.682.063-7.847.013-4.175.006a18.057,18.057,0,0,1-2.168-.059,4.473,4.473,0,0,1-2.063-.873,4.7,4.7,0,0,1-1.837-4.052q0-2.278,0-4.628,0-4.7-.008-9.661c0-6.611-.008-13.551-.011-20.745q0-5.4,0-10.974,0-1.394,0-2.8v-1.406a5.087,5.087,0,0,1,.2-1.449,4.675,4.675,0,0,1,4.451-3.3l43.01.015,2.463,0a4.9,4.9,0,0,1,2.436.5,4.62,4.62,0,0,1,2.54,3.973q0,4.7,0,9.117c-.009,5.878-.017,11.354-.024,16.355-.026,9.991-.047,18.079-.062,23.683-.009.7.008,1.355-.023,1.983a4.494,4.494,0,0,1-2.332,3.644,4.274,4.274,0,0,1-1.6.5,3.752,3.752,0,0,1-.571.02" transform="translate(0 -50.108)" fill="#e0e0e0"/>
        <path id="Trazado_626896" data-name="Trazado 626896" d="M27.644,242.144l-13.759-13.97a19.608,19.608,0,1,1-4.957,19.818Z" transform="translate(-2.206 -54.982)" fill="#f5f5f5"/>
        <path id="Trazado_626897" data-name="Trazado 626897" d="M23.976,243.752l-16.334,4.9a17.048,17.048,0,0,1,4.207-16.883Z" transform="translate(-1.711 -57.257)" fill="#f5f5f5"/>
        <path id="Trazado_626898" data-name="Trazado 626898" d="M423.427,43.723h-33a5.362,5.362,0,0,1-5.362-5.362v-33A5.362,5.362,0,0,1,390.428,0h33a5.362,5.362,0,0,1,5.362,5.362v33a5.362,5.362,0,0,1-5.362,5.362" transform="translate(-95.13 0)" fill="#f5f5f5"/>
        <path id="Trazado_626899" data-name="Trazado 626899" d="M394.051,26.231l4.4-4.4,8.494,7.55,14.185-14.238,4.089,4.4-18.9,18.328Z" transform="translate(-97.35 -3.74)" fill="#fff"/>
        <path id="Trazado_626900" data-name="Trazado 626900" d="M579.993,35.543l-.529-29.882q.265,0,.529,0a29.887,29.887,0,1,1-28.527,38.8Z" transform="translate(-136.24 -1.397)" fill="#ebebeb"/>
        <path id="Trazado_626901" data-name="Trazado 626901" d="M576.349,33.646l-25.6,8.123a25.99,25.99,0,0,1,24.338-35.11q.343,0,.686.009Z" transform="translate(-135.653 -1.645)" fill="#ebebeb"/>
      </g>
    </g>
    <g id="Grupo_878458" data-name="Grupo 878458">
      <g id="Grupo_878457" data-name="Grupo 878457" clip-path="url(#clip-path)">
        <path id="Trazado_626902" data-name="Trazado 626902" d="M508.584,408.054c0,.108-110.962.2-247.809.2-136.895,0-247.833-.087-247.833-.2s110.938-.2,247.833-.2c136.847,0,247.809.087,247.809.2" transform="translate(-3.197 -100.761)" fill="#263238"/>
      </g>
    </g>
    <g id="Grupo_878460" data-name="Grupo 878460">
      <g id="Grupo_878459" data-name="Grupo 878459" clip-path="url(#clip-path)">
        <path id="Trazado_626903" data-name="Trazado 626903" d="M224.4,95.748h-68.3a4.448,4.448,0,0,1-4.448-4.448V29.916a4.448,4.448,0,0,1,4.448-4.448h68.3a4.448,4.448,0,0,1,4.448,4.448V91.3a4.448,4.448,0,0,1-4.448,4.448" transform="translate(-37.464 -6.292)" fill="#fff"/>
        <path id="Trazado_626904" data-name="Trazado 626904" d="M228.845,37.429h-77.2V30.039a4.57,4.57,0,0,1,4.57-4.57h68.418a4.21,4.21,0,0,1,4.21,4.21Z" transform="translate(-37.464 -6.292)" fill="#e0e0e0"/>
        <path id="Trazado_626905" data-name="Trazado 626905" d="M165.167,34.378a1.9,1.9,0,1,1-1.892-1.781,1.839,1.839,0,0,1,1.892,1.781" transform="translate(-39.87 -8.053)" fill="#fff"/>
        <path id="Trazado_626906" data-name="Trazado 626906" d="M172.016,34.378a1.9,1.9,0,1,1-1.892-1.781,1.839,1.839,0,0,1,1.892,1.781" transform="translate(-41.562 -8.053)" fill="#fff"/>
        <path id="Trazado_626907" data-name="Trazado 626907" d="M178.866,34.378a1.9,1.9,0,1,1-1.892-1.781,1.839,1.839,0,0,1,1.892,1.781" transform="translate(-43.254 -8.053)" fill="#fff"/>
        <path id="Trazado_626908" data-name="Trazado 626908" d="M162.922,49.73V92.72c0-.4,62.052,0,62.052,0" transform="translate(-40.25 -12.286)" fill="#fff"/>
        <path id="Trazado_626909" data-name="Trazado 626909" d="M224.907,92.72a1.389,1.389,0,0,1-.271.018l-.8.015-3.061.018-11.257,0-37.138-.025-5.369.033-2.626.04c-.432.012-.868.021-1.287.051l-.145.016-.019,0,0,0c.446-.011-.349-.224-.278-.172V91.671c0-3.419.008-6.718.011-9.861.016-6.28.03-11.937.042-16.7.026-4.735.047-8.575.062-11.256.016-1.311.028-2.337.037-3.061.008-.334.014-.6.02-.8a1.37,1.37,0,0,1,.02-.271,1.394,1.394,0,0,1,.02.271c0,.2.011.462.02.8.008.724.021,1.75.037,3.061.014,2.681.036,6.521.062,11.256.012,4.76.026,10.417.042,16.7,0,3.143.008,6.441.011,9.861v1.046c.066.072-.709-.172-.254-.184l.041-.013a.514.514,0,0,1,.06-.012l.176-.02c.442-.032.872-.041,1.309-.053l2.632-.044,5.373-.035c14.5-.032,27.634.064,37.139.14l11.257.123,3.061.055.8.024a1.375,1.375,0,0,1,.271.022" transform="translate(-40.182 -12.286)" fill="#263238"/>
        <rect id="Rectángulo_328273" data-name="Rectángulo 328273" width="13.24" height="17.245" transform="translate(128.992 58.361)" fill="#455a64"/>
        <rect id="Rectángulo_328274" data-name="Rectángulo 328274" width="13.24" height="26.469" transform="translate(146.974 49.137)" fill="#455a64"/>
        <rect id="Rectángulo_328275" data-name="Rectángulo 328275" width="13.24" height="34.195" transform="translate(164.956 41.411)" fill="#455a64"/>
        <path id="Trazado_626910" data-name="Trazado 626910" d="M224.329,95.685c0-.02.254,0,.735-.086a4.433,4.433,0,0,0,3.622-3.844c.061-1.383.007-3.01.016-4.823-.015-7.28-.036-17.8-.062-30.787-.008-6.5-.016-13.619-.024-21.26q0-1.433,0-2.891,0-.728,0-1.463a7.692,7.692,0,0,0-.073-1.44,4.286,4.286,0,0,0-4.042-3.506h-12.55l-55.911.015a4.25,4.25,0,0,0-3.148,1.394,4.383,4.383,0,0,0-1.111,3.26q0,3.672,0,7.3,0,7.245,0,14.265c0,9.353-.008,18.374-.012,26.969q0,6.442,0,12.554a4.275,4.275,0,0,0,3.446,4.1,7.241,7.241,0,0,0,1.438.083l1.463,0,2.891,0,21.261.024,30.785.063,8.37.036,2.177.02c.49.007.742.02.742.02s-.251.014-.742.02l-2.177.019-8.37.037-30.785.062-21.261.024-2.891,0-1.463,0a7.557,7.557,0,0,1-1.5-.087,4.614,4.614,0,0,1-3.726-4.417q-.007-6.109-.014-12.562c0-8.595-.008-17.616-.012-26.969q0-7.015,0-14.265,0-3.623,0-7.3A4.785,4.785,0,0,1,152.6,26.73a4.641,4.641,0,0,1,3.438-1.521l55.911.015q6.448.009,12.563.017a4.626,4.626,0,0,1,4.359,3.79,7.938,7.938,0,0,1,.076,1.5q0,.735,0,1.463,0,1.458,0,2.891c-.009,7.642-.017,14.76-.024,21.26-.026,12.992-.047,23.508-.062,30.787-.021,1.82.023,3.426-.052,4.836a4.494,4.494,0,0,1-1.737,3.019,4.334,4.334,0,0,1-1.995.85,3.3,3.3,0,0,1-.553.047c-.125,0-.187,0-.187,0" transform="translate(-37.397 -6.228)" fill="#263238"/>
      </g>
    </g>
    <g id="Grupo_878462" data-name="Grupo 878462">
      <g id="Grupo_878461" data-name="Grupo 878461" clip-path="url(#clip-path)">
        <path id="Trazado_626911" data-name="Trazado 626911" d="M634.295,148.85l-.992-6.866a23.139,23.139,0,1,1,7.045,4.369l.01.008Z" transform="translate(-154.583 -25.141)" fill="#fff"/>
        <path id="Trazado_626912" data-name="Trazado 626912" d="M640.061,128.824l3.482-3.482,6.716,5.97,11.215-11.258,3.234,3.482-14.947,14.492Z" transform="translate(-158.127 -29.659)" fill="#eb6f2d"/>
        <path id="Trazado_626913" data-name="Trazado 626913" d="M634.246,148.786s.141-.069.405-.184l1.166-.5,4.458-1.889-.02.159-.011-.008a.092.092,0,0,1,.088-.16,22.885,22.885,0,0,0,14.519.713c.594-.157,1.174-.4,1.777-.6a12.7,12.7,0,0,0,1.788-.746,22.729,22.729,0,0,0,6.773-4.82,22.835,22.835,0,0,0,3.231-27.6,23.254,23.254,0,0,0-3.339-4.375,23.724,23.724,0,0,0-9.478-5.793,23.053,23.053,0,0,0-5.368-.983,22.644,22.644,0,0,0-10.311,1.711,22.984,22.984,0,0,0-6.581,38.164c.3,2.22.524,3.936.681,5.118.073.569.13,1.01.17,1.329.038.3.051.466.051.466s-.03-.136-.078-.424l-.209-1.3c-.184-1.187-.453-2.906-.8-5.13l.03.056a22.992,22.992,0,0,1-6.306-9.34,23.307,23.307,0,0,1,12.872-29.341,23.056,23.056,0,0,1,10.507-1.757,23.476,23.476,0,0,1,5.475,1,23.015,23.015,0,0,1,13.067,10.37,23.3,23.3,0,0,1-3.345,28.1,23.015,23.015,0,0,1-6.9,4.863,12.916,12.916,0,0,1-1.818.748c-.614.2-1.2.438-1.806.594a23.527,23.527,0,0,1-3.529.678,23.157,23.157,0,0,1-11.141-1.526l.088-.16.01.008a.092.092,0,0,1,.021.128.1.1,0,0,1-.041.032l-4.555,1.811-1.16.453c-.258.1-.387.147-.383.14" transform="translate(-154.533 -25.076)" fill="#263238"/>
      </g>
    </g>
    <g id="Grupo_878464" data-name="Grupo 878464">
      <g id="Grupo_878463" data-name="Grupo 878463" clip-path="url(#clip-path)">
        <path id="Trazado_626914" data-name="Trazado 626914" d="M41.956,162.379l.166-6.862c5.959-6.846,8.017-17.42,1.976-28.8-21.085-22.329-52.842.407-38.5,27.565,9.629,10.232,21.44,11.04,30.113,6.355l-.009.008Z" transform="translate(-0.495 -29.07)" fill="#fff"/>
        <path id="Trazado_626915" data-name="Trazado 626915" d="M41.889,162.312s-.147-.051-.419-.133l-1.2-.355-4.6-1.332.038.154.009-.008a.091.091,0,0,0,0-.129.092.092,0,0,0-.11-.018,22.626,22.626,0,0,1-14.18,2.409c-.6-.084-1.2-.251-1.816-.377A12.52,12.52,0,0,1,17.765,162a22.484,22.484,0,0,1-7.222-3.938,22.6,22.6,0,0,1-6.423-26.74,23.033,23.033,0,0,1,2.766-4.691,23.467,23.467,0,0,1,8.63-6.807,22.814,22.814,0,0,1,5.158-1.6A22.411,22.411,0,0,1,31,118.695a22.743,22.743,0,0,1,10.958,36.72c-.029,2.217-.052,3.928-.068,5.108,0,.568-.008,1.007-.011,1.326,0,.3,0,.464,0,.464s.014-.137.026-.426c.013-.312.03-.743.053-1.3.042-1.187.1-2.908.18-5.134l-.023.059a22.751,22.751,0,0,0,5.1-9.919,23.06,23.06,0,0,0-16.1-27.31,22.8,22.8,0,0,0-10.53-.49,23.243,23.243,0,0,0-5.261,1.626A22.777,22.777,0,0,0,3.714,131.145a23.053,23.053,0,0,0,6.593,27.209,22.76,22.76,0,0,0,7.354,3.967,12.8,12.8,0,0,0,1.874.52c.626.123,1.233.29,1.844.371a23.259,23.259,0,0,0,3.547.251,22.923,22.923,0,0,0,10.766-2.811l-.106-.146-.009.008a.091.091,0,0,0-.005.128.1.1,0,0,0,.043.026l4.689,1.243,1.193.309a3.8,3.8,0,0,0,.393.093" transform="translate(-0.428 -29.003)" fill="#263238"/>
        <path id="Trazado_626916" data-name="Trazado 626916" d="M42.251,145.533a2.884,2.884,0,0,0,4.076,4.076,2.884,2.884,0,0,0-4.076-4.076" transform="translate(-10.254 -35.77)" fill="#263238"/>
        <path id="Trazado_626917" data-name="Trazado 626917" d="M29.39,145.533a2.884,2.884,0,0,0,4.076,4.076,2.884,2.884,0,0,0-4.076-4.076" transform="translate(-7.077 -35.77)" fill="#263238"/>
        <path id="Trazado_626918" data-name="Trazado 626918" d="M16.53,145.533a2.885,2.885,0,0,0,4.076,4.077,2.885,2.885,0,0,0-4.076-4.077" transform="translate(-3.9 -35.77)" fill="#263238"/>
      </g>
    </g>
    <g id="Grupo_878475" data-name="Grupo 878475">
      <g id="Grupo_878474" data-name="Grupo 878474" clip-path="url(#clip-path)">
        <path id="Trazado_626919" data-name="Trazado 626919" d="M180.593,248.893l-14.731-3.972-2.931,13.332-7.355-20.108c-3.429-9.613-8.121-12.924-11.357-13.82l-1.17,1.523,3.1,53.185,9.822,12.216c4.593,5.713,13.86,4.589,16.515-2.242,5.515-14.192,7.388-35.792,8.108-40.113" transform="translate(-35.34 -55.419)" fill="#eb6f2d"/>
        <path id="Trazado_626920" data-name="Trazado 626920" d="M55.1,389.377h73.7l-7.725-52.915L74.1,333.1s-8.1,7.942-10.787,17.267-8.217,39.01-8.217,39.01" transform="translate(-13.612 -82.292)" fill="#263238"/>
        <path id="Trazado_626921" data-name="Trazado 626921" d="M67.875,164.165c1.74-15.7,5.163-32.982,27.539-32.118,0,0,16.853.588,22.217,12.567,2.9,6.485,2.086,31.124,3.417,51.436l3.27,26.066L56.648,211.66s10.145-37.734,11.227-47.5" transform="translate(-13.995 -32.614)" fill="#263238"/>
        <path id="Trazado_626922" data-name="Trazado 626922" d="M105.735,139.891l-1.44-1.285L89.4,145.185a4.215,4.215,0,0,0-3.844,4.209l3.406,49.948c.09,3.336-.8,5.423,1.3,8.015l14.433,17.266c5.043,6.222,4.134-7.811,7.731-14.967.251-.5-.967-2.293-.9-2.644a9.976,9.976,0,0,0,.188-1.108c.319-3.971.232-7.4.232-7.4.126-4.353.157-6.138.159-6.1,0,0,9.209-1.367,11.318-13.314,1.049-5.942.547-14.053-.064-22.032-.847-11.042-8.736-17.47-17.624-17.167" transform="translate(-21.137 -34.243)" fill="#ffc09d"/>
        <path id="Trazado_626923" data-name="Trazado 626923" d="M111.493,174.732a1.537,1.537,0,0,1-1.508,1.525,1.47,1.47,0,0,1-1.56-1.413,1.537,1.537,0,0,1,1.507-1.525,1.471,1.471,0,0,1,1.562,1.413" transform="translate(-26.786 -42.818)" fill="#263238"/>
        <path id="Trazado_626924" data-name="Trazado 626924" d="M131.157,174.533a1.537,1.537,0,0,1-1.508,1.525,1.47,1.47,0,0,1-1.56-1.413,1.538,1.538,0,0,1,1.507-1.525,1.47,1.47,0,0,1,1.562,1.413" transform="translate(-31.644 -42.769)" fill="#263238"/>
        <path id="Trazado_626925" data-name="Trazado 626925" d="M131.811,166.833c-.194.2-1.343-.684-3-.709-1.651-.048-2.879.782-3.055.576-.087-.091.114-.45.648-.825a4.227,4.227,0,0,1,2.45-.709,4.051,4.051,0,0,1,2.381.815c.5.4.668.764.572.852" transform="translate(-31.064 -40.804)" fill="#263238"/>
        <path id="Trazado_626926" data-name="Trazado 626926" d="M109.587,167.684c-.214.176-1.268-.819-2.909-1.013-1.638-.218-2.945.482-3.1.26-.076-.1.157-.436.73-.754a4.222,4.222,0,0,1,2.51-.454,4.055,4.055,0,0,1,2.285,1.055c.456.448.585.829.482.907" transform="translate(-25.586 -40.934)" fill="#263238"/>
        <path id="Trazado_626927" data-name="Trazado 626927" d="M119.57,179.52a10.96,10.96,0,0,1,2.693-.438c.423-.036.824-.113.9-.4a2.148,2.148,0,0,0-.261-1.257q-.569-1.543-1.193-3.236c-1.655-4.607-2.845-8.393-2.659-8.458s1.679,3.617,3.334,8.224q.6,1.7,1.14,3.255a2.444,2.444,0,0,1,.191,1.661,1.063,1.063,0,0,1-.7.605,2.892,2.892,0,0,1-.719.087,10.755,10.755,0,0,1-2.722-.044" transform="translate(-29.407 -40.944)" fill="#263238"/>
        <path id="Trazado_626928" data-name="Trazado 626928" d="M115.575,208.561A30.49,30.49,0,0,1,99.6,204s3.891,8.363,15.9,7.449Z" transform="translate(-24.607 -50.399)" fill="#ff9b6c"/>
        <path id="Trazado_626929" data-name="Trazado 626929" d="M110.893,159.178c-.215.427-1.83.019-3.783.02-1.955-.038-3.576.34-3.784-.091-.091-.206.23-.593.91-.949a6.584,6.584,0,0,1,5.765.053c.672.37.986.763.891.967" transform="translate(-25.523 -38.915)" fill="#263238"/>
        <path id="Trazado_626930" data-name="Trazado 626930" d="M131.332,157.393c-.3.37-1.43-.039-2.8-.081-1.368-.09-2.534.209-2.794-.188-.114-.193.075-.566.588-.913a4.056,4.056,0,0,1,4.506.217c.477.395.63.784.5.965" transform="translate(-31.056 -38.448)" fill="#263238"/>
        <path id="Trazado_626931" data-name="Trazado 626931" d="M85.9,170.1s8.541,2.354,12.64-18.669c1.4-7.189,7.826-13.184,7.826-13.184l-2.709-.718S87.141,142.777,86.868,143s-3.923,8.761-3.923,8.761Z" transform="translate(-20.492 -33.978)" fill="#263238"/>
        <path id="Trazado_626932" data-name="Trazado 626932" d="M86.785,178.585c.014-.892-.982-3.013-1.861-3.166-2.347-.407-6.591-.291-6.734,5.683-.2,8.168,8.045,6.679,8.066,6.445.016-.182.483-5.881.529-8.962" transform="translate(-19.316 -43.303)" fill="#ffc09d"/>
        <path id="Trazado_626933" data-name="Trazado 626933" d="M84.516,185.251c-.035-.027-.145.1-.388.2a1.424,1.424,0,0,1-1.064,0c-.855-.337-1.55-1.724-1.554-3.2a4.694,4.694,0,0,1,.447-2.028,1.641,1.641,0,0,1,1.1-1.066.725.725,0,0,1,.831.41c.1.231.048.393.091.407.022.022.178-.132.12-.471a.907.907,0,0,0-.309-.52,1.076,1.076,0,0,0-.782-.227,2,2,0,0,0-1.516,1.231,4.829,4.829,0,0,0-.547,2.265c.013,1.647.818,3.208,1.992,3.577a1.523,1.523,0,0,0,1.306-.185c.258-.2.3-.376.277-.392" transform="translate(-19.996 -44.161)" fill="#ff9b6c"/>
        <path id="Trazado_626934" data-name="Trazado 626934" d="M94.315,166.425a11.906,11.906,0,0,0,1.213-.287,7.366,7.366,0,0,0,2.848-1.78,10.073,10.073,0,0,0,1.455-1.823,13.636,13.636,0,0,0,1.154-2.424,51.024,51.024,0,0,0,1.562-5.986c.5-2.146,1.058-4.174,1.681-5.982a34.114,34.114,0,0,1,1.973-4.676,24.436,24.436,0,0,1,1.773-2.925c.23-.333.432-.574.56-.742a1.877,1.877,0,0,1,.209-.248,1.813,1.813,0,0,1-.174.273c-.117.178-.308.426-.526.764a27.939,27.939,0,0,0-1.706,2.948,35.766,35.766,0,0,0-1.92,4.671c-.61,1.8-1.157,3.826-1.659,5.966a49.036,49.036,0,0,1-1.586,6.007,13.625,13.625,0,0,1-1.188,2.449,10.107,10.107,0,0,1-1.5,1.838,7.235,7.235,0,0,1-2.929,1.751,4.536,4.536,0,0,1-1.239.206" transform="translate(-23.3 -34.476)" fill="#263238"/>
        <path id="Trazado_626935" data-name="Trazado 626935" d="M79.469,200.661a2.3,2.3,0,0,1-.1-.391c-.061-.285-.142-.667-.244-1.153-.208-1.041-.5-2.522-.879-4.4l.2-.035c.05.294.108.621.166.958l-.01-.03.182.361-.2.081a78.632,78.632,0,0,1-3.046-13.038,79.705,79.705,0,0,1-.777-8.473,38.881,38.881,0,0,1,.5-9.333,14.655,14.655,0,0,1,1.361-3.75,20.215,20.215,0,0,1,2.151-3.214c1.595-1.97,3.327-3.675,4.9-5.364l8.47-8.9L97.875,138l1.573-1.612.416-.413a.793.793,0,0,1,.151-.132.843.843,0,0,1-.123.157l-.389.438L97.98,138.1l-5.647,6.059-8.412,8.953c-1.571,1.7-3.3,3.409-4.869,5.356a16.088,16.088,0,0,0-3.433,6.816,38.933,38.933,0,0,0-.5,9.239,81.269,81.269,0,0,0,.743,8.439,82.167,82.167,0,0,0,2.927,13.019l-.2.082c-.062-.127-.124-.254-.177-.363l-.008-.015,0-.015c-.053-.338-.1-.666-.151-.961l.2-.035c.337,1.888.6,3.375.788,4.419.081.489.145.875.193,1.162a2.279,2.279,0,0,1,.048.4" transform="translate(-18.454 -33.561)" fill="#455a64"/>
        <path id="Trazado_626936" data-name="Trazado 626936" d="M81.159,193.12a3.359,3.359,0,1,0,3.247-3.467,3.359,3.359,0,0,0-3.247,3.467" transform="translate(-20.05 -46.853)" fill="#455a64"/>
        <path id="Trazado_626937" data-name="Trazado 626937" d="M146.613,241.514a3.856,3.856,0,0,1,.124.771c.061.57.14,1.307.238,2.223.212,1.931.406,4.734.587,8.2.356,6.936.348,16.536,0,27.118s-.629,20.159-.535,27.091c.037,3.465.1,6.271.192,8.206.029.919.053,1.66.071,2.233a3.78,3.78,0,0,1-.016.782,3.757,3.757,0,0,1-.105-.773c-.047-.571-.108-1.31-.184-2.228-.161-1.934-.292-4.742-.384-8.212-.2-6.942.013-16.536.357-27.116s.423-20.154.177-27.082c-.126-3.463-.255-6.266-.395-8.2-.052-.919-.093-1.659-.125-2.231a3.731,3.731,0,0,1,0-.782" transform="translate(-36.198 -59.666)" fill="#263238"/>
        <path id="Trazado_626938" data-name="Trazado 626938" d="M73.185,238.477l8.238,65.114,44.56,3.193,2.885,1.471-2.941-53.8-15.471-36.783-1.554-.946s-1.3,10.873-5.484,10.69c-2.854-.125-13.636-5.244-16.007-6.835l-2.379-6.924Z" transform="translate(-18.08 -52.783)" fill="#fff"/>
        <path id="Trazado_626939" data-name="Trazado 626939" d="M56.565,315.656l9.476-21.732-9.179-69.558,15.98-6.7,5.235-5.648s4.857,17.944,6.374,24.229,5.854,20.1,7.791,32.491-.571,35.843-2.495,43.771-9.71,47.161-9.71,47.161H44.266s5.78-30.262,12.3-44.016" transform="translate(-10.936 -52.38)" fill="#eb6f2d"/>
        <path id="Trazado_626940" data-name="Trazado 626940" d="M120.763,212.6l3.79,3.863,14.121,4.965s4.159,16.288,4.323,21.306-.077,60.721.009,63.34,10.008,51.323,9.207,53.534h-9.68s-5.2-40.023-5.544-50.5-1.626-36.208-4.224-48.793S120.6,216.782,120.6,216.782Z" transform="translate(-29.795 -52.523)" fill="#eb6f2d"/>
        <path id="Trazado_626941" data-name="Trazado 626941" d="M138.712,316.219a.931.931,0,0,1-.029-.261c-.008-.2-.017-.456-.028-.764-.014-.718-.032-1.7-.055-2.94-.026-2.6-.063-6.283-.109-10.812-.086-9.129-.132-21.743-.362-35.666-.041-1.74-.073-3.461-.144-5.15-.045-1.677-.287-3.331-.466-4.967-.37-3.264-.734-6.409-1.138-9.4s-.839-5.82-1.376-8.441a36.174,36.174,0,0,0-2.269-7.054,92.342,92.342,0,0,0-4.893-9.611l-1.489-2.532-.389-.659a.97.97,0,0,1-.118-.233.894.894,0,0,1,.166.2l.435.629c.374.559.916,1.39,1.58,2.482a82.717,82.717,0,0,1,5.069,9.565,36,36,0,0,1,2.359,7.115c.56,2.635,1.014,5.474,1.432,8.466s.794,6.141,1.172,9.4c.182,1.628.428,3.287.478,5,.072,1.7.105,3.421.146,5.164.23,13.933.214,26.545.2,35.676-.028,4.529-.051,8.211-.068,10.813-.021,1.24-.038,2.222-.05,2.94-.011.308-.02.559-.027.764a.928.928,0,0,1-.029.261" transform="translate(-31.091 -53.79)" fill="#263238"/>
        <path id="Trazado_626942" data-name="Trazado 626942" d="M100.916,297.483a3.91,3.91,0,0,1-.148-.78c-.074-.514-.168-1.275-.267-2.256-.192-1.963-.41-4.812-.465-8.34-.03-1.763-.017-3.7.055-5.771a25.085,25.085,0,0,0-1.031-6.447,106.364,106.364,0,0,0-5.491-14.14c-2.263-4.907-4.591-9.508-6.746-13.676a56.264,56.264,0,0,1-2.887-6.024,51.51,51.51,0,0,1-1.608-5.57c-.814-3.441-1.288-6.259-1.6-8.206-.152-.974-.258-1.733-.32-2.248a4.008,4.008,0,0,1-.065-.791,4.388,4.388,0,0,1,.176.774l.423,2.23c.378,1.934.91,4.738,1.769,8.154a53.535,53.535,0,0,0,1.66,5.507,57.793,57.793,0,0,0,2.912,5.953c2.181,4.159,4.528,8.761,6.8,13.68a102.666,102.666,0,0,1,5.475,14.229,25.1,25.1,0,0,1,1,6.591c-.09,2.067-.127,3.992-.123,5.751,0,3.518.163,6.363.287,8.328.068.941.122,1.693.163,2.261a4.641,4.641,0,0,1,.036.792" transform="translate(-19.847 -55.15)" fill="#263238"/>
        <path id="Trazado_626943" data-name="Trazado 626943" d="M147.721,237.455a3.864,3.864,0,0,1,.39.663c.251.439.57,1.111.965,1.985a39.948,39.948,0,0,1,2.416,7.745,58.928,58.928,0,0,1,1.166,11.976c-.017,4.535-.37,9.5-.823,14.7-.963,10.39-1.57,19.8-1.774,26.636-.12,3.415-.189,6.179-.23,8.09-.028.91-.05,1.641-.066,2.2a3.884,3.884,0,0,1-.062.767,3.987,3.987,0,0,1-.052-.768c-.01-.559-.023-1.291-.039-2.2-.026-1.912-.019-4.68.05-8.1.1-6.838.648-16.285,1.611-26.673.453-5.192.821-10.145.865-14.651a61.031,61.031,0,0,0-1.038-11.9,43.741,43.741,0,0,0-2.228-7.74c-.363-.881-.648-1.565-.865-2.018a3.974,3.974,0,0,1-.288-.714" transform="translate(-36.494 -58.663)" fill="#263238"/>
        <path id="Trazado_626944" data-name="Trazado 626944" d="M112.131,187.922a4.8,4.8,0,0,0-.51,2.787,2.293,2.293,0,0,0,.559,1.509,1.951,1.951,0,0,0,1.427.526,3.9,3.9,0,0,0,1.5-.389,5.325,5.325,0,0,0,2.031-2.6c-1.314-.455-3.628-1.4-5.011-1.836" transform="translate(-27.573 -46.426)" fill="#ff9b6c"/>
        <path id="Trazado_626945" data-name="Trazado 626945" d="M115.3,192.138a2.1,2.1,0,0,1-1.831.654,2.646,2.646,0,0,1-.992-.277,1.929,1.929,0,0,1-.84-.864,2.653,2.653,0,0,1-.274-1.285,7.317,7.317,0,0,1,.151-1.355,5.479,5.479,0,0,1,.383-1.253l.074-.157.157.059c1.428.532,2.674,1.014,3.559,1.375a6.757,6.757,0,0,1,1.394.645,6.705,6.705,0,0,1-1.474-.407c-.906-.3-2.165-.732-3.595-1.246l.23-.1a5.445,5.445,0,0,0-.343,1.158,3.969,3.969,0,0,0,.062,2.4,1.894,1.894,0,0,0,1.538,1.027,2.874,2.874,0,0,0,1.33-.176,4.452,4.452,0,0,1,.472-.2" transform="translate(-27.513 -46.347)" fill="#263238"/>
        <path id="Trazado_626946" data-name="Trazado 626946" d="M413.229,344.444H180.143a11.519,11.519,0,0,1-11.519-11.519V161.9a11.518,11.518,0,0,1,11.519-11.519H413.229A11.518,11.518,0,0,1,424.747,161.9V332.925a11.518,11.518,0,0,1-11.519,11.519" transform="translate(-41.659 -37.151)" fill="#fff"/>
        <path id="Trazado_626947" data-name="Trazado 626947" d="M424.846,176.577H168.624V161.73a11.35,11.35,0,0,1,11.351-11.35h233a11.868,11.868,0,0,1,11.869,11.867Z" transform="translate(-41.659 -37.151)" fill="#e0e0e0"/>
        <path id="Trazado_626948" data-name="Trazado 626948" d="M413.164,344.379s.192-.017.571-.039c.19-.016.428-.014.708-.051l.976-.154c.365-.086.773-.193,1.221-.319a12.421,12.421,0,0,0,1.419-.573,11.147,11.147,0,0,0,3.15-2.2,11.263,11.263,0,0,0,2.653-4.07l.234-.642c.069-.22.117-.449.178-.676a10.524,10.524,0,0,0,.265-1.419,27.8,27.8,0,0,0,.086-3.082c-.005-4.289-.011-9.236-.018-14.807-.015-22.284-.036-54.523-.062-94.359q-.006-14.94-.013-31.266,0-8.154-.005-16.633,0-4.238,0-8.554c-.015-1.434.031-2.894-.033-4.326a11.326,11.326,0,0,0-7.257-9.965,11.8,11.8,0,0,0-4.329-.763l-4.521,0-18.437,0-38.486.008-171.362.016a11.309,11.309,0,0,0-9.455,5.066,11.531,11.531,0,0,0-1.835,5.189c-.066.917-.056,1.862-.054,2.8v2.817q0,11.259,0,22.364,0,22.206,0,43.723c0,28.666-.008,56.316-.011,82.656q0,4.939,0,9.815,0,2.438,0,4.861a37.448,37.448,0,0,0,.146,4.793,11.289,11.289,0,0,0,9.209,9.423,28.9,28.9,0,0,0,4.655.186l36.3.01,65.163.024,94.354.062,25.652.036,6.671.02c1.5.007,2.273.02,2.273.02s-.77.014-2.273.02l-6.671.019-25.652.037-94.354.063-65.163.024-36.3.01a29.119,29.119,0,0,1-4.715-.189,11.64,11.64,0,0,1-9.5-9.712,37.7,37.7,0,0,1-.152-4.847q0-2.423,0-4.861,0-4.877,0-9.815c0-26.34-.008-53.99-.011-82.656q0-21.5,0-43.723,0-11.1,0-22.364v-2.817c0-.939-.013-1.876.056-2.838a11.925,11.925,0,0,1,1.9-5.37,11.707,11.707,0,0,1,9.782-5.241l171.362.015,38.486.008,18.437.005H412.9a12.157,12.157,0,0,1,4.448.788,11.654,11.654,0,0,1,7.46,10.257c.063,1.467.017,2.9.03,4.343q0,4.316,0,8.554,0,8.476-.006,16.633-.007,16.308-.013,31.266c-.026,39.836-.047,72.075-.062,94.359-.007,5.57-.013,10.518-.018,14.807a27.882,27.882,0,0,1-.1,3.095,10.8,10.8,0,0,1-.272,1.431c-.062.23-.113.46-.183.681s-.16.434-.239.647a11.307,11.307,0,0,1-2.689,4.092,11.138,11.138,0,0,1-3.179,2.2,12.292,12.292,0,0,1-1.43.568c-.45.124-.861.227-1.227.31l-.98.145c-.282.034-.52.029-.71.041-.381.016-.573.019-.573.019" transform="translate(-41.594 -37.087)" fill="#263238"/>
        <path id="Trazado_626949" data-name="Trazado 626949" d="M188.963,168.88a3,3,0,1,1-3-3,3,3,0,0,1,3,3" transform="translate(-45.201 -40.98)" fill="#fff"/>
        <path id="Trazado_626950" data-name="Trazado 626950" d="M200.916,168.88a3,3,0,1,1-3-3,3,3,0,0,1,3,3" transform="translate(-48.153 -40.98)" fill="#fff"/>
        <path id="Trazado_626951" data-name="Trazado 626951" d="M212.869,168.88a3,3,0,1,1-3-3,3,3,0,0,1,3,3" transform="translate(-51.106 -40.98)" fill="#fff"/>
        <path id="Trazado_626952" data-name="Trazado 626952" d="M201.714,225.042a16.917,16.917,0,0,1,4.124-1.792l.85-4.083,6.9-.12.992,4.049a16.908,16.908,0,0,1,4.186,1.647l3.485-2.285,4.963,4.793-2.161,3.563a16.914,16.914,0,0,1,1.793,4.125l4.082.85.121,6.9-4.049.993a16.932,16.932,0,0,1-1.647,4.185l2.284,3.486-4.791,4.963-3.564-2.161a16.879,16.879,0,0,1-4.125,1.792l-.85,4.082-6.9.121-.993-4.05a16.913,16.913,0,0,1-4.185-1.647l-3.486,2.285-4.963-4.792,2.16-3.564a16.88,16.88,0,0,1-1.792-4.125l-4.083-.85-.121-6.9,4.05-.992a16.89,16.89,0,0,1,1.647-4.185l-2.285-3.486,4.792-4.963Zm3.677,9.189a7.4,7.4,0,1,0,10.465-.184,7.4,7.4,0,0,0-10.465.184" transform="translate(-46.926 -54.115)" fill="#ebebeb"/>
        <path id="Trazado_626953" data-name="Trazado 626953" d="M459.969,329.118a10.2,10.2,0,0,1,2.491-1.083l.513-2.467,4.167-.073.6,2.446a10.219,10.219,0,0,1,2.528.995l2.106-1.38,3,2.9-1.306,2.153a10.177,10.177,0,0,1,1.083,2.492l2.466.513.073,4.167-2.446.6a10.166,10.166,0,0,1-.995,2.528l1.38,2.106-2.894,3-2.153-1.306a10.188,10.188,0,0,1-2.492,1.083l-.513,2.467-4.167.073-.6-2.446a10.224,10.224,0,0,1-2.528-.995l-2.106,1.38-3-2.9,1.306-2.153a10.206,10.206,0,0,1-1.083-2.492l-2.466-.513-.073-4.167,2.446-.6a10.224,10.224,0,0,1,.995-2.528l-1.38-2.106,2.894-3Zm2.221,5.551a4.471,4.471,0,1,0,6.322-.111,4.47,4.47,0,0,0-6.322.111" transform="translate(-111.879 -80.414)" fill="#ebebeb"/>
        <path id="Trazado_626954" data-name="Trazado 626954" d="M313.635,326.557a16.916,16.916,0,0,1,4.124-1.792l.85-4.083,6.9-.12.992,4.05a16.858,16.858,0,0,1,4.185,1.646l3.486-2.285,4.963,4.793-2.161,3.563a16.907,16.907,0,0,1,1.793,4.126l4.082.849.121,6.9-4.049.993a16.932,16.932,0,0,1-1.647,4.185l2.284,3.486-4.791,4.963-3.564-2.161a16.882,16.882,0,0,1-4.125,1.792l-.85,4.082-6.9.121-.993-4.05a16.9,16.9,0,0,1-4.185-1.647l-3.486,2.285-4.963-4.792,2.16-3.564a16.879,16.879,0,0,1-1.792-4.125l-4.083-.85-.121-6.9,4.05-.992a16.9,16.9,0,0,1,1.647-4.185l-2.285-3.486,4.792-4.963Zm3.677,9.189a7.4,7.4,0,1,0,10.465-.184,7.4,7.4,0,0,0-10.465.184" transform="translate(-74.576 -79.195)" fill="#e0e0e0"/>
        <path id="Trazado_626955" data-name="Trazado 626955" d="M366.04,361.523a9.7,9.7,0,0,1,2.366-1.028l.487-2.342,3.957-.069.57,2.324a9.687,9.687,0,0,1,2.4.944l2-1.311,2.847,2.749-1.239,2.044a9.693,9.693,0,0,1,1.029,2.367l2.342.487.069,3.957-2.323.57a9.688,9.688,0,0,1-.945,2.4l1.311,2-2.748,2.847-2.045-1.239a9.67,9.67,0,0,1-2.366,1.028l-.488,2.342-3.957.069-.569-2.324a9.7,9.7,0,0,1-2.4-.944l-2,1.311-2.848-2.749,1.24-2.044a9.677,9.677,0,0,1-1.029-2.367l-2.342-.487-.07-3.957,2.324-.57a9.717,9.717,0,0,1,.944-2.4l-1.31-2,2.748-2.847Zm2.109,5.271a4.245,4.245,0,1,0,6-.105,4.246,4.246,0,0,0-6,.105" transform="translate(-88.762 -88.465)" fill="#ebebeb"/>
        <path id="Trazado_626956" data-name="Trazado 626956" d="M252.86,360.227a6.079,6.079,0,0,1,1.492-.648l.307-1.477,2.5-.044.359,1.465a6.086,6.086,0,0,1,1.513.6l1.261-.827,1.8,1.733-.782,1.289a6.1,6.1,0,0,1,.648,1.492l1.477.307.044,2.5-1.465.359a6.129,6.129,0,0,1-.6,1.513l.826,1.261-1.733,1.795-1.289-.781a6.1,6.1,0,0,1-1.492.648l-.307,1.477-2.5.044-.359-1.464a6.149,6.149,0,0,1-1.513-.6l-1.261.826-1.8-1.733.782-1.289a6.081,6.081,0,0,1-.648-1.492l-1.477-.307-.044-2.5,1.465-.359a6.117,6.117,0,0,1,.6-1.513l-.827-1.261,1.733-1.8Zm1.33,3.323a2.677,2.677,0,1,0,3.785-.066,2.677,2.677,0,0,0-3.785.066" transform="translate(-61.417 -88.458)" fill="#f5f5f5"/>
        <path id="Trazado_626957" data-name="Trazado 626957" d="M412.095,222.32a16.916,16.916,0,0,1,4.124-1.792l.85-4.083,6.9-.12.992,4.049a16.908,16.908,0,0,1,4.186,1.647l3.485-2.285,4.963,4.793-2.161,3.563a16.915,16.915,0,0,1,1.793,4.125l4.082.85.121,6.9-4.049.993a16.933,16.933,0,0,1-1.647,4.185l2.284,3.486-4.791,4.963-3.564-2.161a16.881,16.881,0,0,1-4.125,1.792l-.85,4.082-6.9.121-.993-4.05a16.914,16.914,0,0,1-4.185-1.647l-3.486,2.285-4.963-4.792,2.16-3.564a16.908,16.908,0,0,1-1.792-4.125l-4.082-.85-.121-6.9,4.05-.992a16.89,16.89,0,0,1,1.647-4.185l-2.285-3.486,4.792-4.963Zm3.677,9.189a7.4,7.4,0,1,0,10.464-.184,7.4,7.4,0,0,0-10.464.184" transform="translate(-98.901 -53.443)" fill="#ebebeb"/>
        <path id="Trazado_626958" data-name="Trazado 626958" d="M219.23,341.565a8.854,8.854,0,0,1,2.159-.939l.445-2.137,3.611-.064.52,2.12a8.847,8.847,0,0,1,2.191.862l1.826-1.2,2.6,2.509-1.131,1.866a8.828,8.828,0,0,1,.938,2.16l2.138.445.063,3.611-2.12.52a8.857,8.857,0,0,1-.862,2.191l1.2,1.825-2.509,2.6-1.866-1.131a8.85,8.85,0,0,1-2.159.938l-.445,2.137-3.611.064-.52-2.121a8.849,8.849,0,0,1-2.19-.861l-1.825,1.2-2.6-2.508,1.131-1.866a8.826,8.826,0,0,1-.938-2.16l-2.138-.444-.063-3.612,2.12-.52a8.857,8.857,0,0,1,.862-2.191l-1.2-1.825,2.509-2.6Zm1.925,4.811a3.874,3.874,0,1,0,5.478-.1,3.874,3.874,0,0,0-5.478.1" transform="translate(-52.639 -83.608)" fill="#f5f5f5"/>
        <path id="Trazado_626959" data-name="Trazado 626959" d="M211.585,325.177a45.2,45.2,0,0,1-13.709-5.47l7.689-17.922A48.122,48.122,0,0,0,216.9,306.63a43.082,43.082,0,0,0,12.04,1.824q4.956,0,7.082-.989a3.173,3.173,0,0,0,2.125-2.97q0-2.29-2.782-3.439a58.658,58.658,0,0,0-9.157-2.5,101.417,101.417,0,0,1-13.659-3.8,23.242,23.242,0,0,1-9.511-6.669q-4.048-4.634-4.047-12.555a22.076,22.076,0,0,1,3.744-12.5,24.842,24.842,0,0,1,11.18-8.857q7.436-3.228,18.06-3.23a63.792,63.792,0,0,1,14.316,1.615,44.094,44.094,0,0,1,12.394,4.741L251.5,275.111q-10.422-5.417-19.73-5.418-9.207,0-9.206,4.584,0,2.189,2.732,3.283a56.412,56.412,0,0,0,9,2.344,90.565,90.565,0,0,1,13.659,3.595,23.737,23.737,0,0,1,9.662,6.617q4.1,4.585,4.1,12.5a21.845,21.845,0,0,1-3.744,12.452,25.3,25.3,0,0,1-11.18,8.857q-7.436,3.281-18.06,3.281a72.247,72.247,0,0,1-17.149-2.031" transform="translate(-48.885 -61.994)" fill="#ffb338"/>
        <path id="Trazado_626960" data-name="Trazado 626960" d="M350.954,307.542v18.547H292.07V253.151h57.568V271.7h-34.1v8.544h29.949v17.714H315.542v9.585Z" transform="translate(-72.156 -62.541)" fill="#ffb338"/>
        <path id="Trazado_626961" data-name="Trazado 626961" d="M419.768,288.127l-26.374-27.578a37.569,37.569,0,0,1,10.9-7.7c18.79-8.742,41.237-.011,49.725,19.341s.01,42.468-18.781,51.21-41.237.01-49.725-19.341a39.463,39.463,0,0,1-1.622-4.39Z" transform="translate(-94.841 -61.628)" fill="#ffb338"/>
        <path id="Trazado_626962" data-name="Trazado 626962" d="M419.207,291.718l-35.875,11.544a39.794,39.794,0,0,1-1.711-11.544,39.293,39.293,0,0,1,11.619-27.985Z" transform="translate(-94.279 -65.155)" fill="#ff725e"/>
        <g id="Grupo_878467" data-name="Grupo 878467" transform="translate(287.342 198.579)" opacity="0.3">
          <g id="Grupo_878466" data-name="Grupo 878466">
            <g id="Grupo_878465" data-name="Grupo 878465" clip-path="url(#clip-path-8)">
              <path id="Trazado_626963" data-name="Trazado 626963" d="M419.207,291.718l-35.875,11.544a39.794,39.794,0,0,1-1.711-11.544,39.293,39.293,0,0,1,11.619-27.985Z" transform="translate(-381.622 -263.734)" fill="#eb6f2d"/>
            </g>
          </g>
        </g>
        <path id="Trazado_626964" data-name="Trazado 626964" d="M419.768,300.9l-27.823,25.927a39.155,39.155,0,0,1-8.052-14.383Z" transform="translate(-94.841 -74.337)" fill="#e0e0e0"/>
        <path id="Trazado_626965" data-name="Trazado 626965" d="M282.924,205.82a8.852,8.852,0,0,1,2.159-.939l.445-2.137,3.611-.063.52,2.12a8.846,8.846,0,0,1,2.191.862l1.826-1.2,2.6,2.509-1.131,1.866a8.826,8.826,0,0,1,.938,2.16l2.138.445.063,3.611-2.12.52a8.858,8.858,0,0,1-.862,2.191l1.2,1.825-2.509,2.6-1.866-1.131a8.851,8.851,0,0,1-2.159.938l-.445,2.138-3.611.063-.52-2.121a8.851,8.851,0,0,1-2.19-.861l-1.825,1.2-2.6-2.508,1.131-1.866a8.825,8.825,0,0,1-.938-2.16l-2.138-.444-.063-3.612,2.12-.52a8.857,8.857,0,0,1,.862-2.191l-1.2-1.825,2.509-2.6Zm1.925,4.811a3.874,3.874,0,1,0,5.478-.1,3.874,3.874,0,0,0-5.478.1" transform="translate(-68.374 -50.072)" fill="#ebebeb"/>
        <path id="Trazado_626966" data-name="Trazado 626966" d="M159.642,300.629s2.246-2.469-1.391-3.176-22.1-.38-28.665,1.747l-8.907,1.513,1.562,14.635,5.562-1.282,13.271,2.009c1.525.231,6.189-1.716,2.5-4.146,0,0,4.381-2.146,1.067-4.988,0,0,3.222-1.7.609-5.058Z" transform="translate(-29.814 -73.403)" fill="#ffc09d"/>
        <path id="Trazado_626967" data-name="Trazado 626967" d="M118.566,301.094l3.455-.279-.385,15.7-3.366.7Z" transform="translate(-29.218 -74.316)" fill="#ebebeb"/>
        <path id="Trazado_626968" data-name="Trazado 626968" d="M57.856,227.941s-8.429,2.9-10.178,14.461c-1.906,12.592,3.063,34.55,3.271,42.513.154,5.881,4.014,19.437,16.566,18.969a196.5,196.5,0,0,0,33.71-4.5l-.056-16.485-29.854.02L68.35,254.948" transform="translate(-11.671 -56.313)" fill="#eb6f2d"/>
        <path id="Trazado_626969" data-name="Trazado 626969" d="M68.309,254.948s.031.164.072.486.1.814.172,1.435c.144,1.278.354,3.138.624,5.537.527,4.832,1.288,11.821,2.236,20.5l-.139-.125,29.853-.063h.181v.181c.022,5.232.044,10.758.069,16.485v.156l-.15.033a201.481,201.481,0,0,1-24.137,3.851c-3.406.32-6.771.558-10.109.656a14.633,14.633,0,0,1-4.932-.774,13.593,13.593,0,0,1-4.263-2.446,19.305,19.305,0,0,1-5.327-7.838,26.142,26.142,0,0,1-1.782-8.925c-.179-2.938-.6-5.8-.977-8.572s-.757-5.473-1.117-8.08c-.684-5.219-1.233-10.1-1.424-14.577a49.339,49.339,0,0,1,.672-12.057,10.316,10.316,0,0,1,.323-1.275c.124-.413.228-.823.363-1.215a21.6,21.6,0,0,1,.923-2.206,18.1,18.1,0,0,1,2.22-3.534A16.4,16.4,0,0,1,56,228.805a11.388,11.388,0,0,1,1.335-.687,3.733,3.733,0,0,1,.48-.178s-.158.069-.462.215a13.093,13.093,0,0,0-1.31.719,16.708,16.708,0,0,0-4.259,3.807,18.083,18.083,0,0,0-2.17,3.519,21.588,21.588,0,0,0-.9,2.19c-.131.389-.231.8-.352,1.206a10.439,10.439,0,0,0-.312,1.264,49.536,49.536,0,0,0-.608,12c.208,4.464.773,9.334,1.471,14.546l1.137,8.075c.379,2.778.809,5.634,1,8.6a25.781,25.781,0,0,0,1.77,8.8,18.945,18.945,0,0,0,5.223,7.677,13.218,13.218,0,0,0,4.14,2.373,14.272,14.272,0,0,0,4.8.75c3.308-.1,6.68-.337,10.074-.657a203.157,203.157,0,0,0,24.086-3.829l-.149.189c-.016-5.727-.031-11.253-.045-16.485l.182.181-29.853-.023h-.126l-.013-.124c-.894-8.689-1.614-15.682-2.111-20.517-.239-2.4-.424-4.265-.55-5.545-.058-.623-.1-1.1-.133-1.439s-.032-.491-.032-.491" transform="translate(-11.631 -56.313)" fill="#263238"/>
        <path id="Trazado_626970" data-name="Trazado 626970" d="M75.05,308.858a9.379,9.379,0,0,1,3.112-7.894,14.967,14.967,0,0,0-3.112,7.894" transform="translate(-18.519 -74.352)" fill="#263238"/>
        <path id="Trazado_626971" data-name="Trazado 626971" d="M69.175,248.216a15.929,15.929,0,0,1-.538-1.987,31.691,31.691,0,0,0-3.922-9.026,15.782,15.782,0,0,1-1.086-1.748,7.937,7.937,0,0,1,1.321,1.592,24.686,24.686,0,0,1,3.962,9.117,7.931,7.931,0,0,1,.262,2.053" transform="translate(-15.719 -58.169)" fill="#263238"/>
        <path id="Trazado_626972" data-name="Trazado 626972" d="M353.487,100.415l-12.314-45.1C338.475,43.994,329.64,36.13,318.4,39.14l-1.022.339a20.8,20.8,0,0,0-13.669,24.679c2.393,9.8,5.162,20.592,6.923,25.691,3.643,10.555,14.789,8.691,14.789,8.691.024-.007,1.934,6.506,2.83,9.658l-.414,8.08,8.211-4.675Z" transform="translate(-74.883 -9.51)" fill="#ae7461"/>
        <path id="Trazado_626973" data-name="Trazado 626973" d="M332.74,115.4a26.974,26.974,0,0,0,12.447-8.653s-.679,9.069-11.571,11.619Z" transform="translate(-82.203 -26.372)" fill="#6f4439"/>
        <path id="Trazado_626974" data-name="Trazado 626974" d="M313.328,84.113a1.6,1.6,0,0,0,1.965,1.044,1.524,1.524,0,0,0,1.108-1.882,1.594,1.594,0,0,0-1.964-1.045,1.526,1.526,0,0,0-1.109,1.883" transform="translate(-77.393 -20.3)" fill="#263238"/>
        <path id="Trazado_626975" data-name="Trazado 626975" d="M308.938,76.884c.253.135,1.118-1.093,2.749-1.629,1.62-.559,3.093-.117,3.2-.375.057-.117-.252-.41-.9-.617a4.382,4.382,0,0,0-2.647.056,4.207,4.207,0,0,0-2.106,1.544c-.373.55-.425.963-.3,1.021" transform="translate(-76.308 -18.303)" fill="#263238"/>
        <path id="Trazado_626976" data-name="Trazado 626976" d="M331.471,78.253a1.594,1.594,0,0,0,1.965,1.043,1.524,1.524,0,0,0,1.108-1.881,1.6,1.6,0,0,0-1.964-1.045,1.526,1.526,0,0,0-1.109,1.883" transform="translate(-81.875 -18.853)" fill="#263238"/>
        <path id="Trazado_626977" data-name="Trazado 626977" d="M330.307,70.358c.254.136,1.12-1.093,2.75-1.629,1.62-.558,3.093-.117,3.2-.375.057-.117-.25-.41-.9-.616a4.374,4.374,0,0,0-2.646.056,4.21,4.21,0,0,0-2.106,1.543c-.372.55-.425.964-.3,1.021" transform="translate(-81.588 -16.691)" fill="#263238"/>
        <path id="Trazado_626978" data-name="Trazado 626978" d="M326.552,85.936a11.377,11.377,0,0,0-2.8.4c-.431.1-.852.143-1.016-.117a2.238,2.238,0,0,1-.131-1.325q.087-1.7.181-3.574c.214-5.075.221-9.192.017-9.2s-.544,4.1-.757,9.175c-.043,1.249-.085,2.439-.123,3.577a2.542,2.542,0,0,0,.325,1.7,1.1,1.1,0,0,0,.885.382,2.974,2.974,0,0,0,.739-.136,11.14,11.14,0,0,0,2.682-.885" transform="translate(-79.528 -17.817)" fill="#263238"/>
        <path id="Trazado_626979" data-name="Trazado 626979" d="M327.364,63.639c.359.343,1.8-.619,3.7-1.3,1.9-.718,3.613-.913,3.666-1.406.017-.233-.431-.5-1.22-.611a6.824,6.824,0,0,0-5.616,2.059c-.529.6-.7,1.09-.535,1.255" transform="translate(-80.86 -14.891)" fill="#263238"/>
        <path id="Trazado_626980" data-name="Trazado 626980" d="M306.713,70.479c.457.264,1.669-.541,3.265-1.064,1.58-.569,3.037-.681,3.228-1.169.077-.231-.254-.537-.957-.7a5.41,5.41,0,0,0-2.854.23,5.315,5.315,0,0,0-2.377,1.57c-.446.56-.511,1-.3,1.135" transform="translate(-75.746 -16.662)" fill="#263238"/>
        <path id="Trazado_626981" data-name="Trazado 626981" d="M355.966,71.158c.154-.138,6.569-4.567,8.738,2.756S359.075,81.9,359,81.7s-3.034-10.54-3.034-10.54" transform="translate(-87.941 -17.221)" fill="#ae7461"/>
        <path id="Trazado_626982" data-name="Trazado 626982" d="M361.538,79.017c.025-.033.154.051.4.087a1.334,1.334,0,0,0,.959-.263c.689-.514.977-1.934.621-3.265a4.385,4.385,0,0,0-.9-1.72,1.535,1.535,0,0,0-1.249-.695.677.677,0,0,0-.65.573c-.037.233.053.366.017.39-.015.024-.194-.076-.224-.4a.851.851,0,0,1,.153-.544,1,1,0,0,1,.65-.4,1.872,1.872,0,0,1,1.669.74,4.52,4.52,0,0,1,1.047,1.91c.39,1.489.044,3.094-.924,3.714a1.425,1.425,0,0,1-1.224.152c-.281-.114-.368-.266-.346-.287" transform="translate(-89.064 -17.976)" fill="#6f4439"/>
        <path id="Trazado_626983" data-name="Trazado 626983" d="M334.092,89.856c-.257.056.215,1.745-.894,3.35s-2.957,1.925-2.9,2.165c.007.112.493.215,1.259.023A4.37,4.37,0,0,0,334,93.682a3.8,3.8,0,0,0,.641-2.778c-.134-.724-.44-1.09-.553-1.047" transform="translate(-81.599 -22.198)" fill="#263238"/>
        <path id="Trazado_626984" data-name="Trazado 626984" d="M280.551,56.4a1.811,1.811,0,0,1,.512-1.256,5.576,5.576,0,0,1,2.6-1.261,16.081,16.081,0,0,0,6.195-3.68,7.978,7.978,0,0,1-2.382-.794,4.793,4.793,0,0,1-2.684-4.173,1.061,1.061,0,0,1,.364-.871c.432-.288.988.055,1.43.326a4.125,4.125,0,0,0,4.192.465,6.773,6.773,0,0,0,2.537-1.653c.022-.042.039-.087.061-.13.264-.506.523-.992.781-1.464v0c1.938-3.552,3.741-6.152,5.886-7.86,3.144-2.505,8.945-4.872,12.962-5.006s8.265,1.889,9.922,5.552c1.562-2.39,4.7-3.311,7.553-3.048l.056-.047c3.135.164,5.638,2.677,7.337,5.318.093.145.18.293.27.439a11.737,11.737,0,0,0,4.926,2.586c.322.078.693.179.821.484a.956.956,0,0,1-.261.9,5.9,5.9,0,0,1-2.009,1.637,13.2,13.2,0,0,0,1.534,1.711c.482.447,1.056.982.944,1.629a1.247,1.247,0,0,1-1.089.919,3.649,3.649,0,0,1-1.5-.2l1.626,1.988a7,7,0,0,1-3.144.715c.2,2.882,1.246,8.022,1.1,10.061-1.932.614-2.467.544-3.35,1.161-1.141.8.011,2.9-1.828,2.753-.936-.074-3.174-2.871-3.711-3.642A43.616,43.616,0,0,1,325.118,42.8a14.03,14.03,0,0,0-5.041-1.755l.16.077c-3.3-.146-6.992-.159-9.412,2.094-1.876,1.747-2.489,4.418-3.592,6.734a15.985,15.985,0,0,1-9.663,8.875c.544,3.356,2,8.677,2.74,11.739L295.935,65.3l.005.026c-.313-.291-.591-.6-.864-.9l-.09-.092,0-.014a19.682,19.682,0,0,0-1.36-1.461l-.022.034a1.965,1.965,0,0,1-3.5-1.7A4.441,4.441,0,0,1,290.735,60a3.108,3.108,0,0,1-2.619,1.583,2.439,2.439,0,0,1-2.343-1.818,2.075,2.075,0,0,1,.709-1.949,7.007,7.007,0,0,1-4.07.3c-.882-.2-1.833-.692-1.861-1.717" transform="translate(-69.31 -7.173)" fill="#263238"/>
        <path id="Trazado_626985" data-name="Trazado 626985" d="M332.849,39.385a9.732,9.732,0,0,1,1.367.662,8.017,8.017,0,0,1,2.705,3.065,14.072,14.072,0,0,1,1.086,2.641c.3.985.535,2.065.791,3.2a29.471,29.471,0,0,0,.968,3.536,12.8,12.8,0,0,0,.794,1.781,4.021,4.021,0,0,0,1.293,1.571,1.685,1.685,0,0,0,1.662.057,2.506,2.506,0,0,0,1.131-1.175,5.791,5.791,0,0,0,.219-3.031l-.217.094a9.37,9.37,0,0,0,1.973,1.855,3.334,3.334,0,0,0,2.423.513,2.149,2.149,0,0,0,1.046-.523,1.862,1.862,0,0,0,.53-.963,1.908,1.908,0,0,0-.057-1.017,1.39,1.39,0,0,0-.592-.73l-.084.136a7.2,7.2,0,0,0,2.816,1.039,6.554,6.554,0,0,0,.8.065,1.216,1.216,0,0,0,.274-.014,1.425,1.425,0,0,0-.273-.031c-.178-.018-.444-.043-.784-.1a7.422,7.422,0,0,1-2.744-1.089l-.083.136a1.434,1.434,0,0,1,.546,1.57,1.667,1.667,0,0,1-.483.857,1.949,1.949,0,0,1-.952.462,3.117,3.117,0,0,1-2.256-.5,9.214,9.214,0,0,1-1.91-1.821l-.257-.3.04.392a5.6,5.6,0,0,1-.206,2.9,2.254,2.254,0,0,1-1.012,1.05,1.421,1.421,0,0,1-1.413-.047,3.814,3.814,0,0,1-1.2-1.473,12.769,12.769,0,0,1-.782-1.744,29.918,29.918,0,0,1-.974-3.5c-.263-1.133-.507-2.216-.819-3.211a14.03,14.03,0,0,0-1.132-2.665,7.9,7.9,0,0,0-2.814-3.063,4.532,4.532,0,0,0-1.421-.575" transform="translate(-82.23 -9.73)" fill="#455a64"/>
        <path id="Trazado_626986" data-name="Trazado 626986" d="M292.976,58.248a.4.4,0,0,0,.108.047l.326.115a3.729,3.729,0,0,0,.541.156,6.046,6.046,0,0,0,.754.148,9.917,9.917,0,0,0,4.831-.544,12.666,12.666,0,0,0,5.751-4.317,21.943,21.943,0,0,0,3.643-8.058c.392-1.529.629-3.049.963-4.485a14.83,14.83,0,0,1,1.42-3.975,7.635,7.635,0,0,1,2.527-2.795,5.474,5.474,0,0,1,1.571-.673,6.023,6.023,0,0,1,1.575-.158,6.475,6.475,0,0,1,4.312,1.885,7.686,7.686,0,0,1,1.032,1.441.355.355,0,0,0-.042-.11l-.148-.313a5.592,5.592,0,0,0-.768-1.088,6.364,6.364,0,0,0-1.684-1.267,6.54,6.54,0,0,0-2.693-.733,6.182,6.182,0,0,0-1.631.148,5.632,5.632,0,0,0-1.638.686,7.8,7.8,0,0,0-2.623,2.86,14.933,14.933,0,0,0-1.459,4.035c-.34,1.448-.578,2.964-.968,4.479a21.958,21.958,0,0,1-3.58,7.976A12.586,12.586,0,0,1,299.471,58a10.068,10.068,0,0,1-4.753.617,15.728,15.728,0,0,1-1.742-.366" transform="translate(-72.38 -8.281)" fill="#455a64"/>
        <path id="Trazado_626987" data-name="Trazado 626987" d="M289.816,59.5a1.7,1.7,0,0,0,.464.153,8.6,8.6,0,0,0,1.31.238,11.532,11.532,0,0,0,1.977.054,12.155,12.155,0,0,0,4.665-1.231,11.588,11.588,0,0,0,1.693-1.023,8.581,8.581,0,0,0,1.021-.853c.224-.221.341-.349.328-.362-.033-.036-.534.445-1.455,1.064a13.156,13.156,0,0,1-1.692.957,13.025,13.025,0,0,1-4.577,1.208,13.265,13.265,0,0,1-1.944,0c-1.106-.084-1.779-.254-1.79-.207" transform="translate(-71.599 -13.953)" fill="#455a64"/>
        <path id="Trazado_626988" data-name="Trazado 626988" d="M295.052,141.356s-1.089-3.08,2.609-7.228,26.955-12.9,26.955-12.9,8.627,8.4,18.389,3.089c7.6-4.134,7.009-10.614,7.009-10.614l29.553,4.947,1.005,22.33-10.589.062Z" transform="translate(-72.856 -28.09)" fill="#2b95f9"/>
        <path id="Trazado_626989" data-name="Trazado 626989" d="M363.426,187.561l36.454-11.431-11.907-28.846,22.987.44s16.587,32.364,10.313,41.811c-5.715,8.6-52.762,10.339-52.762,10.339Z" transform="translate(-89.784 -36.386)" fill="#ae7461"/>
        <path id="Trazado_626990" data-name="Trazado 626990" d="M363.412,223.971l-.154,1.967c-.138,1.755-2.266,2.964-4.272,2.488l-37.331-3.781.687-5.909,37.69,1.3c2.505-.02,3.557,1.678,3.38,3.936" transform="translate(-79.465 -54.039)" fill="#455a64"/>
        <path id="Trazado_626991" data-name="Trazado 626991" d="M292.933,233.631A22.926,22.926,0,1,1,306.8,217.908a22.8,22.8,0,0,1-13.872,15.723m-16.169-41.266a21.382,21.382,0,1,0,13.053-.828,21.388,21.388,0,0,0-13.053.828" transform="translate(-64.634 -46.777)" fill="#263238"/>
        <path id="Trazado_626992" data-name="Trazado 626992" d="M292.759,231.818a22.925,22.925,0,1,1,13.872-15.723,22.8,22.8,0,0,1-13.872,15.723M276.59,190.552a21.382,21.382,0,1,0,13.053-.828,21.388,21.388,0,0,0-13.053.828" transform="translate(-64.591 -46.33)" fill="#455a64"/>
        <path id="Trazado_626993" data-name="Trazado 626993" d="M298.195,197.175a2.2,2.2,0,0,1-.307-.22c-.2-.141-.467-.393-.863-.644a16.42,16.42,0,0,0-3.484-1.851,20.482,20.482,0,0,0-2.6-.818,22.151,22.151,0,0,0-3.09-.489,21.239,21.239,0,0,0-3.455-.032,20.319,20.319,0,0,0-3.663.571,18.864,18.864,0,0,0-3.482,1.263,20.4,20.4,0,0,0-2.952,1.79,19.443,19.443,0,0,0-4.119,4.136,18.621,18.621,0,0,0-1.99,3.411c-.209.419-.316.767-.419.992a2.3,2.3,0,0,1-.155.344,2.067,2.067,0,0,1,.109-.361c.087-.23.181-.586.377-1.013a17.4,17.4,0,0,1,1.937-3.474,19.172,19.172,0,0,1,4.125-4.216,20.216,20.216,0,0,1,2.982-1.824,18.873,18.873,0,0,1,3.528-1.285,20.276,20.276,0,0,1,3.706-.573,20.978,20.978,0,0,1,3.492.047,21.857,21.857,0,0,1,3.118.517,20.12,20.12,0,0,1,2.617.855,15.462,15.462,0,0,1,3.475,1.935,9.817,9.817,0,0,1,.839.684,2.1,2.1,0,0,1,.276.258" transform="translate(-66.114 -47.638)" fill="#fff"/>
        <path id="Trazado_626994" data-name="Trazado 626994" d="M307.434,233.3c-.034-.048.928-.615,2.229-1.834l.5-.486c.172-.17.333-.367.51-.559.362-.379.693-.83,1.055-1.294a17.8,17.8,0,0,0,3.089-6.936c.1-.579.218-1.127.256-1.65.024-.261.063-.511.074-.754s.017-.474.026-.7c.035-1.783-.187-2.877-.128-2.885a4.941,4.941,0,0,1,.148.765,6.779,6.779,0,0,1,.1.909,11.056,11.056,0,0,1,.048,1.213q0,.339-.009.706c-.006.246-.041.5-.061.763a16.153,16.153,0,0,1-.236,1.675,17.257,17.257,0,0,1-3.129,7.026,16.486,16.486,0,0,1-1.086,1.3c-.183.192-.349.387-.527.556l-.519.48a11.057,11.057,0,0,1-.934.776,6.772,6.772,0,0,1-.745.53,4.76,4.76,0,0,1-.668.4" transform="translate(-75.951 -53.413)" fill="#fff"/>
        <path id="Trazado_626995" data-name="Trazado 626995" d="M299.331,210.336c.006.068-4.2.5-9.4.968s-9.414.791-9.42.724,4.2-.5,9.4-.968,9.413-.791,9.419-.724" transform="translate(-69.301 -51.961)" fill="#fff"/>
        <path id="Trazado_626996" data-name="Trazado 626996" d="M298.969,219a1.444,1.444,0,0,1-.3.035l-.869.052-3.194.16c-2.7.132-6.423.324-10.535.581s-7.833.532-10.525.739l-3.189.24-.868.056a1.462,1.462,0,0,1-.3,0,1.428,1.428,0,0,1,.3-.053l.864-.1c.751-.084,1.839-.193,3.183-.318,2.69-.251,6.41-.553,10.526-.811s7.843-.422,10.542-.51c1.35-.044,2.443-.071,3.2-.081l.87-.006a1.4,1.4,0,0,1,.3.014" transform="translate(-66.501 -54.101)" fill="#fff"/>
        <g id="Grupo_878470" data-name="Grupo 878470" transform="translate(198.495 159.136)" opacity="0.3">
          <g id="Grupo_878469" data-name="Grupo 878469">
            <g id="Grupo_878468" data-name="Grupo 878468" clip-path="url(#clip-path-9)">
              <path id="Trazado_626997" data-name="Trazado 626997" d="M264,213.921l41.5-2.571a22.221,22.221,0,0,1,.8,6.275l-42.43,2.58a16.436,16.436,0,0,1,.133-6.285" transform="translate(-263.623 -211.35)" fill="#fff"/>
            </g>
          </g>
        </g>
        <g id="Grupo_878473" data-name="Grupo 878473" transform="translate(199.953 169.387)" opacity="0.3">
          <g id="Grupo_878472" data-name="Grupo 878472">
            <g id="Grupo_878471" data-name="Grupo 878471" clip-path="url(#clip-path-10)">
              <path id="Trazado_626998" data-name="Trazado 626998" d="M265.559,227.672l40.6-2.706s.27-.111-.559,1.675l-39.359,2.592a3.8,3.8,0,0,1-.68-1.561" transform="translate(-265.559 -224.965)" fill="#fff"/>
            </g>
          </g>
        </g>
        <path id="Trazado_626999" data-name="Trazado 626999" d="M353.421,200.776s-20.906,6.068-21.5,6.411-8.829,6.2-8.985,8.322,2.62,11.593,2.62,11.593,2.821.4,3.029-4.659l.208-5.063,3.47-3.107s-1.28,5.856-.956,7.511,3.074,5.839,4.613,5.508a4.479,4.479,0,0,0,2.383-1.376s1.347,3.731,5.274,1.535c0,0,2.573,1.079,4.594.055s3.847-4.29,3.847-4.29a1.754,1.754,0,0,0-1.968-1.921,8.039,8.039,0,0,0-4.034,1.577l-.2-2.124a24.456,24.456,0,0,1,5.15-4.652c1.651-.99,8.5-1.151,10.623-3.314,1.8-1.833-1.6-5.874-3.86-7.1a3.9,3.9,0,0,0-1.086-.394Z" transform="translate(-79.779 -49.602)" fill="#ae7461"/>
        <path id="Trazado_627000" data-name="Trazado 627000" d="M347.336,223.176a1.517,1.517,0,0,0-.229.371,6.755,6.755,0,0,0-.444,1.1,7.65,7.65,0,0,0,1.621,7.371,6.711,6.711,0,0,0,.867.815,1.509,1.509,0,0,0,.363.241c.026-.032-.479-.4-1.114-1.156a7.952,7.952,0,0,1-1.589-7.23c.257-.955.563-1.5.526-1.516" transform="translate(-85.56 -55.136)" fill="#6f4439"/>
        <path id="Trazado_627001" data-name="Trazado 627001" d="M342,219.2a1.941,1.941,0,0,0-.239.4,4.267,4.267,0,0,0-.237.493,7.2,7.2,0,0,0-.268.675,10.7,10.7,0,0,0-.468,1.83,11.2,11.2,0,0,0,.21,4.6,10.642,10.642,0,0,0,.632,1.781c.1.248.228.459.328.647a4.442,4.442,0,0,0,.281.47,1.919,1.919,0,0,0,.276.376c.037-.023-.331-.576-.743-1.555a11.841,11.841,0,0,1-.58-1.767,12.947,12.947,0,0,1-.322-2.252,15.277,15.277,0,0,1,.036-2.423,9.261,9.261,0,0,1,.5-1.66c.322-1.012.638-1.6.6-1.616" transform="translate(-84.156 -54.154)" fill="#6f4439"/>
        <path id="Trazado_627002" data-name="Trazado 627002" d="M336.516,213.985c-.016-.018-.22.118-.467.425a3.394,3.394,0,0,0-.642,1.385,2.853,2.853,0,0,0,.025,1.527,1.244,1.244,0,0,0,.254.578,4.314,4.314,0,0,1,.831-3.915" transform="translate(-82.84 -52.865)" fill="#6f4439"/>
        <path id="Trazado_627003" data-name="Trazado 627003" d="M423.868,191c-.064.032-.433-.825-1.353-1.981a11.349,11.349,0,0,0-4.534-3.412,9.671,9.671,0,0,0-5.623-.433c-1.448.3-2.3.666-2.327.6a1.948,1.948,0,0,1,.578-.306,10.916,10.916,0,0,1,1.689-.565,9.336,9.336,0,0,1,5.829.341,10.766,10.766,0,0,1,4.607,3.605,9.161,9.161,0,0,1,.913,1.532,1.912,1.912,0,0,1,.222.616" transform="translate(-101.298 -45.604)" fill="#6f4439"/>
        <path id="Trazado_627004" data-name="Trazado 627004" d="M389.157,133.1c-.361-12.178,15.513-17.6,22.63-7.707.041.056.081.113.12.17,6.708,9.555,14.815,32.147,14.815,32.147L398,162.169l-7.167-19.608a36.533,36.533,0,0,1-1.679-9.463" transform="translate(-96.14 -29.711)" fill="#2b95f9"/>
        <path id="Trazado_627005" data-name="Trazado 627005" d="M270.092,147.335c.046.1.088.206.127.312a5.5,5.5,0,0,1,.3,1.5,5.009,5.009,0,0,0,.033.722,2.755,2.755,0,0,0,.2.425,7.253,7.253,0,0,1,.264,2.982,5.719,5.719,0,0,0,.551,3.195,2.107,2.107,0,0,0,2.806.866,1.435,1.435,0,0,0,1.074,1.566,2.073,2.073,0,0,0,1.912-.593,3.863,3.863,0,0,0,.958-1.831,1.584,1.584,0,0,0,1.578,1.531,2.442,2.442,0,0,0,2.005-1.229,5.611,5.611,0,0,0,.69-2.339,27.847,27.847,0,0,1,.5-3.132s1.029.165,1.5.21l.138.014a19.093,19.093,0,0,0,.985-1.709c.656-1.349,1.156-2.205,1.657-3.43.376-.918.62-1.834.052-2.431-1.366-1.438-4.037,1.486-4.037,1.486-.377-1.018-3.482-1.184-4.086.172-.245-.746-.152-1.179-.757-1.681a2.5,2.5,0,0,0-2.2-.554A1.791,1.791,0,0,0,275,145.107a2.948,2.948,0,0,0-5.344.881,1.175,1.175,0,0,0-.073.406.493.493,0,0,0,.063.178c.139.261.32.491.443.763" transform="translate(-66.601 -35.405)" fill="#ae7461"/>
        <path id="Trazado_627006" data-name="Trazado 627006" d="M265.1,146.019a2.35,2.35,0,0,0-1.863.62,3.851,3.851,0,0,0-.582,2.583c.937.177,1.422.212,2.358.389.2.037.363-.013.526.1.432.306.362,1.34.536,1.841a1.8,1.8,0,0,0,2.277.974,2.418,2.418,0,0,0,1.461-2.155,3.736,3.736,0,0,0-.952-2.52,5.22,5.22,0,0,0-3.761-1.835" transform="translate(-64.885 -36.073)" fill="#ae7461"/>
        <path id="Trazado_627007" data-name="Trazado 627007" d="M276.546,145.335c.175.009.175,2.813,0,6.263s-.462,6.24-.637,6.231-.175-2.813,0-6.264.462-6.239.637-6.23" transform="translate(-68.131 -35.905)" fill="#6f4439"/>
        <path id="Trazado_627008" data-name="Trazado 627008" d="M282.184,146.124c.168-.008.4,2.546.121,5.684s-.927,5.617-1.091,5.58c-.18-.036.2-2.536.458-5.634s.329-5.625.512-5.63" transform="translate(-69.462 -36.1)" fill="#6f4439"/>
        <path id="Trazado_627009" data-name="Trazado 627009" d="M287.761,146.89c.178,0,.254,2.123-.076,4.7a18.4,18.4,0,0,1-.89,4.6c-.184-.017-.068-2.123.258-4.678s.535-4.621.708-4.619" transform="translate(-70.831 -36.289)" fill="#6f4439"/>
        <path id="Trazado_627010" data-name="Trazado 627010" d="M267.7,146.576c-.005-.075.45-.176,1.1.12a3.516,3.516,0,0,1,1.723,2.016,7.053,7.053,0,0,1,.428,2.579c-.077.776-.64,1-.653.9-.05-.071.255-.339.2-.915a12.68,12.68,0,0,0-.573-2.341,3.83,3.83,0,0,0-1.351-1.85c-.488-.343-.884-.413-.875-.51" transform="translate(-66.135 -36.192)" fill="#6f4439"/>
        <path id="Trazado_627011" data-name="Trazado 627011" d="M403.842,121.387a32.7,32.7,0,0,0-3.086,1.291,15.4,15.4,0,0,0-8.369,12.86,32.71,32.71,0,0,0,.069,3.343,3.5,3.5,0,0,1-.2-.884,13.347,13.347,0,0,1-.143-2.473,14.974,14.974,0,0,1,8.522-13.094,13.314,13.314,0,0,1,2.319-.87,3.5,3.5,0,0,1,.891-.172" transform="translate(-96.869 -29.987)" fill="#263238"/>
        <path id="Trazado_627012" data-name="Trazado 627012" d="M165.441,234.861c-.689-.243-1.093-.164-1.547-.736a2.326,2.326,0,0,1-.471-2.056,1.666,1.666,0,0,1,1.629-1.206,2.74,2.74,0,0,1,.925-4.949,1.083,1.083,0,0,1,.378-.059.441.441,0,0,1,.165.063c.239.134.449.307.7.426.094.045.19.086.288.124a5.111,5.111,0,0,0,1.385.313,4.505,4.505,0,0,1,.67.045,2.482,2.482,0,0,1,.391.194,6.751,6.751,0,0,0,2.766.3,5.306,5.306,0,0,1,2.958.576,1.958,1.958,0,0,1,.749,2.625,1.334,1.334,0,0,1,1.434,1.029,1.929,1.929,0,0,1-.59,1.766,3.6,3.6,0,0,1-1.721.854,1.472,1.472,0,0,1,1.392,1.5,2.264,2.264,0,0,1-1.182,1.838,5.193,5.193,0,0,1-2.187.6c-.758.072-3.16.417-3.9.6l-2.8.037a2.259,2.259,0,0,1-2.153-3.124,1.443,1.443,0,0,1,.721-.753" transform="translate(-40.354 -55.796)" fill="#ffc09d"/>
        <path id="Trazado_627013" data-name="Trazado 627013" d="M166.129,221.668a2.186,2.186,0,0,1,.613-1.719,1.873,1.873,0,0,1,1.684-.507,14.483,14.483,0,0,0,.824,2.269,2.7,2.7,0,0,0,.3.44c.277.407,1.239.363,1.7.535a1.675,1.675,0,0,1,.86,2.135,1.541,1.541,0,0,1-1.631,1.095,5.14,5.14,0,0,1-2.9-.983,4.127,4.127,0,0,1-1.451-3.264" transform="translate(-41.042 -54.208)" fill="#ffc09d"/>
        <path id="Trazado_627014" data-name="Trazado 627014" d="M165.278,232.387c0,.072,2.606.053,5.815-.041s5.811-.231,5.808-.3-2.605-.054-5.816.041-5.81.231-5.807.3" transform="translate(-40.832 -57.315)" fill="#ff9b6c"/>
        <path id="Trazado_627015" data-name="Trazado 627015" d="M165.9,237.619a7.768,7.768,0,0,0,1.541.127c.954.034,2.275.028,3.729-.066s2.766-.259,3.707-.415a7.734,7.734,0,0,0,1.511-.325,10.685,10.685,0,0,0-1.536.142c-.945.108-2.251.242-3.7.337s-2.76.127-3.711.142a10.612,10.612,0,0,0-1.542.058" transform="translate(-40.984 -58.534)" fill="#ff9b6c"/>
        <path id="Trazado_627016" data-name="Trazado 627016" d="M167.707,242.9a8.023,8.023,0,0,0,1.136-.026c.7-.039,1.677-.12,2.748-.233s2.038-.232,2.738-.319a9.9,9.9,0,0,0,1.13-.166,8.854,8.854,0,0,0-1.139.069c-.7.062-1.672.165-2.741.279s-2.035.209-2.735.273a11.133,11.133,0,0,0-1.136.123" transform="translate(-41.432 -59.824)" fill="#ff9b6c"/>
        <path id="Trazado_627017" data-name="Trazado 627017" d="M166.626,224.084a1.423,1.423,0,0,0,.192.967,3.312,3.312,0,0,0,1.8,1.544,6.942,6.942,0,0,0,1.26.357,5.1,5.1,0,0,0,1.065.128,1.13,1.13,0,0,0,.7-.248c.136-.118.165-.218.153-.225a1.264,1.264,0,0,1-.854.288,6.23,6.23,0,0,1-1.014-.179,8.13,8.13,0,0,1-1.212-.364,3.425,3.425,0,0,1-1.733-1.389,5.734,5.734,0,0,1-.355-.879" transform="translate(-41.159 -55.36)" fill="#ff9b6c"/>
      </g>
    </g>
    <g id="Grupo_878483" data-name="Grupo 878483">
      <g id="Grupo_878482" data-name="Grupo 878482" clip-path="url(#clip-path)">
        <path id="Trazado_627018" data-name="Trazado 627018" d="M512.108,144.97H452.435a4.448,4.448,0,0,1-4.448-4.448V86.993a4.448,4.448,0,0,1,4.448-4.448h59.673a4.448,4.448,0,0,1,4.448,4.448v53.528a4.448,4.448,0,0,1-4.448,4.448" transform="translate(-110.675 -20.393)" fill="#fff"/>
        <path id="Trazado_627019" data-name="Trazado 627019" d="M516.557,93.167h-68.57V87.114a4.571,4.571,0,0,1,4.57-4.57h59.789a4.21,4.21,0,0,1,4.21,4.21Z" transform="translate(-110.675 -20.392)" fill="#e0e0e0"/>
        <path id="Trazado_627020" data-name="Trazado 627020" d="M460,90.459a1.684,1.684,0,1,1-1.681-1.582A1.633,1.633,0,0,1,460,90.459" transform="translate(-112.812 -21.957)" fill="#fff"/>
        <path id="Trazado_627021" data-name="Trazado 627021" d="M466.08,90.459a1.684,1.684,0,1,1-1.681-1.582,1.633,1.633,0,0,1,1.681,1.582" transform="translate(-114.315 -21.957)" fill="#fff"/>
        <path id="Trazado_627022" data-name="Trazado 627022" d="M472.164,90.459a1.684,1.684,0,1,1-1.681-1.582,1.633,1.633,0,0,1,1.681,1.582" transform="translate(-115.818 -21.957)" fill="#fff"/>
        <path id="Trazado_627023" data-name="Trazado 627023" d="M512.043,144.906c0-.016.224,0,.651-.073a4.424,4.424,0,0,0,3.561-3.141,6.4,6.4,0,0,0,.169-1.966q0-1.07-.008-2.277c-.015-6.446-.036-15.754-.062-27.255-.008-5.754-.016-12.055-.024-18.821q0-1.268,0-2.559,0-.645,0-1.3a7.336,7.336,0,0,0-.062-1.275,4.293,4.293,0,0,0-3.318-3.494,16.922,16.922,0,0,0-2.679-.095l-2.761,0-5.633,0-49.5.015A4.267,4.267,0,0,0,448.14,86.5c-.043,2.128-.012,4.31-.023,6.439q0,6.414,0,12.628c0,8.28-.008,16.266-.011,23.875q0,5.7,0,11.113a4.288,4.288,0,0,0,2.806,3.917,6.66,6.66,0,0,0,2.511.266l2.559,0,18.821.024,27.252.063,7.41.036,1.927.02c.434.007.657.02.657.02s-.222.014-.657.02l-1.927.019-7.41.037-27.252.063-18.821.024-2.559,0a6.965,6.965,0,0,1-2.626-.28,4.629,4.629,0,0,1-3.037-4.224q-.006-5.408-.014-11.121c0-7.609-.008-15.594-.011-23.875q0-6.21,0-12.628c.011-2.146-.024-4.273.023-6.478a4.659,4.659,0,0,1,4.627-4.179l49.5.015,5.633,0,2.761,0h1.366a6.37,6.37,0,0,1,1.385.106,4.634,4.634,0,0,1,3.577,3.778,7.665,7.665,0,0,1,.063,1.329q0,.651,0,1.3,0,1.29,0,2.559c-.009,6.765-.016,13.067-.024,18.821-.026,11.5-.047,20.809-.062,27.255q0,1.206-.009,2.277a6.492,6.492,0,0,1-.193,2,4.5,4.5,0,0,1-1.861,2.482,4.393,4.393,0,0,1-1.806.666,3.218,3.218,0,0,1-.656.033" transform="translate(-110.61 -20.328)" fill="#263238"/>
        <path id="Trazado_627024" data-name="Trazado 627024" d="M509.677,144.555H457.984a3.355,3.355,0,0,1-3.355-3.355V106.367a3.355,3.355,0,0,1,3.355-3.355h51.693a3.355,3.355,0,0,1,3.355,3.355V141.2a3.355,3.355,0,0,1-3.355,3.355" transform="translate(-112.316 -25.449)" fill="#eb6f2d"/>
        <g id="Grupo_878478" data-name="Grupo 878478" transform="translate(346.921 95.531)" opacity="0.3">
          <g id="Grupo_878477" data-name="Grupo 878477">
            <g id="Grupo_878476" data-name="Grupo 878476" clip-path="url(#clip-path-12)">
              <path id="Trazado_627025" data-name="Trazado 627025" d="M461.045,147.851l14.256-20.29a1.614,1.614,0,0,1,2.577-.086l9.8,12.147a1.614,1.614,0,0,0,2.375.151l5.739-5.511a1.614,1.614,0,0,1,2.352.124l11.249,13.351a1.614,1.614,0,0,1-1.234,2.655h-45.79a1.614,1.614,0,0,1-1.321-2.542" transform="translate(-460.749 -126.875)"/>
            </g>
          </g>
        </g>
        <g id="Grupo_878481" data-name="Grupo 878481" transform="translate(369.868 86.034)" opacity="0.3">
          <g id="Grupo_878480" data-name="Grupo 878480">
            <g id="Grupo_878479" data-name="Grupo 878479" clip-path="url(#clip-path-13)">
              <path id="Trazado_627026" data-name="Trazado 627026" d="M501.149,119.224a4.963,4.963,0,1,1-4.963-4.963,4.963,4.963,0,0,1,4.963,4.963" transform="translate(-491.225 -114.262)"/>
            </g>
          </g>
        </g>
      </g>
    </g>
    <path id="Trazado_627027" data-name="Trazado 627027" d="M542.827,397.633h82.563l-8.907-30.952-74.955-.3Z" transform="translate(-133.785 -90.515)" fill="#263238"/>
    <g id="Grupo_878494" data-name="Grupo 878494">
      <g id="Grupo_878493" data-name="Grupo 878493" clip-path="url(#clip-path)">
        <path id="Trazado_627028" data-name="Trazado 627028" d="M566.643,401.928a2.908,2.908,0,0,1-.279-.722c-.151-.474-.348-1.166-.567-2.026-.441-1.721-.963-4.116-1.511-6.766l-1.4-6.783q-.259-1.2-.444-2.049a2.969,2.969,0,0,1-.132-.762,2.907,2.907,0,0,1,.279.722c.151.474.348,1.166.567,2.026.442,1.72.963,4.116,1.511,6.767l1.4,6.782q.259,1.2.444,2.05a2.988,2.988,0,0,1,.132.762" transform="translate(-138.917 -94.576)" fill="#455a64"/>
        <path id="Trazado_627029" data-name="Trazado 627029" d="M631.931,383.669c0,.012-.077.061-.24.142a7.793,7.793,0,0,1-.726.328,13.73,13.73,0,0,1-2.823.785,21.367,21.367,0,0,1-9.578-.767,53.371,53.371,0,0,1-8.865-3.768l-2.585-1.346a5.683,5.683,0,0,1-.927-.537,5.617,5.617,0,0,1,.994.4c.629.282,1.529.707,2.64,1.236a62.484,62.484,0,0,0,8.854,3.641,22.363,22.363,0,0,0,9.423.87,23.785,23.785,0,0,0,3.832-.98" transform="translate(-149.759 -93.509)" fill="#455a64"/>
        <path id="Trazado_627030" data-name="Trazado 627030" d="M572.955,383.085a2.444,2.444,0,1,1-2.444-2.444,2.444,2.444,0,0,1,2.444,2.444" transform="translate(-140.341 -94.037)" fill="#455a64"/>
        <path id="Trazado_627031" data-name="Trazado 627031" d="M606.781,166.251a84.577,84.577,0,0,0,4.652-13.824,29.534,29.534,0,0,0-.149-14.454c-.209-.707-2.072-5.49-2.81-5.469-.527.015.519,4.427.222,4.864-2.831,4.164-3.882,9.335-3.829,14.369a65.951,65.951,0,0,0,1.914,14.514" transform="translate(-149.432 -32.735)" fill="#263238"/>
        <path id="Trazado_627032" data-name="Trazado 627032" d="M565.02,188.419c.2-3.433.354-6.143.328-6.145,0,0-11.687-2.012-11.642-13.729.022-5.658,1.015-17.3,2.036-27.836a21.832,21.832,0,0,1,22.084-19.724l1.13.019c12.177.909,18.206,11.758,16.96,23.9l-3.005,42.624-8.955,9.274a11.027,11.027,0,0,1-18.936-8.389" transform="translate(-136.793 -29.889)" fill="#ffc09d"/>
        <path id="Trazado_627033" data-name="Trazado 627033" d="M569.1,200.985a28.3,28.3,0,0,0,15.326-4.262s-3.857,8.459-15.529,7.215Z" transform="translate(-140.546 -48.6)" fill="#ff9b6c"/>
        <path id="Trazado_627034" data-name="Trazado 627034" d="M560.088,160.412a1.673,1.673,0,0,0,1.586,1.714,1.6,1.6,0,0,0,1.749-1.481,1.674,1.674,0,0,0-1.584-1.714,1.6,1.6,0,0,0-1.751,1.481" transform="translate(-138.369 -39.263)" fill="#263238"/>
        <path id="Trazado_627035" data-name="Trazado 627035" d="M559.623,153.121c.2.221,1.486-.7,3.287-.662,1.8.008,3.105.955,3.3.738.1-.1-.107-.493-.675-.922a4.592,4.592,0,0,0-2.641-.861,4.406,4.406,0,0,0-2.62.8c-.56.416-.755.807-.654.907" transform="translate(-138.248 -37.407)" fill="#263238"/>
        <path id="Trazado_627036" data-name="Trazado 627036" d="M581.4,161.734a1.673,1.673,0,0,0,1.586,1.714,1.6,1.6,0,0,0,1.749-1.48,1.675,1.675,0,0,0-1.584-1.715,1.6,1.6,0,0,0-1.751,1.482" transform="translate(-143.635 -39.589)" fill="#263238"/>
        <path id="Trazado_627037" data-name="Trazado 627037" d="M581.867,154.325c.2.221,1.489-.7,3.287-.662,1.8.008,3.1.955,3.3.739.1-.1-.105-.493-.676-.922a4.6,4.6,0,0,0-2.64-.861,4.416,4.416,0,0,0-2.62.8c-.559.416-.754.807-.654.907" transform="translate(-143.744 -37.704)" fill="#263238"/>
        <path id="Trazado_627038" data-name="Trazado 627038" d="M572.662,168.343a11.9,11.9,0,0,0-2.915-.575c-.459-.054-.892-.153-.965-.468a2.337,2.337,0,0,1,.329-1.358q.675-1.657,1.416-3.478c1.969-4.954,3.4-9.029,3.2-9.106s-1.959,3.874-3.927,8.827c-.474,1.222-.928,2.386-1.359,3.5a2.661,2.661,0,0,0-.267,1.8,1.15,1.15,0,0,0,.744.684,3.12,3.12,0,0,0,.779.121,11.726,11.726,0,0,0,2.964.052" transform="translate(-140.348 -37.887)" fill="#263238"/>
        <path id="Trazado_627039" data-name="Trazado 627039" d="M582.2,146.195c.25.457,1.992-.046,4.118-.114,2.126-.112,3.9.239,4.113-.236.092-.227-.272-.637-1.025-1a7.162,7.162,0,0,0-6.27.267c-.719.427-1.047.867-.936,1.084" transform="translate(-143.828 -35.636)" fill="#263238"/>
        <path id="Trazado_627040" data-name="Trazado 627040" d="M560.462,144.732c.31.414,1.557.009,3.048.014,1.492-.048,2.749.319,3.047-.1.131-.2-.061-.618-.606-1.014a4.414,4.414,0,0,0-4.912.073c-.533.411-.714.83-.577,1.032" transform="translate(-138.451 -35.308)" fill="#263238"/>
        <path id="Trazado_627041" data-name="Trazado 627041" d="M608.1,164.151c.2-.084,8.087-2.251,7.7,5.754s-8.342,5.966-8.345,5.736.643-11.49.643-11.49" transform="translate(-150.071 -40.472)" fill="#ffc09d"/>
        <path id="Trazado_627042" data-name="Trazado 627042" d="M610.893,173.593c.035-.024.134.1.364.224a1.4,1.4,0,0,0,1.041.072c.861-.27,1.638-1.577,1.745-3.019a4.616,4.616,0,0,0-.294-2.015,1.614,1.614,0,0,0-1-1.121.71.71,0,0,0-.841.343c-.119.218-.075.381-.119.392-.023.02-.165-.142-.084-.47a.889.889,0,0,1,.34-.486,1.055,1.055,0,0,1,.78-.166,1.964,1.964,0,0,1,1.4,1.311,4.743,4.743,0,0,1,.376,2.254c-.129,1.611-1.027,3.08-2.2,3.359a1.494,1.494,0,0,1-1.264-.273c-.239-.209-.273-.39-.243-.4" transform="translate(-150.919 -41.339)" fill="#ff9b6c"/>
        <path id="Trazado_627043" data-name="Trazado 627043" d="M564.213,127.3c-1.254-.788,2.871-4.76,6.136-6.023,4.933-1.907,12.354-2.832,16.716-1.322,5.253,1.818,9.537,4.727,11.94,9.739a31.517,31.517,0,0,1,2.617,16.269,9.573,9.573,0,0,1-1.406,4.824c-1.218,1.7-3.426,2.7-3.471,5.143a3.355,3.355,0,0,1-.971,2.394c-1.553,1.474-3.26-.091-4-1.605-1.58-3.234-1.563-6.987-1.513-10.585a23.433,23.433,0,0,1,.94-7.581c.468-1.311,1.169-2.535,1.562-3.871a4.813,4.813,0,0,0-.34-4.026,4.957,4.957,0,0,0-.612-.695,8.356,8.356,0,0,0-8.188-2.047c-4.6,1.337-12.427,3.279-14.349,1.635-2.766-2.364-3.375-3.839-3.375-3.839Z" transform="translate(-139.332 -29.449)" fill="#263238"/>
        <path id="Trazado_627044" data-name="Trazado 627044" d="M574.591,180.251c-.008.142.4.321,1.091.3a4.768,4.768,0,0,0,4.125-3.05c.223-.658.169-1.1.032-1.131-.306-.075-.866,1.341-2.306,2.371-1.406,1.074-2.924,1.2-2.942,1.51" transform="translate(-141.952 -43.571)" fill="#263238"/>
        <path id="Trazado_627045" data-name="Trazado 627045" d="M472.9,248.96c-1.638-2.694-3.585-5.634-3.585-5.634l-1.59-2.7a3.5,3.5,0,0,0-.361.515,2.348,2.348,0,0,1-.761.9,1.871,1.871,0,0,1-2.062-.5,4.577,4.577,0,0,1-1.381-4.31,4.518,4.518,0,0,1,2.912-3.218,3.312,3.312,0,0,1,.827-.99c2.285-1.856,6.374-.594,6.374-.594l-.425-1.023s-2.439-2.41-7.822-.523a3.507,3.507,0,0,1-2.49-.032,1.785,1.785,0,0,1-1.1-1.056c-.426-1.321.4-1.959,3.744-3.183s6.982-1.3,8.987.014a23.821,23.821,0,0,1,2.705,1.952s-3.29-9.454-3.473-10.06c-.533-1.754-.194-3.458.943-3.919.73-.3,1.87-.13,2.553,1.894.591,1.751,8.931,18.942,8.931,18.942l3.244,7.819,1.627,6.883-11.714,3.3-.847-.285a9.8,9.8,0,0,1-5.243-4.187" transform="translate(-113.974 -52.987)" fill="#ffc09d"/>
        <path id="Trazado_627046" data-name="Trazado 627046" d="M491.206,249.473a2.622,2.622,0,0,1-3-.493c-.835-.7-1.409-1.664-2.191-2.424-2.339-2.272-6.2-2.453-8.424-4.833-.311-.332-.59-.838-.334-1.208.239-.343.752-.3,1.166-.225l10.608,1.992" transform="translate(-117.881 -59.35)" fill="#ffc09d"/>
        <path id="Trazado_627047" data-name="Trazado 627047" d="M488.929,242.183a4.359,4.359,0,0,0-1.126-.333c-.733-.175-1.8-.408-3.111-.683l-4.628-.936-1.339-.262a2.138,2.138,0,0,0-1.614.068.9.9,0,0,0-.329.959,1.866,1.866,0,0,0,.427.773,7.116,7.116,0,0,0,1.208,1.038c1.781,1.2,3.719,1.679,5.27,2.47a8.216,8.216,0,0,1,2.03,1.346c.553.52.991,1.114,1.452,1.62A3.83,3.83,0,0,0,490,249.786c.812-.023,1.135-.406,1.11-.412a3.133,3.133,0,0,1-1.1.174,3.71,3.71,0,0,1-2.506-1.586c-.425-.5-.843-1.12-1.427-1.7a8.464,8.464,0,0,0-2.13-1.486c-1.6-.845-3.533-1.356-5.176-2.47a6.706,6.706,0,0,1-1.1-.934c-.3-.333-.413-.734-.2-.847.211-.16.7-.068,1.153.021l1.343.242,4.651.806c1.326.221,2.4.389,3.146.492a4.34,4.34,0,0,0,1.169.1" transform="translate(-117.781 -59.251)" fill="#ff9b6c"/>
        <path id="Trazado_627048" data-name="Trazado 627048" d="M473.41,237.246a4.473,4.473,0,0,0-1.241-1.619,3.464,3.464,0,0,0-2.054-.651,8.79,8.79,0,0,0-2.688.477,13.991,13.991,0,0,1-2.757.65,4.552,4.552,0,0,1-2.329-.337,1.777,1.777,0,0,1-1.01-1.224,1.03,1.03,0,0,1,0-.579c.038,0,.039.2.146.54a1.68,1.68,0,0,0,.977,1.01,4.522,4.522,0,0,0,2.174.227,15.508,15.508,0,0,0,2.679-.666,8.534,8.534,0,0,1,2.813-.462,3.636,3.636,0,0,1,2.219.8,3.235,3.235,0,0,1,.941,1.275,1.108,1.108,0,0,1,.126.563" transform="translate(-113.964 -57.8)" fill="#ff9b6c"/>
        <path id="Trazado_627049" data-name="Trazado 627049" d="M477.1,218.933a11.233,11.233,0,0,1,.666,1.876l1.489,4.552c.584,1.7,1.113,3.238,1.557,4.53a11.175,11.175,0,0,1,.6,1.9,8.923,8.923,0,0,1-.861-1.8c-.474-1.136-1.074-2.726-1.672-4.5s-1.075-3.409-1.382-4.6a8.894,8.894,0,0,1-.4-1.951" transform="translate(-117.866 -54.087)" fill="#ff9b6c"/>
        <path id="Trazado_627050" data-name="Trazado 627050" d="M473.38,241.876a2.422,2.422,0,0,1-.623-.032,1.843,1.843,0,0,0-1.481.412.976.976,0,0,0-.224.948,5.263,5.263,0,0,0,.5,1.2,2.228,2.228,0,0,1,.279,1.558,1.88,1.88,0,0,1-1.191,1.227,2.167,2.167,0,0,1-1.7-.153,2.727,2.727,0,0,1-1.148-1.087,8.759,8.759,0,0,1-.784-2.437,5.1,5.1,0,0,1-.047-1.719,1.125,1.125,0,0,1,.23-.587c.033.014-.047.219-.077.608a6.052,6.052,0,0,0,.169,1.647,9.4,9.4,0,0,0,.828,2.314,2.155,2.155,0,0,0,2.394,1.042,1.51,1.51,0,0,0,.953-.959,1.9,1.9,0,0,0-.233-1.3,5.3,5.3,0,0,1-.5-1.292,1.271,1.271,0,0,1,.35-1.207,1.929,1.929,0,0,1,1.7-.364,1.642,1.642,0,0,1,.6.184" transform="translate(-115.35 -59.589)" fill="#ff9b6c"/>
        <path id="Trazado_627051" data-name="Trazado 627051" d="M468.06,246.56c.017-.009.137.175.129.553a1.71,1.71,0,0,1-.771,1.336,2.315,2.315,0,0,1-2.294.044,3.815,3.815,0,0,1-1.772-2.188,4.546,4.546,0,0,1-.047-2.8,4.323,4.323,0,0,1,1.233-1.915,4.1,4.1,0,0,1,1.3-.8,1.175,1.175,0,0,1,.547-.122,7.122,7.122,0,0,0-1.654,1.126,4.251,4.251,0,0,0-1.077,1.818,4.322,4.322,0,0,0,.072,2.566,3.54,3.54,0,0,0,1.564,1.991,2.059,2.059,0,0,0,1.977.04,1.622,1.622,0,0,0,.766-1.114c.053-.334-.008-.528.025-.536" transform="translate(-114.41 -59.455)" fill="#ff9b6c"/>
        <path id="Trazado_627052" data-name="Trazado 627052" d="M481.211,252.248a1.619,1.619,0,0,1,.91-.286,3.78,3.78,0,0,1,2.379.542l-.288.2a11.079,11.079,0,0,1-.218-1.332,8.467,8.467,0,0,1,.614-4.6,21.423,21.423,0,0,0-.22,4.562c.047.456.115.892.2,1.292l.089.443-.376-.245a3.969,3.969,0,0,0-2.161-.623c-.572,0-.91.1-.925.049" transform="translate(-118.883 -60.964)" fill="#ff9b6c"/>
        <path id="Trazado_627053" data-name="Trazado 627053" d="M472.968,232.7c.1.015-.032.815-.744,1.446s-1.521.687-1.524.581c-.026-.112.645-.317,1.257-.876s.9-1.188,1.01-1.151" transform="translate(-116.286 -57.489)" fill="#ff9b6c"/>
        <path id="Trazado_627054" data-name="Trazado 627054" d="M543.183,213.791s-5.96.72-6.611.76c-5.029.309-13.232,3.279-17.086,10.476-2.811,5.249-8.164,26.621-9.6,32.4l-2.076,6.8-12.56-19.931L477.4,254.479s18.552,44.885,30.559,44.88,17.576-11.988,17.576-11.988l-.185-26.994Z" transform="translate(-117.941 -52.817)" fill="#e0e0e0"/>
        <path id="Trazado_627055" data-name="Trazado 627055" d="M534.823,238.7a2.355,2.355,0,0,0-.052.6c-.009.462-.02,1.035-.033,1.734-.022,1.506-.005,3.684.046,6.376.1,5.383.425,12.814.883,21.011s.852,15.621,1.054,21c.1,2.625.173,4.779.231,6.366.03.7.056,1.27.077,1.732a2.443,2.443,0,0,0,.065.6,2.339,2.339,0,0,0,.051-.6c.01-.462.021-1.035.034-1.733.021-1.505.005-3.684-.046-6.375-.1-5.384-.425-12.815-.884-21.014s-.852-15.618-1.053-20.993c-.1-2.624-.174-4.779-.231-6.366-.031-.7-.055-1.27-.076-1.732a2.471,2.471,0,0,0-.065-.6" transform="translate(-132.105 -58.972)" fill="#263238"/>
        <path id="Trazado_627056" data-name="Trazado 627056" d="M650.748,237.509c-3.049-13.64-18.125-17.427-18.125-17.427L627.5,269.315l3.174,7.991,26.974-5.824s-3.077-16.868-6.9-33.973" transform="translate(-155.024 -54.371)" fill="#e0e0e0"/>
        <path id="Trazado_627057" data-name="Trazado 627057" d="M621.614,275.107l10.081,9.715-3.257-18.58,20.46-6.472s5.433,25.5,6.379,31.531c1.7,10.822-.386,26.2-10.471,27.286-10.909,1.172-19.147-9.589-24.389-16.65-4.031-5.428-10.535-14.92-10.535-14.92Z" transform="translate(-150.671 -64.176)" fill="#e0e0e0"/>
        <path id="Trazado_627058" data-name="Trazado 627058" d="M613.582,292.708l-.794-23.129,1.205-53.6L592.5,206.211l-2.848-8.409-24.028,10.706-4.819-5.05-2.782,5.4-8.56,1.935-6.987,19.771-5.929,15.568s1.711,53.993,3.186,73.8c.193,2.6-3.186,3.728.562,6.624,0,0,5.624,3.3,17.817,3.62,34.693.906,56.006-4.634,57.139-5.143a7.141,7.141,0,0,0,2.111-5.975c-.1-.818-.274-1.7-.433-2.818Z" transform="translate(-132.555 -48.867)" fill="#e0e0e0"/>
        <path id="Trazado_627059" data-name="Trazado 627059" d="M563.127,338.069a1.011,1.011,0,0,1-.044-.3c-.018-.238-.04-.525-.066-.873l-.19-3.362c-.132-2.984-.319-7.194-.547-12.37-.388-10.449-.884-24.893-.72-40.864.1-7.986.365-15.6,1.129-22.5.8-6.89,1.98-13.016,3.047-18.136,1.083-5.118,2.075-9.23,2.766-12.068l.82-3.264c.091-.337.167-.614.229-.844a1.043,1.043,0,0,1,.1-.282,1,1,0,0,1-.035.3c-.045.234-.1.516-.167.86q-.259,1.215-.7,3.293c-.615,2.857-1.538,6.984-2.562,12.106-1.008,5.122-2.144,11.248-2.9,18.107-.727,6.859-.978,14.463-1.075,22.436-.163,15.948.258,30.39.529,40.84.143,5.18.259,9.392.342,12.378q.042,2.123.067,3.367c0,.351,0,.639,0,.876a1.052,1.052,0,0,1-.022.3" transform="translate(-138.725 -55.143)" fill="#263238"/>
        <path id="Trazado_627060" data-name="Trazado 627060" d="M583.509,256.419a10.925,10.925,0,0,1,1.424.042l4.153.248,15.132,1.035.287.02-.022.29c-.523,6.935-1.149,15.231-1.826,24.193l-.012.16-.129.094c-.709.514-1.474,1.033-2.261,1.544A44.317,44.317,0,0,1,596,286.513,12.527,12.527,0,0,1,591.387,288a9.187,9.187,0,0,1-4.574-1.059,20.04,20.04,0,0,1-3.7-2.474c-.556-.46-1.092-.928-1.6-1.407a3.113,3.113,0,0,1-.718-.867,4.594,4.594,0,0,1-.4-1.016,15.559,15.559,0,0,1-.371-3.991,57.563,57.563,0,0,1,.638-7.066c.624-4.285,1.367-7.706,1.9-10.064.27-1.178.5-2.089.663-2.7a4.849,4.849,0,0,1,.289-.928,5.308,5.308,0,0,1-.152.96c-.136.691-.312,1.6-.533,2.728-.45,2.37-1.118,5.8-1.676,10.074a59.061,59.061,0,0,0-.549,7,15.153,15.153,0,0,0,.383,3.821,2.962,2.962,0,0,0,.956,1.586q.761.7,1.583,1.372a19.516,19.516,0,0,0,3.588,2.374,8.544,8.544,0,0,0,4.239.975,11.962,11.962,0,0,0,4.342-1.423,44.576,44.576,0,0,0,4.185-2.43c.775-.5,1.54-1.023,2.228-1.521l-.142.254c.721-8.959,1.389-17.252,1.947-24.183l.264.309-14.946-1.311-4.2-.4-1.118-.122a2.105,2.105,0,0,1-.4-.065" transform="translate(-143.293 -63.346)" fill="#263238"/>
        <path id="Trazado_627061" data-name="Trazado 627061" d="M604.736,266.315c-.015.193-4.926-.033-10.967-.5s-10.929-1.009-10.914-1.2,4.925.034,10.968.5,10.928,1.01,10.912,1.2" transform="translate(-143.994 -65.355)" fill="#263238"/>
        <g id="Grupo_878486" data-name="Grupo 878486" transform="translate(437.813 218.779)" opacity="0.3">
          <g id="Grupo_878485" data-name="Grupo 878485">
            <g id="Grupo_878484" data-name="Grupo 878484" clip-path="url(#clip-path-15)">
              <path id="Trazado_627062" data-name="Trazado 627062" d="M581.464,290.563c1.183,1.946,2.281,4.619,3.9,6.225a9.537,9.537,0,0,0,5.981,2.976,9.81,9.81,0,0,0,5.673-1.687,14.992,14.992,0,0,0,5.654-7.418c.172-.219-3.926,2.516-6.152,3.7a10.03,10.03,0,0,1-6.3,1.352c-3.3-.267-6.252-2.985-8.752-5.149" transform="translate(-581.464 -290.563)"/>
            </g>
          </g>
        </g>
        <g id="Grupo_878489" data-name="Grupo 878489" transform="translate(433.479 158.142)" opacity="0.3">
          <g id="Grupo_878488" data-name="Grupo 878488">
            <g id="Grupo_878487" data-name="Grupo 878487" clip-path="url(#clip-path-16)">
              <path id="Trazado_627063" data-name="Trazado 627063" d="M575.708,213.085l.879,11.265L600.5,210.03,577.431,222.2Z" transform="translate(-575.708 -210.03)"/>
            </g>
          </g>
        </g>
        <path id="Trazado_627064" data-name="Trazado 627064" d="M565.579,232.1a385.554,385.554,0,0,0-8.754,57.145c-1.01,13.351-1.758,31.044-1.758,31.044l7.747,9.6,9.26-9.192s-1.885-38.4-1.844-51.274c.032-10.361-.388-37.1-.388-37.1Z" transform="translate(-137.129 -57.341)" fill="#617a0b"/>
        <path id="Trazado_627065" data-name="Trazado 627065" d="M630.477,254.3a6.362,6.362,0,0,1,.243,1.07l.532,2.938c.437,2.546,1.023,5.948,1.669,9.707.66,3.79,1.224,7.23,1.593,9.724.187,1.247.33,2.257.419,2.957a6.345,6.345,0,0,1,.1,1.092,6.3,6.3,0,0,1-.244-1.07c-.137-.757-.317-1.746-.533-2.938-.446-2.545-1.041-5.945-1.7-9.7-.654-3.792-1.193-7.234-1.564-9.727-.169-1.2-.309-2.194-.418-2.957a6.36,6.36,0,0,1-.1-1.093" transform="translate(-155.757 -62.825)" fill="#263238"/>
        <path id="Trazado_627066" data-name="Trazado 627066" d="M638.254,224.008c.04.051-.709.635-1.769,1.727a21.4,21.4,0,0,0-5.548,10.321c-.326,1.486-.4,2.433-.464,2.428a2.322,2.322,0,0,1-.006-.669,13.759,13.759,0,0,1,.218-1.809,19.3,19.3,0,0,1,5.619-10.452,13.767,13.767,0,0,1,1.389-1.18,2.36,2.36,0,0,1,.561-.364" transform="translate(-155.753 -55.341)" fill="#263238"/>
        <path id="Trazado_627067" data-name="Trazado 627067" d="M573.86,218.762l-2.4-.531-2.333,4.2-.1,6.243,4.263.215,2.643-4.951Z" transform="translate(-140.578 -53.914)" fill="#617a0b"/>
        <path id="Trazado_627068" data-name="Trazado 627068" d="M571.959,233.287c-.053.085-.648-.193-1.326-.622s-1.185-.845-1.132-.93.648.194,1.326.623,1.185.844,1.132.929" transform="translate(-140.694 -57.246)" fill="#263238"/>
        <path id="Trazado_627069" data-name="Trazado 627069" d="M572.57,229.16a34.426,34.426,0,0,1-2.841-6.468,34.346,34.346,0,0,1,2.841,6.468" transform="translate(-140.749 -55.016)" fill="#263238"/>
        <g id="Grupo_878492" data-name="Grupo 878492" transform="translate(458.823 226.958)" opacity="0.3">
          <g id="Grupo_878491" data-name="Grupo 878491">
            <g id="Grupo_878490" data-name="Grupo 878490" clip-path="url(#clip-path-17)">
              <path id="Trazado_627070" data-name="Trazado 627070" d="M611.985,304.855s5.878,5.566,8.351,9.88c1.744,3.043,6.676,7.107,12.245,10.665l.867,6.093c-3.086-.614-8.5-4.624-10.59-6.976a44.88,44.88,0,0,1-5.828-7.556c-2.813-5.028-6.676-9.861-7.664-15.536Z" transform="translate(-609.367 -301.425)"/>
            </g>
          </g>
        </g>
        <path id="Trazado_627071" data-name="Trazado 627071" d="M631.542,318.446a3.218,3.218,0,0,0-.52-.4c-.343-.255-.884-.581-1.531-1.077a57.17,57.17,0,0,1-5.251-4.577,154.252,154.252,0,0,1-15.365-18.1l.033.276c1.1-2.654,2.238-5.423,3.41-8.263,1.423-3.461,2.8-6.816,4.09-9.953l-.443.108,24.058,20.349a2.2,2.2,0,0,0-.4-.465c-.286-.282-.715-.693-1.282-1.209-1.131-1.039-2.8-2.525-4.911-4.372-4.22-3.7-10.187-8.839-17.1-14.733l-.294-.251-.148.358c-1.3,3.134-2.68,6.487-4.107,9.945l-3.4,8.268-.062.148.094.126a142.748,142.748,0,0,0,15.571,18.036,49.68,49.68,0,0,0,5.39,4.473c.669.475,1.231.776,1.593,1a3.083,3.083,0,0,0,.574.309" transform="translate(-150.285 -68.131)" fill="#263238"/>
        <path id="Trazado_627072" data-name="Trazado 627072" d="M530.9,251.722l8.413,31.783a3.953,3.953,0,0,0,3.9,2.941l43.566-.856a3.953,3.953,0,0,0,3.79-4.767l-6.416-30.439a3.953,3.953,0,0,0-3.868-3.138H534.346a3.564,3.564,0,0,0-3.445,4.476" transform="translate(-131.129 -61.082)" fill="#263238"/>
        <path id="Trazado_627073" data-name="Trazado 627073" d="M588.634,284.269a.863.863,0,0,1-.065-.206c-.039-.16-.089-.363-.151-.614l-.544-2.371-1.931-8.734c-.8-3.7-1.756-8.09-2.814-12.964-.526-2.442-1.077-5-1.649-7.658a1.772,1.772,0,0,0-1.123-1.376,2.413,2.413,0,0,0-.958-.11h-1.048l-4.267,0-29.516-.058-8.944-.062-2.432-.037-.632-.019a.109.109,0,1,1,0-.041l.632-.019,2.432-.037,8.944-.062,29.516-.057H579.4a2.785,2.785,0,0,1,1.093.136,2.163,2.163,0,0,1,1.364,1.659c.564,2.657,1.108,5.22,1.626,7.664,1.027,4.88,1.952,9.277,2.732,12.982l1.809,8.761.473,2.386c.047.255.084.46.113.623a.888.888,0,0,1,.026.215" transform="translate(-131.515 -61.724)" fill="#455a64"/>
        <path id="Trazado_627074" data-name="Trazado 627074" d="M569.026,261.03a2.264,2.264,0,1,1-2.961-1.516,2.356,2.356,0,0,1,2.961,1.516" transform="translate(-139.491 -64.081)" fill="#e0e0e0"/>
        <path id="Trazado_627075" data-name="Trazado 627075" d="M613.643,275.066l-2.069-1.934s-1.373-4.564-2.238-5.427a9.569,9.569,0,0,0-3.184-1.508l-5.2-4.777.948,4.262-7.547-.056a2.147,2.147,0,0,0-2.055,1.318.853.853,0,0,0-.065.413,2.759,2.759,0,0,0,1.509,1.977l1.085.511a2.562,2.562,0,0,0-1.779,1.852,2.363,2.363,0,0,0,1.571,2.545s-1.855.83-.789,3.054c0,0-1.727,2.047-.728,3.433s6.723,3.706,6.723,3.706L603,285.877a5.374,5.374,0,0,0,2.379.134l1.239.173,1.324,1.1s7.573-4.136,5.7-12.215" transform="translate(-146.309 -64.584)" fill="#ffc09d"/>
        <path id="Trazado_627076" data-name="Trazado 627076" d="M606.138,274.438a5.722,5.722,0,0,1-1.715.016,32.151,32.151,0,0,1-8.084-1.632,5.724,5.724,0,0,1-1.574-.679c.044-.128,2.517.685,5.654,1.311s5.728.85,5.719.985" transform="translate(-146.936 -67.229)" fill="#ff9b6c"/>
        <path id="Trazado_627077" data-name="Trazado 627077" d="M608.368,281.945a99.76,99.76,0,0,1-12.965-3.5,99.437,99.437,0,0,1,12.965,3.5" transform="translate(-147.094 -68.786)" fill="#ff9b6c"/>
        <path id="Trazado_627078" data-name="Trazado 627078" d="M607.427,287.374a8.069,8.069,0,0,1-2.092-.271,33.557,33.557,0,0,1-9.518-3.528,8.053,8.053,0,0,1-1.763-1.158,12.194,12.194,0,0,1,1.911.873c1.163.563,2.788,1.3,4.634,1.986s3.559,1.184,4.808,1.515a12.273,12.273,0,0,1,2.019.584" transform="translate(-146.761 -69.77)" fill="#ff9b6c"/>
        <path id="Trazado_627079" data-name="Trazado 627079" d="M613.48,280.137c-.125-.044.118-.886-.062-1.907-.16-1.026-.663-1.743-.56-1.824.076-.093.818.584,1.007,1.75a2.24,2.24,0,0,1-.385,1.982" transform="translate(-151.403 -68.284)" fill="#ff9b6c"/>
        <path id="Trazado_627080" data-name="Trazado 627080" d="M613.79,273.245c-.086-.1.306-.562.366-1.263.085-.7-.2-1.235-.1-1.311.047-.035.2.06.342.3a1.828,1.828,0,0,1-.211,2.047c-.19.207-.358.27-.4.226" transform="translate(-151.634 -66.867)" fill="#ff9b6c"/>
        <path id="Trazado_627081" data-name="Trazado 627081" d="M613.114,287.869c-.1-.087.2-.554.378-1.185s.194-1.181.322-1.2.333.588.113,1.33-.732,1.146-.813,1.057" transform="translate(-151.465 -70.528)" fill="#ff9b6c"/>
        <path id="Trazado_627082" data-name="Trazado 627082" d="M597.631,266.969a189.587,189.587,0,0,0,8.836.623,18.735,18.735,0,0,0-8.836-.623" transform="translate(-147.645 -65.885)" fill="#ff9b6c"/>
        <path id="Trazado_627083" data-name="Trazado 627083" d="M565.652,212.783a3,3,0,0,1,.214.525c.137.386.316.894.541,1.53.468,1.376,1.122,3.3,1.925,5.666l-.255-.023,4.485-8.455.231-.436.11.483c.655,2.89,1.373,6.053,2.122,9.358.04.175.079.349.115.51l-.282-.13L591.676,213l5.1-2.621,1.394-.694a2.9,2.9,0,0,1,.5-.219,2.862,2.862,0,0,1-.462.288l-1.36.758-5.042,2.731-16.763,8.911-.227.12-.056-.25c-.036-.161-.075-.335-.115-.51-.741-3.307-1.449-6.472-2.1-9.364l.341.047-4.562,8.413-.157.29-.1-.312c-.754-2.382-1.367-4.32-1.806-5.705-.2-.646-.352-1.162-.471-1.553a3.084,3.084,0,0,1-.139-.55" transform="translate(-139.744 -51.749)" fill="#263238"/>
      </g>
    </g>
  </g>
</svg>
