<svg xmlns="http://www.w3.org/2000/svg" xmlns:xlink="http://www.w3.org/1999/xlink" width="435" height="89.256" viewBox="0 0 435 89.256">
  <defs>
    <filter id="Rect치ngulo_276364" x="0" y="30" width="435" height="59" filterUnits="userSpaceOnUse">
      <feOffset dy="3" input="SourceAlpha"/>
      <feGaussianBlur stdDeviation="3" result="blur"/>
      <feFlood flood-opacity="0.161"/>
      <feComposite operator="in" in2="blur"/>
      <feComposite in="SourceGraphic"/>
    </filter>
    <filter id="Trazado_502571" x="0" y="0" width="89.256" height="89.256" filterUnits="userSpaceOnUse">
      <feOffset dy="3" input="SourceAlpha"/>
      <feGaussianBlur stdDeviation="3" result="blur-2"/>
      <feFlood flood-opacity="0.161"/>
      <feComposite operator="in" in2="blur-2"/>
      <feComposite in="SourceGraphic"/>
    </filter>
  </defs>
  <g id="Grupo_1034321" data-name="Grupo 1034321" transform="translate(-840 -1595.872)">
    <g id="Grupo_881404" data-name="Grupo 881404" transform="translate(6931 8351.872)">
      <g transform="matrix(1, 0, 0, 1, -6091, -6756)" filter="url(#Rect치ngulo_276364)">
        <path id="Rect치ngulo_276364-2" data-name="Rect치ngulo 276364" d="M0,0H407a10,10,0,0,1,10,10V41a0,0,0,0,1,0,0H0a0,0,0,0,1,0,0V0A0,0,0,0,1,0,0Z" transform="translate(9 36)" fill="#fff"/>
      </g>
      <g id="Grupo_734095" data-name="Grupo 734095" transform="translate(-7292.06 -12107.1)">
        <g id="Grupo_734091" data-name="Grupo 734091" transform="translate(1029.935 -2175.645)">
          <text id="Porcentaje_sobre_el_margen_bruto" data-name="Porcentaje sobre el margen bruto" transform="translate(276.125 7569.643)" fill="#12263f" font-size="20" font-family="Roboto-Black, Roboto" font-weight="800"><tspan x="0" y="19">Porcentaje sobre el margen bruto</tspan></text>
          <path id="Trazado_194609" data-name="Trazado 194609" d="M0,0,85,40H0Z" transform="translate(180.125 7563.643)" fill="#ffb338"/>
          <g id="tarea-completada" transform="translate(180.125 7532.744)">
            <path id="Trazado_203286" data-name="Trazado 203286" d="M0,20.438ZM4.438,16" transform="translate(13.875 -13.525)" fill="#ffc846"/>
            <g transform="matrix(1, 0, 0, 1, -9, -6)" filter="url(#Trazado_502571)">
              <path id="Trazado_502571-2" data-name="Trazado 502571" d="M295.256,259.628A35.628,35.628,0,1,1,259.628,224,35.629,35.629,0,0,1,295.256,259.628Zm0,0" transform="translate(-215 -218)" fill="#cee4c6"/>
            </g>
          </g>
          <g id="Grupo_881478" data-name="Grupo 881478" transform="translate(186.775 7539.941)">
            <path id="Trazado_749203" data-name="Trazado 749203" d="M355.359,186.687a.672.672,0,0,1,.672.672h1.344a2.018,2.018,0,0,0-2.015-2.015V184h-1.344v1.344H352v2.015a2.018,2.018,0,0,0,2.015,2.015h1.344a.672.672,0,0,1,.672.672v.672h-2.015a.672.672,0,0,1-.672-.672H352a2.018,2.018,0,0,0,2.015,2.015V193.4h1.344v-1.344h2.015v-2.015a2.018,2.018,0,0,0-2.015-2.015h-1.344a.672.672,0,0,1-.672-.672v-.672Z" transform="translate(-315.114 -161.221)"/>
            <path id="Trazado_749204" data-name="Trazado 749204" d="M303.39,152a7.39,7.39,0,1,0,7.389,7.389A7.4,7.4,0,0,0,303.39,152Zm0,13.435a6.046,6.046,0,1,1,6.046-6.046A6.052,6.052,0,0,1,303.39,165.435Z" transform="translate(-263.816 -131.908)"/>
            <path id="Trazado_749205" data-name="Trazado 749205" d="M172.7,424a2,2,0,0,0-1.344.524,2.015,2.015,0,1,0,0,2.983A2.012,2.012,0,1,0,172.7,424Zm-2.687,2.687a.672.672,0,1,1,.672-.672A.672.672,0,0,1,170.015,426.687Zm2.687,0a.672.672,0,1,1,.672-.672A.672.672,0,0,1,172.7,426.687Z" transform="translate(-146.565 -381.068)"/>
            <path id="Trazado_749206" data-name="Trazado 749206" d="M104,456h1.344v1.344H104Z" transform="translate(-87.939 -410.381)"/>
            <path id="Trazado_749207" data-name="Trazado 749207" d="M40,456h1.344v1.344H40Z" transform="translate(-29.313 -410.381)"/>
            <path id="Trazado_749208" data-name="Trazado 749208" d="M72,456h1.344v1.344H72Z" transform="translate(-58.626 -410.381)"/>
            <path id="Trazado_749209" data-name="Trazado 749209" d="M40,424h6.718v1.344H40Z" transform="translate(-29.313 -381.068)"/>
            <path id="Trazado_749210" data-name="Trazado 749210" d="M49.65,27.481a10.081,10.081,0,0,0-9.4-10.042V8H34.871v.672a.672.672,0,1,1-1.344,0V8H28.153v.672a.672.672,0,1,1-1.344,0V8H21.435v.672a.672.672,0,1,1-1.344,0V8H14.718V34.871h-4.7A2.018,2.018,0,0,0,8,36.886V47.635a2.018,2.018,0,0,0,2.015,2.015h18.81a2.018,2.018,0,0,0,2.015-2.015V40.245h6.046v6.718a2.687,2.687,0,0,0,5.374,0v-9.78A10.086,10.086,0,0,0,49.65,27.481ZM10.015,36.214h18.81a.672.672,0,0,1,.672.672v.672H9.344v-.672A.672.672,0,0,1,10.015,36.214ZM29.5,38.9v1.344H9.344V38.9Zm-.672,9.4H10.015a.672.672,0,0,1-.672-.672V41.589H29.5v6.046A.672.672,0,0,1,28.825,48.306Zm2.015-9.4V36.886a2.018,2.018,0,0,0-2.015-2.015H16.061V9.344h2.8a2.016,2.016,0,0,0,3.8,0h2.917a2.016,2.016,0,0,0,3.8,0H32.3a2.016,2.016,0,0,0,3.8,0h2.8v8.1a10.064,10.064,0,0,0-2.015,19.744V38.9Zm10.077,8.061a1.344,1.344,0,1,1-2.687,0v-9.5a9.067,9.067,0,0,0,2.687,0ZM39.573,36.214a8.733,8.733,0,1,1,8.733-8.733A8.743,8.743,0,0,1,39.573,36.214Z"/>
            <path id="Trazado_749211" data-name="Trazado 749211" d="M140.153,56H120v5.374h20.153Zm-1.344,4.031H121.344V57.344H138.81Z" transform="translate(-102.595 -43.969)"/>
            <path id="Trazado_749212" data-name="Trazado 749212" d="M120,136h1.344v1.344H120Z" transform="translate(-102.595 -117.252)"/>
            <path id="Trazado_749213" data-name="Trazado 749213" d="M152,136h8.061v1.344H152Z" transform="translate(-131.908 -117.252)"/>
            <path id="Trazado_749214" data-name="Trazado 749214" d="M120,168h10.748v1.344H120Z" transform="translate(-102.595 -146.565)"/>
            <path id="Trazado_749215" data-name="Trazado 749215" d="M232,200h1.344v1.344H232Z" transform="translate(-205.19 -175.877)"/>
            <path id="Trazado_749216" data-name="Trazado 749216" d="M120,200h8.061v1.344H120Z" transform="translate(-102.595 -175.877)"/>
            <path id="Trazado_749217" data-name="Trazado 749217" d="M120,232h10.748v1.344H120Z" transform="translate(-102.595 -205.19)"/>
            <path id="Trazado_749218" data-name="Trazado 749218" d="M120,264h10.748v1.344H120Z" transform="translate(-102.595 -234.503)"/>
            <path id="Trazado_749219" data-name="Trazado 749219" d="M120,296h1.344v1.344H120Z" transform="translate(-102.595 -263.816)"/>
            <path id="Trazado_749220" data-name="Trazado 749220" d="M152,296h8.061v1.344H152Z" transform="translate(-131.908 -263.816)"/>
          </g>
        </g>
      </g>
    </g>
  </g>
</svg>
