<svg xmlns="http://www.w3.org/2000/svg" xmlns:xlink="http://www.w3.org/1999/xlink" width="339" height="89.256" viewBox="0 0 339 89.256">
  <defs>
    <filter id="Rectángulo_276364" x="0" y="30" width="339" height="59" filterUnits="userSpaceOnUse">
      <feOffset dy="3" input="SourceAlpha"/>
      <feGaussianBlur stdDeviation="3" result="blur"/>
      <feFlood flood-opacity="0.161"/>
      <feComposite operator="in" in2="blur"/>
      <feComposite in="SourceGraphic"/>
    </filter>
    <filter id="Trazado_502571" x="0" y="0" width="89.256" height="89.256" filterUnits="userSpaceOnUse">
      <feOffset dy="3" input="SourceAlpha"/>
      <feGaussianBlur stdDeviation="3" result="blur-2"/>
      <feFlood flood-opacity="0.161"/>
      <feComposite operator="in" in2="blur-2"/>
      <feComposite in="SourceGraphic"/>
    </filter>
  </defs>
  <g id="Grupo_1034310" data-name="Grupo 1034310" transform="translate(-840 -898.872)">
    <g id="Grupo_881400" data-name="Grupo 881400" transform="translate(6931 7654.872)">
      <g transform="matrix(1, 0, 0, 1, -6091, -6756)" filter="url(#Rectángulo_276364)">
        <path id="Rectángulo_276364-2" data-name="Rectángulo 276364" d="M0,0H311a10,10,0,0,1,10,10V41a0,0,0,0,1,0,0H0a0,0,0,0,1,0,0V0A0,0,0,0,1,0,0Z" transform="translate(9 36)" fill="#fff"/>
      </g>
      <g id="Grupo_734095" data-name="Grupo 734095" transform="translate(-7292.06 -12107.1)">
        <g id="Grupo_734091" data-name="Grupo 734091" transform="translate(1029.935 -2175.645)">
          <text id="Beneficios_año_anterior" data-name="Beneficios año anterior" transform="translate(276.125 7569.643)" fill="#12263f" font-size="20" font-family="Roboto-Black, Roboto" font-weight="800"><tspan x="0" y="19">Beneficios año anterior</tspan></text>
          <path id="Trazado_194609" data-name="Trazado 194609" d="M0,0,85,40H0Z" transform="translate(180.125 7563.643)" fill="#ffb338"/>
          <g id="tarea-completada" transform="translate(180.125 7532.744)">
            <path id="Trazado_203286" data-name="Trazado 203286" d="M0,20.438ZM4.438,16" transform="translate(13.875 -13.525)" fill="#ffc846"/>
            <g transform="matrix(1, 0, 0, 1, -9, -6)" filter="url(#Trazado_502571)">
              <path id="Trazado_502571-2" data-name="Trazado 502571" d="M295.256,259.628A35.628,35.628,0,1,1,259.628,224,35.629,35.629,0,0,1,295.256,259.628Zm0,0" transform="translate(-215 -218)" fill="#cee4c6"/>
            </g>
          </g>
          <g id="Grupo_881474" data-name="Grupo 881474" transform="translate(188.256 7503.945)">
            <path id="Trazado_749141" data-name="Trazado 749141" d="M162.7,277.321h-8.611a.806.806,0,1,1,0-1.611H162.7a1.78,1.78,0,0,0,1.778-1.778.918.918,0,0,0-.917-.917h-8.7a12.926,12.926,0,0,0-4.555.826l-7.4,2.774a.806.806,0,0,1-.566-1.509l7.4-2.774a14.534,14.534,0,0,1,5.121-.929h8.7a2.531,2.531,0,0,1,2.528,2.528A3.393,3.393,0,0,1,162.7,277.321Z" transform="translate(-126.594 -210.052)"/>
            <path id="Trazado_749142" data-name="Trazado 749142" d="M71.939,311.986a2.533,2.533,0,0,1-2.37-1.654L69,308.78a.806.806,0,0,1,1.512-.558l.573,1.552a.916.916,0,0,0,1.177.542l4.847-1.79a.916.916,0,0,0,.542-1.177l-3.58-9.694a.917.917,0,0,0-1.177-.542l-4.847,1.79a.916.916,0,0,0-.542,1.177l1.87,5.065a.806.806,0,0,1-1.512.558l-1.87-5.065a2.528,2.528,0,0,1,1.5-3.247l4.847-1.79a2.528,2.528,0,0,1,3.247,1.5l3.58,9.694a2.528,2.528,0,0,1-1.5,3.247l-4.847,1.79A2.531,2.531,0,0,1,71.939,311.986Z" transform="translate(-58.762 -231.508)"/>
            <path id="Trazado_749143" data-name="Trazado 749143" d="M.8,337.967a.806.806,0,0,1-.279-1.562l7.18-2.652a.806.806,0,1,1,.558,1.511l-7.18,2.652A.8.8,0,0,1,.8,337.967Z" transform="translate(0 -265.659)"/>
            <path id="Trazado_749144" data-name="Trazado 749144" d="M.8,429.526a.806.806,0,0,1-.279-1.562l10.76-3.974a.806.806,0,1,1,.558,1.512l-10.76,3.974A.8.8,0,0,1,.8,429.526Z" transform="translate(0 -346.201)"/>
            <path id="Trazado_749145" data-name="Trazado 749145" d="M174.053,226.456a.806.806,0,0,1-.279-1.562l3.485-1.287a16.257,16.257,0,0,1,5.649-1.01h3.76a11.2,11.2,0,0,0,4.178-.8l8.836-3.534a6.064,6.064,0,0,0,2.742-2.186l5.44-7.857a.912.912,0,0,0,0-1.043,1.19,1.19,0,0,0-1.338-.356,1.921,1.921,0,0,0-1.025.681l-4.981,6.226a3.4,3.4,0,0,1-1.911,1.191l-5.1,1.134a.806.806,0,0,1-.35-1.573l5.1-1.134a1.783,1.783,0,0,0,1-.625l4.981-6.226a3.539,3.539,0,0,1,1.9-1.24,2.748,2.748,0,0,1,3.048,1.009,2.544,2.544,0,0,1,0,2.873l-5.44,7.857a7.671,7.671,0,0,1-3.469,2.765l-8.836,3.534a12.8,12.8,0,0,1-4.777.92h-3.76a14.648,14.648,0,0,0-5.091.91l-3.485,1.287A.807.807,0,0,1,174.053,226.456Z" transform="translate(-154.637 -150.912)"/>
            <path id="Trazado_749146" data-name="Trazado 749146" d="M208.959,109.3a8.557,8.557,0,0,1-7.094-13.34.806.806,0,0,1,1.335.9,6.94,6.94,0,1,0,2.216-2.092.806.806,0,0,1-.823-1.385,8.557,8.557,0,1,1,4.367,15.915Z" transform="translate(-178.876 -50.089)"/>
            <path id="Trazado_749147" data-name="Trazado 749147" d="M148.568,60.62a.8.8,0,0,1-.6-.27,14.583,14.583,0,1,1,22.308-.61.806.806,0,0,1-1.26-1,12.974,12.974,0,1,0-19.844.544.806.806,0,0,1-.6,1.341Z" transform="translate(-128.779)"/>
            <path id="Trazado_749148" data-name="Trazado 749148" d="M143.086,218.549a.8.8,0,0,1-.259-.043l-4.6-1.563a.806.806,0,1,1,.518-1.526l3.584,1.217.165-3.781a.806.806,0,0,1,1.61.07l-.212,4.855a.805.805,0,0,1-.8.77Z" transform="translate(-122.891 -157.103)"/>
            <path id="Trazado_749149" data-name="Trazado 749149" d="M253.782,138.484a4.748,4.748,0,0,1-2.642-.62.806.806,0,0,1,.76-1.421,3.287,3.287,0,0,0,2,.429,1.552,1.552,0,0,0,1.671-1.071c.072-.458-.266-.845-.927-1.061-.186-.061-.393-.12-.612-.182-1.182-.337-2.8-.8-3.034-2.326a2.392,2.392,0,0,1,1.961-2.628,3.966,3.966,0,0,1,3.287.523l-.981,1.278.009.007a2.363,2.363,0,0,0-1.911-.248c-.525.136-.828.46-.772.825.077.5,1.078.79,1.883,1.019.224.064.456.13.672.2a2.6,2.6,0,0,1,2.018,2.843,3.13,3.13,0,0,1-3.254,2.433Z" transform="translate(-223.783 -83.359)"/>
            <path id="Trazado_749150" data-name="Trazado 749150" d="M273.816,133.265a.806.806,0,0,1-.806-.806v-8.943a.806.806,0,1,1,1.611,0v8.943A.806.806,0,0,1,273.816,133.265Z" transform="translate(-243.683 -77.331)"/>
          </g>
        </g>
      </g>
    </g>
  </g>
</svg>
