<svg xmlns="http://www.w3.org/2000/svg" xmlns:xlink="http://www.w3.org/1999/xlink" width="418" height="89.256" viewBox="0 0 418 89.256">
  <defs>
    <filter id="Trazado_749454" x="0" y="30.256" width="418" height="59" filterUnits="userSpaceOnUse">
      <feOffset dy="3" input="SourceAlpha"/>
      <feGaussianBlur stdDeviation="3" result="blur"/>
      <feFlood flood-opacity="0.161"/>
      <feComposite operator="in" in2="blur"/>
      <feComposite in="SourceGraphic"/>
    </filter>
    <filter id="Trazado_502571" x="0.125" y="0" width="89.256" height="89.256" filterUnits="userSpaceOnUse">
      <feOffset dy="3" input="SourceAlpha"/>
      <feGaussianBlur stdDeviation="3" result="blur-2"/>
      <feFlood flood-opacity="0.161"/>
      <feComposite operator="in" in2="blur-2"/>
      <feComposite in="SourceGraphic"/>
    </filter>
    <clipPath id="clip-path">
      <rect id="Rectángulo_361493" data-name="Rectángulo 361493" width="45.293" height="45.293" fill="none"/>
    </clipPath>
  </defs>
  <g id="Grupo_1034320" data-name="Grupo 1034320" transform="translate(-8794 9830)">
    <g transform="matrix(1, 0, 0, 1, 8794, -9830)" filter="url(#Trazado_749454)">
      <path id="Trazado_749454-2" data-name="Trazado 749454" d="M0,0H390a10,10,0,0,1,10,10V41H0Z" transform="translate(9 36.26)" fill="#fff"/>
    </g>
    <path id="Trazado_749455" data-name="Trazado 749455" d="M4.5,14.176V19H1.074V4.781H6.748a6.608,6.608,0,0,1,2.886.6,4.526,4.526,0,0,1,1.943,1.709,4.667,4.667,0,0,1,.688,2.515,4.114,4.114,0,0,1-1.489,3.325,6.179,6.179,0,0,1-4.087,1.245Zm0-2.646H6.748a2.118,2.118,0,0,0,1.519-.5,1.85,1.85,0,0,0,.522-1.406,2.287,2.287,0,0,0-.537-1.592,1.9,1.9,0,0,0-1.465-.605H4.5Zm8.9,2.09a6.236,6.236,0,0,1,.615-2.817,4.4,4.4,0,0,1,1.768-1.9,5.323,5.323,0,0,1,2.705-.664,4.858,4.858,0,0,1,3.74,1.47,5.64,5.64,0,0,1,1.367,4v.117a5.472,5.472,0,0,1-1.372,3.921,4.871,4.871,0,0,1-3.716,1.45,4.927,4.927,0,0,1-3.623-1.353,5.29,5.29,0,0,1-1.475-3.667Zm3.291.205a3.932,3.932,0,0,0,.459,2.148,1.529,1.529,0,0,0,1.357.684q1.758,0,1.8-2.705v-.332q0-2.842-1.816-2.842-1.65,0-1.787,2.451Zm14.746-2.412-1.084-.078a1.947,1.947,0,0,0-1.992.977V19H25.068V8.434h3.086l.107,1.357a2.548,2.548,0,0,1,2.314-1.553,3.209,3.209,0,0,1,.918.117ZM36.9,16.656a1.464,1.464,0,0,0,1.074-.376,1.379,1.379,0,0,0,.371-1.05h3.086a3.653,3.653,0,0,1-1.245,2.852A4.631,4.631,0,0,1,36.982,19.2,4.689,4.689,0,0,1,33.35,17.75a5.7,5.7,0,0,1-1.328-4v-.137a6.436,6.436,0,0,1,.591-2.827,4.3,4.3,0,0,1,1.7-1.885,5.081,5.081,0,0,1,2.637-.659,4.573,4.573,0,0,1,3.271,1.143,4.053,4.053,0,0,1,1.211,3.1H38.35a1.807,1.807,0,0,0-.4-1.26,1.382,1.382,0,0,0-1.074-.439q-1.279,0-1.494,1.631a11.507,11.507,0,0,0-.068,1.426,4.52,4.52,0,0,0,.381,2.207A1.319,1.319,0,0,0,36.9,16.656ZM47.939,19.2A5.432,5.432,0,0,1,44,17.745a5.008,5.008,0,0,1-1.5-3.774V13.7a6.489,6.489,0,0,1,.6-2.861,4.395,4.395,0,0,1,1.753-1.919,5.292,5.292,0,0,1,2.734-.679A4.574,4.574,0,0,1,51.1,9.62a5.43,5.43,0,0,1,1.289,3.853v1.279H45.85a2.372,2.372,0,0,0,.771,1.4,2.3,2.3,0,0,0,1.543.508,2.958,2.958,0,0,0,2.441-1.094l1.5,1.777a4.2,4.2,0,0,1-1.743,1.353A5.891,5.891,0,0,1,47.939,19.2Zm-.371-8.418q-1.445,0-1.719,1.914h3.32v-.254a1.63,1.63,0,0,0-.4-1.226A1.593,1.593,0,0,0,47.568,10.777Zm9.17-2.344.107,1.24a3.583,3.583,0,0,1,3.018-1.436,3.015,3.015,0,0,1,2.466.986,4.7,4.7,0,0,1,.845,2.969V19h-3.3V12.33a1.783,1.783,0,0,0-.322-1.177,1.491,1.491,0,0,0-1.172-.376,1.569,1.569,0,0,0-1.436.762V19H53.652V8.434Zm12.09-2.627V8.434h1.738v2.285H68.828v4.834a1.234,1.234,0,0,0,.215.83,1.152,1.152,0,0,0,.85.234,4.828,4.828,0,0,0,.82-.059v2.354a6.074,6.074,0,0,1-1.855.283,3.448,3.448,0,0,1-2.51-.8,3.282,3.282,0,0,1-.811-2.432V10.719H64.189V8.434h1.348V5.807ZM77.813,19a3.716,3.716,0,0,1-.312-.947A3.06,3.06,0,0,1,74.961,19.2a3.749,3.749,0,0,1-2.539-.9,2.875,2.875,0,0,1-1.045-2.271,2.955,2.955,0,0,1,1.27-2.6,6.468,6.468,0,0,1,3.691-.879h1.016v-.559q0-1.462-1.26-1.462a1.03,1.03,0,0,0-1.172,1.158H71.631a2.95,2.95,0,0,1,1.3-2.487,5.479,5.479,0,0,1,3.325-.956,4.8,4.8,0,0,1,3.193.986,3.429,3.429,0,0,1,1.2,2.705v4.678a4.79,4.79,0,0,0,.449,2.227V19Zm-2.061-2.148a1.836,1.836,0,0,0,1.021-.264,1.653,1.653,0,0,0,.581-.6V14.3H76.4q-1.719,0-1.719,1.543a.942.942,0,0,0,.3.728A1.1,1.1,0,0,0,75.752,16.852ZM86.016,8.434V19.361a3.836,3.836,0,0,1-1.074,2.891,4.127,4.127,0,0,1-2.969,1.016A7.009,7.009,0,0,1,80.42,23.1v-2.49a6.3,6.3,0,0,0,.928.088,1.2,1.2,0,0,0,1.367-1.357V8.434ZM82.471,5.709a1.469,1.469,0,0,1,.508-1.152,2.159,2.159,0,0,1,2.637,0,1.469,1.469,0,0,1,.508,1.152,1.469,1.469,0,0,1-.508,1.152,2.159,2.159,0,0,1-2.637,0A1.469,1.469,0,0,1,82.471,5.709ZM92.988,19.2a5.432,5.432,0,0,1-3.936-1.45,5.008,5.008,0,0,1-1.5-3.774V13.7a6.489,6.489,0,0,1,.6-2.861A4.395,4.395,0,0,1,89.9,8.917a5.292,5.292,0,0,1,2.734-.679A4.574,4.574,0,0,1,96.152,9.62a5.43,5.43,0,0,1,1.289,3.853v1.279H90.9a2.372,2.372,0,0,0,.771,1.4,2.3,2.3,0,0,0,1.543.508,2.958,2.958,0,0,0,2.441-1.094l1.5,1.777a4.2,4.2,0,0,1-1.743,1.353A5.891,5.891,0,0,1,92.988,19.2Zm-.371-8.418q-1.445,0-1.719,1.914h3.32v-.254a1.63,1.63,0,0,0-.4-1.226A1.593,1.593,0,0,0,92.617,10.777Zm16.66,5.254a.76.76,0,0,0-.439-.674,6.685,6.685,0,0,0-1.67-.527,7.615,7.615,0,0,1-2.031-.718,3.4,3.4,0,0,1-1.221-1.079,2.577,2.577,0,0,1-.42-1.455,2.92,2.92,0,0,1,1.2-2.4,4.948,4.948,0,0,1,3.145-.942,5.482,5.482,0,0,1,3.359.947,2.962,2.962,0,0,1,1.27,2.49h-3.3q0-1.27-1.338-1.27a1.326,1.326,0,0,0-.869.288.892.892,0,0,0-.352.718.819.819,0,0,0,.43.713,4.06,4.06,0,0,0,1.372.449,11.857,11.857,0,0,1,1.655.42,3.007,3.007,0,0,1,2.383,2.939,2.767,2.767,0,0,1-1.284,2.354,5.631,5.631,0,0,1-3.325.908,5.747,5.747,0,0,1-2.422-.488,4.05,4.05,0,0,1-1.66-1.328,3.007,3.007,0,0,1-.6-1.768h3.076a1.272,1.272,0,0,0,.488,1.069,2.009,2.009,0,0,0,1.2.337,1.58,1.58,0,0,0,1.011-.273A.875.875,0,0,0,109.277,16.031Zm4.3-2.412a6.236,6.236,0,0,1,.615-2.817,4.4,4.4,0,0,1,1.768-1.9,5.323,5.323,0,0,1,2.705-.664,4.858,4.858,0,0,1,3.74,1.47,5.64,5.64,0,0,1,1.367,4v.117a5.472,5.472,0,0,1-1.372,3.921,4.871,4.871,0,0,1-3.716,1.45,4.927,4.927,0,0,1-3.623-1.353,5.29,5.29,0,0,1-1.475-3.667Zm3.291.205a3.932,3.932,0,0,0,.459,2.148,1.529,1.529,0,0,0,1.357.684q1.758,0,1.8-2.705v-.332q0-2.842-1.816-2.842-1.65,0-1.787,2.451Zm18.164-.02a6.44,6.44,0,0,1-1.074,3.994,3.6,3.6,0,0,1-3.027,1.4,3.122,3.122,0,0,1-2.6-1.279L128.193,19h-2.949V4h3.291V9.283a3.013,3.013,0,0,1,2.373-1.045,3.6,3.6,0,0,1,3.047,1.416,6.473,6.473,0,0,1,1.074,3.984Zm-3.3-.21a4.3,4.3,0,0,0-.405-2.169,1.366,1.366,0,0,0-1.245-.648,1.576,1.576,0,0,0-1.543.848v4.192a1.585,1.585,0,0,0,1.563.838,1.4,1.4,0,0,0,1.475-1.131A8.121,8.121,0,0,0,131.729,13.595Zm11.143-2.183-1.084-.078a1.947,1.947,0,0,0-1.992.977V19H136.5V8.434h3.086l.107,1.357a2.548,2.548,0,0,1,2.314-1.553,3.209,3.209,0,0,1,.918.117Zm6.113,7.783a5.432,5.432,0,0,1-3.936-1.45,5.008,5.008,0,0,1-1.5-3.774V13.7a6.489,6.489,0,0,1,.6-2.861A4.395,4.395,0,0,1,145.9,8.917a5.292,5.292,0,0,1,2.734-.679,4.574,4.574,0,0,1,3.516,1.382,5.43,5.43,0,0,1,1.289,3.853v1.279h-6.543a2.372,2.372,0,0,0,.771,1.4,2.3,2.3,0,0,0,1.543.508,2.958,2.958,0,0,0,2.441-1.094l1.5,1.777a4.2,4.2,0,0,1-1.743,1.353A5.891,5.891,0,0,1,148.984,19.2Zm-.371-8.418q-1.445,0-1.719,1.914h3.32v-.254a1.63,1.63,0,0,0-.4-1.226A1.593,1.593,0,0,0,148.613,10.777ZM163.213,19h-3.3V4h3.3Zm7.979,0a3.716,3.716,0,0,1-.312-.947A3.06,3.06,0,0,1,168.34,19.2a3.749,3.749,0,0,1-2.539-.9,2.875,2.875,0,0,1-1.045-2.271,2.955,2.955,0,0,1,1.27-2.6,6.468,6.468,0,0,1,3.691-.879h1.016v-.559q0-1.462-1.26-1.462a1.03,1.03,0,0,0-1.172,1.158H165.01a2.95,2.95,0,0,1,1.3-2.487,5.479,5.479,0,0,1,3.325-.956,4.8,4.8,0,0,1,3.193.986,3.429,3.429,0,0,1,1.2,2.705v4.678a4.79,4.79,0,0,0,.449,2.227V19Zm-2.061-2.148a1.836,1.836,0,0,0,1.021-.264,1.653,1.653,0,0,0,.581-.6V14.3h-.957q-1.719,0-1.719,1.543a.942.942,0,0,0,.3.728A1.1,1.1,0,0,0,169.131,16.852ZM181.563,19V10.719h-1.533V8.434h1.533v-.84a3.651,3.651,0,0,1,1.064-2.8,4.206,4.206,0,0,1,2.988-1A6.544,6.544,0,0,1,187.158,4l.01,2.422a3.007,3.007,0,0,0-.811-.088q-1.494,0-1.494,1.289v.811h2.061v2.285h-2.061V19Zm12.471,0a3.716,3.716,0,0,1-.312-.947,3.06,3.06,0,0,1-2.539,1.143,3.749,3.749,0,0,1-2.539-.9,2.875,2.875,0,0,1-1.045-2.271,2.955,2.955,0,0,1,1.27-2.6,6.468,6.468,0,0,1,3.691-.879h1.016v-.559q0-1.462-1.26-1.462a1.03,1.03,0,0,0-1.172,1.158h-3.291a2.95,2.95,0,0,1,1.3-2.487,5.479,5.479,0,0,1,3.325-.956,4.8,4.8,0,0,1,3.193.986,3.429,3.429,0,0,1,1.2,2.705v4.678a4.79,4.79,0,0,0,.449,2.227V19Zm-2.061-2.148a1.836,1.836,0,0,0,1.021-.264,1.653,1.653,0,0,0,.581-.6V14.3h-.957q-1.719,0-1.719,1.543a.942.942,0,0,0,.3.728A1.1,1.1,0,0,0,191.973,16.852Zm11.191-.2a1.464,1.464,0,0,0,1.074-.376,1.379,1.379,0,0,0,.371-1.05H207.7a3.653,3.653,0,0,1-1.245,2.852,4.631,4.631,0,0,1-3.208,1.113,4.689,4.689,0,0,1-3.633-1.445,5.7,5.7,0,0,1-1.328-4v-.137a6.436,6.436,0,0,1,.591-2.827,4.3,4.3,0,0,1,1.7-1.885,5.081,5.081,0,0,1,2.637-.659,4.573,4.573,0,0,1,3.271,1.143,4.053,4.053,0,0,1,1.211,3.1h-3.086a1.807,1.807,0,0,0-.4-1.26,1.382,1.382,0,0,0-1.074-.439q-1.279,0-1.494,1.631a11.507,11.507,0,0,0-.068,1.426,4.52,4.52,0,0,0,.381,2.207A1.319,1.319,0,0,0,203.164,16.656Zm9.756-10.85V8.434h1.738v2.285H212.92v4.834a1.234,1.234,0,0,0,.215.83,1.152,1.152,0,0,0,.85.234,4.828,4.828,0,0,0,.82-.059v2.354a6.074,6.074,0,0,1-1.855.283,3.448,3.448,0,0,1-2.51-.8,3.282,3.282,0,0,1-.811-2.432V10.719h-1.348V8.434h1.348V5.807Zm9.326,12.051a3.393,3.393,0,0,1-2.822,1.338,3.328,3.328,0,0,1-2.632-1.011,4.251,4.251,0,0,1-.894-2.905V8.434h3.291V15.3a1.183,1.183,0,0,0,1.318,1.357,1.72,1.72,0,0,0,1.611-.811V8.434h3.311V19h-3.086Zm11.377-6.445-1.084-.078a1.947,1.947,0,0,0-1.992.977V19h-3.291V8.434h3.086l.107,1.357a2.548,2.548,0,0,1,2.314-1.553,3.209,3.209,0,0,1,.918.117ZM240.469,19a3.716,3.716,0,0,1-.312-.947,3.06,3.06,0,0,1-2.539,1.143,3.749,3.749,0,0,1-2.539-.9,2.875,2.875,0,0,1-1.045-2.271,2.955,2.955,0,0,1,1.27-2.6,6.468,6.468,0,0,1,3.691-.879h1.016v-.559q0-1.462-1.26-1.462a1.03,1.03,0,0,0-1.172,1.158h-3.291a2.95,2.95,0,0,1,1.3-2.487,5.479,5.479,0,0,1,3.325-.956,4.8,4.8,0,0,1,3.193.986,3.429,3.429,0,0,1,1.2,2.705v4.678a4.79,4.79,0,0,0,.449,2.227V19Zm-2.061-2.148a1.836,1.836,0,0,0,1.021-.264,1.653,1.653,0,0,0,.581-.6V14.3h-.957q-1.719,0-1.719,1.543a.942.942,0,0,0,.3.728A1.1,1.1,0,0,0,238.408,16.852Zm11.191-.2a1.464,1.464,0,0,0,1.074-.376,1.379,1.379,0,0,0,.371-1.05h3.086a3.653,3.653,0,0,1-1.245,2.852,4.631,4.631,0,0,1-3.208,1.113,4.689,4.689,0,0,1-3.633-1.445,5.7,5.7,0,0,1-1.328-4v-.137a6.436,6.436,0,0,1,.591-2.827,4.3,4.3,0,0,1,1.7-1.885,5.081,5.081,0,0,1,2.637-.659,4.573,4.573,0,0,1,3.271,1.143,4.053,4.053,0,0,1,1.211,3.1h-3.086a1.807,1.807,0,0,0-.4-1.26,1.382,1.382,0,0,0-1.074-.439q-1.279,0-1.494,1.631a11.507,11.507,0,0,0-.068,1.426,4.52,4.52,0,0,0,.381,2.207A1.319,1.319,0,0,0,249.6,16.656ZM258.994,19h-3.3V8.434h3.3ZM255.5,5.709a1.469,1.469,0,0,1,.508-1.152,2.159,2.159,0,0,1,2.637,0,1.469,1.469,0,0,1,.508,1.152,1.469,1.469,0,0,1-.508,1.152,2.159,2.159,0,0,1-2.637,0A1.469,1.469,0,0,1,255.5,5.709Zm5.107,7.91a6.236,6.236,0,0,1,.615-2.817,4.4,4.4,0,0,1,1.768-1.9,5.323,5.323,0,0,1,2.705-.664,4.859,4.859,0,0,1,3.74,1.47,5.64,5.64,0,0,1,1.367,4v.117a5.472,5.472,0,0,1-1.372,3.921,4.871,4.871,0,0,1-3.716,1.45,4.927,4.927,0,0,1-3.623-1.353,5.29,5.29,0,0,1-1.475-3.667Zm3.291.205a3.931,3.931,0,0,0,.459,2.148,1.529,1.529,0,0,0,1.357.684q1.758,0,1.8-2.705v-.332q0-2.842-1.816-2.842-1.65,0-1.787,2.451ZM266.143,4h3.477L266.9,7.066l-2.686,0Zm9.131,4.434.107,1.24A3.583,3.583,0,0,1,278.4,8.238a3.015,3.015,0,0,1,2.466.986,4.7,4.7,0,0,1,.845,2.969V19h-3.3V12.33a1.783,1.783,0,0,0-.322-1.177,1.491,1.491,0,0,0-1.172-.376,1.569,1.569,0,0,0-1.436.762V19h-3.291V8.434Z" transform="translate(8908 -9785.102)" fill="#12263f"/>
    <path id="Trazado_194609" data-name="Trazado 194609" d="M0,0,85,40H0Z" transform="translate(8803 -9793.102)" fill="#ffb338"/>
    <g id="tarea-completada" transform="translate(8803.125 -9824)">
      <path id="Trazado_203286" data-name="Trazado 203286" d="M0,20.438ZM4.438,16" transform="translate(13.875 -13.525)" fill="#ffc846"/>
      <g transform="matrix(1, 0, 0, 1, -9.13, -6)" filter="url(#Trazado_502571)">
        <path id="Trazado_502571-2" data-name="Trazado 502571" d="M295.256,259.628A35.628,35.628,0,1,1,259.628,224,35.629,35.629,0,0,1,295.256,259.628Zm0,0" transform="translate(-214.87 -218)" fill="#cee4c6"/>
      </g>
      <g id="g4296" transform="translate(13.875 12.915)">
        <g id="g4298" transform="translate(0 0)">
          <g id="Grupo_881471" data-name="Grupo 881471" transform="translate(0 0)">
            <g id="Grupo_881470" data-name="Grupo 881470" clip-path="url(#clip-path)">
              <g id="g4300" transform="translate(0.208 0)">
                <g id="g4306" transform="translate(36.161 4.986)">
                  <path id="Trazado_749184" data-name="Trazado 749184" d="M548.923,101.831a.664.664,0,0,1-.664-.663V76.923a5.435,5.435,0,0,0-.09-.992.663.663,0,1,1,1.3-.243,6.758,6.758,0,0,1,.113,1.235v24.245A.663.663,0,0,1,548.923,101.831Z" transform="translate(-548.158 -75.145)"/>
                </g>
                <g id="g4310" transform="translate(24.063)">
                  <path id="Trazado_749185" data-name="Trazado 749185" d="M366.476,15.448a.664.664,0,0,1-.663-.663V6.763A6.764,6.764,0,0,1,377.36,1.981a6.868,6.868,0,0,1,.727.858.663.663,0,1,1-1.079.772,5.532,5.532,0,0,0-.586-.692,5.437,5.437,0,0,0-9.281,3.843v8.021A.663.663,0,0,1,366.476,15.448Z" transform="translate(-365.813)"/>
                </g>
                <g id="g4314" transform="translate(6.2)">
                  <path id="Trazado_749186" data-name="Trazado 749186" d="M97.254,15.448a.663.663,0,0,1-.663-.663V6.763A6.763,6.763,0,0,1,103.354,0h17.864a.663.663,0,1,1,0,1.327H103.354a5.437,5.437,0,0,0-5.436,5.436v8.021A.663.663,0,0,1,97.254,15.448Z" transform="translate(-96.591)"/>
                </g>
                <g id="g4318" transform="translate(9.074 10.725)">
                  <path id="Trazado_749187" data-name="Trazado 749187" d="M152.634,162.973H140.56a.663.663,0,0,1,0-1.327h12.074a.663.663,0,0,1,0,1.327Z" transform="translate(-139.897 -161.646)"/>
                </g>
                <g id="g4322" transform="translate(9.074 6.751)">
                  <path id="Trazado_749188" data-name="Trazado 749188" d="M152.634,103.084H140.56a.663.663,0,0,1,0-1.327h12.074a.663.663,0,0,1,0,1.327Z" transform="translate(-139.897 -101.757)"/>
                </g>
                <g id="g4326" transform="translate(9.603 2.982)">
                  <path id="Trazado_749189" data-name="Trazado 749189" d="M161.59,46.278H148.542a.663.663,0,1,1,0-1.327H161.59a.663.663,0,1,1,0,1.327Z" transform="translate(-147.879 -44.951)"/>
                </g>
                <g id="g4330" transform="translate(36.263 25.559)">
                  <path id="Trazado_749190" data-name="Trazado 749190" d="M554.005,394.986a4.312,4.312,0,0,1-4.307-4.307.664.664,0,0,1,1.327,0,2.98,2.98,0,1,0,5.96,0v-4.123h-6.623a.663.663,0,1,1,0-1.327h7.287a.663.663,0,0,1,.663.663v4.786A4.312,4.312,0,0,1,554.005,394.986Z" transform="translate(-549.698 -385.229)"/>
                </g>
                <g id="g4334" transform="translate(30.16 33.989)">
                  <path id="Trazado_749191" data-name="Trazado 749191" d="M468.125,513.607h-9.746a.663.663,0,1,1,0-1.327h9.746a.663.663,0,0,1,0,1.327Z" transform="translate(-457.715 -512.28)"/>
                </g>
                <g id="g4338" transform="translate(4.087 11.207)">
                  <path id="Trazado_749192" data-name="Trazado 749192" d="M85.92,173.147H66.855a2.121,2.121,0,0,1,0-4.241h.657a.663.663,0,0,1,0,1.327h-.657a.794.794,0,0,0,0,1.587H85.92a.794.794,0,1,0,0-1.587h-.545a.663.663,0,0,1,0-1.327h.545a2.121,2.121,0,1,1,0,4.241Z" transform="translate(-64.735 -168.906)"/>
                </g>
                <g id="g4342" transform="translate(0 8.658)">
                  <path id="Trazado_749193" data-name="Trazado 749193" d="M29.294,167.123H8.451a5.319,5.319,0,0,1-5.313-5.313V135.8a5.319,5.319,0,0,1,5.313-5.314H10a.663.663,0,1,1,0,1.327H8.451A3.991,3.991,0,0,0,4.465,135.8V161.81A3.99,3.99,0,0,0,8.451,165.8H29.294a3.99,3.99,0,0,0,3.986-3.986V135.8a3.991,3.991,0,0,0-3.986-3.987h-1.43a.663.663,0,1,1,0-1.327h1.43a5.319,5.319,0,0,1,5.313,5.314V161.81A5.319,5.319,0,0,1,29.294,167.123Z" transform="translate(-3.138 -130.487)"/>
                </g>
                <g id="g4346" transform="translate(3.124 17.315)">
                  <path id="Trazado_749194" data-name="Trazado 749194" d="M71.836,270.7h-18a3.614,3.614,0,0,1-3.61-3.61v-2.5a3.614,3.614,0,0,1,3.61-3.61h18a3.614,3.614,0,0,1,3.61,3.61v2.5A3.614,3.614,0,0,1,71.836,270.7Zm-18-8.392a2.285,2.285,0,0,0-2.283,2.283v2.5a2.285,2.285,0,0,0,2.283,2.283h18a2.285,2.285,0,0,0,2.283-2.283v-2.5a2.285,2.285,0,0,0-2.283-2.283Z" transform="translate(-50.225 -260.98)"/>
                </g>
                <g id="g4350" transform="translate(19.854 28.359)">
                  <path id="Trazado_749195" data-name="Trazado 749195" d="M305.68,441.376a3.3,3.3,0,0,1-3.3-3.3v-7.348a3.3,3.3,0,1,1,6.6,0v7.348A3.3,3.3,0,0,1,305.68,441.376Zm0-12.621a1.976,1.976,0,0,0-1.973,1.974v7.348a1.973,1.973,0,0,0,3.947,0v-7.348A1.976,1.976,0,0,0,305.68,428.755Z" transform="translate(-302.38 -427.428)"/>
                </g>
                <g id="g4354" transform="translate(12.434 35.706)">
                  <path id="Trazado_749196" data-name="Trazado 749196" d="M193.852,544.771a3.3,3.3,0,1,1,3.3-3.3A3.3,3.3,0,0,1,193.852,544.771Zm0-5.274a1.974,1.974,0,1,0,1.974,1.973A1.976,1.976,0,0,0,193.852,539.5Z" transform="translate(-190.552 -538.17)"/>
                </g>
                <g id="g4358" transform="translate(12.434 28.359)">
                  <path id="Trazado_749197" data-name="Trazado 749197" d="M193.852,434.029a3.3,3.3,0,1,1,3.3-3.3A3.3,3.3,0,0,1,193.852,434.029Zm0-5.274a1.973,1.973,0,1,0,1.974,1.974A1.976,1.976,0,0,0,193.852,428.755Z" transform="translate(-190.552 -427.428)"/>
                </g>
                <g id="g4362" transform="translate(5.015 35.707)">
                  <path id="Trazado_749198" data-name="Trazado 749198" d="M82.021,544.774a3.282,3.282,0,0,1-.62-.059.663.663,0,0,1,.252-1.3,1.951,1.951,0,0,0,.369.035,1.972,1.972,0,1,0-1.849-1.281.663.663,0,0,1-1.242.466,3.3,3.3,0,1,1,3.091,2.142Z" transform="translate(-78.72 -538.174)"/>
                </g>
                <g id="g4366" transform="translate(5.015 28.359)">
                  <path id="Trazado_749199" data-name="Trazado 749199" d="M82.023,434.029a3.3,3.3,0,1,1,3.3-3.3A3.3,3.3,0,0,1,82.023,434.029Zm0-5.274A1.973,1.973,0,1,0,84,430.728,1.976,1.976,0,0,0,82.023,428.755Z" transform="translate(-78.723 -427.428)"/>
                </g>
                <g id="g4370" transform="translate(22.16 19.48)">
                  <path id="Trazado_749200" data-name="Trazado 749200" d="M338.828,299.027a2.18,2.18,0,0,1-1.393-.4.663.663,0,0,1,.726-1.111.949.949,0,0,0,.71.182.464.464,0,0,0,.464-.394.3.3,0,0,0-.233-.365,4.843,4.843,0,0,1-1.343-.65,1.407,1.407,0,0,1-.476-1.384,1.549,1.549,0,0,1,1.065-1.212,1.926,1.926,0,0,1,1.777.327.663.663,0,0,1-.849,1.02.6.6,0,0,0-.545-.076.2.2,0,0,0-.126.126.261.261,0,0,0-.016.163,4.1,4.1,0,0,0,.956.435,1.621,1.621,0,0,1,1.1,1.836,1.8,1.8,0,0,1-1.764,1.5Z" transform="translate(-337.135 -293.607)"/>
                </g>
                <g id="g4374" transform="translate(23.237 23.573)">
                  <path id="Trazado_749201" data-name="Trazado 749201" d="M354.037,357.213a.664.664,0,0,1-.663-.663v-.6a.663.663,0,0,1,1.327,0v.6A.664.664,0,0,1,354.037,357.213Z" transform="translate(-353.374 -355.29)"/>
                </g>
                <g id="g4378" transform="translate(23.237 18.929)">
                  <path id="Trazado_749202" data-name="Trazado 749202" d="M354.037,287.181a.664.664,0,0,1-.663-.664v-.551a.663.663,0,1,1,1.327,0v.551A.664.664,0,0,1,354.037,287.181Z" transform="translate(-353.374 -285.303)"/>
                </g>
              </g>
            </g>
          </g>
        </g>
      </g>
    </g>
  </g>
</svg>
