<svg xmlns="http://www.w3.org/2000/svg" xmlns:xlink="http://www.w3.org/1999/xlink" width="418" height="89.256" viewBox="0 0 418 89.256">
  <defs>
    <filter id="Rectángulo_276363" x="0" y="30.256" width="418" height="59" filterUnits="userSpaceOnUse">
      <feOffset dy="3" input="SourceAlpha"/>
      <feGaussianBlur stdDeviation="3" result="blur"/>
      <feFlood flood-opacity="0.161"/>
      <feComposite operator="in" in2="blur"/>
      <feComposite in="SourceGraphic"/>
    </filter>
    <filter id="Trazado_502571" x="0.125" y="0" width="89.256" height="89.256" filterUnits="userSpaceOnUse">
      <feOffset dy="3" input="SourceAlpha"/>
      <feGaussianBlur stdDeviation="3" result="blur-2"/>
      <feFlood flood-opacity="0.161"/>
      <feComposite operator="in" in2="blur-2"/>
      <feComposite in="SourceGraphic"/>
    </filter>
    <clipPath id="clip-path">
      <rect id="Rectángulo_361493" data-name="Rectángulo 361493" width="45.293" height="45.293" fill="none"/>
    </clipPath>
  </defs>
  <g id="Grupo_1034318" data-name="Grupo 1034318" transform="translate(-8794 9830)">
    <g id="Grupo_881481" data-name="Grupo 881481" transform="translate(8623 -14782.744)">
      <g transform="matrix(1, 0, 0, 1, 171, 4952.74)" filter="url(#Rectángulo_276363)">
        <path id="Rectángulo_276363-2" data-name="Rectángulo 276363" d="M0,0H390a10,10,0,0,1,10,10V41a0,0,0,0,1,0,0H0a0,0,0,0,1,0,0V0A0,0,0,0,1,0,0Z" transform="translate(9 36.26)" fill="#fff"/>
      </g>
      <g id="Grupo_152495" data-name="Grupo 152495" transform="translate(0 -2574)">
        <text id="Porcentaje_sobre_la_facturación" data-name="Porcentaje sobre la facturación" transform="translate(285 7571.643)" fill="#12263f" font-size="20" font-family="Roboto-Black, Roboto" font-weight="800"><tspan x="0" y="19">Porcentaje sobre la facturación</tspan></text>
        <path id="Trazado_194609" data-name="Trazado 194609" d="M0,0,85,40H0Z" transform="translate(180 7563.643)" fill="#ffb338"/>
        <g id="tarea-completada" transform="translate(180.125 7532.744)">
          <path id="Trazado_203286" data-name="Trazado 203286" d="M0,20.438ZM4.438,16" transform="translate(13.875 -13.525)" fill="#ffc846"/>
          <g transform="matrix(1, 0, 0, 1, -9.12, -6)" filter="url(#Trazado_502571)">
            <path id="Trazado_502571-2" data-name="Trazado 502571" d="M295.256,259.628A35.628,35.628,0,1,1,259.628,224,35.629,35.629,0,0,1,295.256,259.628Zm0,0" transform="translate(-214.88 -218)" fill="#cee4c6"/>
          </g>
          <g id="g4296" transform="translate(13.875 12.915)">
            <g id="g4298" transform="translate(0 0)">
              <g id="Grupo_881471" data-name="Grupo 881471" transform="translate(0 0)">
                <g id="Grupo_881470" data-name="Grupo 881470" clip-path="url(#clip-path)">
                  <g id="g4300" transform="translate(0.208 0)">
                    <g id="g4306" transform="translate(36.161 4.986)">
                      <path id="Trazado_749184" data-name="Trazado 749184" d="M548.923,101.831a.664.664,0,0,1-.664-.663V76.923a5.435,5.435,0,0,0-.09-.992.663.663,0,1,1,1.3-.243,6.758,6.758,0,0,1,.113,1.235v24.245A.663.663,0,0,1,548.923,101.831Z" transform="translate(-548.158 -75.145)"/>
                    </g>
                    <g id="g4310" transform="translate(24.063)">
                      <path id="Trazado_749185" data-name="Trazado 749185" d="M366.476,15.448a.664.664,0,0,1-.663-.663V6.763A6.764,6.764,0,0,1,377.36,1.981a6.868,6.868,0,0,1,.727.858.663.663,0,1,1-1.079.772,5.532,5.532,0,0,0-.586-.692,5.437,5.437,0,0,0-9.281,3.843v8.021A.663.663,0,0,1,366.476,15.448Z" transform="translate(-365.813)"/>
                    </g>
                    <g id="g4314" transform="translate(6.2)">
                      <path id="Trazado_749186" data-name="Trazado 749186" d="M97.254,15.448a.663.663,0,0,1-.663-.663V6.763A6.763,6.763,0,0,1,103.354,0h17.864a.663.663,0,1,1,0,1.327H103.354a5.437,5.437,0,0,0-5.436,5.436v8.021A.663.663,0,0,1,97.254,15.448Z" transform="translate(-96.591)"/>
                    </g>
                    <g id="g4318" transform="translate(9.074 10.725)">
                      <path id="Trazado_749187" data-name="Trazado 749187" d="M152.634,162.973H140.56a.663.663,0,0,1,0-1.327h12.074a.663.663,0,0,1,0,1.327Z" transform="translate(-139.897 -161.646)"/>
                    </g>
                    <g id="g4322" transform="translate(9.074 6.751)">
                      <path id="Trazado_749188" data-name="Trazado 749188" d="M152.634,103.084H140.56a.663.663,0,0,1,0-1.327h12.074a.663.663,0,0,1,0,1.327Z" transform="translate(-139.897 -101.757)"/>
                    </g>
                    <g id="g4326" transform="translate(9.603 2.982)">
                      <path id="Trazado_749189" data-name="Trazado 749189" d="M161.59,46.278H148.542a.663.663,0,1,1,0-1.327H161.59a.663.663,0,1,1,0,1.327Z" transform="translate(-147.879 -44.951)"/>
                    </g>
                    <g id="g4330" transform="translate(36.263 25.559)">
                      <path id="Trazado_749190" data-name="Trazado 749190" d="M554.005,394.986a4.312,4.312,0,0,1-4.307-4.307.664.664,0,0,1,1.327,0,2.98,2.98,0,1,0,5.96,0v-4.123h-6.623a.663.663,0,1,1,0-1.327h7.287a.663.663,0,0,1,.663.663v4.786A4.312,4.312,0,0,1,554.005,394.986Z" transform="translate(-549.698 -385.229)"/>
                    </g>
                    <g id="g4334" transform="translate(30.16 33.989)">
                      <path id="Trazado_749191" data-name="Trazado 749191" d="M468.125,513.607h-9.746a.663.663,0,1,1,0-1.327h9.746a.663.663,0,0,1,0,1.327Z" transform="translate(-457.715 -512.28)"/>
                    </g>
                    <g id="g4338" transform="translate(4.087 11.207)">
                      <path id="Trazado_749192" data-name="Trazado 749192" d="M85.92,173.147H66.855a2.121,2.121,0,0,1,0-4.241h.657a.663.663,0,0,1,0,1.327h-.657a.794.794,0,0,0,0,1.587H85.92a.794.794,0,1,0,0-1.587h-.545a.663.663,0,0,1,0-1.327h.545a2.121,2.121,0,1,1,0,4.241Z" transform="translate(-64.735 -168.906)"/>
                    </g>
                    <g id="g4342" transform="translate(0 8.658)">
                      <path id="Trazado_749193" data-name="Trazado 749193" d="M29.294,167.123H8.451a5.319,5.319,0,0,1-5.313-5.313V135.8a5.319,5.319,0,0,1,5.313-5.314H10a.663.663,0,1,1,0,1.327H8.451A3.991,3.991,0,0,0,4.465,135.8V161.81A3.99,3.99,0,0,0,8.451,165.8H29.294a3.99,3.99,0,0,0,3.986-3.986V135.8a3.991,3.991,0,0,0-3.986-3.987h-1.43a.663.663,0,1,1,0-1.327h1.43a5.319,5.319,0,0,1,5.313,5.314V161.81A5.319,5.319,0,0,1,29.294,167.123Z" transform="translate(-3.138 -130.487)"/>
                    </g>
                    <g id="g4346" transform="translate(3.124 17.315)">
                      <path id="Trazado_749194" data-name="Trazado 749194" d="M71.836,270.7h-18a3.614,3.614,0,0,1-3.61-3.61v-2.5a3.614,3.614,0,0,1,3.61-3.61h18a3.614,3.614,0,0,1,3.61,3.61v2.5A3.614,3.614,0,0,1,71.836,270.7Zm-18-8.392a2.285,2.285,0,0,0-2.283,2.283v2.5a2.285,2.285,0,0,0,2.283,2.283h18a2.285,2.285,0,0,0,2.283-2.283v-2.5a2.285,2.285,0,0,0-2.283-2.283Z" transform="translate(-50.225 -260.98)"/>
                    </g>
                    <g id="g4350" transform="translate(19.854 28.359)">
                      <path id="Trazado_749195" data-name="Trazado 749195" d="M305.68,441.376a3.3,3.3,0,0,1-3.3-3.3v-7.348a3.3,3.3,0,1,1,6.6,0v7.348A3.3,3.3,0,0,1,305.68,441.376Zm0-12.621a1.976,1.976,0,0,0-1.973,1.974v7.348a1.973,1.973,0,0,0,3.947,0v-7.348A1.976,1.976,0,0,0,305.68,428.755Z" transform="translate(-302.38 -427.428)"/>
                    </g>
                    <g id="g4354" transform="translate(12.434 35.706)">
                      <path id="Trazado_749196" data-name="Trazado 749196" d="M193.852,544.771a3.3,3.3,0,1,1,3.3-3.3A3.3,3.3,0,0,1,193.852,544.771Zm0-5.274a1.974,1.974,0,1,0,1.974,1.973A1.976,1.976,0,0,0,193.852,539.5Z" transform="translate(-190.552 -538.17)"/>
                    </g>
                    <g id="g4358" transform="translate(12.434 28.359)">
                      <path id="Trazado_749197" data-name="Trazado 749197" d="M193.852,434.029a3.3,3.3,0,1,1,3.3-3.3A3.3,3.3,0,0,1,193.852,434.029Zm0-5.274a1.973,1.973,0,1,0,1.974,1.974A1.976,1.976,0,0,0,193.852,428.755Z" transform="translate(-190.552 -427.428)"/>
                    </g>
                    <g id="g4362" transform="translate(5.015 35.707)">
                      <path id="Trazado_749198" data-name="Trazado 749198" d="M82.021,544.774a3.282,3.282,0,0,1-.62-.059.663.663,0,0,1,.252-1.3,1.951,1.951,0,0,0,.369.035,1.972,1.972,0,1,0-1.849-1.281.663.663,0,0,1-1.242.466,3.3,3.3,0,1,1,3.091,2.142Z" transform="translate(-78.72 -538.174)"/>
                    </g>
                    <g id="g4366" transform="translate(5.015 28.359)">
                      <path id="Trazado_749199" data-name="Trazado 749199" d="M82.023,434.029a3.3,3.3,0,1,1,3.3-3.3A3.3,3.3,0,0,1,82.023,434.029Zm0-5.274A1.973,1.973,0,1,0,84,430.728,1.976,1.976,0,0,0,82.023,428.755Z" transform="translate(-78.723 -427.428)"/>
                    </g>
                    <g id="g4370" transform="translate(22.16 19.48)">
                      <path id="Trazado_749200" data-name="Trazado 749200" d="M338.828,299.027a2.18,2.18,0,0,1-1.393-.4.663.663,0,0,1,.726-1.111.949.949,0,0,0,.71.182.464.464,0,0,0,.464-.394.3.3,0,0,0-.233-.365,4.843,4.843,0,0,1-1.343-.65,1.407,1.407,0,0,1-.476-1.384,1.549,1.549,0,0,1,1.065-1.212,1.926,1.926,0,0,1,1.777.327.663.663,0,0,1-.849,1.02.6.6,0,0,0-.545-.076.2.2,0,0,0-.126.126.261.261,0,0,0-.016.163,4.1,4.1,0,0,0,.956.435,1.621,1.621,0,0,1,1.1,1.836,1.8,1.8,0,0,1-1.764,1.5Z" transform="translate(-337.135 -293.607)"/>
                    </g>
                    <g id="g4374" transform="translate(23.237 23.573)">
                      <path id="Trazado_749201" data-name="Trazado 749201" d="M354.037,357.213a.664.664,0,0,1-.663-.663v-.6a.663.663,0,0,1,1.327,0v.6A.664.664,0,0,1,354.037,357.213Z" transform="translate(-353.374 -355.29)"/>
                    </g>
                    <g id="g4378" transform="translate(23.237 18.929)">
                      <path id="Trazado_749202" data-name="Trazado 749202" d="M354.037,287.181a.664.664,0,0,1-.663-.664v-.551a.663.663,0,1,1,1.327,0v.551A.664.664,0,0,1,354.037,287.181Z" transform="translate(-353.374 -285.303)"/>
                    </g>
                  </g>
                </g>
              </g>
            </g>
          </g>
        </g>
      </g>
    </g>
  </g>
</svg>
