<svg xmlns="http://www.w3.org/2000/svg" xmlns:xlink="http://www.w3.org/1999/xlink" width="262.935" height="89.256" viewBox="0 0 262.935 89.256">
  <defs>
    <filter id="Rectángulo_276363" x="0" y="29.899" width="262.935" height="59" filterUnits="userSpaceOnUse">
      <feOffset dy="3" input="SourceAlpha"/>
      <feGaussianBlur stdDeviation="3" result="blur"/>
      <feFlood flood-opacity="0.161"/>
      <feComposite operator="in" in2="blur"/>
      <feComposite in="SourceGraphic"/>
    </filter>
    <filter id="Trazado_502571" x="0.125" y="-0.002" width="89.256" height="89.256" filterUnits="userSpaceOnUse">
      <feOffset dy="3" input="SourceAlpha"/>
      <feGaussianBlur stdDeviation="3" result="blur-2"/>
      <feFlood flood-opacity="0.161"/>
      <feComposite operator="in" in2="blur-2"/>
      <feComposite in="SourceGraphic"/>
    </filter>
  </defs>
  <g id="Grupo_1034316" data-name="Grupo 1034316" transform="translate(-9426 10192.127)">
    <g id="Grupo_881480" data-name="Grupo 881480" transform="translate(8625 -15543.228)">
      <g transform="matrix(1, 0, 0, 1, 801, 5351.1)" filter="url(#Rectángulo_276363)">
        <path id="Rectángulo_276363-2" data-name="Rectángulo 276363" d="M0,0H234.935a10,10,0,0,1,10,10V41a0,0,0,0,1,0,0H0a0,0,0,0,1,0,0V0A0,0,0,0,1,0,0Z" transform="translate(9 35.9)" fill="#fff"/>
      </g>
      <g id="Grupo_734093" data-name="Grupo 734093" transform="translate(-399.935)">
        <g id="Grupo_734091" data-name="Grupo 734091" transform="translate(1029.935 -2175.645)">
          <text id="Por_asignación" data-name="Por asignación" transform="translate(281 7569.643)" fill="#12263f" font-size="20" font-family="Roboto-Black, Roboto" font-weight="800"><tspan x="0" y="19">Por asignación</tspan></text>
          <path id="Trazado_194609" data-name="Trazado 194609" d="M0,0,85,40H0Z" transform="translate(180 7563.643)" fill="#ffb338"/>
          <g id="tarea-completada" transform="translate(180.125 7532.744)">
            <path id="Trazado_203286" data-name="Trazado 203286" d="M0,20.438ZM4.438,16" transform="translate(13.875 -13.525)" fill="#ffc846"/>
            <g transform="matrix(1, 0, 0, 1, -9.12, -6)" filter="url(#Trazado_502571)">
              <path id="Trazado_502571-2" data-name="Trazado 502571" d="M295.256,259.628A35.628,35.628,0,1,1,259.628,224,35.629,35.629,0,0,1,295.256,259.628Zm0,0" transform="translate(-214.88 -218)" fill="#cee4c6"/>
            </g>
          </g>
        </g>
        <g id="Grupo_881477" data-name="Grupo 881477" transform="translate(1214.739 5362.143)">
          <g id="Grupo_881466" data-name="Grupo 881466" transform="translate(7.563 7.542)">
            <g id="Grupo_881455" data-name="Grupo 881455" transform="translate(0)">
              <g id="Grupo_881435" data-name="Grupo 881435">
                <g id="Grupo_881430" data-name="Grupo 881430" transform="translate(0 7.372)">
                  <g id="Grupo_881427" data-name="Grupo 881427">
                    <g id="Grupo_881422" data-name="Grupo 881422" transform="translate(0 24.091)">
                      <g id="Grupo_881421" data-name="Grupo 881421">
                        <path id="Trazado_749165" data-name="Trazado 749165" d="M48.505,372.126H11.087a3.524,3.524,0,0,1-3.305-4.748l2.9-7.818a.674.674,0,0,1,.632-.44H48.282a.674.674,0,0,1,.632.44l2.9,7.818a3.524,3.524,0,0,1-3.3,4.748ZM11.779,360.467l-2.734,7.379a2.177,2.177,0,0,0,2.042,2.933H48.505a2.177,2.177,0,0,0,2.041-2.933l-2.733-7.379Z" transform="translate(-7.563 -359.119)"/>
                      </g>
                    </g>
                    <g id="Grupo_881424" data-name="Grupo 881424" transform="translate(3.077)">
                      <g id="Grupo_881423" data-name="Grupo 881423">
                        <path id="Trazado_749166" data-name="Trazado 749166" d="M79.581,115.358H42.614a.674.674,0,0,1-.674-.674V92.616a2.7,2.7,0,0,1,2.7-2.7h6.017a.674.674,0,1,1,0,1.348H44.635a1.349,1.349,0,0,0-1.348,1.348V114.01H78.907V92.616a1.349,1.349,0,0,0-1.348-1.348H71.541a.674.674,0,0,1,0-1.348h6.018a2.7,2.7,0,0,1,2.7,2.7v22.068A.674.674,0,0,1,79.581,115.358Z" transform="translate(-41.94 -89.921)"/>
                      </g>
                    </g>
                    <g id="Grupo_881426" data-name="Grupo 881426" transform="translate(6.442 20.723)">
                      <g id="Grupo_881425" data-name="Grupo 881425">
                        <path id="Trazado_749167" data-name="Trazado 749167" d="M110.459,322.824H80.225a.674.674,0,0,1,0-1.348h30.234a.674.674,0,1,1,0,1.348Z" transform="translate(-79.551 -321.476)"/>
                      </g>
                    </g>
                  </g>
                  <g id="Grupo_881429" data-name="Grupo 881429" transform="translate(0.177 31.91)">
                    <g id="Grupo_881428" data-name="Grupo 881428">
                      <path id="Trazado_749168" data-name="Trazado 749168" d="M52.982,447.831H10.217a.674.674,0,1,1,0-1.348H52.982a.674.674,0,0,1,0,1.348Z" transform="translate(-9.543 -446.483)"/>
                    </g>
                  </g>
                </g>
                <g id="Grupo_881432" data-name="Grupo 881432" transform="translate(11.115 5.479)">
                  <g id="Grupo_881431" data-name="Grupo 881431">
                    <path id="Trazado_749169" data-name="Trazado 749169" d="M153.327,92.721H132.438a.674.674,0,0,1-.674-.674V69.433a.674.674,0,0,1,.674-.674h20.889a.674.674,0,0,1,.674.674V92.047A.674.674,0,0,1,153.327,92.721Zm-20.215-1.348h19.541V70.107H133.112Z" transform="translate(-131.764 -68.759)"/>
                  </g>
                </g>
                <g id="Grupo_881434" data-name="Grupo 881434" transform="translate(11.115)">
                  <g id="Grupo_881433" data-name="Grupo 881433">
                    <path id="Trazado_749170" data-name="Trazado 749170" d="M153.327,14.368H132.438a.674.674,0,0,1-.674-.674V9.564a2.024,2.024,0,0,1,2.021-2.022h18.193A2.024,2.024,0,0,1,154,9.564v4.131A.674.674,0,0,1,153.327,14.368Zm-20.215-1.348h19.541V9.564a.675.675,0,0,0-.674-.674H133.785a.675.675,0,0,0-.674.674Z" transform="translate(-131.764 -7.542)"/>
                  </g>
                </g>
              </g>
              <g id="Grupo_881442" data-name="Grupo 881442" transform="translate(24.673 14.656)">
                <g id="Grupo_881437" data-name="Grupo 881437" transform="translate(0 1.193)">
                  <g id="Grupo_881436" data-name="Grupo 881436">
                    <path id="Trazado_749171" data-name="Trazado 749171" d="M285.911,193.91a2.658,2.658,0,0,1-2.655-2.655.674.674,0,0,1,1.348,0,1.307,1.307,0,1,0,1.307-1.307,2.655,2.655,0,1,1,2.655-2.655.674.674,0,1,1-1.348,0,1.307,1.307,0,1,0-1.308,1.307,2.655,2.655,0,1,1,0,5.31Z" transform="translate(-283.256 -184.638)"/>
                  </g>
                </g>
                <g id="Grupo_881439" data-name="Grupo 881439" transform="translate(1.981)">
                  <g id="Grupo_881438" data-name="Grupo 881438">
                    <path id="Trazado_749172" data-name="Trazado 749172" d="M306.063,173.851a.674.674,0,0,1-.674-.674v-1.193a.674.674,0,0,1,1.348,0v1.193A.674.674,0,0,1,306.063,173.851Z" transform="translate(-305.389 -171.311)"/>
                  </g>
                </g>
                <g id="Grupo_881441" data-name="Grupo 881441" transform="translate(1.981 9.117)">
                  <g id="Grupo_881440" data-name="Grupo 881440">
                    <path id="Trazado_749173" data-name="Trazado 749173" d="M306.063,275.48a.674.674,0,0,1-.674-.674v-.95a.674.674,0,0,1,1.348,0v.95A.674.674,0,0,1,306.063,275.48Z" transform="translate(-305.389 -273.182)"/>
                  </g>
                </g>
              </g>
              <g id="Grupo_881444" data-name="Grupo 881444" transform="translate(14.484 15.198)">
                <g id="Grupo_881443" data-name="Grupo 881443">
                  <path id="Trazado_749174" data-name="Trazado 749174" d="M176.9,178.71h-6.819a.674.674,0,0,1,0-1.348H176.9a.674.674,0,0,1,0,1.348Z" transform="translate(-169.411 -177.362)"/>
                </g>
              </g>
              <g id="Grupo_881446" data-name="Grupo 881446" transform="translate(14.484 18.373)">
                <g id="Grupo_881445" data-name="Grupo 881445">
                  <path id="Trazado_749175" data-name="Trazado 749175" d="M176.9,214.188h-6.819a.674.674,0,0,1,0-1.348H176.9a.674.674,0,0,1,0,1.348Z" transform="translate(-169.411 -212.84)"/>
                </g>
              </g>
              <g id="Grupo_881448" data-name="Grupo 881448" transform="translate(14.484 12.023)">
                <g id="Grupo_881447" data-name="Grupo 881447" transform="translate(0 0)">
                  <path id="Trazado_749176" data-name="Trazado 749176" d="M184.235,143.232H170.085a.674.674,0,0,1,0-1.348h14.151a.674.674,0,0,1,0,1.348Z" transform="translate(-169.411 -141.884)"/>
                </g>
              </g>
              <g id="Grupo_881450" data-name="Grupo 881450" transform="translate(14.484 21.548)">
                <g id="Grupo_881449" data-name="Grupo 881449">
                  <path id="Trazado_749177" data-name="Trazado 749177" d="M176.9,249.666h-6.819a.674.674,0,0,1,0-1.348H176.9a.674.674,0,0,1,0,1.348Z" transform="translate(-169.411 -248.318)"/>
                </g>
              </g>
              <g id="Grupo_881452" data-name="Grupo 881452" transform="translate(14.484 8.848)">
                <g id="Grupo_881451" data-name="Grupo 881451" transform="translate(0 0)">
                  <path id="Trazado_749178" data-name="Trazado 749178" d="M184.235,107.754H170.085a.674.674,0,0,1,0-1.348h14.151a.674.674,0,0,1,0,1.348Z" transform="translate(-169.411 -106.406)"/>
                </g>
              </g>
              <g id="Grupo_881454" data-name="Grupo 881454" transform="translate(14.484 24.723)">
                <g id="Grupo_881453" data-name="Grupo 881453">
                  <path id="Trazado_749179" data-name="Trazado 749179" d="M176.9,285.148h-6.819a.674.674,0,1,1,0-1.348H176.9a.674.674,0,1,1,0,1.348Z" transform="translate(-169.411 -283.8)"/>
                </g>
              </g>
            </g>
            <g id="Grupo_881465" data-name="Grupo 881465" transform="translate(14.721 2.739)">
              <g id="Grupo_881458" data-name="Grupo 881458">
                <g id="Grupo_881457" data-name="Grupo 881457">
                  <g id="Grupo_881456" data-name="Grupo 881456">
                    <path id="Trazado_749180" data-name="Trazado 749180" d="M173.224,39.5h-.5a.674.674,0,0,1,0-1.348h.5a.674.674,0,1,1,0,1.348Z" transform="translate(-172.051 -38.149)"/>
                  </g>
                </g>
              </g>
              <g id="Grupo_881461" data-name="Grupo 881461" transform="translate(2.859 0)">
                <g id="Grupo_881460" data-name="Grupo 881460">
                  <g id="Grupo_881459" data-name="Grupo 881459">
                    <path id="Trazado_749181" data-name="Trazado 749181" d="M205.165,39.5h-.5a.674.674,0,0,1,0-1.348h.5a.674.674,0,1,1,0,1.348Z" transform="translate(-203.992 -38.153)"/>
                  </g>
                </g>
              </g>
              <g id="Grupo_881464" data-name="Grupo 881464" transform="translate(5.716 0)">
                <g id="Grupo_881463" data-name="Grupo 881463">
                  <g id="Grupo_881462" data-name="Grupo 881462">
                    <path id="Trazado_749182" data-name="Trazado 749182" d="M237.1,39.5h-.5a.674.674,0,1,1,0-1.348h.5a.674.674,0,1,1,0,1.348Z" transform="translate(-235.926 -38.153)"/>
                  </g>
                </g>
              </g>
            </g>
          </g>
          <g id="Grupo_881468" data-name="Grupo 881468" transform="translate(23.683 43.98)">
            <g id="Grupo_881467" data-name="Grupo 881467" transform="translate(0)">
              <path id="Trazado_749183" data-name="Trazado 749183" d="M199.248,418.889a.673.673,0,0,1-.651-.5l-.607-2.34h-8.361l-.606,2.34a.674.674,0,1,1-1.3-.338l.736-2.845a.673.673,0,0,1,.652-.505h9.4a.674.674,0,0,1,.652.5l.737,2.845a.674.674,0,0,1-.483.822A.686.686,0,0,1,199.248,418.889Z" transform="translate(-187.697 -414.697)"/>
            </g>
          </g>
        </g>
      </g>
    </g>
  </g>
</svg>
