<svg xmlns="http://www.w3.org/2000/svg" width="78.227" height="60.019" viewBox="0 0 78.227 60.019">
  <g id="Grupo_1034307" data-name="Grupo 1034307" transform="translate(-180 -7543.98)">
    <path id="Trazado_194609" data-name="Trazado 194609" d="M0,0,78.227,36.813H0Z" transform="translate(180 7567.187)" fill="#617a0b"/>
    <g id="Grupo_878664" data-name="Grupo 878664" transform="translate(189.104 7543.98)">
      <g id="Grupo_878662" data-name="Grupo 878662" transform="translate(0.879 0.879)">
        <path id="Trazado_627858" data-name="Trazado 627858" d="M64.835,7.5H8.426a.926.926,0,0,0-.926.926v13.7l6.565,10.46L26.579,39.92l8.669,3.121H64.835a.926.926,0,0,0,.926-.926V8.426A.926.926,0,0,0,64.835,7.5Z" transform="translate(-7.5 -7.5)" fill="#b6e1fd"/>
        <path id="Trazado_627859" data-name="Trazado 627859" d="M475.45,7.5h-2.809a.926.926,0,0,1,.926.926V42.115a.926.926,0,0,1-.926.926h2.809a.926.926,0,0,0,.926-.926V8.426A.926.926,0,0,0,475.45,7.5Z" transform="translate(-418.115 -7.5)" fill="#64caff"/>
        <g id="Grupo_878661" data-name="Grupo 878661" transform="translate(3.228 2.751)">
          <g id="Grupo_878656" data-name="Grupo 878656" transform="translate(0 0)">
            <path id="Trazado_627860" data-name="Trazado 627860" d="M40.995,34.3H35.759a.718.718,0,0,1-.678-.954l.5-1.431a1.408,1.408,0,0,1,1.33-.944h2.934a1.408,1.408,0,0,1,1.33.944l.5,1.431A.718.718,0,0,1,40.995,34.3Z" transform="translate(-35.041 -30.969)" fill="#ffb338"/>
            <path id="Trazado_627861" data-name="Trazado 627861" d="M59.893,33.345l-.5-1.431a1.408,1.408,0,0,0-1.329-.944H55.548a1.408,1.408,0,0,1,1.329.944l.5,1.431a.718.718,0,0,1-.678.954h2.517A.718.718,0,0,0,59.893,33.345Z" transform="translate(-53.144 -30.969)" fill="#ffb338"/>
          </g>
          <g id="Grupo_878657" data-name="Grupo 878657" transform="translate(11.254 0)">
            <path id="Trazado_627862" data-name="Trazado 627862" d="M136.995,34.3h-5.236a.718.718,0,0,1-.678-.954l.5-1.431a1.408,1.408,0,0,1,1.33-.944h2.934a1.408,1.408,0,0,1,1.33.944l.5,1.431A.718.718,0,0,1,136.995,34.3Z" transform="translate(-131.041 -30.969)" fill="#ffb338"/>
            <path id="Trazado_627863" data-name="Trazado 627863" d="M155.893,33.345l-.5-1.431a1.408,1.408,0,0,0-1.329-.944h-2.517a1.408,1.408,0,0,1,1.329.944l.5,1.431a.718.718,0,0,1-.678.954h2.517A.718.718,0,0,0,155.893,33.345Z" transform="translate(-149.144 -30.969)" fill="#ffb338"/>
          </g>
          <g id="Grupo_878658" data-name="Grupo 878658" transform="translate(22.507 0)">
            <path id="Trazado_627864" data-name="Trazado 627864" d="M232.995,34.3h-5.236a.718.718,0,0,1-.678-.954l.5-1.431a1.408,1.408,0,0,1,1.33-.944h2.934a1.408,1.408,0,0,1,1.329.944l.5,1.431A.718.718,0,0,1,232.995,34.3Z" transform="translate(-227.041 -30.969)" fill="#ffb338"/>
            <path id="Trazado_627865" data-name="Trazado 627865" d="M251.893,33.345l-.5-1.431a1.408,1.408,0,0,0-1.329-.944h-2.517a1.408,1.408,0,0,1,1.329.944l.5,1.431a.718.718,0,0,1-.678.954h2.517A.718.718,0,0,0,251.893,33.345Z" transform="translate(-245.144 -30.969)" fill="#ffb338"/>
          </g>
          <g id="Grupo_878659" data-name="Grupo 878659" transform="translate(33.761 0)">
            <path id="Trazado_627866" data-name="Trazado 627866" d="M328.995,34.3h-5.236a.718.718,0,0,1-.678-.954l.5-1.431a1.408,1.408,0,0,1,1.329-.944h2.934a1.408,1.408,0,0,1,1.329.944l.5,1.431A.717.717,0,0,1,328.995,34.3Z" transform="translate(-323.041 -30.969)" fill="#ffb338"/>
            <path id="Trazado_627867" data-name="Trazado 627867" d="M347.893,33.345l-.5-1.431a1.408,1.408,0,0,0-1.329-.944h-2.517a1.408,1.408,0,0,1,1.329.944l.5,1.431a.718.718,0,0,1-.678.954h2.517A.718.718,0,0,0,347.893,33.345Z" transform="translate(-341.144 -30.969)" fill="#ffb338"/>
          </g>
          <g id="Grupo_878660" data-name="Grupo 878660" transform="translate(45.014 0)">
            <path id="Trazado_627868" data-name="Trazado 627868" d="M424.995,34.3h-5.236a.718.718,0,0,1-.678-.954l.5-1.431a1.408,1.408,0,0,1,1.329-.944h2.934a1.408,1.408,0,0,1,1.329.944l.5,1.431A.717.717,0,0,1,424.995,34.3Z" transform="translate(-419.041 -30.969)" fill="#ffb338"/>
            <path id="Trazado_627869" data-name="Trazado 627869" d="M443.893,33.345l-.5-1.431a1.408,1.408,0,0,0-1.329-.944h-2.517a1.408,1.408,0,0,1,1.329.944l.5,1.431a.718.718,0,0,1-.678.954h2.517A.718.718,0,0,0,443.893,33.345Z" transform="translate(-437.144 -30.969)" fill="#ffb338"/>
          </g>
        </g>
        <path id="Trazado_627870" data-name="Trazado 627870" d="M8.426,163.176H31.977l.192-3.225-4.035-1.6L23.7,156.765,22.4,153.343l-1.962-1.549-2.323-.476-2.795-1.434-2.987-3.252L9.86,143.587l-2.36.419V162.25a.926.926,0,0,0,.926.926Z" transform="translate(-7.5 -127.634)" fill="#ffb338"/>
        <path id="Trazado_627871" data-name="Trazado 627871" d="M9.122,134.82c2.6,1.917,1.347,3.615,3.947,5.532s3.851.218,6.451,2.134,1.347,3.615,3.946,5.531,3.851.218,6.45,2.134a5.439,5.439,0,0,1,2.062,3h3.271c-1.129-1.492-.72-2.9-2.817-4.443-2.6-1.916-3.851-.218-6.45-2.134s-1.347-3.615-3.946-5.531-3.851-.218-6.451-2.134-1.347-3.615-3.947-5.532c-1.705-1.257-2.831-.959-4.137-1.146v1.751A5.2,5.2,0,0,1,9.122,134.82Z" transform="translate(-7.501 -117.609)" fill="#eb6f2d"/>
        <path id="Trazado_627872" data-name="Trazado 627872" d="M185.807,314.52H168.169a1.673,1.673,0,0,1-1.673-1.673v-2.154H187.48v2.154A1.673,1.673,0,0,1,185.807,314.52Z" transform="translate(-147.858 -275.151)" fill="#728d9a"/>
        <path id="Trazado_627873" data-name="Trazado 627873" d="M217.943,343.34h8.922v18.892h-8.922Z" transform="translate(-193.274 -303.971)" fill="#728d9a"/>
        <path id="Trazado_627874" data-name="Trazado 627874" d="M217.943,343.34h8.923v2.382h-8.923Z" transform="translate(-193.274 -303.971)" fill="#4f6c77"/>
      </g>
      <g id="Grupo_878663" data-name="Grupo 878663" transform="translate(0 0)">
        <path id="Trazado_627875" data-name="Trazado 627875" d="M248.6,102.6a.879.879,0,1,0,1.645-.621L245.275,88.8l-.009-.024a1.178,1.178,0,0,0-1.093-.732h0a1.178,1.178,0,0,0-1.093.735l-.008.02-5.018,13.175a.879.879,0,1,0,1.643.626l1.034-2.715h6.848Zm-7.2-4.471,2.77-7.273,2.745,7.273Z" transform="translate(-210.097 -77.727)"/>
        <path id="Trazado_627876" data-name="Trazado 627876" d="M373.786,112.55a.879.879,0,0,0,.879-.879V99.554a.879.879,0,0,0-1.758,0v4.277a4.942,4.942,0,1,0,0,7.554v.286A.879.879,0,0,0,373.786,112.55Zm-4.063-1.758a3.184,3.184,0,1,1,3.184-3.184A3.187,3.187,0,0,1,369.723,110.792Z" transform="translate(-322.02 -87.108)"/>
        <path id="Trazado_627877" data-name="Trazado 627877" d="M296.354,260.048h13.9a.879.879,0,1,0,0-1.758h-13.9a.879.879,0,1,0,0,1.758Z" transform="translate(-260.838 -228.012)"/>
        <path id="Trazado_627878" data-name="Trazado 627878" d="M50.692,239.133H45.5a.879.879,0,1,0,0,1.758h5.188a.879.879,0,1,0,0-1.758Z" transform="translate(-39.394 -211.101)"/>
        <path id="Trazado_627879" data-name="Trazado 627879" d="M50.692,266.876H45.5a.879.879,0,0,0,0,1.758h5.188a.879.879,0,0,0,0-1.758Z" transform="translate(-39.394 -235.592)"/>
        <path id="Trazado_627880" data-name="Trazado 627880" d="M211.322,424.055a.879.879,0,0,0-.879.879v8.551a.879.879,0,1,0,1.758,0v-8.551A.879.879,0,0,0,211.322,424.055Z" transform="translate(-185.774 -374.345)"/>
        <path id="Trazado_627881" data-name="Trazado 627881" d="M59.14,20.462a.879.879,0,0,0,.879-.879V1.805A1.807,1.807,0,0,0,58.214,0H1.805A1.807,1.807,0,0,0,0,1.805V35.495A1.807,1.807,0,0,0,1.805,37.3H18.638v1.275a2.555,2.555,0,0,0,2.552,2.552h3.478v6.062a.879.879,0,0,0,1.758,0V41.127h7.164V59.14a.879.879,0,0,0,1.758,0V49.768h1.56v.644a.879.879,0,1,0,1.758,0V47.366a.879.879,0,1,0-1.758,0v.644H35.35V41.127h3.478a2.555,2.555,0,0,0,2.552-2.552V37.3H58.214a1.807,1.807,0,0,0,1.805-1.805V22.982a.879.879,0,1,0-1.758,0V35.495a.047.047,0,0,1-.047.047H29.095a6.77,6.77,0,0,1-.487-1.1,6.344,6.344,0,0,0-5.973-4.4,4.6,4.6,0,0,1-4.424-3.262A6.009,6.009,0,0,0,15.935,23.6a6.009,6.009,0,0,0-3.7-1.237,4.3,4.3,0,0,1-2.753-.9,5.405,5.405,0,0,1-.5-.418.879.879,0,0,0-1.206,1.28,7.122,7.122,0,0,0,.665.553,6.008,6.008,0,0,0,3.7,1.237,4.3,4.3,0,0,1,2.753.9,4.3,4.3,0,0,1,1.671,2.365,6.343,6.343,0,0,0,5.972,4.4,4.6,4.6,0,0,1,4.425,3.262c.059.158.12.322.188.491H1.805a.047.047,0,0,1-.047-.047V16.458a4.279,4.279,0,0,1,2.736.9A3.993,3.993,0,0,1,5.878,19a.879.879,0,1,0,1.6-.731,5.7,5.7,0,0,0-1.939-2.332A6.01,6.01,0,0,0,1.84,14.7l-.082,0V1.805a.047.047,0,0,1,.047-.047H6.623v.993H5.977a2.289,2.289,0,0,0-2.16,1.534l-.5,1.431A1.6,1.6,0,0,0,4.826,7.839h5.353a1.6,1.6,0,0,0,1.508-2.122l-.5-1.431a2.289,2.289,0,0,0-2.16-1.534H8.382V1.758h9.5v.993H17.23a2.289,2.289,0,0,0-2.16,1.534l-.5,1.431a1.6,1.6,0,0,0,1.508,2.122h5.353A1.6,1.6,0,0,0,22.94,5.716l-.5-1.431a2.289,2.289,0,0,0-2.16-1.534h-.646V1.758h9.5v.993h-.647a2.289,2.289,0,0,0-2.16,1.534l-.5,1.431a1.6,1.6,0,0,0,1.508,2.122h5.353a1.6,1.6,0,0,0,1.508-2.122l-.5-1.431a2.289,2.289,0,0,0-2.16-1.534h-.646V1.758h9.5v.993h-.647a2.289,2.289,0,0,0-2.16,1.534l-.5,1.431a1.6,1.6,0,0,0,1.508,2.122H43.94a1.6,1.6,0,0,0,1.508-2.122l-.5-1.431a2.289,2.289,0,0,0-2.16-1.534h-.646V1.758h9.5v.993h-.647a2.289,2.289,0,0,0-2.16,1.534l-.5,1.431A1.6,1.6,0,0,0,49.84,7.839h5.353A1.6,1.6,0,0,0,56.7,5.716l-.5-1.431a2.289,2.289,0,0,0-2.16-1.534H53.4V1.758h4.818a.047.047,0,0,1,.047.047V19.582a.879.879,0,0,0,.879.879ZM39.623,37.3v1.275a.8.8,0,0,1-.794.794H21.191a.8.8,0,0,1-.794-.794V37.3ZM9.527,4.864l.424,1.216h-4.9l.424-1.216a.529.529,0,0,1,.5-.355H9.028A.529.529,0,0,1,9.527,4.864Zm11.254,0,.424,1.216h-4.9l.424-1.216a.529.529,0,0,1,.5-.355h3.051A.529.529,0,0,1,20.781,4.864Zm11.254,0,.424,1.216h-4.9l.424-1.216a.529.529,0,0,1,.5-.355h3.051A.529.529,0,0,1,32.035,4.864Zm11.254,0,.424,1.216h-4.9l.424-1.217a.529.529,0,0,1,.5-.355h3.051a.529.529,0,0,1,.5.355Zm11.254,0,.424,1.216h-4.9l.424-1.217a.529.529,0,0,1,.5-.355h3.051a.529.529,0,0,1,.5.355Z" transform="translate(0 0)"/>
      </g>
    </g>
  </g>
</svg>
