<svg xmlns="http://www.w3.org/2000/svg" width="78.227" height="54.913" viewBox="0 0 78.227 54.913">
  <g id="Grupo_1034307" data-name="Grupo 1034307" transform="translate(-180 -7549.086)">
    <path id="Trazado_194609" data-name="Trazado 194609" d="M0,0,78.227,36.813H0Z" transform="translate(180 7567.187)" fill="#617a0b"/>
    <g id="XMLID_323_" transform="translate(201.627 7549.086)">
      <path id="XMLID_1905_" d="M18.071,104.17H14.035A4.035,4.035,0,0,1,10,100.135V69.87h4.035V64h4.035Z" transform="translate(-9.083 -58.13)" fill="#c3d3dd"/>
      <path id="XMLID_1904_" d="M91.052,55.123a4.035,4.035,0,0,0,4.035-4.035V10H58.035V51.087A4.035,4.035,0,0,1,54,55.123Z" transform="translate(-49.048 -9.083)" fill="#fff"/>
      <path id="XMLID_1876_" d="M146,196h14.124v17.609H146Z" transform="translate(-132.61 -178.024)" fill="#2b95f9"/>
      <path id="XMLID_1135_" d="M146,76h28.248v6.6H146Z" transform="translate(-132.61 -69.03)" fill="#ffb338"/>
      <g id="XMLID_1291_">
        <path id="XMLID_1351_" d="M46.04,0H8.988a.917.917,0,0,0-.917.917V4.952H4.952a.917.917,0,0,0-.917.917v4.952H.917A.917.917,0,0,0,0,11.739V42a4.958,4.958,0,0,0,4.952,4.952H42A4.958,4.958,0,0,0,46.957,42V.917A.917.917,0,0,0,46.04,0Zm-.917,42A3.122,3.122,0,0,1,42,45.123H8.8A4.929,4.929,0,0,0,9.9,42V29.624a.917.917,0,0,0-1.834,0V42a3.118,3.118,0,0,1-6.236,0V12.656h2.2V41.087a.917.917,0,1,0,1.834,0V6.787h2.2V21.369a.917.917,0,0,0,1.834,0V1.834H45.123Z"/>
        <path id="XMLID_1376_" d="M136.917,74.438h28.248a.917.917,0,0,0,.917-.917v-6.6a.917.917,0,0,0-.917-.917H136.917a.917.917,0,0,0-.917.917v6.6A.917.917,0,0,0,136.917,74.438Zm.917-6.6h26.413V72.6H137.834Z" transform="translate(-123.527 -59.947)"/>
        <path id="XMLID_1459_" d="M136.917,205.443h14.124a.917.917,0,0,0,.917-.917V186.917a.917.917,0,0,0-.917-.917H136.917a.917.917,0,0,0-.917.917v17.609A.917.917,0,0,0,136.917,205.443Zm.917-17.609h12.29v15.775h-12.29Z" transform="translate(-123.527 -168.941)"/>
        <path id="XMLID_1460_" d="M348.639,186h-9.722a.917.917,0,0,0,0,1.834h9.722a.917.917,0,1,0,0-1.834Z" transform="translate(-307.001 -168.941)"/>
        <path id="XMLID_1476_" d="M348.639,234h-9.722a.917.917,0,0,0,0,1.834h9.722a.917.917,0,1,0,0-1.834Z" transform="translate(-307.001 -212.539)"/>
        <path id="XMLID_1533_" d="M348.639,282h-9.722a.917.917,0,0,0,0,1.834h9.722a.917.917,0,1,0,0-1.834Z" transform="translate(-307.001 -256.137)"/>
        <path id="XMLID_1535_" d="M348.639,330h-9.722a.917.917,0,0,0,0,1.834h9.722a.917.917,0,1,0,0-1.834Z" transform="translate(-307.001 -299.735)"/>
        <path id="XMLID_1545_" d="M348.639,378h-9.722a.917.917,0,0,0,0,1.834h9.722a.917.917,0,1,0,0-1.834Z" transform="translate(-307.001 -343.333)"/>
        <path id="XMLID_1550_" d="M136.917,427.834h28.248a.917.917,0,1,0,0-1.834H136.917a.917.917,0,1,0,0,1.834Z" transform="translate(-123.527 -386.93)"/>
        <path id="XMLID_1572_" d="M89.417,268a.918.918,0,1,0,.648.269A.924.924,0,0,0,89.417,268Z" transform="translate(-80.383 -243.421)"/>
      </g>
    </g>
  </g>
</svg>
