<svg xmlns="http://www.w3.org/2000/svg" width="78.227" height="54.683" viewBox="0 0 78.227 54.683">
  <g id="Grupo_1034307" data-name="Grupo 1034307" transform="translate(-180 -7549.319)">
    <path id="Trazado_194609" data-name="Trazado 194609" d="M0,0,78.227,36.813H0Z" transform="translate(180 7567.188)" fill="#617a0b"/>
    <g id="Grupo_878668" data-name="Grupo 878668" transform="translate(188.702 7494.667)">
      <g id="Grupo_878666" data-name="Grupo 878666" transform="translate(1.018 55.667)">
        <path id="Trazado_627882" data-name="Trazado 627882" d="M271.177,158.621,259.06,146.5l-3.927,3.927a7.484,7.484,0,0,0-7.36,1.9l17.575,17.575a7.484,7.484,0,0,0,1.9-7.36Z" transform="translate(-215.146 -135.047)" fill="#db9e82"/>
        <path id="Trazado_627883" data-name="Trazado 627883" d="M403.26,90.571,396.432,97.4a2.688,2.688,0,0,1-3.772.03c-4.737-6.4-6.218-15.86-1.572-22.834L403.26,86.766A2.692,2.692,0,0,1,403.26,90.571Z" transform="translate(-336.559 -72.902)" fill="#b6e1fd"/>
        <path id="Trazado_627884" data-name="Trazado 627884" d="M332.194,86.656a.329.329,0,0,1-.033-.03L319.084,73.549a2.69,2.69,0,0,1,0-3.8l6.828-6.826a2.69,2.69,0,0,1,3.8,0l.9.9a26.146,26.146,0,0,0,1.572,22.833Z" transform="translate(-276.093 -62.13)" fill="#2b95f9"/>
        <path id="Trazado_627885" data-name="Trazado 627885" d="M432.557,178.811a2.208,2.208,0,0,1-1.308,2.015,2.05,2.05,0,0,1-1.553-2.015,1.964,1.964,0,0,1,1.553-2.015A2.206,2.206,0,0,1,432.557,178.811Z" transform="translate(-372.366 -161.225)" fill="#e8ddf5"/>
        <path id="Trazado_627886" data-name="Trazado 627886" d="M421.368,179.608a2.182,2.182,0,0,1-.9.191,2.207,2.207,0,0,1,0-4.413,2.182,2.182,0,0,1,.9.191,2.206,2.206,0,0,0,0,4.03Z" transform="translate(-362.484 -160.007)" fill="#d6c4ea"/>
        <path id="Trazado_627887" data-name="Trazado 627887" d="M236.9,207.937a3.107,3.107,0,0,1-5.3,2.2,3.106,3.106,0,0,1-4.393,4.393,3.107,3.107,0,0,1-4.394,4.394l-1.934-1.934c-7.85-6.721-9.709-20.046-2.234-28.522a7.5,7.5,0,0,1,.664.589l16.685,16.685A3.1,3.1,0,0,1,236.9,207.937Z" transform="translate(-185.879 -171.311)" fill="#ffddcf"/>
        <path id="Trazado_627888" data-name="Trazado 627888" d="M116.1,193.474l-5.916,2.871L96.954,183.117a7.484,7.484,0,0,1-1.9-7.36l-2.382-2.383,12.117-12.117,2.382,2.383a7.486,7.486,0,0,1,6.7,1.312C107.821,173.9,109.122,185.116,116.1,193.474Z" transform="translate(-81.105 -147.797)" fill="#ffcbbe"/>
        <path id="Trazado_627889" data-name="Trazado 627889" d="M99.319,88.7,88.372,99.646c-4.225-6.3-4.1-16.315,1.363-22.227a2.687,2.687,0,0,1,2.755.648L99.319,84.9A2.69,2.69,0,0,1,99.319,88.7Z" transform="translate(-74.822 -75.223)" fill="#ffb338"/>
        <path id="Trazado_627890" data-name="Trazado 627890" d="M21.05,100.532l-2.131,2.131a2.69,2.69,0,0,1-3.8,0L8.287,95.835a2.692,2.692,0,0,1,0-3.8L21.364,78.954a2.666,2.666,0,0,1,1.05-.648C17.765,84.582,17.5,93.72,21.05,100.532Z" transform="translate(-7.5 -76.109)" fill="#eb6f2d"/>
        <path id="Trazado_627891" data-name="Trazado 627891" d="M75.538,193.951a2.208,2.208,0,0,1-1.306,2.016,1.906,1.906,0,0,1-1.553-2.016,1.984,1.984,0,0,1,1.553-2.015A2.208,2.208,0,0,1,75.538,193.951Z" transform="translate(-63.827 -174.31)" fill="#e8ddf5"/>
        <path id="Trazado_627892" data-name="Trazado 627892" d="M64.345,194.75a2.207,2.207,0,1,1,0-4.032,2.208,2.208,0,0,0,0,4.032Z" transform="translate(-53.941 -173.092)" fill="#d6c4ea"/>
        <g id="Grupo_878665" data-name="Grupo 878665" transform="translate(14.837 12.209)">
          <path id="Trazado_627893" data-name="Trazado 627893" d="M181.369,157.115l-2.345-2.2a10.633,10.633,0,0,0-9.361-2.671l-8.341,1.67a3.282,3.282,0,0,0,1.052,6.474l8.349-1.047a12.731,12.731,0,0,0,7.147,4.526Z" transform="translate(-152.99 -152.037)" fill="#db9e82"/>
          <path id="Trazado_627894" data-name="Trazado 627894" d="M122.063,301.708l1.671-1.671a3.107,3.107,0,0,0-4.394-4.394l-1.671,1.671a3.107,3.107,0,1,0,4.394,4.394Z" transform="translate(-116.76 -275.356)" fill="#db9e82"/>
          <path id="Trazado_627895" data-name="Trazado 627895" d="M154.421,334.064l1.671-1.671A3.107,3.107,0,0,0,151.7,328l-1.671,1.671a3.107,3.107,0,1,0,4.394,4.394Z" transform="translate(-144.723 -303.318)" fill="#db9e82"/>
          <path id="Trazado_627896" data-name="Trazado 627896" d="M186.777,366.421l1.671-1.671a3.107,3.107,0,0,0-4.394-4.394l-1.671,1.671a3.107,3.107,0,0,0,4.394,4.394Z" transform="translate(-172.685 -331.282)" fill="#db9e82"/>
          <path id="Trazado_627897" data-name="Trazado 627897" d="M219.134,398.778l1.671-1.671a3.107,3.107,0,0,0-4.394-4.394l-1.671,1.671a3.107,3.107,0,1,0,4.394,4.394Z" transform="translate(-200.649 -359.245)" fill="#db9e82"/>
        </g>
      </g>
      <g id="Grupo_878667" data-name="Grupo 878667" transform="translate(0 54.652)">
        <path id="Trazado_627898" data-name="Trazado 627898" d="M413.98,167.9a3.225,3.225,0,1,0,3.225,3.225,3.229,3.229,0,0,0-3.225-3.225Zm0,4.414a1.188,1.188,0,1,1,1.188-1.188A1.19,1.19,0,0,1,413.98,172.319Z" transform="translate(-354.978 -152.526)"/>
        <path id="Trazado_627899" data-name="Trazado 627899" d="M56.966,189.5a3.225,3.225,0,1,0-3.225-3.225A3.229,3.229,0,0,0,56.966,189.5Zm0-4.414a1.188,1.188,0,1,1-1.188,1.188A1.19,1.19,0,0,1,56.966,185.089Z" transform="translate(-46.443 -165.616)"/>
        <path id="Trazado_627900" data-name="Trazado 627900" d="M68.439,68.815l-1.9-1.9a1.018,1.018,0,0,0-1.44,1.44l1.9,1.9a1.672,1.672,0,0,1,0,2.364l-6.827,6.827a1.672,1.672,0,0,1-2.364,0L44.73,66.37a1.672,1.672,0,0,1,0-2.364l6.827-6.827a1.672,1.672,0,0,1,2.364,0l7.812,7.812a1.018,1.018,0,1,0,1.44-1.44l-7.812-7.812a3.709,3.709,0,0,0-5.245,0L43.29,62.565a3.708,3.708,0,0,0-.229,4.994L41.5,69.117a11.738,11.738,0,0,0-9.176-2.029l-5.11,1.023a3.71,3.71,0,0,0-.982-3.488L19.408,57.8a3.709,3.709,0,0,0-5.245,0L1.086,70.872a3.709,3.709,0,0,0,0,5.245L2.82,77.85a1.018,1.018,0,0,0,1.44-1.44L2.527,74.677a1.672,1.672,0,0,1,0-2.365L15.6,59.235a1.672,1.672,0,0,1,2.364,0l6.827,6.827a1.721,1.721,0,0,1-.211,2.575,4.427,4.427,0,0,0-4.041,4.04l0,.005-8.82,8.82a1.672,1.672,0,0,1-2.364,0L7.62,79.77a1.018,1.018,0,1,0-1.44,1.44l1.733,1.733a3.707,3.707,0,0,0,5.08.155l.846.846a8.516,8.516,0,0,0,1.3,6.546,4.121,4.121,0,0,0,4.106,5.653,4.12,4.12,0,0,0,4.4,4.394,4.12,4.12,0,0,0,4.391,4.4,4.124,4.124,0,0,0,7.032,3.2l1.668-1.668a4.1,4.1,0,0,0,1.095-1.963,4.122,4.122,0,0,0,6.429-3.692,4.12,4.12,0,0,0,4.394-4.4,4.123,4.123,0,0,0,3.981-5.939,8.558,8.558,0,0,0,1.619-6.985l2.37-2.37a3.708,3.708,0,0,0,4.994-.229l6.827-6.827a3.709,3.709,0,0,0,0-5.245ZM17.489,93.507a2.1,2.1,0,0,1,0-2.953l1.668-1.668a2.088,2.088,0,1,1,2.953,2.954l-1.667,1.667A2.091,2.091,0,0,1,17.489,93.507ZM21.883,97.9a2.1,2.1,0,0,1,0-2.953l1.668-1.668A2.088,2.088,0,0,1,26.5,96.233L24.836,97.9a2.091,2.091,0,0,1-2.954,0Zm5.87,5.005a2.075,2.075,0,0,1-1.477-.612,2.1,2.1,0,0,1,0-2.953l1.668-1.668a2.088,2.088,0,1,1,2.953,2.953l-1.668,1.668A2.075,2.075,0,0,1,27.753,102.906Zm7.538,2.115-1.668,1.668a2.088,2.088,0,1,1-2.953-2.953l1.668-1.668a2.088,2.088,0,1,1,2.953,2.954ZM50.407,93.774a2.1,2.1,0,0,1-2.953,0l-7.518-7.518a1.018,1.018,0,0,0-1.44,1.44l7.518,7.518a2.088,2.088,0,0,1-2.953,2.953l-7.518-7.518a1.018,1.018,0,0,0-1.44,1.44l7.518,7.518a2.088,2.088,0,0,1-2.953,2.953l-1.934-1.934a4.116,4.116,0,0,0-3.2-1.2,4.116,4.116,0,0,0-4.394-4.394,4.116,4.116,0,0,0-4.392-4.394c.006-.093.01-.187.01-.281a4.125,4.125,0,0,0-7.042-2.917l-1.273,1.273a6.485,6.485,0,0,1-.5-4.808,1.018,1.018,0,0,0-.259-1l-1.247-1.247,6.623-6.623a4.314,4.314,0,0,0,4.3,2.2l7.783-.976a13.825,13.825,0,0,0,7.072,4.371L50.407,90.82A2.1,2.1,0,0,1,50.407,93.774Zm2-11.322a1.018,1.018,0,0,0-.259,1,6.506,6.506,0,0,1-.845,5.38l-9.844-9.844-.021-.019c-.016-.015-.032-.03-.048-.044l-.032-.025c-.016-.012-.032-.024-.048-.035l-.038-.024-.046-.027-.045-.023-.044-.02-.053-.02-.04-.014-.06-.016-.029-.008a11.824,11.824,0,0,1-6.533-4.121,1.018,1.018,0,0,0-.957-.42l-8.349,1.047a2.263,2.263,0,0,1-.726-4.465l8.341-1.67a9.678,9.678,0,0,1,8.186,2.164A1.019,1.019,0,0,0,42.3,71.2l2.189-2.189L55.167,79.687Z" transform="translate(0 -54.652)"/>
      </g>
    </g>
  </g>
</svg>
