<svg id="Grupo_1034296" data-name="Grupo 1034296" xmlns="http://www.w3.org/2000/svg" xmlns:xlink="http://www.w3.org/1999/xlink" width="255.975" height="288.823" viewBox="0 0 255.975 288.823">
  <defs>
    <clipPath id="clip-path">
      <rect id="Rectángulo_328424" data-name="Rectángulo 328424" width="255.975" height="288.823" fill="none"/>
    </clipPath>
    <clipPath id="clip-path-2">
      <rect id="Rectángulo_328410" data-name="Rectángulo 328410" width="255.974" height="288.823" fill="none"/>
    </clipPath>
    <clipPath id="clip-path-3">
      <rect id="Rectángulo_328409" data-name="Rectángulo 328409" width="116.69" height="67.372" fill="none"/>
    </clipPath>
    <clipPath id="clip-path-4">
      <path id="Trazado_627952" data-name="Trazado 627952" d="M30.341,78.479C11.91,89.564,3.716,99.879,5.991,106.863l8.42,25.859c-2.275-6.982,5.919-17.3,24.35-28.384,31.621-19.016,81.6-33.224,111.395-31.661,12.427.651,19.412,3.944,21.041,8.941l-8.42-25.859c-1.629-5-8.614-8.289-21.041-8.943-1.5-.077-3.056-.117-4.656-.117-30.133,0-76.712,13.719-106.739,31.781" transform="translate(-5.62 -46.698)" fill="none"/>
    </clipPath>
    <linearGradient id="linear-gradient" x1="-0.014" y1="1.318" x2="0" y2="1.318" gradientUnits="objectBoundingBox">
      <stop offset="0" stop-color="#6239bd"/>
      <stop offset="0.372" stop-color="#8057db"/>
      <stop offset="0.765" stop-color="#9a71f5"/>
      <stop offset="1" stop-color="#a47bff"/>
    </linearGradient>
    <clipPath id="clip-path-5">
      <path id="Trazado_627953" data-name="Trazado 627953" d="M9.911,111.481A71.572,71.572,0,1,0,81.486,39.906,71.572,71.572,0,0,0,9.911,111.481" transform="translate(-9.911 -39.906)" fill="none"/>
    </clipPath>
    <radialGradient id="radial-gradient" cx="0.691" cy="0.052" r="1.502" gradientTransform="matrix(1, 0, 0, -1, 0, 2.554)" gradientUnits="objectBoundingBox">
      <stop offset="0" stop-color="#0082ff"/>
      <stop offset="1" stop-color="#044d92"/>
    </radialGradient>
    <clipPath id="clip-path-6">
      <path id="Trazado_627954" data-name="Trazado 627954" d="M66.3,127.9a.516.516,0,0,0-.114.4c.008.1.027.3.183.3a.316.316,0,0,0,.133-.037.739.739,0,0,1,.122-.056.517.517,0,0,0,.388-.4c-.072-.239-.194-.356-.351-.356h-.008a.465.465,0,0,0-.353.152m-5.012-1.871a.438.438,0,0,0,.351.555,2.472,2.472,0,0,0,.444.056.841.841,0,0,0,.619-.234.323.323,0,0,0,.229-.1.31.31,0,0,0,.066-.226c-.029-.391-.311-.4-.869-.412-.074,0-.157,0-.244,0l-.074,0c-.213,0-.465.035-.521.367m-9.671-.308c-.191.09-.279.175-.29.279-.008.141.133.247.279.338.295.276.428.4.718.407a1.983,1.983,0,0,0,.449-.074,1.79,1.79,0,0,1,.409-.072c.136,0,.338,0,.359-.25a.421.421,0,0,0-.33-.468,2.559,2.559,0,0,0-1.018-.306,1.207,1.207,0,0,0-.577.146m4.42-1.35c-.2.066-.255.162-.266.229-.011.09.045.173.173.245.045.027.093.051.136.074.077.037.194.1.2.13a1.486,1.486,0,0,1-.951.516c-.167.013-.356.029-.415.165-.04.093,0,.213.13.383.048.045.082.082.114.114.154.162.218.21.675.213a3.228,3.228,0,0,0,.423-.032,3.625,3.625,0,0,1,.412-.032.822.822,0,0,1,.675.292c.09.167.173.245.268.245.112,0,.186-.114.252-.218a.636.636,0,0,1,.106-.13c.048-.061.069-.085.106-.133a3.234,3.234,0,0,0,.763-.133,3.339,3.339,0,0,1,.765-.128,1.276,1.276,0,0,1,.476.1c.2.024.3-.032.361-.122a.6.6,0,0,0,.2-.4.373.373,0,0,0-.173-.266c-.09-.061-.191-.144-.306-.237a3.678,3.678,0,0,0-2.267-1.013,2.758,2.758,0,0,0-.842.133.231.231,0,0,1-.226-.09.381.381,0,0,0-.274-.151.9.9,0,0,0-.51.252m-.013-1.515c-.162.053-.364.12-.409.4a.3.3,0,0,0,.053.234.219.219,0,0,0,.173.085.769.769,0,0,0,.154-.037c.284-.064.524-.117.558-.476a.321.321,0,0,0-.045-.237.237.237,0,0,0-.189-.072c-.152.056-.221.08-.3.1m-8.736-.234c-.053.167-.085.274-.035.353s.13.093.287.093c.178,0,.42-.008.439-.338-.011-.191-.021-.452-.3-.478h0c-.282,0-.346.213-.393.369m7.8-1.257c.322.864.324.864.372.864.393-.332.385-.577.351-.691a.4.4,0,0,0-.4-.268.606.606,0,0,0-.322.1m-6.384-.5a3.931,3.931,0,0,0-2.182.675.719.719,0,0,0-.4.489c-.069.178-.13.332-.3.393.138.258.276.322.412.319a.507.507,0,0,0,.361-.178c.1-.043.2-.082.306-.122a3.04,3.04,0,0,0,.723-.353.6.6,0,0,1,.332-.146c.128,0,.237.1.351.322a1.915,1.915,0,0,0,.731.151,1.47,1.47,0,0,1,.909.266.9.9,0,0,0,.688.274c.311.035.633.074.792.393a2.45,2.45,0,0,1,.173.284c.048.133.088.186.346.255.1.029.223.061.234.12.011.035-.005.12-.194.327a.161.161,0,0,0-.029.165.291.291,0,0,0,.26.17c.207,0,.417.011.625.019s.417.016.627.019a3.945,3.945,0,0,0,1.68-.306c.175-.077.266-.17.279-.282s-.058-.218-.21-.319q-.068-.052-.136-.112a1.087,1.087,0,0,0-.292-.2,10.628,10.628,0,0,1-1.236-.6c-.282-.157-.574-.316-.869-.452a.938.938,0,0,1-.34-.322,1.129,1.129,0,0,0-.361-.356.91.91,0,0,0-.473-.106c-.074,0-.151.005-.226.011s-.144.008-.213.008a.757.757,0,0,1-.351-.069,2.745,2.745,0,0,0-2-.736H48.7m3.314-2.041a.272.272,0,0,0-.133.037.662.662,0,0,0-.29.454.286.286,0,0,0,.045.252,3.452,3.452,0,0,1,.641,1.164.881.881,0,0,0,.17-1.108,1.539,1.539,0,0,1-.12-.441c-.005-.149-.128-.359-.311-.359h0m1.433.648c.04.12.157.175.332.229a.425.425,0,0,1,.263.237c.122.213.2.346.332.346a.267.267,0,0,0,.181-.088.3.3,0,0,0,.106-.183.412.412,0,0,0-.128-.279,1.089,1.089,0,0,1-.08-.106.934.934,0,0,0-.245-.245.682.682,0,0,1-.327-.659c-.377.38-.486.6-.436.749m-.473-2.092c-.1,0-.215.1-.282.253a.775.775,0,0,0,.173.835.055.055,0,0,0,.05.024.9.9,0,0,0,.186-1.029.134.134,0,0,0-.122-.082h-.005m-.946-.284a1.308,1.308,0,0,0-.361.074l-.17.045c-.133.032-.149.043-.252.175a.154.154,0,0,0-.032.045,1.37,1.37,0,0,0,.835.3,1.338,1.338,0,0,0,.367-.058.143.143,0,0,0,.1-.1.293.293,0,0,0-.058-.252.487.487,0,0,0-.415-.231h-.008m55.6-.749c-.04.183-.029.268.013.33a.214.214,0,0,0,.191.1c.258,0,.348-.258.415-.444-.088-.255-.175-.359-.316-.359-.25.04-.282.234-.3.375m-.367-.784a.56.56,0,0,1-.183.072c-.151.04-.361.093-.388.4a.349.349,0,0,0,.061.25.426.426,0,0,0,.34.112c.332,0,.4-.282.457-.486.048-.189.032-.239.013-.271a.222.222,0,0,0-.2-.082.842.842,0,0,0-.1.011m1.483.765c.4-.024.579-.144.667-.324a.986.986,0,0,0,0-.672c-.029-.043-.04-.048-.048-.048a1.684,1.684,0,0,0-.622,1.045m32.653-7.683a1.1,1.1,0,0,1-.25.056.8.8,0,0,0-.4.133.136.136,0,0,0-.165.109c-.077-.005-.13.069-.175.133a.27.27,0,0,0-.106.183.5.5,0,0,0,.088.279c.074.128.183.311.367.316a1.114,1.114,0,0,0,.744-.824.488.488,0,0,0,.114-.407c-.013-.074-.053-.125-.1-.128h0c-.037,0-.088.04-.112.149m-5.679-.258a.761.761,0,0,0-.191.59c.056.159.2.165.388.173a1.511,1.511,0,0,1,.186.011c.218.255.292.314.38.314a.478.478,0,0,0,.17-.037.434.434,0,0,1,.144-.035c.279.019.377-.024.433-.117a.518.518,0,0,0,.032-.377c-.027-.09-.077-.144-.144-.146a.449.449,0,0,0-.13.024.519.519,0,0,1-.332-.04c-.064-.138-.141-.207-.255-.21-.346-.165-.4-.255-.486-.258h-.005a.324.324,0,0,0-.189.109m-36.628-3.42c-.053.008-.1.021-.157.029.17.351.314.5.494.508a.429.429,0,0,0,.245-.08c.04-.029.175-.125.181-.247a.16.16,0,0,0-.053-.128.519.519,0,0,0-.351-.13h-.016a1.521,1.521,0,0,0-.343.048m22.644-1.608a.429.429,0,0,0-.1.282c.011.327.38.524.627.537.207.011.274-.229.353-.508a1.788,1.788,0,0,0-.1-.324c-.053-.128-.109-.271-.242-.276h0a.912.912,0,0,0-.534.29m4.587-3.375a.933.933,0,0,0-.452.582,1.607,1.607,0,0,0,.343,1.114l.013.162-.082.109c-.035.1-.114.112-.231.117-.09.005-.186.011-.231.09a.289.289,0,0,0-.008.2,8.463,8.463,0,0,1,.117.858c.1.943.186,1.563.417,1.573.106.005.191-.154.268-.3.186-.021.34-.04.428-.266a4.417,4.417,0,0,0-.244-2.357,4.561,4.561,0,0,1,.069-.5,2.375,2.375,0,0,0-.019-1.241c-.027-.218-.048-.38-.2-.393h-.013c-.122,0-.151.144-.173.247M13.422,93a.479.479,0,0,1-.186.04.6.6,0,0,0-.223.053.707.707,0,0,0-.324.276.616.616,0,0,0-.053.433,1.27,1.27,0,0,0,.151.415,1.219,1.219,0,0,1,.162.492c.069.858.635.861.659.858a5.581,5.581,0,0,1,.146-2.456.367.367,0,0,0-.027-.255,2.39,2.39,0,0,0-.306.144m52.426-4.3c-.2.072-.268.122-.292.191a.206.206,0,0,0,.027.181.249.249,0,0,0,.215.13,3.742,3.742,0,0,1,.433.234c.082.157.122.242.244.26a1.341,1.341,0,0,0,.829.417c.085.019.175.037.258.064a.774.774,0,0,0,.191.027.412.412,0,0,0,.4-.221.456.456,0,0,0-.213-.563.326.326,0,0,0-.284-.162l-.05,0a2.426,2.426,0,0,0-.943-.454c-.154-.051-.311-.1-.46-.162l-.082,0a.639.639,0,0,0-.268.058m63.423-4.127a.5.5,0,0,0,.412.42c.146-.064.157-.12.146-.183-.157-.26-.253-.415-.412-.473-.149.072-.159.151-.146.237m1.961-3.418a1.592,1.592,0,0,0-.045,1.262c.019.072.128.12.159.125.3-.279.534-.516.38-.983a.666.666,0,0,1-.008-.162.289.289,0,0,0-.279-.388c-.117,0-.162.074-.207.146m-17.326-3.064c-.633.191-.571.67-.449,1.191a.8.8,0,0,0,.816-.609.659.659,0,0,0-.08-.542.2.2,0,0,0-.133-.077h-.016a.37.37,0,0,0-.138.037m.752.473a.558.558,0,0,0-.048.266.362.362,0,0,1-.048.226c-.114,0-.136.138-.154.252-.013.066-.029.165-.061.162-.016,0-.072-.024-.213-.186a.247.247,0,0,0-.207.066c-.173.162-.237.295-.213.433a.649.649,0,0,0,.33.385,1.17,1.17,0,0,0,.151.072c.1.045.237.1.263.178s-.056.207-.133.324c-.112.167-.226.346-.154.526s.311.255.55.327a1.421,1.421,0,0,0-.194.183.729.729,0,0,1-.3.229.277.277,0,0,0-.17.348c.061.2.239.229.372.245.088.011.167.024.2.072s.008.1-.024.183a.3.3,0,0,1-.221.122,1.519,1.519,0,0,1-.26.016,1.274,1.274,0,0,0-.611-.311.889.889,0,0,0-.59.26c-.053.04-.106.08-.162.12-.064.074-.093.112-.146.181-.388.125-.266.465-.194.667.027.064.061.162.048.183a.85.85,0,0,1-.271-.032,1.272,1.272,0,0,0-.239-.048c-.356-.024-.465.231-.563.484a.239.239,0,0,0,.082.335,1.471,1.471,0,0,0-.037.582.776.776,0,0,0,.444.377c.106.05.226.112.237.165.008.029-.032.077-.1.122a.76.76,0,0,0-.26.489c-.056.234-.109.439-.377.462a.233.233,0,0,0-.058.242,1.745,1.745,0,0,1,.088.3.877.877,0,0,0,.428.68.767.767,0,0,0,.343.109.866.866,0,0,0,.614-.271.27.27,0,0,0,.239-.128,2.449,2.449,0,0,1,1.276-.372c.324.027.439-.066.473-.263.016-.093.035-.189.05-.284a3.046,3.046,0,0,0-.021-1.73c-.141-.359-.008-.457.162-.579a.51.51,0,0,0,.274-.42.318.318,0,0,0-.088-.229,1.2,1.2,0,0,1-.258-.553,1.625,1.625,0,0,0-.175-.452c.082,0,.154,0,.183-.051a.242.242,0,0,1,.375-.072c.1.1.053.2-.09.393a.459.459,0,0,0-.011.473.3.3,0,0,0,.218.191s.109,0,.2,0c.189.016.215.058.218.064.021.043-.066.167-.112.234-.114.162-.125.2-.133.271-.024.13-.048.247.072.332.189.043.255,0,.316-.056.173-.144.112-.367.064-.55-.037-.128-.066-.252-.019-.322s.17-.1.364-.085a.283.283,0,0,1-.021.191.356.356,0,0,0-.008.276.327.327,0,0,0,.167.144.4.4,0,0,0,.2.375.6.6,0,0,1,.2.63c-.019.13-.093.138-.234.141a.445.445,0,0,0-.234.045.325.325,0,0,1-.255-.053.551.551,0,0,0-.258-.109.337.337,0,0,0-.144.021.552.552,0,0,1-.016.763,2.682,2.682,0,0,0-.167.284,1.064,1.064,0,0,0,.372.053.241.241,0,0,1,.183.085.514.514,0,0,1,.08.335c-.072.08-.109.117-.181.2a.4.4,0,0,0-.33.223c-.284.1-.348.167-.377.229a.46.46,0,0,0,.053.4.371.371,0,0,0,.25.215.706.706,0,0,1,.237-.029,1.362,1.362,0,0,1,.338.082,1.5,1.5,0,0,0,.314.077c.114.17.048.2-.021.218a.512.512,0,0,0-.154.072c-.4.282-.436.412-.457.5a.208.208,0,0,0-.128.247.969.969,0,0,0-.439.6.3.3,0,0,0-.144.29c.016.056.061.088.141.093a5.876,5.876,0,0,0,1.337-.33c.114-.032.215-.064.3-.09.045-.013.056-.069.069-.122.1-.154.2-.21.271-.2a.872.872,0,0,0,.462.237.9.9,0,0,0,.415-.1,2.174,2.174,0,0,1,.951-.109,1.421,1.421,0,0,0,1.329-.428c.175-.154.239-.271.21-.377s-.136-.167-.332-.207a.232.232,0,0,1-.189-.186c.625-.3.805-.829.54-1.595-.09-.136-.128-.178-.154-.221s-.064-.112-.117-.12-.1-.019-.157-.024c-.351-.053-.627-.093-.67-.619-.005-.064-.077-.114-.136-.144.072-.181.157-.324-.011-.486a.376.376,0,0,0-.146-.364.188.188,0,0,0-.109-.151.734.734,0,0,0-.263-.46.477.477,0,0,0-.4-.316c-.159-.516-.351-1.459-1.063-1.815-.074-.138-.154-.175-.207-.181a1.008,1.008,0,0,1,.064-.84l.058-.159a.227.227,0,0,0,.106-.258c.218-.367.4-.68.146-1.071a.492.492,0,0,0-.377-.237,1.284,1.284,0,0,0-.284.013,1.114,1.114,0,0,1-.263.016,1.375,1.375,0,0,0-.178,0,1.54,1.54,0,0,1-.292.005c-.152-.093-.128-.29-.093-.529a.177.177,0,0,0,.207-.13c.223-.074.306-.268.25-.585-.04-.223-.237-.369-.547-.4a1.092,1.092,0,0,0-.136-.008,1.512,1.512,0,0,0-1.286.662m16.664-.728a.623.623,0,0,0,.138.351.476.476,0,0,0,.274.181c.13.024.1-.122.088-.207a2.821,2.821,0,0,1-.064-.276.468.468,0,0,0-.1-.25.31.31,0,0,0-.183-.1l-.037,0c-.151,0-.13.215-.12.308m-13.934-2.658c-.226.26-.112.54-.011.781a1.08,1.08,0,0,1,.114.449.864.864,0,0,0,.284-1.188c-.043-.069-.109-.162-.191-.17l-.016,0c-.069,0-.117.058-.181.13M64.15,72a.6.6,0,0,0-.484.473c-.024.151-.05.322.175.33A1.236,1.236,0,0,0,64,72.729a.6.6,0,0,0,.391-.449.3.3,0,0,0-.035-.247.594.594,0,0,0-.162-.04L64.15,72m48.6.085a.948.948,0,0,0,.542.529c.149-.074.159-.146.144-.245-.005-.2,0-.284-.061-.353a.371.371,0,0,0-.25-.1A.99.99,0,0,0,113,71.9a.225.225,0,0,0-.247.183M66.741,69.959a.61.61,0,0,0-.433.189.313.313,0,0,0-.1.218c0,.237.186.292.338.34a.548.548,0,0,1,.194.088.328.328,0,0,0,.38-.324.465.465,0,0,0-.072-.388.36.36,0,0,0-.287-.125l-.019,0m-12.406-.343a.508.508,0,0,0-.383.314,1.168,1.168,0,0,0,.133,1.249.162.162,0,0,0,.178.157.193.193,0,0,0,.136-.088,4.415,4.415,0,0,0,.6-1.326c.064-.231-.146-.247-.287-.255a.641.641,0,0,1-.136-.019.712.712,0,0,0-.2-.035l-.045,0M52.44,68.9a1.391,1.391,0,0,0-.518.218c-.05.029-.074.045-.122.072a1.156,1.156,0,0,0-.718.845c-.2.253-.425.529-.266.686a.28.28,0,0,0,.239.069,1.4,1.4,0,0,0,.444-.189c.043-.024.085-.048.125-.066.2-.186.287-.266.375-.346.529-.489,1.029-.946.776-1.2a.348.348,0,0,0-.252-.093c-.027,0-.053,0-.082.005m3.912-1.337c-.42.045-.51.061-.569.12a.2.2,0,0,0-.056.141.68.68,0,0,0,.638.633.6.6,0,0,0,.425-.439c-.074-.266-.133-.457-.38-.457l-.058,0m-6.227-3.351a.683.683,0,0,0-.284.167c-.04.032-.077.064-.109.085a.47.47,0,0,0-.346.409,1.034,1.034,0,0,0-.284.611,1.468,1.468,0,0,1-.074.287,2.387,2.387,0,0,0-.133.779,1.728,1.728,0,0,1-.391,1.183.675.675,0,0,0-.526.55c-.082.268-.032.391.029.444a.248.248,0,0,0,.221.053.707.707,0,0,0,.194-.074,1.854,1.854,0,0,1,.563-.231c.181-.027.393,0,.425.473.136.215.268.279.409.258.162-.024.322-.159.492-.42a.258.258,0,0,0,.159-.136c.133-.043.271-.1.3-.247a.59.59,0,0,0,.393-.316c.048-.043.069-.064.117-.1a.483.483,0,0,0,.311-.425.606.606,0,0,1,.056-.186,1.754,1.754,0,0,0,.231.064c.231.048.425.09.444.38.019.266.726.308,1.114.258a1.124,1.124,0,0,0,.343-.088.475.475,0,0,0,.322-.282c.207-.144.207-.144.3-.207.1-.21.088-.245.074-.306,0-.024-.016-.048-.13-.141a.129.129,0,0,0-.133-.144c-.789-.167-1-.375-.973-.848a.166.166,0,0,0-.167-.194.157.157,0,0,0-.157-.1.53.53,0,0,0-.457-.157.158.158,0,0,0-.154-.077.523.523,0,0,0-.457-.154.172.172,0,0,0-.175-.072.479.479,0,0,1-.226-.221.623.623,0,0,0-.21-.223.572.572,0,0,0-.377-.128c-.2-.021-.359-.04-.348-.242,0-.069-.005-.165-.138-.146a.22.22,0,0,0-.2-.141l-.04.005m49.486-1.164c-.027.1.048.221.117.332a.722.722,0,0,1,.114.239,1.069,1.069,0,0,1-.122-.064.953.953,0,0,0-.306-.122.2.2,0,0,0-.226.175,1.668,1.668,0,0,1-.332.585c-.167.221-.311.431-.231.582.037.072.114.112.33.128l.162-.005c.306-.011,1.119-.037,1.167-.035a.344.344,0,0,1,.215.1c-.08.4-.4.534-.731.678a1.116,1.116,0,0,0-.625.486,1.045,1.045,0,0,0,.364.1c.082.008.165.008.245.011s.154,0,.226.011a.591.591,0,0,1,.516.324,1.594,1.594,0,0,0,.066.21c.088.252.125.4-.122.462-.348.088-.3.324-.258.582a.308.308,0,0,0,.287.287.7.7,0,0,0,.149,0,1.106,1.106,0,0,1,.133,0c.035,0,.085.005.165.008.1,0,.2.005.308.016a1.4,1.4,0,0,1,.635.194.7.7,0,0,0,.5.295,1.745,1.745,0,0,0,.994.508,1.222,1.222,0,0,0,.994-.425c.106.011.162-.066.252-.157.128-.043.282-.093.311-.268l.282.021a.727.727,0,0,0,.72-.359c.061-.029.154-.069.141-.189.1-.05.151-.077.25-.13.109.167.21.252.308.263.133.019.215-.1.3-.215a.744.744,0,0,1,.136-.141.635.635,0,0,0,.271-.574.608.608,0,0,0,.486-.792c-.016-.058-.032-.128-.045-.2-.151-.707-.4-.8-.609-.88-.162-.061-.29-.112-.367-.468a2.5,2.5,0,0,1-.024-.9.876.876,0,0,0-.524.12.347.347,0,0,1-.356.008c-.032-.043-.061-.085-.093-.13a1.009,1.009,0,0,0-.255-.3.779.779,0,0,0-.324-.128.249.249,0,0,0-.2.053.309.309,0,0,0-.058.271c.011.082.019.157-.029.2a.354.354,0,0,1-.237.029c-.167-.011-.4-.021-.439.226a1.082,1.082,0,0,1-.2-.117.674.674,0,0,0-.316-.151.344.344,0,0,0-.223.056.281.281,0,0,0-.2-.167c-.088-.008-.159.048-.3.154-.234-.021-.306.128-.364.25-.021.048-.043.093-.141.05-.186-.231-.364-.375-.569-.242a.7.7,0,0,1-.255.718,1.7,1.7,0,0,0-.194.237,1.657,1.657,0,0,1-.072-.452.978.978,0,0,0-.571-.981c-.074-.077-.114-.117-.252-.266a.686.686,0,0,0-.513-.3l-.064,0c-.173,0-.351.066-.385.2M26.426,63c.133-.005.159-.027.194-.053a2.39,2.39,0,0,0,.715-.9c-.3.316-.611.63-.909.954M141.444,116.19c.058-.066.117-.141.189-.141a.206.206,0,0,1,.151.1,1.974,1.974,0,0,0,.266.7.29.29,0,0,0,.077.226,1.471,1.471,0,0,0,.2.553.636.636,0,0,0,.138.356c.037.138.069.3.1.449.09.486.189.986.553,1.122a.135.135,0,0,0,.061.114.351.351,0,0,0,.069.213c.013.072.029.146.04.218a7.731,7.731,0,0,1,.178,1.371,1.355,1.355,0,0,0,.143.741c-.005.2.093.234.144.247a.359.359,0,0,0,.191.21,3.136,3.136,0,0,1,.353.85c.053.17.109.348.173.5a.286.286,0,0,0,.064.245c.008.069.029.112.061.122.005.061.032.1.072.106a2.965,2.965,0,0,1,.287,1.65c-.019.215-.035.385.1.489.008.122.021.247.032.369.029.338.061.68.1,1.021a.52.52,0,0,1,.008.149.081.081,0,0,1-.035.032q-.036-.056-.072-.12a4.7,4.7,0,0,1-.263-.5c-.2-.4-.383-.789-.752-.914-.276-.1-.433-.516-.492-1.318a2.247,2.247,0,0,0-.2-.909c-.005-.09-.013-.21-.09-.253-.037-.122-.08-.143-.114-.141-.013-.136-.088-.165-.138-.175-.011-.082-.043-.106-.069-.114a4.23,4.23,0,0,1-.08-.906,5.759,5.759,0,0,0-.037-.678c-.011-.088-.019-.175-.027-.271a1.89,1.89,0,0,0-.425-1.209c0-.074-.011-.088-.1-.218a.8.8,0,0,1-.122-.957c.024-.048.032-.064-.181-.367-.04-.064-.061-.093-.1-.157-.045-.128-.069-.194-.114-.324-.109-.308-.109-.308-.21-.641-.037-.12-.037-.122-.112-.327a.391.391,0,0,0-.069-.242.427.427,0,0,0-.066-.231,2.428,2.428,0,0,0-.08-.494,1.672,1.672,0,0,1-.064-.548c.037.082.08.122.125.122s.1-.058.151-.12m5.781-17.222a1.349,1.349,0,0,0,.106-.284c.085,0,.12-.013.128-.072.032-.284.125-.292.369-.34.027-.011.061-.021.074-.106a.28.28,0,0,1,.322-.136.894.894,0,0,1,.26.141,1.1,1.1,0,0,1,.237.207,3.972,3.972,0,0,0,.141.638.871.871,0,0,0,.114.391c0,.154.051.207.09.237a.175.175,0,0,0,.048.122c.029.151.021.2-.056.213-.1-.058-.191-.128-.284-.2-.061-.043-.117-.085-.279-.186-.058-.016-.1.043-.162.165-.074-.013-.151-.027-.194.077a.6.6,0,0,0-.021.245c.005.138,0,.229-.221.252-.053-.013-.106-.016-.141.215.05.173.1.356.2.409a1.01,1.01,0,0,0,.058.253.639.639,0,0,1,.05.221,1.29,1.29,0,0,0,.353,1c.072.058.112.106.1.183a4.823,4.823,0,0,0,.032.962,5.117,5.117,0,0,1,.037.68,1.736,1.736,0,0,0,.263,1.284.807.807,0,0,0-.053.372.229.229,0,0,0,.146.2,7.753,7.753,0,0,0,.005,1.592.274.274,0,0,1-.048.221.7.7,0,0,0-.263.069.594.594,0,0,1-.287.069.357.357,0,0,1-.138-.048,4.227,4.227,0,0,0-.271-.457.424.424,0,0,0-.26-.359,1.572,1.572,0,0,1-.2-.7c-.032-.3-.011-.351.032-.444a2.241,2.241,0,0,0,.162-.893c.005-.1.011-.207.231-.375a.458.458,0,0,0,.027-.186c0-.245-.1-.306-.282-.4a1.939,1.939,0,0,0-.151-.627c-.008-.08-.021-.133-.167-.393-.013-.056-.021-.085-.04-.151-.037-.077-.056-.117-.093-.2a.434.434,0,0,0-.051-.3.329.329,0,0,0-.05-.229.335.335,0,0,0-.053-.226,1.087,1.087,0,0,0-.053-.351,5.086,5.086,0,0,0,0-.532.51.51,0,0,0-.109-.359.338.338,0,0,0-.058-.207,1.043,1.043,0,0,0-.064-.25.6.6,0,0,1-.048-.327.542.542,0,0,0,.106-.316,1.658,1.658,0,0,0,.117-.462,1.9,1.9,0,0,1,.08-.367.43.43,0,0,0,.109.213h.008c.037,0,.069-.053.088-.146m-5.034-.545c-.292-.04-.425-.013-.513-.085a.53.53,0,0,1-.051-.226,1,1,0,0,0,.011-.159c.005-.159.013-.258.1-.271s.157-.077.26-.3c.112-.04.167-.058.276-.093.388-.133.388-.133.439-.125s.136.021.183.478l.08.133a.267.267,0,0,1-.069.152.362.362,0,0,0-.093.271c-.024.066-.035.1-.061.17a.552.552,0,0,1-.306.077,1.76,1.76,0,0,1-.26-.024m-2.591,4.425a2.607,2.607,0,0,1-.749-.237c-.1-.04-.191-.08-.287-.117-.043-.037-.066-.056-.109-.1-.117-.1-.117-.1-.173-.149a1.551,1.551,0,0,0-.25-.712,1.321,1.321,0,0,1,.125-.691,2.767,2.767,0,0,1,.223-.428.966.966,0,0,0,.159-.625.8.8,0,0,1,.133-.521,1.048,1.048,0,0,0,.3-.9.557.557,0,0,1,.082-.332c.024-.04.048-.082.229-.409a.593.593,0,0,1,.077-.117,3.287,3.287,0,0,0,.234-.388c.056-.037.109-.074.154-.066.029,0,.066.021.1.13a.622.622,0,0,0,.476.494c.045.013.09.027.3.069.056.005.1.032.016.2-.2.141-.332.234-.324.391a.4.4,0,0,0,.194.287.544.544,0,0,1,.247.492c.013.338.114.534.284.555.186.021.33-.13.476-.29s.311-.33.516-.3a1.161,1.161,0,0,1,.17.037,1.138,1.138,0,0,0,.311.04.654.654,0,0,0,.383.55.674.674,0,0,1,.223.175.757.757,0,0,0,.263.369.5.5,0,0,0,.194.292,1,1,0,0,0,.29.571c.032.04.066.077.1.12a.393.393,0,0,0,.191.263c.027.085.072.141.138.146.093.218.138.327.229.545a1.029,1.029,0,0,1-.064.757c-.045-.005-.077.037-.1.13-.074.011-.138.08-.308.237a.755.755,0,0,1-.175-.058.71.71,0,0,0-.183-.061.229.229,0,0,0-.151.032.591.591,0,0,1-.375.088,1.471,1.471,0,0,1-.664-.343c-.05-.037-.1-.074-.138-.1a.743.743,0,0,0-.056-.322c-.064-.122-.162-.141-.361-.189-.011-.077-.045-.125-.093-.138a.843.843,0,0,0-.54-.247,1.457,1.457,0,0,0-1.015.3c-.04,0-.093.019-.125.133-.045.008-.074.048-.088.114a.2.2,0,0,0-.154.181c-.064-.005-.1.066-.122.136-.04,0-.077.005-.117.005s-.058,0-.088,0m-8.948-1.6a.949.949,0,0,1-.571-.385c-.058-.061-.114-.12-.167-.17a.275.275,0,0,0-.122-.271l-.064-.268a1.856,1.856,0,0,0-.433-.994c-.021-.061-.066-.181-.189-.189-.027-.133-.125-.181-.218-.226-.327-.518-.263-.694-.21-.832a.37.37,0,0,0,.021-.271.257.257,0,0,0-.106-.138c-.016-.136.053-.239.415-.47.08.008.154.04.167.34.008.162.029.643.324.664a.808.808,0,0,0,.409-.144c.08.008.125.12.189.306a1.215,1.215,0,0,0,.146.319.911.911,0,0,0,.367.837c.024.043.074.117.2.3a3.292,3.292,0,0,1,1.055.85,5.665,5.665,0,0,0,.59.571.163.163,0,0,0,.114.146,1.545,1.545,0,0,1,.4,1.013,2.737,2.737,0,0,1-.037.335c-.053.369-.122.824.271,1.106l.005.138c.005.3.013.7.335.723l.048,0a.489.489,0,0,1,.106,0c.043.066.043.069.146.234.035.053.05.08.085.136a.831.831,0,0,0-.037.218c-.008.138-.013.25-.144.3a.186.186,0,0,0-.117.213c.019.175.191.391.287.4s.128-.1.221-.311a.949.949,0,0,1-.024.2.457.457,0,0,0,.1.481c.032.069.05.1.09.178a.526.526,0,0,1,.072.308.839.839,0,0,0,.04.268,1.131,1.131,0,0,1,.152.213c.093.151.2.322.346.327a.305.305,0,0,0,.21-.1c.128.112.215.165.353.12a.639.639,0,0,0-.013-.343,1.543,1.543,0,0,1-.037-.242.767.767,0,0,1,.109-.372,2.091,2.091,0,0,0,.194-.51c.029.218.093.268.141.268s.1-.056.154-.181c.04-.1.074-.106.306.069.029.064.066.138.128.144.035,0,.074-.032.109-.088a.362.362,0,0,0,.048-.229.455.455,0,0,0-.141-.279,1.862,1.862,0,0,1-.229-.372c-.013-.066-.035-.141-.093-.167a.364.364,0,0,0-.04-.175.171.171,0,0,0-.106-.08c-.027-.074-.069-.12-.128-.128-.037-.093-.09-.146-.178-.146a1.3,1.3,0,0,1-.213-.42,1.919,1.919,0,0,0-.189-.393c-.008-.056-.024-.141-.085-.167,0-.1.016-.133.122-.061a.513.513,0,0,0,.335.229c.128.005.245-.077.359-.258a.373.373,0,0,0,.072-.242c-.011-.109-.077-.175-.016-.292.032.051.074.117.152.122a.106.106,0,0,0,.1-.09c.058-.237.125-.26.17-.258a.409.409,0,0,1,.183.112.743.743,0,0,0,.314.162.472.472,0,0,1,.011.2c-.011.12-.011.247-.011.372a1.721,1.721,0,0,1-.2.986.528.528,0,0,0,.364.221.685.685,0,0,1,.167.053c-.045.093-.106.136-.412.074-.066,0-.1.053-.112.165a.742.742,0,0,0,.167.537c.51.029.606.545.71,1.09.019.093.035.186.056.276.05.229.1.361.3.356l-.077.144a.581.581,0,0,0-.056.439.2.2,0,0,0,.165.151c.085,0,.2-.074.239-.306.045-.266.1-.4.154-.4.072,0,.17.167.279.345a.473.473,0,0,0,.364.271c.221.008.412-.218.492-.577.027-.125.056-.122.306.027a2.532,2.532,0,0,0,.5.494.511.511,0,0,0,.319.159.743.743,0,0,0,.468-.223,1.537,1.537,0,0,0,.173-.146c.085-.133.12-.191.2-.186a.469.469,0,0,1,.152.051,1.39,1.39,0,0,0,.154.064c.077.024.114.037.136.085a.511.511,0,0,1,.013.229,1.068,1.068,0,0,0,0,.226,4.8,4.8,0,0,1-.319,2.185.356.356,0,0,0-.011.173,3.647,3.647,0,0,0-.276,1.363c-.069.048-.066.159-.064.239a.269.269,0,0,0-.077.218.96.96,0,0,1-.555.287c-.165,0-.327-.117-.494-.351a.412.412,0,0,0-.348-.175.8.8,0,0,0-.574.279.876.876,0,0,1-.662.306,1.785,1.785,0,0,1-.906-.361,1.236,1.236,0,0,0-.558-.165,2.181,2.181,0,0,1-.874-.377,2.436,2.436,0,0,0-.819-.377c-.029-.005-.077-.082-.157-.21a.877.877,0,0,0-1.515-.043.146.146,0,0,0-.112.136.392.392,0,0,0-.266.364.378.378,0,0,0-.157.218.7.7,0,0,0,.011.4c.178.54-.045.726-.449.957a.385.385,0,0,1-.287-.12.392.392,0,0,0-.276-.245,1.024,1.024,0,0,0-.7-.4,1.033,1.033,0,0,1-.819-.555.378.378,0,0,0-.1-.279c-.021-.122-.048-.287-.2-.29a1.917,1.917,0,0,0-1.446-.587,1.107,1.107,0,0,1-1.212-.888c-.032-.106-.088-.157-.287-.144a.515.515,0,0,1-.194.011,1.4,1.4,0,0,1,.058-.367c.061-.072.125-.141.183-.207a1.068,1.068,0,0,0,.255-1.409.433.433,0,0,1-.183-.274.712.712,0,0,1,.149-.454c.13-.21.252-.4.125-.662a.11.11,0,0,0-.149-.072.3.3,0,0,1-.186.1c-.077,0-.138-.08-.215-.175a.62.62,0,0,0-.457-.3.663.663,0,0,0-.409.165,1.289,1.289,0,0,1-.9.266.754.754,0,0,0-.566-.266,1.821,1.821,0,0,0-.489.069,3.93,3.93,0,0,1-1.1.159c-.1-.008-.2-.013-.308-.016a4.989,4.989,0,0,0-2.99.85.525.525,0,0,1-.431.221.636.636,0,0,0-.585.433c-.056.066-.056.066-.151.173a2.2,2.2,0,0,1-.582.061c-.221-.005-.447-.032-.662-.058a6.157,6.157,0,0,0-.664-.056,2.04,2.04,0,0,0-.415.027,1.743,1.743,0,0,1-.237-.178.661.661,0,0,1-.141-.218c-.037-.064-.053-.1-.09-.159-.04-.088-.013-.122.058-.194a.306.306,0,0,0,.1-.154.272.272,0,0,0,.215-.234c.069,0,.1-.035.133-.149a6.8,6.8,0,0,1,1.757-.058.279.279,0,0,0,.287-.229.237.237,0,0,0,.114-.266c.077-.125.117-.186.194-.311a.869.869,0,0,0,.805-.882,1.056,1.056,0,0,1,.268-.391c.1-.09.223-.207.2-.356-.011-.1-.09-.194-.239-.276a.786.786,0,0,1-.1-.54,1.243,1.243,0,0,0,.306-.63,1.06,1.06,0,0,0,.311-.622.359.359,0,0,0,.2-.218.2.2,0,0,0,.2-.136,1.384,1.384,0,0,0,.662-.457.452.452,0,0,0,.372-.25c.069,0,.157-.021.215-.162a.792.792,0,0,0,.144-.866,1.112,1.112,0,0,1,.024-.877,1.211,1.211,0,0,1,.6-.13,1.955,1.955,0,0,1,.861.33,1.087,1.087,0,0,0,.415.186c.133.008.223-.082.282-.268.077-.061.117-.1.191-.157l.385-.322c.066,0,.109-.035.175-.112a.626.626,0,0,0,.423-.2.138.138,0,0,0,.125-.141.591.591,0,0,1,.353-.082.949.949,0,0,1,.787.718c.024.08.045.17.066.263a1.236,1.236,0,0,0,.3.678.6.6,0,0,0,.213.4.551.551,0,0,0,.412.346c.056.019.106.035.462.486a.836.836,0,0,0,.314.516c.032.032.066.064.1.1a.48.48,0,0,0,.417.218.707.707,0,0,1,.218.051.265.265,0,0,0,.117.263.172.172,0,0,0,.112.151c.09.231.255.242.444.25a.86.86,0,0,0,.213.566.451.451,0,0,0,.112.133,1.127,1.127,0,0,1,.367,1.029c-.045.385-.252.617-.571.638a1.945,1.945,0,0,0-.282.035,2.392,2.392,0,0,1-.383.037.763.763,0,0,1-.439-.159.385.385,0,0,0-.2-.069.337.337,0,0,0-.345.306.966.966,0,0,0,.021.585.425.425,0,0,0,.282.229c.4.284.6.428,1.1.84a1.2,1.2,0,0,0,.359.1.17.17,0,0,0,.159-.069c.085-.112.08-.335.069-.779l-.005-.183a.778.778,0,0,1,.276-.231.337.337,0,0,0,.316-.13,1.919,1.919,0,0,0,.274-.6,1.652,1.652,0,0,1,.292-.606.5.5,0,0,0,.056-.338.34.34,0,0,0-.138-.247.277.277,0,0,0-.194-.258.918.918,0,0,1,.138-.59,1.451,1.451,0,0,1,.364.189c.074.1.136.189.244.353.048.085.1.181.183.186s.2-.13.218-.311c.019-.207-.08-.351-.258-.617a1.076,1.076,0,0,0-.619-.734,1.627,1.627,0,0,1-.319-.213.922.922,0,0,0-.133-.1.366.366,0,0,1-.2-.468.321.321,0,0,0-.029-.229c-.035-.069-.1-.114-.237-.1a.491.491,0,0,1-.2.045l-.027,0m-3.428-15.476a.524.524,0,0,0-.035-.4.376.376,0,0,0-.3-.141.582.582,0,0,1-.42-.183.6.6,0,0,1-.077-.4c0-.032,0-.061.1-.074.138.016.218.035.242.252.016.157.112.183.284.229a4.2,4.2,0,0,1,.529.173c.149.061.237.114.25.165.008.027.005.088-.109.2-.045.024-.085.051-.122.074a.586.586,0,0,1-.284.114.2.2,0,0,1-.056-.008m3.7-6.238a1.071,1.071,0,0,0,.165-.688c.005-.162.019-.268.027-.351.029-.213.027-.274-.2-.558a.422.422,0,0,1-.09-.191.614.614,0,0,0-.276-.4c-.045-.04-.1-.09-.17-.146s-.09-.1-.154-.167c-.032-.082-.09-.133-.338-.229a3.243,3.243,0,0,0-.112-.425,1.238,1.238,0,0,1-.09-.755.715.715,0,0,0,.04-.439,2.635,2.635,0,0,1,.34-2.052.524.524,0,0,0,.335-.218.514.514,0,0,0,.327-.215c.082-.005.125-.066.125-.183.053-.136.077-.2.128-.34.218-.266.17-.6-.128-1.015a.357.357,0,0,1-.069-.34.8.8,0,0,0-.032-.446.359.359,0,0,1,.061-.34.224.224,0,0,0,.128-.25c-.019-.144.011-.194.1-.167a1.07,1.07,0,0,1,.242.114,1.523,1.523,0,0,0,.3.141.189.189,0,0,0,.207-.037c.117.133.189.223.252.3a1.822,1.822,0,0,0,.29.306,2.486,2.486,0,0,1,.338.757c-.274-.029-.359.167-.245.6-.035.117-.045.146-.05.165l-.056.165c-.024.072-.037.106-.061.181-.053.162-.053.162-.088.25-.058.056-.09.144-.122.353a2.72,2.72,0,0,0-.138.308.679.679,0,0,1-.09.183.553.553,0,0,0-.5.439.807.807,0,0,0,.024.59,10.279,10.279,0,0,1,.8,2.878.5.5,0,0,0,.292.415,1.035,1.035,0,0,0,.322.284.589.589,0,0,0,.165.149.279.279,0,0,1,.016.151.322.322,0,0,0,.035.215.215.215,0,0,0,.165.085,2.433,2.433,0,0,1,.409.13,2.451,2.451,0,0,0,.415.138.521.521,0,0,0,.513-.125,1.488,1.488,0,0,1,1.193-.327c.064,0,.122,0,.162,0a.756.756,0,0,1,.157.008c.088.019.191.08.338.377a.828.828,0,0,0,.545.4c.05.019.1.037.157.058a.36.36,0,0,1-.138-.008c-.112-.021-.237-.045-.268.128a.3.3,0,0,1-.175.064c-.136.016-.29.037-.306.332a1.2,1.2,0,0,1-.255-.128,1.817,1.817,0,0,0-.664-.3,1.662,1.662,0,0,0-1.22.3c-.3.181-.138.587-.005.914.024.058.045.112.064.167a1.5,1.5,0,0,1-.159-.1c-.077-.048-.154-.1-.207-.136.064-.024.13-.05.141-.141a.6.6,0,0,0-.114-.324.364.364,0,0,0-.2-.17.812.812,0,0,0-.282.056.125.125,0,0,0-.138.074.183.183,0,0,0,.019.141.944.944,0,0,0,.3.385c-.154.061-.231.109-.242.207-.011.122.08.287.372.678.016-.33.207-.372.407-.412a.972.972,0,0,0,.178-.045.446.446,0,0,0,.372.316.184.184,0,0,1,.13.069.76.76,0,0,1,.077.343c.005.056.008.074.019.2.021.2.027.282.029.335a1.038,1.038,0,0,0,.032.221c.035.186.048.3-.117.34-.082-.016-.165-.12-.25-.226-.04-.048-.082-.1-.122-.141a.752.752,0,0,0-.234-.361c-.144-.252-.276-.383-.4-.407-.144-.024-.274.088-.42.369-.077.069-.1.167-.114.359a1.1,1.1,0,0,1-.053.213.254.254,0,0,0,.011.157,1,1,0,0,0-.043.8,2.822,2.822,0,0,1,.061.356.73.73,0,0,0,.064.25,1.278,1.278,0,0,1,.159.805c-.048.13-.178.2-.4.2-.048,0-.08.045-.13.112-.093.037-.088.146-.077.223a.22.22,0,0,0-.058.218.493.493,0,0,1-.391.229.729.729,0,0,0-.077-.486.506.506,0,0,0-.383-.2c-.056-.005-.122-.011-.2-.013a1.82,1.82,0,0,0-1.188.346,1.432,1.432,0,0,1-.167.1,1.008,1.008,0,0,0-.178.088,1.287,1.287,0,0,0-.529.21.518.518,0,0,1-.431.1.865.865,0,0,1-.106-.425.623.623,0,0,0-.255-.537.407.407,0,0,0-.159-.072c-.109-.011-.154.074-.194.151s-.077.141-.165.13a1,1,0,0,1-.274-.114.266.266,0,0,1,.005-.128,1.115,1.115,0,0,0,.005-.146c0-.263-.005-.659.526-.582.056.013.128.032.2.043.345.043.5-.154.481-.587-.013-.263.112-.306.377-.295.776.032,1-.207,1.029-1.1a.411.411,0,0,0-.053-.25.2.2,0,0,0-.122-.077c-.013-.114-.029-.229-.048-.338a4.14,4.14,0,0,1-.069-.858.876.876,0,0,0-.136-.63c.027-.061.037-.093.061-.157.167-.412.173-.428.478-.361l.053.005c.077,0,.159-.037.167-.2M126.21,64.5a.142.142,0,0,1-.04-.194.645.645,0,0,1,.077.226l-.037-.032m2.078-3.3a.712.712,0,0,1-.308-.05,5.535,5.535,0,0,0-.521-.194c-.069.032-.106.074.037.284a1.1,1.1,0,0,0,.34.359c.061.138.045.149-.027.093a1.249,1.249,0,0,0-.17-.122.368.368,0,0,0-.229-.066.289.289,0,0,0,.045.167.66.66,0,0,1,.077.4.317.317,0,0,1-.064.181.639.639,0,0,0-.26-.226c-.074-.024-.122.011-.239.082-.048-.189.005-.255.2-.234A.279.279,0,0,0,127.4,62c.066-.1-.058-.279-.322-.51a.339.339,0,0,0,.043.311,1.341,1.341,0,0,0-.571-.473c.077.136.114.223-.175.226a1.131,1.131,0,0,0,.207.436c-.162-.045-.213.061-.263.157s-.1.173-.343.09c-.013.016-.048.058-.021.186-.037-.008-.077,0-.058.088.029.428.082.521.5.808a.431.431,0,0,1,.146.244c.037.117,0,.138-.189.2-.019-.005-.048-.053-.085-.133a2.557,2.557,0,0,0-.494-.609.683.683,0,0,0-.114-.508c-.391-.1-.306.263-.237.55a1.619,1.619,0,0,1,.043.194,1.322,1.322,0,0,1-.077-.12.56.56,0,0,0-.335-.287.311.311,0,0,1-.021.287.272.272,0,0,0-.043.2.388.388,0,0,0,.085.189.474.474,0,0,0,.263.128.223.223,0,0,1,.133.074.362.362,0,0,1-.122.2.386.386,0,0,0-.109.4.418.418,0,0,0,.138.069c.106.027.151-.027.221-.109a.154.154,0,0,1,.162-.058.55.55,0,0,1,.234.183c0,.053,0,.08.005.17a1.5,1.5,0,0,1-.173.858,1.877,1.877,0,0,0-.215.938c-.117-.029-.146.072-.165.162-.066.013-.109.069-.125.159a.51.51,0,0,0,.05.295.488.488,0,0,1-.005.6.634.634,0,0,0-.048.67,1.33,1.33,0,0,1-.064.571c-.016.08-.035.154-.048.221a1.8,1.8,0,0,1-.215.534c-.043.085-.088.17-.125.258a2.058,2.058,0,0,1-.218.338,3.485,3.485,0,0,0-.207.3c-.1.061-.1.234-.109.4-.005.244-.021.391-.194.359a1.033,1.033,0,0,1-.316-.141c-.066-.011-.186.05-.186.136a.616.616,0,0,1-.21.433.753.753,0,0,0-.229.4.31.31,0,0,0-.322.165.142.142,0,0,0-.149.178c.016.093.085.167.2.279-.019.035-.1.027-.2.019-.149-.013-.6.353-.837.555a.163.163,0,0,0-.159.037.179.179,0,0,0-.016.144,1.088,1.088,0,0,1,.013.335,1.027,1.027,0,0,0,.09.577,3.074,3.074,0,0,0,.292,1.757c-.109.1-.043.239.053.452a1.032,1.032,0,0,0,.215.369.663.663,0,0,1,.194.4.3.3,0,0,0-.306.112.265.265,0,0,0-.016.239c.053.154.128.237.231.25a.477.477,0,0,0,.173-.024.2.2,0,0,1,.189.027c0,.114,0,.186-.114.244a.389.389,0,0,0-.255.367c.005.191.112.3.367.577.069.074.151.165.25.274a.374.374,0,0,0,.194.207.79.79,0,0,1,.146.122.948.948,0,0,0,.555.316.6.6,0,0,0,.606-.3.31.31,0,0,0,.369-.29c.383-.035.409-.417.407-.6.053,0,.077-.037.088-.109a.7.7,0,0,1,.13.045.536.536,0,0,0,.159.053c.167.024.17-.151.276-.255a.255.255,0,0,1,.154.085.677.677,0,0,1,.122.367,4.786,4.786,0,0,0,.51,1.47,6.477,6.477,0,0,1,.361.864c.016.051.029.1.053.157.035.088.082.207.2.242a.994.994,0,0,0,.2.4.654.654,0,0,1,.183.425.989.989,0,0,0-.093.183c-.066.149-.13.29-.282.271-.186-.024-.266-.013-.569.33a.394.394,0,0,1-.367.149c-.08-.008-.133-.04-.1-.218.157-.09.17-.141.175-.207,0-.032.005-.064.106-.141a.4.4,0,0,0,.13-.128.414.414,0,0,0,.032-.361.337.337,0,0,0-.239-.175.373.373,0,0,1-.234-.157c-.058-.1-.019-.247.037-.478a1.14,1.14,0,0,0,.013-.55.974.974,0,0,1-.024-.167.521.521,0,0,0-.181-.42.272.272,0,0,0-.125-.056c-.106-.013-.173.069-.237.138a.7.7,0,0,1-.17.149,7.028,7.028,0,0,0-.683.555c-.064,0-.13.1-.175.183a2.639,2.639,0,0,0,.106,2.187,1.348,1.348,0,0,1,.4.994c.013.082.027.173.043.276.011.082.024.154.035.226.061.4.09.646.011.747a.227.227,0,0,1-.21.056,2.062,2.062,0,0,1-.215-.043,1.181,1.181,0,0,0-.215-.043.254.254,0,0,0-.215.056,1.539,1.539,0,0,1-1.01.372c-.441.05-.861.1-.8.646a.743.743,0,0,1-.035.4,3.456,3.456,0,0,0-.2.6c-.141.521-.276,1.021-.877,1.2-.489.043-1.042.1-.981.973.008.151-.066.2-.165.271a2,2,0,0,0-.191.154,1.237,1.237,0,0,0-.648.542.359.359,0,0,1-.353.2.815.815,0,0,1-.457-.271.717.717,0,0,0-.407-.25.329.329,0,0,0-.223.064c-.21.138-.114.383-.043.563a1.234,1.234,0,0,1,.053.835.172.172,0,0,1-.17.061,1.021,1.021,0,0,1-.393-.144,1.591,1.591,0,0,0-.646-.2,1.651,1.651,0,0,0-.768.159c-.157.048-.377.117-.3.433.016.061.027.133.04.207.058.327.133.739.5.765a1.872,1.872,0,0,1,1.754,1.478.551.551,0,0,0,.457.454,6.532,6.532,0,0,1,.133,2.66c-.008.064-.011.1-.016.162-.032.4-.221.593-.563.574a.914.914,0,0,1-.181-.024,24.73,24.73,0,0,0-3.141-.436l-1.047-.1a1.235,1.235,0,0,0-.845.489,2.909,2.909,0,0,1-.268.25.382.382,0,0,0-.019.454,4.415,4.415,0,0,1,.279,3.006c-.069.356-.136.659-.194.9-.167.739-.25,1.114.053,1.289.4.231.348.574.287.933a.924.924,0,0,0,.045.667.407.407,0,0,0,.343.154,1.358,1.358,0,0,0,.308-.037,2.523,2.523,0,0,1,.558-.074.838.838,0,0,1,.67.335.377.377,0,0,0,.125.276c.048.215.122.436.3.494.154.048.189.1.2.122.013.048-.037.133-.144.319a.681.681,0,0,0-.282.486c-.019.058-.032.117-.051.17s-.043.114-.061.17a2.171,2.171,0,0,1-.789,1.257,1.174,1.174,0,0,0-.569.393,2.3,2.3,0,0,0-1.042,1.722c-.6.226-.431,1.417-.345,2.02a.336.336,0,0,0-.109.263.733.733,0,0,0-.223.4c-.082.1-.125.144-.207.242a1.581,1.581,0,0,0-.574.529.173.173,0,0,0-.136.138,2.322,2.322,0,0,0-1.791,1.8c-.072.072-.072.072-.284.274l-.239.226a1.579,1.579,0,0,0-.409.864c-.029.117-.058.237-.1.348a.78.78,0,0,0-.244.407c-.037.051-.08.112-.122.173a2.239,2.239,0,0,0-.481.933,5.367,5.367,0,0,0-.5,1.169,1.133,1.133,0,0,0-.175.106c-.449,1-.431,1.239.146,1.892.05.149.074.223.122.367l.005.247a.8.8,0,0,0-.085.967,1.533,1.533,0,0,1,.106,1.143c-.128.534-.292,1.074-.436,1.552a3.183,3.183,0,0,1-.292.728c-.353.186-.609.322-.6.494.005.1.093.178.292.245a.534.534,0,0,0,.234.38.582.582,0,0,0,.213.367c-.29.771-.2,1.265.292,1.672a2.09,2.09,0,0,1,.175.154,1.025,1.025,0,0,0,.287.2.7.7,0,0,1,.375.465,7.755,7.755,0,0,0,.55.59,2.958,2.958,0,0,1,1.124,2.041.136.136,0,0,0,.08.106c.058.037.058.085.04.234a.359.359,0,0,0,.035.271.184.184,0,0,0,.165.058.759.759,0,0,1,.351.093,2.944,2.944,0,0,0,.425.149,8.169,8.169,0,0,1,.973.827c.1.085.144.128.242.215a5.526,5.526,0,0,1,.409.375.419.419,0,0,0,.3.2c.1.048.2.093.314.144.239.109.412.194.553.263a1.18,1.18,0,0,0,.667.2,1.106,1.106,0,0,0,.7-.369,1.232,1.232,0,0,0,.415-.157,5,5,0,0,1,1.371-.314,2.9,2.9,0,0,1,1.345.213.982.982,0,0,0,.359.09.386.386,0,0,0,.287-.207.24.24,0,0,0,.213-.141,2.676,2.676,0,0,0,.983-.566,1.182,1.182,0,0,1,.319-.072.85.85,0,0,0,.566-.231,2.794,2.794,0,0,1,1.451-.492,1.784,1.784,0,0,1,1.4.4,1,1,0,0,1,.045.327c.013.245.021.516.308.593a.141.141,0,0,0,.122.122.41.41,0,0,0,.351.194c.189-.016.364-.2.6-.4a.934.934,0,0,1,.268.029,1,1,0,0,0,.3.035.634.634,0,0,0,.311-.133.183.183,0,0,1,.143.114c.032.08.008.109-.08.194a.607.607,0,0,0-.213.617c.016.1.08.151.258.13.229-.048.3-.276.327-.47a.735.735,0,0,1,.045-.189c.008,0,.043.021.109.173.035.077.077.167.165.194a1.621,1.621,0,0,1-.112.752,3.137,3.137,0,0,0-.112.412,1.053,1.053,0,0,1-.072.2.578.578,0,0,0-.024.555,4.408,4.408,0,0,0-.088.439,2.154,2.154,0,0,1-.319.951.27.27,0,0,0-.037.46c.011.048.019.1.027.149a1.341,1.341,0,0,0,.255.739.182.182,0,0,0,.122.122,1.588,1.588,0,0,1,.152.263,1.764,1.764,0,0,0,.454.6.16.16,0,0,0,.106.186,1.667,1.667,0,0,0,.54.71c.008.1.019.311.019.311a14.258,14.258,0,0,0,.213,2.062,1.33,1.33,0,0,1-.1.8c-.151.385-.255.88.085,1.074a3.584,3.584,0,0,1-.981,1.906.333.333,0,0,0-.069.133,11.321,11.321,0,0,0-1.528,2.852,2.842,2.842,0,0,0-.338,1.526.654.654,0,0,0,.08.391c-.005.093-.011.21.109.213a4.825,4.825,0,0,1,.088.768,3.7,3.7,0,0,0,.136.957c-.035.106-.032.175.011.21-.035.1-.027.167.016.2-.005.045-.008.09-.011.136a1.844,1.844,0,0,1-.09.46,16.523,16.523,0,0,0-.561,2.182c-.072.343-.146.691-.242,1.039-.149.555-.04.885.311.949a7.859,7.859,0,0,0-.136,1.685c-.011.056-.013.191-.032.582a.765.765,0,0,1-.274.619,1.15,1.15,0,0,0-.252.335.358.358,0,0,0,0,.338c-.011.045-.019.093-.029.141-.019.112-.043.226-.053.327a.3.3,0,0,0,.12.3,71.8,71.8,0,0,0,18.87-23.018c.064-.229.133-.452.207-.659a1.859,1.859,0,0,0,.175-1.063.9.9,0,0,1,.162-.691,9.035,9.035,0,0,0,.627-1.382c.024-.064.048-.13.072-.191a.218.218,0,0,0,.085-.12.308.308,0,0,0,.17-.213c.056-.019.1-.109.122-.162a.225.225,0,0,0,.088-.13,1.194,1.194,0,0,0,.29-.473.878.878,0,0,0,.175-.327.964.964,0,0,0,.053-.314c.027-.053.027-.056.085-.2a1.1,1.1,0,0,1,.082-.112.722.722,0,0,0,.175-.319,2.639,2.639,0,0,0,.489-.943c.08-.021.12-.152.2-.4a1.858,1.858,0,0,0,.324-.391c.207-.561.393-1.132.585-1.7.112-.33.226-.659.338-.994.263-.827.513-1.656.749-2.5a1.777,1.777,0,0,0,.1-.364,1.446,1.446,0,0,0,.077-.465.994.994,0,0,1,.167-.59c-.008-.088-.019-.141-.027-.191a2.123,2.123,0,0,1-.019-.526,1.235,1.235,0,0,0-.056-.55c-.032-.069-.069-.1-.117-.088s-.08.051-.122.122a.756.756,0,0,1-.462.417,1.479,1.479,0,0,0-.563.356,1.357,1.357,0,0,1-.542.33c-.045.011-.093.011-.213.13a.816.816,0,0,0-.136.136.182.182,0,0,1-.271.058c-.035-.1-.069-.221-.154-.21a.4.4,0,0,0-.151-.3c-.074-.093-.056-.186-.016-.351.032-.128.069-.271.4-.529a.291.291,0,0,0,.215-.183.784.784,0,0,0,.223-.364,1.282,1.282,0,0,1,.162-.053.785.785,0,0,0,.587-.529.264.264,0,0,1,.17-.1c.112-.027.231-.058.3-.388.043-.008.066-.085.082-.149.048-.013.082-.058.1-.136.074-.066.144-.133.215-.2.181-.173.364-.348.537-.508.141-.13.2-.343.282-.877a1.057,1.057,0,0,0,.191-.2.483.483,0,0,1,.383-.229c.016,0,.058-.011.077-.12a2.072,2.072,0,0,1,.245-.638c.128-.734.245-1.475.353-2.217.117-.837.231-1.674.319-2.519a.632.632,0,0,0-.242-.282.767.767,0,0,1-.165-.149,3.361,3.361,0,0,1-.112-1.313c.005-.077.019-.215-.128-.215a5.305,5.305,0,0,0-.252.728,2.769,2.769,0,0,1-.136.383.47.47,0,0,0-.077.316c-.08.175-.151.2-.412.186a.326.326,0,0,0-.133.043c-.04.016-.077.032-.226-.021a2.119,2.119,0,0,1-.013-.614c0-.053.011-.106.016-.167a1.018,1.018,0,0,0-.053-.6c-.019-.106-.05-.159-.215-.1-.04,0-.04,0-.175-.316-.085-.2-.213-.492-.433-.967a.372.372,0,0,0-.093-.221.911.911,0,0,0-.128-.46,2.484,2.484,0,0,0-.064-.659,1.51,1.51,0,0,0,.117-.271c.05-.141.1-.274.218-.234.024.141.069.226.2.189.04,0,.061.056.122.207a.484.484,0,0,0,.05.229c0,.056.013.136.056.138.088.359.133.537.221.9,0,.149.019.239.058.268a1.217,1.217,0,0,1,.3.391,1.192,1.192,0,0,0,.319.415.47.47,0,0,0,.415.3.412.412,0,0,0,.327-.266c.053-.112.1-.165.125-.167.045,0,.069.13.106.417.005.043.008.093.013.144.016.2.037.452.141.47a1.3,1.3,0,0,1,.356.138q.2-2.34.255-4.725c.005-1,.008-1.988.008-2.974A71.905,71.905,0,0,0,148.867,95.7c-.013-.061-.029-.122-.043-.181a71.117,71.117,0,0,0-4.391-13.174c-.069-.149-.136-.3-.2-.447-.611-1.342-1.257-2.666-1.953-3.984q-1.1-2.065-2.325-4.048a11.03,11.03,0,0,1-.989-.691,3.834,3.834,0,0,0-.465-.433c-.056-.045-.112-.09-.165-.138a.2.2,0,0,0-.167-.058.29.29,0,0,0,.037.146c-.106.247-.093.29.2.688a.728.728,0,0,0,.237.351.909.909,0,0,0,.457.428.326.326,0,0,1,.141.1,1.346,1.346,0,0,1,.17.4c.019.053.029.12-.064.09a.592.592,0,0,1-.149-.08c-.159-.117-.324-.25-.492-.383-.061-.048-.12-.1-.181-.141a.945.945,0,0,0-.263-.356,2.8,2.8,0,0,1-.821-1.183c-.088-.186-.175-.375-.282-.553a2.112,2.112,0,0,0-.779-1.47c-.058-.061-.117-.125-.178-.191a1.658,1.658,0,0,0-.266-.335,1.548,1.548,0,0,1-.245-.3.762.762,0,0,1,.154.035.378.378,0,0,1,.2.13,1.52,1.52,0,0,0,.579.516c.048.027.093.05.138.08.234.151.468.29.691.425.189.117.38.234.574.356a3.169,3.169,0,0,0,.428.234q-1.112-1.65-2.32-3.229t-2.488-3.088c-.082-.08-.175-.17-.258-.258a.5.5,0,0,1-.125-.189c-.051-.061-.1-.117-.154-.178-.183-.21-.364-.423-.548-.633a.843.843,0,0,0-.173-.128c-.1-.04-.053.114-.085.263a.884.884,0,0,0-.268-.173c-.066-.027-.128-.032-.295-.082a1.1,1.1,0,0,0-.1-.186,1.417,1.417,0,0,1-.144-.207c.045.016.1.027.082-.058.037-.027.085-.061,0-.2.077-.016.1-.058.072-.136a1.668,1.668,0,0,0-.332-.454c-.125-.133-.255-.26-.356-.353-.1-.12-.133-.157-.2-.173a1.041,1.041,0,0,1-.231-.186,2.111,2.111,0,0,0-.47-.338,1.587,1.587,0,0,0-.617-.526c-.106-.043-.051.1.045.34.016.077.048.157.074.244.048.13.1.271.069.319-.072-.141-.13-.263-.234-.462a.549.549,0,0,0-.242-.3c-.1-.035-.05.1-.04.263a.556.556,0,0,1-.066-.189.694.694,0,0,0-.151-.3.607.607,0,0,0-.244-.186.292.292,0,0,0-.1-.019c-.167,0-.268.178-.258.478M59.127,58.473a1.469,1.469,0,0,0-.537.175c-.21.213-.21.213-.361.38-.061.066-.093.1-.151.167-.476.51-.694,1.254-.274,1.483a1.1,1.1,0,0,0,.672.106,2.442,2.442,0,0,0,.816-.274c.058-.048.077-.066.114-.1a1.247,1.247,0,0,0,.181-.186.745.745,0,0,0,.338-.614.882.882,0,0,1,.066-.3.476.476,0,0,0,.529.244,2.579,2.579,0,0,0,.524-.138c.08-.027.194-.072.226-.154s-.048-.154-.13-.218a1.151,1.151,0,0,1-.1-.106c-.093-.082-.136-.117-.215-.186a.312.312,0,0,0-.308-.159.752.752,0,0,0-.4.226,1.1,1.1,0,0,0-.819-.361,1.293,1.293,0,0,0-.173.013M57.216,56.7a.4.4,0,0,0-.268.151c-.93,1.13-.93,1.143-.909,1.172.058.016.061.016.061.013a1.932,1.932,0,0,0,1.422-1.1c.035-.144-.024-.234-.149-.242h-.048c-.04,0-.077,0-.109.005M41.068,52.45a4.035,4.035,0,0,0-.582.383,2.661,2.661,0,0,1-.651.4.838.838,0,0,1-.237.05.435.435,0,0,0-.2.125.182.182,0,0,0-.064.154.262.262,0,0,1-.151.149,1.33,1.33,0,0,0-.343.191.165.165,0,0,0-.053.13c.016.056.09.074.2.056-.106.13-.151.144-.194.159a.379.379,0,0,0-.167.112c.005.162.069.17.144.141.061.085.162.072.25.04.074.2.1.284.122.375A.471.471,0,0,1,39,55.3a.683.683,0,0,1-.268.21.206.206,0,0,1-.159,0,.272.272,0,0,0-.21-.2.179.179,0,0,0-.229-.074.883.883,0,0,0-.359.351c-.258.383-.1.553.048.651a.55.55,0,0,0,.258.4.7.7,0,0,0,.412.005c.183-.032.359-.064.433.045a2.28,2.28,0,0,0,.2.346,1.814,1.814,0,0,1,.284.537c.021.08.165.133.335.074a.667.667,0,0,0,.338-.26.254.254,0,0,0,.133-.146,3.255,3.255,0,0,1,.662-.59c.55-.361.781-.747.656-1.076a.537.537,0,0,1,.1-.5.549.549,0,0,0,.085-.476.123.123,0,0,0-.122-.09c-.17,0-.207-.024-.21-.048s.058-.1.122-.167a1.244,1.244,0,0,0,.138-.157c.117-.159.1-.322-.029-.377a.207.207,0,0,0-.144.005c-.138.045-.3.173-.311.25-.024.114-.1.144-.2.189a.629.629,0,0,0-.189.106,1.2,1.2,0,0,0,.074-.226,1.143,1.143,0,0,0,.558-.755.852.852,0,0,1,.263-.486c-.151-.194-.191-.221-.3-.183a.992.992,0,0,0-.215.114.854.854,0,0,1-.17.093c-.013-.043.04-.1.09-.151.1-.1.21-.215.191-.332a.689.689,0,0,0-.2.074m5.02-1.462c-.486.085-1.076.191-1.427.21a2.27,2.27,0,0,0-.579.112,4.76,4.76,0,0,0-.882.4c-.239.141-.51.3-.494.579.016.114.016.114-.133.2-.106.064-.268.154-.276.3a6.727,6.727,0,0,1-.17,1.122c-.093.42-.141.643.213.611.035.037.064.069.045.128-.189.239-.226.428-.1.553a.4.4,0,0,0-.082.3.3.3,0,0,1-.064.242c-.237.215-.537.516-.454.638.1.141.005.21-.128.311a1.119,1.119,0,0,0-.13.106.951.951,0,0,0-.375,1.074.8.8,0,0,1-.045.579.842.842,0,0,0-.287.5c-.008.252.282.359.6.473.05.136.17.21.38.229a.251.251,0,0,0,.319.1c.409.21.2.627.016,1-.1.21-.117.338-.061.4.04.043.117.05.226.019s.21-.08.449-.144c.045.056.016.1-.08.255a.853.853,0,0,1-.138.167,1.022,1.022,0,0,0-.266.4,1.606,1.606,0,0,1-.529.311,1.363,1.363,0,0,1-.242.037.336.336,0,0,0-.231.2.476.476,0,0,1-.029.319.55.55,0,0,0,.074.566c.032.05.04.074-.093.17a.3.3,0,0,1-.072-.29c.058-.494.1-.787.125-.882s.024-.175-.013-.21-.08-.027-.308.05c-.088.024-.4.069-.481-.114a.658.658,0,0,1,.191,0,.715.715,0,0,0,.247-.013.519.519,0,0,0,.287-.234,1.048,1.048,0,0,0,.343-.359c.186-.093.383-.245.409-.417.019-.138-.12-.109-.327-.082a2.578,2.578,0,0,1-.255-.271,5.383,5.383,0,0,0-.59-.609l-.462-.279a.263.263,0,0,0-.268-.112c-.141.045-.226.226-.292.4-.035.056-.053.082-.09.141-.093.149-.093.149-.21.34a.958.958,0,0,1-.385.641.875.875,0,0,0-.478.635c-.013.237.167.215.316.2a.589.589,0,0,1,.149-.008,2.256,2.256,0,0,0,.359.013,1.679,1.679,0,0,1,.481.035c-.542.237-.662.3-.741.433a.377.377,0,0,0-.024.353.415.415,0,0,1-.048.4.713.713,0,0,1-.375.26.818.818,0,0,1-.173.032,1.873,1.873,0,0,0-.444.088,4.91,4.91,0,0,0-.819.372,3.515,3.515,0,0,1-.582.276.7.7,0,0,1-.2.045c.035-.128-.066-.144-.191-.2-.128-.26-.239-.276-.518-.175-.048.019-.093.04-.149.058-.521.181-.672.011-.8-.133a.456.456,0,0,1-.077-.6l.327-.064c.319-.058.625-.114.933-.162a1.385,1.385,0,0,0,.229-.05,1.609,1.609,0,0,0,.558-.433c.082-.08.178-.173.316-.3.338-.287.369-.335.367-.409-.181-.106-.335-.2-.189-.558a.158.158,0,0,0-.17-.021c-.12.04-.157.035-.17.019s.019-.106.053-.181c.019-.04.043-.082.064-.128.072.146.221.178.462.1a2.688,2.688,0,0,0,.319-.138.463.463,0,0,0,.263-.436.663.663,0,0,1,.04-.194c.207-.447-.072-.436-.292-.431a.562.562,0,0,1-.226-.024c-.045-.027-.045-.027-.237-.162-.08-.266-.351-.229-.617-.194a1.684,1.684,0,0,1-.245.024,1.581,1.581,0,0,0-.369-.388.25.25,0,0,1-.005-.146,2.292,2.292,0,0,0,.056-1.286A2.479,2.479,0,0,1,36.3,56.02a.9.9,0,0,0,.316-.481.935.935,0,0,1,.151-.284c.1-.151.2-.311.167-.431.048-.109.027-.167-.061-.175a2.2,2.2,0,0,0-.765.2c-.053.021-.1.037-.2.08-.045.019-.077.035-.181.191a.528.528,0,0,0-.223.271.583.583,0,0,0-.242.356.455.455,0,0,1-.1.237.968.968,0,0,1-.292.037c-.051,0-.09.008-.26.178a.823.823,0,0,1-.1.194.663.663,0,0,0-.141.4c-.011.1-.029.247-.061.494a3.669,3.669,0,0,0-.053.986c.016.12-.037.255-.237.4.024-.292.032-.558.05-.864.005-.1.008-.194.011-.308-.035-.04-.053-.061-.088-.1-.1-.112-.1-.112-.465-.276a.543.543,0,0,0-.221.037.438.438,0,0,0-.141.106c-.162.2-.064.276.053.367a1.567,1.567,0,0,1-.773.755.925.925,0,0,0,.247-.412c.008-.082-.056-.117-.311-.125a1.434,1.434,0,0,1-.255-.077.261.261,0,0,0-.234.011,1.134,1.134,0,0,0-.33.279.813.813,0,0,0-.239.393c-.021.061-.05.114-.2.2a.528.528,0,0,1,.1-.151,1.512,1.512,0,0,0,.221-.433c-1.039.928-2.054,1.874-3.038,2.86-.218.276-.555.723-.521.882.021.088.146.066.478-.058-.12.1-.287.237-.284.407,0,.082.04.1.117.061a2.065,2.065,0,0,0,.2-.133c.1-.058.2-.13.311-.21a5.178,5.178,0,0,1,.481-.3c-.271.263-.542.478-.765.659a2.172,2.172,0,0,0-.561.547.3.3,0,0,0,.029.3c-.005.159-.008.346.17.287.1-.035.207-.061.311-.085a3.261,3.261,0,0,0,.633-.21,2.628,2.628,0,0,0,.55-.359A1.91,1.91,0,0,1,30,62.419c.29-.136.478-.1.542.106a2.332,2.332,0,0,0-.582.186,6.607,6.607,0,0,0-1.318.864c-.218.173-.38.284-.5.369a.962.962,0,0,0-.361.343.235.235,0,0,0,.024.287c-.019.077-.008.125.027.141-.013.077,0,.122.032.138-.013.074-.005.12.035.136-.013.05-.024.136.053.138a.79.79,0,0,0,.468-.016,1.583,1.583,0,0,1,.279-.043c.058,0,.117-.008.181-.013.324-.027.614-.051.555.579-.024.274.085.348.346.234a1.777,1.777,0,0,0,.242-.125c.407-.237.827-.449,1.236-.656.157-.082.319-.159.476-.239a.914.914,0,0,0,.372-.319,2.767,2.767,0,0,1,1.223-.906,1.414,1.414,0,0,1-.34.284,1.616,1.616,0,0,0-.42.372c-.029.045-.064.088-.1.133a3.781,3.781,0,0,0-.223.33c-.082.144-.112.239-.082.29s.082.045.258.12c.13.048.255.1.247.223a.78.78,0,0,1-.2.372.262.262,0,0,0-.064.157.186.186,0,0,0,.1.175.544.544,0,0,0,.035.242.457.457,0,0,1-.1-.1.8.8,0,0,0-.856-.319c0-.218-.074-.3-.221-.234a1.588,1.588,0,0,0-.367.258c-.064.053-.128.106-.194.159a4.505,4.505,0,0,1-1.066.749,1.5,1.5,0,0,1-.162.058c-.345.1-.832.3-1.292.407a.3.3,0,0,1,.011-.26,1.521,1.521,0,0,1,.473-.423,1.2,1.2,0,0,0,.383-.332c.058-.114.024-.207-.1-.489.024-.1-.048-.106-.141-.151-.056-.242-.271-.322-.542-.2a1.157,1.157,0,0,0-.3.207,1.261,1.261,0,0,1-.292.2,9.174,9.174,0,0,1-1.491.112c-.1,0-.181.008-.247.011a.2.2,0,0,0-.282-.085c.021-.106-.053-.1-.117-.082-.082-.144-.26-.074-.409,0-.066.037-.138.08-.207.122-.045.029-.088.053-.122.072a.935.935,0,0,0-.468.545c-.117.239-.215.4-.353.322a.968.968,0,0,0,.183-.314c.005-.056-.029-.08-.08-.247a.649.649,0,0,1,.051-.144c.05-.114.117-.271-.088-.213a.7.7,0,0,0-.247.308,1.018,1.018,0,0,1-.106.167,1.28,1.28,0,0,0-.151.247,2.381,2.381,0,0,0-.407.635c-.072.178-.114.2-.258.173,0-.074,0-.159-.106-.109.011-.066.024-.136.048-.268A69.657,69.657,0,0,0,11.373,88.441l.016.231c-.043.181.05.167.292.239.194,0,.247.175.25.755.008.027.021.072.058.183.1.027.1.159.106.3a.487.487,0,0,0,.077.311c0,.059,0,.12,0,.189-.008.226-.013.486.218.526a1.4,1.4,0,0,0,.194-.5,1.354,1.354,0,0,1,.056-.21,1.733,1.733,0,0,1-.035.2c-.04.165-.082.353.032.433.226.152.409.38.229.986a.417.417,0,0,0,.213.553c.064-.029.106-.125.189-.229a.137.137,0,0,0,.2.072.468.468,0,0,0,.125-.09.805.805,0,0,0,.229-.627.3.3,0,0,1,.112-.234c.125-.058.268-.085.239.221-.019.141-.043.33.159.231.048-.021.109-.043.125-.016s-.013.13-.045.226c-.037.112-.085.255-.045.316a.6.6,0,0,0-.154.6.58.58,0,0,1,.021.2.454.454,0,0,0,.085.393.337.337,0,0,0,.4.029,1.021,1.021,0,0,0,.268-.186c-.082.606.064.914.441.936.231.011.207.316.178.67a1.166,1.166,0,0,0,.074.736,1.452,1.452,0,0,1-.2.154c-.141.1-.287.2-.322.34-.032.12.032.218.2.322-.133.569.194.526.555.614.146.029.274.053.287.3,1.082.319,1.177,1.281,1.246,2.044.011.1.019.2.032.29a3.965,3.965,0,0,1-.09,1.661c-.093.51-.12.731-.138.89a6.214,6.214,0,0,1-.2.994,3.93,3.93,0,0,0-.181,1.685,2.529,2.529,0,0,1-.12,1.361,4.787,4.787,0,0,0,.473,1.961,1.944,1.944,0,0,0,.292.606,1.757,1.757,0,0,1,.314.718c.011.072.1.1.231.12a1.28,1.28,0,0,1-.021.189c-.029.159-.061.335.072.449.064.221.223.322.484.516a1.568,1.568,0,0,0,.207.229l-.024.191c-.04.26-.072.486.308.563.154.032.25.051.191.417a.165.165,0,0,0,.167.048.221.221,0,0,0,.144-.088c.1-.138.178-.21.26-.223s.189.035.314.125c.518.377.84.641.837,1.2,0,.051.05.069.1.17a.166.166,0,0,0,.12.109.367.367,0,0,0,.178.311,3.493,3.493,0,0,0,.271,1.177c.027.066.048.138.069.21.1.332.218.707.741.789.053.165.1.308.258.34-.024.133.066.191.136.274.05.21.072.343-.093.444a.363.363,0,0,1-.154.056c-.072.005-.194-.013-.2-.221,0-.072,0-.2-.226-.146a.319.319,0,0,0-.141.229.279.279,0,0,0,.1.268.374.374,0,0,1,.088.165.405.405,0,0,0,.284.3.553.553,0,0,0,.423.271c.011.141.117.17.226.2a.613.613,0,0,0,.338.181.6.6,0,0,1,.258.114.438.438,0,0,0,.3.221,2.444,2.444,0,0,1,.013,1.026.472.472,0,0,0,.011.332.171.171,0,0,0,.149.066.517.517,0,0,1,.393.223,1.776,1.776,0,0,0,.377.316c.032.09.08.178.186.17.008.138.1.207.223.306a1.105,1.105,0,0,1,.08.226c.048.17.1.364.266.356s.361-.242.417-.314a.82.82,0,0,0,.194-.436c-.013-.117-.1-.2-.359-.481a.231.231,0,0,0-.165-.223c-.335-.1-.4-.388-.489-.726-.032-.13-.051-.2-.066-.25a3.929,3.929,0,0,1-.1-.428c-.09-.465-.186-.941-.643-1.143-.005-.061-.016-.146-.1-.146a2.328,2.328,0,0,0-.375-.959l-.077-.136c-.035-.295-.162-.449-.383-.468.016-.255-.088-.4-.3-.441a.244.244,0,0,0-.194-.213,5.052,5.052,0,0,1-.207-1.483.958.958,0,0,0,.529.027c.1.082.151.122.252.2a2.083,2.083,0,0,1,.1.431,1.288,1.288,0,0,0,.25.688.478.478,0,0,0,.178.452c-.12.34-.173.51-.112.606a.176.176,0,0,0,.189.064,1.262,1.262,0,0,0,.229-.051,1.655,1.655,0,0,0,.494.651c.048.037.1.069.149.1a.514.514,0,0,1,.324.447.377.377,0,0,0,.412.369.4.4,0,0,0,.369.33c-.252.983.338,1.185.936,1.5.04.252.085.54.385.619.053.13.117.159.165.159.008.066.072.144.274.4.162.2.4.5.792,1.013a2.021,2.021,0,0,1,.117,1.767.544.544,0,0,0,.013.718,2.076,2.076,0,0,1,.109.2.277.277,0,0,0,.306.191l.646.481c.2.324.407.6.765.654a2.443,2.443,0,0,1,1.4.755.483.483,0,0,0,.393.292c.082.024.08.021.946.351l.367.141.457.17a2.822,2.822,0,0,0,1.587.712,1.621,1.621,0,0,0,.888-.234,1.043,1.043,0,0,1,.553-.17c.4.008.877.348,1.409,1.015a2.987,2.987,0,0,0,.63.638,2.077,2.077,0,0,0,1.4.675,2.98,2.98,0,0,1,.917.282,1.14,1.14,0,0,0,.72.284c.141,0,.29-.024.633-.05a3.116,3.116,0,0,0,.752,1.071,2.218,2.218,0,0,1,.811,1.565.47.47,0,0,0,.077.356.422.422,0,0,0,.322.133.293.293,0,0,0,.266.215.681.681,0,0,0,.2-.04.8.8,0,0,1,.133-.032c.037.229.191.346.518.393.369,1.066,1.01,1.079,2,1.1a.929.929,0,0,0,.439.542,1.116,1.116,0,0,1,.343.335c.037.072.151.1.237.1a.464.464,0,0,0,.417-.255.228.228,0,0,0,.218-.245.322.322,0,0,0-.247-.332.424.424,0,0,1,.141-.276,1.1,1.1,0,0,0,.085-.1.54.54,0,0,0,.4-.274.37.37,0,0,1,.21-.058,1,1,0,0,1,.25.05,1.364,1.364,0,0,0,.159.037c.013.162.141.2.282.242a.647.647,0,0,1,0,.2.436.436,0,0,0,.125.452A3.266,3.266,0,0,1,51.86,139a.91.91,0,0,0,.215.885c-.114.066-.239.152-.213.34-.088.032-.12.112-.242.274-.38.064-.768.128-.787.773a.853.853,0,0,1-.55.643c-.643.223-.662.548-.683.888a1.219,1.219,0,0,1-.377.93.546.546,0,0,0-.167.633,1.138,1.138,0,0,1,.029.2.976.976,0,0,0,.215.7.7.7,0,0,0,.484.175.708.708,0,0,1,.26.027.478.478,0,0,0-.234.255,1.431,1.431,0,0,0-.8,1.884,1.9,1.9,0,0,0,.9,1.058c.069.048.144.1.218.151a6.507,6.507,0,0,0,.686,1.039,4.574,4.574,0,0,1,.848,1.419,5.28,5.28,0,0,0,.85,1.611.278.278,0,0,0,.21.215.346.346,0,0,0,.274.327.359.359,0,0,0,.282.359,2.7,2.7,0,0,0,1.369,2.06.8.8,0,0,0,.314.247,1.207,1.207,0,0,1,.173.112,4.773,4.773,0,0,0,1.339.675,5.876,5.876,0,0,1,1.066.492.282.282,0,0,0,.252.162c.074.183.247.274.508.412a.282.282,0,0,0,.252.162,9.288,9.288,0,0,1,.508,2.987,2.86,2.86,0,0,1-.13.8,2.708,2.708,0,0,0-.074,1.284,4.005,4.005,0,0,1-.221,2.057c-.021.061-.029.09-.045.151a3.188,3.188,0,0,0-.175,1.919c-.34.138-.3.428-.218.667a4.721,4.721,0,0,1-.808,4.279c-.322.476-.276.6-.186.869a3.816,3.816,0,0,1,.077,1.985.712.712,0,0,0,.019.263c.045.25.005.3-.048.361-.069.082-.151.186-.149.582a1.164,1.164,0,0,1-.008.144c-.013.194-.024.359.361.446a.492.492,0,0,0,.133.021.315.315,0,0,0,.369-.2,1.339,1.339,0,0,0,0-.731c-.029-.1-.053-.17.183-.181a.38.38,0,0,0,.1.165c.04.045.074.085.066.114-.051.332-.125.654-.194.959-.024.106-.048.21-.069.311a.286.286,0,0,1-.085.12c-.08.077-.165.165-.343.335-.058.013-.2.04-.149.125.021.04.082.074.183.109.38.136.34.274.242.457-.066-.074-.162-.181-.547-.213-.032,0-.3-.021-.361.106.1.133.016.162-.175.229-.157.061-.229.167-.178.271.04.077.144.138.343.175.12.008.136-.053.207-.138a.394.394,0,0,0,.151.069c.255.042.33.085.351.114s.013.08-.141.17c-.064.035-.183.106-.082.2a.576.576,0,0,1,.138.279c.51.159,1.029.3,1.541.446.383.109.763.223,1.145.324.776.207,1.557.4,2.349.59a.843.843,0,0,0,.061-.191.5.5,0,0,1,.077-.191c.088.011.13-.024.252-.088.157-.042.319-.088.375-.2.476-.053.462-.3.449-.542-.011-.2-.016-.3-.473-.383a2.147,2.147,0,0,1-.486-.141.2.2,0,0,0-.191-.141.5.5,0,0,0-.093-.167c-.058-.08-.112-.149-.048-.226.133-.069.271-.138.268-.274a.507.507,0,0,0,.271-.109,2.285,2.285,0,0,1,.242-.011c.284-.005.606-.008.571-.324.2-.056.189-.183.173-.33a.56.56,0,0,1,.114-.468c.1-.011.231-.019.276-.114.051-.013.1-.024.157-.037a2.074,2.074,0,0,0,.4-.12c.279-.13.159-.346.048-.537a.3.3,0,0,0-.25-.173.656.656,0,0,0-.3.072.439.439,0,0,1-.2.035.138.138,0,0,1-.128-.093c-.077-.17-.237-.675.019-.707a2.051,2.051,0,0,0,.9.359,1.466,1.466,0,0,0,.763-.175.969.969,0,0,0,.223-.7,1.543,1.543,0,0,1,.17-.654c.064.005.234.029.369.043a7.969,7.969,0,0,0,1.52-.088c.266-.035.537-.072.808-.088a1.073,1.073,0,0,0,.71-.574c.082-.021.189-.058.215-.162.508-.409.518-.664.024-1.164-.074-.074-.074-.154-.08-.332a.165.165,0,0,0,.058-.159c-.013-.058-.072-.114-.175-.165l-.478-.372a.353.353,0,0,1,.194-.035,1.624,1.624,0,0,1,.194.029,1.538,1.538,0,0,0,.245.032c.048.024.1.048.144.074a1.477,1.477,0,0,0,.38.167,5.693,5.693,0,0,0,.962.175c.776.045,1.007-.218,1.483-.763.082-.093.173-.2.274-.308.077-.008.13-.048.255-.2.109-.1.21-.218.311-.324a3.719,3.719,0,0,1,1.116-.928.444.444,0,0,0,.284-.3,2.228,2.228,0,0,0,.7-.872,2.506,2.506,0,0,1,.587-.768c.122-.056.274-.125.266-.292.622-.279.6-.747.579-1.249a1.573,1.573,0,0,1,.54-1.518,2.571,2.571,0,0,0,.617-.425,2.293,2.293,0,0,1,.728-.46c.3-.1.593-.215.88-.335a6.585,6.585,0,0,1,1.685-.518,2,2,0,0,0,.3.035,1.31,1.31,0,0,0,.5-.117c.151-.082.229-.122.383-.207.058-.024.149-.056.175-.13a.264.264,0,0,0,.226-.138c.114-.032.271-.074.29-.245a2.124,2.124,0,0,0,.417-.633,2.607,2.607,0,0,1,.279-.473c.141-.1.324-.234.316-.46a1.591,1.591,0,0,0,.664-1.2c.027-.13.053-.271.09-.4a1.061,1.061,0,0,0,.444-.648c.027-.117.056-.234.085-.351a5.623,5.623,0,0,0,.237-1.677,2.35,2.35,0,0,1,.332-1.512.338.338,0,0,0,.268-.13,1.131,1.131,0,0,0,.638-.712c.021-.045.043-.1.066-.144a.322.322,0,0,0,.165-.268c.157-.181.234-.271.391-.454.069-.05.141-.1.223-.154a2.142,2.142,0,0,0,.869-.922c.2-.027.287-.175.407-.4a3.732,3.732,0,0,0,.542-3.452.792.792,0,0,0-.638-.369c-.12-.019-.245-.027-.372-.037a1.676,1.676,0,0,1-.9-.223c-.069-.144-.157-.173-.237-.17-.032-.183-.2-.25-.38-.314a.232.232,0,0,0-.268-.157,1.981,1.981,0,0,0-1.8-.914l-.207.008c-.146.011-.314.019-.473.021a2.973,2.973,0,0,1-1.058-.146c-.09-.035-.186-.077-.268-.117a1.733,1.733,0,0,0-.734-.207,1.135,1.135,0,0,0-.47.122c-.043,0-.09-.058-.114-.114a1.563,1.563,0,0,0-.991-.795c-.112-.045-.221-.093-.338-.144a3.92,3.92,0,0,0-1.65-.454,1.915,1.915,0,0,0-.343.037.766.766,0,0,1-.149.027c-.05,0-.1-.011-.128-.141-.056-.314-.282-.353-.478-.391a1.535,1.535,0,0,1-.159-.035,2.772,2.772,0,0,0-.279-.061c-.346-.069-.67-.133-.71-.585q.036-.056.08-.112a.723.723,0,0,0,.218-.518.451.451,0,0,0-.226-.29.984.984,0,0,1-.377-.542c-.019-.048-.035-.1-.056-.144a2.778,2.778,0,0,1-.144-.47,1.911,1.911,0,0,0-.388-.872.623.623,0,0,0-.375-.322.6.6,0,0,1-.3-.221c-.207-.165-.306-.25-.513-.415a5.078,5.078,0,0,0-2.815-.938,4.989,4.989,0,0,0-.526.029c-.056.008-.109.016-.162.021a2.554,2.554,0,0,1-.393.037c-.383,0-.534-.167-.789-.449a.366.366,0,0,0-.353-.186.453.453,0,0,0-.237-.239c-.128-.074-.2-.128-.207-.271a.96.96,0,0,0-.675-.842c-.1-.154-.282-.231-.643-.377-.431-.178-.837-.343-.949-.9-.011-.069-.08-.072-.314-.189-.021-.04-.064-.072-.045-.125.42-.088.447-.441.468-.739a.254.254,0,0,0-.048-.186c-.058-.064-.149-.072-.529-.08-.181,0-.391.05-.417.462-.005.12-.1.343-.231.343-.064,0-.138-.058-.218-.165.027-.058.082-.085.173-.125.13-.058.3-.133.284-.486-.231,0-.351,0-.582,0-.175,0-.242,0-.412-.005l-.263.005a.447.447,0,0,1-.3-.082,1.143,1.143,0,0,0-.457-.221c-.159,0-.215.157-.324.473-.035.1-.112.133-.271.181a2.02,2.02,0,0,1-.577.114.768.768,0,0,1-.3-.061.472.472,0,0,0-.492-.375c-.064,0-.13.008-.2.013s-.128.008-.245.008a1.53,1.53,0,0,0-.369.048,1.8,1.8,0,0,1-.346.048.334.334,0,0,1-.33-.2,1.073,1.073,0,0,0-.975-.656c-.25-.032-.431-.053-.526-.311-.082-.221-.215-.346-.369-.348a.368.368,0,0,0-.338.319.6.6,0,0,1-.361.428.936.936,0,0,0-.213.144.421.421,0,0,0-.229.112.168.168,0,0,1-.191.032.375.375,0,0,1-.074-.242c.016-.093.1-.149.207-.218a.576.576,0,0,0,.3-.361.412.412,0,0,0-.1-.319.622.622,0,0,0-.452-.247.647.647,0,0,0-.518.314,2.1,2.1,0,0,1-1.278.672c-.058.013-.122.024-.183.037a2.754,2.754,0,0,0-1.56.688.293.293,0,0,0-.223.093.482.482,0,0,0-.085.356c.045.478-.2.731-.563,1.031a1.055,1.055,0,0,0-.55.454,1.489,1.489,0,0,1-.165-.175,2.957,2.957,0,0,0-1.595-.9,1.5,1.5,0,0,0-.811.221,1.989,1.989,0,0,1-1.082.343,1.222,1.222,0,0,1-.9-.412.62.62,0,0,0-.521-.441c-.064-.1-.1-.152-.162-.252-.159-.255-.159-.255-.311-.5a3.187,3.187,0,0,1,.04-1.767c.058-.308.128-.694.21-1.223.027-.165.08-.5.1-.617.037-.213.088-.478-.194-.63a2.43,2.43,0,0,0-1.852-.893,2.643,2.643,0,0,0-.428.032,10.77,10.77,0,0,1-1.27.085c-.112,0-.223.005-.407.013-.058,0-.13.005-.2.005-.2,0-.231-.037-.231-.037a1.529,1.529,0,0,1,.173-.516,14.036,14.036,0,0,0,.936-2.825,4.007,4.007,0,0,1,.271-.936.359.359,0,0,0,.157-.308c.178-.287.234-.484.186-.638s-.194-.255-.481-.34a2.349,2.349,0,0,0-.659-.088,5.438,5.438,0,0,0-2.038.593c-.322.141-.377.516-.431.88a4.022,4.022,0,0,1-.157.7,1.6,1.6,0,0,0-.274.38c-.128.223-.239.417-.5.409a3.068,3.068,0,0,0-.409-.05,2.974,2.974,0,0,0-.816.141c-.082.024-.167.051-.25.077a2.1,2.1,0,0,1-.643.133.967.967,0,0,1-.231-.029c-.117-.319-.369-.356-.707-.409-.037-.04-.053-.061-.085-.1-.061-.149-.133-.191-.189-.2a.394.394,0,0,0-.13-.322.854.854,0,0,0-.226-.587c-.019-.1-.045-.231-.178-.252.016-.2-.133-.3-.247-.4a1.069,1.069,0,0,1-.008-.245.59.59,0,0,0-.045-.428c.011-.059.021-.13-.125-.237-.005-.1-.013-.207-.021-.308a7.962,7.962,0,0,1,.173-2.979.379.379,0,0,0,.287-.247.7.7,0,0,0,.088-.819,1.21,1.21,0,0,1,.128-1.262,3.891,3.891,0,0,0,.391-.5c.279-.407.542-.792,1.066-.813.066,0,.077-.064.09-.106.385-.606.648-.781,1.207-.8.215-.008.473,0,.8.021.26.013.555.029.917.04a1.115,1.115,0,0,0,.845.423,1.316,1.316,0,0,0,.534-.157c.035,0,.069.024.12.069a.586.586,0,0,0,.114.08.25.25,0,0,0,.221.122.415.415,0,0,0,.356-.306.322.322,0,0,0-.072-.237s-.069-.082-.1-.109a.808.808,0,0,1,.066-.609.7.7,0,0,1,.532-.186c.077,0,.151,0,.229,0s.157.005.237,0a1.827,1.827,0,0,0,.492-.09,1.712,1.712,0,0,1,.5-.093,1.144,1.144,0,0,1,.888.372c.066.173.159.2.237.194.032.151.106.229.221.226a1.088,1.088,0,0,0,.332-.109c.069-.027.159-.061.279-.112a1.4,1.4,0,0,1,.5-.149.57.57,0,0,1,.221.04c.223.266.332.4.555.664a2.981,2.981,0,0,1,.032.832,2.043,2.043,0,0,0,.213,1.313c.058.125.128.276.21.478a5.892,5.892,0,0,0,.672,1.3.582.582,0,0,1,.072.189c.037.141.09.335.308.332a.5.5,0,0,0,.144-.024c.346-.1.672-.2.792-.718a3.894,3.894,0,0,0,.056-1.993c-.207-.71-.4-1.446-.579-2.155-.056-.223-.114-.444-.17-.667A2.594,2.594,0,0,1,50.9,111.2a1.385,1.385,0,0,0,.718-.659.148.148,0,0,0,.125-.061.219.219,0,0,0,.037-.144,2.772,2.772,0,0,1,1.071-.744.7.7,0,0,0,.532-.609c.651-.048.991-.55,1.579-1.313A.238.238,0,0,0,55,107.5a2.032,2.032,0,0,0-.05-1.539,3.352,3.352,0,0,1,.242-.433,2.129,2.129,0,0,0,.353-.752.372.372,0,0,0,.149-.3,1.944,1.944,0,0,0,.338-.68,1.486,1.486,0,0,1,.42-.715,2.316,2.316,0,0,0,.428-.9,2.862,2.862,0,0,1,.194-.521c.074-.138.324-.2.571-.26a1.248,1.248,0,0,0,.712-.33,2.272,2.272,0,0,1,1.616-.811l.258-.048a.554.554,0,0,0,.425-.245c.061-.122.045-.271-.114-.542a.39.39,0,0,0-.276.191.308.308,0,0,1-.114.114.682.682,0,0,0-.136-.353c-.1-.157-.157-.263-.077-.428s.138-.316.2-.478c.218-.566.425-1.1,1.09-1.246.064-.016.122-.053.2-.223a.818.818,0,0,0,.133-.112.41.41,0,0,1,.276-.144.542.542,0,0,1,.162.027.654.654,0,0,0,.2.024A1.223,1.223,0,0,0,63.32,96c.1-.428.268-.446.5-.473a1.2,1.2,0,0,0,.162-.024c.058-.008.125-.011.189-.013a.551.551,0,0,0,.547-.271.364.364,0,0,1,.276.008.234.234,0,0,1-.1.13,2.817,2.817,0,0,0-.279.252,1.407,1.407,0,0,0-.819.827,1.15,1.15,0,0,0,.223.946c.234.258.343.377.457.375s.175-.093.282-.207c.064,0,.1-.029.936-.97a.165.165,0,0,0,.12-.151,11.425,11.425,0,0,0,2.07-.757c.186-.082.375-.165.563-.245a.242.242,0,0,0,.133-.186c-.066-.146-.053-.207-.043-.231.021-.048.109-.064.191-.08a.415.415,0,0,0,.274-.117.531.531,0,0,0,.436-.29.385.385,0,0,0,.274-.417.366.366,0,0,0-.316-.34c-.178,0-.226-.04-.242-.064-.024-.048.024-.165.066-.255a1.187,1.187,0,0,0,.077-.218c.048-.239-.061-.417-.38-.494a.224.224,0,0,0-.173.077.3.3,0,0,0-.069.2c-.1.024-.12.128-.125.189-.074.1-.114.154-.194.271a1.718,1.718,0,0,1-.109.207,1.552,1.552,0,0,0-.221.587.223.223,0,0,1-.154.08.423.423,0,0,1-.173-.056.664.664,0,0,0-.239-.072c.035-.045.069-.088.106-.13a.6.6,0,0,0,.191-.478.953.953,0,0,0-.651-.181l-.162,0c-.053,0-.106.005-.159.005-.351,0-.672-.048-.837-.686a.478.478,0,0,0-.314.25.446.446,0,0,1-.144.159.722.722,0,0,0-.149-.433c-.069-.109-.109-.178-.08-.218a.839.839,0,0,0-.024-1.052c.082-.029.133-.12.2-.2.3-.167.6-.34.561-.864a.766.766,0,0,0-.755-.742c-.064-.005-.128-.011-.2-.013-.175-.013-.356-.027-.534-.024a1.771,1.771,0,0,0-1.119.343.313.313,0,0,0-.271.138.306.306,0,0,0-.252.138.382.382,0,0,0-.263.12.511.511,0,0,0-.226.09.437.437,0,0,1-.159.069s-.032-.029.011-.252c.122-.029.282-.077.279-.282a1.049,1.049,0,0,1,.316-.053c.252-.019.571-.037.672-.486a.292.292,0,0,0,.146-.274.271.271,0,0,0,.13-.26.2.2,0,0,0,.12-.133,5.109,5.109,0,0,1,1.789-.3,13.264,13.264,0,0,1,1.4.082c.417.04.813.08,1.191.08a2.453,2.453,0,0,0,2.169-.981,1.962,1.962,0,0,1,1.417-.813c.085-.011.17-.021.26-.027l-.194.367c-.069.085-.1.128-.17.21a.683.683,0,0,0-.167.55.741.741,0,0,1-.061.377,7.391,7.391,0,0,0-.7,1.568.9.9,0,0,1-.324.4.928.928,0,0,0-.393,1.031.585.585,0,0,0-.218.67.6.6,0,0,0,.614.375c.234-.005.468-.005.712-.005.356,0,.726,0,1.14-.013.316,0,.457.159.449.5-.005.274.1.449.284.452a.423.423,0,0,0,.25-.1c.1-.069.207-.133.308-.2a2.261,2.261,0,0,0,.805-.7c.043.053.016.146-.061.338-.069.167-.141.338-.061.473.061.1.181.146.468.218q.1.387.311.391c.154,0,.3-.146.415-.292a2.688,2.688,0,0,0,.146-2.161.16.16,0,0,0-.133-.082.4.4,0,0,0-.239.117.625.625,0,0,0-.09.125c-.021.037-.069.112-.144.005a.272.272,0,0,1,.178-.173c.12-.066.393-.258.311-.553a.235.235,0,0,0-.234-.207,1,1,0,0,1-.346-.064.705.705,0,0,1,.058-.223.663.663,0,0,0,.1-.622c-.08-.157-.274-.242-.678-.247a3.318,3.318,0,0,1-1.092-.191c.1-.109.175-.215.146-.324s-.144-.183-.393-.242c-.1-.021-.3-.064-.338-.178a.334.334,0,0,1,.058-.26,1,1,0,0,0,.221-.388,1.37,1.37,0,0,1,.133-.274.984.984,0,0,0,.17-.845A.6.6,0,0,0,73,86.272a.351.351,0,0,1,.082-.112,1.69,1.69,0,0,0,.226-.3.2.2,0,0,0,.029-.146,1.128,1.128,0,0,0,.045-.858,2.035,2.035,0,0,1-.061-.4c0-1.1-.024-1.124-1.18-1.472a.649.649,0,0,0-.056-.468c-.1-.144-.3-.149-.486-.151.284-.194.407-.292.42-.417s-.1-.215-.282-.361c-.019-.348-.146-.425-.255-.425a.4.4,0,0,0-.25.109.339.339,0,0,1-.183.08c-.074,0-.13-.053-.255-.162-.043-.276-.223-.439-.609-.431a.989.989,0,0,1-.439-.614.862.862,0,0,0-.077-.162c-1-.532-1.14-.848-.771-1.69a.392.392,0,0,0,.178-.274.246.246,0,0,0-.12-.2.479.479,0,0,0-.21-.4.272.272,0,0,1,.027-.149c.035-.106.085-.26-.064-.348a.221.221,0,0,0,0-.144.21.21,0,0,0-.125-.128,1,1,0,0,0-.13-.274.847.847,0,0,1-.151-.617c-.12-.016-.133-.109-.146-.276-.011-.144-.027-.335-.223-.367a1.047,1.047,0,0,0-.109-.8,3.657,3.657,0,0,1-.715-1.632c-.053-.234-.159-.359-.3-.356s-.276.12-.4.33a.644.644,0,0,0-.292.391.777.777,0,0,0-.3.7,1.434,1.434,0,0,1-.316.922,1.848,1.848,0,0,0-.872.747,3.771,3.771,0,0,1-.332.4,2.086,2.086,0,0,0-.247.1c-.035,0-.035-.093-.035-.13a.508.508,0,0,0-.3-.446c-.146-.1-.263-.181-.239-.377,0-.029.008-.085-.3-.061a.629.629,0,0,1-.165.04c-.112,0-.125-.074-.141-.4a2.518,2.518,0,0,1,.011-.372,1.077,1.077,0,0,0-.125-.771c-.021-.056.008-.1.093-.181s.231-.237.112-.436a.859.859,0,0,1,.12-.949.385.385,0,0,0-.112-.59.238.238,0,0,0-.157-.053.359.359,0,0,0-.258.189,1.1,1.1,0,0,0-.7-.226c-.077-.005-.12-.011-.2-.019-.162-.013-.346-.029-.38-.12-.021-.066.024-.183.138-.351a.211.211,0,0,0,.029-.2c-.024-.048-.069-.072-.175-.064s-.151-.058-.194-.173a.282.282,0,0,0-.109-.162.557.557,0,0,1-.21-.351c-.069-.218-.146-.462-.529-.433a.727.727,0,0,0-.622-.353.946.946,0,0,0-.465.221,1.3,1.3,0,0,1-.723.306,1.859,1.859,0,0,1-.792-.144,9.211,9.211,0,0,0-.928-.263.786.786,0,0,0-.215-.024.284.284,0,0,0-.162.072.293.293,0,0,0-.08.173c-.061.011-.1.04-.151.173a1.177,1.177,0,0,0-.484.821.485.485,0,0,0,.266.524c.112.05.17.1.178.154,0,.029-.005.077-.088.173a1.732,1.732,0,0,0-.327,1.714,2.454,2.454,0,0,1,.066.893c-.077.454-.21,1-.566,1.172-.375.183-.577.356-.627.55s.05.412.338.672c.066.061.144.117.21.167a.869.869,0,0,1,.436.587c.027.191.056.383.085.585a8.779,8.779,0,0,1,.122,2.392,1.315,1.315,0,0,0-.4.7.894.894,0,0,0-.407.534,1.8,1.8,0,0,0-.566.428.3.3,0,0,0-.247.237c-.234.029-.393.2-.622.449-.263.178-.4.282-.431.417s.082.252.292.46a1.2,1.2,0,0,0,.1.444,1.312,1.312,0,0,1,.093.447,5.79,5.79,0,0,0,.239,2.049c-.213.1-.452.223-.492.428a.758.758,0,0,0,.112.441.732.732,0,0,1-.159-.021.7.7,0,0,0-.2-.024.387.387,0,0,0-.311.221c-.064.106-.125.167-.175.173-.069,0-.149-.088-.234-.266a.578.578,0,0,1-.04-.149.373.373,0,0,0-.2-.324c-.077-.082-.136-.144-.237-.245-.112-.05-.146-.181-.186-.316-.045-.162-.1-.361-.308-.407.037-.13.08-.133.1-.133a.419.419,0,0,1,.146.04c.048.016.1.035.252.082a.424.424,0,0,0,.2.05.255.255,0,0,0,.191-.125c.112-.173.016-.311-.112-.5-.043-.1-.066-.151-.122-.268-.066-.072-.159-.1-.391-.072a.991.991,0,0,1-.173.035c-.242.016-.332-.117-.359-.55a5.917,5.917,0,0,1,.122-1.741.688.688,0,0,0-.027-.558c-.08-.114-.237-.165-.5-.165-.167,0-.335.008-.5.013a4.109,4.109,0,0,1-1.629-.141c-.088-.356-.476-.425-.888-.494a1.872,1.872,0,0,1-.84-.279.512.512,0,0,0-.213-.348.649.649,0,0,0-.587-.425.487.487,0,0,0-.462-.186c-.027-.064-.09-.114-.263-.09a1.664,1.664,0,0,0-.943-.338.459.459,0,0,0-.4-.136,1.335,1.335,0,0,0-.449.2,1.7,1.7,0,0,1-.4.2,4.156,4.156,0,0,1-.221-.877c-.141-.808-.3-1.637-1.7-1.555.037-.3.061-.6.085-.885A12.436,12.436,0,0,1,41.5,74.3a.683.683,0,0,0,.221-.7c-.021-.144.05-.252.282-.388.2-.114.444-.255.492-.5a1.1,1.1,0,0,1,.388-.524,1.21,1.21,0,0,0,.513-.909c.178-.037.306-.09.348-.167.058-.1-.037-.181-.061-.308.061-.011.12-.019.175-.027s.112-.013.167-.024a.691.691,0,0,0,.409-.21.452.452,0,0,0,.287-.162.267.267,0,0,0,.181-.133.255.255,0,0,0,.149-.09.2.2,0,0,0,.011-.218c-.152-.319-.024-.6.449-.925.05-.035.117-.082.13-.133.1-.346.2-.5.5-.553a1.3,1.3,0,0,1,.263-.021.882.882,0,0,0,.178-.019,1.5,1.5,0,0,0,1.015-.638,3.877,3.877,0,0,1,.47-.68c.409-.513.835-1.042.553-1.624a.931.931,0,0,0,.4-.532.714.714,0,0,0,.446-.508c.237-.2.346-.359.359-.494.011-.162-.125-.282-.335-.415a2.64,2.64,0,0,1,.4-.122c.144-.024.229,0,.271.077a1.505,1.505,0,0,0,.585.5,1.292,1.292,0,0,1,.561.5c.093.2.465.252.872.117a1.087,1.087,0,0,0-.425-.672.7.7,0,0,1,.154-.441c.072-.112.122-.141.133-.144a1.5,1.5,0,0,0,.819-.47.26.26,0,0,0,.178-.146c.085-.048.2-.12.186-.231a1.253,1.253,0,0,0,.526-.492.619.619,0,0,0,.319-.375c.478-.412.518-.784.128-1.09-.04-.045-.077-.082-.109-.12-.221-.242-.245-.266-.159-.59a.563.563,0,0,0,.011-.425,1.568,1.568,0,0,0,.7-.609.628.628,0,0,0-.088-.688c.183-.106.266-.189.268-.263.005-.141-.3-.175-.763-.215a.408.408,0,0,1-.263-.106.288.288,0,0,1-.008-.173c.05-.189.021-.322-.088-.4a.841.841,0,0,0-.585-.053c-.407.066-.824.117-1.231.167-.223.027-.444.056-.765.1-.069.011-.122.016-.162.027-.175.035-.2.109-.237.229-.016.043-.032.1-.061.17a.6.6,0,0,0,.215.856c.008.064.066.1.117.138.093.061.13.1.021.189a3.624,3.624,0,0,0-1.127,1.419c-.077.146-.151.29-.234.431a.335.335,0,0,1-.029-.17c0-.117,0-.263-.3-.2a.713.713,0,0,0-.332.141c-.109.1-.128.207-.146.436a.462.462,0,0,0,.258.561c.151.088.112.218.053.314a.793.793,0,0,1-.4.319c-.08.016-.167-.008-.3-.13a.635.635,0,0,0-.457-.425.832.832,0,0,0-.045-.226c-.069-.226-.122-.4.377-.627a.237.237,0,0,0,.122-.25,1.164,1.164,0,0,1-.088-.316.662.662,0,0,0-.3-.547c.032-.069.032-.159-.151-.175a.556.556,0,0,0-.407-.276.579.579,0,0,0-.486-.1,1.268,1.268,0,0,0-.635.439.962.962,0,0,0-.25.7,2.113,2.113,0,0,1-.029.282.311.311,0,0,0-.165.213.746.746,0,0,1-.175.05s-.016-.027.085-.162a.446.446,0,0,0,.1-.436A.4.4,0,0,0,45.6,59.7c.029-.167-.125-.234-.263-.276.271-.348.345-.5.284-.582s-.3-.077-.646-.05c-.1.011-.213.021-.338.027-.09.008-.183.021-.276.037-.144.027-.266.045-.287.011s-.008-.082.088-.245a.449.449,0,0,0,.338-.314c.027-.072.048-.12.106-.144.25-.106.375-.186.407-.255s-.08-.114-.316-.213c-.027-.061-.061-.146-.271-.1a1.1,1.1,0,0,0-.537-.486,1.189,1.189,0,0,1-.048-.558c.021-.263.037-.489-.274-.6-.08-.019-.1-.112-.109-.207-.024-.141-.05-.314-.324-.231-.088.027-.194.082-.255.037-.04-.165.088-.292.3-.439a2.963,2.963,0,0,0,.284-.409c.032-.04.074-.085.12-.133.109-.117.231-.25.213-.343-.013-.064-.1-.1-.322-.173.024-.064.048-.072.223-.12.056-.013.122-.032.2-.056a3.879,3.879,0,0,1,.4-.1c.056-.011.109-.024.157-.037a1.382,1.382,0,0,0,.741-.587,1.52,1.52,0,0,1,.3-.361,5.8,5.8,0,0,0,.688-.744,9.158,9.158,0,0,1,.72-.776c.237-.231.369-.356.3-.415a.185.185,0,0,0-.117-.024,7.524,7.524,0,0,0-1,.144m-6.022.486c.05-.016.109-.035.194-.064s.221-.08.385-.133l.011,0c.12-.037.34-.109.492-.162a1.255,1.255,0,0,0,.5-.311c.106-.12.13-.229.072-.311a15.263,15.263,0,0,0-1.65.983m2.251-1.419a.117.117,0,0,0,.133.021.7.7,0,0,0,.181-.117l.1-.12c.04.173.04.173-.019.218-.338.237-.428.42-.3.563a.626.626,0,0,0,.316.128,2.167,2.167,0,0,1,.361.122c.144.064.2.09.545-.021a2.316,2.316,0,0,0,.67-.316c.08-.181.12-.292.165-.4.12-.314.239-.627-.136-.72a2.727,2.727,0,0,1-.372-.17.315.315,0,0,0-.149-.048c-.5.284-1,.566-1.5.861m16.834-5.664a.94.94,0,0,0-.611.436c-.037.05-.072.1-.106.138-.061.066-.069.106-.035.122a.654.654,0,0,0,.306-.027l.149-.029c.066-.013.114-.029.263-.066a.865.865,0,0,0,.316-.112.274.274,0,0,1,.013-.276c.04-.093.077-.178-.016-.2a.311.311,0,0,0-.077-.008.957.957,0,0,0-.2.027M60.328,42.4c-.792.213-1.584.431-2.365.67-.866.268-1.722.561-2.578.861-.17.061-.343.114-.513.175q-3.062,1.1-5.985,2.469c-.04.053.013.072.1.09l-.417.112c-.1.024-.173.04-.242.053q-1.567.746-3.086,1.563c.024.061.045.136.066.183.077.151.125.245-.005.4-.274.258-.393.436-.353.534.024.066.12.088.284.072.016.037-.027.088-.08.146-.117.245-.159.423.043.492a3.1,3.1,0,0,0,1.193-.167,4.057,4.057,0,0,0,.547-.191.416.416,0,0,0,.242,0,.887.887,0,0,0,.97-.226l.2-.1a2.33,2.33,0,0,1,.287-.136c.072-.016.1.032.085.136-.021.144.231.093.508.021.194-.051.457-.133.787-.231.635-.194,1.5-.452,2.674-.739l.2-.048c.5-.12,1.14-.327,1.563-.462.106-.032.2-.064.279-.088a.228.228,0,0,0,.245.074,3.237,3.237,0,0,0,.816-.066,6.677,6.677,0,0,0,1.132-.4c.154-.066.287-.117.391-.159.412-.165.526-.221.449-.415-.021-.061-.043-.117.021-.178.066-.013.122-.021.181-.029a1.722,1.722,0,0,0,.189-.029.855.855,0,0,0,.407-.194c.162-.144.1-.215.024-.276a.335.335,0,0,0-.284-.029,1.721,1.721,0,0,0-.346.122,1.616,1.616,0,0,1-.2.077c.609-.439.646-.46.667-.476.17-.114.178-.167.186-.21.09-.478-.561-.436-1.27-.377-.082.005-.165.013-.25.019-.021-.058-.136-.043-.2-.024a25.413,25.413,0,0,1-.521.008l-.431.093a6.106,6.106,0,0,0-1,.372c-.114.05-.223.1-.327.141a15.207,15.207,0,0,0-2.472.97,2.1,2.1,0,0,1-.5.221,1.424,1.424,0,0,1-.343.043c-.058,0-.12,0-.186.011a.716.716,0,0,0-.439-.008.874.874,0,0,0-.181.069,3.007,3.007,0,0,1-.508.21.613.613,0,0,1-.55-.061.761.761,0,0,0-.276.162c-.088.082-.13.12-.157.141-.367.194-.292.138-.239.1.194-.138.351-.314.237-.38a1.492,1.492,0,0,0-.651.043c-.369.066-.694.125-.617-.053a.92.92,0,0,1,.13-.045c.074-.021.157-.04.239-.061s.183-.043.279-.069a1.207,1.207,0,0,0,.524-.271c.247-.125.409-.258.391-.311a.131.131,0,0,1,.066-.165.462.462,0,0,1,.133-.05c.085-.027.194-.048.3-.069.074-.016.151-.032.223-.05a1.5,1.5,0,0,0,.577-.072,1.118,1.118,0,0,0,.537-.29.782.782,0,0,0,.258-.013c-.04.082.12.04,1.347-.234.287-.064.633-.141,1.052-.229.05-.011.112-.024.173-.04a.969.969,0,0,0,.242-.09.248.248,0,0,0,.136-.2.213.213,0,0,1,.109-.181.693.693,0,0,1,.151-.058c.061-.013.133-.029.218-.043a.389.389,0,0,0,.377.056,1.372,1.372,0,0,0,.454-.229.538.538,0,0,0,.393.072,1.88,1.88,0,0,0,.441-.218,1.131,1.131,0,0,1,.231-.08c.085-.021.165-.035.252-.048s.183-.032.282-.056a.857.857,0,0,1,.3-.048c.032.013.037.056-.1.186-.112.114-.252.255-.048.268a.6.6,0,0,0,.2-.019,1.838,1.838,0,0,0,.468-.2c.058-.027.112-.056.162-.08s.122-.053.191-.082a1.52,1.52,0,0,0,.473-.25,1.824,1.824,0,0,0,.563-.239,1.605,1.605,0,0,0,.457-.21c.912-.361,1.289-.72,1.074-.981-.032-.04-.088-.08-.215-.051a1.185,1.185,0,0,0-.364.178c-.136.045-.237.082-.3.1l-.032-.133a.545.545,0,0,0,.229-.151c.029-.058-.072-.072-.162-.082a.531.531,0,0,0-.351-.008c.167-.053.412-.122.654-.194.056-.021.117-.035.183-.053a1.419,1.419,0,0,0,.569-.242c-.292.077-.577.167-.866.247m1.385-.367a.34.34,0,0,1,.005.351c-.053.082-.154.136-.175.234-.037.154.154.287.128.444s-.276.231-.274.4a.546.546,0,0,0,.066.183c.088.221-.082.452-.237.635a9.314,9.314,0,0,0-.688.944,1.916,1.916,0,0,0-.369.912c-.016.266.056.566-.1.781s-.468.242-.656.423c-.218.21-.242.54-.446.768a2.265,2.265,0,0,1-.962.617,8.452,8.452,0,0,1-1.209.314,4.543,4.543,0,0,1-.694.074c-.024-.069-.037-.112-.17-.085a2.347,2.347,0,0,0-.229.069c-.128.04-.316.1-.593.181a5.576,5.576,0,0,0-1.951.874,2.508,2.508,0,0,1-.662.343,1.321,1.321,0,0,0-.46.173.3.3,0,0,0-.064.356c-.239.149-.359.226-.359.282s.112.066.178.122a1.077,1.077,0,0,1-.144.024c-.053.011-.112.019-.165.029-.167.04-.266.112-.287.213-.008.04-.021.085-.032.133-.066.255-.138.55.093.606.364.088.221.2.021.369a1.749,1.749,0,0,0-.162.146c-.1.045-.234.117-.223.2a1.185,1.185,0,0,1-.239.056c-.019-.013-.032-.066.114-.29.218-.327.122-.4.021-.473-.122-.09-.258-.189.138-.787.125-.191.263-.383.383-.55.074-.1.141-.2.194-.274a3.273,3.273,0,0,0,.808-.633c.056-.05.109-.1.159-.149.151-.138.258-.234.2-.279s-.154-.024-.428.043c-.388.1-.723.181-1.007.252a5.859,5.859,0,0,0-1.528.468c-.066.053-.069.1-.053.136A9.856,9.856,0,0,0,47.988,51.9a.524.524,0,0,0-.446.388,5.2,5.2,0,0,0-1.108,2,1.733,1.733,0,0,0-.029.521,3.445,3.445,0,0,1-.008.569.977.977,0,0,1,.189.024.351.351,0,0,0,.194-.008c.356.019.449.027.553.035a4.926,4.926,0,0,1,.561.056c-.13.024-.252.045-.367.074-.3.069-.646.189-.7.473-.011.077,0,.213.234.263.035.066.077.146.26.12.013.162.157.239.42.237A.98.98,0,0,0,48.8,56.9a2.756,2.756,0,0,0,.757-.3c.085-.019.117.013.162.072a.227.227,0,0,0,.223.109c-.019.093.088.114.157.122.016.058.074.085.173.069a.841.841,0,0,0,.452,0c.056-.008.112-.024.17-.037s.106-.024.181-.037.274-.048.452-.082l.38-.08c.125-.029.25-.053.375-.077a4.206,4.206,0,0,1,.928-.1.861.861,0,0,1,.372.035,1,1,0,0,0,.454.037,1.224,1.224,0,0,0,.274-.1.99.99,0,0,1,.151-.043c.058-.011.085,0,.17.045a.536.536,0,0,0,.364.1.441.441,0,0,0,.213-.1c.189-.151.064-.25-.024-.319a.094.094,0,0,1-.04-.144c.085.005.178,0,.276,0a1.22,1.22,0,0,1,.428.035c-.274.13-.407.229-.454.335-.069.159.08.3.526.518a3.005,3.005,0,0,1,.258-.266c.109-.1.17-.17.215-.221a1.3,1.3,0,0,1,.428-.308,1.19,1.19,0,0,0,.524-.42c.053-.117.032-.239.093-.42.33-.053.4.117.476.314a.5.5,0,0,0,.55.4c-.2.415.117.46.524.513-.021.141.128.146.221.146.237.005.245.191.218.327-.468.08-.691.12-.816.237a.566.566,0,0,0-.117.433c0,.053,0,.109,0,.159-.011.1-.027.25.221.221a.572.572,0,0,0,.377-.239.369.369,0,0,0,.247-.167,1.141,1.141,0,0,1,.452-.2c.175-.021.311.066.428.279a2.535,2.535,0,0,0,.938.8.477.477,0,0,0,.327.175,2.776,2.776,0,0,0,.133.731,2.645,2.645,0,0,1,.128.813c-.072.037-.183.112-.167.223a.853.853,0,0,0-.465.622.789.789,0,0,1-.1.244c-.061.008-.1.035-1.119,1.015-.072.061-.151.146-.144.229s.109.13.213.162a.235.235,0,0,0,.194.306.268.268,0,0,0,.051.221.211.211,0,0,1,.045.165.642.642,0,0,0-.189-.005,1.943,1.943,0,0,0-.92.486,1.739,1.739,0,0,1-.29.05,3.648,3.648,0,0,1-.819-.035c-.128-.016-.258-.029-.393-.037a2.216,2.216,0,0,0-.266,0,.457.457,0,0,0-.276.117.479.479,0,0,0-.141.346.809.809,0,0,1-.138.266c-.441.316-.643.7-.553,1.047a1.112,1.112,0,0,0,1.273.643,1.181,1.181,0,0,0,.835-.42c.106-.144.2-.221.279-.229a.588.588,0,0,1,.2.048.887.887,0,0,0,.136.045.766.766,0,0,0,.282.048.427.427,0,0,0,.335-.239.307.307,0,0,1,.25-.189c.335-.029.42.292.481.526a1.129,1.129,0,0,0,.266.555.251.251,0,0,0,.266.128l.473.292a.494.494,0,0,0,.1.752.7.7,0,0,1,.181.237.8.8,0,0,0,.173.338.719.719,0,0,1,.167.353.37.37,0,0,0,.367.338.471.471,0,0,0,.314-.173c.162-.173.284-.26.383-.266.122-.005.223.106.353.393.043.1.1.141.252.258a2.809,2.809,0,0,0,1.81.627.3.3,0,0,0,.33.252.591.591,0,0,0,.149-.021c.271-.064.268-.26.268-.5.074-.494-.053-.805-.412-.97a.593.593,0,0,1-.085-.112.6.6,0,0,0-.4-.351.516.516,0,0,0-.391-.415.184.184,0,0,0-.128-.237c-.037-.146-.019-.2.112-.266a.262.262,0,0,1,.194.085c.037.109.082.231.237.266-.035.141.08.2.175.292.045.072.085.141.162.141.489,0,1.018.082,1.223.71a.228.228,0,0,0,.229.133c.056,0,.1-.021.165-.133a.681.681,0,0,1,.162-.359c.234-.33.207-.449.144-.582-.04-.088-.08-.17.061-.446a1.452,1.452,0,0,0,.149-1.169.658.658,0,0,0-.468-.409.742.742,0,0,1,.109-.348c.093-.2.2-.425-.024-.659a1.231,1.231,0,0,0-.76-.484c-.609-.051-.72-.433-.694-.983.008-.141.019-.348-.3-.34-.058,0-.138.008-.165-.109.019-.085.1-.1.221-.128.226-.043.351-.106.393-.2s0-.207-.154-.353c-.032-.032-.069-.1.024-.186a.874.874,0,0,1,.476.146,1.083,1.083,0,0,0,.356.146.7.7,0,0,0,.25.369.507.507,0,0,1,.218.473,1.485,1.485,0,0,0,1.026,1.114c.082.207.165.3.268.3.157-.005.26-.221.343-.388a1.543,1.543,0,0,0,.242-.776c0-.04,0-.085.245-.1a.218.218,0,0,0,.138-.074,3.688,3.688,0,0,0,.526-1.233c.058.005.114.008.154.008a.448.448,0,0,0,.311-.106c.125-.112.144-.3.181-.609a.429.429,0,0,0,.08-.34c-.032-.114-.141-.2-.33-.282a.182.182,0,0,0-.128-.229.285.285,0,0,0-.266-.144,1.133,1.133,0,0,0-.207.037.748.748,0,0,1-.25.032c.112-.486.077-.513-.6-.579a.826.826,0,0,0-.343-.832.862.862,0,0,1-.335-.558c0-.064-.048-.1-.122-.1a.512.512,0,0,0-.133.027,1.489,1.489,0,0,0-.221.09.591.591,0,0,1-.343.074c-.061-.064-.037-.247-.027-.311.008-.082-.12-.167-.5-.377a1.719,1.719,0,0,1-.728-.617c.13-.069.234-.181.364-.252a1.269,1.269,0,0,1,.555-.114q1.168-.06,2.328-.122a2.016,2.016,0,0,1,.819.072.672.672,0,0,1,.457.622.867.867,0,0,0,1.167-.09,3.679,3.679,0,0,0,.664-1.1,1.561,1.561,0,0,1,.893-.888,1.868,1.868,0,0,1,1.09.175,1.611,1.611,0,0,0,1.183.133c-.032.359-.037.784.252,1,.1.077.229.112.327.191.521.42-.125,1.257.348,1.685a.524.524,0,0,0,.229.106,5.489,5.489,0,0,0-.229.691,4.425,4.425,0,0,1-.231.694.492.492,0,0,0,.191.691c.175.093.159.149.072.343a2.329,2.329,0,0,0,.284,2.214,2.493,2.493,0,0,1,.359,1.868c-.061.266-.149.63.13.7.3.074.282.2.245.412a1.485,1.485,0,0,0,.138.922c.428.973.88,1.991,1.286,2.9.029.074.048.112.12.263a.26.26,0,0,1,.043.207c-.133.486.215.691.619.93.064.035.13.074.2.117s.093.056.08.181c-.077.069-.194.178.037.407a2.818,2.818,0,0,0,.821-.125,1.839,1.839,0,0,1,.521-.1.3.3,0,0,1,.306.308,1.1,1.1,0,0,0,.29.63,1.257,1.257,0,0,1,.252.446.446.446,0,0,0,.4.338.478.478,0,0,0,.412-.242c.058.013.12.024.186.037.183.035.377.074.619.106.077.005.21,0,.266-.082a.148.148,0,0,0,.011-.138.707.707,0,0,1,.114-.63,1.026,1.026,0,0,0,.167-.494,1.766,1.766,0,0,1,.231-.946,2.42,2.42,0,0,0,.167-2.256c.683-.128.858-.707,1.013-1.223.021-.074.035-.112.056-.183.452-.308.391-.787.338-1.2-.008-.048-.011-.093-.016-.136a.266.266,0,0,0-.09-.138c.239-.061.361-.141.385-.25.032-.125-.077-.239-.186-.351a.6.6,0,0,1-.144-.191.5.5,0,0,0-.109-.29.374.374,0,0,1-.088-.215c.468.013.723-.058.832-.234.082-.138.066-.338-.048-.667,0-.085,0-.085,0-.183l.186.008.266.016c.112.011.2.021.287.035s.144.024.2.029c.223.019.481-.019.5-.465,0-.029.011-.128.066-.125a.161.161,0,0,1,.1.08.373.373,0,0,0,.26.2c.1.011.181-.048.348-.151a.529.529,0,0,0,.314.138.633.633,0,0,0,.633-.417.309.309,0,0,0,.13-.138.227.227,0,0,1,.128-.125,1.775,1.775,0,0,0,1.273-1.358c.263-.1.234-.327.213-.5a.646.646,0,0,1,0-.237.475.475,0,0,0,.229-.284,2.363,2.363,0,0,1,1.1-.736,2.539,2.539,0,0,1,.34.021.939.939,0,0,0,1.044-.383,5.355,5.355,0,0,0,2.185-.391l.314-.1a1.107,1.107,0,0,1,.175-.05,1.964,1.964,0,0,0,.829-.638,2.993,2.993,0,0,1,.816-.7,3.458,3.458,0,0,0,.369-.268,1.659,1.659,0,0,1,.832-.423.371.371,0,0,0,.271-.468.234.234,0,0,0-.221-.2,1.772,1.772,0,0,0-.268,0c-.125-.016-.239-.024-.351-.035s-.2-.013-.3-.027a1.551,1.551,0,0,1-.68-.223,2.78,2.78,0,0,0-.617-.3c.181-.221.356-.462.537-.7a1.7,1.7,0,0,0,.516.633,1.1,1.1,0,0,0,.643.279,3.1,3.1,0,0,0,.383.016,2.865,2.865,0,0,1,.369.019,1.42,1.42,0,0,0,.319,0c.066-.072.013-.218-.011-.279a3.178,3.178,0,0,1-.223-1.44.517.517,0,0,0-.343-.508,2.5,2.5,0,0,1,.391.032c.295.037.59.074.784-.13.234-.245.165-.383.5-.563a2,2,0,0,1,1.06-.109,7.669,7.669,0,0,0,1.515.125c.9-.1,1.672-.752,2.575-.805.122-.005.247,0,.375,0a2.087,2.087,0,0,0,.68-.048c.524-.154.842-.67,1.27-1.007.744-.6,1.852-.691,2.448-1.432a1.888,1.888,0,0,0,.351-1.456,71.6,71.6,0,0,0-50.361-5.945" transform="translate(-11.373 -39.906)" fill="none"/>
    </clipPath>
    <radialGradient id="radial-gradient-2" cx="0.772" cy="0.105" r="1.017" gradientTransform="matrix(1.014, 0, 0, -1, 0.003, 2.588)" gradientUnits="objectBoundingBox">
      <stop offset="0" stop-color="#5f914e"/>
      <stop offset="1" stop-color="#b1de19"/>
    </radialGradient>
    <clipPath id="clip-path-7">
      <path id="Trazado_627955" data-name="Trazado 627955" d="M139.238,78.683C107.3,97.893,56.817,112.242,26.719,110.666c-12.558-.659-19.614-3.987-21.259-9.034l8.42,25.862c1.645,5.047,8.7,8.374,21.259,9.031,30.1,1.576,80.576-12.77,112.519-31.983,18.62-11.2,26.9-21.615,24.6-28.671l-8.42-25.862c2.3,7.056-5.98,17.474-24.6,28.674" transform="translate(-5.46 -50.009)" fill="none"/>
    </clipPath>
    <linearGradient id="linear-gradient-2" x1="-0.044" y1="1.116" x2="-0.029" y2="1.116" xlink:href="#linear-gradient"/>
    <clipPath id="clip-path-8">
      <path id="Trazado_627956" data-name="Trazado 627956" d="M136.222,46.588c.125.106.239.223.364.332,1.945-.019,3.832.016,5.64.109,29.8,1.563,28.31,18.309-3.311,37.327S57.318,117.58,27.52,116.017C2.131,114.689-.527,102.328,18.8,86.934c.035-.181.061-.364.1-.545C-1.455,102.216.964,115,26.943,116.368c30.1,1.576,80.576-12.773,112.519-31.983s33.445-36.126,3.346-37.7c-1.47-.077-2.993-.112-4.555-.112q-1,0-2.03.019" transform="translate(-5.325 -46.569)" fill="none"/>
    </clipPath>
    <linearGradient id="linear-gradient-3" x1="-0.003" y1="1.548" x2="0.011" y2="1.548" gradientUnits="objectBoundingBox">
      <stop offset="0" stop-color="#c394ff"/>
      <stop offset="1" stop-color="#947bff"/>
    </linearGradient>
    <clipPath id="clip-path-9">
      <path id="Trazado_627957" data-name="Trazado 627957" d="M139.443,79.078C107.5,98.291,57.023,112.637,26.924,111.058c-12.558-.659-19.614-3.984-21.256-9.031l.043.234,7.234,22.216.1.21c1.642,5.047,8.7,8.374,21.254,9.034,30.1,1.579,80.579-12.773,112.522-31.983,18.322-11.021,26.606-21.275,24.679-28.32l-7.386-22.686c1.951,7.046-6.331,17.312-24.674,28.347" transform="translate(-5.668 -50.731)" fill="none"/>
    </clipPath>
    <radialGradient id="radial-gradient-3" cx="0.985" cy="0.219" r="2.014" gradientTransform="matrix(0.504, 0, 0, -1, -0.045, 3.642)" gradientUnits="objectBoundingBox">
      <stop offset="0" stop-color="#fff"/>
      <stop offset="1" stop-color="#cfc7ff"/>
    </radialGradient>
    <clipPath id="clip-path-11">
      <rect id="Rectángulo_328418" data-name="Rectángulo 328418" width="219.086" height="219.086" fill="none"/>
    </clipPath>
    <clipPath id="clip-path-12">
      <path id="Trazado_627973" data-name="Trazado 627973" d="M219.085,109.543A109.543,109.543,0,1,1,109.543,0,109.541,109.541,0,0,1,219.085,109.543" fill="none"/>
    </clipPath>
    <radialGradient id="radial-gradient-4" cx="0.5" cy="0.5" r="0.5" gradientTransform="matrix(1, 0, 0, -1, 0, 2.637)" gradientUnits="objectBoundingBox">
      <stop offset="0" stop-color="#e062ff"/>
      <stop offset="0.005" stop-color="#e062ff"/>
      <stop offset="0.047" stop-color="#be53d9"/>
      <stop offset="0.104" stop-color="#9742ac"/>
      <stop offset="0.167" stop-color="#723282"/>
      <stop offset="0.234" stop-color="#53245f"/>
      <stop offset="0.307" stop-color="#391941"/>
      <stop offset="0.386" stop-color="#240f29"/>
      <stop offset="0.476" stop-color="#140816"/>
      <stop offset="0.582" stop-color="#080309"/>
      <stop offset="0.719" stop-color="#010002"/>
      <stop offset="1"/>
    </radialGradient>
    <clipPath id="clip-path-13">
      <rect id="Rectángulo_328420" data-name="Rectángulo 328420" width="196.538" height="196.538" fill="none"/>
    </clipPath>
    <clipPath id="clip-path-14">
      <path id="Trazado_627974" data-name="Trazado 627974" d="M218.9,125.772A98.269,98.269,0,1,1,120.633,27.5,98.268,98.268,0,0,1,218.9,125.772" transform="translate(-22.364 -27.503)" fill="none"/>
    </clipPath>
    <radialGradient id="radial-gradient-5" r="0.5" gradientTransform="matrix(1, 0, 0, -1, 0, 2.195)" xlink:href="#radial-gradient-4"/>
    <clipPath id="clip-path-15">
      <rect id="Rectángulo_328422" data-name="Rectángulo 328422" width="168.765" height="168.765" fill="none"/>
    </clipPath>
    <clipPath id="clip-path-16">
      <path id="Trazado_627975" data-name="Trazado 627975" d="M177.979,93.043A84.382,84.382,0,1,1,93.6,8.661a84.382,84.382,0,0,1,84.382,84.382" transform="translate(-9.215 -8.661)" fill="none"/>
    </clipPath>
    <radialGradient id="radial-gradient-6" cx="0.5" cy="0.5" r="0.5" gradientTransform="matrix(1, 0, 0, -1, 0, 3.15)" gradientUnits="objectBoundingBox">
      <stop offset="0" stop-color="#ffa962"/>
      <stop offset="0.007" stop-color="#f5a25e"/>
      <stop offset="0.048" stop-color="#c7844c"/>
      <stop offset="0.093" stop-color="#9c673c"/>
      <stop offset="0.142" stop-color="#774e2d"/>
      <stop offset="0.195" stop-color="#563921"/>
      <stop offset="0.254" stop-color="#3b2716"/>
      <stop offset="0.32" stop-color="#25180e"/>
      <stop offset="0.398" stop-color="#140d07"/>
      <stop offset="0.493" stop-color="#080503"/>
      <stop offset="0.627" stop-color="#010100"/>
      <stop offset="1"/>
    </radialGradient>
  </defs>
  <g id="Grupo_878713" data-name="Grupo 878713" clip-path="url(#clip-path)">
    <g id="Grupo_878683" data-name="Grupo 878683" transform="translate(0 0)">
      <g id="Grupo_878682" data-name="Grupo 878682" clip-path="url(#clip-path-2)">
        <g id="Grupo_878681" data-name="Grupo 878681" transform="translate(38.192 221.452)" opacity="0.6" style="mix-blend-mode: multiply;isolation: isolate">
          <g id="Grupo_878680" data-name="Grupo 878680" opacity="0.42">
            <g id="Grupo_878679" data-name="Grupo 878679" clip-path="url(#clip-path-3)">
              <path id="Trazado_627951" data-name="Trazado 627951" d="M113.972,93.191c22.784,13.156,22.784,34.484,0,47.639s-59.727,13.156-82.511,0-22.787-34.484,0-47.639,59.727-13.156,82.511,0" transform="translate(-14.37 -83.324)" fill="#3a0155"/>
            </g>
          </g>
        </g>
      </g>
    </g>
    <g id="Grupo_878685" data-name="Grupo 878685" transform="translate(14.937 124.109)">
      <g id="Grupo_878684" data-name="Grupo 878684" clip-path="url(#clip-path-4)">
        <rect id="Rectángulo_328411" data-name="Rectángulo 328411" width="188.144" height="148.741" transform="translate(-34.851 15.362) rotate(-24.998)" fill="url(#linear-gradient)"/>
      </g>
    </g>
    <g id="Grupo_878687" data-name="Grupo 878687" transform="translate(26.34 106.058)">
      <g id="Grupo_878686" data-name="Grupo 878686" clip-path="url(#clip-path-5)">
        <rect id="Rectángulo_328412" data-name="Rectángulo 328412" width="143.144" height="143.144" transform="translate(0 0)" fill="url(#radial-gradient)"/>
      </g>
    </g>
    <g id="Grupo_878689" data-name="Grupo 878689" transform="translate(30.226 106.058)">
      <g id="Grupo_878688" data-name="Grupo 878688" clip-path="url(#clip-path-6)">
        <rect id="Rectángulo_328413" data-name="Rectángulo 328413" width="139.253" height="141.228" transform="translate(-0.027 0)" fill="url(#radial-gradient-2)"/>
      </g>
    </g>
    <g id="Grupo_878691" data-name="Grupo 878691" transform="translate(14.511 132.909)">
      <g id="Grupo_878690" data-name="Grupo 878690" clip-path="url(#clip-path-7)">
        <rect id="Rectángulo_328414" data-name="Rectángulo 328414" width="182.113" height="181.599" transform="translate(-44.044 43.651) rotate(-44.743)" fill="url(#linear-gradient-2)"/>
      </g>
    </g>
    <g id="Grupo_878693" data-name="Grupo 878693" transform="translate(14.152 123.767)">
      <g id="Grupo_878692" data-name="Grupo 878692" clip-path="url(#clip-path-8)">
        <rect id="Rectángulo_328415" data-name="Rectángulo 328415" width="188.032" height="123.402" transform="matrix(0.947, -0.32, 0.32, 0.947, -28.412, 7.304)" fill="url(#linear-gradient-3)"/>
      </g>
    </g>
    <g id="Grupo_878695" data-name="Grupo 878695" transform="translate(15.064 134.828)">
      <g id="Grupo_878694" data-name="Grupo 878694" clip-path="url(#clip-path-9)">
        <rect id="Rectángulo_328416" data-name="Rectángulo 328416" width="167.762" height="84.568" transform="translate(0 0)" fill="url(#radial-gradient-3)"/>
      </g>
    </g>
    <g id="Grupo_878712" data-name="Grupo 878712" transform="translate(0 0)">
      <g id="Grupo_878711" data-name="Grupo 878711" clip-path="url(#clip-path-2)">
        <path id="Trazado_627958" data-name="Trazado 627958" d="M24.517,78.142c-.38.037-.757.072-1.135.106-1.076.122-1.557.529-1.658,1.4-.09.008-1.831-5.347-1.831-5.347-.05-.128-.125-.322-.377-.308-.3.021-.6.043-.9.061-.189.037-.245.093-.175.348L23.52,89.992c.058.141.128.3.383.292.3-.019.6-.04.9-.061.17-.035.234-.09.17-.332l-2.562-7.864c-.425-1.377-.027-2.137,1.185-2.267q.574-.048,1.148-.1c1.209-.069,1.9.462,2.387,1.834l2.594,7.97a.357.357,0,0,0,.4.282c.314-.035.625-.069.938-.106.178-.043.245-.1.181-.343l-2.615-8.04c-.943-2.759-2.753-3.213-4.1-3.112" transform="translate(30.527 122.653)" fill="#281727"/>
        <path id="Trazado_627959" data-name="Trazado 627959" d="M31.786,86.621c-.284.045-.566.09-.85.133a2.124,2.124,0,0,1-2.554-1.669l-2.163-6.652.173-.245c.76-.112,1.526-.226,2.294-.348.237-.053.287-.136.229-.364l-.276-.85c-.093-.237-.2-.306-.436-.276q-1.152.183-2.294.348l-.311-.17-.643-1.975c-.088-.234-.2-.314-.38-.292-.324.048-.646.093-.967.136-.218.045-.26.13-.2.372l.643,1.975-.141.237c-.391.053-.779.1-1.164.154-.215.043-.26.125-.2.367l.276.848c.112.282.247.276.4.274.388-.051.776-.1,1.164-.154l.276.181,2.19,6.721a3.81,3.81,0,0,0,4.359,2.889c.348-.053.7-.109,1.044-.165.226-.05.284-.138.234-.348l-.276-.848c-.106-.263-.245-.3-.436-.276" transform="translate(37.338 123.096)" fill="#281727"/>
        <path id="Trazado_627960" data-name="Trazado 627960" d="M34.826,86.018c-.292.058-.585.114-.877.17a2.062,2.062,0,0,1-2.6-1.587l-2.166-6.652.167-.252q1.188-.219,2.387-.454c.231-.061.29-.154.234-.377l-.276-.85a.349.349,0,0,0-.444-.26c-.8.157-1.595.308-2.387.454l-.3-.165-.643-1.975c-.09-.231-.2-.308-.409-.274-.335.058-.667.12-1,.178-.21.053-.255.144-.191.383l.643,1.975-.165.25-1.209.207c-.223.053-.271.138-.207.383l.276.848a.34.34,0,0,0,.415.26c.4-.069.805-.138,1.209-.21l.3.167,2.19,6.724a3.718,3.718,0,0,0,4.454,2.74c.359-.069.718-.138,1.076-.21.231-.061.292-.151.242-.361l-.274-.85a.353.353,0,0,0-.446-.26" transform="translate(42.035 122.317)" fill="#281727"/>
        <path id="Trazado_627961" data-name="Trazado 627961" d="M38.521,76.556c-.957-2.78-2.931-2.969-4.42-2.634q-.69.159-1.379.316c-1.217.308-1.778.816-1.932,1.751-.085.019-.377-.882-.377-.882-.082-.2-.17-.3-.431-.26-.343.074-.683.149-1.026.221-.149.048-.3.1-.215.4l4.72,14.5c.1.237.191.3.431.26.343-.072.683-.143,1.026-.218.133-.045.3-.1.215-.4l-1.387-4.263a2.825,2.825,0,0,0,2.812.675q.69-.155,1.379-.319c2.113-.534,2.87-1.991,2.193-4.207Zm-1.393,7.75q-.674.155-1.342.308a2.225,2.225,0,0,1-2.82-1.658l-1.488-4.574A1.791,1.791,0,0,1,32.916,75.8q.67-.152,1.342-.308a2.01,2.01,0,0,1,2.623,1.544l1.563,4.8c.407,1.4.027,2.113-1.316,2.474" transform="translate(47.602 122.336)" fill="#281727"/>
        <path id="Trazado_627962" data-name="Trazado 627962" d="M35.47,76.3c-.4.106-.792.21-1.185.311a.258.258,0,0,0-.2.372l.9,2.772c.085.239.2.316.409.268.4-.1.789-.2,1.185-.311.213-.064.274-.178.213-.4l-.914-2.807a.3.3,0,0,0-.409-.21" transform="translate(56.468 126.452)" fill="#281727"/>
        <path id="Trazado_627963" data-name="Trazado 627963" d="M34.857,73.378a.307.307,0,0,0-.415-.229l-1.185.311c-.2.061-.255.178-.189.407l.9,2.753c.082.231.21.314.409.271l1.185-.311c.21-.066.271-.189.207-.415Z" transform="translate(54.772 121.232)" fill="#281727"/>
        <path id="Trazado_627964" data-name="Trazado 627964" d="M37.931,70.977c-.327.1-.654.2-.981.295-.314.138-.316.237-.351.989-.7,15.372-.558,15.4-.4,15.431a.56.56,0,0,0,.21-.019l.962-.271c.244-.085.319-.186.343-.476.6-16.061.6-16.061.213-15.949" transform="translate(59.795 117.632)" fill="#281727"/>
        <path id="Trazado_627965" data-name="Trazado 627965" d="M41.426,69.847l-.973.332a.514.514,0,0,0-.338.5c-.712,16.079-.566,16.1-.4,16.13a.6.6,0,0,0,.215-.029c.316-.1.63-.2.943-.3a.465.465,0,0,0,.343-.492c.59-16.262.59-16.262.2-16.138" transform="translate(65.613 115.754)" fill="#281727"/>
        <path id="Trazado_627966" data-name="Trazado 627966" d="M55.72,68.679c-.377.157-.755.314-1.132.468a.415.415,0,0,0-.26.481q.446,5.151.888,10.3l-.136.056c-5.509-8.816-5.509-8.816-5.85-8.707l-1.039.4a.4.4,0,0,0-.25.462q.367,5.155.723,10.3c-.045.019-.09.035-.136.05-5.478-8.893-5.478-8.893-5.775-8.81-.391.138-.781.279-1.175.415-.2.1-.229.186-.117.409C48.2,84.875,48.2,84.875,48.518,84.769q.7-.255,1.39-.513a.4.4,0,0,0,.292-.46c-.431-5.342-.431-5.342-.811-10.022,5.475,8.576,5.475,8.576,5.759,8.475l1.4-.558a.407.407,0,0,0,.268-.46c-.781-12.675-.781-12.675-1.095-12.552" transform="translate(68.623 113.815)" fill="#281727"/>
        <path id="Trazado_627967" data-name="Trazado 627967" d="M60.7,66.16q-.53.267-1.063.529a.431.431,0,0,0-.215.489q.518,5.21,1.026,10.418c-5.467-8.661-5.467-8.661-5.786-8.523s-.651.3-.975.449a.4.4,0,0,0-.231.484q.427,5.21.84,10.426c-.043.019-.088.037-.13.058-5.342-8.784-5.342-8.784-5.629-8.685l-1.138.486c-.173.1-.215.175-.106.42,6.618,10.2,6.618,10.2,6.9,10.086l1.334-.59a.449.449,0,0,0,.271-.478c-.5-5.408-.5-5.408-.954-10.128,5.345,8.451,5.345,8.451,5.605,8.337q.646-.307,1.289-.617a.446.446,0,0,0,.258-.486C61,66.017,61,66.017,60.7,66.16" transform="translate(78.301 109.631)" fill="#281727"/>
        <path id="Trazado_627968" data-name="Trazado 627968" d="M64.816,63.41c-.3.186-.609.372-.914.561-.1.077-.215.167-.181.5q.638,5.25,1.26,10.5c-5.217-8.566-5.217-8.566-5.509-8.412s-.585.327-.88.489a.452.452,0,0,0-.21.508q.538,5.254,1.063,10.514l-.117.064c-5.156-8.672-5.156-8.672-5.43-8.566-.343.178-.686.353-1.029.529-.175.12-.2.221-.09.431,6.381,10.062,6.381,10.062,6.628,9.942.4-.213.8-.428,1.2-.64a.457.457,0,0,0,.237-.494c-.5-4.561-.641-5.836-1.137-10.224,5.1,8.351,5.1,8.351,5.347,8.231q.574-.335,1.145-.67a.464.464,0,0,0,.215-.5C65.1,63.245,65.1,63.245,64.816,63.41" transform="translate(87.385 105.062)" fill="#281727"/>
        <path id="Trazado_627969" data-name="Trazado 627969" d="M61.157,68.893l-.914-2.807c-.043-.122-.122-.271-.308-.157-.287.189-.579.375-.874.563a.346.346,0,0,0-.122.433l.914,2.807c.072.21.167.26.319.173.3-.186.587-.375.874-.563.144-.1.175-.234.112-.449" transform="translate(97.657 109.224)" fill="#281727"/>
        <path id="Trazado_627970" data-name="Trazado 627970" d="M74.867,84.729,69.5,83.4,78.08,99.782l5.363,1.329Z" transform="translate(115.216 138.257)" fill="#038a7b"/>
        <path id="Trazado_627971" data-name="Trazado 627971" d="M59.87,61.084,72.76,130.1l5.363,1.329L65.233,62.411Z" transform="translate(99.246 101.26)" fill="#038a7b"/>
        <path id="Trazado_627972" data-name="Trazado 627972" d="M61.888,61.584l46.175,43.624-12.7,9.7,8.576,16.366-7.869,6.006L87.489,120.9l-12.712,9.7Z" transform="translate(102.592 102.087)" fill="#fdfcff"/>
        <g id="Grupo_878700" data-name="Grupo 878700" style="mix-blend-mode: screen;isolation: isolate">
          <g id="Grupo_878699" data-name="Grupo 878699">
            <g id="Grupo_878698" data-name="Grupo 878698" clip-path="url(#clip-path-11)">
              <g id="Grupo_878697" data-name="Grupo 878697" transform="translate(0 0)">
                <g id="Grupo_878696" data-name="Grupo 878696" clip-path="url(#clip-path-12)">
                  <rect id="Rectángulo_328417" data-name="Rectángulo 328417" width="219.085" height="219.085" transform="translate(0 0)" fill="url(#radial-gradient-4)"/>
                </g>
              </g>
            </g>
          </g>
        </g>
        <g id="Grupo_878705" data-name="Grupo 878705" transform="translate(58.3 58.239)" style="mix-blend-mode: screen;isolation: isolate">
          <g id="Grupo_878704" data-name="Grupo 878704" transform="translate(0)">
            <g id="Grupo_878703" data-name="Grupo 878703" clip-path="url(#clip-path-13)">
              <g id="Grupo_878702" data-name="Grupo 878702" transform="translate(0 0.001)">
                <g id="Grupo_878701" data-name="Grupo 878701" clip-path="url(#clip-path-14)">
                  <rect id="Rectángulo_328419" data-name="Rectángulo 328419" width="196.537" height="196.537" transform="translate(0 0)" fill="url(#radial-gradient-5)"/>
                </g>
              </g>
            </g>
          </g>
        </g>
        <g id="Grupo_878710" data-name="Grupo 878710" transform="translate(24.489 23.018)" style="mix-blend-mode: color-dodge;isolation: isolate">
          <g id="Grupo_878709" data-name="Grupo 878709">
            <g id="Grupo_878708" data-name="Grupo 878708" clip-path="url(#clip-path-15)">
              <g id="Grupo_878707" data-name="Grupo 878707" transform="translate(0.001 0)">
                <g id="Grupo_878706" data-name="Grupo 878706" clip-path="url(#clip-path-16)">
                  <path id="Trazado_628032" data-name="Trazado 628032" d="M0,0H168.764V168.764H0Z" transform="translate(0 0)" opacity="0.79" fill="url(#radial-gradient-6)"/>
                </g>
              </g>
            </g>
          </g>
        </g>
      </g>
    </g>
  </g>
</svg>
