<svg id="Grupo_1034295" data-name="Grupo 1034295" xmlns="http://www.w3.org/2000/svg" xmlns:xlink="http://www.w3.org/1999/xlink" width="124.953" height="149.898" viewBox="0 0 124.953 149.898">
  <defs>
    <clipPath id="clip-path">
      <rect id="Rectángulo_328463" data-name="Rectángulo 328463" width="124.953" height="149.898" fill="none"/>
    </clipPath>
    <clipPath id="clip-path-2">
      <rect id="Rectángulo_328457" data-name="Rectángulo 328457" width="124.952" height="149.898" fill="none"/>
    </clipPath>
    <clipPath id="clip-path-3">
      <rect id="Rectángulo_328445" data-name="Rectángulo 328445" width="71.277" height="63.599" fill="none"/>
    </clipPath>
    <clipPath id="clip-path-4">
      <path id="Trazado_628002" data-name="Trazado 628002" d="M67.429.278A2.91,2.91,0,0,0,64.5.565L6.934,33.8a9.046,9.046,0,0,0-4.107,7.112l5.455,3.17a9.046,9.046,0,0,1,4.107-7.112L69.951,3.735a2.91,2.91,0,0,1,2.933-.287Z" transform="translate(-2.827 0)" fill="#b6e1fd"/>
    </clipPath>
    <clipPath id="clip-path-5">
      <rect id="Rectángulo_328443" data-name="Rectángulo 328443" width="8.387" height="3.735" fill="none"/>
    </clipPath>
    <clipPath id="clip-path-6">
      <rect id="Rectángulo_328444" data-name="Rectángulo 328444" width="9.562" height="10.283" fill="none"/>
    </clipPath>
    <clipPath id="clip-path-7">
      <rect id="Rectángulo_328447" data-name="Rectángulo 328447" width="61.682" height="40.346" fill="none"/>
    </clipPath>
    <clipPath id="clip-path-8">
      <path id="Trazado_628006" data-name="Trazado 628006" d="M10.915,34.895A9.44,9.44,0,0,0,6.78,39.671,8.992,8.992,0,0,0,6.352,41.3a5.749,5.749,0,0,0-.074,1.046c.008.241.013.369.013.369a6.822,6.822,0,0,1,.254-1.374A7.452,7.452,0,0,1,7.332,39.5a11.451,11.451,0,0,1,4.089-4.023C16.381,32.5,67.96,2.368,67.96,2.368S16.1,31.811,10.915,34.895" transform="translate(-6.278 -2.368)" fill="none"/>
    </clipPath>
    <radialGradient id="radial-gradient" cx="0.295" cy="0.505" r="2.079" gradientTransform="matrix(0.654, 0, 0, -1, -0.056, 7.245)" gradientUnits="objectBoundingBox">
      <stop offset="0" stop-color="#ffaff5"/>
      <stop offset="0.019" stop-color="#f9abef"/>
      <stop offset="0.389" stop-color="#90628a"/>
      <stop offset="0.686" stop-color="#422d3f"/>
      <stop offset="0.896" stop-color="#120c11"/>
      <stop offset="1"/>
    </radialGradient>
    <clipPath id="clip-path-9">
      <rect id="Rectángulo_328449" data-name="Rectángulo 328449" width="27.87" height="27.87" fill="none"/>
    </clipPath>
    <clipPath id="clip-path-10">
      <path id="Trazado_628007" data-name="Trazado 628007" d="M23.788,18.895a13.935,13.935,0,1,1-19.707,0,13.934,13.934,0,0,1,19.707,0" transform="translate(0 -14.813)" fill="none"/>
    </clipPath>
    <radialGradient id="radial-gradient-2" cx="0.5" cy="0.5" r="0.322" gradientTransform="matrix(1, 0, 0, -1, 0, 6.205)" gradientUnits="objectBoundingBox">
      <stop offset="0" stop-color="#ffa962"/>
      <stop offset="0.005" stop-color="#f5a25e"/>
      <stop offset="0.035" stop-color="#c7844c"/>
      <stop offset="0.069" stop-color="#9c673c"/>
      <stop offset="0.105" stop-color="#774e2d"/>
      <stop offset="0.144" stop-color="#563921"/>
      <stop offset="0.188" stop-color="#3b2716"/>
      <stop offset="0.237" stop-color="#25180e"/>
      <stop offset="0.294" stop-color="#140d07"/>
      <stop offset="0.364" stop-color="#080503"/>
      <stop offset="0.464" stop-color="#010100"/>
      <stop offset="0.739"/>
      <stop offset="1"/>
    </radialGradient>
    <clipPath id="clip-path-11">
      <rect id="Rectángulo_328450" data-name="Rectángulo 328450" width="12.68" height="20.001" fill="none"/>
    </clipPath>
    <clipPath id="clip-path-12">
      <rect id="Rectángulo_328451" data-name="Rectángulo 328451" width="12.68" height="20.001" fill="#b0c0d2"/>
    </clipPath>
    <clipPath id="clip-path-18">
      <path id="Trazado_628022" data-name="Trazado 628022" d="M60.562,35.639C45.229,44.491,32.846,65.947,32.9,83.565c.024,8.751,3.113,14.909,8.095,17.8l6.031,3.5L86.341,37.208l-6.029-3.5a14.345,14.345,0,0,0-7.3-1.874,25.288,25.288,0,0,0-12.454,3.807" transform="translate(-32.896 -31.832)" fill="none"/>
    </clipPath>
    <linearGradient id="linear-gradient" x1="-0.373" y1="1.264" x2="-0.355" y2="1.264" gradientUnits="objectBoundingBox">
      <stop offset="0" stop-color="#d2e1f1"/>
      <stop offset="0.072" stop-color="#b0c0d2"/>
      <stop offset="0.326" stop-color="#b4e6ff"/>
      <stop offset="0.627" stop-color="#b6e1fd"/>
      <stop offset="0.804" stop-color="#0082ff"/>
      <stop offset="1" stop-color="#0082ff"/>
    </linearGradient>
    <clipPath id="clip-path-20">
      <rect id="Rectángulo_328460" data-name="Rectángulo 328460" width="45.343" height="51.83" fill="none"/>
    </clipPath>
    <clipPath id="clip-path-21">
      <path id="Trazado_628025" data-name="Trazado 628025" d="M38.114,74.028a46.006,46.006,0,0,0-1.4,11.795A53.161,53.161,0,0,1,38.577,74.15c4.648-18.526,25.19-44.662,43.484-39.163-17.4-6.28-39.309,18.44-43.948,39.041" transform="translate(-36.718 -33.993)" fill="none"/>
    </clipPath>
    <radialGradient id="radial-gradient-3" cx="0.282" cy="0.412" r="1.094" gradientTransform="matrix(1.26, 0, 0, -1, 0.332, 3.557)" xlink:href="#radial-gradient"/>
    <clipPath id="clip-path-22">
      <rect id="Rectángulo_328461" data-name="Rectángulo 328461" width="101.823" height="94.361" fill="none"/>
    </clipPath>
    <clipPath id="clip-path-23">
      <path id="Trazado_628031" data-name="Trazado 628031" d="M81.848,13.536c26.636-5,40.943,11.672,31.957,37.239s-37.862,50.349-64.5,55.351S8.365,94.454,17.351,68.887s37.862-50.349,64.5-55.351" transform="translate(-14.667 -12.65)" fill="none"/>
    </clipPath>
    <radialGradient id="radial-gradient-4" cx="0.5" cy="0.5" r="0.301" gradientTransform="matrix(-0.151, -0.981, -0.77, 0.192, 0.941, 0.955)" gradientUnits="objectBoundingBox">
      <stop offset="0" stop-color="#ffec3d"/>
      <stop offset="0.217" stop-color="#e53dff"/>
      <stop offset="0.243" stop-color="#cc36e3"/>
      <stop offset="0.293" stop-color="#a12bb4"/>
      <stop offset="0.348" stop-color="#7b2089"/>
      <stop offset="0.407" stop-color="#591764"/>
      <stop offset="0.469" stop-color="#3d1044"/>
      <stop offset="0.536" stop-color="#270a2b"/>
      <stop offset="0.611" stop-color="#150518"/>
      <stop offset="0.697" stop-color="#09020a"/>
      <stop offset="0.805" stop-color="#020002"/>
      <stop offset="1"/>
    </radialGradient>
  </defs>
  <g id="Enmascarar_grupo_878815" data-name="Enmascarar grupo 878815" clip-path="url(#clip-path)">
    <g id="Grupo_878800" data-name="Grupo 878800" transform="translate(0 0)">
      <g id="Grupo_878799" data-name="Grupo 878799" clip-path="url(#clip-path-2)">
        <g id="Grupo_878767" data-name="Grupo 878767" transform="translate(4.458 0)" style="isolation: isolate">
          <g id="Grupo_878766" data-name="Grupo 878766">
            <g id="Grupo_878765" data-name="Grupo 878765" clip-path="url(#clip-path-3)">
              <path id="Trazado_628001" data-name="Trazado 628001" d="M8.282,29.112l-5.455-3.17L2.84,43.764,8.295,45.6Z" transform="translate(-2.827 14.97)" fill="#b4e6ff"/>
              <g id="Grupo_878758" data-name="Grupo 878758" transform="translate(0 0)">
                <g id="Grupo_878757" data-name="Grupo 878757" clip-path="url(#clip-path-4)">
                  <rect id="Rectángulo_328442" data-name="Rectángulo 328442" width="73.345" height="82.798" transform="translate(-19.164 33.022) rotate(-60)" fill="#b6e1fd"/>
                </g>
              </g>
              <g id="Grupo_878761" data-name="Grupo 878761" transform="translate(61.669)" opacity="0.3" style="mix-blend-mode: screen;isolation: isolate">
                <g id="Grupo_878760" data-name="Grupo 878760" transform="translate(0)">
                  <g id="Grupo_878759" data-name="Grupo 878759" clip-path="url(#clip-path-5)">
                    <path id="Trazado_628003" data-name="Trazado 628003" d="M44.864.278a2.91,2.91,0,0,0-2.933.287l5.455,3.17a2.91,2.91,0,0,1,2.933-.287Z" transform="translate(-41.931 0)" fill="#ffaff5"/>
                  </g>
                </g>
              </g>
              <g id="Grupo_878764" data-name="Grupo 878764" transform="translate(0 33.799)" opacity="0.3" style="mix-blend-mode: screen;isolation: isolate">
                <g id="Grupo_878763" data-name="Grupo 878763">
                  <g id="Grupo_878762" data-name="Grupo 878762" clip-path="url(#clip-path-6)">
                    <path id="Trazado_628004" data-name="Trazado 628004" d="M6.934,21.432a9.049,9.049,0,0,0-4.107,7.112l5.455,3.17A9.049,9.049,0,0,1,12.389,24.6Z" transform="translate(-2.827 -21.432)" fill="#ffaff5"/>
                  </g>
                </g>
              </g>
              <path id="Trazado_628005" data-name="Trazado 628005" d="M72.088,4.931c-.008-2.619-1.861-3.668-4.133-2.356L10.393,35.809a9.042,9.042,0,0,0-4.107,7.112L6.3,62.438l65.809-32.2Z" transform="translate(-0.831 1.16)" fill="#2b95f9"/>
            </g>
          </g>
        </g>
        <g id="Grupo_878772" data-name="Grupo 878772" transform="translate(9.9 3.735)" style="mix-blend-mode: screen;isolation: isolate">
          <g id="Grupo_878771" data-name="Grupo 878771">
            <g id="Grupo_878770" data-name="Grupo 878770" clip-path="url(#clip-path-7)">
              <g id="Grupo_878769" data-name="Grupo 878769" transform="translate(0 -0.001)">
                <g id="Grupo_878768" data-name="Grupo 878768" clip-path="url(#clip-path-8)">
                  <rect id="Rectángulo_328446" data-name="Rectángulo 328446" width="61.685" height="40.347" transform="translate(-0.002 0)" fill="url(#radial-gradient)"/>
                </g>
              </g>
            </g>
          </g>
        </g>
        <g id="Grupo_878777" data-name="Grupo 878777" transform="translate(0 23.36)" style="mix-blend-mode: color-dodge;isolation: isolate">
          <g id="Grupo_878776" data-name="Grupo 878776">
            <g id="Grupo_878775" data-name="Grupo 878775" clip-path="url(#clip-path-9)">
              <g id="Grupo_878774" data-name="Grupo 878774" transform="translate(0 0)">
                <g id="Grupo_878773" data-name="Grupo 878773" clip-path="url(#clip-path-10)">
                  <rect id="Rectángulo_328448" data-name="Rectángulo 328448" width="43.263" height="43.263" transform="translate(-16.656 13.935) rotate(-45)" fill="url(#radial-gradient-2)"/>
                </g>
              </g>
            </g>
          </g>
        </g>
        <path id="Trazado_628008" data-name="Trazado 628008" d="M8.344,96.451l2.123-57.207L2.827,34.812l.062,58.469a2.876,2.876,0,0,0,1.2,2.635l5.455,3.17a2.874,2.874,0,0,1-1.2-2.635" transform="translate(1.631 20.088)" fill="#b0c0d2"/>
        <path id="Trazado_628009" data-name="Trazado 628009" d="M6.344,109.186c.008,2.612,1.859,3.66,4.133,2.348L68.04,78.3a9.043,9.043,0,0,0,4.107-7.106l-.052-58.452L6.292,50.736Z" transform="translate(3.631 7.353)" fill="#fff"/>
        <path id="Trazado_628010" data-name="Trazado 628010" d="M21.539,46,8.86,53.318V40.639l12.679-7.321Z" transform="translate(5.113 19.226)" fill="#d2e1f1"/>
        <g id="Grupo_878780" data-name="Grupo 878780" transform="translate(13.972 67.657)" opacity="0.4">
          <g id="Grupo_878779" data-name="Grupo 878779">
            <g id="Grupo_878778" data-name="Grupo 878778" clip-path="url(#clip-path-11)">
              <path id="Trazado_628011" data-name="Trazado 628011" d="M21.539,55.581,8.86,62.9V50.222L21.539,42.9Z" transform="translate(-8.859 -42.901)" fill="#bfacbf"/>
            </g>
          </g>
        </g>
        <path id="Trazado_628012" data-name="Trazado 628012" d="M21.539,65.165,8.86,72.485V59.806l12.679-7.321Z" transform="translate(5.113 30.286)" fill="#d2e1f1"/>
        <g id="Grupo_878783" data-name="Grupo 878783" transform="translate(29.117 43.799)" opacity="0.7">
          <g id="Grupo_878782" data-name="Grupo 878782">
            <g id="Grupo_878781" data-name="Grupo 878781" clip-path="url(#clip-path-12)">
              <path id="Trazado_628013" data-name="Trazado 628013" d="M31.143,40.453,18.463,47.774V35.094l12.679-7.321Z" transform="translate(-18.463 -27.773)" fill="#b0c0d2"/>
            </g>
          </g>
        </g>
        <path id="Trazado_628014" data-name="Trazado 628014" d="M31.143,50.037,18.463,57.357V44.678l12.679-7.321Z" transform="translate(10.654 21.557)" fill="#bfacbf"/>
        <g id="Grupo_878786" data-name="Grupo 878786" transform="translate(29.117 74.027)" opacity="0.4">
          <g id="Grupo_878785" data-name="Grupo 878785">
            <g id="Grupo_878784" data-name="Grupo 878784" clip-path="url(#clip-path-11)">
              <path id="Trazado_628015" data-name="Trazado 628015" d="M31.143,59.62,18.463,66.941V54.262l12.679-7.321Z" transform="translate(-18.463 -46.94)" fill="#bfacbf"/>
            </g>
          </g>
        </g>
        <g id="Grupo_878789" data-name="Grupo 878789" transform="translate(44.262 35.056)" opacity="0.4">
          <g id="Grupo_878788" data-name="Grupo 878788">
            <g id="Grupo_878787" data-name="Grupo 878787" clip-path="url(#clip-path-11)">
              <path id="Trazado_628016" data-name="Trazado 628016" d="M40.746,34.909,28.067,42.229V29.55l12.679-7.321Z" transform="translate(-28.066 -22.229)" fill="#bfacbf"/>
            </g>
          </g>
        </g>
        <path id="Trazado_628017" data-name="Trazado 628017" d="M40.746,44.492,28.067,51.813V39.133l12.679-7.321Z" transform="translate(16.196 18.357)" fill="#bfacbf"/>
        <g id="Grupo_878792" data-name="Grupo 878792" transform="translate(44.262 65.283)" opacity="0.7">
          <g id="Grupo_878791" data-name="Grupo 878791">
            <g id="Grupo_878790" data-name="Grupo 878790" clip-path="url(#clip-path-11)">
              <path id="Trazado_628018" data-name="Trazado 628018" d="M40.746,54.076,28.067,61.4V48.717L40.746,41.4Z" transform="translate(-28.066 -41.396)" fill="#bfacbf"/>
            </g>
          </g>
        </g>
        <g id="Grupo_878795" data-name="Grupo 878795" transform="translate(59.406 26.312)" opacity="0.4">
          <g id="Grupo_878794" data-name="Grupo 878794">
            <g id="Grupo_878793" data-name="Grupo 878793" clip-path="url(#clip-path-11)">
              <path id="Trazado_628019" data-name="Trazado 628019" d="M50.349,29.364,37.67,36.685V24.005l12.679-7.321Z" transform="translate(-37.669 -16.684)" fill="#bfacbf"/>
            </g>
          </g>
        </g>
        <path id="Trazado_628020" data-name="Trazado 628020" d="M50.349,38.948,37.67,46.268V33.589l12.679-7.321Z" transform="translate(21.737 15.158)" fill="#bfacbf"/>
        <g id="Grupo_878798" data-name="Grupo 878798" transform="translate(59.406 56.539)" opacity="0.4">
          <g id="Grupo_878797" data-name="Grupo 878797">
            <g id="Grupo_878796" data-name="Grupo 878796" clip-path="url(#clip-path-11)">
              <path id="Trazado_628021" data-name="Trazado 628021" d="M50.349,48.531,37.67,55.852V43.173l12.679-7.321Z" transform="translate(-37.669 -35.851)" fill="#bfacbf"/>
            </g>
          </g>
        </g>
      </g>
    </g>
    <g id="Grupo_878802" data-name="Grupo 878802" transform="translate(51.878 50.2)">
      <g id="Grupo_878801" data-name="Grupo 878801" clip-path="url(#clip-path-18)">
        <rect id="Rectángulo_328458" data-name="Rectángulo 328458" width="90.004" height="82.849" transform="translate(-31.679 54.782) rotate(-60)" fill="url(#linear-gradient)"/>
      </g>
    </g>
    <g id="Grupo_878814" data-name="Grupo 878814" transform="translate(0 0)">
      <g id="Grupo_878813" data-name="Grupo 878813" clip-path="url(#clip-path-2)">
        <path id="Trazado_628023" data-name="Trazado 628023" d="M64.385,37.86c6.706-3.872,12.864-4.69,17.676-2.91,6.185,2.29,10.142,8.874,10.172,18.786.049,17.614-12.34,39.071-27.668,47.92s-27.8,1.744-27.846-15.87S49.052,46.714,64.385,37.86" transform="translate(21.188 19.65)" fill="#b6e1fd"/>
        <path id="Trazado_628024" data-name="Trazado 628024" d="M63.287,39.727c6.042-3.488,11.59-4.225,15.925-2.621,5.572,2.063,9.137,7.994,9.163,16.923C88.419,69.9,77.26,89.227,63.45,97.2S38.408,98.771,38.362,82.9,49.474,47.7,63.287,39.727" transform="translate(22.137 20.945)" fill="#fff"/>
        <g id="Grupo_878807" data-name="Grupo 878807" transform="translate(57.906 53.607)" style="mix-blend-mode: screen;isolation: isolate">
          <g id="Grupo_878806" data-name="Grupo 878806">
            <g id="Grupo_878805" data-name="Grupo 878805" clip-path="url(#clip-path-20)">
              <g id="Grupo_878804" data-name="Grupo 878804" transform="translate(0 0)">
                <g id="Grupo_878803" data-name="Grupo 878803" clip-path="url(#clip-path-21)">
                  <rect id="Rectángulo_328459" data-name="Rectángulo 328459" width="45.343" height="57.116" transform="translate(0 -5.285)" fill="url(#radial-gradient-3)"/>
                </g>
              </g>
            </g>
          </g>
        </g>
        <path id="Trazado_628026" data-name="Trazado 628026" d="M57.163,73.223,56.115,56.642l-2.252,1.3-1.05,17.794,2.176,1.806Z" transform="translate(30.475 32.684)" fill="#2b95f9"/>
        <path id="Trazado_628027" data-name="Trazado 628027" d="M66.062,39.749,54.313,67.292l.754.008L67.423,40.437l.285-2.5Z" transform="translate(31.341 21.89)" fill="#2b95f9"/>
        <path id="Trazado_628028" data-name="Trazado 628028" d="M41.632,53.874l-.166.631,19.928,4.354.336-.645Z" transform="translate(23.928 31.087)" fill="#eb6f2d"/>
        <path id="Trazado_628029" data-name="Trazado 628029" d="M55.154,54.945a1.953,1.953,0,0,1,1.642-.27,1.7,1.7,0,0,1,.945,1.744,5.666,5.666,0,0,1-2.569,4.45c-1.424.822-2.582.162-2.586-1.475a5.661,5.661,0,0,1,2.569-4.45" transform="translate(30.344 31.502)" fill="#b6e1fd"/>
        <g id="Grupo_878812" data-name="Grupo 878812" transform="translate(17.482 18.95)" style="mix-blend-mode: screen;isolation: isolate">
          <g id="Grupo_878811" data-name="Grupo 878811">
            <g id="Grupo_878810" data-name="Grupo 878810" clip-path="url(#clip-path-22)">
              <g id="Grupo_878809" data-name="Grupo 878809" transform="translate(0 -0.001)">
                <g id="Grupo_878808" data-name="Grupo 878808" clip-path="url(#clip-path-23)">
                  <path id="Trazado_628030" data-name="Trazado 628030" d="M-18.936,153.955,27.756,21.111,188.873-9.142,142.181,123.7Z" transform="translate(-34.057 -25.225)" fill="url(#radial-gradient-4)"/>
                </g>
              </g>
            </g>
          </g>
        </g>
      </g>
    </g>
  </g>
</svg>
