<svg id="Grupo_877549" data-name="Grupo 877549" xmlns="http://www.w3.org/2000/svg" xmlns:xlink="http://www.w3.org/1999/xlink" width="313.428" height="288.595" viewBox="0 0 313.428 288.595">
  <defs>
    <clipPath id="clip-path">
      <rect id="Rectángulo_327562" data-name="Rectángulo 327562" width="313.428" height="288.595" fill="none"/>
    </clipPath>
    <clipPath id="clip-path-6">
      <rect id="Rectángulo_327558" data-name="Rectángulo 327558" width="1.892" height="1.918" fill="none"/>
    </clipPath>
    <clipPath id="clip-path-7">
      <rect id="Rectángulo_327559" data-name="Rectángulo 327559" width="16.504" height="9.972" fill="none"/>
    </clipPath>
    <clipPath id="clip-path-8">
      <rect id="Rectángulo_327560" data-name="Rectángulo 327560" width="26.346" height="21.148" fill="none"/>
    </clipPath>
  </defs>
  <g id="Grupo_877548" data-name="Grupo 877548" clip-path="url(#clip-path)">
    <g id="Grupo_877532" data-name="Grupo 877532">
      <g id="Grupo_877531" data-name="Grupo 877531" clip-path="url(#clip-path)">
        <path id="Trazado_624019" data-name="Trazado 624019" d="M37.838,321.109a22.5,22.5,0,0,0-9.623-3.312,6.414,6.414,0,0,0-4.552.837.937.937,0,0,0-.469.832,1.01,1.01,0,0,0,.445.568,13.757,13.757,0,0,0,14.2,1.076" transform="translate(-7.687 -105.336)" fill="#e0e0e0"/>
        <path id="Trazado_624020" data-name="Trazado 624020" d="M39.664,314.9a46.963,46.963,0,0,1-6.215-5.468,15.728,15.728,0,0,1-3.9-7.207,2.907,2.907,0,0,1,.308-2.411c4.954,3.869,8.846,8.873,9.8,15.086" transform="translate(-9.759 -99.397)" fill="#e0e0e0"/>
        <path id="Trazado_624021" data-name="Trazado 624021" d="M44.872,315.344a22.478,22.478,0,0,1,.115-8.16,11.034,11.034,0,0,1,4.346-6.733c.856,2,.489,4.306-.114,6.4a31.106,31.106,0,0,1-4.31,9.074" transform="translate(-14.772 -99.609)" fill="#e0e0e0"/>
        <path id="Trazado_624022" data-name="Trazado 624022" d="M46.277,335.749a14.219,14.219,0,0,0-7.717,3.906,14.6,14.6,0,0,0-4.415,7.577c2.892-.178,5.345-2.218,7.125-4.5s3.012-4.8,4.967-6.934" transform="translate(-11.321 -111.312)" fill="#e0e0e0"/>
        <path id="Trazado_624023" data-name="Trazado 624023" d="M53.214,328.9a19.032,19.032,0,0,1,2.2-18,22.919,22.919,0,0,1-2.2,18" transform="translate(-17.202 -103.073)" fill="#e0e0e0"/>
        <path id="Trazado_624024" data-name="Trazado 624024" d="M56.845,349.248a13.761,13.761,0,0,0-13.159,7.575c-.163.326-.307.74-.089,1.032a.981.981,0,0,0,.873.257c2.593-.168,4.892-1.729,6.788-3.505s3.549-3.83,5.645-5.366" transform="translate(-14.417 -115.778)" fill="#e0e0e0"/>
        <path id="Trazado_624025" data-name="Trazado 624025" d="M62.619,339.6a24.507,24.507,0,0,1-.245-13.691c.483-1.762,1.292-3.618,2.922-4.444a.574.574,0,0,1,.447-.078.589.589,0,0,1,.283.327,8.253,8.253,0,0,1,.689,3.928,24.683,24.683,0,0,1-.616,3.976c-.513,2.431-.786,5.042-2.119,7.138a14.457,14.457,0,0,0-.848,1.568c-.252.533-.254.721-.485,1.144" transform="translate(-20.395 -106.542)" fill="#e0e0e0"/>
        <path id="Trazado_624026" data-name="Trazado 624026" d="M88.341,344.945a17.653,17.653,0,0,1,3.094-14.514c.222-.289.517-.6.88-.565.555.051.7.791.674,1.349a26.222,26.222,0,0,1-4.648,13.73" transform="translate(-29.131 -109.36)" fill="#e0e0e0"/>
        <path id="Trazado_624027" data-name="Trazado 624027" d="M90.866,351.5a21.113,21.113,0,0,0,17.325-3.523,14.024,14.024,0,0,0-9.379-1.151,13.382,13.382,0,0,0-7.946,4.675" transform="translate(-30.125 -114.87)" fill="#e0e0e0"/>
        <path id="Trazado_624028" data-name="Trazado 624028" d="M92.8,344.713a20.022,20.022,0,0,1,15.723-9.092,9.684,9.684,0,0,1-5.143,5.686,28.537,28.537,0,0,1-7.548,2.207c-1,.2-2.382.409-3.033,1.2" transform="translate(-30.766 -111.269)" fill="#e0e0e0"/>
        <path id="Trazado_624029" data-name="Trazado 624029" d="M87.939,317a45.681,45.681,0,0,0,2.011-9.208,15.336,15.336,0,0,0-1.834-9.109,20.049,20.049,0,0,0-.269,18.632" transform="translate(-28.406 -99.024)" fill="#e0e0e0"/>
        <path id="Trazado_624030" data-name="Trazado 624030" d="M104.382,312.213c3.558-6.466,10.817-11.632,18.162-12.356-2.834,7.055-10.561,12.508-18.162,12.356" transform="translate(-34.606 -99.412)" fill="#e0e0e0"/>
        <path id="Trazado_624031" data-name="Trazado 624031" d="M101.034,319.711c5.306.808,9.827,4.2,14.786,6.251a6.621,6.621,0,0,0,3.342.64,2.617,2.617,0,0,0,1.638-4.629,7.158,7.158,0,0,0-2.428-1.473,26.983,26.983,0,0,0-16.882-.941" transform="translate(-33.496 -105.643)" fill="#e0e0e0"/>
        <path id="Trazado_624032" data-name="Trazado 624032" d="M96.44,325.677A6.267,6.267,0,0,1,99,327.453a27.652,27.652,0,0,0,11.212,5.76c.428.106.991.149,1.2-.238.185-.338-.049-.747-.29-1.048a15.438,15.438,0,0,0-6.77-4.6c-2.588-.963-4.83-2.124-7.918-1.876" transform="translate(-31.973 -107.887)" fill="#e0e0e0"/>
        <path id="Trazado_624033" data-name="Trazado 624033" d="M91.257,291.894a21.221,21.221,0,0,0,16.268,5.535,1.114,1.114,0,0,0,.74-.266c.41-.445-.082-1.133-.559-1.5a18.743,18.743,0,0,0-16.45-3.764" transform="translate(-30.255 -96.582)" fill="#e0e0e0"/>
        <path id="Trazado_624034" data-name="Trazado 624034" d="M97.4,287.739a22.673,22.673,0,0,1,20.3-3.35,16.114,16.114,0,0,1-9.673,4.247,30.616,30.616,0,0,1-10.627-.9" transform="translate(-32.292 -93.93)" fill="#e0e0e0"/>
        <path id="Trazado_624035" data-name="Trazado 624035" d="M93.6,267.357c-.47-4.773-.165-8.542-.5-13.339-.027-.383-.109-.844-.467-.983-.5-.192-.916.422-1.079.93a15.288,15.288,0,0,0,2.035,13.286" transform="translate(-30.122 -83.878)" fill="#e0e0e0"/>
        <path id="Trazado_624036" data-name="Trazado 624036" d="M94.446,267.824a28.069,28.069,0,0,0,7.908-7.686c1.562-2.137,2.879-4.7,2.523-7.32a7.568,7.568,0,0,0-5.7,2.832,15.918,15.918,0,0,0-2.908,5.851c-.634,2.1-1.077,4.259-1.82,6.323" transform="translate(-31.312 -83.817)" fill="#e0e0e0"/>
        <path id="Trazado_624037" data-name="Trazado 624037" d="M106.019,266.108a63.769,63.769,0,0,0,19.462-11.476c-2.325-.937-4.987-.376-7.31.562a23.054,23.054,0,0,0-12.253,10.861" transform="translate(-35.115 -84.259)" fill="#e0e0e0"/>
        <path id="Trazado_624038" data-name="Trazado 624038" d="M97.714,276.382a39.592,39.592,0,0,0,10.806.053,45.839,45.839,0,0,0,10.089-3.352,1.186,1.186,0,0,0,.685-.52.79.79,0,0,0-.245-.864,2.088,2.088,0,0,0-.86-.4,18.681,18.681,0,0,0-10.9.652,50.561,50.561,0,0,0-9.572,4.435" transform="translate(-32.395 -89.763)" fill="#e0e0e0"/>
        <path id="Trazado_624039" data-name="Trazado 624039" d="M66.133,284.577a19.114,19.114,0,0,1-.174-15.821c1.491,2.271,1.673,5.163,1.4,7.866s-1.095,5.485-1.148,8.2" transform="translate(-21.328 -89.101)" fill="#e0e0e0"/>
        <path id="Trazado_624040" data-name="Trazado 624040" d="M44.246,285.033a22.066,22.066,0,0,0-16.4,6.985,15.321,15.321,0,0,0,8.979-1.664,45.661,45.661,0,0,0,7.694-5.15" transform="translate(-9.233 -94.496)" fill="#e0e0e0"/>
        <path id="Trazado_624041" data-name="Trazado 624041" d="M34.88,281.6c-2.994-.243-5.874-.614-8.753.269a10.5,10.5,0,0,0-6.671,5.657,15.817,15.817,0,0,0,8.206-1.549A47.259,47.259,0,0,0,34.88,281.6" transform="translate(-6.45 -93.264)" fill="#e0e0e0"/>
        <path id="Trazado_624042" data-name="Trazado 624042" d="M48.406,279.613c-2.693-1.765-5.459-3.562-8.594-4.293s-6.77-.19-8.957,2.173c2.538,1.489,5.618,1.665,8.562,1.663s6.551-.035,9.326.946" transform="translate(-10.229 -91.177)" fill="#e0e0e0"/>
        <path id="Trazado_624043" data-name="Trazado 624043" d="M54.543,272.769c-4.6-4.522-6.35-12.643-4.5-18.825a28.685,28.685,0,0,1,4.5,18.825" transform="translate(-16.35 -84.191)" fill="#e0e0e0"/>
        <path id="Trazado_624044" data-name="Trazado 624044" d="M76.075,255.573c.868-2.019,1.479-4.138,2.258-6.193a17.789,17.789,0,0,1,3.219-5.708,8.479,8.479,0,0,1,5.7-2.956A22.967,22.967,0,0,1,76.188,255.6" transform="translate(-25.221 -79.805)" fill="#e0e0e0"/>
        <path id="Trazado_624045" data-name="Trazado 624045" d="M66.741,262.91c-1.437-1.978-3.1-4.663-5.046-6.139a8.44,8.44,0,0,0-6.864-1.8,15.989,15.989,0,0,0,11.91,7.942" transform="translate(-18.178 -84.473)" fill="#e0e0e0"/>
        <path id="Trazado_624046" data-name="Trazado 624046" d="M72.124,255.829a34.167,34.167,0,0,1-2.271-7.356A11.473,11.473,0,0,1,71,240.994c2.527,4.778,3.341,9.906,1.249,14.889" transform="translate(-23.103 -79.897)" fill="#e0e0e0"/>
        <path id="Trazado_624047" data-name="Trazado 624047" d="M76.11,235.972c1.431-4.736,5.768-8.223,10.45-9.824a3.9,3.9,0,0,1,1.832-.275A1.591,1.591,0,0,1,89.743,227c.17.806-.5,1.527-1.121,2.063a35.576,35.576,0,0,1-12.512,6.908" transform="translate(-25.233 -74.875)" fill="#e0e0e0"/>
        <path id="Trazado_624048" data-name="Trazado 624048" d="M76.15,227.3a33.911,33.911,0,0,1,1.366-9.045,11.436,11.436,0,0,1,5.693-6.874c.473,3.084-.888,6.153-2.528,8.806s-3.619,5.159-4.605,8.12" transform="translate(-25.221 -70.081)" fill="#e0e0e0"/>
        <path id="Trazado_624049" data-name="Trazado 624049" d="M71.67,230.109c-1.183-3.452-1.306-7.836-3.372-10.843-1.445-2.1-3.759-3.534-5-5.76a8.764,8.764,0,0,0,.291,6.54,18.9,18.9,0,0,0,3.824,5.473c1.529,1.634,2.839,2.862,4.261,4.59" transform="translate(-20.817 -70.784)" fill="#e0e0e0"/>
        <path id="Trazado_624050" data-name="Trazado 624050" d="M76.022,339.4c-.092,0-.172-23.026-.178-51.423s.063-51.428.154-51.428.172,23.021.178,51.428-.063,51.423-.154,51.423" transform="translate(-25.145 -78.423)" fill="#e0e0e0"/>
        <path id="Trazado_624051" data-name="Trazado 624051" d="M96.217,287.223a4.941,4.941,0,0,1-.866.325l-2.382.8c-2.009.684-4.769,1.675-7.764,2.9-2.965,1.272-5.762,2.306-7.355,3.685a5.417,5.417,0,0,0-1.478,1.955c-.229.541-.269.872-.3.866a.655.655,0,0,1,.01-.241,3.632,3.632,0,0,1,.169-.671,5.192,5.192,0,0,1,1.442-2.084,12.937,12.937,0,0,1,3.192-1.983c1.276-.6,2.691-1.217,4.194-1.834,3-1.231,5.785-2.191,7.817-2.819,1.015-.317,1.844-.55,2.418-.7a4.926,4.926,0,0,1,.9-.2" transform="translate(-25.218 -95.222)" fill="#e0e0e0"/>
        <path id="Trazado_624052" data-name="Trazado 624052" d="M103.6,262.989a1.428,1.428,0,0,1-.243.259l-.739.695-2.759,2.505-9.181,8.175c-3.584,3.19-6.681,6.238-8.827,8.533-1.075,1.146-1.921,2.1-2.5,2.758l-.667.762a1.421,1.421,0,0,1-.249.253,1.4,1.4,0,0,1,.2-.295c.139-.185.342-.461.62-.8.548-.69,1.37-1.665,2.425-2.834a116.175,116.175,0,0,1,8.779-8.622c3.6-3.183,6.869-6.042,9.247-8.1l2.828-2.427.78-.647a1.429,1.429,0,0,1,.287-.209" transform="translate(-26.004 -87.189)" fill="#e0e0e0"/>
        <path id="Trazado_624053" data-name="Trazado 624053" d="M90.958,281.291c-.094-.042.654-1.771,1.4-3.957s1.108-4.031,1.2-4.015a13.5,13.5,0,0,1-.887,4.122,26.722,26.722,0,0,1-1.115,2.767,4.309,4.309,0,0,1-.6,1.083" transform="translate(-30.153 -90.614)" fill="#e0e0e0"/>
        <path id="Trazado_624054" data-name="Trazado 624054" d="M69.522,297.755a4.094,4.094,0,0,1-.552-.641L67.554,295.3c-1.188-1.536-2.831-3.657-4.672-5.977s-3.536-4.4-4.761-5.908l-1.446-1.789a4.1,4.1,0,0,1-.5-.684,4.148,4.148,0,0,1,.6.6c.368.4.89.988,1.527,1.722,1.273,1.469,3,3.529,4.841,5.852s3.459,4.469,4.6,6.043c.571.787,1.025,1.429,1.331,1.878a4.1,4.1,0,0,1,.448.718" transform="translate(-18.624 -93.141)" fill="#e0e0e0"/>
        <path id="Trazado_624055" data-name="Trazado 624055" d="M68.405,294.169a8.115,8.115,0,0,1-1.848-3.46,9.874,9.874,0,0,1-.419-3.489l.147.011c-.066.267-.114.408-.14.4s-.027-.152-.006-.426l.147.012a15.964,15.964,0,0,0,.59,3.394,25.869,25.869,0,0,0,1.529,3.555" transform="translate(-21.919 -95.219)" fill="#e0e0e0"/>
        <path id="Trazado_624056" data-name="Trazado 624056" d="M56.077,286.2a5.957,5.957,0,0,0-1.291-.749,8.63,8.63,0,0,0-3.582-.285,22.209,22.209,0,0,0-3.608.582,10.86,10.86,0,0,1-1.485.356,5.2,5.2,0,0,1,1.422-.583,16.48,16.48,0,0,1,3.646-.687,7.821,7.821,0,0,1,3.7.4,2.293,2.293,0,0,1,1.2.968" transform="translate(-15.287 -94.416)" fill="#e0e0e0"/>
        <path id="Trazado_624057" data-name="Trazado 624057" d="M52.055,283.255c-.025.051-.751-.3-1.977-.72a19.893,19.893,0,0,0-9.964-.759c-1.274.228-2.046.467-2.063.412a1.869,1.869,0,0,1,.524-.224,12.443,12.443,0,0,1,1.493-.419,17.595,17.595,0,0,1,10.09.769,12.264,12.264,0,0,1,1.412.641,1.85,1.85,0,0,1,.484.3" transform="translate(-12.615 -93.206)" fill="#e0e0e0"/>
        <path id="Trazado_624058" data-name="Trazado 624058" d="M74.8,268.311a81.491,81.491,0,0,1-2.561-10.1,41.133,41.133,0,0,1,1.442,5.009,41.069,41.069,0,0,1,1.119,5.09" transform="translate(-23.946 -85.606)" fill="#e0e0e0"/>
        <path id="Trazado_624059" data-name="Trazado 624059" d="M74.252,270.626a24.089,24.089,0,0,0-1.6-3A13.214,13.214,0,0,0,70.3,265.2a2.192,2.192,0,0,1,.908.468,7.328,7.328,0,0,1,1.717,1.768,6.645,6.645,0,0,1,1.326,3.19" transform="translate(-23.307 -87.921)" fill="#e0e0e0"/>
        <path id="Trazado_624060" data-name="Trazado 624060" d="M65.648,355.376c-.036.005-.1-.553-.363-1.531a21.877,21.877,0,0,0-1.539-3.987,55.17,55.17,0,0,0-8.164-11.5c-1.823-2.083-3.591-4.047-5.092-5.928a41.613,41.613,0,0,1-3.641-5.251,25.238,25.238,0,0,1-1.838-3.9c-.169-.48-.293-.855-.361-1.114a1.829,1.829,0,0,1-.094-.4c.029-.009.2.527.576,1.465a28.51,28.51,0,0,0,1.921,3.825,43.959,43.959,0,0,0,3.677,5.178c1.507,1.862,3.277,3.815,5.1,5.9a52.316,52.316,0,0,1,8.125,11.618,19.928,19.928,0,0,1,1.453,4.058,11.346,11.346,0,0,1,.2,1.154,1.9,1.9,0,0,1,.033.408" transform="translate(-14.771 -106.676)" fill="#e0e0e0"/>
        <path id="Trazado_624061" data-name="Trazado 624061" d="M94.292,341.32a8.47,8.47,0,0,1-.954.535,20.879,20.879,0,0,0-2.471,1.634,28.343,28.343,0,0,0-3.247,2.961c-1.14,1.2-2.313,2.6-3.511,4.1-2.394,3-4.634,5.664-5.975,7.786-.681,1.053-1.176,1.941-1.5,2.563a8.045,8.045,0,0,1-.525.959.9.9,0,0,1,.089-.27c.07-.171.167-.429.32-.747a24.426,24.426,0,0,1,1.418-2.631,85.823,85.823,0,0,1,5.915-7.869c1.2-1.5,2.388-2.9,3.549-4.1a26.406,26.406,0,0,1,3.327-2.937,17.339,17.339,0,0,1,2.553-1.56c.316-.159.573-.256.743-.33a.892.892,0,0,1,.27-.091" transform="translate(-25.232 -113.158)" fill="#e0e0e0"/>
        <path id="Trazado_624062" data-name="Trazado 624062" d="M97.61,351.276a13.9,13.9,0,0,1-2.014.293,26.587,26.587,0,0,0-4.777.941,14.347,14.347,0,0,0-4.278,2.245c-.986.762-1.451,1.392-1.5,1.356a1.533,1.533,0,0,1,.3-.464,7.616,7.616,0,0,1,1.049-1.074,12.963,12.963,0,0,1,4.324-2.379,21.593,21.593,0,0,1,4.856-.858,11.078,11.078,0,0,1,2.037-.058" transform="translate(-28.195 -116.451)" fill="#e0e0e0"/>
        <path id="Trazado_624063" data-name="Trazado 624063" d="M85.922,354.04c-.1-.06.8-1.446,1.507-3.311.661-1.882.816-3.532.934-3.513a3.19,3.19,0,0,1-.033,1.08,11.6,11.6,0,0,1-.588,2.546,12.339,12.339,0,0,1-1.168,2.335,3.273,3.273,0,0,1-.652.862" transform="translate(-28.483 -115.113)" fill="#e0e0e0"/>
        <path id="Trazado_624064" data-name="Trazado 624064" d="M100.184,314.562a1.507,1.507,0,0,1-.322.171l-.947.431c-.415.178-.918.4-1.485.7s-1.233.6-1.925,1.011l-1.1.625c-.38.219-.757.479-1.158.73-.81.491-1.622,1.1-2.488,1.715a42.675,42.675,0,0,0-9.58,9.914c-.588.887-1.165,1.719-1.629,2.546-.237.409-.484.795-.69,1.183l-.587,1.12c-.392.705-.671,1.379-.945,1.958s-.487,1.088-.651,1.508l-.4.961a1.524,1.524,0,0,1-.16.328,1.5,1.5,0,0,1,.1-.35c.09-.26.2-.586.34-.985.145-.429.337-.949.6-1.535s.525-1.273.905-1.989l.572-1.136c.2-.394.445-.785.678-1.2.457-.838,1.029-1.681,1.614-2.58a41.093,41.093,0,0,1,9.651-9.986c.878-.616,1.7-1.217,2.523-1.7.407-.248.789-.5,1.176-.719l1.116-.61c.7-.4,1.378-.694,1.957-.973s1.091-.493,1.515-.653l.973-.374a1.513,1.513,0,0,1,.347-.109" transform="translate(-25.236 -104.287)" fill="#e0e0e0"/>
        <path id="Trazado_624065" data-name="Trazado 624065" d="M90.59,327.795a2.317,2.317,0,0,1,.791-1.179,5,5,0,0,1,3.188-1.223,8.711,8.711,0,0,1,3.355.656,4.781,4.781,0,0,1,1.269.616,7.844,7.844,0,0,1-1.346-.394,10.129,10.129,0,0,0-3.267-.545,5.189,5.189,0,0,0-3.046,1.069,9.272,9.272,0,0,0-.945,1" transform="translate(-30.033 -107.877)" fill="#e0e0e0"/>
        <path id="Trazado_624066" data-name="Trazado 624066" d="M87.371,329.32a8.514,8.514,0,0,0,.7-6.02,1.966,1.966,0,0,1,.374.858,6.1,6.1,0,0,1-.515,4.414c-.281.509-.529.771-.562.749" transform="translate(-28.964 -107.184)" fill="#e0e0e0"/>
        <path id="Trazado_624067" data-name="Trazado 624067" d="M52.319,376.98c.5,8.8,3.148,17.748,7.227,26.8H77.282c3.89-8.958,6.358-17.894,6.8-26.8Z" transform="translate(-17.345 -124.981)" fill="#e0e0e0"/>
        <path id="Trazado_624068" data-name="Trazado 624068" d="M82.594,398.2c0,.092-5.84.166-13.042.166s-13.043-.075-13.043-.166,5.839-.166,13.043-.166,13.042.075,13.042.166" transform="translate(-18.735 -131.96)" fill="#fafafa"/>
        <path id="Trazado_624069" data-name="Trazado 624069" d="M82.81,402.967c0,.092-5.475.166-12.226.166s-12.228-.074-12.228-.166,5.473-.166,12.228-.166,12.226.075,12.226.166" transform="translate(-19.347 -133.542)" fill="#fafafa"/>
        <path id="Trazado_624070" data-name="Trazado 624070" d="M63.475,385.623a50.219,50.219,0,0,1,0,8.171,50.219,50.219,0,0,1,0-8.171" transform="translate(-20.989 -127.846)" fill="#fafafa"/>
        <path id="Trazado_624071" data-name="Trazado 624071" d="M77.691,385.623a53.851,53.851,0,0,1,0,8.461,53.851,53.851,0,0,1,0-8.461" transform="translate(-25.702 -127.846)" fill="#fafafa"/>
        <path id="Trazado_624072" data-name="Trazado 624072" d="M91.037,385.516a56.012,56.012,0,0,1,0,8.63,56.012,56.012,0,0,1,0-8.63" transform="translate(-30.127 -127.811)" fill="#fafafa"/>
        <path id="Trazado_624073" data-name="Trazado 624073" d="M83.814,385.54c0,.092-6.849.166-15.3.166s-15.3-.074-15.3-.166,6.848-.166,15.3-.166,15.3.075,15.3.166" transform="translate(-17.644 -127.764)" fill="#fafafa"/>
        <path id="Trazado_624074" data-name="Trazado 624074" d="M398.7,396.9c-1.047-.9-3.383-3.743-1.582-7.053.66-1.213,2.063-1.814,3.332-2.348a13.525,13.525,0,0,0,3.655-1.892c1.981-1.686,2.528-4.486,3.843-6.735a8.417,8.417,0,0,1,7.306-4.38c3.409.154,6.253,2.939,7.542,6.114s1.334,6.7,1.361,10.129c.015,1.9-.07,4.034-1.462,5.314-1.283,1.181-3.215,1.2-4.955,1.142l-18.632-.572" transform="translate(-131.439 -124.153)" fill="#f5f5f5"/>
        <path id="Trazado_624075" data-name="Trazado 624075" d="M428.823,331.366h-49L388.649,384a5.876,5.876,0,0,0,4.183,4.686c.056.017.115.031.172.047.146.037.287.087.437.113a6.1,6.1,0,0,0,1,.114l.008.05.239-.037h21.84a6.125,6.125,0,0,0,1.2-.12,5.9,5.9,0,0,0,4.957-5.144l4.255-36.264.192-1.442h-.023l1.685-14.361Zm-9.244,33.573H414.55l.507-15.275h5.826Zm1.793-15.275h4.814l-1.792,15.275h-4.327Zm-14.366,32.208L406.7,368.6h7.241l-.441,13.27Zm-7.829-13.27h7.037l.306,13.27h-6.311Zm.544,13.27h-5.9c-.561-3.583-1.29-8.239-2.08-13.27h6.948Zm-.829-16.933-1.187-15.275h8.072l.352,15.275Zm7.723,0-.352-15.275h8.307l-.507,15.275ZM406.18,346l-.326-14.146h9.309L414.693,346Zm-.487,0h-8.272l-1.1-14.146h9.046Zm-8.76,0h-8.752c-.31-1.954-.6-3.8-.869-5.467-.913-5.719-1.257-7.87-1.447-8.679h9.969Zm.285,3.663,1.187,15.275h-7.238c-.243-1.55-.49-3.118-.737-4.687-.568-3.606-1.136-7.21-1.669-10.588Zm-6.543,15.275h-4.729l-2.562-15.275h4.884c.747,4.721,1.574,9.974,2.407,15.275m.575,3.663c.721,4.592,1.431,9.119,2.08,13.27h-4.543L386.56,368.6Zm22.739,13.27.441-13.27h4.838l-1.134,13.27ZM415.179,346l.47-14.146h6.756L421.2,346ZM385.4,331.855c.195,1.023,1.089,6.589,2.287,14.146h-4.919L380.4,331.855Zm37.006,50.017h-3.787l1.134-13.27h4.21ZM426.616,346h-4.931l1.209-14.146h5.382Z" transform="translate(-125.923 -109.859)" fill="#e0e0e0"/>
        <path id="Trazado_624076" data-name="Trazado 624076" d="M191.176,385.644v20.764h63.856V385.644Z" transform="translate(-63.381 -127.853)" fill="#f5f5f5"/>
        <path id="Trazado_624077" data-name="Trazado 624077" d="M187.168,376.959v5.8h68.768v-5.8H187.168Z" transform="translate(-62.052 -124.974)" fill="#ebebeb"/>
        <path id="Trazado_624078" data-name="Trazado 624078" d="M237.941,403.529h32.151V382.765h2.233v-5.806H236.6v5.268Z" transform="translate(-78.441 -124.974)" fill="#ebebeb"/>
        <rect id="Rectángulo_327548" data-name="Rectángulo 327548" width="12.95" height="3.126" transform="translate(136.726 261.139)" fill="#e0e0e0"/>
        <rect id="Rectángulo_327549" data-name="Rectángulo 327549" width="16.628" height="6.6" transform="translate(135.06 268.172)" fill="#fff"/>
        <path id="Trazado_624079" data-name="Trazado 624079" d="M205.873,345.938V366.7h63.856V345.938Z" transform="translate(-68.254 -114.69)" fill="#f5f5f5"/>
        <path id="Trazado_624080" data-name="Trazado 624080" d="M201.865,337.254v5.8h68.768v-5.8H201.865Z" transform="translate(-66.925 -111.81)" fill="#ebebeb"/>
        <path id="Trazado_624081" data-name="Trazado 624081" d="M252.638,363.823h32.151V343.058h2.233v-5.8H251.3v5.268Z" transform="translate(-83.313 -111.81)" fill="#ebebeb"/>
        <rect id="Rectángulo_327550" data-name="Rectángulo 327550" width="12.95" height="3.126" transform="translate(146.55 234.597)" fill="#e0e0e0"/>
        <rect id="Rectángulo_327551" data-name="Rectángulo 327551" width="16.628" height="6.6" transform="translate(144.884 241.63)" fill="#fff"/>
      </g>
    </g>
    <g id="Grupo_877534" data-name="Grupo 877534">
      <g id="Grupo_877533" data-name="Grupo 877533" clip-path="url(#clip-path)">
        <path id="Trazado_624082" data-name="Trazado 624082" d="M313.428,417.247c0,.1-70.169.174-156.707.174C70.154,417.421,0,417.343,0,417.247s70.154-.174,156.722-.174c86.538,0,156.707.078,156.707.174" transform="translate(0 -138.273)" fill="#263238"/>
      </g>
    </g>
    <g id="Grupo_877536" data-name="Grupo 877536">
      <g id="Grupo_877535" data-name="Grupo 877535" clip-path="url(#clip-path)">
        <path id="Trazado_624083" data-name="Trazado 624083" d="M231.88,261.933H152.3a5.05,5.05,0,0,1-5.05-5.05V182.5a4.789,4.789,0,0,1,4.788-4.789h80.67a4.837,4.837,0,0,1,4.837,4.838v73.715a5.666,5.666,0,0,1-5.666,5.666" transform="translate(-48.818 -58.918)" fill="#fff"/>
        <rect id="Rectángulo_327554" data-name="Rectángulo 327554" width="45.67" height="45.67" transform="translate(98.433 132.468)" fill="#3d672f" opacity="0.21"/>
        <path id="Trazado_624084" data-name="Trazado 624084" d="M237.546,191.385h-90.3V182.5a4.789,4.789,0,0,1,4.789-4.788h80.67a4.837,4.837,0,0,1,4.837,4.837Z" transform="translate(-48.818 -58.918)" fill="#ffb338"/>
        <path id="Trazado_624085" data-name="Trazado 624085" d="M157.764,187.459a1.7,1.7,0,1,1-1.7-1.7,1.7,1.7,0,0,1,1.7,1.7" transform="translate(-51.174 -61.584)" fill="#fff"/>
        <path id="Trazado_624086" data-name="Trazado 624086" d="M165.47,187.459a1.7,1.7,0,1,1-1.7-1.7,1.7,1.7,0,0,1,1.7,1.7" transform="translate(-53.729 -61.584)" fill="#fff"/>
        <path id="Trazado_624087" data-name="Trazado 624087" d="M173.176,187.459a1.7,1.7,0,1,1-1.7-1.7,1.7,1.7,0,0,1,1.7,1.7" transform="translate(-56.284 -61.584)" fill="#fff"/>
        <path id="Trazado_624088" data-name="Trazado 624088" d="M254.268,219.818c0,.1-6.582.174-14.7.174s-14.7-.078-14.7-.174,6.58-.174,14.7-.174,14.7.078,14.7.174" transform="translate(-74.551 -72.819)" fill="#263238"/>
        <path id="Trazado_624089" data-name="Trazado 624089" d="M254.268,226.444c0,.1-6.582.174-14.7.174s-14.7-.078-14.7-.174,6.58-.174,14.7-.174,14.7.078,14.7.174" transform="translate(-74.551 -75.016)" fill="#263238"/>
        <path id="Trazado_624090" data-name="Trazado 624090" d="M254.268,233.07c0,.1-6.582.174-14.7.174s-14.7-.078-14.7-.174,6.58-.174,14.7-.174,14.7.078,14.7.174" transform="translate(-74.551 -77.213)" fill="#263238"/>
        <path id="Trazado_624091" data-name="Trazado 624091" d="M254.268,246.8c0,.1-6.582.174-14.7.174s-14.7-.078-14.7-.174,6.58-.174,14.7-.174,14.7.078,14.7.174" transform="translate(-74.551 -81.764)" fill="#263238"/>
        <path id="Trazado_624092" data-name="Trazado 624092" d="M241.539,253.424c0,.1-3.733.174-8.336.174s-8.336-.078-8.336-.174,3.731-.174,8.336-.174,8.336.078,8.336.174" transform="translate(-74.551 -83.961)" fill="#263238"/>
        <path id="Trazado_624093" data-name="Trazado 624093" d="M238.391,239.7a65.813,65.813,0,0,1-6.762.174,65.81,65.81,0,0,1-6.762-.174,65.842,65.842,0,0,1,6.762-.174,65.845,65.845,0,0,1,6.762.174" transform="translate(-74.551 -79.409)" fill="#ff725e"/>
        <path id="Trazado_624094" data-name="Trazado 624094" d="M238.391,211.687a65.813,65.813,0,0,1-6.762.174,65.81,65.81,0,0,1-6.762-.174,65.834,65.834,0,0,1,6.762-.174,65.837,65.837,0,0,1,6.762.174" transform="translate(-74.551 -70.123)" fill="#ff725e"/>
        <path id="Trazado_624095" data-name="Trazado 624095" d="M179.431,204.489a2.063,2.063,0,0,1,2.128-1.08,2.821,2.821,0,0,1,3.473.015,2.509,2.509,0,0,1,3.814,2,2.1,2.1,0,0,1,1.882,3.505,2.015,2.015,0,0,1-.791,3.93l-10.1-6.016a2.063,2.063,0,0,1-.41-2.35" transform="translate(-59.421 -67.241)" fill="#e0e0e0"/>
        <path id="Trazado_624096" data-name="Trazado 624096" d="M187.857,214.412a8.548,8.548,0,0,0-8.635-7.736l-.443.007c-4.769.348-7.137,4.592-6.657,9.349l.922,15.883.192,2.819L184.4,235.8l-.33-5.114s4.578-.78,4.568-5.368c0-2.217-.386-6.778-.779-10.9" transform="translate(-57.044 -68.519)" fill="#ffbe9d"/>
        <path id="Trazado_624097" data-name="Trazado 624097" d="M187.087,241.751a11.132,11.132,0,0,1-6.037-1.672s1.463,3.281,6.034,2.8Z" transform="translate(-60.024 -79.594)" fill="#eb996e"/>
        <path id="Trazado_624098" data-name="Trazado 624098" d="M192.664,224.315a.655.655,0,0,1-.622.67.627.627,0,0,1-.684-.58.656.656,0,0,1,.622-.671.628.628,0,0,1,.685.582" transform="translate(-63.441 -74.174)" fill="#263238"/>
        <path id="Trazado_624099" data-name="Trazado 624099" d="M192.981,221.3c-.08.087-.582-.273-1.286-.261s-1.217.372-1.294.287c-.038-.037.042-.193.265-.36a1.8,1.8,0,0,1,1.035-.336,1.729,1.729,0,0,1,1.025.315c.219.163.295.317.255.356" transform="translate(-63.121 -73.144)" fill="#263238"/>
        <path id="Trazado_624100" data-name="Trazado 624100" d="M182.717,224.57a.655.655,0,0,1-.622.67.627.627,0,0,1-.685-.581.657.657,0,0,1,.622-.671.627.627,0,0,1,.684.582" transform="translate(-60.143 -74.259)" fill="#263238"/>
        <path id="Trazado_624101" data-name="Trazado 624101" d="M182.617,221.644c-.08.087-.582-.273-1.287-.261s-1.217.372-1.294.287c-.038-.037.041-.193.265-.36a1.793,1.793,0,0,1,1.034-.336,1.724,1.724,0,0,1,1.026.315c.219.162.295.316.255.355" transform="translate(-59.685 -73.26)" fill="#263238"/>
        <path id="Trazado_624102" data-name="Trazado 624102" d="M187.637,226.83a4.646,4.646,0,0,1,1.142-.223c.18-.021.35-.06.378-.182a.916.916,0,0,0-.128-.532l-.552-1.363a23.578,23.578,0,0,1-1.247-3.568,23.673,23.673,0,0,1,1.531,3.459q.278.718.53,1.372a1.038,1.038,0,0,1,.1.705.451.451,0,0,1-.292.267,1.227,1.227,0,0,1-.3.047,4.6,4.6,0,0,1-1.16.019" transform="translate(-62.07 -73.255)" fill="#263238"/>
        <path id="Trazado_624103" data-name="Trazado 624103" d="M184.7,230.516c.114-.009.127.757.79,1.29s1.476.438,1.483.545c.011.047-.179.151-.523.166a1.91,1.91,0,0,1-1.238-.411,1.66,1.66,0,0,1-.613-1.083c-.034-.32.049-.511.1-.507" transform="translate(-61.197 -76.423)" fill="#263238"/>
        <path id="Trazado_624104" data-name="Trazado 624104" d="M182.521,217.587c-.067.193-.772.112-1.6.224-.828.095-1.491.347-1.6.176-.05-.082.064-.263.331-.453a2.8,2.8,0,0,1,2.439-.3c.305.118.461.266.432.358" transform="translate(-59.446 -71.968)" fill="#e0e0e0"/>
        <path id="Trazado_624105" data-name="Trazado 624105" d="M192.642,218.228c-.122.162-.61,0-1.194,0-.584-.019-1.077.124-1.193-.043-.051-.08.025-.242.239-.4a1.727,1.727,0,0,1,1.923.031c.209.162.279.326.225.4" transform="translate(-63.07 -72.113)" fill="#e0e0e0"/>
        <path id="Trazado_624106" data-name="Trazado 624106" d="M186.84,212.034s-1.252-2.855-2.647-3.505c-1.689-.787-2.384,1.064-3.989.64s-3.217-1.179-4.832.08c-1.767,1.378-.916,2.315-1,4.352-.328,8.259-1.8,10.615-2.286,6.733-.053-.425-1.241-.747-1.442-2.543a20.258,20.258,0,0,1,.1-6.825,6.534,6.534,0,0,1,2.612-3.461c2.227-1.711,5.321-1.791,7.425-1.611s6.189,2.54,6.051,6.14" transform="translate(-56.498 -68.238)" fill="#e0e0e0"/>
        <path id="Trazado_624107" data-name="Trazado 624107" d="M171.823,226.747a1.245,1.245,0,0,0-1.362-1.181c-.854.094-1.8.594-1.717,2.36.146,3.135,3.263,2.342,3.264,2.252,0-.061-.112-2.12-.185-3.432" transform="translate(-55.943 -74.78)" fill="#ffbe9d"/>
        <path id="Trazado_624108" data-name="Trazado 624108" d="M171.806,229.536c-.014-.009-.053.041-.143.088a.547.547,0,0,1-.408.027,1.353,1.353,0,0,1-.682-1.184,1.8,1.8,0,0,1,.117-.789.63.63,0,0,1,.391-.438.278.278,0,0,1,.329.134c.046.086.029.149.046.154s.065-.055.033-.184a.351.351,0,0,0-.132-.191.413.413,0,0,0-.305-.066.766.766,0,0,0-.548.512,1.853,1.853,0,0,0-.148.882,1.419,1.419,0,0,0,.86,1.317.583.583,0,0,0,.5-.106c.094-.082.107-.152.1-.158" transform="translate(-56.477 -75.286)" fill="#eb996e"/>
        <path id="Trazado_624109" data-name="Trazado 624109" d="M171.8,213.6a2.979,2.979,0,0,0,1.337.594,1.023,1.023,0,0,0,1.124-.737c.033-.219-.023-.471.118-.642.168-.2.485-.146.749-.122a2,2,0,0,0,2.057-1.465.84.84,0,0,0,1.128.09,4.488,4.488,0,0,0,.841-.926,1.292,1.292,0,0,1,1.069-.554,3.1,3.1,0,0,0,.684.14c.412-.042.606-.527.662-.937s.1-.888.444-1.115a1.639,1.639,0,0,1,1.121-.047c.38.05.868-.046.959-.418a.745.745,0,0,0-.148-.567,2.032,2.032,0,0,0-2.408-.734,2.754,2.754,0,0,0-5.066-.46,2.794,2.794,0,0,0-4.451,1.084,2.026,2.026,0,0,0-2.241,2.979,1.923,1.923,0,0,0-1.035,1.547A1.1,1.1,0,0,0,170,212.415a1.122,1.122,0,0,0,1.956,1.09" transform="translate(-55.942 -67.707)" fill="#e0e0e0"/>
        <path id="Trazado_624110" data-name="Trazado 624110" d="M170.279,216.47a.753.753,0,0,0,.2.6,1.009,1.009,0,0,0,.634.366,1.089,1.089,0,0,0,.89-.273l-.133-.017a3.147,3.147,0,0,0,.637.773,1.8,1.8,0,0,0,.577.347,1.393,1.393,0,0,0,1.529-.483,1.809,1.809,0,0,0,.245-.656.6.6,0,0,0,.02-.254c-.013,0-.039.084-.088.237a2.107,2.107,0,0,1-.281.6,1.279,1.279,0,0,1-1.884.072,3.135,3.135,0,0,1-.608-.725l-.057-.092-.076.074a.951.951,0,0,1-.753.252.923.923,0,0,1-.572-.291,1.535,1.535,0,0,1-.285-.529" transform="translate(-56.45 -71.767)" fill="#fff"/>
        <path id="Trazado_624111" data-name="Trazado 624111" d="M178.993,205.017c0,.011.082.021.223.078a1.077,1.077,0,0,1,.493.407l.039.059.042-.059a3.911,3.911,0,0,1,1.5-1.249,3.046,3.046,0,0,1,1.231-.289,2.548,2.548,0,0,1,1.334.36,2.581,2.581,0,0,1,.8.738,2.121,2.121,0,0,1,.358.941l.011.1.095-.027a1.761,1.761,0,0,1,1.305.14,1.716,1.716,0,0,1,.724.754,2.34,2.34,0,0,1,.209.926.619.619,0,0,0,.034-.257,1.751,1.751,0,0,0-.151-.712,1.791,1.791,0,0,0-.749-.834,1.884,1.884,0,0,0-1.419-.177l.106.072a2.262,2.262,0,0,0-.378-1.023,2.726,2.726,0,0,0-.856-.794,2.69,2.69,0,0,0-1.429-.379,3.144,3.144,0,0,0-1.3.321,3.811,3.811,0,0,0-1.511,1.338h.081a1.068,1.068,0,0,0-.557-.4.478.478,0,0,0-.241-.029" transform="translate(-59.342 -67.562)" fill="#fff"/>
        <path id="Trazado_624112" data-name="Trazado 624112" d="M183.124,230.716c.051,0,.066-.332.328-.608s.582-.33.578-.38c0-.022-.088-.047-.231-.021a.933.933,0,0,0-.716.781c-.014.144.019.23.041.228" transform="translate(-60.697 -76.151)" fill="#eb996e"/>
        <path id="Trazado_624113" data-name="Trazado 624113" d="M182.7,229.744c.044.026.156-.085.322-.161s.32-.1.327-.151-.187-.118-.405-.012-.289.3-.244.324" transform="translate(-60.568 -76.042)" fill="#eb996e"/>
        <path id="Trazado_624114" data-name="Trazado 624114" d="M177.141,239.635c0-.015-.045-.023-.085-.081a.273.273,0,0,1-.011-.277c.049-.12.19-.226.284-.43a.41.41,0,0,0-.009-.366,2.579,2.579,0,0,0-.205-.265c-.244-.31.463-.531.369-.93a.484.484,0,0,0-.173-.333c-.072-.054-.122-.06-.127-.05a.637.637,0,0,1,.172.388.486.486,0,0,1-.228.372.8.8,0,0,0-.209.263.385.385,0,0,0,.048.394c.076.1.158.172.2.245a.239.239,0,0,1,.01.219c-.057.154-.2.285-.248.445a.338.338,0,0,0,.079.372c.077.063.138.041.136.033" transform="translate(-58.643 -78.54)" fill="#eb996e"/>
        <path id="Trazado_624115" data-name="Trazado 624115" d="M175.731,239.429c.015,0,.015-.046.04-.114a1.062,1.062,0,0,1,.171-.265,1.27,1.27,0,0,0,.133-.2.45.45,0,0,0,.042-.307c-.055-.225-.241-.364-.329-.527s-.014-.3.119-.433a.939.939,0,0,0,.166-.232.545.545,0,0,0,.047-.255c-.031-.327-.251-.421-.251-.4a.822.822,0,0,1,.123.4.533.533,0,0,1-.207.373.81.81,0,0,0-.192.259.431.431,0,0,0,.037.376c.124.207.289.333.325.479s-.049.279-.119.4a.783.783,0,0,0-.134.322c-.007.087.019.131.029.128" transform="translate(-58.206 -78.472)" fill="#eb996e"/>
        <path id="Trazado_624116" data-name="Trazado 624116" d="M187.53,250.785c-1.2-.8-10.121-4.917-10.121-4.917A22.032,22.032,0,0,1,166,245.291s-9.418,3.281-10.873,4.328c-1.14.822-3.592,9.994-3.592,9.994l39.83-.155s-2.628-7.869-3.832-8.673" transform="translate(-50.238 -81.322)" fill="#2b95f9"/>
        <path id="Trazado_624117" data-name="Trazado 624117" d="M164.039,263.931a22.136,22.136,0,0,1-.249-5.534,22.138,22.138,0,0,1,.249,5.534" transform="translate(-54.272 -85.667)" fill="#263238"/>
        <path id="Trazado_624118" data-name="Trazado 624118" d="M201.386,263.076a13.779,13.779,0,0,1-.255-5.281,38.019,38.019,0,0,1,.255,5.281" transform="translate(-66.631 -85.467)" fill="#263238"/>
        <path id="Trazado_624119" data-name="Trazado 624119" d="M231.807,291.364H152.079a5.05,5.05,0,0,1-5.05-5.05V266.486h90.444V285.7a5.666,5.666,0,0,1-5.666,5.666" transform="translate(-48.745 -88.349)" fill="#3d672f" opacity="0.21"/>
        <path id="Trazado_624120" data-name="Trazado 624120" d="M165.39,276.554a33.952,33.952,0,0,1-4.85.174,33.951,33.951,0,0,1-4.851-.174,33.94,33.94,0,0,1,4.851-.174,33.941,33.941,0,0,1,4.85.174" transform="translate(-51.616 -91.629)" fill="#263238"/>
        <path id="Trazado_624121" data-name="Trazado 624121" d="M186.247,281.848c0,.1-6.875.174-15.351.174s-15.352-.078-15.352-.174,6.872-.174,15.352-.174,15.351.078,15.351.174" transform="translate(-51.568 -93.384)" fill="#263238"/>
        <path id="Trazado_624122" data-name="Trazado 624122" d="M186.247,287.815c0,.1-6.875.174-15.351.174s-15.352-.078-15.352-.174,6.872-.174,15.352-.174,15.351.078,15.351.174" transform="translate(-51.568 -95.362)" fill="#263238"/>
        <path id="Trazado_624123" data-name="Trazado 624123" d="M177.021,293.782c0,.1-4.808.174-10.738.174s-10.739-.078-10.739-.174,4.807-.174,10.739-.174,10.738.078,10.738.174" transform="translate(-51.568 -97.341)" fill="#263238"/>
        <path id="Trazado_624124" data-name="Trazado 624124" d="M232.835,276.554a33.953,33.953,0,0,1-4.85.174,33.951,33.951,0,0,1-4.851-.174,33.939,33.939,0,0,1,4.851-.174,33.942,33.942,0,0,1,4.85.174" transform="translate(-73.976 -91.629)" fill="#263238"/>
        <path id="Trazado_624125" data-name="Trazado 624125" d="M253.691,281.848c0,.1-6.874.174-15.351.174s-15.353-.078-15.353-.174,6.872-.174,15.353-.174,15.351.078,15.351.174" transform="translate(-73.928 -93.384)" fill="#263238"/>
        <path id="Trazado_624126" data-name="Trazado 624126" d="M253.691,287.815c0,.1-6.874.174-15.351.174s-15.353-.078-15.353-.174,6.872-.174,15.353-.174,15.351.078,15.351.174" transform="translate(-73.928 -95.362)" fill="#263238"/>
        <path id="Trazado_624127" data-name="Trazado 624127" d="M244.465,293.782c0,.1-4.808.174-10.738.174s-10.739-.078-10.739-.174,4.807-.174,10.739-.174,10.738.078,10.738.174" transform="translate(-73.928 -97.341)" fill="#263238"/>
        <path id="Trazado_624128" data-name="Trazado 624128" d="M231.788,261.846c0-.019.3,0,.872-.092a5.644,5.644,0,0,0,4.6-4.348,12.277,12.277,0,0,0,.13-2.653q0-1.432-.008-3.047c-.013-8.616-.032-21.073-.056-36.464-.007-7.7-.013-16.129-.021-25.181q0-3.394,0-6.9a7.539,7.539,0,0,0-.118-1.719,4.561,4.561,0,0,0-.671-1.572,4.7,4.7,0,0,0-2.783-1.948,6.843,6.843,0,0,0-1.766-.138H230.14l-3.693,0-7.536,0-66.22.014a6.487,6.487,0,0,0-2.126.211,4.729,4.729,0,0,0-1.8,1.068,4.781,4.781,0,0,0-1.431,3.829q0,4.351,0,8.643,0,8.58,0,16.9c0,11.077-.007,21.762-.01,31.941q0,7.635-.007,14.874c.005.6-.014,1.212.012,1.794a4.857,4.857,0,0,0,2.7,4.12,4.732,4.732,0,0,0,1.615.485c.553.056,1.142.031,1.715.037l3.424,0,25.181.021,36.462.055,9.913.032,2.578.017c.581.006.878.018.878.018s-.3.012-.878.018l-2.578.017-9.913.033-36.462.055-25.181.021-3.424,0c-.576-.006-1.147.021-1.749-.037a5.023,5.023,0,0,1-1.714-.511,5.158,5.158,0,0,1-2.869-4.37c-.028-.614-.009-1.2-.015-1.81q0-7.232-.007-14.874c0-10.179-.007-20.864-.01-31.941q0-8.308,0-16.9,0-4.291,0-8.643a5.138,5.138,0,0,1,1.537-4.08,5.078,5.078,0,0,1,1.938-1.149,6.827,6.827,0,0,1,2.23-.227l66.22.013,7.536,0h5.521a7.119,7.119,0,0,1,1.839.15,5,5,0,0,1,2.961,2.077,4.876,4.876,0,0,1,.713,1.674,7.79,7.79,0,0,1,.122,1.785q0,3.507,0,6.9c-.007,9.051-.015,17.482-.021,25.181-.023,15.391-.042,27.848-.055,36.464q-.005,1.614-.008,3.047a12.319,12.319,0,0,1-.149,2.676,5.723,5.723,0,0,1-2.312,3.421,5.625,5.625,0,0,1-2.388.94,4.19,4.19,0,0,1-.656.055c-.147,0-.221,0-.221,0" transform="translate(-48.726 -58.831)" fill="#263238"/>
        <path id="Trazado_624129" data-name="Trazado 624129" d="M111.128,178.848H31.549a5.05,5.05,0,0,1-5.05-5.05V99.419a4.789,4.789,0,0,1,4.788-4.789h80.67a4.837,4.837,0,0,1,4.837,4.838v73.715a5.666,5.666,0,0,1-5.666,5.666" transform="translate(-8.785 -31.373)" fill="#fff"/>
        <rect id="Rectángulo_327555" data-name="Rectángulo 327555" width="45.67" height="45.67" transform="translate(17.714 76.928)" fill="#f5f5f5"/>
        <path id="Trazado_624130" data-name="Trazado 624130" d="M116.794,108.3H26.5V99.419a4.789,4.789,0,0,1,4.789-4.789h80.67a4.837,4.837,0,0,1,4.837,4.838Z" transform="translate(-8.785 -31.373)" fill="#ffb338"/>
        <path id="Trazado_624131" data-name="Trazado 624131" d="M37.013,104.374a1.7,1.7,0,1,1-1.7-1.7,1.7,1.7,0,0,1,1.7,1.7" transform="translate(-11.141 -34.039)" fill="#fff"/>
        <path id="Trazado_624132" data-name="Trazado 624132" d="M44.719,104.374a1.7,1.7,0,1,1-1.7-1.7,1.7,1.7,0,0,1,1.7,1.7" transform="translate(-13.696 -34.039)" fill="#fff"/>
        <path id="Trazado_624133" data-name="Trazado 624133" d="M52.424,104.374a1.7,1.7,0,1,1-1.7-1.7,1.7,1.7,0,0,1,1.7,1.7" transform="translate(-16.251 -34.039)" fill="#fff"/>
        <path id="Trazado_624134" data-name="Trazado 624134" d="M133.516,136.733c0,.1-6.582.174-14.7.174s-14.7-.078-14.7-.174,6.58-.174,14.7-.174,14.7.078,14.7.174" transform="translate(-34.517 -45.274)" fill="#263238"/>
        <path id="Trazado_624135" data-name="Trazado 624135" d="M133.516,143.359c0,.1-6.582.174-14.7.174s-14.7-.078-14.7-.174,6.58-.174,14.7-.174,14.7.078,14.7.174" transform="translate(-34.517 -47.47)" fill="#263238"/>
        <path id="Trazado_624136" data-name="Trazado 624136" d="M133.516,149.985c0,.1-6.582.174-14.7.174s-14.7-.078-14.7-.174,6.58-.174,14.7-.174,14.7.078,14.7.174" transform="translate(-34.517 -49.667)" fill="#263238"/>
        <path id="Trazado_624137" data-name="Trazado 624137" d="M133.516,163.713c0,.1-6.582.174-14.7.174s-14.7-.078-14.7-.174,6.58-.174,14.7-.174,14.7.078,14.7.174" transform="translate(-34.517 -54.218)" fill="#263238"/>
        <path id="Trazado_624138" data-name="Trazado 624138" d="M120.787,170.339c0,.1-3.733.174-8.336.174s-8.336-.078-8.336-.174,3.731-.174,8.336-.174,8.336.078,8.336.174" transform="translate(-34.517 -56.415)" fill="#263238"/>
        <path id="Trazado_624139" data-name="Trazado 624139" d="M117.639,156.611a65.832,65.832,0,0,1-6.762.174,65.829,65.829,0,0,1-6.762-.174,65.821,65.821,0,0,1,6.762-.174,65.824,65.824,0,0,1,6.762.174" transform="translate(-34.517 -51.864)" fill="#ff725e"/>
        <path id="Trazado_624140" data-name="Trazado 624140" d="M117.639,128.6a65.829,65.829,0,0,1-6.762.174,65.826,65.826,0,0,1-6.762-.174,65.824,65.824,0,0,1,6.762-.174,65.826,65.826,0,0,1,6.762.174" transform="translate(-34.517 -42.578)" fill="#ff725e"/>
        <path id="Trazado_624141" data-name="Trazado 624141" d="M44.627,160.932l4.542-.379s2.506,3.3,5.915,3.048,3.78-2.544,3.78-2.544,6.08,1.17,9.383,4.665l.076.1,4.373,10.008H42.521Z" transform="translate(-14.097 -53.228)" fill="#3d672f"/>
        <path id="Trazado_624142" data-name="Trazado 624142" d="M40.933,161.073a13.535,13.535,0,0,0-3.8,1.229c-3.209,1.888-6.006,13.7-6.006,13.7h8.947a34.944,34.944,0,0,0,3.511-6.961,22.5,22.5,0,0,0-.308-4.479s-2.342-3.41-2.344-3.485" transform="translate(-10.32 -53.401)" fill="#3d672f"/>
        <path id="Trazado_624143" data-name="Trazado 624143" d="M77.786,179.345c-.068,0-.07-.73-.278-1.588s-.518-1.52-.455-1.549a3.481,3.481,0,0,1,.67,1.5,3.222,3.222,0,0,1,.063,1.64" transform="translate(-25.543 -58.418)" fill="#263238"/>
        <path id="Trazado_624144" data-name="Trazado 624144" d="M44.517,178.433a9.485,9.485,0,0,1,.222-1.235,30.05,30.05,0,0,0,.424-2.985c.1-1.174.124-2.241.127-3.015a8.528,8.528,0,0,1,.028-1.255,6,6,0,0,1,.128,1.252,22.881,22.881,0,0,1-.063,3.038,20.355,20.355,0,0,1-.491,3,5.682,5.682,0,0,1-.375,1.2" transform="translate(-14.757 -56.342)" fill="#263238"/>
        <path id="Trazado_624145" data-name="Trazado 624145" d="M111.055,208.279H31.327a5.05,5.05,0,0,1-5.05-5.05V183.4h90.444v19.212a5.666,5.666,0,0,1-5.666,5.666" transform="translate(-8.712 -60.803)" fill="#3d672f" opacity="0.21"/>
        <path id="Trazado_624146" data-name="Trazado 624146" d="M44.638,193.47a33.952,33.952,0,0,1-4.85.174,33.95,33.95,0,0,1-4.851-.174,33.944,33.944,0,0,1,4.851-.174,33.945,33.945,0,0,1,4.85.174" transform="translate(-11.583 -64.084)" fill="#263238"/>
        <path id="Trazado_624147" data-name="Trazado 624147" d="M65.5,198.763c0,.1-6.874.174-15.351.174s-15.353-.078-15.353-.174,6.873-.174,15.353-.174,15.351.078,15.351.174" transform="translate(-11.535 -65.839)" fill="#263238"/>
        <path id="Trazado_624148" data-name="Trazado 624148" d="M65.5,204.73c0,.1-6.874.174-15.351.174s-15.353-.078-15.353-.174,6.873-.174,15.353-.174,15.351.078,15.351.174" transform="translate(-11.535 -67.817)" fill="#263238"/>
        <path id="Trazado_624149" data-name="Trazado 624149" d="M56.269,210.7c0,.1-4.808.174-10.738.174s-10.739-.078-10.739-.174,4.807-.174,10.739-.174,10.738.078,10.738.174" transform="translate(-11.535 -69.795)" fill="#263238"/>
        <path id="Trazado_624150" data-name="Trazado 624150" d="M112.083,193.47a33.952,33.952,0,0,1-4.85.174,33.95,33.95,0,0,1-4.851-.174,33.943,33.943,0,0,1,4.851-.174,33.945,33.945,0,0,1,4.85.174" transform="translate(-33.943 -64.084)" fill="#263238"/>
        <path id="Trazado_624151" data-name="Trazado 624151" d="M132.939,198.763c0,.1-6.874.174-15.351.174s-15.353-.078-15.353-.174,6.873-.174,15.353-.174,15.351.078,15.351.174" transform="translate(-33.895 -65.839)" fill="#263238"/>
        <path id="Trazado_624152" data-name="Trazado 624152" d="M132.939,204.73c0,.1-6.874.174-15.351.174s-15.353-.078-15.353-.174,6.873-.174,15.353-.174,15.351.078,15.351.174" transform="translate(-33.895 -67.817)" fill="#263238"/>
        <path id="Trazado_624153" data-name="Trazado 624153" d="M123.714,210.7c0,.1-4.808.174-10.738.174s-10.739-.078-10.739-.174,4.807-.174,10.739-.174,10.738.078,10.738.174" transform="translate(-33.895 -69.795)" fill="#263238"/>
        <path id="Trazado_624154" data-name="Trazado 624154" d="M111.036,178.761c0-.019.3,0,.872-.092a5.642,5.642,0,0,0,4.6-4.348,12.277,12.277,0,0,0,.13-2.653q0-1.432-.008-3.047c-.013-8.616-.032-21.073-.055-36.464-.006-7.7-.013-16.129-.021-25.181q0-3.394,0-6.9a7.577,7.577,0,0,0-.117-1.719,4.584,4.584,0,0,0-.672-1.572,4.7,4.7,0,0,0-2.783-1.947,6.84,6.84,0,0,0-1.766-.138h-1.828l-3.693,0-7.536,0-66.22.014a6.489,6.489,0,0,0-2.126.211A4.729,4.729,0,0,0,28.011,96a4.784,4.784,0,0,0-1.431,3.829q0,4.351,0,8.643,0,8.58,0,16.9c0,11.077-.007,21.762-.01,31.941q0,7.635-.007,14.874c.005.6-.014,1.212.012,1.793a4.857,4.857,0,0,0,2.7,4.12,4.735,4.735,0,0,0,1.616.485c.553.056,1.141.031,1.714.037l3.424,0,25.181.021,36.462.055,9.913.032,2.578.017c.581.006.878.018.878.018s-.3.012-.878.018l-2.578.017-9.913.033-36.462.055-25.181.021-3.424,0c-.576-.006-1.146.021-1.748-.037a5.024,5.024,0,0,1-1.715-.511,5.157,5.157,0,0,1-2.869-4.37c-.028-.614-.008-1.2-.015-1.81q0-7.232-.007-14.874c0-10.179-.007-20.864-.01-31.941q0-8.308,0-16.9,0-4.291,0-8.643a5.136,5.136,0,0,1,1.538-4.08A5.071,5.071,0,0,1,29.708,94.6a6.827,6.827,0,0,1,2.23-.227l66.22.013,7.536,0,3.693,0h1.828a7.147,7.147,0,0,1,1.839.15,5,5,0,0,1,2.961,2.077,4.863,4.863,0,0,1,.713,1.674,7.79,7.79,0,0,1,.122,1.785q0,3.507,0,6.9c-.007,9.051-.015,17.482-.021,25.181-.023,15.391-.042,27.848-.055,36.464q0,1.614-.008,3.047a12.279,12.279,0,0,1-.149,2.676,5.723,5.723,0,0,1-2.312,3.421,5.615,5.615,0,0,1-2.388.94,4.185,4.185,0,0,1-.656.055c-.147,0-.221,0-.221,0" transform="translate(-8.693 -31.285)" fill="#263238"/>
        <path id="Trazado_624155" data-name="Trazado 624155" d="M48.06,125.933a11.172,11.172,0,0,1,8.646-4.294,12.025,12.025,0,0,1,4.191.755,6.2,6.2,0,0,1,3.534,2.333,10.353,10.353,0,0,1,2.033,4.735,29.056,29.056,0,0,1,.256,5.336,9.736,9.736,0,0,1-1.668,5.013l-4.535.786a28.592,28.592,0,0,1-7.483-.4,9.611,9.611,0,0,1-6.117-4.013c-1.816-2.965-1.062-7.559,1.143-10.248" transform="translate(-15.217 -40.327)" fill="#263238"/>
        <path id="Trazado_624156" data-name="Trazado 624156" d="M72.5,150.586c-.009.011.074.112.271.237a2.227,2.227,0,0,0,.935.315,2.423,2.423,0,0,0,1.441-.291,2.411,2.411,0,0,0,.873-3.221,2.425,2.425,0,0,0-1.1-.977,2.238,2.238,0,0,0-.966-.2.7.7,0,0,0-.354.069,3.4,3.4,0,0,1,1.237.3,2.338,2.338,0,0,1,.963.927,2.22,2.22,0,0,1-.781,2.884,2.344,2.344,0,0,1-1.3.316,3.386,3.386,0,0,1-1.22-.362" transform="translate(-24.035 -48.553)" fill="#e0e0e0"/>
        <path id="Trazado_624157" data-name="Trazado 624157" d="M42.545,146.282a3.378,3.378,0,0,1,1.535-2.547,2.443,2.443,0,0,1,2.863.248l.713.847a2.921,2.921,0,0,1,1.684,2.946,3.2,3.2,0,0,1-2.225,2.618,3.557,3.557,0,0,1-3.38-.815,3.968,3.968,0,0,1-1.189-3.3" transform="translate(-14.097 -47.538)" fill="#263238"/>
        <path id="Trazado_624158" data-name="Trazado 624158" d="M43.7,149.891a1.531,1.531,0,0,1-.244-.9,4.086,4.086,0,0,1,1.038-2.034,6.136,6.136,0,0,1,1.817-1.454c.531-.284.9-.388.885-.426a2.489,2.489,0,0,0-.955.285,5.466,5.466,0,0,0-1.917,1.451,5.348,5.348,0,0,0-.733,1.113,2.44,2.44,0,0,0-.293,1.06,1.276,1.276,0,0,0,.2.717c.1.146.19.2.2.188" transform="translate(-14.356 -48.096)" fill="#455a64"/>
        <path id="Trazado_624159" data-name="Trazado 624159" d="M47.075,151.457a7.974,7.974,0,0,1,1.493-5.693,2.414,2.414,0,0,0-.6.671,6.285,6.285,0,0,0-1.086,4.143,2.424,2.424,0,0,0,.193.878" transform="translate(-15.534 -48.325)" fill="#455a64"/>
        <path id="Trazado_624160" data-name="Trazado 624160" d="M62.667,150.184s-.024-4.205-.024-4.2,3.7-.406,4.719-5.136a50.922,50.922,0,0,0,.576-9.439c-.023-2.872-2.474-6.783-6.028-6.8l-1.579-.183-6.046,2.4a1.683,1.683,0,0,0-1.6,1.62l-.182,20.2,10.1,14.157Z" transform="translate(-17.407 -41.254)" fill="#b56760"/>
        <path id="Trazado_624161" data-name="Trazado 624161" d="M64.091,146.906a1,1,0,0,1,.349-.621,1.033,1.033,0,0,1,1.251-.072,1.378,1.378,0,0,1,.525,1.294,1.26,1.26,0,0,1-.9.52,1.584,1.584,0,0,1-.169.005,1.133,1.133,0,0,1-.76-.3,1,1,0,0,1-.3-.827" transform="translate(-21.246 -48.416)" fill="#8a4a43"/>
        <path id="Trazado_624162" data-name="Trazado 624162" d="M72,139.509a.613.613,0,0,1-.625.585.586.586,0,0,1-.6-.586.613.613,0,0,1,.624-.585.587.587,0,0,1,.6.586" transform="translate(-23.463 -46.057)" fill="#263238"/>
        <path id="Trazado_624163" data-name="Trazado 624163" d="M72.631,137.169c-.08.076-.526-.293-1.186-.328s-1.162.269-1.229.185c-.033-.038.052-.178.271-.32a1.689,1.689,0,0,1,.989-.246,1.625,1.625,0,0,1,.939.36c.195.166.255.315.216.348" transform="translate(-23.277 -45.24)" fill="#263238"/>
        <path id="Trazado_624164" data-name="Trazado 624164" d="M67.625,142.254a4.41,4.41,0,0,1,1.082-.134c.169-.008.331-.033.366-.146a.854.854,0,0,0-.086-.5q-.2-.623-.428-1.308a21.953,21.953,0,0,1-.935-3.409,21.977,21.977,0,0,1,1.208,3.326q.213.688.406,1.314a.976.976,0,0,1,.051.664.425.425,0,0,1-.291.231,1.168,1.168,0,0,1-.288.024,4.309,4.309,0,0,1-1.086-.058" transform="translate(-22.417 -45.338)" fill="#263238"/>
        <path id="Trazado_624165" data-name="Trazado 624165" d="M64.54,155.656a12.2,12.2,0,0,1-6.309-2.055s1.524,3.4,6.333,3.216Z" transform="translate(-19.305 -50.924)" fill="#8a4a43"/>
        <path id="Trazado_624166" data-name="Trazado 624166" d="M64.623,145.5c.108,0,.07.715.655,1.255s1.352.5,1.352.6c.007.045-.178.13-.5.121a1.788,1.788,0,0,1-1.13-.464,1.552,1.552,0,0,1-.5-1.05c-.011-.3.079-.473.128-.466" transform="translate(-21.382 -48.24)" fill="#263238"/>
        <path id="Trazado_624167" data-name="Trazado 624167" d="M72.424,133.495c-.12.154-.619.019-1.212.036-.594,0-1.091.145-1.213-.007-.054-.074.019-.227.233-.378a1.88,1.88,0,0,1,1.954-.023c.215.145.291.3.238.372" transform="translate(-23.201 -44.048)" fill="#263238"/>
        <path id="Trazado_624168" data-name="Trazado 624168" d="M61.551,139.466a.614.614,0,0,0,.582.628.587.587,0,0,0,.642-.541.614.614,0,0,0-.581-.628.587.587,0,0,0-.643.541" transform="translate(-20.406 -46.057)" fill="#263238"/>
        <path id="Trazado_624169" data-name="Trazado 624169" d="M60.3,136.86c.075.082.546-.254,1.207-.241s1.139.351,1.212.271c.036-.035-.039-.18-.247-.338a1.692,1.692,0,0,0-.969-.317,1.617,1.617,0,0,0-.962.292c-.206.152-.277.295-.241.332" transform="translate(-19.989 -45.167)" fill="#263238"/>
        <path id="Trazado_624170" data-name="Trazado 624170" d="M59.729,134.724c.128.152.64.005,1.253.009.612-.015,1.13.12,1.252-.034.053-.075-.025-.227-.25-.372a1.892,1.892,0,0,0-1.014-.263,1.869,1.869,0,0,0-1,.283c-.22.15-.293.3-.237.377" transform="translate(-19.796 -44.446)" fill="#263238"/>
        <path id="Trazado_624171" data-name="Trazado 624171" d="M52.281,141.756c.019-.356-.347-1.215-.7-1.289-.931-.2-2.628-.215-2.774,2.164-.2,3.251,3.112,2.781,3.124,2.689.009-.073.281-2.336.346-3.563" transform="translate(-16.18 -46.543)" fill="#b56760"/>
        <path id="Trazado_624172" data-name="Trazado 624172" d="M51.568,144.611c-.013-.011-.059.036-.158.074a.57.57,0,0,1-.425-.017,1.4,1.4,0,0,1-.572-1.3,1.883,1.883,0,0,1,.209-.8.655.655,0,0,1,.454-.408.289.289,0,0,1,.326.175c.038.094.013.158.031.164s.073-.049.055-.186a.361.361,0,0,0-.116-.212.434.434,0,0,0-.309-.1.8.8,0,0,0-.624.468,1.926,1.926,0,0,0-.253.894,1.472,1.472,0,0,0,.741,1.455.611.611,0,0,0,.525-.054c.106-.074.127-.146.116-.152" transform="translate(-16.638 -47.078)" fill="#8a4a43"/>
        <path id="Trazado_624173" data-name="Trazado 624173" d="M51.908,134.932l.828.857c3.575-3.415,10.562-11.965,10.172-11.456a10.432,10.432,0,0,0-5.108-.553c-2.658.452-7.7,1.779-7.623,4.908a16.3,16.3,0,0,0,1.731,6.243" transform="translate(-16.635 -40.999)" fill="#263238"/>
        <path id="Trazado_624174" data-name="Trazado 624174" d="M50.988,150.586c.009.011-.074.112-.271.237a2.227,2.227,0,0,1-.935.315,2.424,2.424,0,0,1-1.441-.291,2.411,2.411,0,0,1-.873-3.221,2.425,2.425,0,0,1,1.1-.977,2.24,2.24,0,0,1,.966-.2.7.7,0,0,1,.354.069,3.4,3.4,0,0,0-1.237.3,2.337,2.337,0,0,0-.963.927,2.22,2.22,0,0,0,.781,2.884,2.344,2.344,0,0,0,1.3.316,3.386,3.386,0,0,0,1.22-.362" transform="translate(-15.639 -48.553)" fill="#e0e0e0"/>
        <path id="Trazado_624175" data-name="Trazado 624175" d="M45.684,134.176a.881.881,0,0,1,.049-.188,3.306,3.306,0,0,1,.223-.513,4.736,4.736,0,0,1,1.362-1.529,8.923,8.923,0,0,1,2.742-1.316c1.09-.354,2.318-.629,3.525-1.146a15.984,15.984,0,0,0,3.219-1.8,16.684,16.684,0,0,0,2.272-1.982,17.512,17.512,0,0,0,1.314-1.556l.327-.448a.825.825,0,0,1,.123-.151.908.908,0,0,1-.095.17c-.068.107-.164.269-.3.467a14.8,14.8,0,0,1-1.28,1.6,15.936,15.936,0,0,1-2.268,2.026,15.624,15.624,0,0,1-3.245,1.829,35.969,35.969,0,0,1-3.543,1.138,9.056,9.056,0,0,0-2.718,1.265,4.886,4.886,0,0,0-1.375,1.466c-.239.415-.312.675-.329.669" transform="translate(-15.145 -40.96)" fill="#455a64"/>
        <path id="Trazado_624176" data-name="Trazado 624176" d="M47.1,135.032a1.711,1.711,0,0,1,.126-.711,3.321,3.321,0,0,1,1.225-1.531,7.374,7.374,0,0,1,2.719-1.064,16.142,16.142,0,0,0,3.378-1.07,14.351,14.351,0,0,0,3.013-1.856,14.693,14.693,0,0,0,2.065-2.025,15.477,15.477,0,0,0,1.151-1.579c.112-.185.2-.336.276-.456a.784.784,0,0,1,.107-.154.79.79,0,0,1-.077.17c-.066.124-.149.281-.25.473a13.308,13.308,0,0,1-1.116,1.62,14.035,14.035,0,0,1-5.1,3.958,15.729,15.729,0,0,1-3.413,1.068,7.467,7.467,0,0,0-2.686,1.01,3.354,3.354,0,0,0-1.232,1.459,3.89,3.89,0,0,0-.187.687" transform="translate(-15.615 -41.305)" fill="#455a64"/>
        <path id="Trazado_624177" data-name="Trazado 624177" d="M217.569,84.482H137.99a5.05,5.05,0,0,1-5.05-5.05V5.053A4.789,4.789,0,0,1,137.728.264H218.4A4.837,4.837,0,0,1,223.235,5.1V78.816a5.666,5.666,0,0,1-5.666,5.666" transform="translate(-44.074 -0.088)" fill="#fff"/>
        <rect id="Rectángulo_327556" data-name="Rectángulo 327556" width="45.67" height="45.67" transform="translate(88.866 13.847)" fill="#f5f5f5"/>
        <path id="Trazado_624178" data-name="Trazado 624178" d="M223.236,13.935h-90.3V5.053A4.789,4.789,0,0,1,137.729.265H218.4A4.837,4.837,0,0,1,223.236,5.1Z" transform="translate(-44.074 -0.088)" fill="#ffb338"/>
        <path id="Trazado_624179" data-name="Trazado 624179" d="M143.454,10.008a1.7,1.7,0,1,1-1.7-1.7,1.7,1.7,0,0,1,1.7,1.7" transform="translate(-46.43 -2.753)" fill="#fff"/>
        <path id="Trazado_624180" data-name="Trazado 624180" d="M151.16,10.008a1.7,1.7,0,1,1-1.7-1.7,1.7,1.7,0,0,1,1.7,1.7" transform="translate(-48.985 -2.753)" fill="#fff"/>
        <path id="Trazado_624181" data-name="Trazado 624181" d="M158.866,10.008a1.7,1.7,0,1,1-1.7-1.7,1.7,1.7,0,0,1,1.7,1.7" transform="translate(-51.54 -2.753)" fill="#fff"/>
        <path id="Trazado_624182" data-name="Trazado 624182" d="M239.958,42.367c0,.1-6.582.174-14.7.174s-14.7-.078-14.7-.174,6.58-.174,14.7-.174,14.7.078,14.7.174" transform="translate(-69.806 -13.988)" fill="#263238"/>
        <path id="Trazado_624183" data-name="Trazado 624183" d="M239.958,48.993c0,.1-6.582.174-14.7.174s-14.7-.078-14.7-.174,6.58-.174,14.7-.174,14.7.078,14.7.174" transform="translate(-69.806 -16.185)" fill="#263238"/>
        <path id="Trazado_624184" data-name="Trazado 624184" d="M239.958,55.619c0,.1-6.582.174-14.7.174s-14.7-.078-14.7-.174,6.58-.174,14.7-.174,14.7.078,14.7.174" transform="translate(-69.806 -18.382)" fill="#263238"/>
        <path id="Trazado_624185" data-name="Trazado 624185" d="M239.958,69.348c0,.1-6.582.174-14.7.174s-14.7-.078-14.7-.174,6.58-.174,14.7-.174,14.7.078,14.7.174" transform="translate(-69.806 -22.933)" fill="#263238"/>
        <path id="Trazado_624186" data-name="Trazado 624186" d="M227.229,75.974c0,.1-3.733.174-8.336.174s-8.336-.078-8.336-.174,3.731-.174,8.336-.174,8.336.078,8.336.174" transform="translate(-69.806 -25.13)" fill="#263238"/>
        <path id="Trazado_624187" data-name="Trazado 624187" d="M224.08,62.245a65.824,65.824,0,0,1-6.762.174,65.822,65.822,0,0,1-6.762-.174,65.826,65.826,0,0,1,6.762-.174,65.828,65.828,0,0,1,6.762.174" transform="translate(-69.806 -20.579)" fill="#ff725e"/>
        <path id="Trazado_624188" data-name="Trazado 624188" d="M224.08,34.236a65.823,65.823,0,0,1-6.762.174,65.821,65.821,0,0,1-6.762-.174,65.824,65.824,0,0,1,6.762-.174,65.826,65.826,0,0,1,6.762.174" transform="translate(-69.806 -11.293)" fill="#ff725e"/>
        <path id="Trazado_624189" data-name="Trazado 624189" d="M169.362,33.584a6.018,6.018,0,0,0-2.985-3.562,7.594,7.594,0,0,0-5.118-.47,16.073,16.073,0,0,0-4.767,2.132,7.878,7.878,0,0,0-2.254,1.865,11.2,11.2,0,0,0-2.166,5.555,19.76,19.76,0,0,0,1.259,6.343,3.254,3.254,0,0,0,1.421,1.211,12.3,12.3,0,0,0,2.715,3.387q.461-1.469.922-2.939Z" transform="translate(-50.416 -9.72)" fill="#263238"/>
        <path id="Trazado_624190" data-name="Trazado 624190" d="M175.2,32.858l-2.862-.428c1.662,3.663,2.326,12.127,3.328,16.023,1.006-1.553,3.312-6.262,3.128-8.1s-.221-7.9-3.6-7.492" transform="translate(-57.135 -10.752)" fill="#263238"/>
        <path id="Trazado_624191" data-name="Trazado 624191" d="M156.676,39.667a4.866,4.866,0,0,1,3.531-4.583l6.51-1.86c2.826-.386,4.818,3.046,5.084,5.885a45.123,45.123,0,0,1,.217,8.855c-.608,4.765-4.223,5.48-4.223,5.48s.064,2.255.1,3.64l-1.06,6.207-8.584-7.327-1.59-16.238c0-.082.011.05.015-.058" transform="translate(-51.938 -11.005)" fill="#ffbe9d"/>
        <path id="Trazado_624192" data-name="Trazado 624192" d="M176.51,47.334a.608.608,0,0,1-.568.632.582.582,0,0,1-.644-.529.609.609,0,0,1,.567-.632.582.582,0,0,1,.644.529" transform="translate(-58.117 -15.517)" fill="#263238"/>
        <path id="Trazado_624193" data-name="Trazado 624193" d="M177.131,44.551c-.073.082-.544-.245-1.2-.223s-1.124.364-1.2.286c-.036-.035.037-.18.241-.339a1.667,1.667,0,0,1,.955-.327,1.607,1.607,0,0,1,.957.277c.206.148.279.289.243.326" transform="translate(-57.928 -14.57)" fill="#263238"/>
        <path id="Trazado_624194" data-name="Trazado 624194" d="M167.749,47.57a.609.609,0,0,1-.568.632.583.583,0,0,1-.644-.529.609.609,0,0,1,.567-.632.582.582,0,0,1,.644.529" transform="translate(-55.212 -15.595)" fill="#263238"/>
        <path id="Trazado_624195" data-name="Trazado 624195" d="M167.834,44.817c-.074.082-.545-.245-1.2-.223s-1.124.364-1.2.286c-.036-.035.035-.18.241-.339a1.671,1.671,0,0,1,.955-.327,1.6,1.6,0,0,1,.957.277c.205.148.278.289.243.326" transform="translate(-54.845 -14.658)" fill="#263238"/>
        <path id="Trazado_624196" data-name="Trazado 624196" d="M172.072,50.017a4.374,4.374,0,0,1,1.057-.225c.166-.022.324-.06.348-.175a.849.849,0,0,0-.126-.492l-.533-1.257a21.931,21.931,0,0,1-1.213-3.294,21.861,21.861,0,0,1,1.475,3.189q.269.663.513,1.265a.965.965,0,0,1,.107.653.42.42,0,0,1-.267.253,1.117,1.117,0,0,1-.283.048,4.24,4.24,0,0,1-1.077.035" transform="translate(-56.89 -14.778)" fill="#263238"/>
        <path id="Trazado_624197" data-name="Trazado 624197" d="M163.836,61.229s1.636,3.213,6.368,2.623l-.03-1.115a11.954,11.954,0,0,1-6.338-1.508" transform="translate(-54.317 -20.299)" fill="#eb996e"/>
        <path id="Trazado_624198" data-name="Trazado 624198" d="M167.142,41.362c-.059.18-.715.116-1.48.232-.767.1-1.379.344-1.486.188-.047-.075.055-.245.3-.425a2.6,2.6,0,0,1,2.259-.32c.285.1.431.24.406.326" transform="translate(-54.426 -13.563)" fill="#263238"/>
        <path id="Trazado_624199" data-name="Trazado 624199" d="M176.812,41.546c-.11.152-.566.011-1.108.021-.543-.01-1,.13-1.108-.022-.049-.074.019-.225.215-.372a1.605,1.605,0,0,1,1.786,0c.2.147.264.3.215.372" transform="translate(-57.879 -13.56)" fill="#263238"/>
        <path id="Trazado_624200" data-name="Trazado 624200" d="M169.843,33.928a2.086,2.086,0,0,0-1.876-1.128,4.052,4.052,0,0,0-2.169.7c-2.777,1.713-4.116,5.7-6.858,7.466-.674.435-1.579.08-2.146.646a2.015,2.015,0,0,0-.578,2.183,6.677,6.677,0,0,1-1.015-1.61,2.243,2.243,0,0,1,.025-1.85c.23-.425.647-.757.751-1.229a6.3,6.3,0,0,0-.078-1.267,2.758,2.758,0,0,1,.4-1.222,12.314,12.314,0,0,1,4.4-4.9,8.037,8.037,0,0,1,4.13-1.2,6.141,6.141,0,0,1,4,1.459c.64.564,1.314,1.147,1.013,1.946" transform="translate(-51.392 -10.119)" fill="#263238"/>
        <path id="Trazado_624201" data-name="Trazado 624201" d="M156.557,47.876a1.655,1.655,0,0,0-2.511,1.673,1.92,1.92,0,0,0,2.607,1.906c0-.074-.1-3.579-.1-3.579" transform="translate(-51.071 -15.797)" fill="#ffbe9d"/>
        <path id="Trazado_624202" data-name="Trazado 624202" d="M156.165,50.919c-.011-.008-.044.032-.118.068a.447.447,0,0,1-.333.013,1.1,1.1,0,0,1-.528-.978,1.465,1.465,0,0,1,.112-.64.511.511,0,0,1,.328-.348.226.226,0,0,1,.265.116c.035.071.021.122.034.126s.054-.043.031-.148a.282.282,0,0,0-.1-.158.336.336,0,0,0-.247-.06.626.626,0,0,0-.457.4,1.516,1.516,0,0,0-.141.715,1.157,1.157,0,0,0,.67,1.091.475.475,0,0,0,.406-.076c.078-.064.09-.122.082-.126" transform="translate(-51.389 -16.214)" fill="#eb996e"/>
        <path id="Trazado_624203" data-name="Trazado 624203" d="M156.227,41.647a1.045,1.045,0,0,0,.151-.09c.1-.065.244-.152.42-.285a8.783,8.783,0,0,0,1.343-1.294,24.477,24.477,0,0,0,1.624-2.239,20.142,20.142,0,0,1,2.033-2.685,8.052,8.052,0,0,1,1.33-1.113,6.638,6.638,0,0,1,1.451-.709,7.275,7.275,0,0,1,2.7-.409,6.972,6.972,0,0,1,1.823.3c.211.057.368.124.478.162a.923.923,0,0,0,.168.054,1.118,1.118,0,0,0-.16-.076,4.427,4.427,0,0,0-.473-.183,6.608,6.608,0,0,0-1.833-.342,7.209,7.209,0,0,0-2.735.39,6.618,6.618,0,0,0-1.477.714,8.015,8.015,0,0,0-1.351,1.129,19.524,19.524,0,0,0-2.039,2.705,26.356,26.356,0,0,1-1.6,2.246,9.512,9.512,0,0,1-1.308,1.312c-.17.137-.314.229-.406.3a.916.916,0,0,0-.138.11" transform="translate(-51.794 -10.851)" fill="#fff"/>
        <path id="Trazado_624204" data-name="Trazado 624204" d="M157.214,45.276a3.935,3.935,0,0,0,.309,2.047,1.355,1.355,0,0,0,1.761.645,1.93,1.93,0,0,0,.685-1.5c.2-1.634.26-3.282.47-4.913Z" transform="translate(-52.119 -13.776)" fill="#263238"/>
        <path id="Trazado_624205" data-name="Trazado 624205" d="M169.937,33.779c0,.015-.227-.036-.636-.037a4.372,4.372,0,0,0-1.682.357,5.611,5.611,0,0,0-1.043.576,11.394,11.394,0,0,0-1.068.866,13.13,13.13,0,0,0-2.073,2.366c-.311.465-.586.942-.884,1.384a6.507,6.507,0,0,1-.991,1.181,11.362,11.362,0,0,1-2.117,1.505c-.644.364-1.183.622-1.555.8l-.432.2a.677.677,0,0,1-.155.06.8.8,0,0,1,.142-.086l.419-.222c.364-.193.9-.465,1.529-.838a11.8,11.8,0,0,0,2.078-1.515,6.427,6.427,0,0,0,.965-1.162c.293-.438.567-.915.882-1.385a12.865,12.865,0,0,1,2.1-2.385,11.12,11.12,0,0,1,1.09-.865A5.554,5.554,0,0,1,167.581,34a4.221,4.221,0,0,1,1.721-.318,2.9,2.9,0,0,1,.475.052.736.736,0,0,1,.161.041" transform="translate(-52.15 -11.167)" fill="#455a64"/>
        <path id="Trazado_624206" data-name="Trazado 624206" d="M155.624,43.157a1.163,1.163,0,0,1-.221.159l-.636.4-.214.131a.691.691,0,0,1-.277.1.267.267,0,0,1-.174-.036.22.22,0,0,1-.1-.166.569.569,0,0,1,.112-.326l.717-1.223.1.091a2.674,2.674,0,0,1-1.72.567.775.775,0,0,1-.233-.033.313.313,0,0,1-.2-.167.279.279,0,0,1,.035-.259,1.111,1.111,0,0,1,.141-.164,5.361,5.361,0,0,0,.839-1.122,9.085,9.085,0,0,0,.519-1.192,1.35,1.35,0,0,1-.071.346,4.74,4.74,0,0,1-.36.894,5.157,5.157,0,0,1-.832,1.166c-.093.092-.184.2-.145.278s.179.116.313.112a2.548,2.548,0,0,0,.862-.129,2.587,2.587,0,0,0,.767-.407l.3-.232-.195.323-.732,1.215a.475.475,0,0,0-.1.253.121.121,0,0,0,.15.1,1.308,1.308,0,0,0,.454-.2l.657-.362a1.155,1.155,0,0,1,.247-.116" transform="translate(-50.644 -13.233)" fill="#fff"/>
        <path id="Trazado_624207" data-name="Trazado 624207" d="M168.628,54.294a.855.855,0,0,1,.864-.674.9.9,0,0,1,.7.469,1.1,1.1,0,0,1,.063.853l-.012.062a.973.973,0,0,1-1.088.264.91.91,0,0,1-.528-.974" transform="translate(-55.901 -17.776)" fill="#eb996e"/>
        <path id="Trazado_624208" data-name="Trazado 624208" d="M170.836,54.79c0-.1-.662-.049-1.176-.578s-.5-1.238-.589-1.236c-.042-.006-.116.167-.1.465a1.648,1.648,0,0,0,.454,1.034,1.437,1.437,0,0,0,.983.442c.278,0,.436-.083.428-.128" transform="translate(-56.018 -17.564)" fill="#263238"/>
        <path id="Trazado_624209" data-name="Trazado 624209" d="M167.5,52.606c-.028,0-.068-.084-.049-.231a.726.726,0,0,1,.855-.6c.145.031.213.1.2.123-.017.056-.342-.026-.63.178s-.32.537-.378.535" transform="translate(-55.513 -17.159)" fill="#eb996e"/>
        <path id="Trazado_624210" data-name="Trazado 624210" d="M163.014,47.237c-.007-.059.187-.129.425-.082s.392.184.364.236-.2.02-.406-.019-.377-.073-.383-.135" transform="translate(-54.044 -15.628)" fill="#eb996e"/>
        <path id="Trazado_624211" data-name="Trazado 624211" d="M178.533,47.924c-.039-.046.025-.158.164-.182s.236.062.214.119-.1.085-.178.1-.162.012-.2-.037" transform="translate(-59.186 -15.827)" fill="#eb996e"/>
        <path id="Trazado_624212" data-name="Trazado 624212" d="M163.257,46.688c.005-.06.176-.09.361-.007s.277.231.236.275-.175-.006-.326-.072-.279-.134-.271-.2" transform="translate(-54.125 -15.46)" fill="#eb996e"/>
        <path id="Trazado_624213" data-name="Trazado 624213" d="M151.068,66.566l4.542-.379s2.506,3.3,5.915,3.048,3.78-2.544,3.78-2.544,6.08,1.17,9.383,4.666l.076.095,4.373,10.009H148.962Z" transform="translate(-49.386 -21.943)" fill="#eb6f2d"/>
        <path id="Trazado_624214" data-name="Trazado 624214" d="M147.375,66.707a13.535,13.535,0,0,0-3.8,1.229c-3.209,1.888-6.006,13.7-6.006,13.7h8.947a34.984,34.984,0,0,0,3.511-6.961,22.5,22.5,0,0,0-.308-4.479s-2.343-3.41-2.344-3.485" transform="translate(-45.609 -22.116)" fill="#eb6f2d"/>
        <path id="Trazado_624215" data-name="Trazado 624215" d="M184.227,84.979c-.068,0-.07-.73-.278-1.588s-.518-1.519-.455-1.549a3.481,3.481,0,0,1,.67,1.5,3.221,3.221,0,0,1,.063,1.64" transform="translate(-60.831 -27.133)" fill="#263238"/>
        <path id="Trazado_624216" data-name="Trazado 624216" d="M150.958,84.067a9.491,9.491,0,0,1,.222-1.235,30.009,30.009,0,0,0,.424-2.985c.1-1.174.124-2.241.127-3.015a8.523,8.523,0,0,1,.028-1.255,6,6,0,0,1,.128,1.252,22.887,22.887,0,0,1-.063,3.038,20.357,20.357,0,0,1-.491,3,5.681,5.681,0,0,1-.375,1.2" transform="translate(-50.046 -25.056)" fill="#263238"/>
        <path id="Trazado_624217" data-name="Trazado 624217" d="M217.5,113.913H137.768a5.05,5.05,0,0,1-5.05-5.05V89.035h90.444v19.212a5.666,5.666,0,0,1-5.666,5.666" transform="translate(-44 -29.518)" fill="#3d672f" opacity="0.21"/>
        <path id="Trazado_624218" data-name="Trazado 624218" d="M151.08,99.1a33.951,33.951,0,0,1-4.85.174,33.949,33.949,0,0,1-4.851-.174,33.945,33.945,0,0,1,4.851-.174,33.946,33.946,0,0,1,4.85.174" transform="translate(-46.872 -32.798)" fill="#263238"/>
        <path id="Trazado_624219" data-name="Trazado 624219" d="M171.936,104.4c0,.1-6.874.174-15.351.174s-15.353-.078-15.353-.174,6.873-.174,15.353-.174,15.351.078,15.351.174" transform="translate(-46.823 -34.553)" fill="#263238"/>
        <path id="Trazado_624220" data-name="Trazado 624220" d="M171.936,110.364c0,.1-6.874.174-15.351.174s-15.353-.078-15.353-.174,6.873-.174,15.353-.174,15.351.078,15.351.174" transform="translate(-46.823 -36.532)" fill="#263238"/>
        <path id="Trazado_624221" data-name="Trazado 624221" d="M162.711,116.331c0,.1-4.809.174-10.739.174s-10.739-.078-10.739-.174,4.807-.174,10.739-.174,10.739.078,10.739.174" transform="translate(-46.823 -38.51)" fill="#263238"/>
        <path id="Trazado_624222" data-name="Trazado 624222" d="M218.524,99.1a33.951,33.951,0,0,1-4.85.174,33.949,33.949,0,0,1-4.851-.174,33.945,33.945,0,0,1,4.851-.174,33.946,33.946,0,0,1,4.85.174" transform="translate(-69.232 -32.798)" fill="#263238"/>
        <path id="Trazado_624223" data-name="Trazado 624223" d="M239.381,104.4c0,.1-6.874.174-15.351.174s-15.353-.078-15.353-.174,6.873-.174,15.353-.174,15.351.078,15.351.174" transform="translate(-69.184 -34.553)" fill="#263238"/>
        <path id="Trazado_624224" data-name="Trazado 624224" d="M239.381,110.364c0,.1-6.874.174-15.351.174s-15.353-.078-15.353-.174,6.873-.174,15.353-.174,15.351.078,15.351.174" transform="translate(-69.184 -36.532)" fill="#263238"/>
        <path id="Trazado_624225" data-name="Trazado 624225" d="M230.155,116.331c0,.1-4.808.174-10.738.174s-10.739-.078-10.739-.174,4.807-.174,10.739-.174,10.738.078,10.738.174" transform="translate(-69.184 -38.51)" fill="#263238"/>
        <path id="Trazado_624226" data-name="Trazado 624226" d="M217.477,84.395c0-.019.3,0,.872-.092a5.642,5.642,0,0,0,4.6-4.348,12.278,12.278,0,0,0,.13-2.653q0-1.432-.008-3.047c-.013-8.616-.032-21.073-.055-36.464-.006-7.7-.013-16.129-.021-25.181q0-3.394,0-6.9a7.538,7.538,0,0,0-.118-1.719,4.561,4.561,0,0,0-.671-1.572A4.7,4.7,0,0,0,219.423.469a6.842,6.842,0,0,0-1.766-.138h-1.828l-3.693,0-7.536,0-66.22.014a6.489,6.489,0,0,0-2.126.211,4.729,4.729,0,0,0-1.8,1.068,4.784,4.784,0,0,0-1.431,3.829q0,4.351,0,8.643,0,8.58,0,16.9c0,11.077-.007,21.762-.01,31.941q0,7.635-.007,14.874c.005.6-.014,1.212.012,1.793a4.857,4.857,0,0,0,2.7,4.12,4.737,4.737,0,0,0,1.615.485c.553.055,1.142.031,1.715.037l3.424,0,25.181.021,36.462.055,9.913.033,2.578.017c.581.006.878.018.878.018s-.3.012-.878.018l-2.578.017-9.913.033-36.462.055-25.181.021-3.424,0c-.576-.006-1.146.021-1.748-.037a5.023,5.023,0,0,1-1.715-.511,5.158,5.158,0,0,1-2.869-4.37c-.028-.614-.009-1.2-.015-1.81q0-7.232-.007-14.874c0-10.179-.007-20.864-.01-31.941q0-8.308,0-16.9,0-4.291,0-8.643a5.136,5.136,0,0,1,1.538-4.08A5.07,5.07,0,0,1,136.149.23,6.827,6.827,0,0,1,138.379,0L204.6.016l7.536,0h5.521a7.118,7.118,0,0,1,1.839.15,5,5,0,0,1,2.961,2.077,4.864,4.864,0,0,1,.713,1.674,7.789,7.789,0,0,1,.122,1.785q0,3.507,0,6.9c-.007,9.051-.015,17.482-.021,25.181-.023,15.391-.042,27.848-.055,36.464q0,1.614-.008,3.047a12.28,12.28,0,0,1-.149,2.676,5.72,5.72,0,0,1-2.312,3.421,5.625,5.625,0,0,1-2.388.94,4.188,4.188,0,0,1-.656.055c-.147,0-.221,0-.221,0" transform="translate(-43.981 0)" fill="#263238"/>
      </g>
    </g>
    <g id="Grupo_877547" data-name="Grupo 877547">
      <g id="Grupo_877546" data-name="Grupo 877546" clip-path="url(#clip-path)">
        <path id="Trazado_624227" data-name="Trazado 624227" d="M353.32,48.6a3.079,3.079,0,0,1-1-6.045,3.2,3.2,0,0,1,3.063-5.253,3.834,3.834,0,0,1,5.932-2.844,4.31,4.31,0,0,1,5.306.163,3.066,3.066,0,0,1,2.439,5.331" transform="translate(-116.054 -11.149)" fill="#263238"/>
        <path id="Trazado_624228" data-name="Trazado 624228" d="M353.357,51a13.064,13.064,0,0,1,13.6-11.353l.676.033c7.264.788,10.654,7.4,9.665,14.637l-2.26,24.209-.122,1.175L357.94,82.24l.331-6.183s-6.95-1.437-6.688-8.444c.126-3.384.953-10.331,1.775-16.61" transform="translate(-116.558 -13.14)" fill="#9f7362"/>
        <path id="Trazado_624229" data-name="Trazado 624229" d="M361.478,93a17.007,17.007,0,0,0,9.309-2.229s-2.408,4.932-9.365,3.954Z" transform="translate(-119.823 -30.093)" fill="#65463c"/>
        <path id="Trazado_624230" data-name="Trazado 624230" d="M356.514,65.882a1,1,0,0,0,.913,1.057.957.957,0,0,0,1.076-.85,1,1,0,0,0-.912-1.058.958.958,0,0,0-1.076.851" transform="translate(-118.195 -21.558)" fill="#263238"/>
        <path id="Trazado_624231" data-name="Trazado 624231" d="M356.231,61.4c.118.136.9-.386,1.979-.33,1.076.041,1.838.634,1.961.508.06-.056-.054-.3-.386-.565a2.746,2.746,0,0,0-1.562-.568,2.632,2.632,0,0,0-1.583.425c-.344.238-.467.468-.409.529" transform="translate(-118.098 -20.04)" fill="#263238"/>
        <path id="Trazado_624232" data-name="Trazado 624232" d="M371.177,66.662a1,1,0,0,0,.914,1.057.958.958,0,0,0,1.076-.851,1,1,0,0,0-.913-1.057.958.958,0,0,0-1.077.851" transform="translate(-123.056 -21.817)" fill="#263238"/>
        <path id="Trazado_624233" data-name="Trazado 624233" d="M372.04,62.491c.118.136.9-.386,1.979-.33,1.075.041,1.838.633,1.961.507.061-.055-.053-.3-.386-.565a2.749,2.749,0,0,0-1.562-.568,2.64,2.64,0,0,0-1.584.425c-.342.238-.467.468-.409.529" transform="translate(-123.339 -20.4)" fill="#263238"/>
        <path id="Trazado_624234" data-name="Trazado 624234" d="M364.27,70.179a7.133,7.133,0,0,0-1.732-.4c-.273-.041-.531-.11-.568-.3a1.4,1.4,0,0,1,.224-.806l.916-2.052a36.052,36.052,0,0,0,2.1-5.382,36.122,36.122,0,0,0-2.525,5.2q-.462,1.082-.883,2.066a1.593,1.593,0,0,0-.2,1.072.69.69,0,0,0,.432.424,1.865,1.865,0,0,0,.463.088,7.03,7.03,0,0,0,1.771.091" transform="translate(-119.871 -20.302)" fill="#263238"/>
        <path id="Trazado_624235" data-name="Trazado 624235" d="M371.7,58.775c.128.28,1.066.03,2.2.049,1.138-.006,2.084.255,2.2-.023.051-.133-.138-.388-.537-.627a3.418,3.418,0,0,0-1.686-.443,3.29,3.29,0,0,0-1.669.422c-.389.234-.57.487-.513.62" transform="translate(-123.226 -19.14)" fill="#263238"/>
        <path id="Trazado_624236" data-name="Trazado 624236" d="M356.476,54.737c.215.255,1.115.046,2.184.087,1.07.01,1.965.263,2.185.017.1-.12-.033-.372-.416-.623a3.486,3.486,0,0,0-1.755-.489,3.427,3.427,0,0,0-1.766.405c-.39.233-.526.478-.432.6" transform="translate(-118.174 -17.813)" fill="#263238"/>
        <path id="Trazado_624237" data-name="Trazado 624237" d="M355.487,47.38s2.065-4.294,4.23-5.212c2.622-1.112,3.584,1.753,6.058,1.193s4.977-1.628,7.376.382c2.626,2.2,1.276,3.584,1.29,6.7.057,12.631,2.181,16.307,3.13,10.406.1-.646,1.934-1.074,2.338-3.807.523-3.544.875-7.862.206-10.429a9.984,9.984,0,0,0-3.8-5.427c-3.311-2.732-8.031-3.021-11.254-2.858s-9.59,3.547-9.57,9.052" transform="translate(-117.855 -12.695)" fill="#263238"/>
        <path id="Trazado_624238" data-name="Trazado 624238" d="M387.639,70.85a1.9,1.9,0,0,1,2.143-1.73c1.3.189,2.717,1,2.5,3.7-.39,4.78-5.109,3.4-5.106,3.264,0-.094.285-3.233.467-5.231" transform="translate(-128.36 -22.909)" fill="#9f7362"/>
        <path id="Trazado_624239" data-name="Trazado 624239" d="M388.945,75.141c.022-.013.079.066.214.141a.832.832,0,0,0,.622.063,2.066,2.066,0,0,0,1.1-1.77,2.761,2.761,0,0,0-.136-1.211.966.966,0,0,0-.574-.691.425.425,0,0,0-.51.189c-.075.128-.052.226-.078.232s-.1-.088-.041-.283a.535.535,0,0,1,.213-.284.63.63,0,0,1,.471-.084,1.173,1.173,0,0,1,.809.812,2.836,2.836,0,0,1,.18,1.356,2.168,2.168,0,0,1-1.384,1.965.9.9,0,0,1-.751-.189c-.138-.13-.155-.239-.138-.247" transform="translate(-128.946 -23.681)" fill="#65463c"/>
        <path id="Trazado_624240" data-name="Trazado 624240" d="M379.264,50.546a4.55,4.55,0,0,1-2.074.836,1.564,1.564,0,0,1-1.678-1.185c-.04-.336.061-.719-.146-.987-.246-.32-.733-.248-1.136-.225a3.059,3.059,0,0,1-3.063-2.348,1.284,1.284,0,0,1-1.729.077,6.872,6.872,0,0,1-1.235-1.46,1.974,1.974,0,0,0-1.6-.9,4.722,4.722,0,0,1-1.053.178c-.626-.087-.9-.838-.961-1.467s-.1-1.36-.617-1.726a2.512,2.512,0,0,0-1.71-.132c-.583.057-1.324-.116-1.443-.69a1.138,1.138,0,0,1,.257-.858,3.1,3.1,0,0,1,3.718-.992,4.208,4.208,0,0,1,7.762-.43,4.27,4.27,0,0,1,6.741,1.894,3.1,3.1,0,0,1,3.262,4.67,2.94,2.94,0,0,1,1.5,2.418,1.683,1.683,0,0,1-1.989,1.623,1.714,1.714,0,0,1-3.046,1.56" transform="translate(-119.618 -11.885)" fill="#263238"/>
        <path id="Trazado_624241" data-name="Trazado 624241" d="M366.133,42.138a.24.24,0,0,0,0,.088c0,.058,0,.145.018.257a3.014,3.014,0,0,0,.3.94,3.433,3.433,0,0,0,1.005,1.185,3.191,3.191,0,0,0,1.933.656l-.076-.11a1.734,1.734,0,0,0,.03,1.326A4.96,4.96,0,0,0,370.1,47.7a3.579,3.579,0,0,0,.509.576,1.681,1.681,0,0,0,.745.32,1.75,1.75,0,0,0,1.568-.476l-.177-.06a3.6,3.6,0,0,0,1.4,2.56,2.622,2.622,0,0,0,1.547.594,4.73,4.73,0,0,0,1.566-.263l-.126-.063a3.776,3.776,0,0,0,1.06,1.534,2.011,2.011,0,0,0,1.645.537,2.641,2.641,0,0,0,2.133-1.963l-.111.045a2.472,2.472,0,0,0,1.633.323,2.671,2.671,0,0,0,1.173-.455,2.309,2.309,0,0,0,.564-.558,1.1,1.1,0,0,0,.134-.242,2.861,2.861,0,0,1-.743.733,2.655,2.655,0,0,1-1.142.406,2.363,2.363,0,0,1-1.539-.332l-.087-.055-.024.1a2.491,2.491,0,0,1-2.017,1.817,1.828,1.828,0,0,1-1.492-.5,3.6,3.6,0,0,1-1-1.455l-.033-.09-.092.027a4.575,4.575,0,0,1-1.5.25,2.421,2.421,0,0,1-1.428-.551,3.4,3.4,0,0,1-1.324-2.413l-.019-.228-.158.168a1.553,1.553,0,0,1-1.385.419,1.484,1.484,0,0,1-.66-.277,3.487,3.487,0,0,1-.479-.539,4.844,4.844,0,0,1-.745-1.166,1.575,1.575,0,0,1-.045-1.2l.045-.112-.12,0a3.079,3.079,0,0,1-1.854-.6,3.414,3.414,0,0,1-1-1.124,3.706,3.706,0,0,1-.4-1.243" transform="translate(-121.383 -13.97)" fill="#455a64"/>
        <path id="Trazado_624242" data-name="Trazado 624242" d="M368.206,79.044a15.668,15.668,0,0,1-4.614.648,15.67,15.67,0,0,1,4.614-.648" transform="translate(-120.542 -26.191)" fill="#263238"/>
        <path id="Trazado_624243" data-name="Trazado 624243" d="M410.288,354.267a7.7,7.7,0,0,0,0,1.267c.026.815.084,1.992.166,3.446.164,2.908.453,6.921.788,11.351s.626,8.441.815,11.346c.093,1.4.169,2.56.228,3.441a7.7,7.7,0,0,0,.129,1.26,7.771,7.771,0,0,0,.025-1.267c-.008-.815-.043-1.993-.1-3.449-.116-2.911-.362-6.929-.7-11.361-.35-4.4-.667-8.373-.9-11.34-.119-1.4-.217-2.557-.292-3.436a7.745,7.745,0,0,0-.156-1.257" transform="translate(-136.017 -117.451)" fill="#455a64"/>
        <path id="Trazado_624244" data-name="Trazado 624244" d="M410.288,354.267a7.7,7.7,0,0,0,0,1.267c.026.815.084,1.992.166,3.446.164,2.908.453,6.921.788,11.351s.626,8.441.815,11.346c.093,1.4.169,2.56.228,3.441a7.7,7.7,0,0,0,.129,1.26,7.771,7.771,0,0,0,.025-1.267c-.008-.815-.043-1.993-.1-3.449-.116-2.911-.362-6.929-.7-11.361-.35-4.4-.667-8.373-.9-11.34-.119-1.4-.217-2.557-.292-3.436a7.745,7.745,0,0,0-.156-1.257" transform="translate(-136.017 -117.451)" fill="#455a64"/>
        <path id="Trazado_624245" data-name="Trazado 624245" d="M355.576,385.622l.24,13.577S342.1,404,341.9,406.516l26.341.481.495-21.17Z" transform="translate(-113.35 -127.846)" fill="#263238"/>
        <path id="Trazado_624246" data-name="Trazado 624246" d="M374.289,404.423a1.075,1.075,0,0,1,.721,1.241,1.033,1.033,0,0,1-1.224.725,1.134,1.134,0,0,1-.757-1.318,1.073,1.073,0,0,1,1.357-.614" transform="translate(-123.657 -134.063)" fill="#e0e0e0"/>
        <path id="Trazado_624247" data-name="Trazado 624247" d="M368.234,416.538,368.2,414.4l-25.243.338s-1.182.489-1.064,1.317Z" transform="translate(-113.346 -137.388)" fill="#455a64"/>
        <path id="Trazado_624248" data-name="Trazado 624248" d="M362.084,405.665c0,.129.644.2,1.269.624.636.409.953.972,1.072.923.119-.023-.059-.8-.825-1.3s-1.542-.368-1.516-.25" transform="translate(-120.042 -134.454)" fill="#fff"/>
        <path id="Trazado_624249" data-name="Trazado 624249" d="M357.919,407.329c-.031.124.521.353.949.905.443.539.542,1.13.671,1.126.121.022.223-.729-.32-1.406s-1.293-.749-1.3-.626" transform="translate(-118.661 -135.026)" fill="#fff"/>
        <path id="Trazado_624250" data-name="Trazado 624250" d="M354.991,411.148c.116.029.307-.61-.011-1.32s-.914-1-.97-.9c-.075.1.309.489.561,1.077s.292,1.124.42,1.139" transform="translate(-117.363 -135.567)" fill="#fff"/>
        <path id="Trazado_624251" data-name="Trazado 624251" d="M362.514,400.864c.051.118.645-.049,1.371.014s1.289.3,1.358.193c.076-.092-.467-.578-1.324-.64s-1.467.33-1.405.432" transform="translate(-120.184 -132.753)" fill="#fff"/>
        <path id="Trazado_624252" data-name="Trazado 624252" d="M409.838,384.379l1.426,16.367-2.6,13.27a1.683,1.683,0,0,0,2.889,1.466c2.348-2.56,10.939-12.02,10.767-13.212-.2-1.38-.358-17.364-.358-17.364Z" transform="translate(-135.474 -127.434)" fill="#263238"/>
        <path id="Trazado_624253" data-name="Trazado 624253" d="M410.831,424.334l12.144-14.847.044.695a2.533,2.533,0,0,1-.494,1.679c-.963,1.289-3.7,4.794-10.2,11.943a1.682,1.682,0,0,1-1.5.531" transform="translate(-136.204 -135.758)" fill="#455a64"/>
        <g id="Grupo_877539" data-name="Grupo 877539" transform="translate(282.702 268.463)" opacity="0.6">
          <g id="Grupo_877538" data-name="Grupo 877538">
            <g id="Grupo_877537" data-name="Grupo 877537" clip-path="url(#clip-path-6)">
              <path id="Trazado_624254" data-name="Trazado 624254" d="M423.276,401.8a1.019,1.019,0,0,0-.193,1.345.979.979,0,0,0,1.332.2,1.075,1.075,0,0,0,.2-1.426,1.016,1.016,0,0,0-1.408-.057" transform="translate(-422.911 -401.61)" fill="#fff"/>
            </g>
          </g>
        </g>
        <path id="Trazado_624255" data-name="Trazado 624255" d="M414.047,419.765a3.632,3.632,0,0,0-3.43-1.423c-.017-.039.182-.18.563-.259a2.686,2.686,0,0,1,2.653,1.1c.213.325.254.565.214.582" transform="translate(-136.133 -138.594)" fill="#fff"/>
        <path id="Trazado_624256" data-name="Trazado 624256" d="M412.668,423.5a13.83,13.83,0,0,0-1.5-.612,13.657,13.657,0,0,0-1.614-.1,1.865,1.865,0,0,1,1.7-.248c.983.221,1.5.914,1.416.963" transform="translate(-135.78 -140.063)" fill="#fff"/>
        <path id="Trazado_624257" data-name="Trazado 624257" d="M416.392,415.365a8.652,8.652,0,0,0-4.715-1.511,4.6,4.6,0,0,1,4.715,1.511" transform="translate(-136.484 -137.146)" fill="#fff"/>
        <path id="Trazado_624258" data-name="Trazado 624258" d="M416.577,408.434c-.037.1-.967-.219-2.148-.186-1.182.017-2.1.376-2.139.277a4.179,4.179,0,0,1,4.288-.09" transform="translate(-136.686 -135.227)" fill="#fff"/>
        <path id="Trazado_624259" data-name="Trazado 624259" d="M416.091,401.192a5.349,5.349,0,0,0-4.37.432c-.029-.032.137-.249.5-.492a3.668,3.668,0,0,1,3.282-.325c.4.166.61.348.588.385" transform="translate(-136.497 -132.799)" fill="#fff"/>
        <path id="Trazado_624260" data-name="Trazado 624260" d="M413.529,398.107a1.42,1.42,0,0,1-.062-.619,4.316,4.316,0,0,1,.388-1.656,1.921,1.921,0,0,1,.761-.965.677.677,0,0,1,.771.1,1.1,1.1,0,0,1,.307.724,2.378,2.378,0,0,1-1.94,2.33,2.758,2.758,0,0,1-2.8-1.267.957.957,0,0,1-.1-.792.663.663,0,0,1,.67-.394,2.359,2.359,0,0,1,1.116.491,4.814,4.814,0,0,1,1.2,1.2,1.464,1.464,0,0,1,.288.55,7.666,7.666,0,0,0-1.63-1.54,2.195,2.195,0,0,0-.983-.405.355.355,0,0,0-.367.213.659.659,0,0,0,.094.517,2.463,2.463,0,0,0,2.439,1.07,2.066,2.066,0,0,0,1.675-1.955.8.8,0,0,0-.193-.514.364.364,0,0,0-.424-.062,1.728,1.728,0,0,0-.66.8,6.359,6.359,0,0,0-.556,2.164" transform="translate(-136.197 -130.886)" fill="#fff"/>
        <path id="Trazado_624261" data-name="Trazado 624261" d="M342.5,214.216a58.332,58.332,0,0,0-1.273,17.156c.28,3.646,12.584,104.51,12.584,104.51h16.611l-4.669-94.8,1.36.295s9.068,40.432,9.808,46.978c.665,5.884,8.312,48.63,8.312,48.63l15.189.174L395.57,280.62l-5.645-54.253L387.8,210.575Z" transform="translate(-113.075 -69.812)" fill="#455a64"/>
        <path id="Trazado_624262" data-name="Trazado 624262" d="M377.627,235.136a3.189,3.189,0,0,1-.693.39,7.975,7.975,0,0,1-2.057.72,4.318,4.318,0,0,1-1.53.011,3.146,3.146,0,0,1-1.6-.768,3.812,3.812,0,0,1-.971-1.7c-.2-.646-.307-1.317-.445-2-.53-2.736-.889-5.234-1.1-7.047-.1-.907-.174-1.642-.213-2.151A3.468,3.468,0,0,1,369,221.8a3.471,3.471,0,0,1,.157.779c.088.578.2,1.291.323,2.134.271,1.8.668,4.286,1.2,7.014.268,1.348.451,2.722,1.294,3.526a3.451,3.451,0,0,0,2.868.747,9.359,9.359,0,0,0,2.041-.6,3.773,3.773,0,0,1,.748-.265" transform="translate(-122.331 -73.534)" fill="#263238"/>
        <path id="Trazado_624263" data-name="Trazado 624263" d="M373.84,222.463c-.005-.015.108-.087.342-.1a1.493,1.493,0,0,1,.929.3,1.66,1.66,0,0,1,.7,1.283,1.647,1.647,0,0,1-2.8,1.051,1.66,1.66,0,0,1-.316-1.427,1.486,1.486,0,0,1,.5-.836c.186-.143.318-.164.324-.148a1.867,1.867,0,0,0-.584,1.031,1.451,1.451,0,0,0,.316,1.166,1.346,1.346,0,0,0,2.237-.839,1.451,1.451,0,0,0-.529-1.086,1.873,1.873,0,0,0-1.118-.393" transform="translate(-123.544 -73.719)" fill="#263238"/>
        <path id="Trazado_624264" data-name="Trazado 624264" d="M407.434,230.057a1.81,1.81,0,0,1-.566.088,10.61,10.61,0,0,1-1.558.018,15.081,15.081,0,0,1-9.326-3.929,10.533,10.533,0,0,1-1.076-1.127c-.232-.286-.35-.451-.332-.467.047-.041.58.57,1.572,1.407a16.745,16.745,0,0,0,9.181,3.867c1.291.124,2.1.08,2.1.142" transform="translate(-130.814 -74.475)" fill="#263238"/>
        <path id="Trazado_624265" data-name="Trazado 624265" d="M348.882,222.972a7.079,7.079,0,0,1-.862,1.694,19.04,19.04,0,0,1-6.535,6.354,7.113,7.113,0,0,1-1.717.814,17.531,17.531,0,0,1,1.587-1.026,23.031,23.031,0,0,0,6.457-6.279,17.76,17.76,0,0,1,1.07-1.558" transform="translate(-112.644 -73.922)" fill="#263238"/>
        <path id="Trazado_624266" data-name="Trazado 624266" d="M272.162,120.489l8.56,3.536,8.867,12.859-2.832,4.179-2.45-2.452s-9.719-2.273-10.348-3.65a2.5,2.5,0,0,1,.231-2.478,5.558,5.558,0,0,1,.06-2.609,1.74,1.74,0,0,1,1.3-1.232,1.28,1.28,0,0,1-.525-1.772,2.318,2.318,0,0,1,1.5-1.487s-5.709-2.979-6.189-3.763a.6.6,0,0,1,.1-.749,1.5,1.5,0,0,1,1.724-.384" transform="translate(-89.596 -39.906)" fill="#9f7362"/>
        <path id="Trazado_624267" data-name="Trazado 624267" d="M294.686,135.433l-1.636-2.461-3.452-6.81-8.362-2.642s-1.461.563.382,3.091a5.268,5.268,0,0,0,4.632,2.184s-.884,5.237.487,7.669,5.4,2.854,5.4,2.854Z" transform="translate(-93.057 -40.951)" fill="#9f7362"/>
        <path id="Trazado_624268" data-name="Trazado 624268" d="M286.672,136.843a2,2,0,0,1-.344-.541,7.552,7.552,0,0,1-.612-1.646,8.7,8.7,0,0,1,.543-5.742l.122.244-.3-.063a10.673,10.673,0,0,1-3.155-1.067A4.148,4.148,0,0,1,281.1,126a2.922,2.922,0,0,1-.171-1.833,1.3,1.3,0,0,1,.289-.61c.03.015-.087.227-.156.638a2.97,2.97,0,0,0,.265,1.708,4,4,0,0,0,1.763,1.844,10.986,10.986,0,0,0,3.069,1.005l.3.063.215.046-.094.2a8.9,8.9,0,0,0-.622,5.54,17.636,17.636,0,0,0,.72,2.242" transform="translate(-93.11 -40.964)" fill="#65463c"/>
        <path id="Trazado_624269" data-name="Trazado 624269" d="M277.877,133.158a8.153,8.153,0,0,1,.851.345c.544.229,1.346.525,2.32.948a8.69,8.69,0,0,1,1.543.836,1.672,1.672,0,0,1,.663.8,1.213,1.213,0,0,1-.225,1.1,1.887,1.887,0,0,1-2.125.685c-.189-.043-.371-.089-.555-.122a4.415,4.415,0,0,1-.587-.163c-.38-.13-.751-.285-1.123-.445l-.991-.434.128-.322a8.947,8.947,0,0,1,1.878,1.158l.822.6a8.78,8.78,0,0,1,.812.58,1.187,1.187,0,0,1,.429.933.78.78,0,0,1-.205.493,1.055,1.055,0,0,1-.418.259,3.818,3.818,0,0,1-1.606.122,7.718,7.718,0,0,1-2.166-.678,3.541,3.541,0,0,1-.726-.386,4.436,4.436,0,0,1,.775.268,8.715,8.715,0,0,0,2.142.562,3.667,3.667,0,0,0,1.484-.148.561.561,0,0,0,.424-.507.892.892,0,0,0-.344-.689,9.421,9.421,0,0,0-.789-.544l-.835-.6a8.9,8.9,0,0,0-1.8-1.1l.128-.322,1,.434c.368.159.733.312,1.1.437a4.19,4.19,0,0,0,.539.152c.2.037.386.086.568.129a1.57,1.57,0,0,0,1.791-.545.9.9,0,0,0,.19-.818,1.4,1.4,0,0,0-.542-.66,8.86,8.86,0,0,0-1.474-.845c-.952-.448-1.744-.78-2.273-1.048a3.311,3.311,0,0,1-.8-.469" transform="translate(-91.701 -44.145)" fill="#65463c"/>
        <path id="Trazado_624270" data-name="Trazado 624270" d="M279.391,127.977a6.154,6.154,0,0,1,1.769.7,13.791,13.791,0,0,1,1.761,1.09c.315.23.638.484.959.763a1.771,1.771,0,0,1,.753,1.184.9.9,0,0,1-.346.707,1.306,1.306,0,0,1-.672.275,4.4,4.4,0,0,1-1.257-.084,15.466,15.466,0,0,1-2-.529,5.588,5.588,0,0,1-1.737-.775c.021-.041.684.237,1.808.539a19.712,19.712,0,0,0,1.984.449,4.314,4.314,0,0,0,1.155.062c.367-.039.728-.3.719-.64a1.513,1.513,0,0,0-.631-.933c-.311-.276-.621-.53-.925-.762a16.98,16.98,0,0,0-1.689-1.131c-1-.585-1.671-.864-1.65-.916" transform="translate(-92.371 -42.427)" fill="#65463c"/>
        <path id="Trazado_624271" data-name="Trazado 624271" d="M314.15,137.191l7.756-24.81,12.556-6.84-7.452,42.839-1.5,3.2c-3.483,6.506-10.266,5.011-16.142,1.741q-.318-.176-.615-.362L291.827,138.4l6.379-9.762Z" transform="translate(-96.75 -34.99)" fill="#ffecbe"/>
        <path id="Trazado_624272" data-name="Trazado 624272" d="M326.669,160.69c-.108,0-.048-1.8-.532-3.927-.467-2.137-1.282-3.735-1.185-3.783a11.77,11.77,0,0,1,1.717,7.71" transform="translate(-107.729 -50.717)" fill="#263238"/>
        <path id="Trazado_624273" data-name="Trazado 624273" d="M347.668,104.148c-3.171.2-8.909,2.1-11.34,6.642-2.031,3.793-2.584,20-2.693,20.39l6.11,1.584,7.8,11.542,31.955-7.129,2,5.038,1.227-36.08s-31.893-2.181-35.064-1.986" transform="translate(-110.611 -34.524)" fill="#ffecbe"/>
        <path id="Trazado_624274" data-name="Trazado 624274" d="M387.23,154.445l2.445-34.477-.568-16.354-14.943-6.588L372.68,91.31l-15.471,7.314-3.241-3.58-1.357,4.036-3.391,1.108-7.9,13.488.114,22.569s-.831,27.568-.168,37.156a2.965,2.965,0,0,0,1.993,2.606,28.606,28.606,0,0,0,8.464,1.25c15.586.376,36.813-.609,36.813-.609l.217-.682a13.577,13.577,0,0,0,.527-5.893Z" transform="translate(-113.056 -30.272)" fill="#ffecbe"/>
        <path id="Trazado_624275" data-name="Trazado 624275" d="M356.614,181.965a.622.622,0,0,1-.028-.187c-.011-.15-.025-.331-.041-.551q-.044-.782-.12-2.12c-.083-1.881-.2-4.536-.345-7.8-.245-6.588-.557-15.695-.454-25.765.061-5.035.231-9.838.712-14.187.5-4.344,1.249-8.207,1.922-11.435s1.308-5.82,1.744-7.61l.517-2.058c.057-.213.106-.387.144-.532a.621.621,0,0,1,.064-.178.689.689,0,0,1-.023.188c-.028.147-.063.326-.1.542q-.163.766-.442,2.076c-.388,1.8-.97,4.4-1.616,7.633s-1.351,7.092-1.83,11.416c-.459,4.325-.616,9.119-.677,14.147-.1,10.055.162,19.16.334,25.749.09,3.265.163,5.922.215,7.805q.026,1.339.042,2.123c0,.221,0,.4,0,.552a.7.7,0,0,1-.014.189" transform="translate(-117.895 -36.318)" fill="#263238"/>
        <path id="Trazado_624276" data-name="Trazado 624276" d="M380.714,91.31a38.947,38.947,0,0,0-6.173,2.871c-4.352,2.322-9.3,4.443-9.3,4.443l.376,6.986,16.465-8.266" transform="translate(-121.09 -30.272)" fill="#ffecbe"/>
        <path id="Trazado_624277" data-name="Trazado 624277" d="M359.711,96.9l3.241,3.58-1.732,7.489-2.886-6.768" transform="translate(-118.799 -32.124)" fill="#ffecbe"/>
        <g id="Grupo_877542" data-name="Grupo 877542" transform="translate(243.049 67.795)" opacity="0.3">
          <g id="Grupo_877541" data-name="Grupo 877541">
            <g id="Grupo_877540" data-name="Grupo 877540" clip-path="url(#clip-path-7)">
              <path id="Trazado_624278" data-name="Trazado 624278" d="M364.635,102.749c-.143.107-1.044,8.642-1.044,8.642l16.5-9.972-15.024,7.543Z" transform="translate(-363.591 -101.419)"/>
            </g>
          </g>
        </g>
        <path id="Trazado_624279" data-name="Trazado 624279" d="M357.645,115.862a243.083,243.083,0,0,0-5.52,36.03c-.636,8.419-1.108,19.574-1.108,19.574l3.754,4.65,5.755-5.092s-.25-23.7.051-31.633c.247-6.528-.781-23.183-.781-23.183Z" transform="translate(-116.373 -38.412)" fill="#eb6f2d"/>
        <path id="Trazado_624280" data-name="Trazado 624280" d="M363.77,106.964l-1.473-.575-1.4,2.4-.253,3.937,1.968.317,1.48-2.429Z" transform="translate(-119.566 -35.271)" fill="#eb6f2d"/>
        <path id="Trazado_624281" data-name="Trazado 624281" d="M363.073,102.161c.028.019-.318.549-.84,1.424s-1.214,2.1-1.874,3.509l-.156.338-.1.221-.1-.22a27.434,27.434,0,0,1-1.378-3.489c-.143-.454-.245-.824-.308-1.081a1.461,1.461,0,0,1-.074-.405c.031-.009.208.545.531,1.436s.8,2.116,1.436,3.441h-.207l.157-.34a29.186,29.186,0,0,1,1.943-3.5c.28-.428.519-.767.691-1a1.641,1.641,0,0,1,.287-.341" transform="translate(-118.765 -33.869)" fill="#263238"/>
        <path id="Trazado_624282" data-name="Trazado 624282" d="M382.212,99.861a1.158,1.158,0,0,1-.226.136l-.668.349-2.46,1.275c-2.075,1.079-4.917,2.616-8.066,4.3-1.918,1.021-3.734,1.969-5.314,2.759l-.146.073v-.161c-.02-2.05-.037-3.777-.049-5.026,0-.587,0-1.061,0-1.416a3.109,3.109,0,0,1,.023-.5,2.963,2.963,0,0,1,.041.5c.013.356.031.829.054,1.416.033,1.248.078,2.975.132,5.024l-.147-.089c1.571-.8,3.381-1.759,5.3-2.78,3.148-1.682,6-3.2,8.1-4.241,1.047-.523,1.9-.934,2.494-1.21l.687-.311a1.112,1.112,0,0,1,.246-.094" transform="translate(-121.102 -33.107)" fill="#263238"/>
        <path id="Trazado_624283" data-name="Trazado 624283" d="M362.283,116.227c-.034.053-.408-.122-.836-.392s-.747-.532-.714-.586.408.122.836.392.747.533.713.586" transform="translate(-119.594 -38.206)" fill="#263238"/>
        <path id="Trazado_624284" data-name="Trazado 624284" d="M363.22,113.256a21.687,21.687,0,0,1-1.792-4.078,21.687,21.687,0,0,1,1.792,4.078" transform="translate(-119.823 -36.196)" fill="#263238"/>
        <path id="Trazado_624285" data-name="Trazado 624285" d="M340.957,135.848c.1,0,.174,6.518.174,14.556s-.078,14.557-.174,14.557-.174-6.516-.174-14.557.078-14.556.174-14.556" transform="translate(-112.981 -45.038)" fill="#263238"/>
        <path id="Trazado_624286" data-name="Trazado 624286" d="M355.7,99.453a20.03,20.03,0,0,1-.216-4.754s1.08-3.08.918-3.62-.432-1.134-1.513-.594a4.194,4.194,0,0,0-2.594,3.3,9.465,9.465,0,0,1-.432,2.431l-1.027-1.567.216-1.621s1.525-.384,1.578-1.2a17.794,17.794,0,0,0-1.541-1.1s-2.738.134-3.008,1.161-.973,3.241-.973,3.241-2.269.378-2.54,2.215c0,0-1.3,1.729-1.243,2.81a5.1,5.1,0,0,0-.648,2.269c.053,1.027,3.025,5.349,3.025,5.349l.823,6.148,8.429-2.195-.553-6.169s1.729-3.89,1.3-6.105" transform="translate(-113.61 -29.928)" fill="#9f7362"/>
        <path id="Trazado_624287" data-name="Trazado 624287" d="M355.618,99.4a2.564,2.564,0,0,1,.081.418,5.986,5.986,0,0,1-.021,1.236,16.943,16.943,0,0,1-1.269,4.491l.008-.048.587,6.165.011.11-.108.028-8.422,2.221-.172.045-.024-.176c-.263-1.945-.543-4.007-.834-6.147l.028.073c-.763-1.124-1.53-2.294-2.243-3.545q-.267-.469-.507-.966a2.572,2.572,0,0,1-.311-1.115,5.247,5.247,0,0,1,.672-2.173l-.023.094a3.017,3.017,0,0,1,.283-1.217,9.155,9.155,0,0,1,.995-1.705l-.033.079a2.524,2.524,0,0,1,.987-1.618A4.243,4.243,0,0,1,347,94.9l-.136.118,1-3.3a1.325,1.325,0,0,1,.668-.666,4.161,4.161,0,0,1,.816-.3A9.022,9.022,0,0,1,351,90.506l.054,0,.045.03.848.573.416.294.207.158.057.05a.256.256,0,0,1,.041.044.23.23,0,0,1,.041.132l-.027.152a1.455,1.455,0,0,1-.732.8,4.114,4.114,0,0,1-.94.379l.117-.131c-.075.552-.148,1.09-.22,1.62l-.023-.1,1.022,1.57-.259.024a9.587,9.587,0,0,0,.372-1.86,4.728,4.728,0,0,1,.431-1.83,5.011,5.011,0,0,1,2.6-2.214,1.067,1.067,0,0,1,.852-.01,1.094,1.094,0,0,1,.479.664.9.9,0,0,1,.06.4,2.872,2.872,0,0,1-.048.37c-.046.237-.1.465-.16.685-.239.882-.5,1.666-.752,2.368l0-.021a22.459,22.459,0,0,0,0,3.53c.035.4.072.7.1.908a1.646,1.646,0,0,1,.031.31,1.664,1.664,0,0,1-.076-.3c-.042-.2-.094-.5-.143-.906a20.429,20.429,0,0,1-.081-3.554v-.009l0-.011c.234-.7.488-1.49.713-2.364.056-.218.106-.443.148-.671a2.755,2.755,0,0,0,.04-.342.643.643,0,0,0-.052-.317.884.884,0,0,0-.374-.531.845.845,0,0,0-.665.03,4.785,4.785,0,0,0-2.442,2.109,4.469,4.469,0,0,0-.39,1.743,9.69,9.69,0,0,1-.381,1.94l-.093.277-.166-.253-1.031-1.564-.031-.047.007-.057c.07-.53.14-1.069.212-1.621l.013-.1.1-.029a3.83,3.83,0,0,0,.858-.35,1.163,1.163,0,0,0,.58-.61l.017-.094v0h0c-.032,0,.292.018.151.009h-.008a.161.161,0,0,0-.061.007c-.029.006-.094.06-.065.066.022.025,0,0,0,0l-.037-.033-.191-.145-.409-.287-.845-.566.1.027a8.752,8.752,0,0,0-1.584.246c-.495.136-1.084.345-1.251.754q-.486,1.616-.991,3.291l-.029.1-.107.022a3.933,3.933,0,0,0-1.542.676,2.178,2.178,0,0,0-.854,1.394l-.006.042-.027.037a8.863,8.863,0,0,0-.953,1.633,2.7,2.7,0,0,0-.255,1.064v.049l-.023.045a4.936,4.936,0,0,0-.628,2.011,2.249,2.249,0,0,0,.277.959c.154.32.32.634.495.943.7,1.235,1.465,2.406,2.22,3.524l.023.033,0,.039c.283,2.14.556,4.2.812,6.149l-.2-.131,8.436-2.169-.1.137-.52-6.171,0-.025.01-.023a17.805,17.805,0,0,0,1.343-4.424,6.824,6.824,0,0,0,.042-1.642" transform="translate(-113.524 -29.87)" fill="#65463c"/>
        <path id="Trazado_624288" data-name="Trazado 624288" d="M358.1,102a5.93,5.93,0,0,1-1.158-1.634,5.815,5.815,0,0,1-.854-1.8,5.879,5.879,0,0,1,1.158,1.635,5.782,5.782,0,0,1,.854,1.8" transform="translate(-118.051 -32.674)" fill="#65463c"/>
        <g id="Grupo_877545" data-name="Grupo 877545" transform="translate(246.907 97.003)" opacity="0.3">
          <g id="Grupo_877544" data-name="Grupo 877544">
            <g id="Grupo_877543" data-name="Grupo 877543" clip-path="url(#clip-path-8)">
              <path id="Trazado_624289" data-name="Trazado 624289" d="M369.363,166.261a27.317,27.317,0,0,0,26.346-21.148Z" transform="translate(-369.363 -145.113)"/>
            </g>
          </g>
        </g>
        <path id="Trazado_624290" data-name="Trazado 624290" d="M354.656,117.631l6.236,16.938,17.742-20.426s7.8-8.75,11.468-3.589,1.8,14.933-.522,19.569c-2.163,4.316-26.575,24.566-30.242,24.974s-8.125.382-10.57-4.236-7.756-29.95-7.756-29.95Z" transform="translate(-113.057 -36.112)" fill="#ffecbe"/>
        <path id="Trazado_624291" data-name="Trazado 624291" d="M379.35,116.336s-.1.135-.31.383l-.935,1.093-3.6,4.142L361.454,136.86l-.155.176-.083-.22-6.259-16.671.193.1-12.527,3.019.13-.2c.428,2.569.9,5.278,1.4,8.022.82,4.487,1.668,8.859,2.6,13.055.486,2.092.95,4.154,1.541,6.129a20.95,20.95,0,0,0,1.031,2.856,9.067,9.067,0,0,0,1.729,2.367,8.006,8.006,0,0,0,5.11,2.167,12.719,12.719,0,0,0,2.726-.11,7.744,7.744,0,0,0,2.51-.759,54.4,54.4,0,0,0,8.1-5.4c4.724-3.657,8.36-6.852,10.868-9.06l2.867-2.568.746-.668c.169-.149.262-.219.262-.219s-.076.088-.238.245l-.722.694c-.636.608-1.588,1.492-2.825,2.616-2.481,2.241-6.094,5.467-10.808,9.155-1.176.924-2.437,1.858-3.771,2.8a35.151,35.151,0,0,1-4.352,2.667,8.066,8.066,0,0,1-2.592.793,13,13,0,0,1-2.792.12,8.308,8.308,0,0,1-5.31-2.24,9.389,9.389,0,0,1-1.8-2.449,21.2,21.2,0,0,1-1.058-2.91c-.6-1.989-1.066-4.053-1.556-6.15-.935-4.2-1.786-8.577-2.606-13.067-.5-2.747-.972-5.457-1.4-8.029l-.027-.158.156-.038,12.53-3,.142-.034.051.137,6.214,16.688-.237-.043,13.144-14.826,3.656-4.092.966-1.066c.221-.239.342-.355.342-.355" transform="translate(-113.512 -38.569)" fill="#263238"/>
        <path id="Trazado_624292" data-name="Trazado 624292" d="M407.717,109.755a11.6,11.6,0,0,0-7.155,2.5,7.788,7.788,0,0,1,7.155-2.5" transform="translate(-132.798 -36.338)" fill="#263238"/>
      </g>
    </g>
  </g>
</svg>
