<svg xmlns="http://www.w3.org/2000/svg" width="106.038" height="83.793" viewBox="0 0 106.038 83.793">
  <g id="Grupo_877212" data-name="Grupo 877212" transform="translate(0 -53.704)">
    <g id="Grupo_877211" data-name="Grupo 877211" transform="translate(1.556 55.26)">
      <path id="Trazado_622375" data-name="Trazado 622375" d="M7.511,156.773h99.516a4.229,4.229,0,0,1,3.417,3.417v54.064a4.236,4.236,0,0,1-3.417,3.417H17.4a9.894,9.894,0,0,1-9.892-9.9v-51Z" transform="translate(-7.511 -136.983)" fill="#ecf4ff" fill-rule="evenodd"/>
      <path id="Trazado_622376" data-name="Trazado 622376" d="M17.4,61.218A9.889,9.889,0,0,0,7.511,71.11v60.9a9.889,9.889,0,0,1,9.892-9.892,9.242,9.242,0,0,1,4.908,1.3.688.688,0,0,0,1.057-.646V64.476a2.406,2.406,0,0,0-1.2-2.043A9.788,9.788,0,0,0,17.4,61.218Z" transform="translate(-7.511 -61.218)" fill="#cbe2ff" fill-rule="evenodd"/>
      <path id="Trazado_622377" data-name="Trazado 622377" d="M125.52,195.041H140.3a1.516,1.516,0,0,1,1.509,1.509v14.777a1.512,1.512,0,0,1-1.509,1.509H125.52a1.507,1.507,0,0,1-1.5-1.509V196.55A1.511,1.511,0,0,1,125.52,195.041Z" transform="translate(-99.888 -167.325)" fill="#b6e1fd" fill-rule="evenodd"/>
      <path id="Trazado_622378" data-name="Trazado 622378" d="M413.645,107.943l-6.934-2.108-6.34,2.108v49.478l6.675,1.738,6.6-1.738Z" transform="translate(-319.007 -96.595)" fill="#ffb338" fill-rule="evenodd"/>
      <path id="Trazado_622379" data-name="Trazado 622379" d="M407.844,366.334l2.483-4.884,3.317-6.534H400.371l3.317,6.534,2.483,4.884a.911.911,0,0,0,1.673,0Z" transform="translate(-319.007 -294.089)" fill="#f9d9a2" fill-rule="evenodd"/>
      <path id="Trazado_622380" data-name="Trazado 622380" d="M413.645,72.566V65.275a4.069,4.069,0,0,0-4.057-4.057h-5.155a4.07,4.07,0,0,0-4.063,4.057v7.291Z" transform="translate(-319.007 -61.218)" fill="#ffb338" fill-rule="evenodd"/>
      <path id="Trazado_622381" data-name="Trazado 622381" d="M118.254,380.615h10.121l1.661-5.495-1.661-4.274H118.254a3.148,3.148,0,0,0-2.542,2.548v4.679A3.148,3.148,0,0,0,118.254,380.615Z" transform="translate(-93.303 -306.72)" fill="#ffb338" fill-rule="evenodd"/>
      <path id="Trazado_622382" data-name="Trazado 622382" d="M176.856,340.788h12.669l1.732-6.246-1.732-9.61v-1.767a3.148,3.148,0,0,0-2.548-2.548H179.4a3.148,3.148,0,0,0-2.548,2.548v17.624Z" transform="translate(-141.784 -266.893)" fill="#b1de19" fill-rule="evenodd"/>
      <path id="Trazado_622383" data-name="Trazado 622383" d="M238.028,357.308h12.663l1.28-4.209-1.28-5.56v-3.546a3.148,3.148,0,0,0-2.548-2.542H238.028Z" transform="translate(-190.287 -283.413)" fill="#ffb338" fill-rule="evenodd"/>
      <path id="Trazado_622384" data-name="Trazado 622384" d="M299.172,380.615h10.121a3.148,3.148,0,0,0,2.542-2.542v-4.679a3.148,3.148,0,0,0-2.542-2.548H299.172Z" transform="translate(-238.767 -306.72)" fill="#b1de19" fill-rule="evenodd"/>
      <path id="Trazado_622385" data-name="Trazado 622385" d="M105.261,212.645H15.638a9.848,9.848,0,0,1-4.016-.851,9.888,9.888,0,0,0,9.041,5.876h89.624a4.235,4.235,0,0,0,3.417-3.417V160.19a4.229,4.229,0,0,0-3.417-3.417h-1.609v52.455a4.235,4.235,0,0,1-3.417,3.417Z" transform="translate(-10.771 -136.983)" fill="#cbe2ff" fill-rule="evenodd"/>
      <path id="Trazado_622386" data-name="Trazado 622386" d="M46.618,81.008V122.15a8.953,8.953,0,0,1,3.969,1.262.688.688,0,0,0,1.057-.646V64.476a2.406,2.406,0,0,0-1.2-2.043,9.79,9.79,0,0,0-4.761-1.215,10.079,10.079,0,0,0-2.507.317,10.069,10.069,0,0,1,2.243.9,2.407,2.407,0,0,1,1.2,2.043V81.008Z" transform="translate(-35.786 -61.218)" fill="#b6e1fd" fill-rule="evenodd"/>
      <path id="Trazado_622387" data-name="Trazado 622387" d="M440.2,116.011v49.478h5.025V116.011Z" transform="translate(-350.586 -104.663)" fill="#eb6f2d" fill-rule="evenodd"/>
      <path id="Trazado_622388" data-name="Trazado 622388" d="M424.644,65.275v7.291h5.025V65.275a4.069,4.069,0,0,0-4.057-4.057h-5.031A4.07,4.07,0,0,1,424.644,65.275Z" transform="translate(-335.032 -61.218)" fill="#eb6f2d" fill-rule="evenodd"/>
    </g>
    <path id="Trazado_622389" data-name="Trazado 622389" d="M94.643,65.058V59.317a2.526,2.526,0,0,0-2.507-2.507H86.982a2.516,2.516,0,0,0-2.507,2.507v5.742H94.643ZM29.712,92.973a1.553,1.553,0,0,1,2.2-2.2l1.415,1.415,3.928-3.933a1.555,1.555,0,0,1,2.2,2.2l-5.025,5.025a1.556,1.556,0,0,1-2.2,0ZM88,75.05a1.553,1.553,0,1,1,3.106,0v32.6a1.553,1.553,0,1,1-3.106,0ZM63.516,127.605h9.558v-6.663H63.516Zm11.108,3.106H23.964a1.559,1.559,0,0,1-1.556-1.556v-9.769a1.553,1.553,0,0,1,1.556-1.55H35.078v-8.853a1.548,1.548,0,0,1,1.55-1.55H49.3a1.548,1.548,0,0,1,1.55,1.55v2.759H61.96a1.558,1.558,0,0,1,1.556,1.556v4.538H74.623a1.553,1.553,0,0,1,1.556,1.55v9.769a1.558,1.558,0,0,1-1.556,1.556Zm-23.777-3.106H60.4V114.854H50.847Zm-12.663,0h9.558V110.539H38.184Zm-12.669,0h9.564v-6.663H25.514Zm-6.552-54.11h62.4V59.317A5.633,5.633,0,0,1,86.982,53.7h5.154a5.633,5.633,0,0,1,5.612,5.613V73.495h6.74a1.553,1.553,0,0,1,1.55,1.556v60.9a1.548,1.548,0,0,1-1.55,1.55h-43a1.553,1.553,0,0,1,0-3.106h41.448V76.6H97.749V87.831a1.553,1.553,0,1,1-3.106,0V68.164H84.475v46.373H94.643V94.87a1.553,1.553,0,1,1,3.106,0v21.217a1.648,1.648,0,0,1-.264.881l-6.54,12.88a1.579,1.579,0,0,1-.693.693,1.546,1.546,0,0,1-2.078-.687L81.61,116.938a1.652,1.652,0,0,1-.246-.851V76.6h-62.4V88.353a1.553,1.553,0,1,1-3.106,0V58.066a8.239,8.239,0,0,0-4.409-1.256,8.339,8.339,0,0,0-8.343,8.342v53.06c.082-.088.164-.176.246-.258a11.417,11.417,0,0,1,8.1-3.352,11.592,11.592,0,0,1,3.64.593c.258.088.517.188.769.293v-20.1a1.553,1.553,0,1,1,3.106,0v22.761a1.553,1.553,0,0,1-2.489,1.233,8.133,8.133,0,0,0-2.372-1.251,8.345,8.345,0,1,0-2.653,16.256h43a1.553,1.553,0,0,1,0,3.106h-43A11.445,11.445,0,0,1,0,126.049v-60.9a11.448,11.448,0,0,1,18.27-9.194,1.564,1.564,0,0,1,.693,1.3V73.495Zm74.706,44.148H85.444l4.115,8.1ZM72.909,82.905a1.553,1.553,0,0,1,0,3.106H51.886a1.553,1.553,0,0,1,0-3.106ZM64.168,97.735a1.553,1.553,0,1,1,0,3.106H51.886a1.553,1.553,0,0,1,0-3.106Zm8.742-7.415a1.553,1.553,0,0,1,0,3.106H51.886a1.553,1.553,0,0,1,0-3.106Zm-47.225-8.9H43.479a1.553,1.553,0,0,1,1.55,1.556V100.77a1.553,1.553,0,0,1-1.55,1.556H25.685a1.555,1.555,0,0,1-1.556-1.556V82.976A1.555,1.555,0,0,1,25.685,81.42Zm16.239,3.112H27.235V99.22H41.923Z" transform="translate(0 0)"/>
  </g>
</svg>
