<svg id="Grupo_877358" data-name="Grupo 877358" xmlns="http://www.w3.org/2000/svg" xmlns:xlink="http://www.w3.org/1999/xlink" width="476.917" height="327.764" viewBox="0 0 476.917 327.764">
  <defs>
    <clipPath id="clip-path">
      <rect id="Rectángulo_327446" data-name="Rectángulo 327446" width="476.917" height="327.764" fill="none"/>
    </clipPath>
    <clipPath id="clip-path-6">
      <rect id="Rectángulo_327420" data-name="Rectángulo 327420" width="14.469" height="100.507" fill="none"/>
    </clipPath>
    <clipPath id="clip-path-7">
      <rect id="Rectángulo_327423" data-name="Rectángulo 327423" width="14.469" height="135.939" fill="none"/>
    </clipPath>
    <clipPath id="clip-path-8">
      <rect id="Rectángulo_327426" data-name="Rectángulo 327426" width="14.469" height="71.248" fill="none"/>
    </clipPath>
    <clipPath id="clip-path-9">
      <rect id="Rectángulo_327429" data-name="Rectángulo 327429" width="14.469" height="38.877" fill="none"/>
    </clipPath>
    <clipPath id="clip-path-10">
      <rect id="Rectángulo_327432" data-name="Rectángulo 327432" width="14.47" height="25.425" fill="none"/>
    </clipPath>
    <clipPath id="clip-path-11">
      <rect id="Rectángulo_327435" data-name="Rectángulo 327435" width="14.47" height="180.603" fill="none"/>
    </clipPath>
    <clipPath id="clip-path-12">
      <rect id="Rectángulo_327438" data-name="Rectángulo 327438" width="14.469" height="217.993" fill="none"/>
    </clipPath>
    <clipPath id="clip-path-14">
      <rect id="Rectángulo_327440" data-name="Rectángulo 327440" width="59.336" height="59.336" fill="none"/>
    </clipPath>
    <clipPath id="clip-path-15">
      <rect id="Rectángulo_327441" data-name="Rectángulo 327441" width="22.685" height="20.783" fill="none"/>
    </clipPath>
    <clipPath id="clip-path-18">
      <rect id="Rectángulo_327444" data-name="Rectángulo 327444" width="38.66" height="2.874" fill="none"/>
    </clipPath>
  </defs>
  <g id="Grupo_877357" data-name="Grupo 877357" clip-path="url(#clip-path)">
    <g id="Grupo_877314" data-name="Grupo 877314">
      <g id="Grupo_877313" data-name="Grupo 877313" clip-path="url(#clip-path)">
        <path id="Trazado_622963" data-name="Trazado 622963" d="M348.347,218.071c-15.615-10.93-17.12-12.336-25.017-26.972l-7.5,15.318c32.125,9.049,59.838,39.4,84.013,62.411,24.753,23.56,70.5,58.253,77.207,90.948,8.895-22.517,22.643-19.614,38.679-37.751-53.3-14.738-128.541-76.767-167.38-103.954" transform="translate(-91.988 -55.659)" fill="#ebebeb"/>
        <path id="Trazado_622964" data-name="Trazado 622964" d="M466.935,432.634c3.833-10.52,17.068-15.462,27.276-10.863q-.109-2.386-.22-4.772a26.763,26.763,0,0,1,30.737-22.812c.6-7.874,8.823-14.275,16.605-12.932a15.011,15.011,0,0,1,21.643-16.68,23.513,23.513,0,0,1,35,26.794c12.242,9.362,16.663,27.624,10.058,41.548" transform="translate(-135.999 -105.172)" fill="#ebebeb"/>
        <path id="Trazado_622965" data-name="Trazado 622965" d="M302.262,200.285l21.5-14.63c7.713-1.014,11.829,6.609,11.507,12.094A8.76,8.76,0,0,1,347.115,209.5a7.837,7.837,0,1,1-2.526,15.368c-2.793-.792-5.068-3.1-7.953-3.432-2.706-.308-5.239,1.195-7.834,2.023-6.443,2.056-13.813-.256-18.673-4.959s-7.381-11.47-7.868-18.215" transform="translate(-88.037 -54.047)" fill="#ebebeb"/>
        <path id="Trazado_622966" data-name="Trazado 622966" d="M317.649,193.382a19.667,19.667,0,0,1,6.9,3.493,1.766,1.766,0,0,1-1.157,3.146h-.045a73.137,73.137,0,0,1,7.458,5.961,2.175,2.175,0,0,1-1.549,3.785,33.293,33.293,0,0,1-21.556-9.14Z" transform="translate(-89.622 -56.324)" fill="#e0e0e0"/>
        <path id="Trazado_622967" data-name="Trazado 622967" d="M267.636,195.921c0,.025,0,.083.005.17A32.752,32.752,0,0,0,280.8,221.178l4.992,3.724.51-15.053Z" transform="translate(-77.951 -57.064)" fill="#e0e0e0"/>
        <path id="Trazado_622968" data-name="Trazado 622968" d="M297.445,155.532l.162-.043a32.308,32.308,0,0,1,27.417,5.4l4.924,3.674-14.09,4.71Z" transform="translate(-86.634 -44.988)" fill="#e0e0e0"/>
        <path id="Trazado_622969" data-name="Trazado 622969" d="M213.371,123.879c1.672-2.241,10.54-2.038,23.075,1.356a71.959,71.959,0,0,1,20.812,9.354l41.655,31.083-8.19,10.976-4.746,6.362-8.19,10.976-37.8-28.206a72.194,72.194,0,0,1-10.232-9.251,86.489,86.489,0,0,1-8.516-10.914c-7.04-10.85-9.541-19.493-7.868-21.734" transform="translate(-62.001 -35.651)" fill="#f5f5f5"/>
        <line id="Línea_139" data-name="Línea 139" x1="21.079" y2="27.906" transform="translate(209.234 125.094)" fill="#f5f5f5"/>
        <path id="Trazado_622970" data-name="Trazado 622970" d="M295.22,204.407c.041.031,4.793-6.192,10.613-13.9s10.506-13.979,10.466-14.01-4.792,6.19-10.614,13.9-10.506,13.978-10.465,14.008" transform="translate(-85.985 -51.408)" fill="#e0e0e0"/>
        <line id="Línea_140" data-name="Línea 140" x1="21.079" y2="27.906" transform="translate(210.59 125.911)" fill="#f5f5f5"/>
        <path id="Trazado_622971" data-name="Trazado 622971" d="M297.134,205.56c.041.03,4.793-6.192,10.613-13.9s10.506-13.978,10.466-14.01-4.793,6.19-10.614,13.9-10.506,13.977-10.465,14.008" transform="translate(-86.543 -51.743)" fill="#e0e0e0"/>
        <line id="Línea_141" data-name="Línea 141" x1="21.079" y2="27.906" transform="translate(211.906 126.927)" fill="#f5f5f5"/>
        <path id="Trazado_622972" data-name="Trazado 622972" d="M298.99,206.994c.041.03,4.793-6.192,10.613-13.9s10.506-13.978,10.466-14.01-4.792,6.19-10.614,13.9-10.5,13.977-10.465,14.008" transform="translate(-87.084 -52.161)" fill="#e0e0e0"/>
        <line id="Línea_142" data-name="Línea 142" x1="21.079" y2="27.906" transform="translate(213.222 127.944)" fill="#f5f5f5"/>
        <path id="Trazado_622973" data-name="Trazado 622973" d="M300.846,208.428c.041.031,4.793-6.192,10.613-13.9s10.506-13.978,10.466-14.01-4.792,6.191-10.614,13.9-10.5,13.977-10.465,14.008" transform="translate(-87.624 -52.579)" fill="#e0e0e0"/>
        <line id="Línea_143" data-name="Línea 143" x1="21.079" y2="27.906" transform="translate(214.538 128.96)" fill="#f5f5f5"/>
        <path id="Trazado_622974" data-name="Trazado 622974" d="M302.7,209.862c.04.03,4.793-6.192,10.613-13.9s10.506-13.979,10.466-14.01-4.792,6.19-10.614,13.9-10.5,13.977-10.465,14.008" transform="translate(-88.165 -52.996)" fill="#e0e0e0"/>
        <path id="Trazado_622975" data-name="Trazado 622975" d="M282.526,176.058a1.221,1.221,0,0,0,.171.176c.116.118.3.259.54.456.476.385,1.176.926,2.048,1.586,1.743,1.322,4.17,3.12,6.863,5.089s5.144,3.739,6.923,5.01l2.113,1.5.58.4a1.151,1.151,0,0,0,.21.128,1.265,1.265,0,0,0-.188-.159l-.56-.427-2.079-1.545-6.89-5.053-6.895-5.044-2.082-1.538c-.241-.186-.441-.321-.559-.425a1.319,1.319,0,0,0-.2-.15" transform="translate(-82.288 -51.278)" fill="#e0e0e0"/>
        <path id="Trazado_622976" data-name="Trazado 622976" d="M267.636,184.391c.041.03,4.768-6.226,10.558-13.972s10.452-14.054,10.411-14.085-4.768,6.225-10.559,13.974-10.451,14.053-10.41,14.083" transform="translate(-77.951 -45.534)" fill="#e0e0e0"/>
        <path id="Trazado_622977" data-name="Trazado 622977" d="M299.184,193.69c0-.009-.1,0-.252.081a1.119,1.119,0,0,0-.476.548,1.062,1.062,0,0,0,.122,1.067,1.138,1.138,0,0,0,2.067-.565,1.061,1.061,0,0,0-.437-.98,1.115,1.115,0,0,0-.687-.23.448.448,0,0,0-.259.059,2.085,2.085,0,0,0,.255.013,1.134,1.134,0,0,1,.61.261.936.936,0,0,1,.349.856.975.975,0,0,1-1.763.482.937.937,0,0,1-.135-.915,1.143,1.143,0,0,1,.393-.534c.13-.1.218-.127.213-.142" transform="translate(-86.902 -56.39)" fill="#e0e0e0"/>
        <path id="Trazado_622978" data-name="Trazado 622978" d="M287.668,185.424c0-.009-.1,0-.253.081a1.114,1.114,0,0,0-.475.548,1.06,1.06,0,0,0,.121,1.067,1.138,1.138,0,0,0,2.067-.565,1.06,1.06,0,0,0-.437-.98,1.116,1.116,0,0,0-.688-.23c-.174.006-.262.05-.259.059a2.278,2.278,0,0,0,.256.013,1.138,1.138,0,0,1,.61.261.939.939,0,0,1,.349.856.975.975,0,0,1-1.763.482.937.937,0,0,1-.136-.915,1.148,1.148,0,0,1,.393-.534c.131-.1.218-.127.214-.142" transform="translate(-83.547 -53.983)" fill="#e0e0e0"/>
        <path id="Trazado_622979" data-name="Trazado 622979" d="M342.037,222.418a1.889,1.889,0,1,1-.128.054" transform="translate(-99.27 -64.749)" fill="#e0e0e0"/>
        <path id="Trazado_622980" data-name="Trazado 622980" d="M240.544,153.643a9.538,9.538,0,1,0,5.773-12.19,9.538,9.538,0,0,0-5.773,12.19" transform="translate(-69.898 -41.037)" fill="#fff"/>
        <path id="Trazado_622981" data-name="Trazado 622981" d="M240.509,153.569a18.429,18.429,0,0,1-.422-2.3,9.508,9.508,0,0,1,1.542-6.026,9.361,9.361,0,0,1,7.907-4.22,9.37,9.37,0,0,1,5.178,1.613,9.3,9.3,0,0,1,3.713,10.391,9.369,9.369,0,0,1-2.985,4.53,9.362,9.362,0,0,1-8.791,1.746,9.5,9.5,0,0,1-5.011-3.685,18.6,18.6,0,0,1-1.131-2.048,3.343,3.343,0,0,0,.195.578,4.327,4.327,0,0,0,.3.678,6.641,6.641,0,0,0,.5.881,9.61,9.61,0,0,0,9.506,4.239,9.716,9.716,0,0,0,4.674-2.1,9.718,9.718,0,0,0,3.129-4.707A9.673,9.673,0,0,0,254.94,142.3a9.715,9.715,0,0,0-5.4-1.658,9.721,9.721,0,0,0-4.943,1.34,9.59,9.59,0,0,0-3.212,3.1,9.493,9.493,0,0,0-1.456,6.2,6.609,6.609,0,0,0,.17,1,4.291,4.291,0,0,0,.2.715,3.325,3.325,0,0,0,.215.571" transform="translate(-69.862 -40.963)" fill="#e0e0e0"/>
        <path id="Trazado_622982" data-name="Trazado 622982" d="M213.371,123.879c1.672-2.241,10.54-2.038,23.075,1.356l-15.207,20.378c-7.04-10.85-9.541-19.493-7.868-21.734" transform="translate(-62.001 -35.651)" fill="#e0e0e0"/>
        <path id="Trazado_622983" data-name="Trazado 622983" d="M213.355,123.854s-.089.14-.25.427a4.43,4.43,0,0,0-.281,1.425,17.1,17.1,0,0,0,1.03,5.5,70.155,70.155,0,0,0,9.885,18.239,85.77,85.77,0,0,0,9.557,10.911,73.659,73.659,0,0,0,6.207,5.261l6.924,5.182,31.223,23.327.164.123.123-.164L288.5,179.929l10.562-14.16.123-.164-.164-.123-31.258-23.295-6.937-5.165-3.313-2.466c-1.115-.792-2.257-1.478-3.391-2.136a76.681,76.681,0,0,0-13.213-5.98,92.706,92.706,0,0,0-11.5-2.99,59.3,59.3,0,0,0-8.846-1.113,17.517,17.517,0,0,0-5.571.495,7.334,7.334,0,0,0-.781.327,4.44,4.44,0,0,0-.512.334c-.23.236-.339.361-.339.361s.129-.109.363-.331a4.984,4.984,0,0,1,.515-.313,7.742,7.742,0,0,1,.777-.305,17.906,17.906,0,0,1,5.542-.42,60.538,60.538,0,0,1,8.811,1.175A94.133,94.133,0,0,1,240.82,126.7a76.933,76.933,0,0,1,13.139,6c1.125.657,2.267,1.347,3.357,2.127l3.307,2.474,6.925,5.179,31.227,23.331-.042-.286-10.567,14.157-10.56,14.156.287-.042-31.251-23.289-6.934-5.165a73.479,73.479,0,0,1-6.193-5.221,86.032,86.032,0,0,1-9.56-10.839,71.131,71.131,0,0,1-9.963-18.123,17.469,17.469,0,0,1-1.094-5.449,4.634,4.634,0,0,1,.241-1.413c.147-.287.215-.442.215-.442" transform="translate(-61.985 -35.626)" fill="#e0e0e0"/>
        <path id="Trazado_622984" data-name="Trazado 622984" d="M253.582,159.065a7.982,7.982,0,0,0-.16-1.919c-.164-1.176-.452-2.79-.805-4.563-.344-1.691-.656-3.222-.923-4.533a9.985,9.985,0,0,0-.449-1.868,7.982,7.982,0,0,0,.16,1.919c.164,1.176.452,2.79.805,4.564.344,1.69.656,3.221.923,4.532a9.983,9.983,0,0,0,.449,1.868" transform="translate(-73.171 -42.577)" fill="#e0e0e0"/>
        <path id="Trazado_622985" data-name="Trazado 622985" d="M256.362,157.787a21.456,21.456,0,0,0-.475-4.181,21.35,21.35,0,0,0-.884-4.114,21.626,21.626,0,0,0,.475,4.181,21.6,21.6,0,0,0,.884,4.114" transform="translate(-74.264 -43.541)" fill="#e0e0e0"/>
        <path id="Trazado_622986" data-name="Trazado 622986" d="M576.59,320.91,556.454,311.1a2.8,2.8,0,0,1-1.293-3.746l13.572-27.871a2.8,2.8,0,0,1,3.747-1.293l12.77,6.218,4.924,15-9.839,20.2a2.8,2.8,0,0,1-3.746,1.293" transform="translate(-161.613 -80.944)" fill="#ebebeb"/>
        <path id="Trazado_622987" data-name="Trazado 622987" d="M596.054,287.085l-3.819,7.844a2.606,2.606,0,0,0,1.2,3.484l7.542,3.674Z" transform="translate(-172.417 -83.616)" fill="#e0e0e0"/>
        <path id="Trazado_622988" data-name="Trazado 622988" d="M586.351,294.674a66.244,66.244,0,0,1-9.316-4.537,66.27,66.27,0,0,1,9.316,4.537" transform="translate(-168.067 -84.503)" fill="#fff"/>
        <path id="Trazado_622989" data-name="Trazado 622989" d="M589.321,303.862c-.049.1-3.521-1.489-7.755-3.551s-7.627-3.815-7.577-3.916,3.52,1.489,7.755,3.551,7.626,3.815,7.577,3.916" transform="translate(-167.179 -86.327)" fill="#fff"/>
        <path id="Trazado_622990" data-name="Trazado 622990" d="M588.157,309.759c-.05.1-3.831-1.639-8.446-3.887s-8.316-4.151-8.268-4.252,3.83,1.639,8.446,3.887,8.316,4.151,8.268,4.252" transform="translate(-166.438 -87.849)" fill="#fff"/>
        <path id="Trazado_622991" data-name="Trazado 622991" d="M585.757,314.69c-.049.1-3.831-1.639-8.445-3.887s-8.318-4.151-8.268-4.252,3.829,1.639,8.445,3.887,8.316,4.151,8.267,4.252" transform="translate(-165.739 -89.285)" fill="#fff"/>
        <path id="Trazado_622992" data-name="Trazado 622992" d="M583.355,319.619c-.049.1-3.831-1.639-8.445-3.887s-8.317-4.151-8.268-4.252,3.83,1.639,8.446,3.887,8.316,4.151,8.267,4.252" transform="translate(-165.04 -90.72)" fill="#fff"/>
        <path id="Trazado_622993" data-name="Trazado 622993" d="M580.955,324.55c-.049.1-3.831-1.639-8.445-3.887s-8.317-4.151-8.268-4.252,3.829,1.639,8.445,3.887,8.316,4.151,8.267,4.252" transform="translate(-164.34 -92.156)" fill="#fff"/>
        <path id="Trazado_622994" data-name="Trazado 622994" d="M10.14,342.262v14.8a.736.736,0,0,1-.736.736H8.159a.736.736,0,0,0-.736.736v.295a.736.736,0,0,0,.736.736H9.4a.736.736,0,0,1,.736.736v9.421a.736.736,0,0,0,.736.736H60.2a.736.736,0,0,0,.736-.736v-8.439a.736.736,0,0,0-.736-.736H57.91a.737.737,0,0,1-.736-.736v-.687a.736.736,0,0,1,.736-.736H60.2a.736.736,0,0,0,.736-.736v-1.766a.737.737,0,0,1,.736-.736h.2a.736.736,0,1,0,0-1.472h-.514a.736.736,0,0,1-.736-.736V342.262a.736.736,0,0,0-.736-.736H10.876a.736.736,0,0,0-.736.736" transform="translate(-2.162 -99.473)" fill="#f5f5f5"/>
        <path id="Trazado_622995" data-name="Trazado 622995" d="M63.9,342.308v27.238a.736.736,0,0,0,.736.736H76.649a.736.736,0,0,0,.736-.736v-8.44a.736.736,0,0,0-.736-.736H74.358a.736.736,0,0,1-.736-.736v-.492a.736.736,0,0,1,.749-.736l2.264.04a.736.736,0,0,0,.749-.736v-1.752a.736.736,0,0,1,.736-.736h.217a.735.735,0,0,0,.736-.75l0-.218a.735.735,0,0,0-.717-.721l-.564-.014a.736.736,0,0,1-.718-.736V342.266a.736.736,0,0,0-.739-.736l-11.7.043a.736.736,0,0,0-.734.736" transform="translate(-18.61 -99.474)" fill="#e0e0e0"/>
        <path id="Trazado_622996" data-name="Trazado 622996" d="M48.379,366.579c0,.1-9.192.181-20.527.181s-20.53-.081-20.53-.181,9.19-.181,20.53-.181,20.527.081,20.527.181" transform="translate(-2.133 -106.717)" fill="#e0e0e0"/>
        <path id="Trazado_622997" data-name="Trazado 622997" d="M48.379,364.247c0,.1-9.192.181-20.527.181s-20.53-.081-20.53-.181,9.19-.18,20.53-.18,20.527.081,20.527.18" transform="translate(-2.133 -106.038)" fill="#e0e0e0"/>
        <path id="Trazado_622998" data-name="Trazado 622998" d="M52.1,357.969c0,.1-9.192.18-20.527.18s-20.53-.08-20.53-.18,9.19-.18,20.53-.18,20.527.081,20.527.18" transform="translate(-3.216 -104.209)" fill="#e0e0e0"/>
        <path id="Trazado_622999" data-name="Trazado 622999" d="M52.457,375.076c0,.1-9.192.181-20.527.181s-20.53-.081-20.53-.181,9.19-.18,20.53-.18,20.527.081,20.527.18" transform="translate(-3.32 -109.192)" fill="#e0e0e0"/>
        <path id="Trazado_623000" data-name="Trazado 623000" d="M15.547,381.954v14.8a.736.736,0,0,1-.736.736H13.566a.736.736,0,0,0-.736.736v.295a.736.736,0,0,0,.736.736h1.246a.736.736,0,0,1,.736.736v9.421a.736.736,0,0,0,.736.736H65.608a.736.736,0,0,0,.736-.736v-8.44a.736.736,0,0,0-.736-.736H63.317a.736.736,0,0,1-.736-.736v-.687a.736.736,0,0,1,.736-.736h2.291a.736.736,0,0,0,.736-.736v-1.766a.736.736,0,0,1,.736-.736h.2a.736.736,0,1,0,0-1.472h-.514a.736.736,0,0,1-.736-.736V381.954a.736.736,0,0,0-.736-.736H16.284a.736.736,0,0,0-.736.736" transform="translate(-3.737 -111.033)" fill="#f5f5f5"/>
        <path id="Trazado_623001" data-name="Trazado 623001" d="M69.3,382v27.238a.736.736,0,0,0,.736.736H82.056a.736.736,0,0,0,.736-.736V400.8a.736.736,0,0,0-.736-.736H79.765a.736.736,0,0,1-.736-.736v-.493a.736.736,0,0,1,.749-.736l2.264.04a.736.736,0,0,0,.749-.736V395.65a.736.736,0,0,1,.736-.736h.217a.735.735,0,0,0,.736-.75l0-.218a.735.735,0,0,0-.717-.721l-.564-.014a.736.736,0,0,1-.718-.736V381.958a.736.736,0,0,0-.739-.736l-11.7.042A.737.737,0,0,0,69.3,382" transform="translate(-20.185 -111.034)" fill="#e0e0e0"/>
        <path id="Trazado_623002" data-name="Trazado 623002" d="M53.786,406.271c0,.1-9.192.181-20.527.181s-20.53-.081-20.53-.181,9.19-.181,20.53-.181,20.527.081,20.527.181" transform="translate(-3.707 -118.277)" fill="#e0e0e0"/>
        <path id="Trazado_623003" data-name="Trazado 623003" d="M53.786,403.938c0,.1-9.192.181-20.527.181s-20.53-.081-20.53-.181,9.19-.18,20.53-.18,20.527.081,20.527.18" transform="translate(-3.707 -117.598)" fill="#e0e0e0"/>
        <path id="Trazado_623004" data-name="Trazado 623004" d="M57.506,397.661c0,.1-9.192.18-20.528.18s-20.529-.08-20.529-.18,9.19-.18,20.529-.18,20.528.08,20.528.18" transform="translate(-4.791 -115.77)" fill="#e0e0e0"/>
        <path id="Trazado_623005" data-name="Trazado 623005" d="M57.864,414.768c0,.1-9.192.181-20.528.181s-20.529-.081-20.529-.181,9.19-.18,20.529-.18,20.528.081,20.528.18" transform="translate(-4.895 -120.753)" fill="#e0e0e0"/>
        <path id="Trazado_623006" data-name="Trazado 623006" d="M9.265,421.11v14.8a.736.736,0,0,1-.736.736H7.284a.736.736,0,0,0-.736.736v.295a.736.736,0,0,0,.736.736H8.53a.736.736,0,0,1,.736.736v9.421a.736.736,0,0,0,.736.736H59.326a.736.736,0,0,0,.736-.736v-8.44a.736.736,0,0,0-.736-.736H57.035a.736.736,0,0,1-.736-.736v-.687a.736.736,0,0,1,.736-.736h2.291a.736.736,0,0,0,.736-.736v-1.766A.736.736,0,0,1,60.8,434H61a.736.736,0,1,0,0-1.472h-.514a.736.736,0,0,1-.736-.736V421.11a.736.736,0,0,0-.736-.736H10a.736.736,0,0,0-.736.736" transform="translate(-1.907 -122.438)" fill="#f5f5f5"/>
        <path id="Trazado_623007" data-name="Trazado 623007" d="M63.021,421.156v27.238a.736.736,0,0,0,.736.736H75.774a.736.736,0,0,0,.736-.736v-8.44a.736.736,0,0,0-.736-.736H73.483a.736.736,0,0,1-.736-.736v-.492a.736.736,0,0,1,.749-.736l2.264.04a.736.736,0,0,0,.749-.736v-1.753a.735.735,0,0,1,.736-.736h.217a.735.735,0,0,0,.736-.75l0-.218a.735.735,0,0,0-.717-.721l-.564-.014a.736.736,0,0,1-.718-.736V421.114a.736.736,0,0,0-.739-.736l-11.7.042a.736.736,0,0,0-.734.736" transform="translate(-18.355 -122.439)" fill="#e0e0e0"/>
        <path id="Trazado_623008" data-name="Trazado 623008" d="M47.5,445.428c0,.1-9.192.181-20.527.181s-20.53-.081-20.53-.181,9.19-.181,20.53-.181,20.527.081,20.527.181" transform="translate(-1.878 -129.682)" fill="#e0e0e0"/>
        <path id="Trazado_623009" data-name="Trazado 623009" d="M47.5,443.1c0,.1-9.192.181-20.527.181s-20.53-.081-20.53-.181,9.19-.18,20.53-.18S47.5,443,47.5,443.1" transform="translate(-1.878 -129.003)" fill="#e0e0e0"/>
        <path id="Trazado_623010" data-name="Trazado 623010" d="M51.224,436.817c0,.1-9.192.18-20.527.18s-20.53-.08-20.53-.18,9.19-.18,20.53-.18,20.527.081,20.527.18" transform="translate(-2.961 -127.175)" fill="#e0e0e0"/>
        <path id="Trazado_623011" data-name="Trazado 623011" d="M51.582,453.925c0,.1-9.192.181-20.528.181s-20.529-.081-20.529-.181,9.19-.18,20.529-.18,20.528.081,20.528.18" transform="translate(-3.066 -132.157)" fill="#e0e0e0"/>
        <path id="Trazado_623012" data-name="Trazado 623012" d="M16.523,224.082v14.8a.736.736,0,0,1-.736.736H14.542a.736.736,0,0,0-.736.736v.295a.736.736,0,0,0,.736.736h1.246a.736.736,0,0,1,.736.736v9.421a.736.736,0,0,0,.736.736H66.584a.736.736,0,0,0,.736-.736V243.1a.736.736,0,0,0-.736-.736H64.292a.736.736,0,0,1-.736-.736v-.687a.736.736,0,0,1,.736-.736h2.291a.736.736,0,0,0,.736-.736v-1.766a.736.736,0,0,1,.736-.736h.2a.736.736,0,1,0,0-1.472h-.514a.736.736,0,0,1-.736-.736V224.082a.736.736,0,0,0-.736-.736H17.259a.735.735,0,0,0-.736.736" transform="translate(-4.021 -65.052)" fill="#f5f5f5"/>
        <path id="Trazado_623013" data-name="Trazado 623013" d="M70.279,224.127v27.238a.736.736,0,0,0,.736.736H83.032a.736.736,0,0,0,.736-.736v-8.44a.736.736,0,0,0-.736-.736H80.741a.736.736,0,0,1-.736-.736v-.493a.736.736,0,0,1,.749-.736l2.264.04a.736.736,0,0,0,.749-.736v-1.752a.736.736,0,0,1,.737-.736h.216a.736.736,0,0,0,.737-.75l0-.218a.735.735,0,0,0-.717-.721l-.564-.014a.736.736,0,0,1-.718-.736V224.085a.736.736,0,0,0-.739-.736l-11.7.042a.737.737,0,0,0-.734.736" transform="translate(-20.469 -65.052)" fill="#e0e0e0"/>
        <path id="Trazado_623014" data-name="Trazado 623014" d="M54.762,248.4c0,.1-9.192.181-20.527.181S13.7,248.5,13.7,248.4s9.19-.181,20.53-.181,20.527.081,20.527.181" transform="translate(-3.992 -72.296)" fill="#e0e0e0"/>
        <path id="Trazado_623015" data-name="Trazado 623015" d="M54.762,246.066c0,.1-9.192.181-20.527.181s-20.53-.081-20.53-.181,9.19-.18,20.53-.18,20.527.081,20.527.18" transform="translate(-3.992 -71.617)" fill="#e0e0e0"/>
        <path id="Trazado_623016" data-name="Trazado 623016" d="M58.482,239.788c0,.1-9.192.181-20.528.181s-20.529-.081-20.529-.181,9.19-.181,20.529-.181,20.528.081,20.528.181" transform="translate(-5.075 -69.788)" fill="#e0e0e0"/>
        <path id="Trazado_623017" data-name="Trazado 623017" d="M58.84,256.9c0,.1-9.192.181-20.527.181s-20.53-.081-20.53-.181,9.19-.18,20.53-.18,20.527.081,20.527.18" transform="translate(-5.179 -74.771)" fill="#e0e0e0"/>
        <path id="Trazado_623018" data-name="Trazado 623018" d="M21.93,263.773v14.8a.736.736,0,0,1-.736.736H19.949a.736.736,0,0,0-.736.736v.295a.736.736,0,0,0,.736.736h1.245a.736.736,0,0,1,.736.736v9.421a.736.736,0,0,0,.736.736H71.991a.736.736,0,0,0,.736-.736V282.8a.736.736,0,0,0-.736-.736H69.7a.736.736,0,0,1-.736-.736v-.687a.736.736,0,0,1,.736-.736h2.291a.736.736,0,0,0,.736-.736V277.4a.736.736,0,0,1,.736-.736h.2a.736.736,0,1,0,0-1.472h-.514a.736.736,0,0,1-.736-.736V263.773a.736.736,0,0,0-.736-.736H22.666a.736.736,0,0,0-.736.736" transform="translate(-5.596 -76.612)" fill="#f5f5f5"/>
        <path id="Trazado_623019" data-name="Trazado 623019" d="M75.686,263.819v27.238a.736.736,0,0,0,.736.736H88.439a.736.736,0,0,0,.736-.736v-8.44a.736.736,0,0,0-.736-.736H86.148a.736.736,0,0,1-.736-.736v-.493a.735.735,0,0,1,.749-.736l2.264.04a.736.736,0,0,0,.749-.736v-1.752a.736.736,0,0,1,.737-.736h.216a.737.737,0,0,0,.737-.751l0-.218a.735.735,0,0,0-.717-.721l-.564-.014a.736.736,0,0,1-.718-.736V263.777a.736.736,0,0,0-.739-.736l-11.7.043a.736.736,0,0,0-.734.736" transform="translate(-22.044 -76.613)" fill="#e0e0e0"/>
        <path id="Trazado_623020" data-name="Trazado 623020" d="M60.169,288.09c0,.1-9.192.181-20.527.181s-20.53-.081-20.53-.181,9.19-.18,20.53-.18,20.527.08,20.527.18" transform="translate(-5.567 -83.856)" fill="#e0e0e0"/>
        <path id="Trazado_623021" data-name="Trazado 623021" d="M60.169,285.758c0,.1-9.192.181-20.527.181s-20.53-.081-20.53-.181,9.19-.18,20.53-.18,20.527.081,20.527.18" transform="translate(-5.567 -83.177)" fill="#e0e0e0"/>
        <path id="Trazado_623022" data-name="Trazado 623022" d="M63.889,279.48c0,.1-9.192.181-20.528.181s-20.529-.081-20.529-.181,9.19-.18,20.529-.18,20.528.081,20.528.18" transform="translate(-6.65 -81.349)" fill="#e0e0e0"/>
        <path id="Trazado_623023" data-name="Trazado 623023" d="M64.247,296.587c0,.1-9.192.181-20.528.181s-20.529-.08-20.529-.181,9.19-.179,20.529-.179,20.528.08,20.528.179" transform="translate(-6.754 -86.332)" fill="#e0e0e0"/>
        <path id="Trazado_623024" data-name="Trazado 623024" d="M15.648,302.93v14.8a.736.736,0,0,1-.736.736H13.667a.736.736,0,0,0-.736.736v.295a.736.736,0,0,0,.736.736h1.246a.736.736,0,0,1,.736.736v9.421a.736.736,0,0,0,.736.736H65.708a.736.736,0,0,0,.736-.736v-8.44a.736.736,0,0,0-.736-.736H63.417a.736.736,0,0,1-.736-.736v-.687a.736.736,0,0,1,.736-.736h2.291a.736.736,0,0,0,.736-.736v-1.766a.736.736,0,0,1,.736-.736h.2a.736.736,0,1,0,0-1.472h-.514a.736.736,0,0,1-.736-.736V302.93a.736.736,0,0,0-.736-.736H16.385a.736.736,0,0,0-.736.736" transform="translate(-3.766 -88.017)" fill="#f5f5f5"/>
        <path id="Trazado_623025" data-name="Trazado 623025" d="M69.4,302.975v27.238a.736.736,0,0,0,.736.736H82.157a.736.736,0,0,0,.736-.736v-8.44a.736.736,0,0,0-.736-.736H79.866a.736.736,0,0,1-.736-.736v-.493a.736.736,0,0,1,.749-.736l2.264.04a.736.736,0,0,0,.749-.736v-1.752a.736.736,0,0,1,.736-.736h.217a.735.735,0,0,0,.736-.75l0-.218a.735.735,0,0,0-.717-.721l-.564-.014a.736.736,0,0,1-.718-.736V302.933a.736.736,0,0,0-.739-.736l-11.7.043a.736.736,0,0,0-.734.736" transform="translate(-20.215 -88.018)" fill="#e0e0e0"/>
        <path id="Trazado_623026" data-name="Trazado 623026" d="M53.887,327.247c0,.1-9.192.181-20.527.181s-20.53-.081-20.53-.181,9.19-.18,20.53-.18,20.527.08,20.527.18" transform="translate(-3.737 -95.261)" fill="#e0e0e0"/>
        <path id="Trazado_623027" data-name="Trazado 623027" d="M53.887,324.914c0,.1-9.192.18-20.527.18s-20.53-.08-20.53-.18,9.19-.18,20.53-.18,20.527.08,20.527.18" transform="translate(-3.737 -94.582)" fill="#e0e0e0"/>
        <path id="Trazado_623028" data-name="Trazado 623028" d="M57.607,318.636c0,.1-9.192.181-20.527.181s-20.53-.081-20.53-.181,9.19-.18,20.53-.18,20.527.081,20.527.18" transform="translate(-4.82 -92.753)" fill="#e0e0e0"/>
        <path id="Trazado_623029" data-name="Trazado 623029" d="M57.965,335.744c0,.1-9.192.181-20.528.181s-20.529-.081-20.529-.181,9.19-.18,20.529-.18,20.528.081,20.528.18" transform="translate(-4.925 -97.736)" fill="#e0e0e0"/>
        <rect id="Rectángulo_327412" data-name="Rectángulo 327412" width="12.21" height="38.136" transform="translate(230.512 38.469)" fill="#f5f5f5"/>
        <rect id="Rectángulo_327413" data-name="Rectángulo 327413" width="12.21" height="29.425" transform="translate(248.744 47.18)" fill="#f5f5f5"/>
        <rect id="Rectángulo_327414" data-name="Rectángulo 327414" width="12.21" height="17.474" transform="translate(265.623 59.131)" fill="#f5f5f5"/>
      </g>
    </g>
    <g id="Grupo_877316" data-name="Grupo 877316">
      <g id="Grupo_877315" data-name="Grupo 877315" clip-path="url(#clip-path)">
        <path id="Trazado_623030" data-name="Trazado 623030" d="M476.917,461.9c0,.1-106.77.184-238.447.184C106.747,462.08,0,462,0,461.9s106.747-.184,238.47-.184c131.677,0,238.447.082,238.447.184" transform="translate(0 -134.478)" fill="#263238"/>
      </g>
    </g>
    <g id="Grupo_877318" data-name="Grupo 877318">
      <g id="Grupo_877317" data-name="Grupo 877317" clip-path="url(#clip-path)">
        <path id="Trazado_623031" data-name="Trazado 623031" d="M559.684,198.512a26.231,26.231,0,1,1,26.649,25.925,26.326,26.326,0,0,1-26.649-25.925m38.768-.626a12.542,12.542,0,1,0-12.34,12.8,12.583,12.583,0,0,0,12.34-12.8" transform="translate(-163.012 -50.02)" fill="#455a64"/>
        <path id="Trazado_623032" data-name="Trazado 623032" d="M559.684,198.513a26.326,26.326,0,0,1,25.806-26.772l.22,13.75a12.6,12.6,0,0,0,.4,25.2l.22,13.75a26.317,26.317,0,0,1-26.649-25.925" transform="translate(-163.012 -50.021)" fill="#eb6f2d"/>
        <path id="Trazado_623033" data-name="Trazado 623033" d="M592.774,168.755a29.97,29.97,0,0,1,30.688,29.855l-16.013.259c-.13-8.127-6.314-13.244-14.4-13.113Z" transform="translate(-172.651 -49.15)" fill="#263238"/>
      </g>
    </g>
    <path id="Trazado_623113" data-name="Trazado 623113" d="M0,0H46.676V100.507H0Z" transform="translate(208.004 226.549)" fill="#ffb338"/>
    <g id="Grupo_877341" data-name="Grupo 877341">
      <g id="Grupo_877340" data-name="Grupo 877340" clip-path="url(#clip-path)">
        <g id="Grupo_877321" data-name="Grupo 877321" transform="translate(240.211 226.549)" opacity="0.3">
          <g id="Grupo_877320" data-name="Grupo 877320">
            <g id="Grupo_877319" data-name="Grupo 877319" clip-path="url(#clip-path-6)">
              <rect id="Rectángulo_327419" data-name="Rectángulo 327419" width="14.469" height="100.507"/>
            </g>
          </g>
        </g>
        <path id="Trazado_623034" data-name="Trazado 623034" d="M338.846,420.623c-.109,0-.2-22.247-.2-49.683s.089-49.688.2-49.688.2,22.242.2,49.688-.089,49.683-.2,49.683" transform="translate(-98.634 -93.567)" fill="#263238"/>
        <rect id="Rectángulo_327421" data-name="Rectángulo 327421" width="46.676" height="135.939" transform="translate(151.038 191.116)" fill="#ffb338"/>
        <g id="Grupo_877324" data-name="Grupo 877324" transform="translate(183.245 191.116)" opacity="0.3">
          <g id="Grupo_877323" data-name="Grupo 877323">
            <g id="Grupo_877322" data-name="Grupo 877322" clip-path="url(#clip-path-7)">
              <rect id="Rectángulo_327422" data-name="Rectángulo 327422" width="14.469" height="135.939"/>
            </g>
          </g>
        </g>
        <path id="Trazado_623035" data-name="Trazado 623035" d="M258.469,406.226c-.109,0-.2-30.09-.2-67.2s.089-67.206.2-67.206.2,30.083.2,67.206-.089,67.2-.2,67.2" transform="translate(-75.224 -79.17)" fill="#263238"/>
        <rect id="Rectángulo_327424" data-name="Rectángulo 327424" width="46.676" height="71.248" transform="translate(265.593 255.808)" fill="#ffb338"/>
        <g id="Grupo_877327" data-name="Grupo 877327" transform="translate(297.801 255.808)" opacity="0.3">
          <g id="Grupo_877326" data-name="Grupo 877326">
            <g id="Grupo_877325" data-name="Grupo 877325" clip-path="url(#clip-path-8)">
              <rect id="Rectángulo_327425" data-name="Rectángulo 327425" width="14.469" height="71.248" transform="translate(0)"/>
            </g>
          </g>
        </g>
        <path id="Trazado_623036" data-name="Trazado 623036" d="M420.1,432.511c-.109,0-.2-15.77-.2-35.22s.089-35.223.2-35.223.2,15.767.2,35.223-.089,35.22-.2,35.22" transform="translate(-122.301 -105.456)" fill="#263238"/>
        <rect id="Rectángulo_327427" data-name="Rectángulo 327427" width="46.676" height="38.877" transform="translate(321.937 288.179)" fill="#ffb338"/>
        <g id="Grupo_877330" data-name="Grupo 877330" transform="translate(354.144 288.179)" opacity="0.3">
          <g id="Grupo_877329" data-name="Grupo 877329">
            <g id="Grupo_877328" data-name="Grupo 877328" clip-path="url(#clip-path-9)">
              <rect id="Rectángulo_327428" data-name="Rectángulo 327428" width="14.469" height="38.877" transform="translate(0 0)"/>
            </g>
          </g>
        </g>
        <path id="Trazado_623037" data-name="Trazado 623037" d="M499.6,445.664c-.109,0-.2-8.605-.2-19.218s.089-19.22.2-19.22.2,8.6.2,19.22-.089,19.218-.2,19.218" transform="translate(-145.456 -118.608)" fill="#263238"/>
        <rect id="Rectángulo_327430" data-name="Rectángulo 327430" width="46.676" height="25.425" transform="translate(378.903 301.631)" fill="#ffb338"/>
        <g id="Grupo_877333" data-name="Grupo 877333" transform="translate(411.11 301.631)" opacity="0.3">
          <g id="Grupo_877332" data-name="Grupo 877332">
            <g id="Grupo_877331" data-name="Grupo 877331" clip-path="url(#clip-path-10)">
              <rect id="Rectángulo_327431" data-name="Rectángulo 327431" width="14.469" height="25.425" transform="translate(0.001 0)"/>
            </g>
          </g>
        </g>
        <path id="Trazado_623038" data-name="Trazado 623038" d="M579.977,451.13c-.109,0-.2-5.627-.2-12.568s.089-12.569.2-12.569.2,5.627.2,12.569-.089,12.568-.2,12.568" transform="translate(-168.866 -124.074)" fill="#263238"/>
        <rect id="Rectángulo_327433" data-name="Rectángulo 327433" width="46.676" height="180.603" transform="translate(94.072 146.427)" fill="#ffb338"/>
        <g id="Grupo_877336" data-name="Grupo 877336" transform="translate(126.278 146.427)" opacity="0.3">
          <g id="Grupo_877335" data-name="Grupo 877335">
            <g id="Grupo_877334" data-name="Grupo 877334" clip-path="url(#clip-path-11)">
              <rect id="Rectángulo_327434" data-name="Rectángulo 327434" width="14.469" height="180.603" transform="translate(0.001)"/>
            </g>
          </g>
        </g>
        <path id="Trazado_623039" data-name="Trazado 623039" d="M178.092,388.777c-.109,0-.2-40.14-.2-89.645,0-49.521.089-89.653.2-89.653s.2,40.132.2,89.653c0,49.5-.089,89.645-.2,89.645" transform="translate(-51.813 -61.013)" fill="#263238"/>
        <rect id="Rectángulo_327436" data-name="Rectángulo 327436" width="46.676" height="217.993" transform="translate(37.105 109.771)" fill="#ffb338"/>
        <g id="Grupo_877339" data-name="Grupo 877339" transform="translate(69.313 109.771)" opacity="0.3">
          <g id="Grupo_877338" data-name="Grupo 877338">
            <g id="Grupo_877337" data-name="Grupo 877337" clip-path="url(#clip-path-12)">
              <rect id="Rectángulo_327437" data-name="Rectángulo 327437" width="14.469" height="217.993" transform="translate(0)"/>
            </g>
          </g>
        </g>
        <path id="Trazado_623040" data-name="Trazado 623040" d="M97.716,373.887c-.109,0-.2-48.252-.2-107.76,0-59.529.089-107.771.2-107.771s.2,48.242.2,107.771c0,59.508-.089,107.76-.2,107.76" transform="translate(-28.403 -46.122)" fill="#263238"/>
      </g>
    </g>
    <g id="Grupo_877349" data-name="Grupo 877349">
      <g id="Grupo_877348" data-name="Grupo 877348" clip-path="url(#clip-path)">
        <path id="Trazado_623041" data-name="Trazado 623041" d="M98.627,80.736A29.668,29.668,0,1,1,68.96,51.069,29.668,29.668,0,0,1,98.627,80.736" transform="translate(-11.444 -14.874)" fill="#2b95f9"/>
        <g id="Grupo_877344" data-name="Grupo 877344" transform="translate(27.847 36.193)" opacity="0.3">
          <g id="Grupo_877343" data-name="Grupo 877343">
            <g id="Grupo_877342" data-name="Grupo 877342" clip-path="url(#clip-path-14)">
              <path id="Trazado_623042" data-name="Trazado 623042" d="M98.627,80.736A29.668,29.668,0,1,1,68.96,51.069,29.668,29.668,0,0,1,98.627,80.736" transform="translate(-39.291 -51.068)"/>
            </g>
          </g>
        </g>
        <path id="Trazado_623043" data-name="Trazado 623043" d="M98.627,76.113A29.668,29.668,0,1,1,68.96,46.445,29.668,29.668,0,0,1,98.627,76.113" transform="translate(-11.444 -13.528)" fill="#2b95f9"/>
        <path id="Trazado_623044" data-name="Trazado 623044" d="M92.857,80.138A19.872,19.872,0,1,1,72.985,60.266,19.872,19.872,0,0,1,92.857,80.138" transform="translate(-15.47 -17.553)" fill="#fff"/>
        <path id="Trazado_623045" data-name="Trazado 623045" d="M86.88,84.309a9.725,9.725,0,1,1-9.725-9.725,9.725,9.725,0,0,1,9.725,9.725" transform="translate(-19.64 -21.723)" fill="#2b95f9"/>
        <path id="Trazado_623046" data-name="Trazado 623046" d="M114.475,47.427l-.806-6.33,6.442-6.9.464,6.831Z" transform="translate(-33.107 -9.962)" fill="#455a64"/>
        <path id="Trazado_623047" data-name="Trazado 623047" d="M128.939,45.536,122.4,45l-6.552,6.3,6.553.7Z" transform="translate(-33.743 -13.108)" fill="#455a64"/>
        <g id="Grupo_877347" data-name="Grupo 877347" transform="translate(58.815 41.66)" opacity="0.3">
          <g id="Grupo_877346" data-name="Grupo 877346">
            <g id="Grupo_877345" data-name="Grupo 877345" clip-path="url(#clip-path-15)">
              <path id="Trazado_623048" data-name="Trazado 623048" d="M82.985,79.563,105.67,62.244a27.637,27.637,0,0,0-2.839-3.464L82.985,78.021Z" transform="translate(-82.985 -58.78)"/>
            </g>
          </g>
        </g>
        <path id="Trazado_623049" data-name="Trazado 623049" d="M111.467,41.285,101.06,51.831,84.55,68.56l-3.8,3.846c-1.2,1.218.676,3.1,1.88,1.88L93.041,63.74l16.51-16.729,3.8-3.846c1.2-1.219-.675-3.1-1.88-1.88" transform="translate(-23.408 -11.91)" fill="#263238"/>
        <path id="Trazado_623050" data-name="Trazado 623050" d="M81.075,25.359c-.1,0-.184-5.677-.184-12.679S80.973,0,81.075,0s.184,5.676.184,12.68-.082,12.679-.184,12.679" transform="translate(-23.56)" fill="#263238"/>
        <path id="Trazado_623051" data-name="Trazado 623051" d="M104.338,17.112c.082.061-1.945,2.908-4.528,6.357s-4.741,6.2-4.824,6.136,1.945-2.907,4.529-6.357,4.741-6.2,4.823-6.136" transform="translate(-27.665 -4.984)" fill="#263238"/>
        <path id="Trazado_623052" data-name="Trazado 623052" d="M53.795,16.286c.089-.05,1.849,2.97,3.93,6.743s3.7,6.873,3.607,6.922-1.848-2.97-3.93-6.744-3.7-6.873-3.607-6.922" transform="translate(-15.667 -4.743)" fill="#263238"/>
      </g>
    </g>
    <g id="Grupo_877351" data-name="Grupo 877351">
      <g id="Grupo_877350" data-name="Grupo 877350" clip-path="url(#clip-path)">
        <path id="Trazado_623053" data-name="Trazado 623053" d="M500.589,113.008l5.661-.661a18.2,18.2,0,1,0-3.668-5.391l-.006-.008Z" transform="translate(-145.801 -23.712)" fill="#fff"/>
        <path id="Trazado_623054" data-name="Trazado 623054" d="M500.589,112.941s.032-.123.111-.378l.359-1.152,1.439-4.554.045-.142.1.116.006.008-.138.085a18.174,18.174,0,0,1-1.552-8.9,17.849,17.849,0,0,1,1.406-5.678,18.214,18.214,0,0,1,9.565-9.641,18.318,18.318,0,0,1,25.442,14.435,18.664,18.664,0,0,1-.858,8.4,18.03,18.03,0,0,1-4.19,6.754,18.328,18.328,0,0,1-18.455,4.726,18.1,18.1,0,0,1-7.67-4.682l.065.023-4.245.447-1.073.108c-.239.023-.352.029-.352.029s.135-.023.382-.057l1.091-.145,4.178-.537.038,0,.027.028a18.088,18.088,0,0,0,25.775-.168,17.731,17.731,0,0,0,4.1-6.637,18.332,18.332,0,0,0,.831-8.238A18,18,0,0,0,519.574,81.54,18.011,18.011,0,0,0,502.62,92.452a17.684,17.684,0,0,0-1.42,5.587,18.175,18.175,0,0,0,1.456,8.817l.239.549-.376-.464-.006-.008.14-.026c-.659,1.941-1.167,3.437-1.517,4.466l-.4,1.163c-.091.263-.146.4-.146.4" transform="translate(-145.801 -23.645)" fill="#263238"/>
        <path id="Trazado_623055" data-name="Trazado 623055" d="M514.216,105.024l2.238-2.4,4.6,3.82,8.484-8.739,2.23,2.244-10.894,10.975Z" transform="translate(-149.77 -28.459)" fill="#fd4c1b"/>
      </g>
    </g>
    <g id="Grupo_877356" data-name="Grupo 877356">
      <g id="Grupo_877355" data-name="Grupo 877355" clip-path="url(#clip-path)">
        <path id="Trazado_623056" data-name="Trazado 623056" d="M378.456,140.761a21.739,21.739,0,0,0-3.442-3.041,8.2,8.2,0,0,0-2.065-.787s-10.538-2.907-12.753-3.1-1.991,1.615.068,1.955A45.643,45.643,0,0,1,366.7,137.9a1.2,1.2,0,0,0-.967,1.092,1.015,1.015,0,0,0,.59,1.138,1.691,1.691,0,0,0-.073,2.486s-.766.622-.523,1.323a5.983,5.983,0,0,0,1.329,1.686s4.5,2.849,5.476,2.928,2.1.292,2.1.292l1.585,1.147,4.252-6.672a19.848,19.848,0,0,0-2.009-2.557" transform="translate(-104.453 -38.975)" fill="#ffc09d"/>
        <path id="Trazado_623057" data-name="Trazado 623057" d="M370.009,139.513a3.756,3.756,0,0,0,.909.245,3.819,3.819,0,0,0,.936.13,3.767,3.767,0,0,0-.909-.245,3.819,3.819,0,0,0-.936-.13" transform="translate(-107.769 -40.632)" fill="#ff9b6c"/>
        <path id="Trazado_623058" data-name="Trazado 623058" d="M369.387,142.7a5.155,5.155,0,0,0,.884.291,5.209,5.209,0,0,0,.9.242,2.822,2.822,0,0,0-.86-.354,2.977,2.977,0,0,0-.926-.179" transform="translate(-107.587 -41.56)" fill="#ff9b6c"/>
        <path id="Trazado_623059" data-name="Trazado 623059" d="M369.026,145.715a6.708,6.708,0,0,0,.953.414,6.981,6.981,0,0,0,.97.381,3.253,3.253,0,0,0-.911-.487,3.564,3.564,0,0,0-1.011-.308" transform="translate(-107.482 -42.44)" fill="#ff9b6c"/>
        <path id="Trazado_623060" data-name="Trazado 623060" d="M488.23,281.5s-1.875-17.215-5.906-19.128-9.618-3.169-11.142-.593a30.518,30.518,0,0,0-3.719,10.577,65.379,65.379,0,0,0-.26,10.413l4.593-.512s-.225-17.156,1.17-19.692,8.47-.5,9.245,2.556,2.473,16.767,2.473,16.767Z" transform="translate(-136.048 -75.821)" fill="#455a64"/>
        <path id="Trazado_623061" data-name="Trazado 623061" d="M498.432,310.889c-.215-7.1-.894-22.755-1.2-29.64a3.5,3.5,0,0,0-3.514-3.342l-42.223.253a3.5,3.5,0,0,0-3.474,3.4l-.826,29.16a3.5,3.5,0,0,0,3.481,3.6l44.245.179a3.5,3.5,0,0,0,3.509-3.6" transform="translate(-130.25 -80.943)" fill="#455a64"/>
        <path id="Trazado_623062" data-name="Trazado 623062" d="M452.5,292.967s-.006.1-.008.313,0,.537,0,.94c0,.846.006,2.07.011,3.641.019,3.194.047,7.793.081,13.47q0,.534.009,1.081a2.08,2.08,0,0,0,.247,1.118,1.909,1.909,0,0,0,.87.8,2.492,2.492,0,0,0,1.176.173l4.828-.006,10.652-.019,11.771-.027,6.226-.017,3.184-.009.8,0a3.613,3.613,0,0,0,.837-.052,1.943,1.943,0,0,0,1.5-1.8c.008-.253-.006-.469-.008-.705q-.015-.694-.03-1.383-.029-1.379-.058-2.742-.058-2.725-.115-5.373c-.077-3.527-.151-6.939-.222-10.2l0-.155-.154.009c-12.131.739-22.537.941-29.9.974-3.683.017-6.606,0-8.609-.018l-2.307-.013h-.586a1.475,1.475,0,0,0-.192.006s.074.007.209.013l.6.023,2.279.069c2,.046,4.926.094,8.61.1,7.368.02,17.781-.142,29.921-.86l-.158-.145c.067,3.259.136,6.671.208,10.2q.055,2.645.112,5.373.029,1.362.057,2.741.014.69.029,1.383a2.67,2.67,0,0,1-.142,1.3,1.63,1.63,0,0,1-1.106.9,3.372,3.372,0,0,1-.767.045l-.8,0-3.184.011-6.226.022-11.771.045-10.652.048-4.828.024a2.259,2.259,0,0,1-1.077-.147,1.683,1.683,0,0,1-.765-.7,1.845,1.845,0,0,1-.222-1q-.007-.542-.014-1.072c-.085-5.651-.154-10.23-.2-13.409-.028-1.583-.05-2.816-.066-3.668q-.014-.618-.022-.96c-.006-.218-.015-.335-.015-.335" transform="translate(-131.792 -85.05)" fill="#263238"/>
        <path id="Trazado_623063" data-name="Trazado 623063" d="M468.027,313.349c0-.021-.26,0-.738-.1a3.718,3.718,0,0,1-1.829-1.012,3.841,3.841,0,0,1-1.028-3.069c0-1.328-.011-2.836-.018-4.5q-.006-1.251-.013-2.617a3.713,3.713,0,0,1,.751-2.581,3.492,3.492,0,0,1,2.508-1.332c1.026-.03,2.113-.021,3.211-.034l14.342-.118a3.5,3.5,0,0,1,3.011,1.677,3.425,3.425,0,0,1,.5,1.67q.012.912.023,1.81.019,1.8.036,3.532.01.865.018,1.712a14.38,14.38,0,0,1-.025,1.65,3.509,3.509,0,0,1-3.031,2.992c-.477.05-.994.028-1.478.042l-5.454.069-7.9.123-2.147.049-.559.021a.841.841,0,0,0-.19.018.857.857,0,0,0,.19.014l.559.011,2.148.011,7.9-.022,5.454-.03c.495-.012.977.016,1.509-.035a3.786,3.786,0,0,0,3.287-3.221,14.417,14.417,0,0,0,.034-1.693q-.006-.846-.013-1.712-.014-1.731-.028-3.532-.011-.9-.021-1.819a3.745,3.745,0,0,0-.549-1.821,3.816,3.816,0,0,0-3.283-1.829l-14.342.143c-1.106.018-2.168.011-3.229.048a3.756,3.756,0,0,0-2.695,1.447,3.967,3.967,0,0,0-.788,2.745c.011.909.023,1.783.034,2.617.023,1.664.045,3.172.064,4.5,0,.33.006.65.038.966a3.787,3.787,0,0,0,.222.877,3.668,3.668,0,0,0,2.763,2.3,2.787,2.787,0,0,0,.751.038" transform="translate(-135.187 -86.699)" fill="#263238"/>
        <g id="Grupo_877354" data-name="Grupo 877354" transform="translate(322.919 229.176)" opacity="0.3">
          <g id="Grupo_877353" data-name="Grupo 877353">
            <g id="Grupo_877352" data-name="Grupo 877352" clip-path="url(#clip-path-18)">
              <path id="Trazado_623064" data-name="Trazado 623064" d="M494.284,323.356a67.46,67.46,0,0,1-38.66.091Z" transform="translate(-455.624 -323.356)"/>
            </g>
          </g>
        </g>
        <path id="Trazado_623065" data-name="Trazado 623065" d="M475.691,303.3l5.248-.048a1.281,1.281,0,0,0,1.269-1.293l0-.265a1.282,1.282,0,0,0-1.293-1.269l-5.247.048a1.281,1.281,0,0,0-1.27,1.293l0,.264a1.282,1.282,0,0,0,1.293,1.27" transform="translate(-138.172 -87.5)" fill="#e0e0e0"/>
        <path id="Trazado_623066" data-name="Trazado 623066" d="M475.363,253.113a12.128,12.128,0,0,0-1.921,2.14,33.6,33.6,0,0,0-1.379,4.673s.7.635,1.96-1.369a18.5,18.5,0,0,0,1.627-3.01Z" transform="translate(-137.493 -73.722)" fill="#ffc09d"/>
        <path id="Trazado_623067" data-name="Trazado 623067" d="M482.146,242.473l-1.674,2.955-4.619,4.666-1.736,6.924a3.06,3.06,0,0,0,.237,2.179,1.082,1.082,0,0,0,.465.515c.518.216,1.98-.532,1.98-.532s1.066,1.324,2.2.542c0,0,1.642.846,2.553.026,0,0,1.041.825,1.816.311a26.393,26.393,0,0,0,2.994-3.749l2.973-10.669Z" transform="translate(-138.062 -70.623)" fill="#ffc09d"/>
        <path id="Trazado_623068" data-name="Trazado 623068" d="M495.09,160.115a7.537,7.537,0,0,1,3.094,5.789c.119,2.909,2.3,22.624,2.109,27.929s-9.224,30.411-9.224,30.411l-9.973-3,8.624-28.072-.853-17.621Z" transform="translate(-140.124 -46.635)" fill="#b6e1fd"/>
        <path id="Trazado_623069" data-name="Trazado 623069" d="M469.149,97.992a2.751,2.751,0,0,0-2.8-1.481,3.776,3.776,0,0,0-4.62-.072,3.426,3.426,0,0,0-3.286-.176,3.373,3.373,0,0,0-1.84,2.706,2.873,2.873,0,0,0-2.962,1.357,2.822,2.822,0,0,0,.365,3.216,2.656,2.656,0,0,0,.947,5.2l13.588-7.664a2.706,2.706,0,0,0,.609-3.089" transform="translate(-131.669 -27.869)" fill="#263238"/>
        <path id="Trazado_623070" data-name="Trazado 623070" d="M453.691,124.876c.067-2.922.7-8.929,1.33-14.358a11.342,11.342,0,0,1,11.692-9.972l.588.021c6.333.587,9.367,6.248,8.6,12.509l-1.785,19.74-12.252,11.049-2.67-7.809.425-3.977s-6.067-1.151-5.93-7.2" transform="translate(-132.141 -29.283)" fill="#ffc09d"/>
        <path id="Trazado_623071" data-name="Trazado 623071" d="M461.977,144.184a14.9,14.9,0,0,0,8.073-2.043s-2.032,4.287-8.1,3.533Z" transform="translate(-134.548 -41.4)" fill="#ff9b6c"/>
        <path id="Trazado_623072" data-name="Trazado 623072" d="M457.8,121.727a.866.866,0,0,0,.809.9.832.832,0,0,0,.925-.748.868.868,0,0,0-.809-.9.832.832,0,0,0-.926.748" transform="translate(-133.339 -35.235)" fill="#263238"/>
        <path id="Trazado_623073" data-name="Trazado 623073" d="M457.267,118.508c.1.116.78-.345,1.718-.31s1.607.524,1.713.414c.052-.049-.051-.256-.343-.483a2.4,2.4,0,0,0-1.366-.47,2.3,2.3,0,0,0-1.373.388c-.3.208-.4.41-.349.461" transform="translate(-133.179 -34.269)" fill="#263238"/>
        <path id="Trazado_623074" data-name="Trazado 623074" d="M469.737,122.369a.866.866,0,0,0,.809.9.832.832,0,0,0,.925-.748.868.868,0,0,0-.809-.9.832.832,0,0,0-.926.748" transform="translate(-136.815 -35.422)" fill="#263238"/>
        <path id="Trazado_623075" data-name="Trazado 623075" d="M470.257,119.2c.1.116.782-.345,1.718-.31s1.608.523,1.714.412c.052-.048-.05-.255-.344-.482a2.4,2.4,0,0,0-1.366-.47,2.305,2.305,0,0,0-1.372.387c-.295.21-.4.41-.349.462" transform="translate(-136.963 -34.471)" fill="#263238"/>
        <path id="Trazado_623076" data-name="Trazado 623076" d="M464.149,125.935a6.211,6.211,0,0,0-1.512-.325c-.238-.033-.464-.087-.5-.251a1.2,1.2,0,0,1,.185-.7q.367-.849.771-1.783a31.044,31.044,0,0,0,1.756-4.672,30.926,30.926,0,0,0-2.13,4.521q-.389.939-.742,1.795a1.363,1.363,0,0,0-.157.927.6.6,0,0,0,.381.361,1.651,1.651,0,0,0,.4.07,6.2,6.2,0,0,0,1.543.055" transform="translate(-134.499 -34.428)" fill="#263238"/>
        <path id="Trazado_623077" data-name="Trazado 623077" d="M467.718,130.152c-.152-.014-.189.994-1.085,1.68s-1.975.538-1.988.678c-.016.063.235.2.692.233a2.553,2.553,0,0,0,1.658-.51,2.188,2.188,0,0,0,.845-1.411c.053-.421-.051-.675-.121-.671" transform="translate(-135.332 -37.908)" fill="#263238"/>
        <path id="Trazado_623078" data-name="Trazado 623078" d="M470.1,114.138c.084.256,1.023.169,2.118.338,1.1.147,1.974.5,2.128.276.069-.106-.077-.349-.427-.607a3.754,3.754,0,0,0-3.235-.467c-.41.147-.619.339-.584.46" transform="translate(-136.92 -33.058)" fill="#263238"/>
        <path id="Trazado_623079" data-name="Trazado 623079" d="M457.883,114.706c.157.217.811.02,1.588.036.777-.01,1.429.192,1.588-.024.07-.1-.026-.32-.306-.529a2.315,2.315,0,0,0-2.559-.01c-.282.208-.38.422-.31.527" transform="translate(-133.356 -33.145)" fill="#263238"/>
        <path id="Trazado_623080" data-name="Trazado 623080" d="M456.534,107.451s1.741-3.732,3.615-4.552c2.267-.993,3.142,1.467,5.287.951s4.31-1.469,6.424.235c2.314,1.865,1.157,3.077,1.209,5.766.213,10.9,2.108,14.047,2.858,8.941.082-.559,1.669-.952,1.985-3.315.41-3.065.661-6.8.045-9a8.623,8.623,0,0,0-3.38-4.634c-2.917-2.316-7.029-2.505-9.832-2.323s-8.3,3.184-8.212,7.935" transform="translate(-132.969 -28.97)" fill="#263238"/>
        <path id="Trazado_623081" data-name="Trazado 623081" d="M483.218,125.854a1.652,1.652,0,0,1,1.843-1.52c1.134.147,2.377.831,2.221,3.159-.279,4.131-4.4,3-4.4,2.882,0-.081.207-2.794.339-4.521" transform="translate(-140.643 -36.209)" fill="#ffc09d"/>
        <path id="Trazado_623082" data-name="Trazado 623082" d="M484.3,129.433c.019-.012.069.055.188.119a.73.73,0,0,0,.541.047,1.782,1.782,0,0,0,.938-1.542,2.363,2.363,0,0,0-.133-1.043.836.836,0,0,0-.509-.588.372.372,0,0,0-.442.169c-.063.111-.043.2-.065.2s-.084-.075-.04-.243a.467.467,0,0,1,.181-.248.55.55,0,0,1,.408-.079,1.02,1.02,0,0,1,.715.69,2.432,2.432,0,0,1,.174,1.168,1.873,1.873,0,0,1-1.179,1.714.786.786,0,0,1-.656-.153c-.122-.111-.137-.2-.123-.211" transform="translate(-141.057 -36.761)" fill="#ff9b6c"/>
        <path id="Trazado_623083" data-name="Trazado 623083" d="M476.982,110.019a3.981,3.981,0,0,1-1.795.748,1.361,1.361,0,0,1-1.476-1c-.039-.29.044-.621-.14-.85-.218-.274-.641-.2-.992-.18a2.66,2.66,0,0,1-2.7-1.988,1.126,1.126,0,0,1-1.5.089,5.975,5.975,0,0,1-1.093-1.244,1.719,1.719,0,0,0-1.406-.76,4.184,4.184,0,0,1-.914.167c-.546-.067-.79-.712-.855-1.254s-.106-1.172-.559-1.481a2.2,2.2,0,0,0-1.49-.093c-.507.057-1.153-.084-1.265-.577a.977.977,0,0,1,.213-.743,2.717,2.717,0,0,1,3.223-.9,3.674,3.674,0,0,1,6.75-.471,3.73,3.73,0,0,1,5.89,1.549,2.772,2.772,0,0,1,2.78,1.043,2.718,2.718,0,0,1,.12,2.945,2.537,2.537,0,0,1,1.336,2.068,1.462,1.462,0,0,1-1.71,1.426,1.527,1.527,0,0,1-.657,1.923,1.555,1.555,0,0,1-1.974-.537" transform="translate(-134.207 -28.389)" fill="#263238"/>
        <path id="Trazado_623084" data-name="Trazado 623084" d="M484.959,113.046a.986.986,0,0,1-.288.786,1.343,1.343,0,0,1-.853.465,1.453,1.453,0,0,1-1.177-.383l.178-.021a4.146,4.146,0,0,1-.869,1,2.4,2.4,0,0,1-.776.442,1.864,1.864,0,0,1-2.021-.678,2.376,2.376,0,0,1-.308-.872.8.8,0,0,1-.02-.335c.018,0,.049.112.111.315a2.774,2.774,0,0,0,.357.8,1.711,1.711,0,0,0,2.5.145,4.168,4.168,0,0,0,.828-.939l.077-.119.1.1a1.273,1.273,0,0,0,.994.352,1.232,1.232,0,0,0,.768-.368,2.008,2.008,0,0,0,.393-.691" transform="translate(-139.46 -32.926)" fill="#455a64"/>
        <path id="Trazado_623085" data-name="Trazado 623085" d="M470.491,130.509c-.068,0-.078-.439-.42-.811s-.764-.45-.758-.517c0-.029.119-.06.307-.021a1.209,1.209,0,0,1,.632.381,1.188,1.188,0,0,1,.3.669c.015.19-.031.3-.06.3" transform="translate(-136.692 -37.614)" fill="#ff9b6c"/>
        <path id="Trazado_623086" data-name="Trazado 623086" d="M471.2,129.266c-.06.033-.206-.116-.424-.221s-.423-.141-.431-.208.252-.15.539,0,.376.408.315.434" transform="translate(-136.993 -37.501)" fill="#ff9b6c"/>
        <path id="Trazado_623087" data-name="Trazado 623087" d="M460.3,96.648c-.018-.04-.45.23-.787.915a3.508,3.508,0,0,0-.372,1.275,2.321,2.321,0,0,0,.43,1.587,3.39,3.39,0,0,0,1.3,1,9.449,9.449,0,0,0,1.231.464,5.421,5.421,0,0,0,1.166.3,4.479,4.479,0,0,0-1.1-.493c-.342-.135-.752-.293-1.178-.51a3.315,3.315,0,0,1-1.183-.931,2.128,2.128,0,0,1-.4-1.4,3.677,3.677,0,0,1,.29-1.207,4.955,4.955,0,0,1,.6-1" transform="translate(-133.726 -28.149)" fill="#e0e0e0"/>
        <path id="Trazado_623088" data-name="Trazado 623088" d="M457.038,100.486c-.034,0-.06.262.052.665a3.037,3.037,0,0,0,.865,1.366,3.07,3.07,0,0,0,1.442.748c.415.079.674.033.673,0s-.248-.077-.619-.2a3.683,3.683,0,0,1-1.3-.763,3.641,3.641,0,0,1-.868-1.22c-.154-.357-.2-.6-.25-.6" transform="translate(-133.108 -29.267)" fill="#e0e0e0"/>
        <path id="Trazado_623089" data-name="Trazado 623089" d="M448.417,152.618l-6,47.915c-.291,2.33,1.819,6.568,4.1,7.143l30.32,3.3a3.126,3.126,0,0,0,3.547-2.948c.759-6.5,1.279-20.156,2.216-29.052,1.033-9.808,2.915-22.276.636-24.048a81.568,81.568,0,0,0-11.611-7.1l-.508-4.454s-13.52,1.559-15.823,3.556l-1.072,4.306Z" transform="translate(-128.851 -41.759)" fill="#b6e1fd"/>
        <path id="Trazado_623090" data-name="Trazado 623090" d="M435.464,151.95l-27.816,2.631-21.631-10.6-4.575,9.5,3.311,1.722c5.333,3.4,15.059,10.545,19.109,12.333,5.678,2.508,34.2-.728,34.2-.728Z" transform="translate(-111.099 -41.936)" fill="#b6e1fd"/>
        <path id="Trazado_623091" data-name="Trazado 623091" d="M438.644,171.338a14.7,14.7,0,0,0,1.833-.263,9.019,9.019,0,0,0,4.312-2.437,10.4,10.4,0,0,0,2.907-6.654,8.452,8.452,0,0,0-.892-4.213,3.218,3.218,0,0,0-1.483-1.6,4.932,4.932,0,0,0-2.293-.281c-6.516.48-12.419,1.062-16.689,1.425l-5.059.435-1.376.106a2.419,2.419,0,0,1-.483.016,2.335,2.335,0,0,1,.475-.089l1.37-.175,5.048-.552c4.268-.43,10.155-1.052,16.693-1.533a5.25,5.25,0,0,1,2.466.314,3.571,3.571,0,0,1,1.653,1.773,8.763,8.763,0,0,1,.91,4.4,10.575,10.575,0,0,1-3.062,6.822,8.925,8.925,0,0,1-4.466,2.393,7.638,7.638,0,0,1-1.38.15,2.124,2.124,0,0,1-.483-.028" transform="translate(-122.16 -45.289)" fill="#263238"/>
        <path id="Trazado_623092" data-name="Trazado 623092" d="M476.483,149.653a25.725,25.725,0,0,1-2.548.509c-1.575.3-3.73.8-6.11,1.374s-4.56,1.038-6.153,1.272c-.8.118-1.443.2-1.892.231a2.6,2.6,0,0,1-.7.021,25.656,25.656,0,0,1,2.548-.509c1.574-.3,3.73-.8,6.111-1.374s4.559-1.038,6.152-1.273c.8-.117,1.443-.2,1.892-.231a2.579,2.579,0,0,1,.7-.021" transform="translate(-133.711 -43.584)" fill="#263238"/>
        <path id="Trazado_623093" data-name="Trazado 623093" d="M498.807,166.694a2.82,2.82,0,0,1-.028.529c-.038.38-.088.881-.15,1.507-.139,1.348-.332,3.23-.569,5.537-.462,4.678-1.027,11.146-1.419,18.306-.2,3.581-.339,6.995-.435,10.1-.04,1.551-.079,3.027-.114,4.41s-.031,2.668-.11,3.85a14.814,14.814,0,0,1-.518,3.149,7.039,7.039,0,0,1-1.04,2.177,4.712,4.712,0,0,1-1.079,1.076,2.89,2.89,0,0,1-.459.267,6.113,6.113,0,0,0,1.421-1.427,7.123,7.123,0,0,0,.958-2.15,14.977,14.977,0,0,0,.456-3.109c.062-1.167.045-2.455.065-3.839s.038-2.86.08-4.415c.077-3.109.208-6.527.407-10.111.392-7.167,1-13.64,1.528-18.313.265-2.337.505-4.225.686-5.528.091-.622.164-1.121.219-1.5a2.877,2.877,0,0,1,.1-.52" transform="translate(-143.557 -48.551)" fill="#263238"/>
        <path id="Trazado_623094" data-name="Trazado 623094" d="M410.346,331.906l5.43,12.107s-14.294,5.6-14.409,8.255l27.816-.5-.034-2.323-6.135-19.972Z" transform="translate(-116.902 -95.961)" fill="#455a64"/>
        <path id="Trazado_623095" data-name="Trazado 623095" d="M432.646,346.9a1.137,1.137,0,0,1,.809,1.282,1.092,1.092,0,0,1-1.264.813,1.2,1.2,0,0,1-.849-1.362,1.133,1.133,0,0,1,1.408-.7" transform="translate(-125.622 -101.026)" fill="#e0e0e0"/>
        <path id="Trazado_623096" data-name="Trazado 623096" d="M429.178,359.973l-.034-2.323-26.709,1.4s-1.229.561-1.073,1.431Z" transform="translate(-116.897 -104.169)" fill="#263238"/>
        <path id="Trazado_623097" data-name="Trazado 623097" d="M421.058,349.747c.007.136.688.185,1.363.61.687.407,1.043.989,1.167.933.124-.029-.093-.837-.921-1.337s-1.641-.33-1.61-.206" transform="translate(-122.637 -101.828)" fill="#263238"/>
        <path id="Trazado_623098" data-name="Trazado 623098" d="M416.972,351.555c-.029.132.563.352,1.036.919.488.552.616,1.172.751,1.163.128.019.208-.778-.393-1.471s-1.393-.741-1.394-.611" transform="translate(-121.447 -102.377)" fill="#263238"/>
        <path id="Trazado_623099" data-name="Trazado 623099" d="M414.259,355.592c.124.027.3-.656-.062-1.393s-1-1.022-1.058-.908c-.075.113.345.5.633,1.115s.352,1.175.487,1.186" transform="translate(-120.328 -102.892)" fill="#263238"/>
        <path id="Trazado_623100" data-name="Trazado 623100" d="M419.626,345.137c.059.123.679-.076,1.448-.038.769.023,1.371.269,1.439.152.077-.1-.515-.592-1.421-.624s-1.535.4-1.466.51" transform="translate(-122.218 -100.375)" fill="#263238"/>
        <path id="Trazado_623101" data-name="Trazado 623101" d="M478.052,374.658l.619,23.088-12.141-.033-.651-22.529Z" transform="translate(-135.692 -109.123)" fill="#455a64"/>
        <path id="Trazado_623102" data-name="Trazado 623102" d="M475.258,396.547c-.1,0-.254-4.922-.341-10.994s-.075-11,.026-11,.254,4.92.341,10.995.075,11-.026,11" transform="translate(-138.307 -109.092)" fill="#263238"/>
        <path id="Trazado_623103" data-name="Trazado 623103" d="M466.5,395.483a1.612,1.612,0,0,1,.3-.5,8.423,8.423,0,0,1,1.055-1.181,8.228,8.228,0,0,1,1.93-1.359,6.462,6.462,0,0,1,7.591,1.23,5.565,5.565,0,0,1,.918,1.3,1.556,1.556,0,0,1,.206.545,12.643,12.643,0,0,0-1.308-1.662,6.464,6.464,0,0,0-4.59-1.763A7.422,7.422,0,0,0,468.03,394c-1,.85-1.476,1.527-1.527,1.486" transform="translate(-135.873 -114.093)" fill="#263238"/>
        <path id="Trazado_623104" data-name="Trazado 623104" d="M478.861,406.122l-12.085-.055-.09-2.729,12.188.056Z" transform="translate(-135.926 -117.476)" fill="#263238"/>
        <path id="Trazado_623105" data-name="Trazado 623105" d="M457.714,235.765l-25.172-2.207-.421,2.763c-6.411,5.138-26.4,17.42-36.721,27.479,0,0-3.811,5.315-2.292,9.993l16.133,36.577,16.427-3.788-10.024-31.046,30.828-14.4c5.994-2.218,11.393-9.783,12.669-14.12,1.091-3.709-1.265-6.507-1.427-11.256" transform="translate(-114.393 -68.026)" fill="#263238"/>
        <path id="Trazado_623106" data-name="Trazado 623106" d="M454.584,273.421l6.659,77.7,16.809-.091s.541-23.72.207-39.714,1.61-48.495,1.61-48.495Z" transform="translate(-132.402 -76.548)" fill="#263238"/>
        <path id="Trazado_623107" data-name="Trazado 623107" d="M475.966,236.672l8.078.889s.8,16.139.213,18.184-4.945,10.147-4.945,10.147l-23.9,6.956v-18.2Z" transform="translate(-132.644 -68.933)" fill="#263238"/>
        <path id="Trazado_623108" data-name="Trazado 623108" d="M464.994,259.986a2.484,2.484,0,0,1-.2.434,11.981,11.981,0,0,1-.66,1.2,16.932,16.932,0,0,1-3.216,3.879,29.006,29.006,0,0,1-6.2,4.169c-2.5,1.31-5.344,2.511-8.28,3.879l-15.09,6.912-4.589,2.06-1.255.544a2.538,2.538,0,0,1-.448.169,2.517,2.517,0,0,1,.419-.231l1.228-.6,4.544-2.157,15.052-7c2.938-1.369,5.788-2.56,8.275-3.847a29.645,29.645,0,0,0,6.187-4.07,17.815,17.815,0,0,0,3.264-3.772c.644-.992.937-1.584.971-1.566" transform="translate(-123.801 -75.723)" fill="#455a64"/>
        <path id="Trazado_623109" data-name="Trazado 623109" d="M409.975,290.632a6.781,6.781,0,0,1,1.741-.336,19.058,19.058,0,0,1,4.281,0,17.666,17.666,0,0,1,4.17.975,6.644,6.644,0,0,1,1.6.76,15.013,15.013,0,0,1-1.679-.535,22.177,22.177,0,0,0-4.131-.866,24.577,24.577,0,0,0-4.223-.092,14.421,14.421,0,0,1-1.76.1" transform="translate(-119.409 -84.516)" fill="#455a64"/>
        <path id="Trazado_623110" data-name="Trazado 623110" d="M448.046,236.3l33.98,3.21-.111-2.49-33.268-3.458Z" transform="translate(-130.497 -68.026)" fill="#455a64"/>
        <path id="Trazado_623111" data-name="Trazado 623111" d="M458.2,237.585c.1-.2.344-3.147.344-3.147l1.849.193-.445,3.6Z" transform="translate(-133.455 -68.282)" fill="#263238"/>
        <path id="Trazado_623112" data-name="Trazado 623112" d="M483.343,240.264c.1-.2.344-3.148.344-3.148l1.849.193-.445,3.6Z" transform="translate(-140.778 -69.062)" fill="#263238"/>
      </g>
    </g>
  </g>
</svg>
