<svg xmlns="http://www.w3.org/2000/svg" xmlns:xlink="http://www.w3.org/1999/xlink" width="620" height="232.557" viewBox="0 0 620 232.557">
  <defs>
    <clipPath id="clip-path">
      <rect id="Rectángulo_328261" data-name="Rectángulo 328261" width="501.993" height="232.557" fill="none"/>
    </clipPath>
    <clipPath id="clip-path-2">
      <rect id="Rectángulo_328253" data-name="Rectángulo 328253" width="437.875" height="232.557" fill="none"/>
    </clipPath>
    <clipPath id="clip-path-3">
      <rect id="Rectángulo_328255" data-name="Rectángulo 328255" width="409.574" height="232.557" fill="none"/>
    </clipPath>
    <clipPath id="clip-path-5">
      <rect id="Rectángulo_328257" data-name="Rectángulo 328257" width="420.718" height="232.557" fill="none"/>
    </clipPath>
    <clipPath id="clip-path-7">
      <rect id="Rectángulo_328258" data-name="Rectángulo 328258" width="8.371" height="30.603" fill="none"/>
    </clipPath>
  </defs>
  <g id="Grupo_881396" data-name="Grupo 881396" transform="translate(-180 -15748.594)">
    <g id="Grupo_878428" data-name="Grupo 878428" transform="translate(265 15748.594)">
      <g id="Enmascarar_grupo_878427" data-name="Enmascarar grupo 878427" clip-path="url(#clip-path)">
        <g id="Grupo_878413" data-name="Grupo 878413" transform="translate(10.545)">
          <g id="Grupo_878412" data-name="Grupo 878412" clip-path="url(#clip-path-2)">
            <path id="Trazado_626713" data-name="Trazado 626713" d="M170.9,10.353a4.822,4.822,0,1,0-3.5,0c-7.415,1.045-7.078,8.583-7.078,8.583l17.533.076s.4-7.62-6.95-8.658" transform="translate(-48.613 -0.376)" fill="#e0e0e0"/>
            <path id="Trazado_626714" data-name="Trazado 626714" d="M580.515,67.771l-8.138-8.188,2.635-2.291,5.617,5.652,11.8-10.856,2.523,2.4Z" transform="translate(-173.565 -18.141)" fill="#f5f5f5"/>
            <path id="Trazado_626715" data-name="Trazado 626715" d="M407.4,140.892c0-5.6-6.285-9.139-12.693-6.335a7.09,7.09,0,0,0-3.371,3.023c-1.612,2.921-.9,6.257.562,9.026l4.987,11.822a2.206,2.206,0,0,0,4-.016l4.889-11.884c1.693-3.619,1.622-5.637,1.622-5.637m-6.02,4.869a4.566,4.566,0,0,1-6.312-6.261,3.47,3.47,0,0,1,1.368-1.358,4.566,4.566,0,0,1,6.312,6.262,3.46,3.46,0,0,1-1.368,1.357" transform="translate(-118.388 -46.52)" fill="#ebebeb"/>
            <path id="Trazado_626716" data-name="Trazado 626716" d="M515.63,222.536c-13.429-11.47-14.2-29.654-11.277-45.535.488-2.652.583-5.5,2.3-7.66s5.15-3.346,7.569-1.892c2.006,1.206,2.6,3.627,3.524,5.684a16.117,16.117,0,0,0,5.893,6.837c1.708,1.116,3.9,1.947,5.851,1.256,2.674-.948,3.432-4.084,3.8-6.737q1.033-7.411,2.066-14.824a23.285,23.285,0,0,1,2.016-7.757,8.81,8.81,0,0,1,6.406-4.837c2.833-.355,6,1.533,6.194,4.2a23,23,0,0,1-.4,3.31,2.752,2.752,0,0,0,1.382,2.851c1.1.458,2.358-.147,3.329-.811,3.353-2.295,5.867-5.482,8.245-8.667s4.716-6.458,7.829-9.03,7.17-4.406,11.31-4.093,8.177,3.218,8.671,7.076-2.42,7.353-5.43,10.047a64.362,64.362,0,0,1-15.051,10.022A5.228,5.228,0,0,0,567.3,163.9c-.881,1.685.676,3.674,2.478,4.5,2.044.932,4.394,1.025,6.6,1.556s4.493,1.753,5.054,3.814c.778,2.86-2.09,5.382-4.774,6.931a57.791,57.791,0,0,1-17.5,6.566c-2.216.443-4.528.783-6.43,1.933s-3.278,3.4-2.523,5.4,3.308,2.937,5.575,2.842,4.407-.948,6.621-1.411c4.144-.867,9.2.038,11.265,3.509a7.888,7.888,0,0,1-.118,7.538,19.806,19.806,0,0,1-5.307,5.987,57.146,57.146,0,0,1-25.793,12.258c-9.576,1.753-18.167,1.455-26.809-2.782" transform="translate(-152.516 -46.944)" fill="#ebebeb"/>
            <path id="Trazado_626717" data-name="Trazado 626717" d="M522.674,230.573c1.554-6.238,1.16-8.162,4.9-15.876a233.627,233.627,0,0,1,13.944-24.239l4.009-6.179c1.32-2.027,2.629-4.034,4.041-5.924a121.043,121.043,0,0,1,8.788-10.434c2.97-3.193,5.915-6.123,8.691-8.846s5.426-5.2,7.942-7.376a101.939,101.939,0,0,1,12.683-9.423c1.587-1,2.845-1.741,3.7-2.233l.98-.554c.222-.123.342-.177.342-.177s-.1.078-.318.212l-.958.588c-.843.514-2.085,1.274-3.655,2.294a106.187,106.187,0,0,0-12.57,9.5c-2.5,2.179-5.123,4.674-7.892,7.4s-5.693,5.665-8.649,8.86a121.7,121.7,0,0,0-8.742,10.413c-1.4,1.884-2.7,3.877-4.022,5.909l-4.006,6.178a237.928,237.928,0,0,0-13.952,24.186c-3.749,7.687-3.376,9.577-4.965,15.788" transform="translate(-158.493 -48.518)" fill="#e0e0e0"/>
            <path id="Trazado_626718" data-name="Trazado 626718" d="M561.367,183.315a6.006,6.006,0,0,1-.1-1.167c-.037-.751-.056-1.84-.061-3.184-.012-2.689.1-6.4.242-10.5s.184-7.8.111-10.488c-.033-1.341-.073-2.427-.113-3.177a5.983,5.983,0,0,1-.01-1.169,6.216,6.216,0,0,1,.178,1.158c.091.748.178,1.835.249,3.178.153,2.688.155,6.409.017,10.51-.143,4.06-.273,7.733-.369,10.49-.031,1.286-.056,2.355-.076,3.18a6.04,6.04,0,0,1-.072,1.167" transform="translate(-170.179 -53.505)" fill="#e0e0e0"/>
            <path id="Trazado_626719" data-name="Trazado 626719" d="M599.257,196.346a1.411,1.411,0,0,1-.388.009l-1.105-.053c-.958-.05-2.344-.125-4.059-.166-3.427-.107-8.17-.093-13.4.138s-9.952.648-13.357,1.041c-1.7.185-3.078.37-4.029.495l-1.1.138a1.373,1.373,0,0,1-.388.021,1.42,1.42,0,0,1,.373-.1l1.083-.213c.943-.172,2.314-.4,4.017-.623,3.4-.465,8.134-.92,13.377-1.161s10-.2,13.432-.02c1.717.077,3.1.195,4.059.294l1.1.128a1.364,1.364,0,0,1,.38.072" transform="translate(-170.247 -68.158)" fill="#e0e0e0"/>
            <path id="Trazado_626720" data-name="Trazado 626720" d="M525.111,229.561a2.051,2.051,0,0,1-.182-.45l-.442-1.316c-.38-1.143-.887-2.81-1.485-4.876-1.2-4.133-2.671-9.886-4.207-16.255s-2.959-12.129-4.082-16.275c-.561-2.034-1.019-3.7-1.352-4.906-.149-.546-.269-.988-.364-1.335a.244.244,0,1,1,.084-.023c.114.342.261.778.442,1.315.38,1.143.886,2.81,1.484,4.876,1.2,4.133,2.672,9.887,4.208,16.258s2.958,12.126,4.082,16.273c.56,2.033,1.019,3.7,1.351,4.906.149.546.27.988.364,1.335a2.016,2.016,0,0,1,.1.473" transform="translate(-155.528 -63.968)" fill="#e0e0e0"/>
            <path id="Trazado_626721" data-name="Trazado 626721" d="M581.584,241.367a2.688,2.688,0,0,1-.515.113l-1.49.248-5.483.882c-4.627.749-11.006,1.857-18.05,3.1s-13.439,2.306-18.082,2.983c-2.323.34-4.2.6-5.507.755l-1.5.174a2.634,2.634,0,0,1-.528.033,2.623,2.623,0,0,1,.516-.113l1.489-.248,5.481-.881c4.628-.749,11.007-1.858,18.053-3.1s13.436-2.305,18.079-2.982c2.322-.34,4.2-.6,5.507-.755l1.5-.174a2.572,2.572,0,0,1,.528-.033" transform="translate(-160.845 -84.059)" fill="#e0e0e0"/>
            <path id="Trazado_626722" data-name="Trazado 626722" d="M1.426,146.167s4.151-4.418,13.613,5.336a154.622,154.622,0,0,1,13.7,15.688s2.321,1.957,3.612-.037,2.4-7,5.59-6.962c3.31.04,5.254,2.989,6.038,7.849s2.922,15.45,3.119,16.407c.193.939,1.151,2.152,2.264.925s6.6-11.426,11.615-8.7,4.826,16.6,4.836,18.117.481,2.046,1.3,2.214,2.319-3.424,4.006-6.264,4.176-5.858,6.93-4.06,6.229,11.289.964,29.48l-3.03,8.28-9.191,1.833c-19.924,2.8-29.6-1.514-31.2-4.28s1.9-4.732,5.107-5.973,7.2-2.221,7.113-3-.592-1.281-2.2-1.464-16.369-1.6-18.686-6.573,9.144-8.9,10.575-9.794.253-1.923-.723-2.21c-.994-.293-11.995-3.494-17.067-4.781s-7.98-3.432-7.642-6.512c.325-2.971,5.769-3.424,8.035-4.395s.454-3.352.454-3.352A157.988,157.988,0,0,1,5.472,159.4c-9.272-9.912-3.956-13.322-3.956-13.322" transform="translate(0 -50.558)" fill="#ebebeb"/>
            <path id="Trazado_626723" data-name="Trazado 626723" d="M14.233,160.082a1.3,1.3,0,0,1,.183.169l.509.519,1.934,2.019,7.08,7.453c6.017,6.283,14.305,14.939,23.461,24.5,9.185,9.554,17.456,18.239,23.386,24.572l6.995,7.524,1.881,2.061.483.542a1.162,1.162,0,0,1,.155.192,1.411,1.411,0,0,1-.183-.169l-.51-.519-1.933-2.019-7.081-7.451c-5.979-6.292-14.279-14.951-23.464-24.5S29.677,176.734,23.746,170.4l-6.994-7.524-1.882-2.061-.483-.542a1.163,1.163,0,0,1-.155-.192" transform="translate(-4.316 -55.751)" fill="#e0e0e0"/>
            <path id="Trazado_626724" data-name="Trazado 626724" d="M52.6,179.056a16.761,16.761,0,0,1,.124,2.351c.052,1.543.118,3.5.19,5.671.079,2.216.134,4.224.128,5.679,0,.727-.022,1.316-.048,1.723a2.151,2.151,0,0,1-.08.63,20.4,20.4,0,0,1-.128-2.349c-.064-1.543-.144-3.5-.234-5.672-.078-2.216-.107-4.226-.084-5.68.013-.727.031-1.316.057-1.722a2.143,2.143,0,0,1,.075-.631" transform="translate(-15.908 -62.36)" fill="#e0e0e0"/>
            <path id="Trazado_626725" data-name="Trazado 626725" d="M43.371,204.057c0,.094-4.434.11-9.9.037s-9.9-.209-9.9-.3,4.434-.11,9.9-.037,9.9.209,9.895.3" transform="translate(-7.149 -70.946)" fill="#e0e0e0"/>
            <path id="Trazado_626726" data-name="Trazado 626726" d="M69.031,229a2.672,2.672,0,0,1-.637.255c-.417.144-1.026.334-1.782.56-1.515.446-3.625,1.013-5.988,1.524s-4.524.878-6.094,1.1c-.785.111-1.423.188-1.865.231a2.766,2.766,0,0,1-.691.033,21.912,21.912,0,0,1,2.512-.5c1.556-.28,3.7-.679,6.056-1.193s4.468-1.037,6-1.423A21.572,21.572,0,0,1,69.031,229" transform="translate(-15.76 -79.753)" fill="#e0e0e0"/>
            <path id="Trazado_626727" data-name="Trazado 626727" d="M80.291,206.361a13.5,13.5,0,0,1-.477,2.177c-.339,1.333-.833,3.17-1.4,5.193s-1.1,3.85-1.5,5.169a13.752,13.752,0,0,1-.725,2.115,13.6,13.6,0,0,1,.477-2.177c.34-1.333.833-3.17,1.4-5.194s1.1-3.85,1.5-5.168a13.85,13.85,0,0,1,.725-2.116" transform="translate(-23.1 -71.869)" fill="#e0e0e0"/>
            <path id="Trazado_626728" data-name="Trazado 626728" d="M104.084,225.479a3.12,3.12,0,0,1-.146.753c-.143.547-.32,1.223-.529,2.022-.462,1.7-1.124,4.05-1.877,6.636s-1.454,4.924-1.98,6.611c-.253.788-.467,1.454-.64,1.993a3.185,3.185,0,0,1-.282.719,3.125,3.125,0,0,1,.146-.753l.529-2.022c.462-1.7,1.124-4.05,1.877-6.637s1.454-4.923,1.98-6.61l.64-1.993a3.2,3.2,0,0,1,.282-.719" transform="translate(-29.906 -78.527)" fill="#e0e0e0"/>
            <path id="Trazado_626729" data-name="Trazado 626729" d="M89.148,253.482a4.234,4.234,0,0,1-.826.273c-.538.156-1.322.364-2.294.609-1.945.487-4.647,1.109-7.66,1.68s-5.759.995-7.754,1.255c-1,.132-1.805.225-2.366.279a4.4,4.4,0,0,1-.875.05,4.268,4.268,0,0,1,.855-.181l2.346-.385c1.982-.321,4.716-.777,7.722-1.351s5.711-1.153,7.67-1.579l2.32-.5a4.344,4.344,0,0,1,.863-.145" transform="translate(-20.43 -88.278)" fill="#e0e0e0"/>
          </g>
        </g>
        <g id="Grupo_878415" data-name="Grupo 878415">
          <g id="Grupo_878414" data-name="Grupo 878414" clip-path="url(#clip-path-3)">
            <path id="Trazado_626730" data-name="Trazado 626730" d="M34.652,158.473a1.913,1.913,0,0,0,.922-.327,1.742,1.742,0,0,0,.656-.961,2.834,2.834,0,0,0,.061-.757q0-.416,0-.884c.023-2.516.056-6.124.1-10.574q.019-1.675.039-3.5.011-.914.022-1.864a5.276,5.276,0,0,0-.027-.927,1.58,1.58,0,0,0-.411-.783,1.489,1.489,0,0,0-.785-.423,7.841,7.841,0,0,0-.981-.025l-2.066,0-4.313.008-19.2.014A1.56,1.56,0,0,0,7.15,138.9q-.021,1.254-.042,2.493-.036,2.488-.072,4.9c-.049,3.212-.1,6.31-.142,9.262q-.009.552-.017,1.1a1.636,1.636,0,0,0,.233.955,1.5,1.5,0,0,0,.733.613,2.6,2.6,0,0,0,.989.1l4.069.008,7.3.02,10.574.053,2.875.032.748.016a1.417,1.417,0,0,1,.255.018,1.414,1.414,0,0,1-.255.018l-.748.017-2.875.032-10.574.055-7.3.021-4.069.009a2.868,2.868,0,0,1-1.1-.116,1.8,1.8,0,0,1-.884-.734,1.946,1.946,0,0,1-.282-1.12q.007-.546.014-1.1c.038-2.952.08-6.051.122-9.262q.033-2.41.067-4.9.022-1.25.043-2.518a1.9,1.9,0,0,1,1.854-1.741l19.2.012,4.313.007,2.066,0a7.782,7.782,0,0,1,1.034.035,1.772,1.772,0,0,1,.933.508,1.854,1.854,0,0,1,.48.924,5.332,5.332,0,0,1,.027.985q-.016.95-.031,1.864-.032,1.826-.061,3.5c-.086,4.45-.156,8.057-.2,10.573q-.011.467-.02.883a2.912,2.912,0,0,1-.08.782,1.8,1.8,0,0,1-.714.99,1.636,1.636,0,0,1-.7.266.967.967,0,0,1-.256,0" transform="translate(-2.286 -47.759)" fill="#455a64"/>
            <path id="Trazado_626731" data-name="Trazado 626731" d="M29.447,149.719l3.56,2.16-3.636,2.134-3.637,2.133.077-4.294.076-4.294Z" transform="translate(-8.962 -51.39)" fill="#2b95f9"/>
            <path id="Trazado_626732" data-name="Trazado 626732" d="M530.036,48.506a6.576,6.576,0,0,0,3.918-6.083,6.18,6.18,0,1,0-12.334-.057,6.566,6.566,0,0,0,3.93,6.141c-9.49,1.43-9.06,11.744-9.06,11.744l22.442.1s.512-10.427-8.9-11.848" transform="translate(-179.876 -12.474)" fill="#ffb338"/>
            <rect id="Rectángulo_328254" data-name="Rectángulo 328254" width="36.556" height="24.64" transform="translate(180.773 16.255) rotate(-5.419)" fill="#fff"/>
            <path id="Trazado_626733" data-name="Trazado 626733" d="M315.986,44.1s-.025-.158-.058-.454-.079-.742-.139-1.3c-.117-1.15-.287-2.815-.5-4.94-.422-4.268-1.026-10.379-1.762-17.822l.148.122-36.387,3.486c-.036.04.287-.349.151-.181v.019l0,.026,0,.051.01.1.02.205.038.409.078.816q.077.814.154,1.624.153,1.618.3,3.213.3,3.189.592,6.272l1.108,11.791-.169-.14,26.2-2.408,7.5-.67,2-.171.52-.04a1.514,1.514,0,0,1,.183-.008,1.047,1.047,0,0,1-.163.025l-.5.057-1.968.205-7.46.75L279.608,47.7l-.155.016-.014-.155c-.358-3.738-.736-7.684-1.129-11.789q-.293-3.079-.6-6.271-.152-1.594-.306-3.213-.076-.809-.154-1.624l-.078-.816-.039-.409-.019-.2-.01-.1-.005-.051,0-.025v-.02c-.138.163.186-.229.155-.188l36.393-3.418.136-.013.012.135c.68,7.484,1.238,13.628,1.628,17.919.186,2.115.331,3.772.432,4.917q.068.824.106,1.279c.022.287.026.428.026.428" transform="translate(-96.493 -6.763)" fill="#455a64"/>
            <path id="Trazado_626734" data-name="Trazado 626734" d="M313.767,19.645a2.377,2.377,0,0,1-.281.363l-.858,1-3.209,3.644L298.652,36.691l-.1.108-.121-.078-.969-.618L283.22,26.966l-4.3-2.8-1.159-.777a2.636,2.636,0,0,1-.392-.29,2.593,2.593,0,0,1,.428.233l1.193.723,4.354,2.711,14.3,9.054.969.618-.217.029,10.844-11.97,3.287-3.573.9-.958a2.425,2.425,0,0,1,.331-.318" transform="translate(-96.601 -6.842)" fill="#455a64"/>
            <path id="Trazado_626735" data-name="Trazado 626735" d="M198.595,59.3a16.471,16.471,0,0,0-.368-2.356,9.288,9.288,0,0,0-1.086-2.557,9.594,9.594,0,0,0-11.517-4.065,9.592,9.592,0,0,0-4.434,3.334,9.51,9.51,0,0,0,0,11.288,9.581,9.581,0,0,0,4.434,3.335,9.624,9.624,0,0,0,11.517-4.066,9.309,9.309,0,0,0,1.087-2.556,16.543,16.543,0,0,0,.368-2.356.534.534,0,0,1,.009.158c0,.124,0,.277-.007.463a4.4,4.4,0,0,1-.06.752,6.783,6.783,0,0,1-.182,1.015,9.164,9.164,0,0,1-1.052,2.621,9.8,9.8,0,0,1-6.6,4.672,9.865,9.865,0,0,1-5.182-.409,9.858,9.858,0,0,1-4.6-3.432,9.816,9.816,0,0,1,0-11.682,9.869,9.869,0,0,1,4.6-3.431,9.863,9.863,0,0,1,5.181-.409,9.8,9.8,0,0,1,6.605,4.672,9.164,9.164,0,0,1,1.052,2.621,6.776,6.776,0,0,1,.182,1.015,4.393,4.393,0,0,1,.06.752c0,.186.005.339.007.463a.534.534,0,0,1-.009.158" transform="translate(-62.338 -17.22)" fill="#263238"/>
            <path id="Trazado_626736" data-name="Trazado 626736" d="M220.993,84.006c-.052.078-3.491-2.138-7.678-4.949s-7.541-5.153-7.488-5.23,3.489,2.137,7.677,4.949,7.541,5.153,7.489,5.23" transform="translate(-71.683 -25.711)" fill="#263238"/>
            <path id="Trazado_626737" data-name="Trazado 626737" d="M269.237,108.561l-7.612-8.188,2.465-2.291,5.254,5.652,11.034-10.856,2.36,2.4Z" transform="translate(-91.116 -32.347)" fill="#eb6f2d"/>
          </g>
        </g>
        <g id="Grupo_878417" data-name="Grupo 878417">
          <g id="Grupo_878416" data-name="Grupo 878416" clip-path="url(#clip-path-3)">
            <path id="Trazado_626738" data-name="Trazado 626738" d="M575.992,104.834s.125,0,.369,0l.455.016c.181.016.388.051.626.083a8.3,8.3,0,0,1,3.811,1.67,8.543,8.543,0,0,1,3.2,5.7,19.539,19.539,0,0,1,.063,2.028q0,1.044.006,2.154,0,2.221.012,4.7t.01,5.184q0,1.354.005,2.765a10.005,10.005,0,0,1-.287,2.883,8.529,8.529,0,0,1-6.435,6.191,14.946,14.946,0,0,1-3.291.206l-29.092.02.119-.05L539,144.952l-.289.29v-6.976l.169.169a16.121,16.121,0,0,1-2.158-.08,8.547,8.547,0,0,1-2.092-.543,8.583,8.583,0,0,1-5.228-6.279,10.93,10.93,0,0,1-.169-2.067q0-1.019,0-2.027,0-4.036.005-7.915,0-1.938,0-3.833a29.662,29.662,0,0,1,.117-3.761,8.562,8.562,0,0,1,7.175-7.133,25.546,25.546,0,0,1,3.351-.1l12.151.021,17.543.053,4.757.031,1.235.016c.278.006.421.017.421.017s-.143.011-.421.017l-1.235.016-4.757.031-17.543.053-12.151.021a25.405,25.405,0,0,0-3.308.109,8.236,8.236,0,0,0-6.914,6.9,29.675,29.675,0,0,0-.107,3.714q0,1.895,0,3.833,0,3.876.005,7.915a23.961,23.961,0,0,0,.165,4.028,8.523,8.523,0,0,0,1.73,3.627,8.434,8.434,0,0,0,3.3,2.4,8.186,8.186,0,0,0,2.01.521,15.831,15.831,0,0,0,2.114.076h.17v6.736l-.29-.12,6.568-6.565.049-.05h.07l29.092.02a14.689,14.689,0,0,0,3.229-.192,8.253,8.253,0,0,0,6.241-5.975,9.722,9.722,0,0,0,.287-2.816q0-1.411.005-2.765.006-2.709.01-5.184t.012-4.7q0-1.11.007-2.154a19.573,19.573,0,0,0-.05-2.008,8.4,8.4,0,0,0-6.85-7.331c-.235-.037-.441-.076-.62-.1l-.452-.031c-.242-.018-.367-.035-.367-.035" transform="translate(-184.315 -36.461)" fill="#263238"/>
            <path id="Trazado_626739" data-name="Trazado 626739" d="M559.226,131.2c-.029,0-.036-.167-.123-.441a1.875,1.875,0,0,0-.689-.952,1.761,1.761,0,0,0-1.645-.219,1.721,1.721,0,0,0,0,3.223,1.761,1.761,0,0,0,1.645-.219,1.875,1.875,0,0,0,.689-.952c.087-.275.093-.442.123-.441a.81.81,0,0,1,.005.473,1.863,1.863,0,0,1-.672,1.111,1.982,1.982,0,0,1-1.9.322,2.019,2.019,0,0,1,0-3.811,1.982,1.982,0,0,1,1.9.322,1.863,1.863,0,0,1,.672,1.111.81.81,0,0,1-.005.473" transform="translate(-193.397 -44.989)" fill="#263238"/>
            <path id="Trazado_626740" data-name="Trazado 626740" d="M572.484,131.068c-.029,0-.036-.166-.122-.441a1.876,1.876,0,0,0-.69-.952,1.761,1.761,0,0,0-1.645-.219,1.721,1.721,0,0,0,0,3.223,1.761,1.761,0,0,0,1.645-.219,1.875,1.875,0,0,0,.69-.952c.087-.275.093-.442.122-.441a.808.808,0,0,1,.005.473,1.86,1.86,0,0,1-.672,1.111,1.982,1.982,0,0,1-1.9.322,2.019,2.019,0,0,1,0-3.811,1.982,1.982,0,0,1,1.9.322,1.86,1.86,0,0,1,.672,1.111.808.808,0,0,1-.005.473" transform="translate(-198.015 -44.944)" fill="#263238"/>
            <path id="Trazado_626741" data-name="Trazado 626741" d="M585.742,131.068c-.029,0-.036-.166-.122-.441a1.874,1.874,0,0,0-.69-.952,1.76,1.76,0,0,0-1.644-.219,1.721,1.721,0,0,0,0,3.223,1.761,1.761,0,0,0,1.645-.219,1.876,1.876,0,0,0,.69-.952c.087-.275.093-.442.122-.441a.809.809,0,0,1,.005.473,1.86,1.86,0,0,1-.672,1.111,1.982,1.982,0,0,1-1.9.322,2.019,2.019,0,0,1,0-3.811,1.982,1.982,0,0,1,1.9.322,1.86,1.86,0,0,1,.672,1.111.809.809,0,0,1-.005.473" transform="translate(-202.632 -44.944)" fill="#263238"/>
            <path id="Trazado_626742" data-name="Trazado 626742" d="M90.736,59.579c0-5.6-5.879-9.139-11.873-6.335a6.808,6.808,0,0,0-3.153,3.023c-1.508,2.921-.843,6.257.525,9.026L80.9,77.116a2.01,2.01,0,0,0,3.745-.016l4.573-11.884a14.62,14.62,0,0,0,1.517-5.637M85.1,64.448c-4.029,2.343-8.113-1.988-5.9-6.261A3.364,3.364,0,0,1,80.48,56.83c4.03-2.343,8.113,1.988,5.9,6.262A3.354,3.354,0,0,1,85.1,64.448" transform="translate(-26.068 -18.202)" fill="#eb6f2d"/>
            <path id="Trazado_626743" data-name="Trazado 626743" d="M98.114,67.06l0,0h0s.031.074.08.215.121.358.214.63l.813,2.464c.706,2.174,1.742,5.357,3.073,9.448l.042.129-.134-.025-13.133-2.4-.091-.016v-.093h0l.177.089a32.712,32.712,0,0,1-15.193,6.269,33.186,33.186,0,0,1-4.658.31,35.838,35.838,0,0,1-4.838-.405,34.924,34.924,0,0,1-4.913-1.1l-2.427-.886a9.123,9.123,0,0,1-1.2-.519l-1.187-.571a33.765,33.765,0,0,1-8.771-6.357,32.358,32.358,0,0,1-6.446-9.385,32.841,32.841,0,0,1,31.16-46.534A32.76,32.76,0,0,1,102.21,49.075a31.183,31.183,0,0,1-.892,10.026A31.971,31.971,0,0,1,99.155,65.1c-.32.656-.574,1.153-.757,1.466l-.284.5.249-.5c.177-.341.423-.836.731-1.5a33.05,33.05,0,0,0,2.1-6,31.28,31.28,0,0,0,.832-9.981A32.658,32.658,0,0,0,51.335,24.082,32.559,32.559,0,0,0,39.828,64.714a32.07,32.07,0,0,0,6.375,9.3,33.481,33.481,0,0,0,8.679,6.307l1.176.568a9.046,9.046,0,0,0,1.186.517l2.4.882a34.748,34.748,0,0,0,4.866,1.1,35.638,35.638,0,0,0,4.8.411,32.576,32.576,0,0,0,19.717-6.476l.177-.133v.222h0l-.09-.109,13.123,2.464-.092.1-3-9.472-.773-2.477-.193-.637c-.042-.144-.06-.222-.06-.222h0" transform="translate(-12.732 -6.367)" fill="#263238"/>
            <path id="Trazado_626744" data-name="Trazado 626744" d="M435.487,40.965a5.153,5.153,0,0,1-.131-1.158,9.5,9.5,0,0,0-.156-1.391,13.651,13.651,0,0,0-.365-1.869,17.5,17.5,0,0,0-1.941-4.807,18,18,0,0,0-4.47-5.149,17.812,17.812,0,0,0-16.789-2.885,16.7,16.7,0,0,0-4.542,2.316,20.136,20.136,0,0,0-2.05,1.665A20.138,20.138,0,0,0,403.26,29.7a17.67,17.67,0,0,0-.51,20.946,16.237,16.237,0,0,0,3.651,3.863,16.689,16.689,0,0,0,4.424,2.535,17.947,17.947,0,0,0,21.626-6.994,17.5,17.5,0,0,0,2.171-4.707,13.546,13.546,0,0,0,.456-1.848,9.5,9.5,0,0,0,.223-1.381,5.155,5.155,0,0,1,.187-1.15,5.071,5.071,0,0,1,.014,1.168,8.19,8.19,0,0,1-.13,1.412,12.619,12.619,0,0,1-.373,1.9,17.14,17.14,0,0,1-2.073,4.9A18.463,18.463,0,0,1,420.27,58.9a18.635,18.635,0,0,1-9.781-1,17.5,17.5,0,0,1-4.676-2.64,20.926,20.926,0,0,1-2.082-1.848,21.01,21.01,0,0,1-1.786-2.207,18.568,18.568,0,0,1,.538-22.108,17.089,17.089,0,0,1,4.059-3.862,17.539,17.539,0,0,1,4.8-2.409,18.638,18.638,0,0,1,9.816-.521,18.464,18.464,0,0,1,12.225,9.156,17.135,17.135,0,0,1,1.833,5,12.625,12.625,0,0,1,.281,1.92,8.149,8.149,0,0,1,.061,1.418,5.068,5.068,0,0,1-.07,1.166" transform="translate(-138.807 -7.624)" fill="#2b95f9"/>
            <path id="Trazado_626745" data-name="Trazado 626745" d="M434.35,33.321c.04.056-.289.342-.923.814l-1.172.841c-.233.159-.476.34-.746.509l-.9.469a20.56,20.56,0,0,1-10.709,2.7l-1.621-.072-1.556-.243c-.254-.043-.508-.077-.756-.127l-.726-.194c-.478-.132-.95-.245-1.4-.389a23.424,23.424,0,0,1-4.543-2.093c-2.441-1.476-3.629-2.819-3.537-2.9.1-.113,1.425,1.011,3.884,2.288a27.348,27.348,0,0,0,4.472,1.83c.436.126.892.222,1.351.341l.7.173.725.109,1.486.219,1.545.062a22.176,22.176,0,0,0,10.37-2.328l.907-.394c.276-.144.527-.3.769-.433l1.243-.685c.691-.366,1.1-.544,1.136-.487" transform="translate(-141.313 -11.36)" fill="#2b95f9"/>
            <path id="Trazado_626746" data-name="Trazado 626746" d="M404.913,64.824c-.04-.056.288-.342.923-.813l1.172-.841c.233-.159.476-.339.746-.508l.9-.469a20.559,20.559,0,0,1,10.709-2.7l1.622.072,1.556.244c.254.042.508.077.756.126l.726.194c.478.132.95.245,1.4.389a23.5,23.5,0,0,1,4.543,2.093c2.441,1.476,3.629,2.819,3.537,2.9-.1.113-1.425-1.011-3.884-2.288a27.4,27.4,0,0,0-4.472-1.83c-.436-.126-.892-.222-1.351-.34l-.7-.173-.725-.109-1.487-.219-1.545-.062a22.168,22.168,0,0,0-10.37,2.329l-.907.394c-.276.145-.527.3-.769.433l-1.243.685c-.692.366-1.1.544-1.136.487" transform="translate(-141.017 -20.717)" fill="#2b95f9"/>
            <path id="Trazado_626747" data-name="Trazado 626747" d="M435.74,51.214c-.007.276-8.166.3-18.222.059s-18.206-.667-18.2-.943,8.164-.3,18.224-.059,18.2.667,18.2.943" transform="translate(-139.07 -17.45)" fill="#2b95f9"/>
            <path id="Trazado_626748" data-name="Trazado 626748" d="M425.851,58.939c-.276-.007-.3-8.164-.059-18.217s.666-18.2.943-18.194.3,8.162.058,18.219-.666,18.2-.942,18.192" transform="translate(-148.232 -7.846)" fill="#2b95f9"/>
            <path id="Trazado_626749" data-name="Trazado 626749" d="M421.131,58.906c-.068.106-2.075-1.255-4.391-4.335a24.5,24.5,0,0,1-3.255-5.911,21.976,21.976,0,0,1-1.41-8.162,20.894,20.894,0,0,1,1.839-8.079,25.319,25.319,0,0,1,3.557-5.729c2.453-2.964,4.476-4.278,4.544-4.172.1.113-1.734,1.6-3.986,4.608a27.277,27.277,0,0,0-3.268,5.659,20.984,20.984,0,0,0-1.684,7.731,22.184,22.184,0,0,0,1.275,7.825,26.3,26.3,0,0,0,2.966,5.819c2.108,3.1,3.916,4.634,3.814,4.745" transform="translate(-143.511 -7.841)" fill="#2b95f9"/>
            <path id="Trazado_626750" data-name="Trazado 626750" d="M427.481,22.534c.068-.106,2.075,1.255,4.391,4.335a24.5,24.5,0,0,1,3.255,5.911,21.975,21.975,0,0,1,1.41,8.162A20.894,20.894,0,0,1,434.7,49.02a25.305,25.305,0,0,1-3.557,5.729c-2.453,2.964-4.476,4.278-4.544,4.173-.1-.114,1.734-1.605,3.986-4.609a27.279,27.279,0,0,0,3.268-5.659,20.981,20.981,0,0,0,1.684-7.731,22.171,22.171,0,0,0-1.275-7.825,26.316,26.316,0,0,0-2.966-5.819c-2.108-3.1-3.916-4.634-3.814-4.745" transform="translate(-148.569 -7.846)" fill="#2b95f9"/>
            <path id="Trazado_626751" data-name="Trazado 626751" d="M391.576,60.027v0h0s-.077.025-.222.061l-.647.156-2.526.59-9.684,2.22-.132.031.037-.131c.984-3.555,2.187-7.9,3.563-12.868L381.99,50l.092.008h0l-.1.169a32.71,32.71,0,0,1-4.894-15.691,33.132,33.132,0,0,1,.1-4.667,35.939,35.939,0,0,1,.834-4.783,34.881,34.881,0,0,1,1.532-4.8q.545-1.159,1.1-2.338a9.1,9.1,0,0,1,.624-1.148l.674-1.132a33.753,33.753,0,0,1,7.112-8.171,32.372,32.372,0,0,1,9.92-5.587,32.867,32.867,0,0,1,39.85,15.225,32.834,32.834,0,0,1-29.708,48.612,31.174,31.174,0,0,1-9.906-1.78,31.952,31.952,0,0,1-5.779-2.687c-.624-.376-1.1-.674-1.393-.884l-.471-.327.473.293c.324.206.8.5,1.425.86a33.014,33.014,0,0,0,5.787,2.621,31.281,31.281,0,0,0,9.868,1.715,32.658,32.658,0,0,0,29.412-48.263A32.559,32.559,0,0,0,399.094,2.181,32.075,32.075,0,0,0,389.266,7.7a33.5,33.5,0,0,0-7.054,8.084q-.335.563-.669,1.121a8.974,8.974,0,0,0-.62,1.135q-.55,1.166-1.092,2.316a34.73,34.73,0,0,0-1.525,4.749,35.6,35.6,0,0,0-.836,4.741,32.881,32.881,0,0,0-.115,4.628,32.548,32.548,0,0,0,4.812,15.587l.117.188-.221-.02h0l.116-.08L378.559,63l-.1-.1,9.7-2.146,2.535-.549.652-.136c.147-.029.226-.04.226-.04v0" transform="translate(-131.314 0)" fill="#263238"/>
          </g>
        </g>
        <g id="Grupo_878419" data-name="Grupo 878419" transform="translate(19.124)">
          <g id="Grupo_878418" data-name="Grupo 878418" clip-path="url(#clip-path-5)">
            <path id="Trazado_626752" data-name="Trazado 626752" d="M435.777,115.737c-3.273.742-5.37,3.971-6.069,7.17s-.358,6.523-.671,9.78-1.486,6.719-4.3,8.5l2.8.789a7.484,7.484,0,0,1-3.292,4.108,6.354,6.354,0,0,0,3.829,1.27c-1.649.426-2.105,2.716-1.194,4.121s2.644,2.065,4.3,2.475a11.579,11.579,0,0,0,5.958.176,9.414,9.414,0,0,0,5.78-5.674,23.318,23.318,0,0,0,1.308-8.13,70.661,70.661,0,0,0-2.022-20.556c-.438-1.615-1.043-3.33-2.454-4.282s-3.825-.566-4.248,1.053" transform="translate(-140.228 -40.043)" fill="#eb6f2d"/>
            <path id="Trazado_626753" data-name="Trazado 626753" d="M498.954,242.747c-.777-2.884-5.3-19.107-9.35-29.707-4.49-11.764-13.754-14.191-13.754-14.191-20.853-6.928-39.593-6.968-59.6-.214-.641.194-1.263.4-1.859.627l-.066.022h0c-14.841,5.671-16.373,20.933-16.373,20.933l-6.236,37.037a8.024,8.024,0,0,0-.149.888l-.06.351.026,0a8.643,8.643,0,0,0,5.1,8.363c8.715,3.906,17.033,2.979,24.18.106l-5.192,7.365h61.848l-4.135-9.734,1.376-5.854,9.58,11.223a8.948,8.948,0,0,0,4.41,2.8C499.74,274.01,501.528,258,499.45,248.679h0" transform="translate(-129.406 -67.429)" fill="#455a64"/>
            <path id="Trazado_626754" data-name="Trazado 626754" d="M476.928,194.484s-9.976,48.867-13.494,48.5-20-47.581-20-47.581,21.075-5.473,33.5-.924" transform="translate(-146.57 -67.103)" fill="#ffbe9d"/>
            <path id="Trazado_626755" data-name="Trazado 626755" d="M446.261,172.122c-.053-5.626-.214-11.547-.214-11.547s-7.452-1.159-9.054-10.606c-1.527-9.01-.131-29.843-.131-29.843a28.444,28.444,0,0,1,31.091,6.743l-.343,45.7c-.04,5.306-4.758,9.5-10.592,9.412-5.893-.086-10.707-4.5-10.757-9.857" transform="translate(-144.206 -41.132)" fill="#ffbe9d"/>
            <path id="Trazado_626756" data-name="Trazado 626756" d="M440.841,144.806a1.228,1.228,0,0,0,1.209,1.216,1.179,1.179,0,0,0,1.277-1.1,1.228,1.228,0,0,0-1.207-1.217,1.182,1.182,0,0,0-1.279,1.1" transform="translate(-145.714 -50.047)" fill="#263238"/>
            <path id="Trazado_626757" data-name="Trazado 626757" d="M438.379,143.385c.155.157,1.1-.528,2.435-.532,1.339-.023,2.327.642,2.471.482.071-.071-.088-.356-.518-.657a3.482,3.482,0,0,0-1.98-.581,3.34,3.34,0,0,0-1.937.622c-.41.31-.548.6-.472.667" transform="translate(-144.894 -49.487)" fill="#263238"/>
            <path id="Trazado_626758" data-name="Trazado 626758" d="M461.091,145.779A1.228,1.228,0,0,0,462.3,147a1.18,1.18,0,0,0,1.277-1.1,1.228,1.228,0,0,0-1.207-1.217,1.181,1.181,0,0,0-1.279,1.1" transform="translate(-152.407 -50.386)" fill="#263238"/>
            <path id="Trazado_626759" data-name="Trazado 626759" d="M459.275,143.985c.155.157,1.1-.528,2.436-.532,1.339-.023,2.327.642,2.472.482.071-.071-.087-.356-.519-.657a3.484,3.484,0,0,0-1.979-.581,3.34,3.34,0,0,0-1.937.622c-.409.31-.548.6-.472.667" transform="translate(-151.8 -49.696)" fill="#263238"/>
            <path id="Trazado_626760" data-name="Trazado 626760" d="M450.42,153.755a9.09,9.09,0,0,0-2.18-.37c-.342-.033-.667-.1-.726-.324a1.657,1.657,0,0,1,.222-.989l1-2.544a42.816,42.816,0,0,0,2.232-6.65,43.172,43.172,0,0,0-2.776,6.46q-.5,1.339-.954,2.559a1.881,1.881,0,0,0-.169,1.309.852.852,0,0,0,.566.484,2.4,2.4,0,0,0,.582.076,8.976,8.976,0,0,0,2.207-.01" transform="translate(-147.749 -49.76)" fill="#263238"/>
            <path id="Trazado_626761" data-name="Trazado 626761" d="M450.87,181.424a25.256,25.256,0,0,0,12.987-3.455s-3.115,6.514-12.842,5.686Z" transform="translate(-149.029 -61.981)" fill="#eb996e"/>
            <path id="Trazado_626762" data-name="Trazado 626762" d="M452.92,163.908a2.443,2.443,0,0,1,2.16-.886,2.22,2.22,0,0,1,1.528.786,1.331,1.331,0,0,1,.116,1.554,1.65,1.65,0,0,1-1.755.443,5.107,5.107,0,0,1-1.72-.985,1.463,1.463,0,0,1-.385-.383.428.428,0,0,1,0-.486" transform="translate(-149.663 -56.771)" fill="#eb996e"/>
            <path id="Trazado_626763" data-name="Trazado 626763" d="M455.911,160.916c-.218-.011-.212,1.406-1.451,2.418s-2.788.866-2.8,1.064c-.019.089.347.273,1,.287a3.69,3.69,0,0,0,2.337-.808,3.048,3.048,0,0,0,1.123-2.028c.052-.592-.112-.942-.212-.933" transform="translate(-149.29 -56.042)" fill="#263238"/>
            <path id="Trazado_626764" data-name="Trazado 626764" d="M462.169,116.331c-3.464,4.995-12.779,10.229-19.494,11.522.768-1.021,4.861-3.576,5.63-4.6-3.014,2.272-7.33,5.317-11.377,5.587a2.521,2.521,0,0,1-1.4-.188,1.812,1.812,0,0,1-.736-1.473,38.438,38.438,0,0,1,.125-8.572,9.41,9.41,0,0,1,3.394-6.173c2.559-2,6.266-2.542,9.764-2.684a22.766,22.766,0,0,1,8.665.983c2.7.985,5.034,2.984,5.47,5.427" transform="translate(-143.655 -38.21)" fill="#eb6f2d"/>
            <path id="Trazado_626765" data-name="Trazado 626765" d="M485.67,140.409a52.206,52.206,0,0,0,.856-6.336c.2-4.884,1.7-22.511-15.554-20.764l.977,4.739s-3.216,10.973,4.191,18.376c0,0-2.11,15.462,3.043,20.458,0,0,5.532-11.2,6.487-16.473" transform="translate(-155.673 -39.419)" fill="#eb6f2d"/>
            <path id="Trazado_626766" data-name="Trazado 626766" d="M478.2,147.52a5.938,5.938,0,0,1,3.128.177,3.733,3.733,0,0,1,2.347,5.03,6.956,6.956,0,0,1-1.753,2.553,4.862,4.862,0,0,1-1.879,1.229,2.363,2.363,0,0,1-2.165-.313" transform="translate(-157.957 -51.332)" fill="#ffbe9d"/>
            <path id="Trazado_626767" data-name="Trazado 626767" d="M479.254,154.4c-.118.038.337.647,1.285.392a2.027,2.027,0,0,0,1.168-1,4.409,4.409,0,0,0,.507-1.681,2.589,2.589,0,0,0-.451-1.777,1.818,1.818,0,0,0-1.37-.777c-.977-.016-1.275.645-1.164.664.078.076.455-.266,1.1-.12a1.7,1.7,0,0,1,1.095,1.947,2.788,2.788,0,0,1-1.082,2.237c-.59.3-1.018.035-1.083.119" transform="translate(-158.395 -52.084)" fill="#eb996e"/>
            <path id="Trazado_626768" data-name="Trazado 626768" d="M427.437,261.669c-.1,0-.174-3.839-.174-8.574s.078-8.574.174-8.574.174,3.838.174,8.574-.078,8.574-.174,8.574" transform="translate(-141.226 -85.159)" fill="#263238"/>
            <path id="Trazado_626769" data-name="Trazado 626769" d="M460.377,243.918s-8.682.093-9.231,1.964c-.91,3.106.716,20.133.716,20.133l8,2.586s3.857-.867,2.077-8.089a52.061,52.061,0,0,0-5.288-13s10.63.289,10.332-2.022-6.6-1.571-6.6-1.571" transform="translate(-149.029 -84.91)" fill="#ffbe9d"/>
            <path id="Trazado_626770" data-name="Trazado 626770" d="M459.91,251.526c.479-.089,11.1-.945,10.436.709S459.91,254.3,459.91,254.3Z" transform="translate(-152.017 -87.494)" fill="#ffbe9d"/>
            <path id="Trazado_626771" data-name="Trazado 626771" d="M492.561,213.262l-1.312,32.3-4.848,12.4-29.778.6-1.2-40.009Z" transform="translate(-150.533 -74.272)" fill="#263238"/>
            <path id="Trazado_626772" data-name="Trazado 626772" d="M432.635,261.445a1.829,1.829,0,0,1-.365.184l-1.072.465-3.966,1.653L414.1,269.082l-7.248,2.9a42.445,42.445,0,0,0-5.788,2.592,11.152,11.152,0,0,0-3.238,2.681c-.613.784-.834,1.3-.87,1.277a1.731,1.731,0,0,1,.158-.37,6.134,6.134,0,0,1,.6-.986,10.717,10.717,0,0,1,3.219-2.808,40.068,40.068,0,0,1,5.794-2.675l7.238-2.924,13.175-5.243,4.009-1.554,1.1-.406a1.857,1.857,0,0,1,.392-.121" transform="translate(-131.206 -91.053)" fill="#263238"/>
            <path id="Trazado_626773" data-name="Trazado 626773" d="M455.148,280.867a5.641,5.641,0,0,1-.651.777c-.438.484-1.088,1.171-1.925,1.987-1.664,1.643-4.074,3.8-6.845,6.06s-5.372,4.194-7.286,5.549c-.955.681-1.741,1.215-2.289,1.577a5.787,5.787,0,0,1-.872.532,5.792,5.792,0,0,1,.793-.639l2.221-1.661c1.874-1.4,4.442-3.367,7.211-5.618s5.194-4.377,6.9-5.971c.857-.791,1.532-1.451,2-1.906a5.822,5.822,0,0,1,.75-.686" transform="translate(-143.875 -97.817)" fill="#263238"/>
            <path id="Trazado_626774" data-name="Trazado 626774" d="M522.449,300.836c-.073.061-4.443-4.812-9.757-10.884s-9.566-11.044-9.492-11.1,4.441,4.812,9.758,10.885,9.565,11.043,9.492,11.1" transform="translate(-166.325 -97.114)" fill="#263238"/>
            <path id="Trazado_626775" data-name="Trazado 626775" d="M533.4,269.8a5.866,5.866,0,0,1-.968-.335c-.616-.234-1.5-.6-2.574-1.069-2.156-.94-5.088-2.349-8.212-4.106s-5.841-3.531-7.754-4.881c-.957-.674-1.721-1.235-2.235-1.638a5.759,5.759,0,0,1-.781-.649,5.747,5.747,0,0,1,.862.543l2.3,1.548c1.945,1.3,4.675,3.029,7.788,4.783s6.017,3.188,8.142,4.182l2.524,1.165a5.841,5.841,0,0,1,.914.456" transform="translate(-168.864 -89.547)" fill="#263238"/>
            <path id="Trazado_626776" data-name="Trazado 626776" d="M520.516,257.445c-.1.012-.618-3.437-1.167-7.7s-.917-7.733-.821-7.745.618,3.436,1.167,7.7.917,7.732.821,7.743" transform="translate(-171.387 -84.281)" fill="#263238"/>
            <path id="Trazado_626777" data-name="Trazado 626777" d="M481.635,156.893a1.983,1.983,0,0,1-.275.413l-.848,1.11-3.084,3.894-.025-.209,5.028,3.845.455.351-.244.027,4.35-5.306.023.2-3.276-2.6-.9-.74c-.2-.174-.307-.272-.3-.283a1.547,1.547,0,0,1,.352.218l.946.68,3.351,2.5.114.085-.09.112-4.3,5.343-.108.134-.137-.106-.455-.351-5-3.878-.121-.094.1-.115,3.183-3.818.914-1.058a2.026,2.026,0,0,1,.349-.356" transform="translate(-157.697 -54.641)" fill="#263238"/>
            <path id="Trazado_626778" data-name="Trazado 626778" d="M491.651,265.054a121.146,121.146,0,0,1-14.377-1.5c-5.634-.876-5.573-1.374-5.372-2,.539-1.684,9.962,1.174,8.271-.591s-11.906-2.183-11.27-3.919c.83-2.262,10.643.907,11.493,1.115.825.2,1.155-.987.379-1.135-1.115-.212-12.781-2.726-11.987-4.956.44-1.236,2.637-.2,2.637-.2s10.758,3.141,11.1,2.074-5.914-3.134-8.07-3.68c-2.131-.539-2.76-1.752-1.755-2.478.685-.5,7.327,1.025,9.447,1.613s7.911,2.305,5.7-.814c-.035-.05-.061-.1-.094-.148-2.261-3.014-2.978-6.065-2.568-7.085a1.341,1.341,0,0,1,2.383.007,1.292,1.292,0,0,1,.218.5c.015.081.057.184.081.271a18.48,18.48,0,0,0,1.953,3.317,10.2,10.2,0,0,0,2.439,2.454c1.1.779,3.875,3.633,4.712,4.141" transform="translate(-154.939 -83.804)" fill="#ffbe9d"/>
          </g>
        </g>
        <g id="Grupo_878424" data-name="Grupo 878424" transform="translate(19.124)">
          <g id="Grupo_878423" data-name="Grupo 878423" clip-path="url(#clip-path-3)">
            <path id="Trazado_626779" data-name="Trazado 626779" d="M193.629,184.342h0a11.438,11.438,0,0,1-11.226-11.09c-.153-5.08-.269-9.971-.269-9.971s-9.326-.866-10.01-10.095-.391-30.535-.391-30.535a32.158,32.158,0,0,1,32.5,2.064l1.434.969-.4,47.317a11.438,11.438,0,0,1-11.644,11.34" transform="translate(-59.787 -41.514)" fill="#b78876"/>
            <path id="Trazado_626780" data-name="Trazado 626780" d="M185.57,156.688a6.18,6.18,0,0,0-2.084-.309c-.336-.016-.6-.075-.636-.252a1.813,1.813,0,0,1,.179-.968l.847-2.647c1.163-3.768,1.949-6.87,1.758-6.929s-1.288,2.947-2.451,6.715l-.792,2.664a2.125,2.125,0,0,0-.1,1.394.87.87,0,0,0,.606.5,2.119,2.119,0,0,0,.572.039,6.162,6.162,0,0,0,2.1-.2" transform="translate(-63.457 -50.702)" fill="#263238"/>
            <path id="Trazado_626781" data-name="Trazado 626781" d="M190.567,164.387a31.108,31.108,0,0,1-6.126,2.2,3.522,3.522,0,0,0,4.234,1.144c2.7-1.182,1.892-3.341,1.892-3.341" transform="translate(-64.235 -57.251)" fill="#fff"/>
            <path id="Trazado_626782" data-name="Trazado 626782" d="M187.689,184.409a21.519,21.519,0,0,0,11.83-4.165s-2.436,6.822-11.7,6.559Z" transform="translate(-65.366 -62.773)" fill="#a36957"/>
            <path id="Trazado_626783" data-name="Trazado 626783" d="M223.027,145.913a1.4,1.4,0,0,1,1.333-1.4c1.723-.048,4.542.637,4.807,5.392.379,6.794-6.156,5.1-6.179,4.9-.018-.153.022-6.259.04-8.9" transform="translate(-77.658 -50.329)" fill="#b78876"/>
            <path id="Trazado_626784" data-name="Trazado 626784" d="M225.284,153.308c.029-.023.123.076.328.157a1.185,1.185,0,0,0,.886-.031,2.933,2.933,0,0,0,1.209-2.7,3.911,3.911,0,0,0-.426-1.676,1.37,1.37,0,0,0-.941-.859.6.6,0,0,0-.68.364c-.08.195-.03.328-.065.342-.018.018-.152-.106-.113-.389a.758.758,0,0,1,.244-.441.891.891,0,0,1,.645-.209,1.665,1.665,0,0,1,1.295.984,4.02,4.02,0,0,1,.516,1.871,3.076,3.076,0,0,1-1.563,3.03,1.268,1.268,0,0,1-1.092-.12c-.22-.156-.264-.306-.241-.319" transform="translate(-78.458 -51.495)" fill="#a36957"/>
            <path id="Trazado_626785" data-name="Trazado 626785" d="M176.2,147.849a1.254,1.254,0,0,0,1.3,1.176,1.2,1.2,0,0,0,1.21-1.219,1.255,1.255,0,0,0-1.294-1.178,1.2,1.2,0,0,0-1.211,1.221" transform="translate(-61.365 -51.066)" fill="#263238"/>
            <path id="Trazado_626786" data-name="Trazado 626786" d="M172.923,145.773c.167.152,1.065-.617,2.411-.708,1.343-.111,2.381.511,2.515.336.066-.078-.113-.361-.565-.644a3.437,3.437,0,0,0-2.028-.471,3.3,3.3,0,0,0-1.9.768c-.392.347-.511.652-.429.719" transform="translate(-60.215 -50.247)" fill="#263238"/>
            <path id="Trazado_626787" data-name="Trazado 626787" d="M196.733,147.492a1.254,1.254,0,0,0,1.3,1.176,1.2,1.2,0,0,0,1.21-1.219,1.255,1.255,0,0,0-1.295-1.178,1.2,1.2,0,0,0-1.21,1.221" transform="translate(-68.516 -50.941)" fill="#263238"/>
            <path id="Trazado_626788" data-name="Trazado 626788" d="M193.89,145.773c.167.152,1.066-.617,2.411-.708,1.343-.111,2.381.511,2.515.336.066-.078-.111-.361-.565-.644a3.442,3.442,0,0,0-2.028-.471,3.3,3.3,0,0,0-1.905.768c-.39.347-.51.652-.429.72" transform="translate(-67.518 -50.247)" fill="#263238"/>
            <path id="Trazado_626789" data-name="Trazado 626789" d="M207.226,118.289a8.086,8.086,0,0,0,1.537,8.669,31.932,31.932,0,0,1,2.842,2.706c1.633,2.17,1.367,5.153,1.622,7.857a5.23,5.23,0,0,0,1.333,3.433c.922.854,2.641.912,3.283-.168a3.264,3.264,0,0,0,.339-1.084q.849-4.515,1.7-9.03a19.386,19.386,0,0,0,.459-6.837,9.654,9.654,0,0,0-12.061-7.668" transform="translate(-71.947 -40.34)" fill="#263238"/>
            <path id="Trazado_626790" data-name="Trazado 626790" d="M192.18,114.615a27.706,27.706,0,0,1-7.11-2.6,10.424,10.424,0,0,0-7.062-.8c-1.577.446-3.072,1.393-4.7,1.378s-3.06-.975-4.6-1.462a8.206,8.206,0,0,0-6.379.652,5.453,5.453,0,0,0-3.008,4.149c-.128,1.822,1.5,3.71,3.13,3.192-1.7.593-2.4,3.1-1.547,4.782a4.379,4.379,0,0,0,4.594,2.16,8.312,8.312,0,0,0,4.6-2.8,3.782,3.782,0,0,0,3.966,3.4c1.887-.061,3.6-1.192,5.156-2.357s3.136-2.437,4.989-2.849a38.929,38.929,0,0,1,3.933-.29,4.138,4.138,0,0,0,3.337-1.974c.632-1.249,3.139-2.68,1.825-2.716" transform="translate(-55.484 -38.575)" fill="#263238"/>
            <path id="Trazado_626791" data-name="Trazado 626791" d="M181.271,128.442a7.37,7.37,0,0,0,.7.372,3.334,3.334,0,0,0,2.091-.007,5.593,5.593,0,0,0,1.347-.592c.456-.274.918-.622,1.412-.982a11.715,11.715,0,0,1,1.636-1.045,4.713,4.713,0,0,1,2.047-.514c1.451-.026,2.764.366,3.952.258a3.578,3.578,0,0,0,2.66-1.444,3.932,3.932,0,0,0,.791-1.954c.052-.505,0-.791.035-.8.012,0,.031.067.057.2a2.6,2.6,0,0,1,.04.6,3.841,3.841,0,0,1-.73,2.087,3.883,3.883,0,0,1-1.126,1.067,3.8,3.8,0,0,1-1.7.546c-1.264.126-2.6-.261-3.968-.23A6.153,6.153,0,0,0,187,127.487c-.5.351-.971.695-1.453.97a5.59,5.59,0,0,1-1.427.582,3.311,3.311,0,0,1-2.2-.1,2,2,0,0,1-.506-.335c-.1-.1-.147-.151-.139-.159" transform="translate(-63.131 -42.398)" fill="#263238"/>
            <path id="Trazado_626792" data-name="Trazado 626792" d="M208.143,111.732a13.286,13.286,0,0,0,.188,2.164,13.257,13.257,0,0,0,.851,2,3.723,3.723,0,0,1-1.039-4.163" transform="translate(-72.397 -38.912)" fill="#263238"/>
            <path id="Trazado_626793" data-name="Trazado 626793" d="M212.366,111.511c.071.075-.769.87-1.4,2.116-.645,1.239-.8,2.385-.9,2.371a5.446,5.446,0,0,1,2.3-4.487" transform="translate(-73.147 -38.834)" fill="#263238"/>
            <path id="Trazado_626794" data-name="Trazado 626794" d="M271.048,259.79l14.187,36.5H263.519L253.4,270.307Z" transform="translate(-88.251 -90.477)" fill="#b78876"/>
            <path id="Trazado_626795" data-name="Trazado 626795" d="M135.753,187.894s-18.695,19.26-26.793,19.26c-2.645,0-4.719-32.077-4.751-41.324a11.953,11.953,0,0,1,1.82-3.321,15.456,15.456,0,0,1,2.349-2.6,16.174,16.174,0,0,1,3.669-2.368c1.264-.444,1.369-2.175.219-2.519s-4.663.8-7.806,3.777-2.2-3.689-1.9-6.124.871-10.007.194-10.672c-.993-.976-2.254-.07-2.5,2.368-.246,2.467-1.485,9.711-2.765,9.525-1.262-.183.43-12.567.43-12.567s.791-2.6-.681-2.864c-2.654-.478-3.483,12.794-3.53,14.058-.033.879-1.434.727-1.347-.216.089-.971,1.975-12.322-.721-12.833-2.071-.393-.784,10.913-2.484,13.085s-.1-8.7-2.093-8.99c-.742-.109-1.314-.087-1.333,6.262-.01,3.412,1.3,8.568.8,15.14.864,19.393-.089,73.863,21.493,67.406a108.8,108.8,0,0,0,39.948-22.647Z" transform="translate(-29.857 -48.22)" fill="#b78876"/>
            <path id="Trazado_626796" data-name="Trazado 626796" d="M242.854,240.8a3.594,3.594,0,0,1,.212.766c.116.5.265,1.222.433,2.12.337,1.8.732,4.291,1.039,7.063s.465,5.294.528,7.12c.032.913.045,1.652.04,2.164a3.643,3.643,0,0,1-.039.794,3.558,3.558,0,0,1-.093-.789l-.148-2.155c-.124-1.82-.321-4.331-.626-7.1s-.662-5.258-.938-7.06c-.13-.847-.239-1.562-.327-2.135a3.582,3.582,0,0,1-.082-.791" transform="translate(-84.576 -83.862)" fill="#263238"/>
            <path id="Trazado_626797" data-name="Trazado 626797" d="M146.633,275.308l59.779.305-2.014-12.62a97.356,97.356,0,0,0-.089-18l3.027,8.209,24.708-12.354s-8.982-23.95-16.5-32.061c-9.5-10.25-26.591-9.231-26.591-9.231L177.4,207.4l-10.63-7.486a51.659,51.659,0,0,0-16.426,4.777l-.547.159,0,.115c-6.27,3.278-15.212,11.258-23.734,19.006l9.835,9.575L146.8,243.694a9.022,9.022,0,0,1,1.861-.08c.185,1.072-2.028,31.693-2.028,31.693" transform="translate(-43.907 -69.49)" fill="#455a64"/>
            <g id="Grupo_878422" data-name="Grupo 878422" transform="translate(158.32 153.111)" opacity="0.2">
              <g id="Grupo_878421" data-name="Grupo 878421">
                <g id="Grupo_878420" data-name="Grupo 878420" clip-path="url(#clip-path-7)">
                  <path id="Trazado_626798" data-name="Trazado 626798" d="M243.171,234.929l8.123,28.971-3.262,1.631L245,257.323s-2.941-17.175-1.834-22.394" transform="translate(-242.922 -234.929)"/>
                </g>
              </g>
            </g>
            <path id="Trazado_626799" data-name="Trazado 626799" d="M187.51,197.688v-3.128s9.335-.724,11.225,10.3c0,0,3.042-10.3,12.1-11.336l1.291,4.817s-4.291,13.417-4.914,13.532-8.476,2.408-8.476,2.408l-4.548-1.032-5.054-5.752Z" transform="translate(-65.304 -67.399)" fill="#455a64"/>
            <path id="Trazado_626800" data-name="Trazado 626800" d="M219.448,200.351a3.3,3.3,0,0,1-.516.545c-.341.341-.837.827-1.423,1.455a33.214,33.214,0,0,0-4.047,5.323c-.286.466-.55.932-.8,1.382l-.15.271-.145-.27-2.655-4.973a2.191,2.191,0,0,0-.6-.68,1.333,1.333,0,0,0-.628-.229,1.439,1.439,0,0,0-.57.1c-.014,0,.151-.209.574-.22a1.391,1.391,0,0,1,.716.2,2.293,2.293,0,0,1,.69.706c.736,1.229,1.676,2.959,2.763,4.931h-.294c.248-.456.514-.929.8-1.4a28.776,28.776,0,0,1,4.163-5.314c.613-.611,1.138-1.074,1.507-1.386a3.089,3.089,0,0,1,.6-.447" transform="translate(-72.412 -69.776)" fill="#263238"/>
            <path id="Trazado_626801" data-name="Trazado 626801" d="M186.583,201.2c.019-.014.176.154.445.47s.65.781,1.114,1.359c.929,1.156,2.194,2.769,3.575,4.561l.221.287-.283.021a11.72,11.72,0,0,0,.769-2.906,3.435,3.435,0,0,1,1.29-2.174,1.9,1.9,0,0,1,1.681-.216,1.224,1.224,0,0,1,.394.254c.07.081.1.126.094.134a2.856,2.856,0,0,0-.531-.265,1.827,1.827,0,0,0-1.509.289,3.281,3.281,0,0,0-1.119,2.048,11.116,11.116,0,0,1-.772,3l-.123.231-.16-.209-.222-.287c-1.38-1.793-2.615-3.429-3.5-4.623-.44-.6-.792-1.084-1.028-1.425a2.363,2.363,0,0,1-.341-.551" transform="translate(-64.98 -70.073)" fill="#263238"/>
            <path id="Trazado_626802" data-name="Trazado 626802" d="M196.761,279.31a.7.7,0,0,1,0-.177c.005-.136.011-.307.02-.518.026-.482.063-1.147.109-1.992.111-1.756.269-4.25.463-7.321.426-6.2,1.011-14.728,1.658-24.145.686-9.418,1.306-17.943,1.758-24.143.24-3.068.435-5.561.572-7.314.073-.843.13-1.507.172-1.987.022-.21.04-.38.053-.516a.721.721,0,0,1,.03-.175.7.7,0,0,1,0,.178c-.005.136-.012.307-.02.518-.026.481-.063,1.147-.109,1.992-.111,1.755-.269,4.249-.464,7.32-.426,6.2-1.011,14.728-1.658,24.149-.685,9.414-1.305,17.938-1.757,24.138-.24,3.068-.434,5.561-.572,7.314-.073.843-.13,1.508-.172,1.988-.022.211-.04.381-.053.517a.72.72,0,0,1-.03.175" transform="translate(-68.524 -73.492)" fill="#263238"/>
            <path id="Trazado_626803" data-name="Trazado 626803" d="M162.755,226.842a6.089,6.089,0,0,1-.057,1.036c-.058.725-.133,1.672-.224,2.814-.179,2.378-.359,5.667-.563,9.3s-.422,6.927-.663,9.3c-.115,1.189-.235,2.148-.332,2.809a6.194,6.194,0,0,1-.188,1.021,6,6,0,0,1,.057-1.036c.057-.725.133-1.672.224-2.814.179-2.378.359-5.667.563-9.3s.422-6.926.663-9.3c.115-1.189.235-2.148.332-2.809a6,6,0,0,1,.188-1.021" transform="translate(-55.973 -79.002)" fill="#263238"/>
            <path id="Trazado_626804" data-name="Trazado 626804" d="M202.23,208.509s-3.2,4.187-2.736,4.816,2.736,3.651,2.736,3.651h1.947s1.826-5.122,1.356-5.772a28.713,28.713,0,0,0-3.3-2.695" transform="translate(-69.461 -72.617)" fill="#ffb338"/>
            <path id="Trazado_626805" data-name="Trazado 626805" d="M209.377,206.772l-3.538,2.769,1.356,2.6,3.64-2.683Z" transform="translate(-71.687 -72.012)" fill="#ffb338"/>
            <path id="Trazado_626806" data-name="Trazado 626806" d="M195.322,207.8l3.226,2.694,1.788-2.694-4.074-3.1Z" transform="translate(-68.024 -71.292)" fill="#ffb338"/>
            <path id="Trazado_626807" data-name="Trazado 626807" d="M201.086,221.219l-4.924,44.09,4.844,15.334,6.459-15.194-4.251-44.755Z" transform="translate(-68.317 -76.861)" fill="#ffb338"/>
            <path id="Trazado_626808" data-name="Trazado 626808" d="M251.362,208.442a4.5,4.5,0,0,0-.638-.437,2.759,2.759,0,0,0-2.025-.114,6.29,6.29,0,0,0-2.523,1.781,14.886,14.886,0,0,0-2.306,3.081,15.589,15.589,0,0,0-1.954,6.684c-.108,1.8.124,2.915.051,2.924a3.559,3.559,0,0,1-.169-.775,12.808,12.808,0,0,1-.122-2.159,14.869,14.869,0,0,1,1.9-6.84,14.413,14.413,0,0,1,2.381-3.135,6.314,6.314,0,0,1,2.677-1.791,2.8,2.8,0,0,1,2.155.229,1.853,1.853,0,0,1,.462.379c.087.106.122.168.113.175" transform="translate(-84.166 -72.282)" fill="#263238"/>
          </g>
        </g>
        <g id="Grupo_878426" data-name="Grupo 878426" transform="translate(30.267)">
          <g id="Grupo_878425" data-name="Grupo 878425" transform="translate(0)" clip-path="url(#clip-path-3)">
            <path id="Trazado_626809" data-name="Trazado 626809" d="M320.959,125.214c-4.174,2.561-7.073,6.845-8.8,11.428A57.621,57.621,0,0,0,309.28,151a279.6,279.6,0,0,0-1.35,38.731c15.8,2,31.711,4,47.6,2.92-2.754-18.139-4.5-36.255-2.292-54.468" transform="translate(-107.184 -43.608)" fill="#263238"/>
            <path id="Trazado_626810" data-name="Trazado 626810" d="M336.365,304.064l-11.5-23.258,4.389-17.008c.516,3.6.974,6.732.974,6.732l24.669-1.305a1.564,1.564,0,0,0,1.467-1.782l-4.821-34.025S350,217.635,335.062,211.77h0l-.066-.023c-.6-.234-1.227-.448-1.872-.648-20.147-6.983-39.013-6.942-60.008.222,0,0-9.327,2.509-13.847,14.676s-9.137,30.054-9.137,30.054l20.945,7.4.138-3.536,4.629,17.7-10.153,25.782,35.421.875Z" transform="translate(-87.114 -71.709)" fill="#2b95f9"/>
            <path id="Trazado_626811" data-name="Trazado 626811" d="M248.762,282.521l-2.35,11.109a17.374,17.374,0,0,0,14.748,20.449l51.555,5.292a20.486,20.486,0,0,0,22.711-18.57l-65-6.2.407-6.237Z" transform="translate(-85.697 -98.393)" fill="#2b95f9"/>
            <path id="Trazado_626812" data-name="Trazado 626812" d="M348.957,293.858l4-.742s9.491-10.381,11.271-10.529c1.464-.122,9.539-.043,12.352-.012a.979.979,0,0,1,.025,1.956l-9.54.37-.045.768,9.553.127c.972.074,1.6,1.615-1.518,1.893l-7.99.284v.5l8.1,1.132c.409.057,1.486.267,1.5.68,0,0,.49,1.015-1.818,1.3-.792.1-7.825-.135-7.825-.135l.271.633,7.281,1.571a1.035,1.035,0,0,1-.314,2.042l-7.78-.721-7.634,6.1H348.639Z" transform="translate(-121.42 -98.393)" fill="#ffbe9d"/>
            <path id="Trazado_626813" data-name="Trazado 626813" d="M310.248,205.634s10.043,51.354,13.585,50.979,20.139-49.206,20.139-49.206-21.218-6.477-33.724-1.773" transform="translate(-108.05 -71.019)" fill="#fafafa"/>
            <path id="Trazado_626814" data-name="Trazado 626814" d="M378.355,274.37c-.094,0-.169-3.541-.169-7.909s.076-7.91.169-7.91.169,3.541.169,7.91-.076,7.909-.169,7.909" transform="translate(-131.71 -90.045)" fill="#263238"/>
            <path id="Trazado_626815" data-name="Trazado 626815" d="M283.835,275.081a15.2,15.2,0,0,1,.211-2.276c.173-1.4.435-3.335.746-5.467s.611-4.062.845-5.455a15.245,15.245,0,0,1,.448-2.244,15.309,15.309,0,0,1-.21,2.279c-.173,1.4-.435,3.334-.746,5.466s-.61,4.058-.844,5.451a15.358,15.358,0,0,1-.448,2.247" transform="translate(-98.847 -90.424)" fill="#263238"/>
            <path id="Trazado_626816" data-name="Trazado 626816" d="M328.327,331.833a2.5,2.5,0,0,1-.031-.476c-.005-.345-.013-.8-.022-1.364-.01-1.185,0-2.9.043-5.016.078-4.236.307-10.084.6-16.538s.558-12.3.7-16.532c.063-2.087.114-3.79.151-5.011.017-.565.031-1.018.041-1.363a2.51,2.51,0,0,1,.037-.475,2.51,2.51,0,0,1,.031.476c.006.345.013.8.023,1.363.009,1.185,0,2.9-.043,5.017-.078,4.236-.308,10.084-.6,16.54s-.558,12.3-.7,16.529c-.063,2.087-.114,3.79-.151,5.011-.017.565-.031,1.018-.041,1.363a2.518,2.518,0,0,1-.037.475" transform="translate(-114.326 -99.277)" fill="#263238"/>
            <path id="Trazado_626817" data-name="Trazado 626817" d="M350.91,209.112c.017,0,.034.222.111.638a9.311,9.311,0,0,0,.514,1.773,19.761,19.761,0,0,0,1.3,2.623,35.78,35.78,0,0,1,1.848,3.441,8.293,8.293,0,0,1,.782,4.665,6,6,0,0,1-1.047,2.456,16.415,16.415,0,0,1-1.839,2.126,32.7,32.7,0,0,0-3.909,4.487,10.655,10.655,0,0,0-2.016,5.9,7.291,7.291,0,0,0,.69,3.091,27.63,27.63,0,0,1,1.264,2.924,4.364,4.364,0,0,1,.206,1.582,3.284,3.284,0,0,1-.493,1.5,8.152,8.152,0,0,1-2.168,2.035l-8.165,6.016-5.523,4.033-1.511,1.083-.4.275a.638.638,0,0,1-.143.084c0-.005.038-.043.122-.112l.378-.3,1.474-1.134,5.458-4.119,8.122-6.075a7.905,7.905,0,0,0,2.08-1.955,2.955,2.955,0,0,0,.441-1.35,4.069,4.069,0,0,0-.2-1.462,27.762,27.762,0,0,0-1.256-2.885,7.625,7.625,0,0,1-.72-3.227,10.954,10.954,0,0,1,2.081-6.087,32.491,32.491,0,0,1,3.961-4.519c1.334-1.328,2.568-2.748,2.832-4.412a8.1,8.1,0,0,0-.725-4.522,37.388,37.388,0,0,0-1.793-3.443,18.794,18.794,0,0,1-1.259-2.669,8.359,8.359,0,0,1-.458-1.809,4.373,4.373,0,0,1-.044-.483.6.6,0,0,1,0-.166" transform="translate(-115.072 -72.827)" fill="#263238"/>
            <path id="Trazado_626818" data-name="Trazado 626818" d="M320.356,257.014A.572.572,0,0,1,320.2,257l-.461-.086a15.638,15.638,0,0,1-1.738-.476,17.451,17.451,0,0,1-5.731-3.288,17.025,17.025,0,0,1-3.045-3.43,17.2,17.2,0,0,1-2.213-4.777,17.493,17.493,0,0,1-.68-5.776,19.787,19.787,0,0,1,.409-3.054,7,7,0,0,0,.085-3.047,2.478,2.478,0,0,0-.79-1.23,4.157,4.157,0,0,0-1.338-.671c-.484-.164-.987-.3-1.474-.5a4.246,4.246,0,0,1-1.32-.856,5.188,5.188,0,0,1-1.341-2.694,11.028,11.028,0,0,1-.159-2.864,39.765,39.765,0,0,1,4.876-15.61c.387-.679.7-1.2.925-1.544l.257-.391a.566.566,0,0,1,.1-.126.541.541,0,0,1-.068.145l-.228.409c-.207.354-.5.884-.868,1.571a43.278,43.278,0,0,0-2.627,6.043,40.094,40.094,0,0,0-2.052,9.524,10.763,10.763,0,0,0,.164,2.779,4.874,4.874,0,0,0,1.257,2.522,3.917,3.917,0,0,0,1.215.783c.459.19.954.321,1.453.489a4.466,4.466,0,0,1,1.446.729,2.818,2.818,0,0,1,.9,1.4,7.28,7.28,0,0,1-.08,3.2,19.566,19.566,0,0,0-.41,3.01,17.321,17.321,0,0,0,.649,5.673,16.88,16.88,0,0,0,5.115,8.112,17.918,17.918,0,0,0,5.617,3.345c.732.263,1.313.431,1.71.534l.452.119a.543.543,0,0,1,.152.052" transform="translate(-104.612 -71.944)" fill="#263238"/>
            <path id="Trazado_626819" data-name="Trazado 626819" d="M349.573,299.28l-43.186-1.4.065,14.33,28.593,6.288,20.119,3.212c12.5,0,22.506-11.476,20.569-23.829l-.053.014Z" transform="translate(-106.705 -103.744)" fill="#2b95f9"/>
            <path id="Trazado_626820" data-name="Trazado 626820" d="M361.461,299a3.488,3.488,0,0,1-.56.039l-1.605.046-5.9.107c-4.986.073-11.875.157-19.485.085s-14.5-.35-19.479-.687c-2.489-.166-4.5-.327-5.889-.467l-1.6-.164a3.405,3.405,0,0,1-.555-.08,3.437,3.437,0,0,1,.56.012l1.6.1c1.39.1,3.4.224,5.892.359,4.977.275,11.86.512,19.468.587s14.493.025,19.48.014h5.906l1.606.018a3.455,3.455,0,0,1,.56.029" transform="translate(-106.705 -103.741)" fill="#263238"/>
            <path id="Trazado_626821" data-name="Trazado 626821" d="M290.545,293.858l-4-.742s-9.491-10.381-11.271-10.529c-1.464-.122-9.539-.043-12.352-.012a.979.979,0,0,0-.025,1.956l9.54.37.045.768-9.553.127c-.972.074-1.6,1.615,1.518,1.893l7.99.284v.5l-8.1,1.132c-.409.057-1.486.267-1.5.68,0,0-.49,1.015,1.818,1.3.792.1,7.825-.135,7.825-.135l-.271.633-7.281,1.571a1.035,1.035,0,0,0,.314,2.042l7.78-.721,7.634,6.1h10.209Z" transform="translate(-91.23 -98.393)" fill="#ffbe9d"/>
            <path id="Trazado_626822" data-name="Trazado 626822" d="M354.784,329.143a2.633,2.633,0,0,1-.49-.029l-1.4-.15c-1.213-.135-2.965-.358-5.127-.657-4.324-.6-10.282-1.545-16.82-2.825s-12.414-2.658-16.644-3.737c-2.115-.539-3.821-.995-5-1.328l-1.351-.388a2.611,2.611,0,0,1-.465-.158,2.713,2.713,0,0,1,.483.092l1.366.327,5.02,1.223c4.241,1.019,10.119,2.355,16.651,3.637s12.477,2.262,16.789,2.92l5.11.764,1.389.213a2.625,2.625,0,0,1,.482.1" transform="translate(-107.09 -111.4)" fill="#263238"/>
            <path id="Trazado_626823" data-name="Trazado 626823" d="M306.59,312.437a11.141,11.141,0,0,1-.374-2.042c-.174-1.269-.356-3.032-.458-4.985s-.1-3.727-.057-5.007a11.115,11.115,0,0,1,.162-2.069,14.319,14.319,0,0,1,.078,2.07c.019,1.278.057,3.042.156,4.988s.244,3.7.357,4.977a14.376,14.376,0,0,1,.135,2.068" transform="translate(-106.457 -103.9)" fill="#263238"/>
            <path id="Trazado_626824" data-name="Trazado 626824" d="M313.636,313.1a1.878,1.878,0,0,1-.189-.544c-.1-.355-.227-.875-.362-1.522a37.025,37.025,0,0,1-.626-10.284c.055-.658.116-1.189.175-1.555a1.9,1.9,0,0,1,.122-.563,18.244,18.244,0,0,1-.057,2.132c-.05,1.313-.068,3.129.053,5.129s.361,3.8.57,5.1a18.427,18.427,0,0,1,.315,2.11" transform="translate(-108.78 -104.005)" fill="#263238"/>
            <path id="Trazado_626825" data-name="Trazado 626825" d="M307.965,301.738c.036.04-.213.218-.2.629a.774.774,0,0,0,.263.581.7.7,0,0,0,1.069-.616.775.775,0,0,0-.371-.519c-.351-.214-.63-.087-.646-.139-.039-.022.263-.281.755-.075a.98.98,0,0,1,.57.678.99.99,0,0,1-1.579.91.982.982,0,0,1-.3-.833c.069-.53.444-.662.444-.617" transform="translate(-107.098 -105.01)" fill="#263238"/>
            <path id="Trazado_626826" data-name="Trazado 626826" d="M297.851,324.024a2.192,2.192,0,0,1-.444.014c-.29-.007-.718,0-1.268,0a34.508,34.508,0,0,0-4.634.435,68.574,68.574,0,0,0-6.747,1.5c-2.519.665-5.274,1.472-8.224,2.114a35.169,35.169,0,0,1-8.456.916,21.113,21.113,0,0,1-6.82-1.3,15.236,15.236,0,0,1-4.079-2.3,10.836,10.836,0,0,1-.948-.852,2.141,2.141,0,0,1-.3-.327c.028-.029.45.415,1.328,1.075a16.085,16.085,0,0,0,4.083,2.177,21.422,21.422,0,0,0,6.745,1.217,35.857,35.857,0,0,0,8.376-.936c2.933-.639,5.687-1.436,8.215-2.085a63.129,63.129,0,0,1,6.791-1.433,30.362,30.362,0,0,1,4.67-.33c.553.012.983.03,1.272.059a2.2,2.2,0,0,1,.441.054" transform="translate(-89.132 -112.807)" fill="#263238"/>
            <path id="Trazado_626827" data-name="Trazado 626827" d="M337.97,186.084c1.027-5.727,2.213-11.737,2.213-11.737s7.6.074,10.823-9.287c3.076-8.927,5.3-30.4,5.3-30.4a28.1,28.1,0,0,0-32.029,1.633l-7.573,46.65c-.879,5.415,3.077,10.484,8.883,11.382h0c5.864.906,11.405-2.78,12.384-8.237" transform="translate(-110.255 -45.421)" fill="#ffbe9d"/>
            <path id="Trazado_626828" data-name="Trazado 626828" d="M367.528,160.879a1.254,1.254,0,0,1-1.41,1.036,1.2,1.2,0,0,1-1.077-1.337,1.255,1.255,0,0,1,1.41-1.038,1.2,1.2,0,0,1,1.078,1.339" transform="translate(-127.128 -55.56)" fill="#263238"/>
            <path id="Trazado_626829" data-name="Trazado 626829" d="M369.706,159.07c-.181.134-1-.723-2.325-.953-1.324-.25-2.421.263-2.536.074-.058-.085.149-.348.628-.582a3.438,3.438,0,0,1,2.065-.259,3.306,3.306,0,0,1,1.815.961c.353.385.441.7.353.76" transform="translate(-127.061 -54.781)" fill="#263238"/>
            <path id="Trazado_626830" data-name="Trazado 626830" d="M346.587,157.562a1.254,1.254,0,0,1-1.41,1.036,1.2,1.2,0,0,1-1.077-1.338,1.255,1.255,0,0,1,1.41-1.037,1.2,1.2,0,0,1,1.078,1.339" transform="translate(-119.835 -54.404)" fill="#263238"/>
            <path id="Trazado_626831" data-name="Trazado 626831" d="M348.3,156.063c-.182.134-1-.723-2.325-.953-1.325-.25-2.421.262-2.537.074-.057-.085.148-.348.629-.583a3.443,3.443,0,0,1,2.065-.259,3.305,3.305,0,0,1,1.815.961c.353.385.441.7.353.76" transform="translate(-119.604 -53.733)" fill="#263238"/>
            <path id="Trazado_626832" data-name="Trazado 626832" d="M355.637,167.464a8.93,8.93,0,0,1,2.228-.009c.345.025.678.014.776-.208a1.755,1.755,0,0,0-.049-1.045q-.262-1.317-.549-2.761a45.211,45.211,0,0,1-1.064-7.157,45.186,45.186,0,0,1,1.637,7.055c.175.967.344,1.887.5,2.769a2,2,0,0,1-.059,1.363.865.865,0,0,1-.646.4,2.34,2.34,0,0,1-.59-.022,8.8,8.8,0,0,1-2.189-.383" transform="translate(-123.857 -54.428)" fill="#263238"/>
            <path id="Trazado_626833" data-name="Trazado 626833" d="M346.227,194.767a24.876,24.876,0,0,1-12.292-5.712s1.964,7.167,11.761,7.964Z" transform="translate(-116.299 -65.842)" fill="#eb996e"/>
            <path id="Trazado_626834" data-name="Trazado 626834" d="M351.7,177.522a2.432,2.432,0,0,0-1.99-1.268,2.22,2.22,0,0,0-1.653.544,1.407,1.407,0,0,0-.384,1.565,1.632,1.632,0,0,0,1.665.748,5.1,5.1,0,0,0,1.878-.715,1.488,1.488,0,0,0,.448-.326.452.452,0,0,0,.085-.5" transform="translate(-121.048 -61.382)" fill="#eb996e"/>
            <path id="Trazado_626835" data-name="Trazado 626835" d="M349.183,173.792c.218.025-.033,1.469,1.021,2.71s2.619,1.354,2.594,1.557c0,.094-.392.22-1.044.123a3.642,3.642,0,0,1-2.179-1.218,3.175,3.175,0,0,1-.764-2.256c.051-.613.275-.942.372-.916" transform="translate(-121.477 -60.526)" fill="#263238"/>
            <path id="Trazado_626836" data-name="Trazado 626836" d="M338.375,126.164c2.573,5.677,10.913,12.584,17.353,15.034-.585-1.171-4.206-4.466-4.791-5.636,2.6,2.825,6.354,6.657,10.324,7.615a2.48,2.48,0,0,0,1.419.044,1.892,1.892,0,0,0,.985-1.378,40.8,40.8,0,0,0,1.36-8.761,9.805,9.805,0,0,0-2.3-6.865c-2.2-2.467-5.779-3.648-9.226-4.384a22.349,22.349,0,0,0-8.77-.458c-2.853.549-5.514,2.193-6.371,4.611" transform="translate(-117.84 -42.18)" fill="#263238"/>
            <path id="Trazado_626837" data-name="Trazado 626837" d="M314.818,147.818a55.416,55.416,0,0,1,.248-6.6c.65-5.012,2.213-23.237,19.034-18.548l-1.791,4.668s1.292,11.73-7.342,18.028c0,0,.038,11.707-5.943,15.932,0,0-4.171-7.939-4.206-13.475" transform="translate(-109.64 -42.454)" fill="#263238"/>
            <path id="Trazado_626838" data-name="Trazado 626838" d="M327.521,156.449a5.829,5.829,0,0,0-3.135-.347,4.069,4.069,0,0,0-2.632,1.659,4.254,4.254,0,0,0-.568,3.074,7.192,7.192,0,0,0,1.3,2.9,4.874,4.874,0,0,0,1.651,1.57,2.331,2.331,0,0,0,2.2.046" transform="translate(-111.834 -54.336)" fill="#ffbe9d"/>
            <path id="Trazado_626839" data-name="Trazado 626839" d="M327.02,163.354c.111.059-.446.6-1.343.184a2.059,2.059,0,0,1-.985-1.221,4.638,4.638,0,0,1-.212-1.8,2.736,2.736,0,0,1,.755-1.737,1.819,1.819,0,0,1,1.494-.56c.972.149,1.154.873,1.041.873-.091.065-.406-.347-1.068-.307a1.763,1.763,0,0,0-1.423,1.8,2.909,2.909,0,0,0,.686,2.463c.534.4,1,.208,1.054.3" transform="translate(-113.002 -55.098)" fill="#eb996e"/>
            <path id="Trazado_626840" data-name="Trazado 626840" d="M319.673,170.3c-2.613,15.585-.484,31.514-.018,47.309a9.133,9.133,0,0,1-.63,4.449c-1.041,2.041-3.461,3.032-5.747,3.173a48.173,48.173,0,0,1-6.839-.58q-.37-2.273-.738-4.546l-2.282,5.238q1.508-16.626,3.3-33.224" transform="translate(-105.671 -59.311)" fill="#263238"/>
          </g>
        </g>
      </g>
    </g>
    <rect id="Rectángulo_361476" data-name="Rectángulo 361476" width="620" height="232" transform="translate(180 15749)" fill="none"/>
  </g>
</svg>
