<svg xmlns="http://www.w3.org/2000/svg" width="78.227" height="56.713" viewBox="0 0 78.227 56.713">
  <g id="Grupo_1034307" data-name="Grupo 1034307" transform="translate(-180 -7547.287)">
    <path id="Trazado_194609" data-name="Trazado 194609" d="M0,0,78.227,36.813H0Z" transform="translate(180 7567.188)" fill="#617a0b"/>
    <g id="Layer_x0020_1" transform="translate(152.113 7547.287)">
      <g id="Elipse_6664" data-name="Elipse 6664" transform="translate(55.07 4.17)" fill="#fff" stroke="#707070" stroke-width="1">
        <circle cx="12" cy="12" r="12" stroke="none"/>
        <circle cx="12" cy="12" r="11.5" fill="none"/>
      </g>
      <path id="Trazado_627853" data-name="Trazado 627853" d="M70.437,20.089a2.242,2.242,0,1,1,1.985-1.067A2.379,2.379,0,0,1,70.437,20.089ZM67,45.333a.873.873,0,0,1-.741-.444L62.5,38.933c-12.089.622-17.719,3.289-17.719,4.919,0,.622,1.3,2.015,6.1,3.23,8.948,2.281,23.319,2.281,32.237,0,4.83-1.215,6.1-2.607,6.1-3.23,0-1.63-5.63-4.3-17.689-4.919L67.77,44.889A.884.884,0,0,1,67,45.333ZM51.3,15.7a15.7,15.7,0,0,1,31.407,0c0,5.037-5.333,14.015-10.074,21.511C77.489,37.541,91,38.933,91,43.852c0,2.044-2.489,3.7-7.437,4.948-9.215,2.341-23.881,2.341-33.1,0C45.519,47.556,43,45.9,43,43.852c0-4.919,13.511-6.311,18.4-6.637C56.659,29.719,51.3,20.741,51.3,15.7Zm29.63,0a13.926,13.926,0,0,0-27.852,0c0,6.044,9.156,19.378,13.926,27.022C71.77,35.081,80.926,21.748,80.926,15.7ZM67,27.556A11.7,11.7,0,1,1,78.674,15.793,11.71,11.71,0,0,1,67,27.556Zm0-21.63a9.926,9.926,0,1,0,9.9,9.867,10.446,10.446,0,0,0-.288-2.359A9.839,9.839,0,0,0,67,5.926Zm-2.963,16a.906.906,0,0,1-.77-1.333l5.926-10.459a.9.9,0,0,1,1.57.859L64.837,21.481A.906.906,0,0,1,64.037,21.926Zm-.563-5.837a2.232,2.232,0,0,1-1.867-3.378c1.452-2.607,5.333-.415,3.911,2.252A2.419,2.419,0,0,1,63.474,16.089Zm.148-1.807c.5-.148.563-.593.148-.889C63.03,12.978,62.763,14.489,63.622,14.281Zm6.844,4.03a.475.475,0,1,0,.03-.948C69.9,17.363,69.815,18.341,70.467,18.311Z" fill-rule="evenodd"/>
      <g id="Grupo_878655" data-name="Grupo 878655" transform="translate(53.074 1.778)">
        <path id="Trazado_627854" data-name="Trazado 627854" d="M408.6,74.015A11.659,11.659,0,1,1,396.926,62.37,11.735,11.735,0,0,1,408.6,74.015Zm-11.674,26.933c4.77-7.644,13.926-20.978,13.926-27.022a13.926,13.926,0,0,0-27.852,0C383,79.97,392.156,93.3,396.926,100.948Z" transform="translate(-383 -60)" fill="#eb6f2d" fill-rule="evenodd"/>
        <path id="Trazado_627855" data-name="Trazado 627855" d="M955.167,586.948a.475.475,0,1,0,.03-.948C954.6,586,954.515,586.978,955.167,586.948Z" transform="translate(-937.775 -570.415)" fill="#eb6f2d" fill-rule="evenodd"/>
        <path id="Trazado_627856" data-name="Trazado 627856" d="M721.451,450.516c.5-.148.563-.593.148-.889C720.859,449.213,720.592,450.724,721.451,450.516Z" transform="translate(-710.903 -438.013)" fill="#eb6f2d" fill-rule="evenodd"/>
      </g>
      <path id="Trazado_627857" data-name="Trazado 627857" d="M147.444,1318.918c0-1.63-5.63-4.3-17.689-4.918l-3.763,5.956a.884.884,0,0,1-.77.444.873.873,0,0,1-.741-.444L120.719,1314c-12.089.622-17.719,3.289-17.719,4.918,0,.622,1.3,2.015,6.1,3.23,8.948,2.281,23.319,2.281,32.237,0C146.17,1320.933,147.444,1319.541,147.444,1318.918Z" transform="translate(-58.222 -1275.067)" fill="#b1de19" fill-rule="evenodd"/>
    </g>
  </g>
</svg>
