<svg xmlns="http://www.w3.org/2000/svg" xmlns:xlink="http://www.w3.org/1999/xlink" width="228" height="89.256" viewBox="0 0 228 89.256">
  <defs>
    <filter id="Trazado_749353" x="0" y="29.901" width="228" height="59" filterUnits="userSpaceOnUse">
      <feOffset dy="3" input="SourceAlpha"/>
      <feGaussianBlur stdDeviation="3" result="blur"/>
      <feFlood flood-opacity="0.161"/>
      <feComposite operator="in" in2="blur"/>
      <feComposite in="SourceGraphic"/>
    </filter>
    <filter id="Trazado_502571" x="0" y="0" width="89.256" height="89.256" filterUnits="userSpaceOnUse">
      <feOffset dy="3" input="SourceAlpha"/>
      <feGaussianBlur stdDeviation="3" result="blur-2"/>
      <feFlood flood-opacity="0.161"/>
      <feComposite operator="in" in2="blur-2"/>
      <feComposite in="SourceGraphic"/>
    </filter>
  </defs>
  <g id="Grupo_1034311" data-name="Grupo 1034311" transform="translate(-210 -5125.744)">
    <g transform="matrix(1, 0, 0, 1, 210, 5125.74)" filter="url(#Trazado_749353)">
      <path id="Trazado_749353-2" data-name="Trazado 749353" d="M0,0H200a10,10,0,0,1,10,10V41H0Z" transform="translate(9 35.9)" fill="#fff"/>
    </g>
    <path id="Trazado_749354" data-name="Trazado 749354" d="M12.578,14.186a5.193,5.193,0,0,1-.8,2.622A4.833,4.833,0,0,1,9.722,18.57,7,7,0,0,1,6.7,19.2a5.584,5.584,0,0,1-4.414-1.826A7.54,7.54,0,0,1,.674,12.213v-.7A8.607,8.607,0,0,1,1.4,7.853,5.513,5.513,0,0,1,3.5,5.431,5.844,5.844,0,0,1,6.66,4.576a6.129,6.129,0,0,1,4.16,1.362,5.383,5.383,0,0,1,1.787,3.755H9.189a2.547,2.547,0,0,0-.654-1.865A2.691,2.691,0,0,0,6.66,7.262a2.048,2.048,0,0,0-1.875.957,6.151,6.151,0,0,0-.625,3.057v1.006a6.806,6.806,0,0,0,.571,3.252A2.091,2.091,0,0,0,6.7,16.51a2.632,2.632,0,0,0,1.807-.557,2.363,2.363,0,0,0,.664-1.768Zm1.055-.566a6.236,6.236,0,0,1,.615-2.817,4.4,4.4,0,0,1,1.768-1.9,5.323,5.323,0,0,1,2.705-.664,4.858,4.858,0,0,1,3.74,1.47,5.64,5.64,0,0,1,1.367,4v.117a5.472,5.472,0,0,1-1.372,3.921A4.871,4.871,0,0,1,18.74,19.2a4.927,4.927,0,0,1-3.623-1.353,5.29,5.29,0,0,1-1.475-3.667Zm3.291.205a3.932,3.932,0,0,0,.459,2.148,1.529,1.529,0,0,0,1.357.684q1.758,0,1.8-2.705v-.332q0-2.842-1.816-2.842-1.65,0-1.787,2.451ZM28.3,8.434l.107,1.24a3.583,3.583,0,0,1,3.018-1.436,3.015,3.015,0,0,1,2.466.986,4.7,4.7,0,0,1,.845,2.969V19h-3.3V12.33a1.783,1.783,0,0,0-.322-1.177,1.491,1.491,0,0,0-1.172-.376,1.569,1.569,0,0,0-1.436.762V19H25.215V8.434Zm12.471,6.65,1.67-6.65h3.467L42.461,19H39.1L35.654,8.434h3.477Zm11.1,4.111a5.432,5.432,0,0,1-3.936-1.45,5.008,5.008,0,0,1-1.5-3.774V13.7a6.489,6.489,0,0,1,.6-2.861,4.395,4.395,0,0,1,1.753-1.919,5.292,5.292,0,0,1,2.734-.679A4.574,4.574,0,0,1,55.039,9.62a5.43,5.43,0,0,1,1.289,3.853v1.279H49.785a2.372,2.372,0,0,0,.771,1.4,2.3,2.3,0,0,0,1.543.508,2.958,2.958,0,0,0,2.441-1.094l1.5,1.777A4.2,4.2,0,0,1,54.3,18.692,5.891,5.891,0,0,1,51.875,19.2ZM51.5,10.777q-1.445,0-1.719,1.914h3.32v-.254a1.63,1.63,0,0,0-.4-1.226A1.593,1.593,0,0,0,51.5,10.777Zm12.539.635-1.084-.078a1.947,1.947,0,0,0-1.992.977V19H57.676V8.434h3.086l.107,1.357a2.548,2.548,0,0,1,2.314-1.553,3.209,3.209,0,0,1,.918.117Zm5.508-5.605V8.434h1.738v2.285H69.551v4.834a1.234,1.234,0,0,0,.215.83,1.152,1.152,0,0,0,.85.234,4.828,4.828,0,0,0,.82-.059v2.354a6.074,6.074,0,0,1-1.855.283,3.448,3.448,0,0,1-2.51-.8,3.282,3.282,0,0,1-.811-2.432V10.719H64.912V8.434H66.26V5.807ZM76.055,19h-3.3V8.434h3.3Zm-3.5-13.291a1.469,1.469,0,0,1,.508-1.152,2.159,2.159,0,0,1,2.637,0,1.469,1.469,0,0,1,.508,1.152A1.469,1.469,0,0,1,75.7,6.861a2.159,2.159,0,0,1-2.637,0A1.469,1.469,0,0,1,72.559,5.709Zm11.914,5.7-1.084-.078a1.947,1.947,0,0,0-1.992.977V19H78.105V8.434h3.086L81.3,9.791a2.548,2.548,0,0,1,2.314-1.553,3.209,3.209,0,0,1,.918.117Z" transform="translate(327.94 5168.643)" fill="#12263f"/>
    <path id="Trazado_194609" data-name="Trazado 194609" d="M0,0,84.875,40H0Z" transform="translate(219 5162.643)" fill="#ffb338"/>
    <g id="tarea-completada" transform="translate(219 5131.744)">
      <path id="Trazado_203286" data-name="Trazado 203286" d="M0,20.438ZM4.438,16" transform="translate(13.875 -13.525)" fill="#cee4c6"/>
      <g transform="matrix(1, 0, 0, 1, -9, -6)" filter="url(#Trazado_502571)">
        <path id="Trazado_502571-2" data-name="Trazado 502571" d="M295.256,259.628A35.628,35.628,0,1,1,259.628,224,35.629,35.629,0,0,1,295.256,259.628Zm0,0" transform="translate(-215 -218)" fill="#cee4c6"/>
      </g>
    </g>
    <g id="Grupo_876987" data-name="Grupo 876987" transform="translate(233.104 5148.316)">
      <g id="Grupo_876986" data-name="Grupo 876986" transform="translate(0)">
        <path id="Trazado_621728" data-name="Trazado 621728" d="M3.492,48.481a.9.9,0,0,0,.717-.018L11.3,45.242a.911.911,0,0,0,.426-1.216.894.894,0,0,0-1.171-.436L5.588,45.85a17.525,17.525,0,0,1,33.484,1.107.906.906,0,0,0,1.751-.463A19.349,19.349,0,0,0,3.855,45.26L1.768,40.042a.912.912,0,0,0-1.143-.581A.912.912,0,0,0,.044,40.6a.558.558,0,0,0,.045.109l2.895,7.259A.9.9,0,0,0,3.492,48.481Z" transform="translate(0 -32.211)" stroke="#000" stroke-width="1"/>
        <path id="Trazado_621729" data-name="Trazado 621729" d="M73.067,296.1a.129.129,0,0,1-.018-.054l-2.895-7.259a.9.9,0,0,0-.508-.508.935.935,0,0,0-.717.018l-7.087,3.221a.909.909,0,0,0,.7,1.679l.054-.027,4.964-2.259a17.537,17.537,0,0,1-33.5-1.107.906.906,0,1,0-1.751.463A19.349,19.349,0,0,0,69.274,291.5l2.087,5.218a.907.907,0,1,0,1.706-.617Z" transform="translate(-29.53 -266.441)" stroke="#000" stroke-width="1"/>
      </g>
    </g>
  </g>
</svg>
