<svg id="Grupo_877175" data-name="Grupo 877175" xmlns="http://www.w3.org/2000/svg" xmlns:xlink="http://www.w3.org/1999/xlink" width="505" height="298.198" viewBox="0 0 505 298.198">
  <defs>
    <clipPath id="clip-path">
      <rect id="Rectángulo_327326" data-name="Rectángulo 327326" width="505" height="298.199" fill="none"/>
    </clipPath>
    <clipPath id="clip-path-7">
      <rect id="Rectángulo_327274" data-name="Rectángulo 327274" width="46.997" height="39.341" fill="none"/>
    </clipPath>
    <clipPath id="clip-path-8">
      <rect id="Rectángulo_327275" data-name="Rectángulo 327275" width="30.121" height="23.759" fill="none"/>
    </clipPath>
    <clipPath id="clip-path-10">
      <rect id="Rectángulo_327290" data-name="Rectángulo 327290" width="4.997" height="24.16" fill="#ffb338"/>
    </clipPath>
    <clipPath id="clip-path-11">
      <rect id="Rectángulo_327292" data-name="Rectángulo 327292" width="4.996" height="35.173" fill="#ffb338"/>
    </clipPath>
    <clipPath id="clip-path-12">
      <rect id="Rectángulo_327294" data-name="Rectángulo 327294" width="4.996" height="18.824" fill="#ffb338"/>
    </clipPath>
    <clipPath id="clip-path-13">
      <rect id="Rectángulo_327296" data-name="Rectángulo 327296" width="4.996" height="26.912" fill="#ffb338"/>
    </clipPath>
    <clipPath id="clip-path-14">
      <rect id="Rectángulo_327298" data-name="Rectángulo 327298" width="4.996" height="21.557" fill="#ffb338"/>
    </clipPath>
    <clipPath id="clip-path-20">
      <rect id="Rectángulo_327323" data-name="Rectángulo 327323" width="18.144" height="17.118" fill="none"/>
    </clipPath>
    <clipPath id="clip-path-21">
      <rect id="Rectángulo_327324" data-name="Rectángulo 327324" width="9.953" height="12.701" fill="none"/>
    </clipPath>
  </defs>
  <g id="Grupo_877174" data-name="Grupo 877174" clip-path="url(#clip-path)">
    <g id="Grupo_877126" data-name="Grupo 877126">
      <g id="Grupo_877125" data-name="Grupo 877125" clip-path="url(#clip-path)">
        <path id="Trazado_622103" data-name="Trazado 622103" d="M119.2,238.495a22.206,22.206,0,0,1,5.42-2.355l1.116-5.365,9.063-.159,1.3,5.321a22.192,22.192,0,0,1,5.5,2.163l4.581-3,6.522,6.3-2.839,4.682a22.226,22.226,0,0,1,2.355,5.421l5.364,1.116.159,9.063-5.321,1.3a22.193,22.193,0,0,1-2.163,5.5l3,4.581-6.3,6.522-4.683-2.839a22.21,22.21,0,0,1-5.42,2.355l-1.116,5.365-9.063.159-1.3-5.322a22.255,22.255,0,0,1-5.5-2.163l-4.581,3-6.521-6.3,2.839-4.683a22.2,22.2,0,0,1-2.355-5.42l-5.364-1.116-.159-9.063,5.322-1.3a22.254,22.254,0,0,1,2.163-5.5l-3-4.581,6.3-6.522Zm4.831,12.074a9.724,9.724,0,1,0,13.75-.242,9.725,9.725,0,0,0-13.75.242" transform="translate(-35.696 -79.354)" fill="#ebebeb"/>
        <path id="Trazado_622104" data-name="Trazado 622104" d="M9.81,52.879a14.073,14.073,0,0,1,3.438-1.494l.708-3.4,5.75-.1.828,3.376a14.094,14.094,0,0,1,3.489,1.373l2.906-1.9,4.137,3.994-1.8,2.971a14.088,14.088,0,0,1,1.494,3.439l3.4.708.1,5.75-3.376.828A14.1,14.1,0,0,1,29.514,71.9l1.9,2.906-3.994,4.137-2.971-1.8a14.089,14.089,0,0,1-3.439,1.494l-.708,3.4-5.75.1-.828-3.377a14.1,14.1,0,0,1-3.488-1.372L7.334,79.3,3.2,75.3,5,72.333A14.063,14.063,0,0,1,3.5,68.894L.1,68.186,0,62.436l3.377-.828a14.078,14.078,0,0,1,1.372-3.488l-1.9-2.906,3.994-4.137Zm3.065,7.66a6.169,6.169,0,1,0,8.723-.153,6.168,6.168,0,0,0-8.723.153" transform="translate(0 -16.475)" fill="#e0e0e0"/>
        <path id="Trazado_622105" data-name="Trazado 622105" d="M712.83,68.821a18.955,18.955,0,0,1,4.627-2.011l.953-4.58,7.739-.136,1.113,4.543a18.952,18.952,0,0,1,4.7,1.848l3.911-2.564,5.568,5.376-2.424,4a18.982,18.982,0,0,1,2.011,4.629l4.579.953.136,7.739L741.2,89.73a18.954,18.954,0,0,1-1.847,4.695l2.563,3.912-5.376,5.568-4-2.424a18.968,18.968,0,0,1-4.628,2.011l-.954,4.58-7.738.136-1.114-4.544a18.992,18.992,0,0,1-4.7-1.847l-3.911,2.563L703.93,99l2.424-4a18.945,18.945,0,0,1-2.011-4.628l-4.58-.953-.136-7.739,4.544-1.114a18.961,18.961,0,0,1,1.847-4.7l-2.564-3.911L708.83,66.4Zm4.125,10.309a8.3,8.3,0,1,0,11.74-.207,8.3,8.3,0,0,0-11.74.207" transform="translate(-240.74 -21.366)" fill="#e0e0e0"/>
        <path id="Trazado_622106" data-name="Trazado 622106" d="M497.75,256.842a16.391,16.391,0,0,1,4-1.737l.824-3.958,6.687-.117.962,3.926a16.393,16.393,0,0,1,4.057,1.6l3.379-2.215,4.811,4.645-2.094,3.455a16.378,16.378,0,0,1,1.737,4l3.957.823.117,6.687-3.926.962a16.4,16.4,0,0,1-1.6,4.057l2.215,3.38-4.645,4.811-3.455-2.095a16.376,16.376,0,0,1-4,1.738l-.824,3.958-6.686.117-.962-3.926a16.407,16.407,0,0,1-4.057-1.6l-3.379,2.215-4.811-4.645,2.094-3.455a16.378,16.378,0,0,1-1.737-4l-3.958-.824-.117-6.686,3.926-.963a16.406,16.406,0,0,1,1.6-4.057l-2.215-3.379,4.644-4.812Zm3.564,8.908a7.174,7.174,0,1,0,10.144-.178,7.174,7.174,0,0,0-10.144.178" transform="translate(-167.349 -86.379)" fill="#f5f5f5"/>
        <path id="Trazado_622107" data-name="Trazado 622107" d="M739.99,31.762a7.477,7.477,0,0,1,1.827-.794l.377-1.808,3.055-.054.439,1.794a7.469,7.469,0,0,1,1.854.729l1.544-1.011,2.2,2.122-.957,1.578a7.48,7.48,0,0,1,.794,1.827l1.808.376.054,3.055-1.793.44a7.5,7.5,0,0,1-.729,1.853l1.012,1.544-2.122,2.2-1.579-.957a7.465,7.465,0,0,1-1.827.794l-.376,1.808-3.055.054-.439-1.794a7.5,7.5,0,0,1-1.854-.729L738.676,45.8l-2.2-2.122.957-1.578a7.5,7.5,0,0,1-.794-1.827l-1.808-.376-.054-3.055,1.794-.44a7.484,7.484,0,0,1,.729-1.853L736.29,33l2.122-2.2Zm1.629,4.069a3.277,3.277,0,1,0,4.634-.081,3.277,3.277,0,0,0-4.634.081" transform="translate(-252.836 -10.015)" fill="#e0e0e0"/>
        <path id="Trazado_622108" data-name="Trazado 622108" d="M704.711,176.921a7.472,7.472,0,0,1,1.827-.794l.377-1.808,3.055-.054.439,1.794a7.467,7.467,0,0,1,1.854.729l1.544-1.011L716,177.9l-.957,1.578a7.482,7.482,0,0,1,.794,1.827l1.808.376.054,3.055-1.793.44a7.483,7.483,0,0,1-.729,1.853l1.012,1.544-2.122,2.2-1.579-.957a7.437,7.437,0,0,1-1.827.794l-.376,1.808-3.055.054-.44-1.794a7.472,7.472,0,0,1-1.853-.729l-1.543,1.012-2.2-2.122.957-1.578a7.488,7.488,0,0,1-.794-1.827l-1.808-.376L699.5,182l1.794-.44a7.479,7.479,0,0,1,.729-1.853l-1.012-1.544,2.122-2.2Zm1.629,4.069a3.277,3.277,0,1,0,4.634-.081,3.278,3.278,0,0,0-4.634.081" transform="translate(-240.697 -59.964)" fill="#f5f5f5"/>
        <path id="Trazado_622109" data-name="Trazado 622109" d="M229.928,353.824a10.148,10.148,0,0,1,2.477-1.077l.51-2.452,4.143-.073.6,2.433a10.135,10.135,0,0,1,2.513.988l2.094-1.372,2.98,2.878-1.3,2.14a10.146,10.146,0,0,1,1.076,2.478l2.452.51.073,4.143-2.433.6a10.157,10.157,0,0,1-.988,2.513l1.372,2.094-2.878,2.98-2.14-1.3A10.177,10.177,0,0,1,238,372.385l-.511,2.452-4.142.073-.6-2.433a10.16,10.16,0,0,1-2.513-.988l-2.094,1.372-2.981-2.878,1.3-2.14a10.161,10.161,0,0,1-1.077-2.478l-2.452-.51-.073-4.143,2.433-.6a10.161,10.161,0,0,1,.989-2.513l-1.373-2.094,2.878-2.981Zm2.208,5.519a4.445,4.445,0,1,0,6.285-.111,4.445,4.445,0,0,0-6.285.111" transform="translate(-76.686 -120.511)" fill="#f5f5f5"/>
      </g>
    </g>
    <g id="Grupo_877128" data-name="Grupo 877128">
      <g id="Grupo_877127" data-name="Grupo 877127" clip-path="url(#clip-path)">
        <path id="Trazado_622110" data-name="Trazado 622110" d="M519.937,454.29c0,.094-97.036.171-216.709.171-119.715,0-216.73-.076-216.73-.171s97.016-.171,216.73-.171c119.673,0,216.709.076,216.709.171" transform="translate(-29.764 -156.261)" fill="#263238"/>
      </g>
    </g>
    <g id="Grupo_877130" data-name="Grupo 877130">
      <g id="Grupo_877129" data-name="Grupo 877129" clip-path="url(#clip-path)">
        <path id="Trazado_622111" data-name="Trazado 622111" d="M145.419,413.042a35.937,35.937,0,1,1,25.313-20.964,35.755,35.755,0,0,1-25.313,20.964M130.445,345.2a33.518,33.518,0,1,0,20.414,1.9,33.527,33.527,0,0,0-20.414-1.9" transform="translate(-34.995 -117.679)" fill="#455a64"/>
        <path id="Trazado_622112" data-name="Trazado 622112" d="M145.419,413.042a35.937,35.937,0,1,1,25.313-20.964,35.755,35.755,0,0,1-25.313,20.964M130.445,345.2a33.518,33.518,0,1,0,20.414,1.9,33.527,33.527,0,0,0-20.414-1.9" transform="translate(-34.995 -117.679)" fill="#263238"/>
        <path id="Trazado_622113" data-name="Trazado 622113" d="M143.546,415.336a35.937,35.937,0,1,1,25.313-20.964,35.755,35.755,0,0,1-25.313,20.964M128.572,347.5a33.518,33.518,0,1,0,20.414,1.9,33.529,33.529,0,0,0-20.414-1.9" transform="translate(-34.35 -118.469)" fill="#455a64"/>
        <path id="Trazado_622114" data-name="Trazado 622114" d="M261.876,435.95l-.578,1.484c-.516,1.323-2.818,1.669-4.243,1.107l-53.831-20.957,2.711-6.964,53.751,20.926a3.6,3.6,0,0,1,2.19,4.4" transform="translate(-69.929 -141.294)" fill="#455a64"/>
        <path id="Trazado_622115" data-name="Trazado 622115" d="M162.787,378.324c.059.073-6.775,5.708-15.263,12.583S132.1,403.3,132.045,403.226s6.773-5.707,15.264-12.585,15.419-12.391,15.478-12.318" transform="translate(-45.436 -130.18)" fill="#263238"/>
        <path id="Trazado_622116" data-name="Trazado 622116" d="M152.749,375.147c.06.073-4.993,4.373-11.286,9.6s-11.445,9.415-11.506,9.342,4.992-4.372,11.287-9.6,11.444-9.414,11.5-9.341" transform="translate(-44.718 -129.087)" fill="#263238"/>
        <path id="Trazado_622117" data-name="Trazado 622117" d="M169.542,395.057c.06.073-3.4,3.047-7.725,6.643s-7.883,6.454-7.944,6.381,3.4-3.047,7.725-6.644,7.883-6.453,7.943-6.381" transform="translate(-52.947 -135.938)" fill="#263238"/>
      </g>
    </g>
    <g id="Grupo_877132" data-name="Grupo 877132">
      <g id="Grupo_877131" data-name="Grupo 877131" clip-path="url(#clip-path)">
        <path id="Trazado_622118" data-name="Trazado 622118" d="M684.012,218.415a24.695,24.695,0,1,1-25.088-24.407,24.784,24.784,0,0,1,25.088,24.407m-36.5.589a11.808,11.808,0,1,0,11.616-12.051A11.846,11.846,0,0,0,647.515,219" transform="translate(-218.374 -66.757)" fill="#f5f5f5"/>
        <path id="Trazado_622119" data-name="Trazado 622119" d="M696.76,218.415a24.784,24.784,0,0,1-24.295,25.2l-.207-12.945a11.862,11.862,0,0,0-.379-23.721l-.207-12.945a24.776,24.776,0,0,1,25.088,24.407" transform="translate(-231.121 -66.757)" fill="#455a64"/>
        <path id="Trazado_622120" data-name="Trazado 622120" d="M654.271,225.726a.769.769,0,0,1-.01-.191c0-.147,0-.333,0-.565a5.485,5.485,0,0,1,.062-.916,8.349,8.349,0,0,1,.2-1.238,11.255,11.255,0,0,1,1.229-3.208,11.838,11.838,0,0,1,14.221-5.421,11.184,11.184,0,0,1,3.058,1.587,13.154,13.154,0,0,1,1.377,1.137,13.414,13.414,0,0,1,1.2,1.373,11.969,11.969,0,0,1,.228,14.19,11.052,11.052,0,0,1-2.491,2.592,11.212,11.212,0,0,1-3.006,1.685,11.874,11.874,0,0,1-14.388-4.959,11.25,11.25,0,0,1-1.33-3.167,8.44,8.44,0,0,1-.245-1.23,5.507,5.507,0,0,1-.091-.914c-.008-.232-.015-.417-.02-.563a.805.805,0,0,1,0-.192,18.567,18.567,0,0,0,.479,2.865,11.367,11.367,0,0,0,1.364,3.1,11.774,11.774,0,0,0,3.034,3.278,11.575,11.575,0,0,0,11.078,1.488,10.9,10.9,0,0,0,2.92-1.649,10.8,10.8,0,0,0,2.417-2.527,11.665,11.665,0,0,0-.222-13.8,13.212,13.212,0,0,0-1.16-1.337,12.987,12.987,0,0,0-1.337-1.11,10.9,10.9,0,0,0-2.971-1.554,11.574,11.574,0,0,0-11.023,1.846,11.777,11.777,0,0,0-2.928,3.373,11.373,11.373,0,0,0-1.265,3.144,18.58,18.58,0,0,0-.388,2.879" transform="translate(-225.13 -73.478)" fill="#263238"/>
        <path id="Trazado_622121" data-name="Trazado 622121" d="M683.925,218.344s-.021-.135-.044-.4-.054-.666-.1-1.173q-.03-.389-.066-.864c-.038-.316-.112-.659-.173-1.031a18.033,18.033,0,0,0-.555-2.544,23.736,23.736,0,0,0-2.835-6.522,24.658,24.658,0,0,0-6.357-6.9,24.383,24.383,0,0,0-10.416-4.459,22.894,22.894,0,0,0-3.116-.313c-.531-.01-1.066-.053-1.6-.035l-1.626.111c-.272.024-.548.025-.82.068l-.818.14c-.546.1-1.1.172-1.649.3a25.649,25.649,0,0,0-3.26,1.023,25.94,25.94,0,0,0-3.179,1.471c-.51.3-1,.63-1.512.945a12.835,12.835,0,0,0-1.462,1.052,27.279,27.279,0,0,0-2.74,2.426l-1.224,1.4-.308.352-.274.38-.549.763-.552.767-.479.818-.479.823-.241.413-.2.434q-.4.87-.8,1.747l-.635,1.832a24.437,24.437,0,0,0,.247,15.51l.693,1.811.86,1.722.214.428.254.4.506.807.5.8.577.748.573.745.286.372.319.342,1.269,1.359a27.319,27.319,0,0,0,2.817,2.336,12.735,12.735,0,0,0,1.5,1c.518.3,1.022.617,1.542.9a26.8,26.8,0,0,0,6.517,2.285c.552.109,1.11.162,1.658.245l.822.114c.273.033.55.026.823.041l1.629.058c.539,0,1.072-.061,1.6-.088a22.951,22.951,0,0,0,3.1-.413,24.406,24.406,0,0,0,10.266-4.8,24.652,24.652,0,0,0,6.131-7.106,23.729,23.729,0,0,0,2.625-6.609,17.968,17.968,0,0,0,.473-2.561c.05-.374.112-.718.14-1.035s.026-.606.038-.866c.025-.508.044-.9.057-1.175s.031-.4.031-.4.007.136,0,.4-.014.67-.024,1.179q-.01.391-.022.869c-.023.319-.08.665-.125,1.042a17.768,17.768,0,0,1-.444,2.578,23.6,23.6,0,0,1-2.589,6.673,24.88,24.88,0,0,1-16.506,12.084,23.024,23.024,0,0,1-3.139.427c-.536.029-1.076.091-1.621.093l-1.648-.055c-.277-.014-.556-.007-.833-.04l-.832-.113c-.556-.083-1.121-.136-1.679-.245a27.086,27.086,0,0,1-6.606-2.3c-.528-.282-1.039-.6-1.564-.905a13.056,13.056,0,0,1-1.517-1.015,27.482,27.482,0,0,1-2.857-2.365l-1.288-1.376-.323-.346-.291-.376-.582-.754-.584-.758-.513-.813-.513-.818-.258-.411-.218-.433-.873-1.745-.7-1.835a24.753,24.753,0,0,1-.25-15.724l.645-1.857.817-1.771.2-.44.244-.418.487-.833.487-.829.56-.777.557-.773.278-.385.312-.356,1.242-1.416a27.76,27.76,0,0,1,2.78-2.454,13.168,13.168,0,0,1,1.483-1.064c.515-.319,1.015-.656,1.533-.955a26.153,26.153,0,0,1,3.222-1.484,25.834,25.834,0,0,1,3.3-1.03c.555-.128,1.118-.2,1.671-.3l.828-.14c.275-.043.555-.043.83-.067l1.646-.108c.544-.016,1.086.029,1.623.04a23.073,23.073,0,0,1,3.151.325A24.868,24.868,0,0,1,680.32,205.71a23.6,23.6,0,0,1,2.8,6.587,17.723,17.723,0,0,1,.527,2.563c.056.375.125.719.157,1.037s.035.608.05.868c.026.508.046.9.061,1.177s.009.4.009.4" transform="translate(-218.286 -66.685)" fill="#263238"/>
        <path id="Trazado_622122" data-name="Trazado 622122" d="M661.1,257.81a28.215,28.215,0,0,1-28.89-28.107l15.075-.243c.123,7.651,5.944,12.468,13.56,12.345Z" transform="translate(-217.544 -78.957)" fill="#eb6f2d"/>
        <path id="Trazado_622123" data-name="Trazado 622123" d="M661.013,257.722a2.771,2.771,0,0,1-.018-.3c-.007-.208-.016-.487-.027-.844-.02-.755-.048-1.833-.083-3.209-.061-2.782-.148-6.764-.254-11.652l.129.125a16.822,16.822,0,0,1-4.536-.555,12.959,12.959,0,0,1-4.494-2.189,11.69,11.69,0,0,1-3.409-4.159,13.135,13.135,0,0,1-1.288-5.567l.168.163-11.673.193-3.4.054.167-.173a31.609,31.609,0,0,0,1.536,8.916l.763,2.035c.284.657.62,1.284.923,1.917a14.758,14.758,0,0,0,1.027,1.808,16.715,16.715,0,0,0,1.116,1.7l1.2,1.575c.421.5.874.953,1.3,1.421l.641.69.694.615,1.356,1.2a29.012,29.012,0,0,0,5.592,3.449l1.335.618c.445.172.889.314,1.315.466l1.244.434c.405.129.812.2,1.2.3l1.12.271.529.129c.174.033.348.051.517.076l1.846.26a11.489,11.489,0,0,0,1.469.117l1.083.056.675.038a2.139,2.139,0,0,1,.239.02,1.453,1.453,0,0,1-.216,0l-.664-.006-1.1-.016a10.756,10.756,0,0,1-1.5-.087l-1.859-.232c-.17-.024-.344-.04-.521-.07l-.533-.122-1.131-.26c-.389-.1-.8-.169-1.209-.294l-1.257-.424c-.43-.15-.879-.289-1.329-.459l-1.351-.612a28.939,28.939,0,0,1-5.665-3.446l-1.376-1.2-.7-.618-.652-.694c-.432-.471-.891-.931-1.319-1.431l-1.22-1.588a17.09,17.09,0,0,1-1.134-1.711,15,15,0,0,1-1.044-1.826c-.308-.639-.649-1.273-.938-1.938l-.777-2.056a31.8,31.8,0,0,1-1.564-9.015l0-.171.172,0,3.4-.055,11.673-.184.166,0,0,.166a12.83,12.83,0,0,0,1.244,5.433,11.4,11.4,0,0,0,3.305,4.059,12.713,12.713,0,0,0,4.385,2.159,16.639,16.639,0,0,0,4.457.571h.127v.125c.05,4.922.091,8.931.12,11.731.008,1.365.014,2.434.019,3.182,0,.347,0,.619,0,.821a2,2,0,0,1-.009.272" transform="translate(-217.452 -78.869)" fill="#263238"/>
      </g>
    </g>
    <rect id="Rectángulo_327271" data-name="Rectángulo 327271" width="130.687" height="97.693" transform="translate(327.729 11.795)" fill="#fff"/>
    <rect id="Rectángulo_327272" data-name="Rectángulo 327272" width="130.687" height="12.075" transform="translate(327.729 11.795)" fill="#e0e0e0"/>
    <g id="Grupo_877140" data-name="Grupo 877140">
      <g id="Grupo_877139" data-name="Grupo 877139" clip-path="url(#clip-path)">
        <path id="Trazado_622124" data-name="Trazado 622124" d="M511.4,26.275a1.74,1.74,0,1,1-1.74-1.74,1.74,1.74,0,0,1,1.74,1.74" transform="translate(-174.772 -8.442)" fill="#fff"/>
        <path id="Trazado_622125" data-name="Trazado 622125" d="M520.341,26.275a1.74,1.74,0,1,1-1.74-1.74,1.74,1.74,0,0,1,1.74,1.74" transform="translate(-177.85 -8.442)" fill="#fff"/>
        <path id="Trazado_622126" data-name="Trazado 622126" d="M529.287,26.275a1.74,1.74,0,1,1-1.74-1.74,1.74,1.74,0,0,1,1.74,1.74" transform="translate(-180.929 -8.442)" fill="#fff"/>
        <path id="Trazado_622127" data-name="Trazado 622127" d="M630.259,115.586s-.011-.613-.016-1.787-.009-2.916-.016-5.188c-.008-4.545-.02-11.215-.035-19.733-.018-17.023-.043-41.429-.073-70.985l.14.14-130.677.031h-.01l.171-.171c-.006,35.11-.012,68.367-.016,97.693l-.155-.154,94.334.077,26.79.041,7.106.019,1.831.009c.412,0,.626.009.626.009s-.2.006-.608.009l-1.814.009-7.075.018-26.755.041-94.435.077h-.154v-.154c-.005-29.326-.01-62.583-.016-97.693v-.171h.181l130.677.031h.14v.14c-.03,29.592-.055,54.029-.073,71.073-.015,8.5-.027,15.164-.035,19.7-.007,2.26-.012,3.99-.016,5.161s-.014,1.757-.014,1.757" transform="translate(-171.843 -6.098)" fill="#263238"/>
        <path id="Trazado_622128" data-name="Trazado 622128" d="M626.989,107.656c0,.094-26.008.171-58.083.171s-58.088-.076-58.088-.171,26-.171,58.088-.171,58.083.076,58.083.171" transform="translate(-175.771 -36.985)" fill="#e0e0e0"/>
        <path id="Trazado_622129" data-name="Trazado 622129" d="M626.989,92.365c0,.1-26.008.171-58.083.171s-58.088-.076-58.088-.171,26-.17,58.088-.17,58.083.076,58.083.17" transform="translate(-175.771 -31.724)" fill="#e0e0e0"/>
        <path id="Trazado_622130" data-name="Trazado 622130" d="M626.989,77.075c0,.094-26.008.171-58.083.171s-58.088-.076-58.088-.171,26-.171,58.088-.171,58.083.076,58.083.171" transform="translate(-175.771 -26.462)" fill="#e0e0e0"/>
        <path id="Trazado_622131" data-name="Trazado 622131" d="M626.989,61.785c0,.094-26.008.171-58.083.171s-58.088-.076-58.088-.171,26-.171,58.088-.171,58.083.076,58.083.171" transform="translate(-175.771 -21.201)" fill="#e0e0e0"/>
        <path id="Trazado_622132" data-name="Trazado 622132" d="M618.739,88.907c-2.264-5.464-3.816-11.434-5.553-17.093-1.511-4.926-1.652-7.228-2.948-11.389-2.043-6.554-7.45-7.281-11.381-5.5-3.5,1.583-5.015,5.7-6.177,9.407l-4.171,13.294a23.55,23.55,0,0,1-2.544,6.061,7.781,7.781,0,0,1-5.21,3.632c-3.552.468-6.734-2.506-8.253-5.795s-1.939-7-3.3-10.359-4.152-6.585-7.734-6.65c-4.41-.08-7.407,4.421-9.241,8.488a97.013,97.013,0,0,0-5.561,15.9,21.616,21.616,0,0,1-1.847,5.42,6.228,6.228,0,0,1-4.388,3.314c-2.422.3-4.669-1.429-6.078-3.447s-2.275-4.39-3.716-6.385-3.765-3.65-6.169-3.231c-2.159.377-3.7,2.269-4.98,4.073a95.424,95.424,0,0,0-8.922,15.53H630.73c-5.535-1.906-9.727-9.8-11.991-15.265" transform="translate(-175.685 -18.612)" fill="#eb6f2d"/>
        <rect id="Rectángulo_327273" data-name="Rectángulo 327273" width="5.674" height="5.674" transform="translate(362.969 93.43)" fill="#ff725e"/>
        <path id="Trazado_622133" data-name="Trazado 622133" d="M600.281,146.086H570.689a.652.652,0,0,1,0-1.3h29.592a.652.652,0,1,1,0,1.3" transform="translate(-196.149 -49.819)" fill="#263238"/>
        <path id="Trazado_622134" data-name="Trazado 622134" d="M625.434,102.9s-.146.012-.432.018l-1.269.016-4.879.032-17.943.054-59.2.05-31.227-.012h-.159V102.9c.025-15.4.047-28.518.062-37.8.019-4.629.035-8.3.045-10.828.01-1.249.019-2.214.025-2.879.006-.319.01-.563.013-.741s.013-.251.013-.251.009.085.014.251.007.422.012.741c.006.666.014,1.63.026,2.879.01,2.527.026,6.2.045,10.828.015,9.286.036,22.409.062,37.8l-.159-.159,31.227-.012,59.2.05,17.943.054,4.879.031,1.269.017c.286.006.432.018.432.018" transform="translate(-175.602 -17.342)" fill="#263238"/>
        <g id="Grupo_877135" data-name="Grupo 877135" transform="translate(393.072 46.219)" opacity="0.3">
          <g id="Grupo_877134" data-name="Grupo 877134">
            <g id="Grupo_877133" data-name="Grupo 877133" clip-path="url(#clip-path-7)">
              <path id="Trazado_622135" data-name="Trazado 622135" d="M641.932,70.467l-42.647,39.341h21.323l25.674-23.768Z" transform="translate(-599.285 -70.467)" fill="#fff"/>
            </g>
          </g>
        </g>
        <g id="Grupo_877138" data-name="Grupo 877138" transform="translate(368.643 61.802)" opacity="0.3">
          <g id="Grupo_877137" data-name="Grupo 877137">
            <g id="Grupo_877136" data-name="Grupo 877136" clip-path="url(#clip-path-8)">
              <path id="Trazado_622136" data-name="Trazado 622136" d="M591.545,97.559l-23.462,20.423H562.04l27.707-23.759,2.414,4.089" transform="translate(-562.04 -94.224)" fill="#fff"/>
            </g>
          </g>
        </g>
        <path id="Trazado_622137" data-name="Trazado 622137" d="M510.568,104.1a75.714,75.714,0,0,1,3.946-7.845,89.19,89.19,0,0,1,5.581-8.668,11.024,11.024,0,0,1,2.191-2.239,4.974,4.974,0,0,1,3.162-1.017,6.021,6.021,0,0,1,3.285,1.28,10.157,10.157,0,0,1,2.49,2.765c1.386,2.128,2.27,4.7,4.106,6.741a7.255,7.255,0,0,0,3.443,2.2,4.529,4.529,0,0,0,2.086.026,5.029,5.029,0,0,0,1.92-.929,8.162,8.162,0,0,0,2.556-3.582,37.321,37.321,0,0,0,1.3-4.472,96.668,96.668,0,0,1,2.924-9.331q.869-2.355,1.887-4.719a33.625,33.625,0,0,1,2.331-4.66,13.829,13.829,0,0,1,3.534-3.991,7.324,7.324,0,0,1,2.466-1.185,6.554,6.554,0,0,1,2.764-.08,8.247,8.247,0,0,1,4.64,2.964,14.749,14.749,0,0,1,2.653,4.954c.6,1.793,1.019,3.644,1.54,5.468a18.6,18.6,0,0,0,2.2,5.23,9.585,9.585,0,0,0,4.2,3.654,5.783,5.783,0,0,0,5.29-.431,9.694,9.694,0,0,0,3.554-4.1A34.956,34.956,0,0,0,588.5,77l3.21-10.218c.533-1.665,1.015-3.329,1.609-4.944a17.539,17.539,0,0,1,2.334-4.538,8.606,8.606,0,0,1,1.781-1.792,8.291,8.291,0,0,1,2.22-1.14,9.8,9.8,0,0,1,2.411-.485,8.853,8.853,0,0,1,2.421.2,7.417,7.417,0,0,1,3.951,2.527,11.631,11.631,0,0,1,2.044,4.074c.88,2.854,1.359,5.7,2.067,8.354.343,1.334.743,2.622,1.125,3.89l1.1,3.723a113.965,113.965,0,0,0,4.372,12.9,44.483,44.483,0,0,0,4.974,8.973,18.349,18.349,0,0,0,4.589,4.544,10.656,10.656,0,0,0,1.491.787c.35.151.526.238.526.238s-.184-.064-.539-.206a9.81,9.81,0,0,1-1.514-.761,18.115,18.115,0,0,1-4.659-4.523,44.083,44.083,0,0,1-5.043-8.977,112.694,112.694,0,0,1-4.429-12.91Q614,74.9,613.436,73c-.384-1.264-.79-2.559-1.137-3.9-.718-2.672-1.2-5.507-2.083-8.338a11.35,11.35,0,0,0-2-3.97,7.115,7.115,0,0,0-3.8-2.422,8.521,8.521,0,0,0-2.33-.19,9.516,9.516,0,0,0-2.331.473,7.778,7.778,0,0,0-3.85,2.831,17.248,17.248,0,0,0-2.284,4.458c-.586,1.6-1.067,3.264-1.6,4.931l-3.2,10.22a35.191,35.191,0,0,1-1.905,5.186,10.025,10.025,0,0,1-3.681,4.236,6.1,6.1,0,0,1-5.594.456,9.915,9.915,0,0,1-4.355-3.781,18.892,18.892,0,0,1-2.243-5.325c-.525-1.837-.939-3.684-1.534-5.454a14.4,14.4,0,0,0-2.59-4.845,7.918,7.918,0,0,0-4.444-2.853,6.229,6.229,0,0,0-2.619.074,7,7,0,0,0-2.355,1.131,13.529,13.529,0,0,0-3.449,3.9,33.35,33.35,0,0,0-2.313,4.614q-1.016,2.352-1.886,4.7a96.6,96.6,0,0,0-2.929,9.3,37.645,37.645,0,0,1-1.319,4.505,8.453,8.453,0,0,1-2.656,3.7,5.3,5.3,0,0,1-2.029.975,4.8,4.8,0,0,1-2.214-.031,7.515,7.515,0,0,1-3.571-2.285c-1.88-2.105-2.752-4.687-4.116-6.789a9.93,9.93,0,0,0-2.423-2.712,5.808,5.808,0,0,0-3.158-1.247,4.768,4.768,0,0,0-3.033.966,10.862,10.862,0,0,0-2.16,2.189,91.267,91.267,0,0,0-5.616,8.617c-1.412,2.448-2.4,4.408-3.064,5.74q-.483,1-.739,1.524c-.166.344-.258.516-.258.516" transform="translate(-175.685 -18.535)" fill="#263238"/>
      </g>
    </g>
    <rect id="Rectángulo_327277" data-name="Rectángulo 327277" width="117.557" height="70.662" transform="translate(101.806 137.878)" fill="#fff"/>
    <rect id="Rectángulo_327278" data-name="Rectángulo 327278" width="117.557" height="10.862" transform="translate(101.806 137.878)" fill="#e0e0e0"/>
    <g id="Grupo_877157" data-name="Grupo 877157">
      <g id="Grupo_877156" data-name="Grupo 877156" clip-path="url(#clip-path)">
        <path id="Trazado_622138" data-name="Trazado 622138" d="M165.77,217.672a1.566,1.566,0,1,1-1.566-1.566,1.566,1.566,0,0,1,1.566,1.566" transform="translate(-55.964 -74.362)" fill="#fff"/>
        <path id="Trazado_622139" data-name="Trazado 622139" d="M173.817,217.672a1.566,1.566,0,1,1-1.566-1.566,1.566,1.566,0,0,1,1.566,1.566" transform="translate(-58.733 -74.362)" fill="#fff"/>
        <path id="Trazado_622140" data-name="Trazado 622140" d="M181.864,217.672a1.566,1.566,0,1,1-1.566-1.566,1.566,1.566,0,0,1,1.566,1.566" transform="translate(-61.502 -74.362)" fill="#fff"/>
        <path id="Trazado_622141" data-name="Trazado 622141" d="M272.683,280.785s-.009-.437-.014-1.274-.008-2.081-.014-3.7c-.008-3.249-.019-8.026-.033-14.154-.017-12.248-.041-29.9-.071-51.532l.133.133-117.548.037h-.009l.171-.171c0,25.032-.009,48.922-.012,70.662l-.158-.158,84.6.077,24.259.043,6.461.019,1.669.01c.375,0,.571.009.571.009s-.184.007-.553.009l-1.65.01-6.428.019-24.222.043-84.7.077h-.159v-.159c0-21.741-.008-45.63-.012-70.662v-.171h.18l117.548.037h.133v.133c-.03,21.669-.054,39.346-.071,51.614-.014,6.116-.026,10.881-.033,14.124-.007,1.612-.011,2.843-.014,3.678s-.014,1.246-.014,1.246" transform="translate(-53.319 -72.244)" fill="#263238"/>
        <rect id="Rectángulo_327279" data-name="Rectángulo 327279" width="4.996" height="36.586" transform="translate(114.683 160.641)" fill="#eb6f2d"/>
        <rect id="Rectángulo_327280" data-name="Rectángulo 327280" width="4.996" height="24.16" transform="translate(124.328 173.066)" fill="#ff725e"/>
        <rect id="Rectángulo_327281" data-name="Rectángulo 327281" width="4.996" height="32.224" transform="translate(133.973 165.188)" fill="#eb6f2d"/>
        <rect id="Rectángulo_327282" data-name="Rectángulo 327282" width="4.996" height="35.173" transform="translate(143.618 162.053)" fill="#ff725e"/>
        <rect id="Rectángulo_327283" data-name="Rectángulo 327283" width="4.996" height="23.416" transform="translate(153.264 173.81)" fill="#eb6f2d"/>
        <rect id="Rectángulo_327284" data-name="Rectángulo 327284" width="4.996" height="18.824" transform="translate(162.909 178.403)" fill="#ff725e"/>
        <rect id="Rectángulo_327285" data-name="Rectángulo 327285" width="4.996" height="32.831" transform="translate(172.554 164.396)" fill="#eb6f2d"/>
        <rect id="Rectángulo_327286" data-name="Rectángulo 327286" width="4.996" height="26.912" transform="translate(182.2 170.315)" fill="#ff725e"/>
        <rect id="Rectángulo_327287" data-name="Rectángulo 327287" width="4.996" height="31.641" transform="translate(191.845 165.585)" fill="#eb6f2d"/>
        <rect id="Rectángulo_327288" data-name="Rectángulo 327288" width="4.996" height="21.557" transform="translate(201.49 175.67)" fill="#ff725e"/>
        <g id="Grupo_877143" data-name="Grupo 877143" transform="translate(124.328 173.066)">
          <g id="Grupo_877142" data-name="Grupo 877142">
            <g id="Grupo_877141" data-name="Grupo 877141" clip-path="url(#clip-path-10)">
              <rect id="Rectángulo_327289" data-name="Rectángulo 327289" width="4.996" height="24.16" transform="translate(0.001 0)" fill="#ffb338"/>
            </g>
          </g>
        </g>
        <g id="Grupo_877146" data-name="Grupo 877146" transform="translate(143.618 162.053)">
          <g id="Grupo_877145" data-name="Grupo 877145">
            <g id="Grupo_877144" data-name="Grupo 877144" clip-path="url(#clip-path-11)">
              <rect id="Rectángulo_327291" data-name="Rectángulo 327291" width="4.996" height="35.173" fill="#ffb338"/>
            </g>
          </g>
        </g>
        <g id="Grupo_877149" data-name="Grupo 877149" transform="translate(162.909 178.403)">
          <g id="Grupo_877148" data-name="Grupo 877148">
            <g id="Grupo_877147" data-name="Grupo 877147" clip-path="url(#clip-path-12)">
              <rect id="Rectángulo_327293" data-name="Rectángulo 327293" width="4.996" height="18.824" fill="#ffb338"/>
            </g>
          </g>
        </g>
        <g id="Grupo_877152" data-name="Grupo 877152" transform="translate(182.2 170.315)">
          <g id="Grupo_877151" data-name="Grupo 877151">
            <g id="Grupo_877150" data-name="Grupo 877150" clip-path="url(#clip-path-13)">
              <rect id="Rectángulo_327295" data-name="Rectángulo 327295" width="4.996" height="26.912" fill="#ffb338"/>
            </g>
          </g>
        </g>
        <g id="Grupo_877155" data-name="Grupo 877155" transform="translate(201.49 175.67)">
          <g id="Grupo_877154" data-name="Grupo 877154">
            <g id="Grupo_877153" data-name="Grupo 877153" clip-path="url(#clip-path-14)">
              <rect id="Rectángulo_327297" data-name="Rectángulo 327297" width="4.996" height="21.557" fill="#ffb338"/>
            </g>
          </g>
        </g>
        <path id="Trazado_622142" data-name="Trazado 622142" d="M271.266,300.606c0,.094-23.252.171-51.928.171s-51.932-.076-51.932-.171,23.246-.171,51.932-.171,51.928.076,51.928.171" transform="translate(-57.604 -103.379)" fill="#263238"/>
      </g>
    </g>
    <rect id="Rectángulo_327300" data-name="Rectángulo 327300" width="62.643" height="62.643" transform="translate(2.069 86.211)" fill="#fff"/>
    <g id="Grupo_877159" data-name="Grupo 877159">
      <g id="Grupo_877158" data-name="Grupo 877158" clip-path="url(#clip-path)">
        <path id="Trazado_622143" data-name="Trazado 622143" d="M52.893,186.629l17.274.238a17.2,17.2,0,0,1-17.274,16.708h-.1Z" transform="translate(-18.165 -64.219)" fill="#455a64"/>
        <path id="Trazado_622144" data-name="Trazado 622144" d="M39.717,173.991l-.243,16.945a16.952,16.952,0,1,1,17.518-16.945Z" transform="translate(-7.722 -54.039)" fill="#2b95f9"/>
        <rect id="Rectángulo_327301" data-name="Rectángulo 327301" width="62.584" height="12.321" transform="translate(2.068 86.211)" fill="#e0e0e0"/>
        <path id="Trazado_622145" data-name="Trazado 622145" d="M15.127,139.9a1.776,1.776,0,1,1-1.776-1.776,1.776,1.776,0,0,1,1.776,1.776" transform="translate(-3.983 -47.529)" fill="#fff"/>
        <path id="Trazado_622146" data-name="Trazado 622146" d="M24.255,139.9a1.776,1.776,0,1,1-1.776-1.776,1.776,1.776,0,0,1,1.776,1.776" transform="translate(-7.124 -47.529)" fill="#fff"/>
        <path id="Trazado_622147" data-name="Trazado 622147" d="M33.383,139.9a1.776,1.776,0,1,1-1.776-1.776,1.776,1.776,0,0,1,1.776,1.776" transform="translate(-10.265 -47.529)" fill="#fff"/>
        <path id="Trazado_622148" data-name="Trazado 622148" d="M65.707,193.992s-.005-.1-.009-.3,0-.491-.008-.868c0-.771-.01-1.9-.017-3.367-.009-2.95-.022-7.26-.039-12.744-.018-10.96-.045-26.6-.075-45.364l.148.148L3.07,131.52H3.064l.171-.171c-.009,22.939-.016,44.435-.023,62.643l-.148-.148,45.366.075,12.742.039,3.367.017.868.008c.2,0,.3.009.3.009s-.092.005-.282.009l-.852.008-3.339.018-12.709.038-45.461.075H2.917v-.148c-.007-18.208-.015-39.7-.024-62.643v-.171H3.07l62.637.024h.148v.148c-.031,18.8-.057,34.476-.075,45.459-.016,5.47-.03,9.769-.038,12.71-.008,1.457-.014,2.576-.018,3.34,0,.37-.006.653-.008.851s-.009.283-.009.283" transform="translate(-0.995 -45.138)" fill="#263238"/>
      </g>
    </g>
    <rect id="Rectángulo_327303" data-name="Rectángulo 327303" width="170.804" height="123.262" transform="translate(56.577 0.171)" fill="#fff"/>
    <g id="Grupo_877161" data-name="Grupo 877161">
      <g id="Grupo_877160" data-name="Grupo 877160" clip-path="url(#clip-path)">
        <path id="Trazado_622149" data-name="Trazado 622149" d="M272.128,71.282H231.655a12.187,12.187,0,0,1-12.187-12.187V55.05a12.187,12.187,0,0,1,12.187-12.187h40.472A12.187,12.187,0,0,1,284.315,55.05v4.044a12.187,12.187,0,0,1-12.187,12.187" transform="translate(-75.518 -14.749)" fill="#ebebeb"/>
        <path id="Trazado_622150" data-name="Trazado 622150" d="M104.916,77.089A26.425,26.425,0,1,1,131.762,103.2a26.521,26.521,0,0,1-26.845-26.116m39.054-.631a12.634,12.634,0,1,0-12.43,12.9,12.675,12.675,0,0,0,12.43-12.9" transform="translate(-36.1 -17.245)" fill="#f5f5f5"/>
        <path id="Trazado_622151" data-name="Trazado 622151" d="M104.916,77.09a26.52,26.52,0,0,1,26-26.969l.222,13.852a12.693,12.693,0,0,0,.406,25.382l.221,13.851A26.51,26.51,0,0,1,104.916,77.09" transform="translate(-36.1 -17.247)" fill="#455a64"/>
        <path id="Trazado_622152" data-name="Trazado 622152" d="M151.116,83.657a.94.94,0,0,1,.01.206c0,.155,0,.354,0,.6a5.908,5.908,0,0,1-.067.981,8.907,8.907,0,0,1-.22,1.324,12.045,12.045,0,0,1-1.316,3.43,12.658,12.658,0,0,1-15.207,5.794,13.308,13.308,0,0,1-1.683-.709,13.5,13.5,0,0,1-1.587-.987,14.2,14.2,0,0,1-1.471-1.216,14.373,14.373,0,0,1-1.279-1.468,12.5,12.5,0,0,1-1.887-3.506,12.746,12.746,0,0,1-.131-8.1,12.5,12.5,0,0,1,1.774-3.566,11.835,11.835,0,0,1,2.663-2.772,13.569,13.569,0,0,1,1.554-1.038,13.425,13.425,0,0,1,1.66-.763,12.7,12.7,0,0,1,15.386,5.3,12.061,12.061,0,0,1,1.425,3.386A9.022,9.022,0,0,1,151,81.871a5.891,5.891,0,0,1,.1.977c.009.25.017.449.023.6a.9.9,0,0,1,0,.2.908.908,0,0,1-.031-.2c-.015-.154-.033-.352-.057-.6a6.335,6.335,0,0,0-.13-.967,9.3,9.3,0,0,0-.291-1.3,12.169,12.169,0,0,0-1.459-3.321,12.6,12.6,0,0,0-3.248-3.51,12.389,12.389,0,0,0-11.863-1.6,11.378,11.378,0,0,0-3.127,1.766,13.748,13.748,0,0,0-1.392,1.234,14.034,14.034,0,0,0-1.2,1.473,12.2,12.2,0,0,0-1.722,3.475,13.442,13.442,0,0,0-.579,3.952,12.613,12.613,0,0,0,2.538,7.348,14.073,14.073,0,0,0,1.243,1.433,13.868,13.868,0,0,0,1.431,1.188,11.451,11.451,0,0,0,3.182,1.664,12.391,12.391,0,0,0,11.8-1.978,12.594,12.594,0,0,0,3.133-3.613,12.183,12.183,0,0,0,1.352-3.366,9.22,9.22,0,0,0,.249-1.306,6.268,6.268,0,0,0,.1-.971c.016-.249.028-.447.038-.6a.964.964,0,0,1,.024-.206" transform="translate(-43.246 -24.444)" fill="#263238"/>
        <path id="Trazado_622153" data-name="Trazado 622153" d="M104.916,77.015s.022.145.046.428.057.712.1,1.255c.021.277.044.586.07.925.041.338.119.7.185,1.1s.145.827.225,1.285a14.068,14.068,0,0,0,.367,1.438,25.4,25.4,0,0,0,3.034,6.981,26.389,26.389,0,0,0,6.8,7.391l1.151.834c.4.262.828.493,1.248.745.428.237.837.522,1.294.728l1.377.637.7.323.734.256,1.49.519c.5.163,1.034.26,1.557.395a13.48,13.48,0,0,0,1.6.339,24.486,24.486,0,0,0,3.335.335c.568.01,1.141.057,1.717.039l1.741-.119c.292-.026.587-.027.878-.073l.876-.15c.584-.108,1.179-.184,1.765-.32a27.393,27.393,0,0,0,3.489-1.1,27.7,27.7,0,0,0,3.4-1.574c.546-.317,1.075-.674,1.618-1.012a13.649,13.649,0,0,0,1.566-1.126,29.171,29.171,0,0,0,2.933-2.6l1.31-1.5.33-.376.293-.407.588-.817.59-.821.512-.876.514-.881.258-.441.215-.465.861-1.871q.338-.977.68-1.961a26.161,26.161,0,0,0-.264-16.6l-.742-1.938q-.461-.926-.92-1.843l-.23-.458-.272-.433-.541-.864-.54-.86-.617-.8-.613-.8-.306-.4-.342-.366-1.358-1.455a29.342,29.342,0,0,0-3.016-2.5A13.793,13.793,0,0,0,145,54.1c-.554-.32-1.094-.66-1.651-.959a28.675,28.675,0,0,0-6.976-2.446c-.59-.116-1.188-.174-1.776-.263l-.88-.121c-.293-.036-.588-.028-.88-.044L131.1,50.2c-.577,0-1.148.066-1.715.094a24.433,24.433,0,0,0-3.323.443,13.641,13.641,0,0,0-1.587.391c-.518.152-1.044.265-1.543.445l-1.472.567-.726.279-.688.345-1.356.681c-.449.221-.849.518-1.27.769s-.831.51-1.223.785l-1.124.87a26.4,26.4,0,0,0-6.561,7.606,25.394,25.394,0,0,0-2.807,7.075A14.052,14.052,0,0,0,105.382,72q-.1.691-.184,1.292c-.053.4-.12.769-.15,1.108q-.022.511-.04.926c-.026.544-.046.963-.06,1.258s-.032.429-.032.429-.007-.145,0-.429.015-.715.026-1.261q.011-.417.024-.929c.024-.341.086-.712.134-1.114s.109-.836.169-1.3a14.018,14.018,0,0,1,.308-1.459,25.273,25.273,0,0,1,2.771-7.139,26.482,26.482,0,0,1,6.577-7.7l1.131-.882c.394-.279.817-.528,1.231-.8s.826-.557,1.279-.782l1.367-.693.694-.351.732-.285,1.486-.578c.5-.184,1.035-.3,1.558-.455a13.762,13.762,0,0,1,1.6-.4A24.727,24.727,0,0,1,129.36,50c.574-.031,1.151-.1,1.734-.1l1.764.059c.3.016.594.008.891.043l.89.121c.594.089,1.2.146,1.8.262a28.939,28.939,0,0,1,7.065,2.464c.565.3,1.112.645,1.673.968a13.993,13.993,0,0,1,1.623,1.086,29.6,29.6,0,0,1,3.056,2.529l1.377,1.472.346.37.31.4.622.807.624.811.548.87.549.874.275.439.233.464.933,1.866.753,1.964a26.466,26.466,0,0,1,.268,16.817L156,86.579l-.873,1.894-.218.471-.261.447-.521.891-.52.887-.6.83-.6.826-.3.412-.334.381-1.329,1.514a29.5,29.5,0,0,1-2.973,2.626,14.048,14.048,0,0,1-1.587,1.138c-.55.342-1.086.7-1.64,1.022a28.972,28.972,0,0,1-6.981,2.69c-.593.136-1.2.213-1.787.32l-.885.15c-.3.045-.594.047-.889.071l-1.76.116c-.582.018-1.162-.031-1.736-.043a24.672,24.672,0,0,1-3.371-.348,13.62,13.62,0,0,1-1.615-.348c-.528-.138-1.063-.237-1.572-.4l-1.5-.529-.741-.261-.706-.328-1.388-.649c-.46-.209-.872-.5-1.3-.74s-.853-.491-1.256-.757l-1.159-.845a26.469,26.469,0,0,1-6.821-7.486,25.234,25.234,0,0,1-3-7.047,13.9,13.9,0,0,1-.354-1.448q-.113-.692-.211-1.293c-.06-.4-.134-.769-.169-1.109q-.029-.512-.054-.929c-.028-.546-.051-.964-.066-1.26s-.011-.429-.011-.429" transform="translate(-36.1 -17.172)" fill="#263238"/>
        <path id="Trazado_622154" data-name="Trazado 622154" d="M140.936,46.871A30.191,30.191,0,0,1,171.85,76.946l-16.131.26c-.131-8.186-6.36-13.341-14.51-13.209Z" transform="translate(-48.496 -16.127)" fill="#eb6f2d"/>
        <path id="Trazado_622155" data-name="Trazado 622155" d="M140.932,46.871s.01.112.018.317c.007.22.016.52.028.9.02.805.05,1.959.087,3.434.064,2.974.155,7.237.268,12.471l-.129-.125a17.987,17.987,0,0,1,4.851.594,13.863,13.863,0,0,1,4.805,2.342,12.484,12.484,0,0,1,3.644,4.446A14.031,14.031,0,0,1,155.88,77.2l-.168-.163,12.491-.207,3.64-.058-.168.173a33.836,33.836,0,0,0-1.644-9.543q-.412-1.1-.817-2.178c-.3-.7-.664-1.375-.988-2.052a15.86,15.86,0,0,0-1.1-1.936,17.968,17.968,0,0,0-1.2-1.816l-1.286-1.686c-.451-.531-.936-1.02-1.392-1.52l-.687-.739-.743-.658-1.451-1.282a31.062,31.062,0,0,0-5.986-3.691l-1.429-.661c-.477-.185-.952-.336-1.408-.5l-1.331-.464c-.434-.138-.87-.218-1.282-.325l-1.2-.29-.567-.137c-.187-.035-.373-.054-.553-.081l-1.976-.277a12.26,12.26,0,0,0-1.574-.125l-1.159-.058-.722-.039a2.471,2.471,0,0,1-.255-.02,1.7,1.7,0,0,1,.233,0l.71.008,1.174.02a11.432,11.432,0,0,1,1.6.093l1.989.25c.182.025.369.042.558.075l.571.131,1.209.278c.416.1.855.18,1.293.315l1.345.455c.46.16.94.309,1.421.491l1.445.655a31.014,31.014,0,0,1,6.059,3.687l1.472,1.287.752.661.7.742c.462.5.954,1,1.411,1.531l1.3,1.7a18.144,18.144,0,0,1,1.213,1.831,16.062,16.062,0,0,1,1.116,1.953c.329.684.694,1.362,1,2.072l.83,2.2a34.01,34.01,0,0,1,1.673,9.644l0,.17-.172,0-3.64.059-12.491.2-.166,0,0-.165a13.737,13.737,0,0,0-1.333-5.819,12.206,12.206,0,0,0-3.54-4.347,13.624,13.624,0,0,0-4.7-2.311,17.821,17.821,0,0,0-4.772-.61h-.128V64c-.056-5.268-.1-9.557-.133-12.551-.009-1.462-.017-2.607-.022-3.405v-.88a2.26,2.26,0,0,1,.009-.291" transform="translate(-48.491 -16.126)" fill="#263238"/>
        <rect id="Rectángulo_327304" data-name="Rectángulo 327304" width="170.803" height="16.464" transform="translate(56.577 0.171)" fill="#e0e0e0"/>
        <path id="Trazado_622156" data-name="Trazado 622156" d="M280.991,56.321h-48a1.024,1.024,0,0,1,0-2.048h48a1.024,1.024,0,1,1,0,2.048" transform="translate(-79.818 -18.675)" fill="#263238"/>
        <path id="Trazado_622157" data-name="Trazado 622157" d="M280.991,64.622h-48a1.024,1.024,0,0,1,0-2.048h48a1.024,1.024,0,1,1,0,2.048" transform="translate(-79.818 -21.532)" fill="#263238"/>
        <path id="Trazado_622158" data-name="Trazado 622158" d="M254.8,72.923H232.988a1.024,1.024,0,0,1,0-2.048H254.8a1.024,1.024,0,1,1,0,2.048" transform="translate(-79.818 -24.388)" fill="#263238"/>
        <path id="Trazado_622159" data-name="Trazado 622159" d="M272.128,124.285H231.655A12.187,12.187,0,0,1,219.468,112.1v-4.044a12.187,12.187,0,0,1,12.187-12.187h40.472a12.187,12.187,0,0,1,12.187,12.187V112.1a12.187,12.187,0,0,1-12.187,12.187" transform="translate(-75.518 -32.987)" fill="#ebebeb"/>
        <path id="Trazado_622160" data-name="Trazado 622160" d="M277.659,160.325H224.048a5.618,5.618,0,0,1,0-11.236h53.611a5.618,5.618,0,0,1,0,11.236" transform="translate(-75.161 -51.301)" fill="#ebebeb"/>
        <path id="Trazado_622161" data-name="Trazado 622161" d="M280.507,109.716h-48a1.024,1.024,0,0,1,0-2.048h48a1.024,1.024,0,1,1,0,2.048" transform="translate(-79.652 -37.048)" fill="#263238"/>
        <path id="Trazado_622162" data-name="Trazado 622162" d="M277.391,158.329h-48a1.024,1.024,0,0,1,0-2.048h48a1.024,1.024,0,1,1,0,2.048" transform="translate(-78.58 -53.776)" fill="#263238"/>
        <path id="Trazado_622163" data-name="Trazado 622163" d="M280.507,118.017h-48a1.024,1.024,0,0,1,0-2.048h48a1.024,1.024,0,1,1,0,2.048" transform="translate(-79.652 -39.905)" fill="#263238"/>
        <path id="Trazado_622164" data-name="Trazado 622164" d="M254.32,126.318H232.5a1.024,1.024,0,0,1,0-2.048H254.32a1.024,1.024,0,1,1,0,2.048" transform="translate(-79.652 -42.761)" fill="#263238"/>
        <path id="Trazado_622165" data-name="Trazado 622165" d="M203.566,52.026a4.544,4.544,0,0,1-.9.066l-2.447.054c-2.067.031-4.921.05-8.074.05l-3.676-.009.114-.047c-1.6,1.588-2.988,2.942-3.978,3.891l-1.167,1.1A2.37,2.37,0,0,1,183,57.5a2.372,2.372,0,0,1,.369-.445l1.1-1.167c.95-.99,2.3-2.374,3.891-3.978l.047-.047h.068l3.676-.009c3.153,0,6.007.019,8.074.05l2.447.054a4.545,4.545,0,0,1,.9.066" transform="translate(-62.968 -17.843)" fill="#263238"/>
        <path id="Trazado_622166" data-name="Trazado 622166" d="M213.93,51.479a1.364,1.364,0,1,1-1.364-1.364,1.364,1.364,0,0,1,1.364,1.364" transform="translate(-72.674 -17.244)" fill="#263238"/>
        <path id="Trazado_622167" data-name="Trazado 622167" d="M213.93,114a1.364,1.364,0,1,1-1.364-1.364A1.364,1.364,0,0,1,213.93,114" transform="translate(-72.674 -38.756)" fill="#263238"/>
        <path id="Trazado_622168" data-name="Trazado 622168" d="M203.7,114.959a15.28,15.28,0,0,1-2.29.1c-1.414.021-3.368.027-5.526.017l-5.525-.054-1.674-.035a4.612,4.612,0,0,1-.615-.031,9.617,9.617,0,0,1,2.287-.176c1.415-.039,3.369-.054,5.529-.045s4.112.041,5.526.083a15.125,15.125,0,0,1,2.288.138" transform="translate(-64.714 -39.48)" fill="#263238"/>
        <rect id="Rectángulo_327305" data-name="Rectángulo 327305" width="4.471" height="4.471" transform="translate(77.362 105.455)" fill="#455a64"/>
        <rect id="Rectángulo_327306" data-name="Rectángulo 327306" width="4.471" height="4.471" transform="translate(92.362 105.455)" fill="#e0e0e0"/>
        <rect id="Rectángulo_327307" data-name="Rectángulo 327307" width="4.471" height="4.471" transform="translate(108.64 105.455)" fill="#ff725e"/>
        <path id="Trazado_622169" data-name="Trazado 622169" d="M101.594,11.566A2.277,2.277,0,1,1,99.32,9.193a2.326,2.326,0,0,1,2.275,2.373" transform="translate(-33.393 -3.163)" fill="#fff"/>
        <path id="Trazado_622170" data-name="Trazado 622170" d="M113.286,11.566a2.277,2.277,0,1,1-2.275-2.373,2.326,2.326,0,0,1,2.275,2.373" transform="translate(-37.416 -3.163)" fill="#fff"/>
        <path id="Trazado_622171" data-name="Trazado 622171" d="M124.978,11.566A2.277,2.277,0,1,1,122.7,9.193a2.326,2.326,0,0,1,2.275,2.373" transform="translate(-41.439 -3.163)" fill="#fff"/>
        <path id="Trazado_622172" data-name="Trazado 622172" d="M256.972,123.433c0-1.144-.054-48.5-.139-123.262l.139.138L86.182.342h-.014l.171-.171c-.005,44.18-.011,86.081-.016,123.262l-.155-.155,170.8.155-170.8.155h-.155v-.155C86.008,86.252,86,44.351,86,.171V0h.185l170.79.032h.139V.171c-.085,74.764-.138,122.118-.139,123.262" transform="translate(-29.591)" fill="#263238"/>
      </g>
    </g>
    <rect id="Rectángulo_327309" data-name="Rectángulo 327309" width="121.662" height="90.947" transform="translate(208.917 89.71)" fill="#fff"/>
    <rect id="Rectángulo_327310" data-name="Rectángulo 327310" width="121.662" height="11.242" transform="translate(208.534 89.711)" fill="#e0e0e0"/>
    <g id="Grupo_877163" data-name="Grupo 877163">
      <g id="Grupo_877162" data-name="Grupo 877162" clip-path="url(#clip-path)">
        <path id="Trazado_622173" data-name="Trazado 622173" d="M328.858,144.494a1.62,1.62,0,1,1-1.62-1.62,1.62,1.62,0,0,1,1.62,1.62" transform="translate(-112.045 -49.163)" fill="#fff"/>
        <path id="Trazado_622174" data-name="Trazado 622174" d="M337.186,144.494a1.62,1.62,0,1,1-1.62-1.62,1.62,1.62,0,0,1,1.62,1.62" transform="translate(-114.91 -49.163)" fill="#fff"/>
        <path id="Trazado_622175" data-name="Trazado 622175" d="M345.514,144.494a1.62,1.62,0,1,1-1.62-1.62,1.62,1.62,0,0,1,1.62,1.62" transform="translate(-117.776 -49.163)" fill="#fff"/>
        <path id="Trazado_622176" data-name="Trazado 622176" d="M439.506,227.631s-.01-.571-.015-1.664-.009-2.716-.016-4.831c-.008-4.233-.02-10.441-.035-18.372-.018-15.847-.043-38.567-.073-66.08l.14.14-121.652.031h-.01l.171-.171c-.006,32.686-.012,63.645-.016,90.947l-.154-.154,87.816.077,24.942.041,6.615.018,1.705.009c.384,0,.583.009.583.009s-.188.006-.565.009l-1.688.009-6.585.018-24.907.041-87.917.077h-.155v-.154c0-27.3-.01-58.261-.016-90.947v-.171h.181l121.652.031h.14v.14c-.03,27.55-.055,50.3-.073,66.168-.015,7.917-.028,14.115-.036,18.34-.007,2.1-.012,3.714-.016,4.8s-.015,1.635-.015,1.635" transform="translate(-109.311 -46.974)" fill="#263238"/>
        <path id="Trazado_622177" data-name="Trazado 622177" d="M436.468,220.25c0,.094-24.212.171-54.072.171s-54.077-.076-54.077-.171,24.207-.171,54.077-.171,54.072.076,54.072.171" transform="translate(-112.974 -75.729)" fill="#e0e0e0"/>
        <path id="Trazado_622178" data-name="Trazado 622178" d="M436.468,206.015c0,.094-24.212.171-54.072.171s-54.077-.076-54.077-.171,24.207-.171,54.077-.171,54.072.076,54.072.171" transform="translate(-112.974 -70.83)" fill="#e0e0e0"/>
        <path id="Trazado_622179" data-name="Trazado 622179" d="M436.468,191.78c0,.094-24.212.171-54.072.171s-54.077-.076-54.077-.171,24.207-.171,54.077-.171,54.072.076,54.072.171" transform="translate(-112.974 -65.932)" fill="#e0e0e0"/>
        <path id="Trazado_622180" data-name="Trazado 622180" d="M436.468,177.546c0,.094-24.212.171-54.072.171s-54.077-.076-54.077-.171,24.207-.171,54.077-.171,54.072.076,54.072.171" transform="translate(-112.974 -61.034)" fill="#e0e0e0"/>
        <rect id="Rectángulo_327311" data-name="Rectángulo 327311" width="8.997" height="18.094" transform="translate(224.498 140.288)" fill="#ffb338"/>
        <rect id="Rectángulo_327312" data-name="Rectángulo 327312" width="8.997" height="18.094" transform="translate(256.79 140.288)" fill="#455a64"/>
        <rect id="Rectángulo_327313" data-name="Rectángulo 327313" width="8.997" height="11.926" transform="translate(305.773 146.456)" fill="#455a64"/>
        <rect id="Rectángulo_327314" data-name="Rectángulo 327314" width="8.997" height="26.664" transform="translate(289.083 131.72)" fill="#e0e0e0"/>
        <rect id="Rectángulo_327315" data-name="Rectángulo 327315" width="8.997" height="37.044" transform="translate(272.574 121.339)" fill="#ffb338"/>
        <rect id="Rectángulo_327316" data-name="Rectángulo 327316" width="8.997" height="26.664" transform="translate(240 131.72)" fill="#e0e0e0"/>
        <path id="Trazado_622181" data-name="Trazado 622181" d="M435.016,215.83s-.137.012-.4.018l-1.18.016-4.543.032-16.7.054-55.111.05-29.069-.012h-.16v-.159c.025-14.331.047-26.547.062-35.194.019-4.308.035-7.726.045-10.081.01-1.161.019-2.06.025-2.681.006-.3.011-.523.014-.69s.012-.233.012-.233.01.079.014.233.008.395.014.69c.005.621.014,1.52.025,2.681.01,2.355.026,5.773.045,10.081.014,8.647.037,20.862.061,35.194l-.157-.159,29.069-.012,55.111.05,16.7.054,4.543.032,1.18.017c.266.006.4.018.4.018" transform="translate(-112.811 -57.448)" fill="#263238"/>
        <rect id="Rectángulo_327317" data-name="Rectángulo 327317" width="3.953" height="3.953" transform="translate(234.104 167.562)" fill="#ff725e"/>
        <rect id="Rectángulo_327318" data-name="Rectángulo 327318" width="3.953" height="3.953" transform="translate(258.269 167.437)" fill="#e0e0e0"/>
        <rect id="Rectángulo_327319" data-name="Rectángulo 327319" width="3.953" height="3.953" transform="translate(284.41 167.562)" fill="#455a64"/>
        <path id="Trazado_622182" data-name="Trazado 622182" d="M377.261,258.2a85.07,85.07,0,0,1-10.767,0,85.04,85.04,0,0,1,10.767,0" transform="translate(-126.11 -88.788)" fill="#263238"/>
        <path id="Trazado_622183" data-name="Trazado 622183" d="M413.823,258.2a85.07,85.07,0,0,1-10.767,0,85.04,85.04,0,0,1,10.767,0" transform="translate(-138.691 -88.788)" fill="#263238"/>
        <path id="Trazado_622184" data-name="Trazado 622184" d="M452.747,258.2a85.07,85.07,0,0,1-10.767,0,85.039,85.039,0,0,1,10.767,0" transform="translate(-152.084 -88.788)" fill="#263238"/>
      </g>
    </g>
    <rect id="Rectángulo_327321" data-name="Rectángulo 327321" width="42.039" height="42.039" transform="translate(289.263 61.291)" fill="#fff"/>
    <g id="Grupo_877165" data-name="Grupo 877165">
      <g id="Grupo_877164" data-name="Grupo 877164" clip-path="url(#clip-path)">
        <path id="Trazado_622185" data-name="Trazado 622185" d="M482.965,135.4s-.006-.072-.009-.2,0-.335-.008-.585c0-.525-.01-1.281-.018-2.265-.009-1.987-.022-4.881-.039-8.558-.018-7.357-.044-17.847-.075-30.427l.148.148-42.035.023h0l.171-.171c-.009,15.393-.016,29.817-.024,42.038l-.148-.148,30.429.075,8.557.038,2.264.018.585.008c.132,0,.2.009.2.009a1.454,1.454,0,0,1-.187.009l-.569.008-2.236.018-8.523.038-30.524.075h-.147V135.4c-.007-12.221-.014-26.645-.023-42.038v-.171h.174l42.035.023h.148v.148c-.031,12.619-.057,23.142-.075,30.522-.016,3.663-.03,6.545-.039,8.524-.007.971-.013,1.718-.017,2.237,0,.243-.006.431-.008.569a1.63,1.63,0,0,1-.008.187" transform="translate(-151.663 -32.065)" fill="#263238"/>
        <path id="Trazado_622186" data-name="Trazado 622186" d="M469.39,118.734a6.776,6.776,0,0,0,4.038-6.268,6.368,6.368,0,1,0-12.709-.059,6.764,6.764,0,0,0,4.049,6.327c-9.779,1.473-9.335,12.1-9.335,12.1l23.125.106s.527-10.744-9.167-12.208" transform="translate(-156.712 -36.357)" fill="#2b95f9"/>
      </g>
    </g>
    <g id="Grupo_877173" data-name="Grupo 877173">
      <g id="Grupo_877172" data-name="Grupo 877172" clip-path="url(#clip-path)">
        <path id="Trazado_622187" data-name="Trazado 622187" d="M622.129,89.31a1.642,1.642,0,0,0-1.124-.486,5.951,5.951,0,0,0-3.491.676,5.1,5.1,0,0,0,.705-6.108,5.763,5.763,0,0,0-5.7-2.582,6.629,6.629,0,0,0-4.959,3.967,7.823,7.823,0,0,0,.28,6.425l3.645.956a10.211,10.211,0,0,0,5.736,1.764,3,3,0,0,0,2.259-.742c.551-.6.458-1.785-.32-2.033a3.79,3.79,0,0,0,2.271.031c.71-.3,1.179-1.268.7-1.867" transform="translate(-208.868 -27.785)" fill="#263238"/>
        <path id="Trazado_622188" data-name="Trazado 622188" d="M584.915,85.8a8.9,8.9,0,0,0-6.855.708,5.291,5.291,0,0,0-9.133,1.4,4.477,4.477,0,0,0-4.5,7.629,5.751,5.751,0,0,0-2.405,8.746c-1.723.836-2.018,3.168-1.764,5.066s.8,3.931-.05,5.647c-.657,1.325-2.013,2.144-2.94,3.3s-1.251,3.137,0,3.918a4,4,0,1,0,1.448,7.86,4.9,4.9,0,0,0,.521,4.7,7.9,7.9,0,0,0,3.933,2.867,11.754,11.754,0,0,0,12.841-3.621l14.154-43.764a8.9,8.9,0,0,0-5.258-4.454" transform="translate(-190.568 -29.067)" fill="#263238"/>
        <path id="Trazado_622189" data-name="Trazado 622189" d="M598.568,101.84l.189-2.361L584.72,95.924c-4.35-.727-9.348,3.377-9.889,7.753-.6,4.863-1.143,10.824-.784,14.5.722,7.394,6.28,8.664,6.28,8.664l-.406,7.272,16.184,1.178Z" transform="translate(-197.489 -32.978)" fill="#ae7461"/>
        <path id="Trazado_622190" data-name="Trazado 622190" d="M577.917,117.247a.941.941,0,0,0,.849,1,.9.9,0,0,0,1.019-.788.941.941,0,0,0-.847-1,.9.9,0,0,0-1.021.789" transform="translate(-198.859 -40.071)" fill="#263238"/>
        <path id="Trazado_622191" data-name="Trazado 622191" d="M577.372,112.212c.109.129.853-.354,1.863-.291s1.721.614,1.838.5c.058-.051-.048-.279-.357-.535a2.578,2.578,0,0,0-1.462-.548,2.477,2.477,0,0,0-1.492.384c-.325.22-.443.435-.39.493" transform="translate(-198.668 -38.308)" fill="#263238"/>
        <path id="Trazado_622192" data-name="Trazado 622192" d="M591.906,118a.941.941,0,0,0,.849,1,.9.9,0,0,0,1.019-.788.942.942,0,0,0-.848-1,.9.9,0,0,0-1.02.789" transform="translate(-203.672 -40.331)" fill="#263238"/>
        <path id="Trazado_622193" data-name="Trazado 622193" d="M592.5,113.411c.11.129.853-.354,1.863-.291s1.72.614,1.838.5c.056-.052-.047-.279-.357-.534a2.574,2.574,0,0,0-1.462-.549,2.477,2.477,0,0,0-1.492.384c-.324.22-.443.435-.39.493" transform="translate(-203.875 -38.721)" fill="#263238"/>
        <path id="Trazado_622194" data-name="Trazado 622194" d="M584.9,120.56a6.719,6.719,0,0,0-1.624-.395c-.256-.042-.5-.108-.531-.287a1.321,1.321,0,0,1,.218-.755l.882-1.919a33.8,33.8,0,0,0,2.023-5.037,33.81,33.81,0,0,0-2.424,4.863q-.445,1.011-.85,1.933a1.5,1.5,0,0,0-.195,1,.648.648,0,0,0,.4.4,1.739,1.739,0,0,0,.434.087,6.6,6.6,0,0,0,1.664.1" transform="translate(-200.391 -38.596)" fill="#263238"/>
        <path id="Trazado_622195" data-name="Trazado 622195" d="M583.63,142.072a19.432,19.432,0,0,0,10.217-2.026s-2.782,4.979-10.322,3.852Z" transform="translate(-200.79 -48.19)" fill="#6f4439"/>
        <path id="Trazado_622196" data-name="Trazado 622196" d="M592.861,108.156c.1.275,1.111.145,2.3.288,1.19.119,2.149.467,2.306.22.07-.119-.1-.377-.484-.644a4.028,4.028,0,0,0-3.508-.387c-.436.176-.655.392-.613.523" transform="translate(-204.001 -36.955)" fill="#263238"/>
        <path id="Trazado_622197" data-name="Trazado 622197" d="M577.74,108.369c.162.241.874.051,1.712.1.839.017,1.535.261,1.715.032.079-.111-.016-.349-.311-.588a2.484,2.484,0,0,0-2.761-.1c-.312.216-.426.445-.355.563" transform="translate(-198.792 -36.969)" fill="#263238"/>
        <path id="Trazado_622198" data-name="Trazado 622198" d="M574.033,97.35a12.3,12.3,0,0,1,6.686-4.415l11.857,1.492,1.01-.018c.222-.747,1.482-1.139,1.482-1.139,1.114-.855,4.974-.9,7.664,1.911a9.157,9.157,0,0,1,1.682,4.969c.009.531-.561,1.26-.117,1.552a13.58,13.58,0,0,0,1.619.115c3.016.66,4.9,3.335,4.355,7.333a2.037,2.037,0,0,0-.065.6,1.651,1.651,0,0,0,.529.786,5.233,5.233,0,0,1,.83,5.824,6.213,6.213,0,0,0-.806,1.748c-.183,1.141.65,2.157,1.3,3.115,1.935,2.873,2.35,7.046.079,9.661a5.468,5.468,0,0,0-1.471,2.019,4.839,4.839,0,0,0-.065,1.229c.014,2.086-1.086,4.421-3.125,4.862-1.133.244-2.508-.075-3.313.757a4.918,4.918,0,0,0-.723,1.322,4.233,4.233,0,0,1-4.877,2.1c-1.84-.567-2.45-8.033-2.183-9.94-2.228-.81-3.878-.954-3.773-3.323,0,0,.344-4.077-.315-6.063s.664-6.213,1.418-8.266-.144-6.831-.346-8.731a6.913,6.913,0,0,1,.157-1.625v0c.083-.462.191-.982.318-1.539.047-.519.474-3.293.467-3.778-.029-1.8-2.259-.836-3.962-.264a4.365,4.365,0,0,1-1.277.23,4.547,4.547,0,0,1-3.662-1.736,6.547,6.547,0,0,1-6.462,1.767,17.821,17.821,0,0,1-3.065,3.565,6,6,0,0,1-4.343,1.493,12.292,12.292,0,0,1,2.5-7.612" transform="translate(-196.663 -31.917)" fill="#263238"/>
        <path id="Trazado_622199" data-name="Trazado 622199" d="M587.3,128.31a1.789,1.789,0,0,1,1.568-.744,1.633,1.633,0,0,1,1.156.548,1.035,1.035,0,0,1,.138,1.177,1.2,1.2,0,0,1-1.283.394,3.749,3.749,0,0,1-1.305-.692,1.1,1.1,0,0,1-.3-.279.331.331,0,0,1-.017-.369" transform="translate(-202.057 -43.894)" fill="#6f4439"/>
        <path id="Trazado_622200" data-name="Trazado 622200" d="M589.434,125.915c-.162,0-.11,1.074-.992,1.884s-2.034.749-2.035.9c-.012.068.266.2.751.185a2.684,2.684,0,0,0,1.7-.69,2.342,2.342,0,0,0,.763-1.577c.018-.452-.115-.712-.188-.7" transform="translate(-201.781 -43.327)" fill="#263238"/>
        <path id="Trazado_622201" data-name="Trazado 622201" d="M549.385,419.677l1.334,13.9s-15.148,5.659-15.313,8.459l28.639.078-.016-2.094-1.2-7.15-1.77-13.887Z" transform="translate(-184.232 -144.17)" fill="#455a64"/>
        <path id="Trazado_622202" data-name="Trazado 622202" d="M571.147,437.917a1.2,1.2,0,0,1,.831,1.364,1.151,1.151,0,0,1-1.345.836,1.262,1.262,0,0,1-.872-1.449,1.194,1.194,0,0,1,1.495-.714" transform="translate(-196.039 -150.669)" fill="#e0e0e0"/>
        <path id="Trazado_622203" data-name="Trazado 622203" d="M564.039,453.148l-.016-2.094-27.47.527s-1.3.571-1.154,1.49Z" transform="translate(-184.226 -155.207)" fill="#263238"/>
        <path id="Trazado_622204" data-name="Trazado 622204" d="M558.028,440.935c.005.143.721.206,1.426.664.718.44,1.082,1.059,1.213,1,.132-.028-.083-.884-.947-1.423s-1.724-.374-1.692-.243" transform="translate(-192.016 -151.679)" fill="#263238"/>
        <path id="Trazado_622205" data-name="Trazado 622205" d="M553.345,442.925c-.032.139.588.38,1.076.985.505.59.63,1.244.772,1.237.135.023.232-.816-.389-1.555s-1.456-.8-1.459-.666" transform="translate(-190.405 -152.39)" fill="#263238"/>
        <path id="Trazado_622206" data-name="Trazado 622206" d="M550.094,447.278c.13.03.327-.685-.042-1.468s-1.04-1.093-1.1-.974c-.081.118.355.537.649,1.185s.351,1.244.493,1.257" transform="translate(-188.89 -153.059)" fill="#263238"/>
        <path id="Trazado_622207" data-name="Trazado 622207" d="M556.476,435.639c.06.13.716-.069,1.526-.016.81.036,1.44.306,1.514.184.083-.1-.533-.632-1.488-.681s-1.623.4-1.553.513" transform="translate(-191.481 -149.724)" fill="#263238"/>
        <path id="Trazado_622208" data-name="Trazado 622208" d="M603.1,420.319l1.227,13.661s-14.916,5.468-15.095,8.218l28.135.249,0-2.058-1.137-7.031L614.571,419.7Z" transform="translate(-202.754 -144.42)" fill="#455a64"/>
        <path id="Trazado_622209" data-name="Trazado 622209" d="M624.438,438.293a1.175,1.175,0,0,1,.808,1.345,1.13,1.13,0,0,1-1.326.813,1.24,1.24,0,0,1-.849-1.429,1.173,1.173,0,0,1,1.473-.693" transform="translate(-214.383 -150.798)" fill="#e0e0e0"/>
        <path id="Trazado_622210" data-name="Trazado 622210" d="M617.362,453.3l0-2.058-26.989.352s-1.284.554-1.142,1.457Z" transform="translate(-202.748 -155.271)" fill="#263238"/>
        <path id="Trazado_622211" data-name="Trazado 622211" d="M611.536,441.177c0,.141.707.207,1.4.662.7.436,1.056,1.047,1.186.991.13-.027-.077-.868-.922-1.4s-1.691-.379-1.661-.249" transform="translate(-210.428 -151.764)" fill="#263238"/>
        <path id="Trazado_622212" data-name="Trazado 622212" d="M606.923,443.1c-.033.136.575.377,1.051.974.493.582.611,1.226.751,1.22.132.023.232-.8-.373-1.531s-1.425-.8-1.428-.663" transform="translate(-208.841 -152.451)" fill="#263238"/>
        <path id="Trazado_622213" data-name="Trazado 622213" d="M603.7,447.357c.128.03.326-.671-.032-1.442s-1.015-1.08-1.075-.964c-.079.115.346.53.63,1.168s.337,1.224.477,1.238" transform="translate(-207.349 -153.099)" fill="#263238"/>
        <path id="Trazado_622214" data-name="Trazado 622214" d="M610.042,435.967c.058.129.7-.064,1.5-.007.8.041,1.413.31,1.487.19.081-.1-.52-.624-1.457-.678s-1.6.384-1.528.495" transform="translate(-209.913 -149.843)" fill="#263238"/>
        <path id="Trazado_622215" data-name="Trazado 622215" d="M552.025,235.768s-6.788,19.66-7.022,34.285-.468,37.882,2.574,63.536,4.448,35.964,4.448,35.964h15.449a302.5,302.5,0,0,0,1.4-30.45c-.233-14.385-1.358-18.941.023-34.765s3.568-25.329,5.87-30.124a33.02,33.02,0,0,0,6.845-17.979A50.694,50.694,0,0,0,578.4,236.9Z" transform="translate(-187.491 -81.127)" fill="#263238"/>
        <path id="Trazado_622216" data-name="Trazado 622216" d="M576.706,263.819c.256.79,4.841,33.022,8.185,47.239s7.065,17.98,7.718,29.544c.75,13.3,4.4,29.419,4.4,29.419h16.451s-2.313-24.586-4.627-43.806-5.655-42.914-5.141-50.022,1.8-15.887,0-25.846-5.689-12.585-5.689-12.585l-13.957-.631Z" transform="translate(-198.443 -81.596)" fill="#263238"/>
        <path id="Trazado_622217" data-name="Trazado 622217" d="M594.348,249.712a3.366,3.366,0,0,1,.255.5,9.815,9.815,0,0,1,.559,1.513,20.043,20.043,0,0,1,.542,5.892,38.868,38.868,0,0,1-1.352,8.674,27.864,27.864,0,0,1-1.8,4.88,34.749,34.749,0,0,1-2.972,4.717,28.628,28.628,0,0,0-4.177,9.757,69.514,69.514,0,0,0-1.561,8.6c-.3,2.474-.486,4.485-.622,5.874q-.1,1-.161,1.6a3.4,3.4,0,0,1-.079.556,3.453,3.453,0,0,1,.01-.561q.035-.6.1-1.6c.1-1.392.24-3.408.514-5.891a66.143,66.143,0,0,1,1.5-8.651,42.1,42.1,0,0,1,1.557-4.955A24.519,24.519,0,0,1,587.8,278.1a26.06,26.06,0,0,1,1.5-2.41,34.914,34.914,0,0,0,2.954-4.671,27.9,27.9,0,0,0,1.792-4.815,39.832,39.832,0,0,0,1.415-8.6,20.977,20.977,0,0,0-.429-5.849,11.854,11.854,0,0,0-.493-1.519,3.5,3.5,0,0,1-.191-.528" transform="translate(-200.601 -85.925)" fill="#455a64"/>
        <path id="Trazado_622218" data-name="Trazado 622218" d="M497.872,166.279a46.776,46.776,0,0,0,7.961,3.284l5.744-4.591s-4.109-7.509-5.432-9.637a11.411,11.411,0,0,1-1.071-2.271c-.444-1.6-1.617-.918-1.833.341a6.849,6.849,0,0,0,.357,2.026,5.939,5.939,0,0,1,.4,2.435s-.418-.356-1.451-1.051c-1.125-.757-4.926-3.926-6.532-5.253-2.4-1.983-3.608-.754-3.295.012.389.953,6.344,5.123,6.131,5.836,0,0-1.146.651-1.309,1.394a3.766,3.766,0,0,0,.011,1.477s-1.074.1-1.362.795a2.681,2.681,0,0,0,.081,1.661s-1,.093-1.11.634.575,1.631,2.708,2.907" transform="translate(-169.528 -51.783)" fill="#ae7461"/>
        <path id="Trazado_622219" data-name="Trazado 622219" d="M515.578,162.319c.087.259,12.316,12.78,12.316,12.78s10.206-11.5,13.312-15.725,7.819-9.415,11.875-10.386,9.693,1.642,9.693,1.642L555.589,165.4l-9.071,12.471s-9.8,12.311-14.461,14.209-9.226-.828-11.211-2.9-13.761-19.97-13.761-19.97Z" transform="translate(-174.487 -51.192)" fill="#ffb338"/>
        <path id="Trazado_622220" data-name="Trazado 622220" d="M600.235,153.978,572.093,149.1s-7.814,13.757-10.737,28.212-6.255,28.9-6.255,28.9l25.995,3.2a29.96,29.96,0,0,0,8.142-.112l2.709-.409-2.227-9.179a185.727,185.727,0,0,0,8.037-23.748c3.493-14.2,2.478-21.987,2.478-21.987" transform="translate(-191.009 -51.305)" fill="#ffb338"/>
        <path id="Trazado_622221" data-name="Trazado 622221" d="M573.494,177.494a3.294,3.294,0,0,1-.457.616l-1.32,1.612c-1.115,1.36-2.626,3.263-4.3,5.365s-3.218,3.984-4.383,5.308c-.581.662-1.061,1.19-1.4,1.543a3.313,3.313,0,0,1-.558.527,3.271,3.271,0,0,1,.457-.616l1.32-1.612c1.115-1.36,2.626-3.263,4.3-5.365s3.217-3.983,4.382-5.307c.581-.662,1.061-1.19,1.4-1.543a3.3,3.3,0,0,1,.558-.527" transform="translate(-193.063 -61.075)" fill="#263238"/>
        <path id="Trazado_622222" data-name="Trazado 622222" d="M600.727,226.9a7.6,7.6,0,0,1-1.766.508,26.167,26.167,0,0,1-8.831.34,7.644,7.644,0,0,1-1.8-.37,13.581,13.581,0,0,1,1.825.13,35.363,35.363,0,0,0,8.761-.338,13.6,13.6,0,0,1,1.81-.27" transform="translate(-202.443 -78.071)" fill="#263238"/>
        <path id="Trazado_622223" data-name="Trazado 622223" d="M538.325,196.541a37.243,37.243,0,0,1,.1-7.127,37.254,37.254,0,0,1-.1,7.127" transform="translate(-185.193 -65.177)" fill="#263238"/>
        <g id="Grupo_877168" data-name="Grupo 877168" transform="translate(390.534 104.298)" opacity="0.3">
          <g id="Grupo_877167" data-name="Grupo 877167">
            <g id="Grupo_877166" data-name="Grupo 877166" clip-path="url(#clip-path-20)">
              <path id="Trazado_622224" data-name="Trazado 622224" d="M613.2,160.582l-17.584-1.568a2.934,2.934,0,0,0,1.862,3.832A5.692,5.692,0,0,0,602,171.334a5.262,5.262,0,0,1,1.4.174c.975.352,1.441,1.421,2.026,2.276a5.323,5.323,0,0,0,3.278,2.274,3.888,3.888,0,0,0,3.7-1.227,6.44,6.44,0,0,0,1.072-3.851,68.641,68.641,0,0,0-.273-10.4" transform="translate(-595.415 -159.014)"/>
            </g>
          </g>
        </g>
        <g id="Grupo_877171" data-name="Grupo 877171" transform="translate(369.283 117.441)" opacity="0.3">
          <g id="Grupo_877170" data-name="Grupo 877170">
            <g id="Grupo_877169" data-name="Grupo 877169" clip-path="url(#clip-path-21)">
              <path id="Trazado_622225" data-name="Trazado 622225" d="M563.016,191.754a12.419,12.419,0,0,0,9.941-12.7c-3.681,3.991-6.785,9.105-9.941,12.7" transform="translate(-563.016 -179.053)"/>
            </g>
          </g>
        </g>
        <path id="Trazado_622226" data-name="Trazado 622226" d="M617.067,136.119l-15.005-16.7c.549,4.238-1.048,8.455-2.967,12.273-1.092,2.173-2.311,4.758-1.164,6.9a14.243,14.243,0,0,0-2.479,3.385,4.81,4.81,0,0,0-.161,4.071,2.945,2.945,0,0,0,3.494,1.584,4.577,4.577,0,0,0,6.313,5.678,7.259,7.259,0,0,0,2.806,4.372,4.815,4.815,0,0,0,5.026.329,3.631,3.631,0,0,0,1.482-4.585c3.3-.73,5.364-4.288,5.462-7.668s-1.322-6.6-2.807-9.64" transform="translate(-204.707 -41.092)" fill="#263238"/>
        <path id="Trazado_622227" data-name="Trazado 622227" d="M579.466,97.806c0,.011-.08.045-.248.1a2.091,2.091,0,0,1-.764.053,3.035,3.035,0,0,1-2.271-1.563,2.934,2.934,0,0,1-.314-1.937,3.93,3.93,0,0,1,1.031-2,4.269,4.269,0,0,1,2.153-1.237,5.792,5.792,0,0,1,2.66.026,7.473,7.473,0,0,1,1.461.519l-.231.09a6.146,6.146,0,0,1,3.143-3.239,5.923,5.923,0,0,1,5.85.6,3.948,3.948,0,0,1,.5.423c.106.107.157.166.15.174s-.249-.192-.722-.495a6.193,6.193,0,0,0-2.2-.862,5.678,5.678,0,0,0-3.453.429,5.91,5.91,0,0,0-2.954,3.091l-.068.167-.163-.077a7.245,7.245,0,0,0-1.392-.493,5.521,5.521,0,0,0-2.5-.033,3.985,3.985,0,0,0-2,1.128,3.682,3.682,0,0,0-.98,1.835,2.7,2.7,0,0,0,.249,1.773,2.949,2.949,0,0,0,2.075,1.545,3.5,3.5,0,0,0,1-.02" transform="translate(-198.14 -30.317)" fill="#455a64"/>
        <path id="Trazado_622228" data-name="Trazado 622228" d="M622.15,109.9c-.027-.013.126-.31.286-.885a5.938,5.938,0,0,0,.133-2.506,5.411,5.411,0,0,0-1.757-3.236,5.7,5.7,0,0,0-4.3-1.4l-.251.026.071-.244a6.743,6.743,0,0,0,.258-1.541,7,7,0,0,0-1.629-4.837,6.718,6.718,0,0,0-3.609-2.159,7.234,7.234,0,0,0-2.885-.089c-.678.122-1.04.263-1.051.232a.884.884,0,0,1,.254-.123,5.029,5.029,0,0,1,.771-.239,7.039,7.039,0,0,1,6.759,2.174,7.232,7.232,0,0,1,1.732,5.059,7.04,7.04,0,0,1-.275,1.622l-.18-.217a5.945,5.945,0,0,1,4.534,1.511,5.57,5.57,0,0,1,1.781,3.428,5.689,5.689,0,0,1-.239,2.576,3.932,3.932,0,0,1-.274.643c-.077.14-.121.211-.13.205" transform="translate(-209.011 -31.908)" fill="#455a64"/>
        <path id="Trazado_622229" data-name="Trazado 622229" d="M593.364,98.664c-.009.014-.173-.045-.419-.241a2.927,2.927,0,0,1-.8-1.051,3.44,3.44,0,0,1-.27-1.951,3.663,3.663,0,0,1,1.177-2.1,4.158,4.158,0,0,1,2.174-1.034,4.775,4.775,0,0,1,3.16.65c.263.164.388.283.377.3a12.553,12.553,0,0,0-1.639-.588,4.816,4.816,0,0,0-1.846-.051,4,4,0,0,0-2,.977,3.456,3.456,0,0,0-1.1,1.9,3.34,3.34,0,0,0,.182,1.8,4.19,4.19,0,0,0,1,1.388" transform="translate(-203.648 -31.737)" fill="#455a64"/>
        <path id="Trazado_622230" data-name="Trazado 622230" d="M606.721,152.939c-.007.009-.079-.035-.209-.129a4.285,4.285,0,0,1-.533-.458,6.156,6.156,0,0,1-1.511-6.006,6.317,6.317,0,0,1,2.948-3.614,5.968,5.968,0,0,1,1.843-.674l-.094.279a4.771,4.771,0,0,1-1.146-3.817,4.451,4.451,0,0,1,1.567-2.8,4.523,4.523,0,0,1,1.908-.96,3.036,3.036,0,0,1,.57-.082c.131,0,.2,0,.2.009,0,.028-.27.05-.74.19a4.755,4.755,0,0,0-1.793,1.011,4.286,4.286,0,0,0-1.419,2.668,4.512,4.512,0,0,0,1.1,3.55l.2.224-.3.056a5.7,5.7,0,0,0-1.736.64,6.079,6.079,0,0,0-2.815,3.409,5.938,5.938,0,0,0,.062,3.648,6.434,6.434,0,0,0,1.246,2.174c.4.447.666.651.645.677" transform="translate(-207.911 -46.344)" fill="#455a64"/>
        <path id="Trazado_622231" data-name="Trazado 622231" d="M604.336,105.388l-.468-2.117a15.464,15.464,0,0,0-1.507,9.938c.289,1.56.809,3.234.133,4.67-.462.981-1.408,1.652-1.949,2.591-.685,1.188-.18,4.316-.356,4.932-.4,1.4-1.76,2.3-2.08,4s.087,3.744,1.61,4.555c2.868-4.73,5.8-9.644,6.477-15.134.556-4.521-.475-9.089-1.861-13.429" transform="translate(-205.773 -35.535)" fill="#263238"/>
        <path id="Trazado_622232" data-name="Trazado 622232" d="M617.7,117.19a.645.645,0,0,1-.245.014,5.262,5.262,0,0,1-.7-.073,4.788,4.788,0,0,1-2.349-1.057,3.64,3.64,0,0,1-1.026-1.492,2.78,2.78,0,0,1,.035-2.086,2.548,2.548,0,0,1,1.771-1.475,1.857,1.857,0,0,1,1.263.18,1.183,1.183,0,0,1,.613,1.191.964.964,0,0,1-.385.619,1.273,1.273,0,0,1-.66.209,2.454,2.454,0,0,1-1.223-.292A5.872,5.872,0,0,1,613,111.513a5.8,5.8,0,0,1-.967-6.07,4.786,4.786,0,0,1,.323-.622c.089-.134.139-.2.149-.195.027.015-.146.3-.348.865a6.085,6.085,0,0,0-.335,2.472,5.749,5.749,0,0,0,3.123,4.668,2.147,2.147,0,0,0,1.054.251.7.7,0,0,0,.725-.543.844.844,0,0,0-.444-.842,1.534,1.534,0,0,0-1.031-.146,2.242,2.242,0,0,0-1.547,1.276,2.5,2.5,0,0,0-.054,1.862,3.445,3.445,0,0,0,.921,1.406A4.939,4.939,0,0,0,616.786,117c.582.135.917.16.914.189" transform="translate(-210.443 -36.001)" fill="#455a64"/>
      </g>
    </g>
  </g>
</svg>
