<svg xmlns="http://www.w3.org/2000/svg" xmlns:xlink="http://www.w3.org/1999/xlink" width="399" height="89.256" viewBox="0 0 399 89.256">
  <defs>
    <filter id="Trazado_749450" x="0" y="29.9" width="399" height="59" filterUnits="userSpaceOnUse">
      <feOffset dy="3" input="SourceAlpha"/>
      <feGaussianBlur stdDeviation="3" result="blur"/>
      <feFlood flood-opacity="0.161"/>
      <feComposite operator="in" in2="blur"/>
      <feComposite in="SourceGraphic"/>
    </filter>
    <filter id="Trazado_502571" x="0" y="0" width="89.256" height="89.256" filterUnits="userSpaceOnUse">
      <feOffset dy="3" input="SourceAlpha"/>
      <feGaussianBlur stdDeviation="3" result="blur-2"/>
      <feFlood flood-opacity="0.161"/>
      <feComposite operator="in" in2="blur-2"/>
      <feComposite in="SourceGraphic"/>
    </filter>
  </defs>
  <g id="Grupo_1034318" data-name="Grupo 1034318" transform="translate(-210 -1247.744)">
    <g transform="matrix(1, 0, 0, 1, 210, 1247.74)" filter="url(#Trazado_749450)">
      <path id="Trazado_749450-2" data-name="Trazado 749450" d="M0,0H371a10,10,0,0,1,10,10V41H0Z" transform="translate(9 35.9)" fill="#fff"/>
    </g>
    <path id="Trazado_749451" data-name="Trazado 749451" d="M9.15,16.344h-4.7L3.633,19H-.029L5.186,4.781H8.408L13.662,19H9.98ZM5.273,13.7H8.33L6.8,8.766Zm13.74,2.959a1.464,1.464,0,0,0,1.074-.376,1.379,1.379,0,0,0,.371-1.05h3.086A3.653,3.653,0,0,1,22.3,18.082,4.631,4.631,0,0,1,19.092,19.2a4.689,4.689,0,0,1-3.633-1.445,5.7,5.7,0,0,1-1.328-4v-.137a6.436,6.436,0,0,1,.591-2.827,4.3,4.3,0,0,1,1.7-1.885,5.081,5.081,0,0,1,2.637-.659,4.573,4.573,0,0,1,3.271,1.143,4.053,4.053,0,0,1,1.211,3.1H20.459a1.807,1.807,0,0,0-.4-1.26,1.382,1.382,0,0,0-1.074-.439q-1.279,0-1.494,1.631a11.508,11.508,0,0,0-.068,1.426,4.52,4.52,0,0,0,.381,2.207A1.319,1.319,0,0,0,19.014,16.656Zm10.391,0a1.464,1.464,0,0,0,1.074-.376,1.379,1.379,0,0,0,.371-1.05h3.086a3.653,3.653,0,0,1-1.245,2.852A4.631,4.631,0,0,1,29.482,19.2,4.689,4.689,0,0,1,25.85,17.75a5.7,5.7,0,0,1-1.328-4v-.137a6.436,6.436,0,0,1,.591-2.827,4.3,4.3,0,0,1,1.7-1.885,5.081,5.081,0,0,1,2.637-.659,4.573,4.573,0,0,1,3.271,1.143,4.053,4.053,0,0,1,1.211,3.1H30.85a1.807,1.807,0,0,0-.4-1.26,1.382,1.382,0,0,0-1.074-.439q-1.279,0-1.494,1.631a11.508,11.508,0,0,0-.068,1.426,4.52,4.52,0,0,0,.381,2.207A1.319,1.319,0,0,0,29.4,16.656ZM38.8,19H35.5V8.434h3.3ZM35.3,5.709a1.469,1.469,0,0,1,.508-1.152,2.159,2.159,0,0,1,2.637,0,1.469,1.469,0,0,1,.508,1.152,1.469,1.469,0,0,1-.508,1.152,2.159,2.159,0,0,1-2.637,0A1.469,1.469,0,0,1,35.3,5.709Zm5.107,7.91a6.236,6.236,0,0,1,.615-2.817,4.4,4.4,0,0,1,1.768-1.9A5.323,5.323,0,0,1,45.5,8.238a4.858,4.858,0,0,1,3.74,1.47,5.64,5.64,0,0,1,1.367,4v.117a5.472,5.472,0,0,1-1.372,3.921,4.871,4.871,0,0,1-3.716,1.45,4.927,4.927,0,0,1-3.623-1.353,5.29,5.29,0,0,1-1.475-3.667Zm3.291.205a3.932,3.932,0,0,0,.459,2.148,1.529,1.529,0,0,0,1.357.684q1.758,0,1.8-2.705v-.332q0-2.842-1.816-2.842-1.65,0-1.787,2.451ZM55.078,8.434l.107,1.24A3.583,3.583,0,0,1,58.2,8.238a3.015,3.015,0,0,1,2.466.986,4.7,4.7,0,0,1,.845,2.969V19h-3.3V12.33a1.783,1.783,0,0,0-.322-1.177,1.491,1.491,0,0,0-1.172-.376,1.569,1.569,0,0,0-1.436.762V19H51.992V8.434ZM68.447,19.2a5.432,5.432,0,0,1-3.936-1.45,5.008,5.008,0,0,1-1.5-3.774V13.7a6.489,6.489,0,0,1,.6-2.861,4.395,4.395,0,0,1,1.753-1.919A5.292,5.292,0,0,1,68.1,8.238,4.574,4.574,0,0,1,71.611,9.62,5.43,5.43,0,0,1,72.9,13.473v1.279H66.357a2.372,2.372,0,0,0,.771,1.4,2.3,2.3,0,0,0,1.543.508,2.958,2.958,0,0,0,2.441-1.094l1.5,1.777a4.2,4.2,0,0,1-1.743,1.353A5.891,5.891,0,0,1,68.447,19.2Zm-.371-8.418q-1.445,0-1.719,1.914h3.32v-.254a1.63,1.63,0,0,0-.4-1.226A1.593,1.593,0,0,0,68.076,10.777Zm11.68,5.254a.76.76,0,0,0-.439-.674,6.685,6.685,0,0,0-1.67-.527,7.615,7.615,0,0,1-2.031-.718,3.4,3.4,0,0,1-1.221-1.079,2.577,2.577,0,0,1-.42-1.455,2.92,2.92,0,0,1,1.2-2.4,4.948,4.948,0,0,1,3.145-.942,5.482,5.482,0,0,1,3.359.947,2.962,2.962,0,0,1,1.27,2.49h-3.3q0-1.27-1.338-1.27a1.326,1.326,0,0,0-.869.288.892.892,0,0,0-.352.718.819.819,0,0,0,.43.713,4.06,4.06,0,0,0,1.372.449,11.857,11.857,0,0,1,1.655.42,3.007,3.007,0,0,1,2.383,2.939,2.767,2.767,0,0,1-1.284,2.354,5.631,5.631,0,0,1-3.325.908,5.747,5.747,0,0,1-2.422-.488,4.05,4.05,0,0,1-1.66-1.328,3.007,3.007,0,0,1-.6-1.768h3.076a1.272,1.272,0,0,0,.488,1.069,2.009,2.009,0,0,0,1.2.337,1.58,1.58,0,0,0,1.011-.273A.875.875,0,0,0,79.756,16.031Zm9.277-2.393a6.455,6.455,0,0,1,1.084-3.955,3.568,3.568,0,0,1,3.027-1.445,3.035,3.035,0,0,1,2.383,1.113V4h3.3V19H95.869L95.7,17.867A3.116,3.116,0,0,1,93.125,19.2a3.562,3.562,0,0,1-2.988-1.445A6.659,6.659,0,0,1,89.033,13.639Zm3.291.205q0,2.813,1.641,2.813a1.62,1.62,0,0,0,1.563-.918V11.715a1.576,1.576,0,0,0-1.543-.937q-1.523,0-1.65,2.461ZM105.811,19.2a5.432,5.432,0,0,1-3.936-1.45,5.008,5.008,0,0,1-1.5-3.774V13.7a6.489,6.489,0,0,1,.6-2.861,4.395,4.395,0,0,1,1.753-1.919,5.292,5.292,0,0,1,2.734-.679,4.574,4.574,0,0,1,3.516,1.382,5.43,5.43,0,0,1,1.289,3.853v1.279h-6.543a2.372,2.372,0,0,0,.771,1.4,2.3,2.3,0,0,0,1.543.508,2.958,2.958,0,0,0,2.441-1.094l1.5,1.777a4.2,4.2,0,0,1-1.743,1.353A5.891,5.891,0,0,1,105.811,19.2Zm-.371-8.418q-1.445,0-1.719,1.914h3.32v-.254a1.63,1.63,0,0,0-.4-1.226A1.593,1.593,0,0,0,105.439,10.777ZM120.039,19h-3.3V4h3.3Zm7.979,0a3.716,3.716,0,0,1-.312-.947,3.06,3.06,0,0,1-2.539,1.143,3.749,3.749,0,0,1-2.539-.9,2.875,2.875,0,0,1-1.045-2.271,2.955,2.955,0,0,1,1.27-2.6,6.468,6.468,0,0,1,3.691-.879h1.016v-.559q0-1.462-1.26-1.462a1.03,1.03,0,0,0-1.172,1.158h-3.291a2.95,2.95,0,0,1,1.3-2.487,5.479,5.479,0,0,1,3.325-.956,4.8,4.8,0,0,1,3.193.986,3.429,3.429,0,0,1,1.2,2.705v4.678a4.79,4.79,0,0,0,.449,2.227V19Zm-2.061-2.148a1.836,1.836,0,0,0,1.021-.264,1.653,1.653,0,0,0,.581-.6V14.3H126.6q-1.719,0-1.719,1.543a.942.942,0,0,0,.3.728A1.1,1.1,0,0,0,125.957,16.852Zm16.172-.2a1.464,1.464,0,0,0,1.074-.376,1.379,1.379,0,0,0,.371-1.05h3.086a3.653,3.653,0,0,1-1.245,2.852,4.631,4.631,0,0,1-3.208,1.113,4.689,4.689,0,0,1-3.633-1.445,5.7,5.7,0,0,1-1.328-4v-.137a6.436,6.436,0,0,1,.591-2.827,4.3,4.3,0,0,1,1.7-1.885,5.081,5.081,0,0,1,2.637-.659,4.573,4.573,0,0,1,3.271,1.143,4.053,4.053,0,0,1,1.211,3.1h-3.086a1.807,1.807,0,0,0-.4-1.26,1.382,1.382,0,0,0-1.074-.439q-1.279,0-1.494,1.631a11.507,11.507,0,0,0-.068,1.426,4.52,4.52,0,0,0,.381,2.207A1.319,1.319,0,0,0,142.129,16.656Zm5.508-3.037a6.236,6.236,0,0,1,.615-2.817,4.4,4.4,0,0,1,1.768-1.9,5.323,5.323,0,0,1,2.705-.664,4.858,4.858,0,0,1,3.74,1.47,5.64,5.64,0,0,1,1.367,4v.117a5.472,5.472,0,0,1-1.372,3.921,4.871,4.871,0,0,1-3.716,1.45,4.927,4.927,0,0,1-3.623-1.353,5.29,5.29,0,0,1-1.475-3.667Zm3.291.205a3.932,3.932,0,0,0,.459,2.148,1.529,1.529,0,0,0,1.357.684q1.758,0,1.8-2.705v-.332q0-2.842-1.816-2.842-1.65,0-1.787,2.451Zm11.465-5.391.107,1.24a3.633,3.633,0,0,1,3.018-1.436,2.675,2.675,0,0,1,2.705,1.592,3.516,3.516,0,0,1,3.105-1.592q3.213,0,3.3,3.887V19h-3.3V12.33a2.014,2.014,0,0,0-.273-1.182,1.164,1.164,0,0,0-1-.371,1.559,1.559,0,0,0-1.455.869l.01.137V19h-3.3V12.35a2.117,2.117,0,0,0-.264-1.2,1.161,1.161,0,0,0-1.006-.371,1.578,1.578,0,0,0-1.445.869V19h-3.291V8.434Zm23.926,5.361a6.372,6.372,0,0,1-1.108,3.931,3.554,3.554,0,0,1-2.993,1.47,3.046,3.046,0,0,1-2.393-1.064v4.932h-3.291V8.434h3.076l.1.977a3.046,3.046,0,0,1,2.49-1.172,3.582,3.582,0,0,1,3.037,1.44,6.45,6.45,0,0,1,1.084,3.96Zm-3.291-.205q0-2.812-1.641-2.812a1.549,1.549,0,0,0-1.562.84v4.16a1.6,1.6,0,0,0,1.582.879q1.572,0,1.621-2.715Zm9.854,5.605a5.432,5.432,0,0,1-3.936-1.45,5.008,5.008,0,0,1-1.5-3.774V13.7a6.489,6.489,0,0,1,.6-2.861,4.395,4.395,0,0,1,1.753-1.919,5.292,5.292,0,0,1,2.734-.679,4.574,4.574,0,0,1,3.516,1.382,5.43,5.43,0,0,1,1.289,3.853v1.279h-6.543a2.372,2.372,0,0,0,.771,1.4,2.3,2.3,0,0,0,1.543.508,2.958,2.958,0,0,0,2.441-1.094l1.5,1.777a4.2,4.2,0,0,1-1.743,1.353A5.891,5.891,0,0,1,192.881,19.2Zm-.371-8.418q-1.445,0-1.719,1.914h3.32v-.254a1.63,1.63,0,0,0-.4-1.226A1.593,1.593,0,0,0,192.51,10.777Zm9.98-4.971V8.434h1.738v2.285H202.49v4.834a1.234,1.234,0,0,0,.215.83,1.152,1.152,0,0,0,.85.234,4.828,4.828,0,0,0,.82-.059v2.354a6.074,6.074,0,0,1-1.855.283,3.448,3.448,0,0,1-2.51-.8,3.282,3.282,0,0,1-.811-2.432V10.719h-1.348V8.434H199.2V5.807ZM210.635,19.2a5.432,5.432,0,0,1-3.936-1.45,5.008,5.008,0,0,1-1.5-3.774V13.7a6.489,6.489,0,0,1,.6-2.861,4.395,4.395,0,0,1,1.753-1.919,5.292,5.292,0,0,1,2.734-.679A4.574,4.574,0,0,1,213.8,9.62a5.43,5.43,0,0,1,1.289,3.853v1.279h-6.543a2.372,2.372,0,0,0,.771,1.4,2.3,2.3,0,0,0,1.543.508,2.958,2.958,0,0,0,2.441-1.094l1.5,1.777a4.2,4.2,0,0,1-1.743,1.353A5.891,5.891,0,0,1,210.635,19.2Zm-.371-8.418q-1.445,0-1.719,1.914h3.32v-.254a1.63,1.63,0,0,0-.4-1.226A1.593,1.593,0,0,0,210.264,10.777Zm9.17-2.344.107,1.24a3.583,3.583,0,0,1,3.018-1.436,3.015,3.015,0,0,1,2.466.986,4.7,4.7,0,0,1,.845,2.969V19h-3.3V12.33a1.783,1.783,0,0,0-.322-1.177,1.491,1.491,0,0,0-1.172-.376,1.569,1.569,0,0,0-1.436.762V19h-3.291V8.434Zm12.725,8.223a1.464,1.464,0,0,0,1.074-.376,1.379,1.379,0,0,0,.371-1.05h3.086a3.653,3.653,0,0,1-1.245,2.852,4.631,4.631,0,0,1-3.208,1.113A4.689,4.689,0,0,1,228.6,17.75a5.7,5.7,0,0,1-1.328-4v-.137a6.436,6.436,0,0,1,.591-2.827,4.3,4.3,0,0,1,1.7-1.885,5.081,5.081,0,0,1,2.637-.659,4.573,4.573,0,0,1,3.271,1.143,4.053,4.053,0,0,1,1.211,3.1H233.6a1.807,1.807,0,0,0-.4-1.26,1.382,1.382,0,0,0-1.074-.439q-1.279,0-1.494,1.631a11.507,11.507,0,0,0-.068,1.426,4.52,4.52,0,0,0,.381,2.207A1.319,1.319,0,0,0,232.158,16.656ZM241.553,19h-3.3V8.434h3.3Zm-3.5-13.291a1.469,1.469,0,0,1,.508-1.152,2.159,2.159,0,0,1,2.637,0,1.469,1.469,0,0,1,.508,1.152,1.469,1.469,0,0,1-.508,1.152,2.159,2.159,0,0,1-2.637,0A1.469,1.469,0,0,1,238.057,5.709ZM249.531,19a3.716,3.716,0,0,1-.312-.947A3.06,3.06,0,0,1,246.68,19.2a3.749,3.749,0,0,1-2.539-.9,2.875,2.875,0,0,1-1.045-2.271,2.955,2.955,0,0,1,1.27-2.6,6.468,6.468,0,0,1,3.691-.879h1.016v-.559q0-1.462-1.26-1.462a1.03,1.03,0,0,0-1.172,1.158H243.35a2.95,2.95,0,0,1,1.3-2.487,5.479,5.479,0,0,1,3.325-.956,4.8,4.8,0,0,1,3.193.986,3.429,3.429,0,0,1,1.2,2.705v4.678a4.79,4.79,0,0,0,.449,2.227V19Zm-2.061-2.148a1.836,1.836,0,0,0,1.021-.264,1.653,1.653,0,0,0,.581-.6V14.3h-.957q-1.719,0-1.719,1.543a.942.942,0,0,0,.3.728A1.1,1.1,0,0,0,247.471,16.852Z" transform="translate(327.94 1290.643)" fill="#12263f"/>
    <path id="Trazado_194609" data-name="Trazado 194609" d="M0,0,84.875,40H0Z" transform="translate(219 1284.643)" fill="#ffb338"/>
    <g id="tarea-completada" transform="translate(219 1253.744)">
      <path id="Trazado_203286" data-name="Trazado 203286" d="M0,20.438ZM4.438,16" transform="translate(13.875 -13.525)" fill="#cee4c6"/>
      <g transform="matrix(1, 0, 0, 1, -9, -6)" filter="url(#Trazado_502571)">
        <path id="Trazado_502571-2" data-name="Trazado 502571" d="M295.256,259.628A35.628,35.628,0,1,1,259.628,224,35.629,35.629,0,0,1,295.256,259.628Zm0,0" transform="translate(-215 -218)" fill="#cee4c6"/>
      </g>
    </g>
    <path id="Trazado_749151" data-name="Trazado 749151" d="M57.515,166.236a2.869,2.869,0,0,0-2.866-2.866H51.621l-2.665-2.7a4.287,4.287,0,0,0-4.987-.815l-7.313,3.685c-.924.538-2.686.348-3.719.376a.943.943,0,0,0-.937.949h0l.15,11.266a.937.937,0,0,0,.759.907c-.041-.044,1.377.326,2.606.543a.939.939,0,0,0,.212-1.85c-.685-.16-1.28-.289-1.713-.38l-.128-9.561a7.132,7.132,0,0,0,3.615-.579l7.311-3.683a2.417,2.417,0,0,1,2.811.46l3.688,3.734a.768.768,0,0,1,0,1.087h0L47.768,170.4a.955.955,0,0,1-1.441-1.243l2.033-2.67a.972.972,0,1,0-1.394-1.26,5.946,5.946,0,0,1-1.284-1.406.937.937,0,0,0-1.779.592c.129.391.475,1,1.919,2.311l-.99,1.3a2.832,2.832,0,0,0,3.295,4.329.932.932,0,0,0,.871.607s4.411,0,4.411,0a.993.993,0,1,1,0,1.985s-5.277-.008-5.307,0a2.754,2.754,0,0,0-2.728,2.718,2.789,2.789,0,0,0,.125.828,9.3,9.3,0,0,1-3.041-.611,21.189,21.189,0,0,0-2.916-1.112.938.938,0,1,0-.558,1.79h0a19.389,19.389,0,0,1,2.655,1.008c1.281.651,3.848.92,7.082.89,3.115-.279,6.3.583,6.645-2.859a2.62,2.62,0,0,0-.341-1.275,2.889,2.889,0,0,0,.75-3.981,3.1,3.1,0,0,0,.584-3.816,2.854,2.854,0,0,0,1.155-2.286Zm-1.875,0c-.036,1.277-1.547.961-2.415.991a2.652,2.652,0,0,0-.023-1.983h1.447a.993.993,0,0,1,.991.991Zm-.771,3.64c.052.584-.082,1.18-.779,1.207H49.724L51.68,169.1h1.973c.583-.051,1.188.073,1.216.774Zm-2.1,8.49a35.428,35.428,0,0,1-4.72.158.856.856,0,0,1,.057-1.709c1.077,0,3.534.008,4.634,0a.775.775,0,0,1,.029,1.546Z" transform="translate(195.805 1118.441)"/>
    <path id="Trazado_749152" data-name="Trazado 749152" d="M76.2,248.252a.937.937,0,0,0-.233-1.86,4.437,4.437,0,0,1-2.789-.428.937.937,0,0,0-1.278.348h0C71.124,248.2,74.952,248.453,76.2,248.252Z" transform="translate(160.668 1042.125)"/>
    <path id="Trazado_749153" data-name="Trazado 749153" d="M287.642,164.2a.938.938,0,0,0-.667-.279h-2.118a4.139,4.139,0,0,1-2.1-.629.937.937,0,0,0-.852,1.67,7.019,7.019,0,0,0,4.116.834l-.128,9.558a42.871,42.871,0,0,0-8.441,2.524,9.3,9.3,0,0,1-3.044.613,2.927,2.927,0,0,0,.122-1,2.745,2.745,0,0,0-2.725-2.55c-.422,0-5.033,0-5.307,0a.993.993,0,1,1,0-1.985h0c.936,0,3.442,0,4.411,0a.932.932,0,0,0,.87-.606,2.825,2.825,0,0,0,3.292-4.333l-.989-1.3c1.445-1.308,1.791-1.922,1.92-2.312a.938.938,0,0,0-1.778-.594,5.826,5.826,0,0,1-1.285,1.409.958.958,0,1,0-1.393,1.259l2.03,2.666a.955.955,0,0,1-1.434,1.252l-3.547-3.594a.768.768,0,0,1,0-1.086h0l3.683-3.729a2.416,2.416,0,0,1,2.81-.461l3.065,1.547a.937.937,0,0,0,.845-1.673l-3.066-1.548a4.289,4.289,0,0,0-4.987.817l-2.664,2.7h-3.029a2.868,2.868,0,0,0-1.71,5.152,3.1,3.1,0,0,0,.583,3.816,2.889,2.889,0,0,0,.75,3.981,2.653,2.653,0,0,0,2.1,3.915c2.514.3,9.736.39,11.289-.673,2.887-1.408,8.665-2.507,8.723-2.518a.937.937,0,0,0,.764-.908l.15-11.266a.938.938,0,0,0-.27-.671Zm-21.825,4.9h2.415l1.956,1.982h-4.366c-1.067.018-1.087-1.989,0-1.982Zm-.554-3.857h1.448a2.651,2.651,0,0,0-.025,1.983h-1.422a.991.991,0,0,1,0-1.983Zm7.4,12.415a.859.859,0,0,1-.79.865,35.575,35.575,0,0,1-4.736-.159.775.775,0,0,1,.04-1.545c.034,0,4.634,0,4.634,0a.84.84,0,0,1,.853.826c0,.006,0,.012,0,.018Z" transform="translate(-7.619 1118.442)"/>
    <path id="Trazado_749154" data-name="Trazado 749154" d="M395.6,247.2c-.112,1.067,1.07,1.134,1.839,1.113,1.194-.04,3.958-.373,3.276-2a.935.935,0,0,0-1.275-.351l0,0a4.448,4.448,0,0,1-2.789.428.939.939,0,0,0-1.047.813Z" transform="translate(-125.192 1042.128)"/>
    <path id="Trazado_749155" data-name="Trazado 749155" d="M168.7,109.262a.937.937,0,0,0,1.652-.884l-1.655-3.091a.937.937,0,0,0-1.652.884Z" transform="translate(76.674 1166.639)"/>
    <path id="Trazado_749156" data-name="Trazado 749156" d="M315.479,109.554a.938.938,0,0,0,1.269-.385l1.655-3.091a.937.937,0,1,0-1.651-.886v0l-1.655,3.091a.937.937,0,0,0,.383,1.269Z" transform="translate(-54.024 1166.73)"/>
    <path id="Trazado_749157" data-name="Trazado 749157" d="M200.141,80.058a.937.937,0,0,0,1.749-.674l-.965-2.505a.937.937,0,0,0-1.749.674Z" transform="translate(48.268 1191.811)"/>
    <path id="Trazado_749158" data-name="Trazado 749158" d="M289.282,80.5a.939.939,0,0,0,1.211-.538l.965-2.505a.937.937,0,0,0-1.748-.677v0l-.965,2.505a.938.938,0,0,0,.538,1.212Z" transform="translate(-30.803 1191.908)"/>
    <path id="Trazado_749159" data-name="Trazado 749159" d="M248.937,58.182a.937.937,0,0,0,.937-.937h0V55.031a.937.937,0,0,0-1.875,0v2.213a.937.937,0,0,0,.937.937Z" transform="translate(5.112 1211.406)"/>
    <path id="Trazado_749160" data-name="Trazado 749160" d="M169.919,365.022a.937.937,0,0,0-1.268.384h0L167,368.5a.937.937,0,1,0,1.651.886v0l1.655-3.091a.937.937,0,0,0-.384-1.269Z" transform="translate(76.725 937.005)"/>
    <path id="Trazado_749161" data-name="Trazado 749161" d="M316.794,365.5a.937.937,0,0,0-1.652.884l1.655,3.091a.937.937,0,0,0,1.652-.884Z" transform="translate(-54.071 936.916)"/>
    <path id="Trazado_749162" data-name="Trazado 749162" d="M201.314,398.485a.939.939,0,0,0-1.211.538l-.965,2.505a.937.937,0,1,0,1.748.677v0l.965-2.505a.937.937,0,0,0-.538-1.212Z" transform="translate(48.305 907.42)"/>
    <path id="Trazado_749163" data-name="Trazado 749163" d="M290.527,399.106a.937.937,0,0,0-1.749.674l.965,2.505a.937.937,0,0,0,1.749-.674Z" transform="translate(-30.836 907.337)"/>
    <path id="Trazado_749164" data-name="Trazado 749164" d="M248.937,423.016a.937.937,0,0,0-.937.937h0v2.213a.937.937,0,0,0,1.875,0v-2.213a.937.937,0,0,0-.937-.937Z" transform="translate(5.112 885.708)"/>
  </g>
</svg>
