<svg xmlns="http://www.w3.org/2000/svg" width="97.864" height="103.367" viewBox="0 0 97.864 103.367">
  <g id="Grupo_877831" data-name="Grupo 877831" transform="translate(-14.566 -0.99)">
    <g id="Grupo_877830" data-name="Grupo 877830" transform="translate(16.189 2.614)">
      <g id="Grupo_877824" data-name="Grupo 877824" transform="translate(0)">
        <path id="Trazado_625709" data-name="Trazado 625709" d="M77.778,103.619H61.988V95.7A39.944,39.944,0,0,1,47.617,89.74l-5.6,5.6L30.848,84.18l5.6-5.6A39.94,39.94,0,0,1,30.5,64.2H22.574V48.415H30.5a39.944,39.944,0,0,1,5.956-14.371l-5.6-5.6L42.013,17.275l5.6,5.6a39.939,39.939,0,0,1,14.371-5.956V9H77.778v7.922a39.944,39.944,0,0,1,14.371,5.956l5.6-5.6L108.918,28.44l-5.6,5.6a39.94,39.94,0,0,1,5.956,14.371h7.922V64.2H109.27a39.944,39.944,0,0,1-5.956,14.371l5.6,5.6L97.753,95.345l-5.6-5.6A39.943,39.943,0,0,1,77.778,95.7v7.922Z" transform="translate(-22.574 -9.001)" fill="#8d9ca8" fill-rule="evenodd"/>
        <circle id="Elipse_6642" data-name="Elipse 6642" cx="30.446" cy="30.446" r="30.446" transform="translate(16.863 16.863)" fill="#eff4f7"/>
      </g>
      <g id="Grupo_877825" data-name="Grupo 877825" transform="translate(36.515 21.914)">
        <path id="Trazado_625710" data-name="Trazado 625710" d="M224.329,197.4a10.794,10.794,0,0,0-21.589,0Z" transform="translate(-202.74 -172.524)" fill="#ffb338" fill-rule="evenodd"/>
        <circle id="Elipse_6643" data-name="Elipse 6643" cx="5.834" cy="5.834" r="5.834" transform="translate(2.536 8.249) rotate(-45)" fill="#ffd6bd"/>
      </g>
      <g id="Grupo_877826" data-name="Grupo 877826" transform="translate(21.645 29.729)">
        <path id="Trazado_625711" data-name="Trazado 625711" d="M150.961,228.266a10.794,10.794,0,0,0-21.589,0Z" transform="translate(-129.372 -204.95)" fill="#617a0b" fill-rule="evenodd"/>
        <circle id="Elipse_6644" data-name="Elipse 6644" cx="5.834" cy="5.834" r="5.834" transform="matrix(0.987, -0.16, 0.16, 0.987, 4.092, 1.867)" fill="#ffd6bd"/>
      </g>
      <g id="Grupo_877827" data-name="Grupo 877827" transform="translate(51.385 28.796)">
        <path id="Trazado_625712" data-name="Trazado 625712" d="M297.7,228.266a10.794,10.794,0,0,0-21.589,0Z" transform="translate(-276.109 -204.017)" fill="#617a0b" fill-rule="evenodd"/>
        <circle id="Elipse_6645" data-name="Elipse 6645" cx="5.834" cy="5.834" r="5.834" transform="translate(3.195 10.781) rotate(-67.486)" fill="#ffd6bd"/>
      </g>
      <g id="Grupo_877829" data-name="Grupo 877829" transform="translate(3.495 45.088)">
        <path id="Trazado_625713" data-name="Trazado 625713" d="M110.064,254.238,136.5,287.064a4.61,4.61,0,0,1-6.52,6.52,4.61,4.61,0,0,1-6.519,6.519l-3.556-3.556a4.61,4.61,0,0,1-6.519,6.519l-6.275-6.275a4.61,4.61,0,0,1-6.519,6.519L74.874,277.6l5.214-23.359Z" transform="translate(-67.769 -249.623)" fill="#ffd6bd" fill-rule="evenodd"/>
        <path id="Trazado_625714" data-name="Trazado 625714" d="M233.22,257.591c-.222.085-8.81-21.61-9.029-21.527-8.248,3.082-14.572,4.206-23.071-2.805a6.89,6.89,0,0,0-8.989-.231l-10.818,9.032a4.253,4.253,0,0,0-1.642,4.226l3.282,15.038c8.343-2.056,8.3-7.993,8.892-14.236.283-2.391,4.146-1.736,9,2.682l19.955,20.246Z" transform="translate(-151.251 -231.469)" fill="#eaab92" fill-rule="evenodd"/>
        <g id="Grupo_877828" data-name="Grupo 877828" transform="translate(0 0.469)">
          <path id="Trazado_625715" data-name="Trazado 625715" d="M386.886,235.423l8.068-1.607a1.611,1.611,0,0,1,1.889,1.261l6.27,31.472a1.611,1.611,0,0,1-1.261,1.889l-8.068,1.607a1.61,1.61,0,0,1-1.888-1.261l-6.27-31.472A1.61,1.61,0,0,1,386.886,235.423Z" transform="translate(-315.515 -233.785)" fill="#2b95f9" fill-rule="evenodd"/>
          <path id="Trazado_625716" data-name="Trazado 625716" d="M56.074,235.423l-8.068-1.607a1.61,1.61,0,0,0-1.889,1.261l-6.27,31.472a1.61,1.61,0,0,0,1.261,1.889l8.068,1.607a1.61,1.61,0,0,0,1.889-1.261l6.27-31.472A1.611,1.611,0,0,0,56.074,235.423Z" transform="translate(-39.817 -233.785)" fill="#2b95f9" fill-rule="evenodd"/>
        </g>
      </g>
    </g>
    <path id="Trazado_625717" data-name="Trazado 625717" d="M109.18,56.194H104l-1.405-7.049A3.225,3.225,0,0,0,98.8,46.612l-3.346.667a32.069,32.069,0,0,0-63.92,0l-3.346-.667a3.225,3.225,0,0,0-3.795,2.534l-1.405,7.049H17.806V43.648h6.3a1.629,1.629,0,0,0,1.6-1.305,38.232,38.232,0,0,1,5.707-13.788,1.623,1.623,0,0,0-.2-2.047l-4.455-4.457,8.871-8.873,4.455,4.459a1.625,1.625,0,0,0,2.046.2,38.118,38.118,0,0,1,13.793-5.715,1.622,1.622,0,0,0,1.3-1.591v-6.3H69.769v6.3a1.622,1.622,0,0,0,1.3,1.591,38.216,38.216,0,0,1,13.793,5.713,1.621,1.621,0,0,0,2.046-.2l4.455-4.459,8.871,8.873-4.455,4.457a1.623,1.623,0,0,0-.2,2.047,38.224,38.224,0,0,1,5.716,13.788,1.619,1.619,0,0,0,1.587,1.305h6.3ZM97.642,82.837l8.039-1.6L99.42,49.794l-8.039,1.6ZM89.23,83.946,93.675,79.5l-4.8-24.075c-5.305,1.645-12.178,2.067-20.36-4.686a5.306,5.306,0,0,0-6.921-.235L50.785,59.536a2.666,2.666,0,0,0-1.1,2.637L52.591,75.5c5.143-1.9,5.5-5.839,5.955-11.119q.057-.6.115-1.21V63.13a3.016,3.016,0,0,1,1.96-2.57c2.294-.855,5.84.693,9.74,4.244a.407.407,0,0,0,.067.061Zm-1.969,6.569a3.013,3.013,0,0,0,.621-3.32L68.144,67.171c-3.326-3.02-5.6-3.675-6.271-3.6-.029.365-.057.73-.1,1.093-.507,5.75-1.08,12.266-10.008,14.467a1.622,1.622,0,0,1-1.243-.2A1.593,1.593,0,0,1,49.8,77.9L46.512,62.864A5.847,5.847,0,0,1,48.7,57.047l3.728-3.111H38.406l-5.162,25.9,20.4,20.4a2.99,2.99,0,0,0,4.225,0,3,3,0,0,0,0-4.226l-5.449-5.45a1.622,1.622,0,0,1,2.294-2.294L66.442,100a2.989,2.989,0,0,0,4.225-4.228L59.723,84.823a1.622,1.622,0,0,1,2.294-2.294l14.5,14.505a2.982,2.982,0,0,0,5.095-2.114,2.94,2.94,0,0,0-.87-2.108v-.006L67.016,79.082a1.622,1.622,0,1,1,2.294-2.294L83.037,90.514v0a3,3,0,0,0,4.225,0Zm-8.9-44.029a9.2,9.2,0,0,0-6.519,2.74C77.817,53.646,82.8,53.7,87,52.59a9.175,9.175,0,0,0-8.632-6.1Zm0-3.243a4.214,4.214,0,1,0-4.216-4.214A4.222,4.222,0,0,0,78.362,43.243Zm-19.08-10.47a4.214,4.214,0,0,0,4.206,4.213h.01a4.212,4.212,0,1,0-4.215-4.213Zm.239,15.241a8.308,8.308,0,0,1,9.693-.726,12.545,12.545,0,0,1,2.438-2.063,9.179,9.179,0,0,0-8.154-5h-.01a9.167,9.167,0,0,0-8.154,5A12.648,12.648,0,0,1,58.824,48.6Zm-10.9-1.528a9.151,9.151,0,0,0-7.7,4.208H56.31l.01-.008A9.221,9.221,0,0,0,48.624,46.486Zm-4.215-7.456a4.215,4.215,0,1,0,4.215-4.213A4.222,4.222,0,0,0,44.409,39.029Zm46.322,9.189,1.52-.3a28.823,28.823,0,0,0-57.506,0l1.51.3a3.2,3.2,0,0,1,1.759,1,12.405,12.405,0,0,1,5.42-4.846A7.454,7.454,0,1,1,56.08,39.029c0,.146-.01.29-.01.434a12.121,12.121,0,0,1,2.237-1.34,7.461,7.461,0,1,1,10.371,0,12.509,12.509,0,0,1,2.246,1.34c-.01-.144-.019-.288-.019-.434a7.456,7.456,0,1,1,12.646,5.349,12.427,12.427,0,0,1,5.42,4.842A3.212,3.212,0,0,1,90.731,48.219ZM29.344,82.837,35.6,51.395l-8.039-1.6L21.3,81.234ZM110.8,40.406H104.19A41.24,41.24,0,0,0,99,27.877l4.674-4.68a1.625,1.625,0,0,0,0-2.292L92.509,9.739a1.624,1.624,0,0,0-2.294,0l-4.674,4.68A41.264,41.264,0,0,0,73.009,9.227V2.611A1.623,1.623,0,0,0,71.384.99H55.6a1.623,1.623,0,0,0-1.625,1.621V9.227a41.309,41.309,0,0,0-12.532,5.192l-4.674-4.68a1.625,1.625,0,0,0-2.294,0L23.312,20.9a1.625,1.625,0,0,0,0,2.292L28,27.877a41.318,41.318,0,0,0-5.2,12.529H16.181a1.62,1.62,0,0,0-1.616,1.621V57.815a1.62,1.62,0,0,0,1.616,1.621h6.156L18.122,80.616a3.191,3.191,0,0,0,.478,2.422,3.243,3.243,0,0,0,2.055,1.374l8.068,1.607a3.17,3.17,0,0,0,.631.063,3.243,3.243,0,0,0,3.126-2.424l18.869,18.877a6.24,6.24,0,0,0,8.813,0,6.118,6.118,0,0,0,1.577-2.655l2.409,2.41a6.245,6.245,0,0,0,8.813,0,6.3,6.3,0,0,0,1.577-2.669,6.222,6.222,0,0,0,10.314-4.7v-.3a6.212,6.212,0,0,0,4.7-1.816,6.292,6.292,0,0,0,1.568-6.163l3.317-3.318.029.16a3.231,3.231,0,0,0,3.164,2.6,3.187,3.187,0,0,0,.631-.063l8.068-1.607a3.223,3.223,0,0,0,2.533-3.8l-4.215-21.179H110.8a1.628,1.628,0,0,0,1.625-1.621V42.027a1.628,1.628,0,0,0-1.625-1.621Z" fill-rule="evenodd"/>
  </g>
</svg>
