<svg xmlns="http://www.w3.org/2000/svg" xmlns:xlink="http://www.w3.org/1999/xlink" width="610.001" height="224" viewBox="0 0 610.001 224">
  <defs>
    <clipPath id="clip-path">
      <rect id="Rectángulo_356437" data-name="Rectángulo 356437" width="55.39" height="57.883" fill="none"/>
    </clipPath>
    <clipPath id="clip-path-3">
      <rect id="Rectángulo_356427" data-name="Rectángulo 356427" width="24.835" height="42.119" fill="none"/>
    </clipPath>
    <clipPath id="clip-path-4">
      <rect id="Rectángulo_356428" data-name="Rectángulo 356428" width="10.462" height="2.021" fill="none"/>
    </clipPath>
    <clipPath id="clip-path-5">
      <rect id="Rectángulo_356429" data-name="Rectángulo 356429" width="9.981" height="3.88" fill="none"/>
    </clipPath>
    <clipPath id="clip-path-6">
      <rect id="Rectángulo_356430" data-name="Rectángulo 356430" width="10.465" height="2.021" fill="none"/>
    </clipPath>
    <clipPath id="clip-path-7">
      <rect id="Rectángulo_356431" data-name="Rectángulo 356431" width="12.117" height="2.212" fill="none"/>
    </clipPath>
    <clipPath id="clip-path-8">
      <rect id="Rectángulo_356432" data-name="Rectángulo 356432" width="16.877" height="18.84" fill="none"/>
    </clipPath>
    <clipPath id="clip-path-9">
      <rect id="Rectángulo_356433" data-name="Rectángulo 356433" width="24.835" height="44.637" fill="none"/>
    </clipPath>
    <clipPath id="clip-path-10">
      <rect id="Rectángulo_356434" data-name="Rectángulo 356434" width="50.631" height="56.521" fill="none"/>
    </clipPath>
    <clipPath id="clip-path-11">
      <rect id="Rectángulo_356435" data-name="Rectángulo 356435" width="30.573" height="56.999" fill="none"/>
    </clipPath>
    <clipPath id="clip-path-12">
      <rect id="Rectángulo_356438" data-name="Rectángulo 356438" width="79.431" height="120.063" fill="none"/>
    </clipPath>
    <clipPath id="clip-path-13">
      <rect id="Rectángulo_356439" data-name="Rectángulo 356439" width="70.634" height="114.578" fill="none"/>
    </clipPath>
    <clipPath id="clip-path-14">
      <rect id="Rectángulo_356440" data-name="Rectángulo 356440" width="43.263" height="115.169" fill="none"/>
    </clipPath>
    <clipPath id="clip-path-15">
      <rect id="Rectángulo_356444" data-name="Rectángulo 356444" width="85.064" height="49.107" fill="none"/>
    </clipPath>
    <clipPath id="clip-path-16">
      <rect id="Rectángulo_356441" data-name="Rectángulo 356441" width="0.298" height="8.952" fill="none"/>
    </clipPath>
    <clipPath id="clip-path-17">
      <rect id="Rectángulo_356442" data-name="Rectángulo 356442" width="0.332" height="7.795" fill="none"/>
    </clipPath>
    <clipPath id="clip-path-18">
      <rect id="Rectángulo_356443" data-name="Rectángulo 356443" width="45.322" height="26.216" fill="none"/>
    </clipPath>
    <clipPath id="clip-path-19">
      <rect id="Rectángulo_356445" data-name="Rectángulo 356445" width="40.982" height="50.304" fill="none"/>
    </clipPath>
    <clipPath id="clip-path-20">
      <rect id="Rectángulo_356446" data-name="Rectángulo 356446" width="50.082" height="35.789" fill="none"/>
    </clipPath>
  </defs>
  <g id="Grupo_878401" data-name="Grupo 878401" transform="translate(-810 -5966)">
    <g id="Grupo_878399" data-name="Grupo 878399" transform="translate(0 -10)">
      <g id="Grupo_878371" data-name="Grupo 878371" transform="translate(1231.264 5998.88)">
        <g id="Grupo_878370" data-name="Grupo 878370">
          <g id="Grupo_878369" data-name="Grupo 878369" clip-path="url(#clip-path)">
            <g id="Grupo_878368" data-name="Grupo 878368" style="isolation: isolate">
              <g id="Grupo_878367" data-name="Grupo 878367">
                <g id="Grupo_878366" data-name="Grupo 878366" clip-path="url(#clip-path)">
                  <g id="Grupo_878341" data-name="Grupo 878341" transform="translate(24.929 9.457)">
                    <g id="Grupo_878340" data-name="Grupo 878340">
                      <g id="Grupo_878339" data-name="Grupo 878339" clip-path="url(#clip-path-3)">
                        <path id="Trazado_622076" data-name="Trazado 622076" d="M1873.093,91.094c-.214,12.1-9.219,22.437-20.074,23.032l4.756,1.362c10.856-.6,19.861-10.928,20.075-23.032.134-7.566-3.2-14.063-8.368-17.725l-.555-.159-.589-.169-.611-.175-.623-.178-.623-.178-.611-.175-.589-.169-.556-.159c5.169,3.662,8.5,10.158,8.367,17.725" transform="translate(-1853.019 -73.369)" fill="#c1272d"/>
                      </g>
                    </g>
                  </g>
                  <g id="Grupo_878344" data-name="Grupo 878344" transform="translate(19.222 49.582)">
                    <g id="Grupo_878343" data-name="Grupo 878343">
                      <g id="Grupo_878342" data-name="Grupo 878342" clip-path="url(#clip-path-4)">
                        <path id="Trazado_622077" data-name="Trazado 622077" d="M1835.03,240.638a17.238,17.238,0,0,1-5.706-.632l4.757,1.362a17.236,17.236,0,0,0,5.7.632,33.158,33.158,0,0,0-4.756-1.362" transform="translate(-1829.323 -240.006)" fill="#c1272d"/>
                      </g>
                    </g>
                  </g>
                  <g id="Grupo_878347" data-name="Grupo 878347" transform="translate(31.411 6.939)">
                    <g id="Grupo_878346" data-name="Grupo 878346">
                      <g id="Grupo_878345" data-name="Grupo 878345" clip-path="url(#clip-path-5)">
                        <path id="Trazado_622078" data-name="Trazado 622078" d="M1879.942,62.913a17.239,17.239,0,0,1,5.224,2.518l4.756,1.362a17.235,17.235,0,0,0-5.224-2.518l-4.756-1.362" transform="translate(-1879.942 -62.913)" fill="#c1272d"/>
                      </g>
                    </g>
                  </g>
                  <g id="Grupo_878350" data-name="Grupo 878350" transform="translate(25.705 6.28)">
                    <g id="Grupo_878349" data-name="Grupo 878349">
                      <g id="Grupo_878348" data-name="Grupo 878348" clip-path="url(#clip-path-6)">
                        <path id="Trazado_622079" data-name="Trazado 622079" d="M1866.708,62.2l-4.756-1.362a17.242,17.242,0,0,0-5.707-.632L1861,61.566a17.235,17.235,0,0,1,5.706.632" transform="translate(-1856.244 -60.177)" fill="#fff"/>
                      </g>
                    </g>
                  </g>
                  <g id="Grupo_878353" data-name="Grupo 878353" transform="translate(25.818)">
                    <g id="Grupo_878352" data-name="Grupo 878352">
                      <g id="Grupo_878351" data-name="Grupo 878351" clip-path="url(#clip-path-7)">
                        <path id="Trazado_622080" data-name="Trazado 622080" d="M1868.822,36.307l-4.757-1.362a22.231,22.231,0,0,0-7.36-.815l4.757,1.362a22.224,22.224,0,0,1,7.36.815" transform="translate(-1856.706 -34.095)" fill="#bc5824"/>
                      </g>
                    </g>
                  </g>
                  <g id="Grupo_878356" data-name="Grupo 878356" transform="translate(21.484 20.367)">
                    <g id="Grupo_878355" data-name="Grupo 878355" transform="translate(0 0)">
                      <g id="Grupo_878354" data-name="Grupo 878354" clip-path="url(#clip-path-8)">
                        <path id="Trazado_622081" data-name="Trazado 622081" d="M1847.316,118.692c4.653-.255,8.363,3.758,8.271,8.946s-3.951,9.616-8.6,9.871-8.362-3.758-8.271-8.946,3.951-9.616,8.6-9.871" transform="translate(-1838.711 -118.68)" fill="#fff"/>
                      </g>
                    </g>
                  </g>
                  <path id="Trazado_622082" data-name="Trazado 622082" d="M1791.988,89.577c-.214,12.1,8.444,21.47,19.3,20.875s19.861-10.928,20.075-23.032-8.442-21.47-19.3-20.875-19.861,10.928-20.075,23.032m5.625-.308c.153-8.645,6.587-16.027,14.339-16.452s13.937,6.265,13.784,14.911-6.584,16.027-14.339,16.451-13.937-6.263-13.784-14.91" transform="translate(-1781.752 -58.71)" fill="#fff"/>
                  <g id="Grupo_878359" data-name="Grupo 878359" transform="translate(5.627 6.307)">
                    <g id="Grupo_878358" data-name="Grupo 878358">
                      <g id="Grupo_878357" data-name="Grupo 878357" clip-path="url(#clip-path-9)">
                        <path id="Trazado_622083" data-name="Trazado 622083" d="M1786.455,103.563l4.756,1.362c-8.024-2.3-13.767-10.357-13.592-20.242.214-12.1,9.22-22.437,20.075-23.032l-4.757-1.362c-10.854.595-19.861,10.928-20.075,23.032-.175,9.886,5.568,17.944,13.592,20.242" transform="translate(-1772.859 -60.288)" fill="#fff"/>
                      </g>
                    </g>
                  </g>
                  <g id="Grupo_878362" data-name="Grupo 878362" transform="translate(4.758 1.362)">
                    <g id="Grupo_878361" data-name="Grupo 878361">
                      <g id="Grupo_878360" data-name="Grupo 878360" clip-path="url(#clip-path-10)">
                        <path id="Trazado_622084" data-name="Trazado 622084" d="M1819.876,66.626c-.275,15.589-11.831,28.847-25.81,29.613s-25.088-11.25-24.812-26.838,11.832-28.847,25.811-29.613,25.087,11.25,24.811,26.839" transform="translate(-1769.249 -39.753)" fill="#eb6f2d"/>
                      </g>
                    </g>
                  </g>
                  <path id="Trazado_622085" data-name="Trazado 622085" d="M1815.351,109.07a16.345,16.345,0,0,0,1.368,6.943q.245.549.527,1.071.256.471.542.916c.11.171.224.339.341.5a13.873,13.873,0,0,0,.931,1.182c.11.124.222.246.336.366.276.292.564.57.863.834q.157.138.318.27a12.611,12.611,0,0,0,2.336,1.53c.153.078.308.153.465.224.241.11.487.21.736.3q.213.081.428.153.568.19,1.157.325.275.063.555.113a12.336,12.336,0,0,0,1.8.188q.534.016,1.079-.013a13.05,13.05,0,0,0,2.836-.474c.115-.032.229-.066.343-.1q.511-.159,1.01-.359a14.078,14.078,0,0,0,1.3-.6,17.254,17.254,0,0,0,8.849-14.918,15.68,15.68,0,0,0-3.251-10.068c-.072-.091-.146-.181-.219-.269q-.333-.4-.693-.769-.24-.246-.491-.479a12.948,12.948,0,0,0-1.321-1.073q-.276-.2-.563-.377a12.371,12.371,0,0,0-1.488-.8q-.309-.14-.625-.263a12.147,12.147,0,0,0-3.7-.8q-.177-.01-.355-.016c-.356-.011-.717-.007-1.08.013-5.572.306-10.463,4.2-12.83,9.584q-.077.176-.15.353a17.835,17.835,0,0,0-1.358,6.515m5.625-.308c.092-5.188,3.951-9.616,8.6-9.871s8.362,3.758,8.271,8.946-3.951,9.616-8.6,9.871-8.362-3.758-8.271-8.947" transform="translate(-1799.49 -78.512)" fill="#c1272d"/>
                  <g id="Grupo_878365" data-name="Grupo 878365" transform="translate(0 0.035)">
                    <g id="Grupo_878364" data-name="Grupo 878364">
                      <g id="Grupo_878363" data-name="Grupo 878363" clip-path="url(#clip-path-11)">
                        <path id="Trazado_622086" data-name="Trazado 622086" d="M1766.952,89.876l4.757,1.362c-10.316-2.954-17.677-13.3-17.451-26.024.276-15.589,11.831-28.847,25.81-29.613l-4.756-1.362c-13.979.766-25.535,14.024-25.811,29.613-.225,12.725,7.136,23.07,17.451,26.024" transform="translate(-1749.494 -34.239)" fill="#bc5824"/>
                      </g>
                    </g>
                  </g>
                </g>
              </g>
            </g>
          </g>
        </g>
      </g>
      <path id="Trazado_622087" data-name="Trazado 622087" d="M1847.826,117.973c4.652-.255,8.362,3.758,8.271,8.946s-3.951,9.616-8.6,9.871-8.362-3.758-8.271-8.946,3.951-9.616,8.6-9.871" transform="translate(-586.35 5901.113)" fill="#fff"/>
      <path id="Trazado_622088" data-name="Trazado 622088" d="M1792.5,88.859c-.215,12.1,8.443,21.469,19.3,20.875s19.861-10.928,20.075-23.032-8.442-21.47-19.3-20.875-19.861,10.928-20.075,23.032m5.625-.308c.153-8.645,6.587-16.027,14.339-16.452s13.937,6.265,13.784,14.911-6.584,16.027-14.339,16.451-13.937-6.263-13.784-14.91" transform="translate(-550.875 5940.715)" fill="#fff"/>
      <path id="Trazado_622089" data-name="Trazado 622089" d="M1815.86,108.352a16.348,16.348,0,0,0,1.368,6.943q.244.549.527,1.071.256.471.543.916c.11.171.224.339.341.5a13.909,13.909,0,0,0,.931,1.182c.11.124.223.246.336.366.277.292.564.57.864.834.1.092.211.182.318.27a12.616,12.616,0,0,0,2.337,1.53c.153.078.308.153.464.224q.362.164.736.3.212.08.428.153.568.19,1.157.325.275.063.554.113a12.344,12.344,0,0,0,1.8.188q.534.016,1.079-.013a13.042,13.042,0,0,0,2.836-.474q.172-.049.343-.1.513-.16,1.011-.359a14.236,14.236,0,0,0,1.3-.6,17.253,17.253,0,0,0,8.849-14.918,15.679,15.679,0,0,0-3.252-10.068q-.108-.137-.219-.269-.334-.4-.693-.769-.24-.246-.491-.479a13,13,0,0,0-1.321-1.073q-.277-.2-.563-.377a12.435,12.435,0,0,0-1.489-.8q-.308-.14-.625-.263a12.148,12.148,0,0,0-3.7-.8q-.177-.01-.355-.016-.534-.016-1.079.013c-5.572.306-10.463,4.2-12.83,9.584-.051.117-.1.235-.15.353a17.84,17.84,0,0,0-1.358,6.515m5.625-.308c.092-5.188,3.95-9.616,8.6-9.871s8.362,3.758,8.271,8.946-3.951,9.616-8.6,9.871-8.362-3.758-8.27-8.946" transform="translate(-568.612 5920.914)" fill="#eb6f2d"/>
      <path id="Trazado_622090" data-name="Trazado 622090" d="M1891.1,168.43l2.051-.783-.785-2.381-2.051.783Z" transform="translate(-625.14 5865.2)"/>
      <path id="Trazado_622091" data-name="Trazado 622091" d="M1875.468,148.854l2.051-.783-5.891-.012-2.052.783Z" transform="translate(-609.396 5878.263)"/>
      <path id="Trazado_622092" data-name="Trazado 622092" d="M1890.512,150.358l2.051-.783.851-1.465-2.051.783Z" transform="translate(-625.291 5878.224)"/>
      <path id="Trazado_622093" data-name="Trazado 622093" d="M1908.205,164.883l2.051-.783-17.693-9.906-2.051.783Z" transform="translate(-625.291 5873.605)"/>
      <path id="Trazado_622094" data-name="Trazado 622094" d="M1964.805,196.175l2.051-.783a3.2,3.2,0,0,0-.529-.3l-2.051.783a3.149,3.149,0,0,1,.529.3" transform="translate(-681.293 5842.558)"/>
      <path id="Trazado_622095" data-name="Trazado 622095" d="M1979.541,227.266l2.051-.783.141-.111-2.051.783Z" transform="translate(-692.882 5818.807)"/>
      <path id="Trazado_622096" data-name="Trazado 622096" d="M1974.924,211.794l2.051-.783q-.648-2.123-1.413-4.156c-.087-.231-.161-.477-.237-.716l-2.051.783c.076.239.15.485.237.716q.768,2.035,1.413,4.156" transform="translate(-688.124 5834.169)"/>
      <path id="Trazado_622097" data-name="Trazado 622097" d="M1968.842,195.627l-2.051.783c.233-.089.508-.1.739-.186l2.051-.783c-.231.09-.506.1-.738.186" transform="translate(-683.202 5842.29)"/>
      <path id="Trazado_622098" data-name="Trazado 622098" d="M1972.332,193.553l2.051-.783a13.791,13.791,0,0,0-2.474.643l-2.051.783a13.8,13.8,0,0,1,2.474-.643" transform="translate(-685.531 5844.318)"/>
      <path id="Trazado_622099" data-name="Trazado 622099" d="M1896.2,162.078a13.8,13.8,0,0,0-2.475.643c-.257.1-.568.1-.814.219a3.181,3.181,0,0,0-.529-.3l-.069.059-17.693-9.905.851-1.465-5.892-.012,5.778,6.525-.785-2.381,17.692,9.909.069.132a2.927,2.927,0,0,0,.528.29c.239.394.542.735.793,1.117q1.142,1.737,2.4,3.377l.141-.111q-.647-2.123-1.412-4.156c-.087-.231-.162-.478-.237-.716a3.6,3.6,0,0,1,.258-.444,20.628,20.628,0,0,0,1.527-2.51Z" transform="translate(-609.396 5875.793)" fill="#58595b"/>
      <path id="Trazado_622100" data-name="Trazado 622100" d="M1973.274,197.607l2.051-.783a3.742,3.742,0,0,1,.258-.444,20.634,20.634,0,0,0,1.527-2.51l-2.051.783a20.7,20.7,0,0,1-1.527,2.51,3.75,3.75,0,0,0-.259.444" transform="translate(-688.124 5843.483)"/>
      <path id="Trazado_622101" data-name="Trazado 622101" d="M1980.268,193.818l2.051-.783-.134-.265-2.051.783Z" transform="translate(-693.332 5844.318)"/>
    </g>
    <path id="Trazado_622102" data-name="Trazado 622102" d="M515.366,597.541l-.035,12.211-74.4,43.235.035-12.211Z" transform="translate(475.24 5537.013)" fill="#4d4d4d"/>
    <path id="Trazado_622103" data-name="Trazado 622103" d="M204.86,640.779l-.035,12.211-74.885-43.235.035-12.211Z" transform="translate(711.348 5537.011)"/>
    <path id="Trazado_622104" data-name="Trazado 622104" d="M279.367,461.224l-74.4,43.235-74.885-43.235,74.4-43.235Z" transform="translate(711.239 5673.33)" fill="#333"/>
    <path id="Trazado_622105" data-name="Trazado 622105" d="M1370.174,597.541l-.035,12.211-74.4,43.235.035-12.211Z" transform="translate(-173.736 5537.013)" fill="#4d4d4d"/>
    <path id="Trazado_622106" data-name="Trazado 622106" d="M1059.669,640.779l-.035,12.211-74.885-43.235.035-12.211Z" transform="translate(62.371 5537.011)"/>
    <path id="Trazado_622107" data-name="Trazado 622107" d="M1134.177,461.224l-74.4,43.235-74.885-43.235,74.4-43.235Z" transform="translate(62.261 5673.33)" fill="#333"/>
    <path id="Trazado_622108" data-name="Trazado 622108" d="M2224.983,597.541l-.035,12.211-74.4,43.235.034-12.211Z" transform="translate(-822.714 5537.013)" fill="#4d4d4d"/>
    <path id="Trazado_622109" data-name="Trazado 622109" d="M1914.478,640.779l-.035,12.211-74.885-43.235.035-12.211Z" transform="translate(-586.606 5537.011)"/>
    <path id="Trazado_622110" data-name="Trazado 622110" d="M1988.984,461.224l-74.4,43.235L1839.7,461.225l74.4-43.235Z" transform="translate(-586.715 5673.33)" fill="#333"/>
    <g id="Grupo_878374" data-name="Grupo 878374" transform="translate(876.449 6019.674)" style="isolation: isolate">
      <g id="Grupo_878373" data-name="Grupo 878373">
        <g id="Grupo_878372" data-name="Grupo 878372" clip-path="url(#clip-path-12)">
          <path id="Trazado_622111" data-name="Trazado 622111" d="M516.32,126.607l-7.583-4.125,14.449-2.031,7.583,4.125Z" transform="translate(-452.686 -120.452)" fill="#bc5824"/>
          <path id="Trazado_622112" data-name="Trazado 622112" d="M411.67,428.449l-7.583-4.125L369.3,378.591l7.583,4.125Z" transform="translate(-346.825 -316.433)" fill="#bc5824"/>
          <path id="Trazado_622113" data-name="Trazado 622113" d="M370.566,180.152l-7.583-4.125,35.1-47.142,7.583,4.125Z" transform="translate(-342.029 -126.854)" fill="#bc5824"/>
          <path id="Trazado_622114" data-name="Trazado 622114" d="M335.312,340.061l-7.583-4.125,8.489-11.272,7.583,4.125Z" transform="translate(-315.264 -275.491)" fill="#bc5824"/>
          <path id="Trazado_622115" data-name="Trazado 622115" d="M284.362,160.129,276.779,156l12.365-1.738,7.583,4.125Z" transform="translate(-276.582 -146.124)" fill="#bc5824"/>
          <path id="Trazado_622116" data-name="Trazado 622116" d="M283.544,271.666l-7.583-4.125.2-106.058,7.583,4.125Z" transform="translate(-275.961 -151.603)" fill="#bc5824"/>
          <path id="Trazado_622117" data-name="Trazado 622117" d="M377.953,137.583l-39,51.678L379.3,243.423l-14.586,2.05-34.786-45.732L319.9,210.65l-.077,41.132-12.366,1.738.2-106.057,12.365-1.738-.1,52.3,8.489-11.272,35.1-47.142Z" transform="translate(-299.87 -133.457)" fill="#eb6f2d"/>
        </g>
      </g>
    </g>
    <g id="Grupo_878377" data-name="Grupo 878377" transform="translate(1102.228 6018.999)" style="isolation: isolate">
      <g id="Grupo_878376" data-name="Grupo 878376">
        <g id="Grupo_878375" data-name="Grupo 878375" clip-path="url(#clip-path-13)">
          <path id="Trazado_622118" data-name="Trazado 622118" d="M1314,322.927l-7.583-4.125q14.651-2.059,21.25-8.1l7.583,4.125q-6.6,6.039-21.25,8.1" transform="translate(-1284.066 -264.215)" fill="#cc8f2c"/>
          <path id="Trazado_622119" data-name="Trazado 622119" d="M1391.978,175.632l7.583,4.125a13.063,13.063,0,0,1,1.176.722q6.107,4.217,6.088,14.448-.021,11.311-6.617,17.355l-7.583-4.125q6.592-6.038,6.617-17.355.019-10.233-6.087-14.448a13.046,13.046,0,0,0-1.176-.721" transform="translate(-1349.028 -161.669)" fill="#cc8f2c"/>
          <path id="Trazado_622120" data-name="Trazado 622120" d="M1272.972,349.855l-7.583-4.125,9.878-1.388,7.583,4.125Z" transform="translate(-1252.921 -289.755)" fill="#cc8f2c"/>
          <path id="Trazado_622121" data-name="Trazado 622121" d="M1348.06,121.021l7.583,4.125q-9.111-4.956-25.613-2.637l-7.583-4.125q16.5-2.319,25.613,2.637" transform="translate(-1296.24 -117.645)" fill="#cc8f2c"/>
          <path id="Trazado_622122" data-name="Trazado 622122" d="M1222.011,128.5l-7.583-4.125,26.01-3.656,7.583,4.125Z" transform="translate(-1214.231 -119.976)" fill="#cc8f2c"/>
          <path id="Trazado_622123" data-name="Trazado 622123" d="M1221.193,246.079l-7.583-4.125.2-106.058,7.583,4.125Z" transform="translate(-1213.61 -131.502)" fill="#cc8f2c"/>
          <path id="Trazado_622124" data-name="Trazado 622124" d="M1271.309,135.516l-26.01,3.656-.2,106.058,12.37-1.739.076-41.276,11.291-1.587q18.682-2.625,28.984-12.739t10.329-26.364q.057-31.194-36.843-26.008m17.388,45.747q-6.6,6.039-21.25,8.1l-9.878,1.388.078-41.929,12.5-1.757q12.972-1.823,19.081,2.394t6.088,14.448q-.021,11.312-6.617,17.355" transform="translate(-1237.519 -130.651)" fill="#ffb338"/>
        </g>
      </g>
    </g>
    <g id="Grupo_878380" data-name="Grupo 878380" transform="translate(1304.781 6024.226)" style="isolation: isolate">
      <g id="Grupo_878379" data-name="Grupo 878379">
        <g id="Grupo_878378" data-name="Grupo 878378" clip-path="url(#clip-path-14)">
          <path id="Trazado_622125" data-name="Trazado 622125" d="M2161.831,546.993l-7.583-4.125,11.552,1.2,7.583,4.125Z" transform="translate(-2130.302 -445.705)" fill="#195995"/>
          <path id="Trazado_622126" data-name="Trazado 622126" d="M2062.381,580.4l-7.583-4.125.014-7.69,7.583,4.125Z" transform="translate(-2054.799 -465.226)" fill="#195995"/>
          <path id="Trazado_622127" data-name="Trazado 622127" d="M2062.441,558.667l-7.583-4.125,11.563-4.453,7.583,4.125Z" transform="translate(-2054.844 -451.187)" fill="#195995"/>
          <path id="Trazado_622128" data-name="Trazado 622128" d="M2110.46,286.6l-7.583-4.125.157-84.878,7.583,4.125Z" transform="translate(-2091.3 -183.572)" fill="#195995"/>
          <path id="Trazado_622129" data-name="Trazado 622129" d="M2063.141,171.878l-7.584-4.125.014-7.69,7.584,4.125Z" transform="translate(-2055.376 -155.076)" fill="#195995"/>
          <path id="Trazado_622130" data-name="Trazado 622130" d="M2063.2,148.465l-7.583-4.125,35.484-4.987,7.583,4.125Z" transform="translate(-2055.42 -139.353)" fill="#195995"/>
          <path id="Trazado_622131" data-name="Trazado 622131" d="M2121.972,156.484l-.014,7.689-11.563,4.6-.157,84.878,11.551,1.2-.014,7.69-35.484,4.987.014-7.689,11.563-4.453.157-84.878-11.551-1.348.014-7.689Z" transform="translate(-2078.708 -152.359)" fill="#2b95f9"/>
        </g>
      </g>
    </g>
    <g id="Grupo_878392" data-name="Grupo 878392" transform="translate(916.943 5966)" style="isolation: isolate">
      <g id="Grupo_878391" data-name="Grupo 878391">
        <g id="Grupo_878390" data-name="Grupo 878390" clip-path="url(#clip-path-15)">
          <path id="Trazado_622132" data-name="Trazado 622132" d="M468.963,62.605l.019-6.869a7.749,7.749,0,0,1,.29-2.07l-.019,6.869a7.744,7.744,0,0,0-.29,2.07" transform="translate(-462.983 -40.744)" fill="#7e94b0"/>
          <path id="Trazado_622133" data-name="Trazado 622133" d="M468.966,68.787h0q.01-3.434.02-6.869h0q-.005,1.717-.01,3.434c0,1.145,0,2.29-.01,3.435" transform="translate(-462.986 -47.009)" fill="#374454"/>
          <path id="Trazado_622134" data-name="Trazado 622134" d="M468.964,68.79c0,.027,0,.055,0,.082L468.982,62c0-.027,0-.055,0-.082q0,1.717-.01,3.434c0,1.145,0,2.29-.01,3.435" transform="translate(-462.983 -47.011)" fill="#374454"/>
          <g id="Grupo_878383" data-name="Grupo 878383" transform="translate(6 14.93)" opacity="0.502">
            <g id="Grupo_878382" data-name="Grupo 878382">
              <g id="Grupo_878381" data-name="Grupo 878381" clip-path="url(#clip-path-16)">
                <path id="Trazado_622135" data-name="Trazado 622135" d="M469.324,70.954a7.85,7.85,0,0,1-.279-2.084l.02-6.869a7.85,7.85,0,0,0,.279,2.084q-.01,3.435-.02,6.869" transform="translate(-469.045 -62.002)" fill="#b3c0d0"/>
              </g>
            </g>
          </g>
          <g id="Grupo_878386" data-name="Grupo 878386" transform="translate(6.276 17.013)" opacity="0.502">
            <g id="Grupo_878385" data-name="Grupo 878385">
              <g id="Grupo_878384" data-name="Grupo 878384" clip-path="url(#clip-path-17)">
                <path id="Trazado_622136" data-name="Trazado 622136" d="M470.2,77.524a.916.916,0,0,1,0-.109q.01-3.38.019-6.76a8.539,8.539,0,0,0,.31.927q-.01,3.434-.019,6.869a8.511,8.511,0,0,1-.31-.927" transform="translate(-470.194 -70.655)" fill="#b3c0d0"/>
              </g>
            </g>
          </g>
          <path id="Trazado_622137" data-name="Trazado 622137" d="M660.393,62.693l-.019,6.869c-.01,3.635-2.091,7.287-6.356,10.319l.019-6.869c4.265-3.032,6.346-6.685,6.356-10.319" transform="translate(-603.478 -47.597)" fill="#223041"/>
          <path id="Trazado_622138" data-name="Trazado 622138" d="M665.757,104.587l-.019,6.869-1.789,1.274.019-6.869Z" transform="translate(-611.018 -79.403)" fill="#374454"/>
          <path id="Trazado_622139" data-name="Trazado 622139" d="M653.235,101.306l-1.789,1.274-1.791,1.273-2.2-1.041,3.581-2.545Z" transform="translate(-598.496 -76.123)" fill="#223041"/>
          <path id="Trazado_622140" data-name="Trazado 622140" d="M658.323,109.876l-.019,6.869-1.791,1.273.019-6.869Z" transform="translate(-605.372 -83.418)" fill="#374454"/>
          <path id="Trazado_622141" data-name="Trazado 622141" d="M649.594,111.878l-.02,6.869-2.2-1.041.019-6.869Z" transform="translate(-598.435 -84.148)" fill="#374454"/>
          <path id="Trazado_622142" data-name="Trazado 622142" d="M513.427,17.087c.01.067.02.137.031.209l-.031-.209a14.262,14.262,0,0,0-5.707-5.52q-.8-.463-1.7-.887C498.032,6.9,486.924,6.8,478.838,10l-.1.04a24.528,24.528,0,0,0-2.623,1.229q-.243.133-.481.27-.813.471-1.555,1a11.6,11.6,0,0,0-4.8,6.245v0c-.042.151-.079.3-.112.456-.011.05-.019.1-.029.15-.021.1-.04.209-.056.313-.009.059-.016.119-.024.178-.013.1-.024.194-.033.292-.006.062-.011.124-.015.186-.006.1-.011.2-.014.293,0,.039,0,.077-.005.115s0,.1,0,.146v.01q-.01,3.357-.019,6.713c0-.147.01-.293.021-.439v.458a8.033,8.033,0,0,0,.588,3.006s0,0,0,.006c.007.017.016.034.022.052.058.143.119.286.185.428l.007.015c.065.138.135.276.208.413l.052.1c.076.139.155.277.239.415l.035.056c.077.124.157.248.24.371l.061.091q.14.2.291.4l.059.076q.137.177.283.353l.063.076q.167.2.345.391l.08.086q.165.176.339.349l.038.039.019.018c.041.041.084.081.126.121s.091.088.138.132l.022.02q.149.139.3.276l.025.022q.169.148.345.293l.113.092c.082.066.163.132.247.2l.142.109c.077.059.155.118.234.176l.155.112.238.169.161.111c.083.057.167.112.252.168l.16.1c.094.06.189.12.285.18l.139.087q.216.132.439.261c.189.109.383.216.58.322l.071.039h0l.075.039c.108.057.218.114.328.17l.152.078c.162.081.326.161.492.24s.316.147.476.219c.087.039.175.075.263.113l.281.121q.314.132.633.257c.071.028.14.057.211.084q.424.162.856.312l.194.065c.171.058.342.117.514.172l.159.048c.123.038.246.075.369.112s.218.068.329.1c.08.023.161.043.241.066l.342.093q.3.08.6.155c.109.027.218.054.327.08q.355.084.715.16c.074.016.147.033.222.048q.445.092.894.173l.065.011.075.013.344.059c.084.014.168.024.252.037q.381.06.765.113c.141.019.282.039.423.056.273.034.548.065.823.093.119.012.238.026.357.037.392.037.785.068,1.179.093l.117.006q.534.032,1.068.049c.13,0,.261.006.391.009q.4.009.8.011l.435,0q.393,0,.784-.015c.139,0,.278-.007.416-.013.3-.012.595-.028.891-.046.1-.006.194-.01.291-.017q.587-.041,1.17-.1c.092-.009.184-.021.276-.031.3-.032.594-.066.889-.105.135-.018.269-.038.4-.057q.382-.055.76-.116l.418-.071q.385-.068.765-.144c.125-.025.249-.048.373-.074q.491-.1.975-.22l.136-.031q.548-.135,1.085-.288c.108-.03.213-.064.32-.095.251-.074.5-.15.748-.229.127-.041.252-.083.378-.126q.343-.115.679-.238c.123-.045.247-.09.369-.137.239-.091.474-.186.707-.283.076-.031.154-.059.229-.092v0l.147-.063.009,0,.021-.009c.16-.069.315-.144.473-.216.123-.057.249-.111.37-.169.166-.079.328-.164.49-.246.112-.057.227-.111.337-.17.178-.094.35-.193.524-.291.091-.051.184-.1.274-.152q.391-.228.766-.469l.01-3.43q0,1.715-.01,3.43c3.583-2.327,5.727-5.386,5.737-8.682,0-.357,0-.736,0-1.128a7.77,7.77,0,0,1,.072,1.062v-.1c0-.4-.007-.811-.019-1.217.012.406.018.813.019,1.217.006-2.031.013-4.739.019-6.77a8.258,8.258,0,0,0-.974-3.853m-4.837,12.6h0q-.375.241-.766.469c-.091.053-.186.1-.278.154-.172.1-.343.2-.52.288-.108.057-.221.111-.331.167-.165.084-.328.169-.5.25-.119.057-.242.11-.363.165-.166.076-.331.154-.5.228l-.009,0c-.123.053-.251.1-.376.154-.234.1-.47.192-.709.283-.122.046-.245.091-.367.136q-.337.123-.68.239c-.125.042-.251.085-.378.125-.247.08-.5.156-.748.229-.107.031-.212.065-.32.095q-.537.152-1.086.288l-.134.031q-.485.117-.977.221c-.124.026-.249.05-.373.074q-.381.076-.765.144L498,33.5q-.379.062-.761.117c-.134.019-.268.039-.4.057-.3.039-.592.073-.889.105-.092.01-.183.022-.276.031q-.583.059-1.17.1c-.1.007-.193.011-.289.017-.3.019-.595.035-.893.047-.138.005-.277.009-.416.013q-.392.012-.784.015l-.434,0q-.4,0-.806-.011c-.13,0-.26,0-.39-.009q-.535-.017-1.069-.049l-.116-.006c-.394-.025-.787-.057-1.179-.093-.119-.011-.238-.025-.357-.037-.275-.028-.55-.059-.824-.093l-.422-.056q-.385-.053-.767-.113c-.2-.032-.4-.062-.594-.1l-.075-.013q-.482-.086-.959-.184L483.9,33.2q-.359-.077-.714-.16c-.109-.026-.218-.053-.327-.08q-.3-.075-.605-.155l-.342-.093q-.287-.08-.571-.166c-.123-.037-.246-.073-.369-.111q-.339-.106-.674-.22l-.194-.065q-.432-.15-.856-.312l-.212-.084q-.319-.125-.633-.256l-.28-.12c-.248-.108-.5-.217-.739-.332q-.25-.118-.492-.24l-.153-.078-.327-.169-.146-.078c-.2-.106-.391-.213-.58-.322q-.229-.133-.451-.268l-.127-.079-.05-.032c-.087-.054-.174-.109-.26-.164l-.135-.089-.089-.059-.2-.136-.121-.084-.123-.087-.18-.129-.091-.066-.152-.114c-.076-.057-.152-.115-.226-.172l-.176-.141c-.072-.058-.144-.115-.214-.173s-.114-.1-.171-.145-.135-.116-.2-.175l-.164-.149c-.061-.055-.121-.111-.18-.166l-.086-.082-.046-.044c-.056-.055-.111-.11-.167-.165q-.145-.145-.283-.292l-.108-.114q-.178-.194-.345-.39l-.063-.076q-.146-.175-.283-.353h0l-.1-.132q-.112-.149-.216-.3l-.088-.126-.008-.011q-.124-.183-.238-.368l-.005-.008-.032-.051c-.084-.137-.163-.276-.238-.415l-.016-.031c-.018-.034-.036-.067-.053-.1q-.083-.157-.159-.315c-.02-.043-.041-.086-.06-.129a12.684,12.684,0,0,1,4.28-4.823q.741-.527,1.555-1,0-1.715.01-3.429,0,1.715-.01,3.429.238-.138.481-.27a24.507,24.507,0,0,1,2.624-1.229l.1-.04q.005-1.717.01-3.434,0,1.717-.01,3.434c8.086-3.2,19.194-3.093,27.184.683q.9.423,1.7.887a13.931,13.931,0,0,1,5.883,5.876,13.206,13.206,0,0,1-4.994,5.376m4.882-12.3.023.155-.023-.155m.037.251.024.167-.024-.167m.038.264c.009.065.019.131.028.2-.01-.067-.019-.133-.028-.2m.541,4.392q.02.206.039.414-.019-.209-.039-.414m-.5-4.114.037.264-.037-.264m.041.293q.021.15.042.305c-.014-.1-.028-.206-.042-.305m.053.387c.011.077.021.155.032.234-.011-.079-.021-.157-.032-.234m.047.345c.01.072.019.144.029.218-.01-.074-.019-.146-.029-.218m.045.342.03.231-.03-.231m.044.341.036.289-.036-.289m.044.355q.023.183.045.371-.022-.188-.045-.371m.05.418c.013.107.025.215.038.325-.012-.11-.025-.218-.038-.325m.05.434q.016.137.031.276-.015-.139-.031-.276m.044.4q.014.137.029.275-.014-.139-.029-.275m.042.4q.016.153.031.308-.015-.155-.031-.308m.267,3.376h0q.031.6.049,1.213c-.012-.405-.028-.811-.049-1.213" transform="translate(-462.986 -5.857)" fill="#112133"/>
          <path id="Trazado_622143" data-name="Trazado 622143" d="M674.565,107.953l-.019,6.869-7.159,5.089.019-6.869Z" transform="translate(-613.628 -81.959)" fill="#112133"/>
          <path id="Trazado_622144" data-name="Trazado 622144" d="M689.433,139.5l-.02,6.869-22.028-10.411.019-6.869Z" transform="translate(-613.628 -98.005)" fill="#223041"/>
          <path id="Trazado_622145" data-name="Trazado 622145" d="M768.144,161.829l-.019,6.869a2.613,2.613,0,0,1-1.271,2.065,8.757,8.757,0,0,1-7.987.463l.019-6.869a8.758,8.758,0,0,0,7.987-.463,2.612,2.612,0,0,0,1.271-2.065" transform="translate(-683.08 -122.862)" fill="#223041"/>
          <path id="Trazado_622146" data-name="Trazado 622146" d="M697.082,118.585c2.045,1.18,2.255,3.085.4,4.406a8.757,8.757,0,0,1-7.987.463l-22.028-10.411,7.16-5.089,22.031,10.41q.224.106.425.222" transform="translate(-613.689 -81.959)" fill="#374454"/>
          <path id="Trazado_622147" data-name="Trazado 622147" d="M444.131,71.14l.019-6.869c-.012,4.27,2.834,8.517,8.355,11.7q1.007.582,2.132,1.114c12.167,5.749,30.045,4.712,39.93-2.317l-.019,6.869c-9.886,7.029-27.763,8.067-39.93,2.317q-1.125-.531-2.132-1.114c-5.52-3.187-8.367-7.433-8.355-11.7" transform="translate(-444.131 -48.795)" fill="#223041"/>
          <path id="Trazado_622148" data-name="Trazado 622148" d="M453.071,28.055q1.007.581,2.132,1.114c12.167,5.749,30.045,4.712,39.931-2.317,9.277-6.6,8.22-16.123-2-22.023Q492.128,4.248,491,3.715C478.836-2.034,460.959-1,451.073,6.032c-9.277,6.6-8.22,16.123,2,22.023m-2.4-13.7a11.6,11.6,0,0,1,4.8-6.244c7.9-5.614,22.225-6.447,31.943-1.854q.9.423,1.7.887c8.168,4.715,9.017,12.354,1.608,17.622q-.36.256-.738.5a30.407,30.407,0,0,1-14.6,4.3c-7.042.408-13.664-1.1-18.322-3.787-3.581-2.067-6-4.834-6.561-7.97a7.7,7.7,0,0,1,.168-3.457" transform="translate(-444.575 0)" fill="#374454"/>
          <path id="Trazado_622149" data-name="Trazado 622149" d="M653.505,122.528l-.019,6.869-4.409-2.081.019-6.869Z" transform="translate(-599.727 -91.444)" fill="#d1d3d4"/>
          <path id="Trazado_622150" data-name="Trazado 622150" d="M660.726,101.387l-7.159,5.089-4.409-2.081,1.79-1.273,1.791-1.273L656.32,99.3Z" transform="translate(-599.789 -75.393)" fill="#f1f2f2"/>
          <g id="Grupo_878389" data-name="Grupo 878389" transform="translate(5.817 3.252)" opacity="0.502">
            <g id="Grupo_878388" data-name="Grupo 878388">
              <g id="Grupo_878387" data-name="Grupo 878387" clip-path="url(#clip-path-18)">
                <path id="Trazado_622151" data-name="Trazado 622151" d="M506.929,17.357c3.581,2.068,6,4.836,6.56,7.972.681,3.819-1.533,7.42-5.615,10.07-8.026,5.161-21.782,5.808-31.205,1.355q-.9-.423-1.7-.887c-5.279-3.048-7.5-7.316-6.412-11.377,1.6-5.712,9.634-10.314,20.05-10.919,7.041-.408,13.662,1.1,18.32,3.786" transform="translate(-468.29 -13.505)" fill="#b3c0d0"/>
              </g>
            </g>
          </g>
        </g>
      </g>
    </g>
    <g id="Grupo_878400" data-name="Grupo 878400" transform="translate(0 -20)">
      <path id="Trazado_622152" data-name="Trazado 622152" d="M2352.718,193.531l-52.056-30.055V78.12l52.056,30.055Z" transform="translate(-936.679 5931.361)" fill="#e6e7e8"/>
      <path id="Trazado_622153" data-name="Trazado 622153" d="M2352.492,100.578l-52.057-30.055,3.956-2.284,52.057,30.055Z" transform="translate(-936.507 5938.863)" fill="#fff"/>
      <path id="Trazado_622154" data-name="Trazado 622154" d="M2520.828,193.576v85.115l-3.957,2.284V195.86Z" transform="translate(-1100.827 5843.706)" fill="#bcbec0"/>
      <path id="Trazado_622155" data-name="Trazado 622155" d="M2350.364,284.264,2342.976,280v-8.531l7.388,4.265Z" transform="translate(-968.805 5784.57)" fill="none" stroke="#0a295b" stroke-miterlimit="10" stroke-width="2.747"/>
      <path id="Trazado_622156" data-name="Trazado 622156" d="M2350.364,337.406l-7.388-4.265v-8.531l7.388,4.265Z" transform="translate(-968.805 5744.225)" fill="none" stroke="#0a295b" stroke-miterlimit="10" stroke-width="2.747"/>
      <path id="Trazado_622157" data-name="Trazado 622157" d="M2350.364,384.642l-7.388-4.265v-8.531l7.388,4.265Z" transform="translate(-968.805 5708.362)" fill="none" stroke="#0a295b" stroke-miterlimit="10" stroke-width="2.747"/>
      <path id="Trazado_622158" data-name="Trazado 622158" d="M2400.684,309.928l-13.71-7.915a1.278,1.278,0,0,1-.533-1.019c0-.392.239-.573.533-.4l13.71,7.915a1.277,1.277,0,0,1,.532,1.019c0,.393-.238.573-.532.4" transform="translate(-1001.804 5762.508)"/>
      <path id="Trazado_622159" data-name="Trazado 622159" d="M2400.684,321.737l-13.71-7.915a1.278,1.278,0,0,1-.533-1.019c0-.392.239-.573.533-.4l13.71,7.915a1.278,1.278,0,0,1,.532,1.019c0,.393-.238.573-.532.4" transform="translate(-1001.804 5753.542)"/>
      <path id="Trazado_622160" data-name="Trazado 622160" d="M2400.684,333.547l-13.71-7.915a1.277,1.277,0,0,1-.533-1.019c0-.392.239-.573.533-.4l13.71,7.915a1.277,1.277,0,0,1,.532,1.019c0,.393-.238.573-.532.4" transform="translate(-1001.804 5744.576)"/>
      <path id="Trazado_622161" data-name="Trazado 622161" d="M2400.684,363.07l-13.71-7.915a1.278,1.278,0,0,1-.533-1.019c0-.392.239-.573.533-.4l13.71,7.915a1.278,1.278,0,0,1,.532,1.019c0,.393-.238.573-.532.4" transform="translate(-1001.804 5722.162)"/>
      <path id="Trazado_622162" data-name="Trazado 622162" d="M2400.684,374.879l-13.71-7.915a1.278,1.278,0,0,1-.533-1.019c0-.393.239-.573.533-.4l13.71,7.915a1.277,1.277,0,0,1,.532,1.019c0,.393-.238.573-.532.4" transform="translate(-1001.804 5713.197)"/>
      <path id="Trazado_622163" data-name="Trazado 622163" d="M2400.684,386.688l-13.71-7.915a1.277,1.277,0,0,1-.533-1.019c0-.393.239-.573.533-.4l13.71,7.915a1.278,1.278,0,0,1,.532,1.019c0,.393-.238.573-.532.4" transform="translate(-1001.804 5704.231)"/>
      <path id="Trazado_622164" data-name="Trazado 622164" d="M2400.684,410.307l-13.71-7.915a1.277,1.277,0,0,1-.533-1.019c0-.392.239-.573.533-.4l13.71,7.915a1.277,1.277,0,0,1,.532,1.019c0,.393-.238.573-.532.4" transform="translate(-1001.804 5686.299)"/>
      <path id="Trazado_622165" data-name="Trazado 622165" d="M2400.684,422.116l-13.71-7.915a1.278,1.278,0,0,1-.533-1.019c0-.392.239-.573.533-.4l13.71,7.915a1.278,1.278,0,0,1,.532,1.019c0,.393-.238.573-.532.4" transform="translate(-1001.804 5677.334)"/>
      <path id="Trazado_622166" data-name="Trazado 622166" d="M2400.684,433.925l-13.71-7.915a1.278,1.278,0,0,1-.533-1.019c0-.393.239-.573.533-.4l13.71,7.915a1.278,1.278,0,0,1,.532,1.019c0,.393-.238.573-.532.4" transform="translate(-1001.804 5668.368)"/>
      <path id="Trazado_622167" data-name="Trazado 622167" d="M2433.832,328.919,2420.122,321a1.278,1.278,0,0,1-.533-1.019c0-.392.239-.573.533-.4l13.71,7.915a1.278,1.278,0,0,1,.534,1.019c0,.393-.24.573-.534.4" transform="translate(-1026.969 5748.09)"/>
      <path id="Trazado_622168" data-name="Trazado 622168" d="M2433.832,340.728l-13.71-7.915a1.278,1.278,0,0,1-.533-1.019c0-.392.239-.573.533-.4l13.71,7.915a1.278,1.278,0,0,1,.534,1.019c0,.393-.24.573-.534.4" transform="translate(-1026.969 5739.124)"/>
      <path id="Trazado_622169" data-name="Trazado 622169" d="M2433.832,352.537l-13.71-7.915a1.278,1.278,0,0,1-.533-1.019c0-.393.239-.573.533-.4l13.71,7.915a1.278,1.278,0,0,1,.534,1.019c0,.393-.24.573-.534.4" transform="translate(-1026.969 5730.159)"/>
      <path id="Trazado_622170" data-name="Trazado 622170" d="M2433.832,382.061l-13.71-7.915a1.278,1.278,0,0,1-.533-1.019c0-.392.239-.573.533-.4l13.71,7.915a1.278,1.278,0,0,1,.534,1.019c0,.392-.24.573-.534.4" transform="translate(-1026.969 5707.744)"/>
      <path id="Trazado_622171" data-name="Trazado 622171" d="M2433.832,393.87l-13.71-7.915a1.278,1.278,0,0,1-.533-1.019c0-.392.239-.573.533-.4l13.71,7.915a1.278,1.278,0,0,1,.534,1.019c0,.393-.24.573-.534.4" transform="translate(-1026.969 5698.778)"/>
      <path id="Trazado_622172" data-name="Trazado 622172" d="M2433.832,405.679l-13.71-7.915a1.278,1.278,0,0,1-.533-1.019c0-.392.239-.573.533-.4l13.71,7.915a1.278,1.278,0,0,1,.534,1.019c0,.393-.24.573-.534.4" transform="translate(-1026.969 5689.813)"/>
      <path id="Trazado_622173" data-name="Trazado 622173" d="M2433.832,429.3l-13.71-7.915a1.278,1.278,0,0,1-.533-1.019c0-.393.239-.573.533-.4l13.71,7.915a1.278,1.278,0,0,1,.534,1.019c0,.393-.24.573-.534.4" transform="translate(-1026.969 5671.882)"/>
      <path id="Trazado_622174" data-name="Trazado 622174" d="M2433.832,441.107l-13.71-7.915a1.278,1.278,0,0,1-.533-1.019c0-.393.239-.573.533-.4l13.71,7.915a1.278,1.278,0,0,1,.534,1.019c0,.393-.24.573-.534.4" transform="translate(-1026.969 5662.916)"/>
      <path id="Trazado_622175" data-name="Trazado 622175" d="M2433.832,452.916,2420.122,445a1.278,1.278,0,0,1-.533-1.019c0-.393.239-.573.533-.4l13.71,7.915a1.279,1.279,0,0,1,.534,1.019c0,.393-.24.573-.534.4" transform="translate(-1026.969 5653.95)"/>
      <path id="Trazado_622176" data-name="Trazado 622176" d="M2350.006,287.74l-2.9,1.676c-.16.092-.42-.058-.58-.335l-1.161-2.011c-.16-.278-.421-.428-.581-.335l-1.161.67c-.16.093-.16.393,0,.67l2.9,5.027c.16.278.42.428.58.335l.581-.335.87-.5,3.193-1.843c.159-.093.159-.393,0-.67l-1.161-2.011c-.161-.278-.42-.428-.581-.335" transform="translate(-969.203 5773)" fill="#bc5824"/>
      <path id="Trazado_622177" data-name="Trazado 622177" d="M2350.006,340.881l-2.9,1.676c-.16.093-.42-.058-.58-.335l-1.161-2.011c-.16-.278-.421-.428-.581-.335l-1.161.67c-.16.093-.16.393,0,.67l2.9,5.027c.16.278.42.428.58.335l.581-.335.87-.5,3.193-1.843c.159-.093.159-.393,0-.67l-1.161-2.011c-.161-.278-.42-.428-.581-.335" transform="translate(-969.203 5732.655)" fill="#bc5824"/>
      <path id="Trazado_622178" data-name="Trazado 622178" d="M2350.364,184.1l-7.388-4.265V171.3l7.388,4.265Z" transform="translate(-968.805 5860.616)" fill="none" stroke="#0a295b" stroke-miterlimit="10" stroke-width="2.747"/>
      <path id="Trazado_622179" data-name="Trazado 622179" d="M2350.364,231.336l-7.388-4.265V218.54l7.388,4.265Z" transform="translate(-968.805 5824.753)" fill="none" stroke="#0a295b" stroke-miterlimit="10" stroke-width="2.747"/>
      <path id="Trazado_622180" data-name="Trazado 622180" d="M2400.684,209.764l-13.71-7.915a1.278,1.278,0,0,1-.533-1.019c0-.392.239-.573.533-.4l13.71,7.915a1.277,1.277,0,0,1,.532,1.019c0,.393-.238.573-.532.4" transform="translate(-1001.804 5838.553)"/>
      <path id="Trazado_622181" data-name="Trazado 622181" d="M2400.684,221.573l-13.71-7.915a1.278,1.278,0,0,1-.533-1.019c0-.393.239-.573.533-.4l13.71,7.915a1.277,1.277,0,0,1,.532,1.019c0,.392-.238.573-.532.4" transform="translate(-1001.804 5829.587)"/>
      <path id="Trazado_622182" data-name="Trazado 622182" d="M2400.684,233.382l-13.71-7.915a1.278,1.278,0,0,1-.533-1.019c0-.392.239-.573.533-.4l13.71,7.915a1.277,1.277,0,0,1,.532,1.019c0,.393-.238.573-.532.4" transform="translate(-1001.804 5820.622)"/>
      <path id="Trazado_622183" data-name="Trazado 622183" d="M2400.684,257l-13.71-7.915a1.278,1.278,0,0,1-.533-1.019c0-.392.239-.573.533-.4l13.71,7.915a1.278,1.278,0,0,1,.532,1.019c0,.393-.238.573-.532.4" transform="translate(-1001.804 5802.69)"/>
      <path id="Trazado_622184" data-name="Trazado 622184" d="M2400.684,268.81l-13.71-7.915a1.277,1.277,0,0,1-.533-1.019c0-.392.239-.573.533-.4l13.71,7.915a1.277,1.277,0,0,1,.532,1.019c0,.393-.238.573-.532.4" transform="translate(-1001.804 5793.725)"/>
      <path id="Trazado_622185" data-name="Trazado 622185" d="M2400.684,280.619l-13.71-7.915a1.278,1.278,0,0,1-.533-1.019c0-.393.239-.573.533-.4l13.71,7.915a1.277,1.277,0,0,1,.532,1.019c0,.393-.238.573-.532.4" transform="translate(-1001.804 5784.759)"/>
      <path id="Trazado_622186" data-name="Trazado 622186" d="M2433.832,228.754l-13.71-7.915a1.278,1.278,0,0,1-.533-1.019c0-.392.239-.573.533-.4l13.71,7.915a1.278,1.278,0,0,1,.534,1.019c0,.393-.24.573-.534.4" transform="translate(-1026.969 5824.136)"/>
      <path id="Trazado_622187" data-name="Trazado 622187" d="M2433.832,240.564l-13.71-7.915a1.278,1.278,0,0,1-.533-1.019c0-.393.239-.573.533-.4l13.71,7.915a1.278,1.278,0,0,1,.534,1.019c0,.393-.24.573-.534.4" transform="translate(-1026.969 5815.169)"/>
      <path id="Trazado_622188" data-name="Trazado 622188" d="M2433.832,252.373l-13.71-7.915a1.278,1.278,0,0,1-.533-1.019c0-.392.239-.573.533-.4l13.71,7.915a1.278,1.278,0,0,1,.534,1.019c0,.393-.24.573-.534.4" transform="translate(-1026.969 5806.204)"/>
      <path id="Trazado_622189" data-name="Trazado 622189" d="M2433.832,275.991l-13.71-7.915a1.278,1.278,0,0,1-.533-1.019c0-.392.239-.573.533-.4l13.71,7.915a1.278,1.278,0,0,1,.534,1.019c0,.393-.24.573-.534.4" transform="translate(-1026.969 5788.273)"/>
      <path id="Trazado_622190" data-name="Trazado 622190" d="M2433.832,287.8l-13.71-7.915a1.278,1.278,0,0,1-.533-1.019c0-.392.239-.573.533-.4l13.71,7.915a1.278,1.278,0,0,1,.534,1.019c0,.393-.24.573-.534.4" transform="translate(-1026.969 5779.307)"/>
      <path id="Trazado_622191" data-name="Trazado 622191" d="M2433.832,299.61l-13.71-7.915a1.278,1.278,0,0,1-.533-1.019c0-.393.239-.573.533-.4l13.71,7.915a1.278,1.278,0,0,1,.534,1.019c0,.393-.24.573-.534.4" transform="translate(-1026.969 5770.341)"/>
      <path id="Trazado_622192" data-name="Trazado 622192" d="M2350.006,187.575l-2.9,1.676c-.16.092-.42-.058-.58-.335l-1.161-2.011c-.16-.278-.421-.428-.581-.335l-1.161.67c-.16.092-.16.393,0,.67l2.9,5.027c.16.278.42.428.58.335l.581-.335.87-.5,3.193-1.843c.159-.093.159-.393,0-.67l-1.161-2.011c-.161-.278-.42-.428-.581-.335" transform="translate(-969.203 5849.046)" fill="#bc5824"/>
      <path id="Trazado_622193" data-name="Trazado 622193" d="M2350.006,234.812l-2.9,1.676c-.16.092-.42-.058-.58-.335l-1.161-2.011c-.16-.277-.421-.428-.581-.335l-1.161.67c-.16.092-.16.393,0,.67l2.9,5.027c.16.278.42.428.58.335l.581-.335.87-.5,3.193-1.843c.159-.093.159-.393,0-.67l-1.161-2.011c-.161-.278-.42-.428-.581-.335" transform="translate(-969.203 5813.184)" fill="#bc5824"/>
    </g>
    <path id="Trazado_622194" data-name="Trazado 622194" d="M1510.992,583.486l-9.275-5.355v-10.71l9.275,5.355Z" transform="translate(-330.114 5559.88)" fill="#2277c7"/>
    <path id="Trazado_622195" data-name="Trazado 622195" d="M1510.991,555.892l-9.275-5.355,9.275-5.355,9.275,5.355Z" transform="translate(-330.114 5576.765)" fill="#195995"/>
    <path id="Trazado_622196" data-name="Trazado 622196" d="M1549.51,578.13l-9.275,5.355v-10.71l9.275-5.355Z" transform="translate(-359.358 5559.881)" fill="#2b95f9"/>
    <path id="Trazado_622197" data-name="Trazado 622197" d="M1434.3,582.713l-9.275-5.355v-10.71L1434.3,572Z" transform="translate(-271.886 5560.466)" fill="#2277c7"/>
    <path id="Trazado_622198" data-name="Trazado 622198" d="M1434.3,555.119l-9.275-5.355,9.275-5.355,9.275,5.355Z" transform="translate(-271.886 5577.351)" fill="#195995"/>
    <path id="Trazado_622199" data-name="Trazado 622199" d="M1472.814,577.358l-9.275,5.355V572l9.275-5.355Z" transform="translate(-301.13 5560.467)" fill="#2b95f9"/>
    <path id="Trazado_622200" data-name="Trazado 622200" d="M1357.439,582.3l-9.275-5.355V566.24l9.275,5.355Z" transform="translate(-213.536 5560.777)" fill="#2277c7"/>
    <path id="Trazado_622201" data-name="Trazado 622201" d="M1357.439,554.71l-9.275-5.355,9.275-5.355,9.275,5.355Z" transform="translate(-213.536 5577.662)" fill="#195995"/>
    <path id="Trazado_622202" data-name="Trazado 622202" d="M1395.958,576.949l-9.275,5.355v-10.71l9.275-5.355Z" transform="translate(-242.779 5560.778)" fill="#2b95f9"/>
    <path id="Trazado_622203" data-name="Trazado 622203" d="M1510.992,540.129l-9.275-5.355v-10.71l9.275,5.355Z" transform="translate(-330.114 5592.797)" fill="#2277c7"/>
    <path id="Trazado_622204" data-name="Trazado 622204" d="M1510.991,512.535l-9.275-5.355,9.275-5.355,9.275,5.355Z" transform="translate(-330.114 5609.681)" fill="#195995"/>
    <path id="Trazado_622205" data-name="Trazado 622205" d="M1549.51,534.774l-9.275,5.355v-10.71l9.275-5.355Z" transform="translate(-359.358 5592.797)" fill="#2b95f9"/>
    <path id="Trazado_622206" data-name="Trazado 622206" d="M1434.3,539.357,1425.02,534v-10.71l9.275,5.355Z" transform="translate(-271.886 5593.383)" fill="#2277c7"/>
    <path id="Trazado_622207" data-name="Trazado 622207" d="M1434.3,511.763l-9.275-5.355,9.275-5.355,9.275,5.355Z" transform="translate(-271.886 5610.268)" fill="#195995"/>
    <path id="Trazado_622208" data-name="Trazado 622208" d="M1472.814,534l-9.275,5.355v-10.71l9.275-5.355Z" transform="translate(-301.13 5593.383)" fill="#2b95f9"/>
    <path id="Trazado_622209" data-name="Trazado 622209" d="M1510.992,496.274l-9.275-5.355V480.21l9.275,5.355Z" transform="translate(-330.114 5626.092)" fill="#2277c7"/>
    <path id="Trazado_622210" data-name="Trazado 622210" d="M1510.991,468.68l-9.275-5.355,9.275-5.355,9.275,5.355Z" transform="translate(-330.114 5642.976)" fill="#195995"/>
    <path id="Trazado_622211" data-name="Trazado 622211" d="M1549.51,490.919l-9.275,5.355v-10.71l9.275-5.355Z" transform="translate(-359.358 5626.092)" fill="#2b95f9"/>
    <path id="Trazado_622212" data-name="Trazado 622212" d="M1510.992,451.921l-9.275-5.355v-10.71l9.275,5.355Z" transform="translate(-330.114 5659.765)" fill="#2277c7"/>
    <path id="Trazado_622213" data-name="Trazado 622213" d="M1510.991,424.327l-9.275-5.355,9.275-5.355,9.275,5.355Z" transform="translate(-330.114 5676.649)" fill="#195995"/>
    <path id="Trazado_622214" data-name="Trazado 622214" d="M1549.51,446.566l-9.275,5.355v-10.71l9.275-5.355Z" transform="translate(-359.358 5659.766)" fill="#2b95f9"/>
    <path id="Trazado_622215" data-name="Trazado 622215" d="M1510.992,415.553l-9.275-5.355v-10.71l9.275,5.355Z" transform="translate(-330.114 5687.376)" fill="#2277c7"/>
    <path id="Trazado_622216" data-name="Trazado 622216" d="M1510.991,387.96l-9.275-5.355,9.275-5.355,9.275,5.355Z" transform="translate(-330.114 5704.26)" fill="#195995"/>
    <path id="Trazado_622217" data-name="Trazado 622217" d="M1549.51,410.2l-9.275,5.355v-10.71l9.275-5.355Z" transform="translate(-359.358 5687.376)" fill="#2b95f9"/>
    <path id="Trazado_622218" data-name="Trazado 622218" d="M1434.3,495.5l-9.275-5.355v-10.71l9.275,5.355Z" transform="translate(-271.886 5626.679)" fill="#2277c7"/>
    <path id="Trazado_622219" data-name="Trazado 622219" d="M1434.3,467.908l-9.275-5.355,9.275-5.355,9.275,5.355Z" transform="translate(-271.886 5643.563)" fill="#195995"/>
    <path id="Trazado_622220" data-name="Trazado 622220" d="M1472.814,490.146l-9.275,5.355v-10.71l9.275-5.355Z" transform="translate(-301.13 5626.679)" fill="#2b95f9"/>
    <path id="Trazado_622221" data-name="Trazado 622221" d="M1357.439,538.947l-9.275-5.355v-10.71l9.275,5.355Z" transform="translate(-213.536 5593.694)" fill="#2277c7"/>
    <path id="Trazado_622222" data-name="Trazado 622222" d="M1357.439,511.354,1348.164,506l9.275-5.355,9.275,5.355Z" transform="translate(-213.536 5610.578)" fill="#195995"/>
    <path id="Trazado_622223" data-name="Trazado 622223" d="M1395.958,533.592l-9.275,5.355v-10.71l9.275-5.355Z" transform="translate(-242.779 5593.694)" fill="#2b95f9"/>
    <g id="Grupo_878395" data-name="Grupo 878395" transform="translate(959.545 6045.063)" style="isolation: isolate">
      <g id="Grupo_878394" data-name="Grupo 878394">
        <g id="Enmascarar_grupo_878393" data-name="Enmascarar grupo 878393" clip-path="url(#clip-path-19)">
          <path id="Trazado_622224" data-name="Trazado 622224" d="M643.808,229.142l3.415-1.985c3.415-1.985,8.145-1.7,13.365,1.309l-3.416,1.985c-5.22-3.014-9.95-3.294-13.365-1.309" transform="translate(-638.329 -225.889)" fill="#9ab838"/>
          <path id="Trazado_622225" data-name="Trazado 622225" d="M715.971,281.064l-3.415,1.985c3.371-1.96,5.463-6.125,5.479-12.047.034-11.92-8.351-26.44-18.722-32.428l3.415-1.985c10.371,5.988,18.756,20.507,18.722,32.428-.017,5.922-2.108,10.087-5.48,12.047" transform="translate(-680.469 -234.013)" fill="#8db114"/>
          <path id="Trazado_622226" data-name="Trazado 622226" d="M639.9,236.708c10.371,5.988,18.756,20.507,18.722,32.428s-8.474,16.727-18.844,10.739-18.756-20.507-18.722-32.428,8.471-16.728,18.845-10.739" transform="translate(-621.054 -232.147)" fill="#b1de19"/>
        </g>
      </g>
    </g>
    <path id="Trazado_622227" data-name="Trazado 622227" d="M670.624,315.769c-.912-1.58-2.391-2.434-3.3-1.907l-12.751,7.362-4.492-7.78c-.912-1.58-2.391-2.434-3.3-1.907s-.912,2.235,0,3.815l5.841,10.117a5.646,5.646,0,0,0,.274.541c.912,1.58,2.391,2.434,3.3,1.908l14.432-8.332c.912-.527.912-2.235,0-3.815" transform="translate(319.484 5754.268)" fill="#fff"/>
    <path id="Trazado_622228" data-name="Trazado 622228" d="M100.837,271.06l-3.643-2.117c-3.643-2.117-8.688-1.819-14.256,1.4l3.643,2.117c5.568-3.215,10.614-3.513,14.257-1.4" transform="translate(747.034 5787.514)" fill="#bc5824"/>
    <path id="Trazado_622229" data-name="Trazado 622229" d="M5.844,326.446l3.643,2.117c-3.6-2.09-5.827-6.534-5.845-12.851-.036-12.716,8.9-28.2,19.97-34.59L19.97,279C8.9,285.393-.036,300.879,0,313.594c.018,6.317,2.248,10.761,5.845,12.851" transform="translate(810 5778.849)" fill="#bc5824"/>
    <path id="Trazado_622230" data-name="Trazado 622230" d="M35.1,279.132c-11.066,6.389-20.006,21.875-19.97,34.59s9.035,17.844,20.1,11.455S55.238,303.3,55.2,290.587s-9.036-17.844-20.1-11.455" transform="translate(798.513 5780.838)" fill="#eb6f2d"/>
    <path id="Trazado_622231" data-name="Trazado 622231" d="M76.157,357.149l-15.395-8.888c-.973-.562-2.551.349-3.524,2.034s-.973,3.507,0,4.069l15.395,8.888c.973.562,2.551-.349,3.524-2.035s.973-3.507,0-4.069" transform="translate(767.098 5726.394)" fill="#fff"/>
    <path id="Trazado_622232" data-name="Trazado 622232" d="M72.634,313.384,57.239,340.048c-.973,1.686-.973,3.507,0,4.069s2.551-.349,3.524-2.035l15.395-26.664c.973-1.686.973-3.507,0-4.069s-2.551.349-3.524,2.035" transform="translate(767.098 5754.418)" fill="#fff"/>
    <g id="Grupo_878398" data-name="Grupo 878398" transform="translate(1036.945 6018.201)" style="isolation: isolate">
      <g id="Grupo_878397" data-name="Grupo 878397">
        <g id="Grupo_878396" data-name="Grupo 878396" clip-path="url(#clip-path-20)">
          <path id="Trazado_622233" data-name="Trazado 622233" d="M1030.142,162.035l-.019,6.7-.007-1.2.019-6.7Z" transform="translate(-1009.017 -159.641)" fill="#195995"/>
          <path id="Trazado_622234" data-name="Trazado 622234" d="M1064.021,165.834l-.019,6.7a.777.777,0,0,1-.152.447l.019-6.7a.779.779,0,0,0,.152-.447" transform="translate(-1034.628 -163.433)" fill="#195995"/>
          <path id="Trazado_622235" data-name="Trazado 622235" d="M1030.319,166.261l-.019,6.7a.787.787,0,0,1-.156-.454l.019-6.7a.787.787,0,0,0,.156.454" transform="translate(-1009.038 -163.413)" fill="#195995"/>
          <path id="Trazado_622236" data-name="Trazado 622236" d="M1126.954,181.356l-.019,6.7a1.025,1.025,0,0,1-.6.84l.019-6.7a1.026,1.026,0,0,0,.6-.84" transform="translate(-1082.067 -175.218)" fill="#195995"/>
          <path id="Trazado_622237" data-name="Trazado 622237" d="M965.973,188l.019-6.7a1.035,1.035,0,0,0,.611.853l-.019,6.7a1.037,1.037,0,0,1-.611-.853" transform="translate(-960.319 -175.177)" fill="#195995"/>
          <path id="Trazado_622238" data-name="Trazado 622238" d="M1121.76,184.846l-.019,6.7-1.457.846.019-6.7Z" transform="translate(-1077.474 -177.868)" fill="#195995"/>
          <path id="Trazado_622239" data-name="Trazado 622239" d="M970,185.693l-.019,6.7-1.466-.847.019-6.7Z" transform="translate(-962.246 -177.868)" fill="#195995"/>
          <path id="Trazado_622240" data-name="Trazado 622240" d="M1119.307,188.362l-.019,6.7a2.225,2.225,0,0,1-.316.15l.019-6.7a2.229,2.229,0,0,0,.316-.15" transform="translate(-1076.477 -180.537)" fill="#195995"/>
          <path id="Trazado_622241" data-name="Trazado 622241" d="M974.934,188.513l-.019,6.7a2.362,2.362,0,0,1-.315-.15l.019-6.7a2.306,2.306,0,0,0,.316.15" transform="translate(-966.869 -180.537)" fill="#195995"/>
          <path id="Trazado_622242" data-name="Trazado 622242" d="M1014.239,188.221l-.019,6.7c.006-2.313-1.52-4.629-4.577-6.394-6.074-3.507-15.889-3.507-21.925,0-3,1.742-4.5,4.022-4.5,6.305l.019-6.7c.006-2.283,1.507-4.564,4.5-6.305,6.035-3.507,15.851-3.507,21.924,0,3.057,1.765,4.583,4.081,4.577,6.394" transform="translate(-973.409 -173.579)" fill="#195995"/>
          <path id="Trazado_622243" data-name="Trazado 622243" d="M942.525,216.046l-.019,6.7-.013-2.394.019-6.7Z" transform="translate(-942.493 -199.737)" fill="#195995"/>
          <path id="Trazado_622244" data-name="Trazado 622244" d="M1143.929,223.594l-.019,6.7c0,.661-.918,1.2-2.06,1.2l.019-6.7c1.142,0,2.064-.536,2.06-1.2" transform="translate(-1093.846 -207.285)" fill="#195995"/>
          <path id="Trazado_622245" data-name="Trazado 622245" d="M1135.349,228.566l-.019,6.7h-2.068l.019-6.7Z" transform="translate(-1087.326 -211.06)" fill="#195995"/>
          <path id="Trazado_622246" data-name="Trazado 622246" d="M1131.586,228.432l-.019,6.7a3.516,3.516,0,0,1-.537-.042l.019-6.7a3.488,3.488,0,0,0,.537.042" transform="translate(-1085.632 -210.926)" fill="#195995"/>
          <path id="Trazado_622247" data-name="Trazado 622247" d="M960.81,227.875l-.019,6.7a3.264,3.264,0,0,1-1.047.167l.019-6.7a3.251,3.251,0,0,0,1.047-.167" transform="translate(-955.59 -210.535)" fill="#195995"/>
          <path id="Trazado_622248" data-name="Trazado 622248" d="M953.246,228.568l-.019,6.7H951.16l.019-6.7Z" transform="translate(-949.073 -211.061)" fill="#195995"/>
          <path id="Trazado_622249" data-name="Trazado 622249" d="M944.641,224.792l-.019,6.7a2.982,2.982,0,0,1-1.464-.351,1.044,1.044,0,0,1-.61-.847l.019-6.7a1.044,1.044,0,0,0,.61.847,2.98,2.98,0,0,0,1.464.351" transform="translate(-942.536 -207.286)" fill="#195995"/>
          <path id="Trazado_622250" data-name="Trazado 622250" d="M1040.205,217.69l-.013,4.676a1.792,1.792,0,0,1-1.049,1.468,5.624,5.624,0,0,1-5.1,0,1.805,1.805,0,0,1-1.065-1.488l.013-4.676a1.8,1.8,0,0,0,1.065,1.488,5.624,5.624,0,0,0,5.1,0,1.791,1.791,0,0,0,1.049-1.468" transform="translate(-1011.187 -202.787)" fill="#195995"/>
          <path id="Trazado_622251" data-name="Trazado 622251" d="M1122.13,228.39l-.019,6.7a10.39,10.39,0,0,1-2.828,3.758l.019-6.7a10.394,10.394,0,0,0,2.828-3.758" transform="translate(-1076.713 -210.926)" fill="#195995"/>
          <path id="Trazado_622252" data-name="Trazado 622252" d="M967.031,231.757l-.019,6.7a10.474,10.474,0,0,1-2.922-3.882l.019-6.7a10.466,10.466,0,0,0,2.922,3.882" transform="translate(-958.89 -210.535)" fill="#195995"/>
          <path id="Trazado_622253" data-name="Trazado 622253" d="M966.373,258.32l.019-6.7a1.033,1.033,0,0,0,.61.853l-.019,6.7a1.034,1.034,0,0,1-.61-.852" transform="translate(-960.623 -228.566)" fill="#195995"/>
          <path id="Trazado_622254" data-name="Trazado 622254" d="M1072.571,257.924l-.019,6.7a30.083,30.083,0,0,1-7.22,1.746l.019-6.7a30.078,30.078,0,0,0,7.22-1.746" transform="translate(-1035.753 -233.349)" fill="#195995"/>
          <path id="Trazado_622255" data-name="Trazado 622255" d="M1007.939,259.708l-.019,6.7a30.48,30.48,0,0,1-7.574-1.786l.019-6.7a30.485,30.485,0,0,0,7.574,1.786" transform="translate(-986.415 -233.347)" fill="#195995"/>
          <path id="Trazado_622256" data-name="Trazado 622256" d="M992.622,169.778a1.045,1.045,0,0,0-.611-.847,2.979,2.979,0,0,0-1.464-.351h-2.066c-.067,0-.131,0-.2.006a9.9,9.9,0,0,0-3.218-4.748,2.231,2.231,0,0,0,.316-.15l1.456-.847a.9.9,0,0,0-.01-1.694l-2.933-1.693a3.222,3.222,0,0,0-2.923,0l-1.457.847a1.752,1.752,0,0,0-.258.183,30.438,30.438,0,0,0-7.465-1.773.776.776,0,0,0,.152-.453l-.007-1.2a1.045,1.045,0,0,0-.61-.846,2.976,2.976,0,0,0-1.463-.351h-4.134c-1.141,0-2.065.536-2.061,1.2l.007,1.2a.784.784,0,0,0,.156.454,30.225,30.225,0,0,0-7.445,1.774,1.642,1.642,0,0,0-.258-.183l-1.466-.846a3.222,3.222,0,0,0-2.925,0l-2.913,1.693a.9.9,0,0,0,.011,1.694l1.466.847a2.344,2.344,0,0,0,.315.15,9.713,9.713,0,0,0-3.183,4.822,3.366,3.366,0,0,0-.736-.08h-2.067c-1.141,0-2.064.536-2.06,1.2l.013,2.394a1.044,1.044,0,0,0,.61.846,2.979,2.979,0,0,0,1.463.351h2.067a3.258,3.258,0,0,0,1.047-.167,10.464,10.464,0,0,0,2.922,3.882,2.356,2.356,0,0,0-.315.15l-1.456.847a.9.9,0,0,0,.009,1.693l2.932,1.693a3.222,3.222,0,0,0,2.924,0l1.457-.847a1.634,1.634,0,0,0,.257-.183,30.482,30.482,0,0,0,7.574,1.786.713.713,0,0,0-.084.339l.005,1.2a1.045,1.045,0,0,0,.61.847,2.978,2.978,0,0,0,1.463.351h4.136c1.142,0,2.064-.536,2.06-1.2l-.007-1.2a.752.752,0,0,0-.109-.377,30.073,30.073,0,0,0,7.22-1.746,1.76,1.76,0,0,0,.26.183l1.466.847a3.222,3.222,0,0,0,2.923,0l2.913-1.693a.9.9,0,0,0-.008-1.694l-1.467-.846a2.225,2.225,0,0,0-.318-.15,10.388,10.388,0,0,0,2.829-3.758,3.517,3.517,0,0,0,.537.042h2.068c1.142,0,2.064-.536,2.06-1.2Zm-13.744,7.034c-6.034,3.507-15.85,3.507-21.925,0s-6.105-9.193-.072-12.7,15.851-3.507,21.924,0,6.107,9.192.072,12.7" transform="translate(-942.553 -155.864)" fill="#2b95f9"/>
          <path id="Trazado_622257" data-name="Trazado 622257" d="M1039.154,209.644a5.625,5.625,0,0,0-5.1,0c-1.4.816-1.4,2.14.016,2.956a5.624,5.624,0,0,0,5.1,0c1.406-.816,1.4-2.14-.016-2.957" transform="translate(-1011.208 -196.229)" fill="#2b95f9"/>
          <path id="Trazado_622258" data-name="Trazado 622258" d="M1127.346,251.673l-.019,6.7a1.026,1.026,0,0,1-.6.841l.019-6.7a1.028,1.028,0,0,0,.6-.842" transform="translate(-1082.363 -228.603)" fill="#195995"/>
          <path id="Trazado_622259" data-name="Trazado 622259" d="M1095.6,258.107l-.019,6.7a1.8,1.8,0,0,1-.26-.183l.019-6.7a1.762,1.762,0,0,0,.26.183" transform="translate(-1058.518 -233.349)" fill="#195995"/>
          <path id="Trazado_622260" data-name="Trazado 622260" d="M999.554,257.922l-.019,6.7a1.629,1.629,0,0,1-.257.183l.019-6.7a1.632,1.632,0,0,0,.257-.184" transform="translate(-985.604 -233.347)" fill="#195995"/>
          <path id="Trazado_622261" data-name="Trazado 622261" d="M1117.559,255.167l-.019,6.7-2.913,1.693.019-6.7Z" transform="translate(-1073.178 -231.256)" fill="#195995"/>
          <path id="Trazado_622262" data-name="Trazado 622262" d="M1097.884,259.529l-.019,6.7-1.466-.847.019-6.7Z" transform="translate(-1059.339 -233.925)" fill="#195995"/>
          <path id="Trazado_622263" data-name="Trazado 622263" d="M994.7,258.684l-.019,6.7-1.457.846.019-6.7Z" transform="translate(-981.011 -233.925)" fill="#195995"/>
          <path id="Trazado_622264" data-name="Trazado 622264" d="M971.858,256.859l-.019,6.7-2.932-1.693.019-6.7Z" transform="translate(-962.546 -231.255)" fill="#195995"/>
          <path id="Trazado_622265" data-name="Trazado 622265" d="M1105.429,262.2l-.019,6.7a3.222,3.222,0,0,1-2.923,0l.019-6.7a3.221,3.221,0,0,0,2.923,0" transform="translate(-1063.962 -236.594)" fill="#195995"/>
          <path id="Trazado_622266" data-name="Trazado 622266" d="M984.028,262.2l-.019,6.7a3.222,3.222,0,0,1-2.924,0l.019-6.7a3.222,3.222,0,0,0,2.924,0" transform="translate(-971.793 -236.593)" fill="#195995"/>
          <path id="Trazado_622267" data-name="Trazado 622267" d="M1031.45,273.4l.019-6.7v.011l-.019,6.7V273.4" transform="translate(-1010.03 -240.012)" fill="#195995"/>
          <path id="Trazado_622268" data-name="Trazado 622268" d="M1031.476,267.943l-.019,6.7-.005-1.2.019-6.7Z" transform="translate(-1010.031 -240.046)" fill="#195995"/>
          <path id="Trazado_622269" data-name="Trazado 622269" d="M1059.34,271.717l-.019,6.7c0,.661-.918,1.2-2.06,1.2l.019-6.7c1.142,0,2.064-.536,2.06-1.2" transform="translate(-1029.626 -243.82)" fill="#195995"/>
          <path id="Trazado_622270" data-name="Trazado 622270" d="M1044.24,276.689l-.019,6.7h-4.136l.019-6.7Z" transform="translate(-1016.586 -247.595)" fill="#195995"/>
          <path id="Trazado_622271" data-name="Trazado 622271" d="M1033.567,272.914l-.019,6.7a2.985,2.985,0,0,1-1.463-.351,1.045,1.045,0,0,1-.61-.847l.02-6.7a1.044,1.044,0,0,0,.61.847,2.981,2.981,0,0,0,1.464.351" transform="translate(-1010.048 -243.82)" fill="#195995"/>
        </g>
      </g>
    </g>
  </g>
</svg>
