<svg xmlns="http://www.w3.org/2000/svg" width="87.838" height="84.645" viewBox="0 0 87.838 84.645">
  <g id="Layer_x0020_1" transform="translate(0 -9.032)">
    <path id="Trazado_627846" data-name="Trazado 627846" d="M65.846,90.279H10.288a1.475,1.475,0,0,1-1.372-1.372V77.761H1.2A1.325,1.325,0,0,1,0,76.389V10.372A1.325,1.325,0,0,1,1.2,9H48.184a1.325,1.325,0,0,1,1.2,1.372v7.545h3.258a1.289,1.289,0,0,1,1.2.857L66.532,31.292a1.422,1.422,0,0,1,.514,1.372V47.239A18.594,18.594,0,0,1,65.16,69.016l2.4,2.4.857-1.029a3.21,3.21,0,0,1,4.458,0L86.937,84.449a3.208,3.208,0,0,1,0,4.458l-3.772,3.772a3.057,3.057,0,0,1-4.458,0l-11.66-11.66v8.059A1.288,1.288,0,0,1,65.846,90.279ZM38.41,57.184c-1.2-2.229.343-4.458,1.372-4.63a3.4,3.4,0,0,1,4.63,1.2l1.715,3.087,12.861-7.373a3.259,3.259,0,0,1,4.63,1.2,3.568,3.568,0,0,1-1.2,4.63L45.784,64.729c-1.029.514-3.429-.686-3.944-1.715Zm22.635-4.115c1.029-.686.171-2.229-.857-1.543L46.3,59.585a1.189,1.189,0,0,1-1.715-.514l-2.572-4.115a.813.813,0,1,0-1.372.857c.514.857,3.429,6.173,3.772,6.345,0,0,.514.343.857,0ZM45.784,34.207H17.833a1.286,1.286,0,0,1,0-2.572h27.95A1.286,1.286,0,0,1,45.784,34.207Zm-16.29,9.6H17.833a1.286,1.286,0,0,1,0-2.572h11.66C31.208,41.237,31.037,43.809,29.494,43.809Zm0,9.6H17.833a1.286,1.286,0,1,1,0-2.572h11.66C31.208,50.84,31.037,53.412,29.494,53.412Zm0,9.431H17.833a1.286,1.286,0,0,1,0-2.572h11.66C31.208,60.271,31.037,62.843,29.494,62.843Zm0,9.431H17.833a1.286,1.286,0,1,1,0-2.572h11.66C31.208,69.7,31.037,72.274,29.494,72.274Zm23.149,9.6H17.833a1.286,1.286,0,0,1,0-2.572H52.643A1.286,1.286,0,0,1,52.643,81.876ZM63.274,70.9c-11.66,10.46-31.037,2.229-31.037-14.061a18.519,18.519,0,0,1,5.487-13.375,18.787,18.787,0,0,1,26.75.343V33.521H52.643a1.172,1.172,0,0,1-1.2-1.2V20.489H11.489V76.046c.171.514.171.171,0,.686V87.878H64.474V78.447s-1.715-2.229.171-4.115L65.675,73.3Zm3.258,6L80.593,90.965a.765.765,0,0,0,.857,0l3.772-3.772a.779.779,0,0,0,0-.857L71.162,72.274C70.3,71.588,65.846,76.218,66.532,76.9ZM62.417,45.352a16.248,16.248,0,1,0,0,22.978A16.248,16.248,0,0,0,62.417,45.352ZM8.917,75.189v-55.9a1.475,1.475,0,0,1,1.372-1.372H46.812V11.572H2.572V75.189Zm45.1-44.069h8.745L54.014,22.2Z" transform="translate(0 0.031)" fill="#4d4d4d" fill-rule="evenodd"/>
    <path id="Trazado_627847" data-name="Trazado 627847" d="M213.7,209.5l12.861-7.373a3.259,3.259,0,0,1,4.63,1.2,3.568,3.568,0,0,1-1.2,4.63l-16.633,9.431c-1.029.514-3.429-.686-3.944-1.715l-3.429-5.83c-1.2-2.229.343-4.458,1.372-4.63a3.4,3.4,0,0,1,4.63,1.2Zm-6.687,11.489a16.248,16.248,0,1,0,0-22.978A16.248,16.248,0,0,0,207.008,220.986Z" transform="translate(-167.569 -152.656)" fill="#fff" fill-rule="evenodd"/>
    <path id="Trazado_627848" data-name="Trazado 627848" d="M255.713,256.17l-13.889,8.059a1.189,1.189,0,0,1-1.715-.514l-2.572-4.115a.813.813,0,1,0-1.372.857c.514.857,3.429,6.173,3.772,6.345,0,0,.514.343.857,0l15.776-9.088C257.6,257.027,256.742,255.484,255.713,256.17Z" transform="translate(-195.526 -204.644)" fill="#ffb338" fill-rule="evenodd"/>
    <path id="Trazado_627849" data-name="Trazado 627849" d="M315,94.917h8.745L315,86Z" transform="translate(-260.986 -63.797)" fill="#2b95f9" fill-rule="evenodd"/>
    <path id="Trazado_627850" data-name="Trazado 627850" d="M106.953,87.832V76H67v55.558c.171.514.171.171,0,.686v11.146h52.985v-9.431s-1.715-2.229.171-4.115l1.029-1.029-2.4-2.4c-11.66,10.46-31.037,2.229-31.037-14.061a18.519,18.519,0,0,1,5.487-13.375,18.787,18.787,0,0,1,26.75.343V89.032H108.154A1.172,1.172,0,0,1,106.953,87.832Zm-33.609-.686h27.95a1.286,1.286,0,0,1,0,2.572H73.345A1.286,1.286,0,0,1,73.345,87.146Zm0,9.6H85c1.715,0,1.543,2.572,0,2.572H73.345A1.286,1.286,0,0,1,73.345,96.748Zm0,9.6H85c1.715,0,1.543,2.572,0,2.572H73.345A1.286,1.286,0,0,1,73.345,106.351Zm0,9.431H85c1.715,0,1.543,2.572,0,2.572H73.345A1.286,1.286,0,0,1,73.345,115.782Zm0,9.431H85c1.715,0,1.543,2.572,0,2.572H73.345A1.286,1.286,0,1,1,73.345,125.213Zm0,9.6h34.809a1.286,1.286,0,0,1,0,2.572H73.345A1.286,1.286,0,0,1,73.345,134.816Z" transform="translate(-55.511 -55.511)" fill="#b6e1fd" fill-rule="evenodd"/>
    <path id="Trazado_627851" data-name="Trazado 627851" d="M22.716,30.345H59.24V24H15V87.617h6.345v-55.9A1.475,1.475,0,0,1,22.716,30.345Z" transform="translate(-12.428 -12.428)" fill="#2b95f9" fill-rule="evenodd"/>
    <path id="Trazado_627852" data-name="Trazado 627852" d="M392.285,377.666c-.857-.686-5.316,3.944-4.63,4.63l14.061,14.061a.765.765,0,0,0,.857,0l3.772-3.772a.779.779,0,0,0,0-.857Z" transform="translate(-321.123 -305.392)" fill="#617a0b" fill-rule="evenodd"/>
  </g>
</svg>
