<svg xmlns="http://www.w3.org/2000/svg" xmlns:xlink="http://www.w3.org/1999/xlink" width="838" height="245.16" viewBox="0 0 838 245.16">
  <defs>
    <filter id="Trazado_484803" x="0" y="0" width="838" height="65.905" filterUnits="userSpaceOnUse">
      <feOffset dy="3" input="SourceAlpha"/>
      <feGaussianBlur stdDeviation="3" result="blur"/>
      <feFlood flood-opacity="0.161"/>
      <feComposite operator="in" in2="blur"/>
      <feComposite in="SourceGraphic"/>
    </filter>
    <filter id="Trazado_199066" x="0" y="0" width="40" height="65.905" filterUnits="userSpaceOnUse">
      <feOffset dy="3" input="SourceAlpha"/>
      <feGaussianBlur stdDeviation="3" result="blur-2"/>
      <feFlood flood-opacity="0.161"/>
      <feComposite operator="in" in2="blur-2"/>
      <feComposite in="SourceGraphic"/>
    </filter>
    <filter id="Trazado_199067" x="798" y="0" width="40" height="65.905" filterUnits="userSpaceOnUse">
      <feOffset dy="3" input="SourceAlpha"/>
      <feGaussianBlur stdDeviation="3" result="blur-3"/>
      <feFlood flood-opacity="0.161"/>
      <feComposite operator="in" in2="blur-3"/>
      <feComposite in="SourceGraphic"/>
    </filter>
    <clipPath id="clip-path">
      <rect id="Rectángulo_328307" data-name="Rectángulo 328307" width="189.37" height="153.618" fill="none"/>
    </clipPath>
    <clipPath id="clip-path-2">
      <path id="Trazado_627152" data-name="Trazado 627152" d="M8.386.005l162.3,5.95a8.087,8.087,0,0,1,7.734,7.123l10.891,91.35a8.086,8.086,0,0,1-5.866,8.748L38.909,153.322a8.087,8.087,0,0,1-10.081-6.142L.174,9.737A8.086,8.086,0,0,1,8.386.005" transform="translate(0 0)" fill="none"/>
    </clipPath>
  </defs>
  <g id="Grupo_1034322" data-name="Grupo 1034322" transform="translate(-381 -2942.642)">
    <g id="Grupo_726876" data-name="Grupo 726876" transform="translate(390 2948.642)">
      <g transform="matrix(1, 0, 0, 1, -9, -6)" filter="url(#Trazado_484803)">
        <path id="Trazado_484803-2" data-name="Trazado 484803" d="M0,0H820V47.905H0Z" transform="translate(9 6)" fill="#3d672f"/>
      </g>
      <g transform="matrix(1, 0, 0, 1, -9, -6)" filter="url(#Trazado_199066)">
        <path id="Trazado_199066-2" data-name="Trazado 199066" d="M0,0H14l8,23.767L14,47.905H0Z" transform="translate(9 6)" fill="#617a0b"/>
      </g>
      <g transform="matrix(1, 0, 0, 1, -9, -6)" filter="url(#Trazado_199067)">
        <path id="Trazado_199067-2" data-name="Trazado 199067" d="M0,0H14l8,23.767L14,47.905H0Z" transform="translate(829 53.91) rotate(180)" fill="#617a0b"/>
      </g>
    </g>
    <path id="Trazado_749458" data-name="Trazado 749458" d="M31.6,14.176V19H28.172V4.781h5.674a6.608,6.608,0,0,1,2.886.6,4.526,4.526,0,0,1,1.943,1.709,4.667,4.667,0,0,1,.688,2.515,4.114,4.114,0,0,1-1.489,3.325,6.179,6.179,0,0,1-4.087,1.245Zm0-2.646h2.246a2.118,2.118,0,0,0,1.519-.5,1.85,1.85,0,0,0,.522-1.406,2.287,2.287,0,0,0-.537-1.592,1.9,1.9,0,0,0-1.465-.605H31.6Zm8.9,2.09a6.236,6.236,0,0,1,.615-2.817,4.4,4.4,0,0,1,1.768-1.9,5.323,5.323,0,0,1,2.705-.664,4.858,4.858,0,0,1,3.74,1.47,5.64,5.64,0,0,1,1.367,4v.117a5.472,5.472,0,0,1-1.372,3.921A4.871,4.871,0,0,1,45.6,19.2a4.927,4.927,0,0,1-3.623-1.353,5.29,5.29,0,0,1-1.475-3.667Zm3.291.205a3.932,3.932,0,0,0,.459,2.148,1.529,1.529,0,0,0,1.357.684q1.758,0,1.8-2.705v-.332q0-2.842-1.816-2.842-1.65,0-1.787,2.451Zm14.746-2.412-1.084-.078a1.947,1.947,0,0,0-1.992.977V19H52.166V8.434h3.086l.107,1.357a2.548,2.548,0,0,1,2.314-1.553,3.209,3.209,0,0,1,.918.117ZM64,16.656a1.464,1.464,0,0,0,1.074-.376,1.379,1.379,0,0,0,.371-1.05h3.086a3.653,3.653,0,0,1-1.245,2.852A4.631,4.631,0,0,1,64.08,19.2a4.689,4.689,0,0,1-3.633-1.445,5.7,5.7,0,0,1-1.328-4v-.137a6.436,6.436,0,0,1,.591-2.827,4.3,4.3,0,0,1,1.7-1.885,5.081,5.081,0,0,1,2.637-.659,4.573,4.573,0,0,1,3.271,1.143,4.053,4.053,0,0,1,1.211,3.1H65.447a1.806,1.806,0,0,0-.4-1.26,1.382,1.382,0,0,0-1.074-.439q-1.279,0-1.494,1.631a11.507,11.507,0,0,0-.068,1.426,4.52,4.52,0,0,0,.381,2.207A1.319,1.319,0,0,0,64,16.656ZM75.037,19.2a5.432,5.432,0,0,1-3.936-1.45,5.008,5.008,0,0,1-1.5-3.774V13.7a6.489,6.489,0,0,1,.6-2.861,4.395,4.395,0,0,1,1.753-1.919,5.292,5.292,0,0,1,2.734-.679A4.574,4.574,0,0,1,78.2,9.62a5.43,5.43,0,0,1,1.289,3.853v1.279H72.947a2.372,2.372,0,0,0,.771,1.4,2.3,2.3,0,0,0,1.543.508A2.958,2.958,0,0,0,77.7,15.563l1.5,1.777a4.2,4.2,0,0,1-1.743,1.353A5.891,5.891,0,0,1,75.037,19.2Zm-.371-8.418q-1.445,0-1.719,1.914h3.32v-.254a1.63,1.63,0,0,0-.4-1.226A1.593,1.593,0,0,0,74.666,10.777Zm9.17-2.344.107,1.24a3.583,3.583,0,0,1,3.018-1.436,3.015,3.015,0,0,1,2.466.986,4.7,4.7,0,0,1,.845,2.969V19h-3.3V12.33a1.783,1.783,0,0,0-.322-1.177,1.491,1.491,0,0,0-1.172-.376,1.569,1.569,0,0,0-1.436.762V19H80.75V8.434Zm12.09-2.627V8.434h1.738v2.285H95.926v4.834a1.234,1.234,0,0,0,.215.83,1.152,1.152,0,0,0,.85.234,4.828,4.828,0,0,0,.82-.059v2.354a6.074,6.074,0,0,1-1.855.283,3.448,3.448,0,0,1-2.51-.8,3.282,3.282,0,0,1-.811-2.432V10.719H91.287V8.434h1.348V5.807ZM104.91,19a3.716,3.716,0,0,1-.312-.947,3.06,3.06,0,0,1-2.539,1.143,3.749,3.749,0,0,1-2.539-.9,2.875,2.875,0,0,1-1.045-2.271,2.955,2.955,0,0,1,1.27-2.6,6.468,6.468,0,0,1,3.691-.879h1.016v-.559q0-1.462-1.26-1.462a1.03,1.03,0,0,0-1.172,1.158H98.728a2.95,2.95,0,0,1,1.3-2.487,5.479,5.479,0,0,1,3.325-.956,4.8,4.8,0,0,1,3.193.986,3.429,3.429,0,0,1,1.2,2.705v4.678a4.79,4.79,0,0,0,.449,2.227V19Zm-2.061-2.148a1.836,1.836,0,0,0,1.021-.264,1.653,1.653,0,0,0,.581-.6V14.3h-.957q-1.719,0-1.719,1.543a.942.942,0,0,0,.3.728A1.1,1.1,0,0,0,102.849,16.852Zm10.264-8.418V19.361a3.836,3.836,0,0,1-1.074,2.891,4.127,4.127,0,0,1-2.969,1.016,7.009,7.009,0,0,1-1.553-.166v-2.49a6.3,6.3,0,0,0,.928.088,1.2,1.2,0,0,0,1.367-1.357V8.434Zm-3.545-2.725a1.469,1.469,0,0,1,.508-1.152,2.159,2.159,0,0,1,2.637,0,1.469,1.469,0,0,1,.508,1.152,1.469,1.469,0,0,1-.508,1.152,2.159,2.159,0,0,1-2.637,0A1.469,1.469,0,0,1,109.568,5.709ZM120.086,19.2a5.432,5.432,0,0,1-3.936-1.45,5.008,5.008,0,0,1-1.5-3.774V13.7a6.489,6.489,0,0,1,.6-2.861A4.395,4.395,0,0,1,117,8.917a5.292,5.292,0,0,1,2.734-.679A4.574,4.574,0,0,1,123.25,9.62a5.43,5.43,0,0,1,1.289,3.853v1.279H118a2.372,2.372,0,0,0,.771,1.4,2.3,2.3,0,0,0,1.543.508,2.958,2.958,0,0,0,2.441-1.094l1.5,1.777a4.2,4.2,0,0,1-1.743,1.353A5.891,5.891,0,0,1,120.086,19.2Zm-.371-8.418q-1.445,0-1.719,1.914h3.32v-.254a1.63,1.63,0,0,0-.4-1.226A1.593,1.593,0,0,0,119.715,10.777Zm10.713,2.861a6.455,6.455,0,0,1,1.084-3.955,3.568,3.568,0,0,1,3.027-1.445,3.035,3.035,0,0,1,2.383,1.113V4h3.3V19h-2.959l-.166-1.133a3.116,3.116,0,0,1-2.578,1.328,3.562,3.562,0,0,1-2.988-1.445A6.659,6.659,0,0,1,130.428,13.639Zm3.291.205q0,2.813,1.641,2.813a1.62,1.62,0,0,0,1.563-.918V11.715a1.576,1.576,0,0,0-1.543-.937q-1.523,0-1.65,2.461ZM147.2,19.2a5.432,5.432,0,0,1-3.936-1.45,5.008,5.008,0,0,1-1.5-3.774V13.7a6.489,6.489,0,0,1,.6-2.861,4.395,4.395,0,0,1,1.753-1.919,5.292,5.292,0,0,1,2.734-.679,4.574,4.574,0,0,1,3.516,1.382,5.43,5.43,0,0,1,1.289,3.853v1.279h-6.543a2.372,2.372,0,0,0,.771,1.4,2.3,2.3,0,0,0,1.543.508,2.958,2.958,0,0,0,2.441-1.094l1.5,1.777a4.2,4.2,0,0,1-1.743,1.353A5.891,5.891,0,0,1,147.2,19.2Zm-.371-8.418q-1.445,0-1.719,1.914h3.32v-.254a1.63,1.63,0,0,0-.4-1.226A1.593,1.593,0,0,0,146.834,10.777ZM156.453,19h-3.3V4h3.3Zm10.479,0h-3.3V8.434h3.3Zm-3.5-13.291a1.469,1.469,0,0,1,.508-1.152,2.159,2.159,0,0,1,2.637,0,1.469,1.469,0,0,1,.508,1.152,1.469,1.469,0,0,1-.508,1.152,2.159,2.159,0,0,1-2.637,0A1.469,1.469,0,0,1,163.435,5.709Zm8.545,2.725.107,1.24a3.583,3.583,0,0,1,3.018-1.436,3.015,3.015,0,0,1,2.466.986,4.7,4.7,0,0,1,.845,2.969V19h-3.3V12.33a1.783,1.783,0,0,0-.322-1.177,1.491,1.491,0,0,0-1.172-.376,1.569,1.569,0,0,0-1.436.762V19h-3.291V8.434Zm7.871,5.205a7.134,7.134,0,0,1,.527-2.832,4.245,4.245,0,0,1,1.514-1.9,3.99,3.99,0,0,1,2.295-.669,3.173,3.173,0,0,1,2.578,1.113l.117-.918h2.988V18.6a4.455,4.455,0,0,1-.649,2.427,4.167,4.167,0,0,1-1.88,1.582,6.91,6.91,0,0,1-2.852.552,5.961,5.961,0,0,1-2.251-.439,4.063,4.063,0,0,1-1.665-1.143l1.377-1.934a3.018,3.018,0,0,0,2.422,1.084,1.96,1.96,0,0,0,2.188-2.246V18.15a3.09,3.09,0,0,1-2.393,1.045,3.819,3.819,0,0,1-3.125-1.479,6.13,6.13,0,0,1-1.191-3.96Zm3.3.205a3.759,3.759,0,0,0,.488,2.056,1.541,1.541,0,0,0,1.367.757,1.748,1.748,0,0,0,1.553-.713V11.5a1.7,1.7,0,0,0-1.533-.723,1.551,1.551,0,0,0-1.377.786A4.287,4.287,0,0,0,183.152,13.844Zm14.98-2.432-1.084-.078a1.947,1.947,0,0,0-1.992.977V19h-3.291V8.434h3.086l.107,1.357a2.548,2.548,0,0,1,2.314-1.553,3.209,3.209,0,0,1,.918.117Zm6.113,7.783a5.432,5.432,0,0,1-3.936-1.45,5.008,5.008,0,0,1-1.5-3.774V13.7a6.489,6.489,0,0,1,.6-2.861,4.395,4.395,0,0,1,1.753-1.919,5.292,5.292,0,0,1,2.734-.679A4.574,4.574,0,0,1,207.41,9.62a5.43,5.43,0,0,1,1.289,3.853v1.279h-6.543a2.372,2.372,0,0,0,.771,1.4,2.3,2.3,0,0,0,1.543.508,2.958,2.958,0,0,0,2.441-1.094l1.5,1.777a4.2,4.2,0,0,1-1.743,1.353A5.891,5.891,0,0,1,204.246,19.2Zm-.371-8.418q-1.445,0-1.719,1.914h3.32v-.254a1.63,1.63,0,0,0-.4-1.226A1.593,1.593,0,0,0,203.875,10.777Zm11.68,5.254a.76.76,0,0,0-.439-.674,6.685,6.685,0,0,0-1.67-.527,7.615,7.615,0,0,1-2.031-.718,3.4,3.4,0,0,1-1.221-1.079,2.577,2.577,0,0,1-.42-1.455,2.92,2.92,0,0,1,1.2-2.4,4.948,4.948,0,0,1,3.145-.942,5.482,5.482,0,0,1,3.359.947,2.962,2.962,0,0,1,1.27,2.49h-3.3q0-1.27-1.338-1.27a1.326,1.326,0,0,0-.869.288.892.892,0,0,0-.352.718.819.819,0,0,0,.43.713,4.06,4.06,0,0,0,1.372.449,11.857,11.857,0,0,1,1.655.42,3.007,3.007,0,0,1,2.383,2.939,2.767,2.767,0,0,1-1.284,2.354,5.632,5.632,0,0,1-3.325.908,5.747,5.747,0,0,1-2.422-.488,4.05,4.05,0,0,1-1.66-1.328,3.007,3.007,0,0,1-.6-1.768h3.076a1.272,1.272,0,0,0,.488,1.069,2.009,2.009,0,0,0,1.2.337,1.58,1.58,0,0,0,1.011-.273A.875.875,0,0,0,215.555,16.031Zm4.3-2.412a6.236,6.236,0,0,1,.615-2.817,4.4,4.4,0,0,1,1.768-1.9,5.323,5.323,0,0,1,2.705-.664,4.858,4.858,0,0,1,3.74,1.47,5.64,5.64,0,0,1,1.367,4v.117a5.472,5.472,0,0,1-1.372,3.921,4.871,4.871,0,0,1-3.716,1.45,4.927,4.927,0,0,1-3.623-1.353,5.29,5.29,0,0,1-1.475-3.667Zm3.291.205a3.932,3.932,0,0,0,.459,2.148,1.529,1.529,0,0,0,1.357.684q1.758,0,1.8-2.705v-.332q0-2.842-1.816-2.842-1.65,0-1.787,2.451Zm23.145-.02a6.44,6.44,0,0,1-1.074,3.994,3.6,3.6,0,0,1-3.027,1.4,3.122,3.122,0,0,1-2.6-1.279L239.451,19H236.5V4h3.291V9.283a3.013,3.013,0,0,1,2.373-1.045,3.6,3.6,0,0,1,3.047,1.416,6.473,6.473,0,0,1,1.074,3.984Zm-3.3-.21a4.3,4.3,0,0,0-.405-2.169,1.366,1.366,0,0,0-1.245-.648,1.576,1.576,0,0,0-1.543.848v4.192a1.585,1.585,0,0,0,1.563.838,1.4,1.4,0,0,0,1.475-1.131A8.121,8.121,0,0,0,242.986,13.595Zm11.143-2.183-1.084-.078a1.947,1.947,0,0,0-1.992.977V19h-3.291V8.434h3.086l.107,1.357a2.548,2.548,0,0,1,2.314-1.553,3.209,3.209,0,0,1,.918.117Zm7.48,6.445a3.393,3.393,0,0,1-2.822,1.338,3.328,3.328,0,0,1-2.632-1.011,4.251,4.251,0,0,1-.894-2.905V8.434h3.291V15.3a1.183,1.183,0,0,0,1.318,1.357,1.72,1.72,0,0,0,1.611-.811V8.434h3.311V19h-3.086Zm8.818-12.051V8.434h1.738v2.285h-1.738v4.834a1.234,1.234,0,0,0,.215.83,1.152,1.152,0,0,0,.85.234,4.828,4.828,0,0,0,.82-.059v2.354a6.074,6.074,0,0,1-1.855.283,3.448,3.448,0,0,1-2.51-.8,3.282,3.282,0,0,1-.811-2.432V10.719h-1.348V8.434h1.348V5.807Zm2.324,7.813a6.236,6.236,0,0,1,.615-2.817,4.4,4.4,0,0,1,1.768-1.9,5.323,5.323,0,0,1,2.705-.664,4.859,4.859,0,0,1,3.74,1.47,5.64,5.64,0,0,1,1.367,4v.117a5.472,5.472,0,0,1-1.372,3.921,4.871,4.871,0,0,1-3.716,1.45,4.927,4.927,0,0,1-3.623-1.353,5.29,5.29,0,0,1-1.475-3.667Zm3.291.205a3.931,3.931,0,0,0,.459,2.148,1.529,1.529,0,0,0,1.357.684q1.758,0,1.8-2.705v-.332q0-2.842-1.816-2.842-1.65,0-1.787,2.451ZM295.33,19a3.716,3.716,0,0,1-.312-.947,3.06,3.06,0,0,1-2.539,1.143,3.749,3.749,0,0,1-2.539-.9,2.875,2.875,0,0,1-1.045-2.271,2.955,2.955,0,0,1,1.27-2.6,6.468,6.468,0,0,1,3.691-.879h1.016v-.559q0-1.462-1.26-1.462a1.03,1.03,0,0,0-1.172,1.158h-3.291a2.95,2.95,0,0,1,1.3-2.487,5.479,5.479,0,0,1,3.325-.956,4.8,4.8,0,0,1,3.193.986,3.429,3.429,0,0,1,1.2,2.705v4.678a4.79,4.79,0,0,0,.449,2.227V19Zm-2.061-2.148a1.836,1.836,0,0,0,1.021-.264,1.653,1.653,0,0,0,.581-.6V14.3h-.957q-1.719,0-1.719,1.543a.942.942,0,0,0,.3.728A1.1,1.1,0,0,0,293.269,16.852Zm12.256-.82a.76.76,0,0,0-.439-.674,6.685,6.685,0,0,0-1.67-.527,7.615,7.615,0,0,1-2.031-.718,3.4,3.4,0,0,1-1.221-1.079,2.577,2.577,0,0,1-.42-1.455,2.92,2.92,0,0,1,1.2-2.4,4.948,4.948,0,0,1,3.145-.942,5.482,5.482,0,0,1,3.359.947,2.962,2.962,0,0,1,1.27,2.49h-3.3q0-1.27-1.338-1.27a1.326,1.326,0,0,0-.869.288.892.892,0,0,0-.352.718.819.819,0,0,0,.43.713,4.06,4.06,0,0,0,1.372.449,11.856,11.856,0,0,1,1.655.42,3.007,3.007,0,0,1,2.383,2.939,2.767,2.767,0,0,1-1.284,2.354,5.631,5.631,0,0,1-3.325.908,5.747,5.747,0,0,1-2.422-.488,4.05,4.05,0,0,1-1.66-1.328,3.007,3.007,0,0,1-.6-1.768h3.076a1.272,1.272,0,0,0,.488,1.069,2.009,2.009,0,0,0,1.2.337,1.58,1.58,0,0,0,1.011-.273A.875.875,0,0,0,305.525,16.031ZM313.709,19h-3.3V8.434h3.3Zm-3.5-13.291a1.469,1.469,0,0,1,.508-1.152,2.159,2.159,0,0,1,2.637,0,1.469,1.469,0,0,1,.508,1.152,1.469,1.469,0,0,1-.508,1.152,2.159,2.159,0,0,1-2.637,0A1.469,1.469,0,0,1,310.213,5.709Zm5.137,7.93a7.134,7.134,0,0,1,.527-2.832,4.245,4.245,0,0,1,1.514-1.9,3.99,3.99,0,0,1,2.295-.669,3.173,3.173,0,0,1,2.578,1.113l.117-.918h2.988V18.6a4.455,4.455,0,0,1-.649,2.427,4.167,4.167,0,0,1-1.88,1.582,6.91,6.91,0,0,1-2.852.552,5.961,5.961,0,0,1-2.251-.439,4.063,4.063,0,0,1-1.665-1.143l1.377-1.934a3.018,3.018,0,0,0,2.422,1.084,1.96,1.96,0,0,0,2.188-2.246V18.15a3.09,3.09,0,0,1-2.393,1.045,3.819,3.819,0,0,1-3.125-1.479,6.13,6.13,0,0,1-1.191-3.96Zm3.3.205a3.759,3.759,0,0,0,.488,2.056,1.541,1.541,0,0,0,1.367.757,1.748,1.748,0,0,0,1.553-.713V11.5a1.7,1.7,0,0,0-1.533-.723,1.551,1.551,0,0,0-1.377.786A4.287,4.287,0,0,0,318.65,13.844Zm11.611-5.41.107,1.24a3.583,3.583,0,0,1,3.018-1.436,3.015,3.015,0,0,1,2.466.986,4.7,4.7,0,0,1,.845,2.969V19h-3.3V12.33a1.783,1.783,0,0,0-.322-1.177,1.491,1.491,0,0,0-1.172-.376,1.569,1.569,0,0,0-1.436.762V19h-3.291V8.434ZM344.471,19a3.716,3.716,0,0,1-.312-.947,3.06,3.06,0,0,1-2.539,1.143,3.749,3.749,0,0,1-2.539-.9,2.875,2.875,0,0,1-1.045-2.271,2.955,2.955,0,0,1,1.27-2.6A6.468,6.468,0,0,1,343,12.545h1.016v-.559q0-1.462-1.26-1.462a1.03,1.03,0,0,0-1.172,1.158h-3.291a2.95,2.95,0,0,1,1.3-2.487,5.479,5.479,0,0,1,3.325-.956,4.8,4.8,0,0,1,3.193.986,3.429,3.429,0,0,1,1.2,2.705v4.678a4.79,4.79,0,0,0,.449,2.227V19Zm-2.061-2.148a1.836,1.836,0,0,0,1.021-.264,1.653,1.653,0,0,0,.581-.6V14.3h-.957q-1.719,0-1.719,1.543a.942.942,0,0,0,.3.728A1.1,1.1,0,0,0,342.41,16.852Zm6.309-3.213A6.455,6.455,0,0,1,349.8,9.684a3.568,3.568,0,0,1,3.027-1.445,3.035,3.035,0,0,1,2.383,1.113V4h3.3V19h-2.959l-.166-1.133A3.116,3.116,0,0,1,352.81,19.2a3.562,3.562,0,0,1-2.988-1.445A6.659,6.659,0,0,1,348.719,13.639Zm3.291.205q0,2.813,1.641,2.813a1.62,1.62,0,0,0,1.563-.918V11.715a1.576,1.576,0,0,0-1.543-.937q-1.523,0-1.65,2.461Zm7.959-.225a6.236,6.236,0,0,1,.615-2.817,4.4,4.4,0,0,1,1.768-1.9,5.323,5.323,0,0,1,2.705-.664,4.859,4.859,0,0,1,3.74,1.47,5.64,5.64,0,0,1,1.367,4v.117a5.472,5.472,0,0,1-1.372,3.921,4.871,4.871,0,0,1-3.716,1.45,4.927,4.927,0,0,1-3.623-1.353,5.29,5.29,0,0,1-1.475-3.667Zm3.291.205a3.931,3.931,0,0,0,.459,2.148,1.529,1.529,0,0,0,1.357.684q1.758,0,1.8-2.705v-.332q0-2.842-1.816-2.842-1.65,0-1.787,2.451ZM382.547,19a3.716,3.716,0,0,1-.312-.947A3.06,3.06,0,0,1,379.7,19.2a3.749,3.749,0,0,1-2.539-.9,2.875,2.875,0,0,1-1.045-2.271,2.955,2.955,0,0,1,1.27-2.6,6.468,6.468,0,0,1,3.691-.879h1.016v-.559q0-1.462-1.26-1.462a1.03,1.03,0,0,0-1.172,1.158h-3.291a2.95,2.95,0,0,1,1.3-2.487,5.479,5.479,0,0,1,3.325-.956,4.8,4.8,0,0,1,3.193.986,3.429,3.429,0,0,1,1.2,2.705v4.678a4.79,4.79,0,0,0,.449,2.227V19Zm-2.061-2.148a1.836,1.836,0,0,0,1.021-.264,1.653,1.653,0,0,0,.581-.6V14.3h-.957q-1.719,0-1.719,1.543a.942.942,0,0,0,.3.728A1.1,1.1,0,0,0,380.486,16.852ZM395.3,8.434l.107,1.24a3.633,3.633,0,0,1,3.018-1.436,2.675,2.675,0,0,1,2.705,1.592,3.517,3.517,0,0,1,3.105-1.592q3.213,0,3.3,3.887V19h-3.3V12.33a2.014,2.014,0,0,0-.273-1.182,1.164,1.164,0,0,0-1-.371,1.559,1.559,0,0,0-1.455.869l.01.137V19h-3.3V12.35a2.117,2.117,0,0,0-.264-1.2,1.161,1.161,0,0,0-1.006-.371,1.578,1.578,0,0,0-1.445.869V19h-3.291V8.434ZM414.529,19.2a5.432,5.432,0,0,1-3.936-1.45,5.008,5.008,0,0,1-1.5-3.774V13.7a6.489,6.489,0,0,1,.6-2.861,4.395,4.395,0,0,1,1.753-1.919,5.292,5.292,0,0,1,2.734-.679,4.574,4.574,0,0,1,3.516,1.382,5.43,5.43,0,0,1,1.289,3.853v1.279h-6.543a2.372,2.372,0,0,0,.771,1.4,2.3,2.3,0,0,0,1.543.508,2.958,2.958,0,0,0,2.441-1.094l1.5,1.777a4.2,4.2,0,0,1-1.743,1.353A5.891,5.891,0,0,1,414.529,19.2Zm-.371-8.418q-1.445,0-1.719,1.914h3.32v-.254a1.63,1.63,0,0,0-.4-1.226A1.593,1.593,0,0,0,414.158,10.777Zm12.539.635-1.084-.078a1.947,1.947,0,0,0-1.992.977V19H420.33V8.434h3.086l.107,1.357a2.548,2.548,0,0,1,2.314-1.553,3.209,3.209,0,0,1,.918.117Zm5.469,5.244a1.464,1.464,0,0,0,1.074-.376,1.379,1.379,0,0,0,.371-1.05H436.7a3.653,3.653,0,0,1-1.245,2.852,4.631,4.631,0,0,1-3.208,1.113,4.689,4.689,0,0,1-3.633-1.445,5.7,5.7,0,0,1-1.328-4v-.137a6.436,6.436,0,0,1,.591-2.827,4.3,4.3,0,0,1,1.7-1.885,5.081,5.081,0,0,1,2.637-.659,4.573,4.573,0,0,1,3.271,1.143,4.053,4.053,0,0,1,1.211,3.1h-3.086a1.806,1.806,0,0,0-.4-1.26,1.382,1.382,0,0,0-1.074-.439q-1.279,0-1.494,1.631a11.51,11.51,0,0,0-.068,1.426,4.52,4.52,0,0,0,.381,2.207A1.319,1.319,0,0,0,432.166,16.656ZM444.041,19a3.716,3.716,0,0,1-.312-.947,3.06,3.06,0,0,1-2.539,1.143,3.749,3.749,0,0,1-2.539-.9,2.875,2.875,0,0,1-1.045-2.271,2.955,2.955,0,0,1,1.27-2.6,6.468,6.468,0,0,1,3.691-.879h1.016v-.559q0-1.462-1.26-1.462a1.03,1.03,0,0,0-1.172,1.158h-3.291a2.95,2.95,0,0,1,1.3-2.487,5.479,5.479,0,0,1,3.325-.956,4.8,4.8,0,0,1,3.193.986,3.429,3.429,0,0,1,1.2,2.705v4.678a4.79,4.79,0,0,0,.449,2.227V19Zm-2.061-2.148A1.836,1.836,0,0,0,443,16.588a1.653,1.653,0,0,0,.581-.6V14.3h-.957q-1.719,0-1.719,1.543a.942.942,0,0,0,.3.728A1.1,1.1,0,0,0,441.98,16.852Zm6.309-3.213a6.455,6.455,0,0,1,1.084-3.955A3.568,3.568,0,0,1,452.4,8.238a3.035,3.035,0,0,1,2.383,1.113V4h3.3V19h-2.959l-.166-1.133a3.116,3.116,0,0,1-2.578,1.328,3.562,3.562,0,0,1-2.988-1.445A6.659,6.659,0,0,1,448.289,13.639Zm3.291.205q0,2.813,1.641,2.813a1.62,1.62,0,0,0,1.563-.918V11.715a1.576,1.576,0,0,0-1.543-.937q-1.523,0-1.65,2.461ZM465.066,19.2a5.432,5.432,0,0,1-3.936-1.45,5.008,5.008,0,0,1-1.5-3.774V13.7a6.489,6.489,0,0,1,.6-2.861,4.395,4.395,0,0,1,1.753-1.919,5.292,5.292,0,0,1,2.734-.679A4.574,4.574,0,0,1,468.23,9.62a5.43,5.43,0,0,1,1.289,3.853v1.279h-6.543a2.372,2.372,0,0,0,.771,1.4,2.3,2.3,0,0,0,1.543.508,2.958,2.958,0,0,0,2.441-1.094l1.5,1.777a4.2,4.2,0,0,1-1.743,1.353A5.891,5.891,0,0,1,465.066,19.2Zm-.371-8.418q-1.445,0-1.719,1.914h3.32v-.254a1.63,1.63,0,0,0-.4-1.226A1.593,1.593,0,0,0,464.7,10.777Zm5.732,2.842a6.236,6.236,0,0,1,.615-2.817,4.4,4.4,0,0,1,1.768-1.9,5.323,5.323,0,0,1,2.705-.664,4.859,4.859,0,0,1,3.74,1.47,5.64,5.64,0,0,1,1.367,4v.117a5.472,5.472,0,0,1-1.372,3.921,4.871,4.871,0,0,1-3.716,1.45,4.927,4.927,0,0,1-3.623-1.353,5.29,5.29,0,0,1-1.475-3.667Zm3.291.205a3.931,3.931,0,0,0,.459,2.148,1.529,1.529,0,0,0,1.357.684q1.758,0,1.8-2.705v-.332q0-2.842-1.816-2.842-1.65,0-1.787,2.451Zm18.867,2.207a.76.76,0,0,0-.439-.674,6.685,6.685,0,0,0-1.67-.527,7.615,7.615,0,0,1-2.031-.718,3.4,3.4,0,0,1-1.221-1.079,2.577,2.577,0,0,1-.42-1.455,2.92,2.92,0,0,1,1.2-2.4,4.948,4.948,0,0,1,3.145-.942,5.482,5.482,0,0,1,3.359.947,2.962,2.962,0,0,1,1.27,2.49h-3.3q0-1.27-1.338-1.27a1.326,1.326,0,0,0-.869.288.892.892,0,0,0-.352.718.819.819,0,0,0,.43.713,4.06,4.06,0,0,0,1.372.449,11.856,11.856,0,0,1,1.655.42,3.007,3.007,0,0,1,2.383,2.939,2.767,2.767,0,0,1-1.284,2.354,5.631,5.631,0,0,1-3.325.908,5.747,5.747,0,0,1-2.422-.488,4.05,4.05,0,0,1-1.66-1.328,3.007,3.007,0,0,1-.6-1.768h3.076a1.272,1.272,0,0,0,.488,1.069,2.009,2.009,0,0,0,1.2.337,1.58,1.58,0,0,0,1.011-.273A.875.875,0,0,0,492.586,16.031ZM502.41,19.2a5.432,5.432,0,0,1-3.936-1.45,5.008,5.008,0,0,1-1.5-3.774V13.7a6.489,6.489,0,0,1,.6-2.861,4.395,4.395,0,0,1,1.753-1.919,5.292,5.292,0,0,1,2.734-.679,4.574,4.574,0,0,1,3.516,1.382,5.43,5.43,0,0,1,1.289,3.853v1.279H500.32a2.372,2.372,0,0,0,.771,1.4,2.3,2.3,0,0,0,1.543.508,2.958,2.958,0,0,0,2.441-1.094l1.5,1.777a4.2,4.2,0,0,1-1.743,1.353A5.891,5.891,0,0,1,502.41,19.2Zm-.371-8.418q-1.445,0-1.719,1.914h3.32v-.254a1.63,1.63,0,0,0-.4-1.226A1.593,1.593,0,0,0,502.039,10.777Zm5.762,2.861a7.134,7.134,0,0,1,.527-2.832,4.245,4.245,0,0,1,1.514-1.9,3.99,3.99,0,0,1,2.295-.669,3.173,3.173,0,0,1,2.578,1.113l.117-.918h2.988V18.6a4.455,4.455,0,0,1-.649,2.427,4.167,4.167,0,0,1-1.88,1.582,6.91,6.91,0,0,1-2.852.552,5.961,5.961,0,0,1-2.251-.439,4.063,4.063,0,0,1-1.665-1.143l1.377-1.934a3.018,3.018,0,0,0,2.422,1.084,1.96,1.96,0,0,0,2.188-2.246V18.15a3.09,3.09,0,0,1-2.393,1.045,3.819,3.819,0,0,1-3.125-1.479,6.13,6.13,0,0,1-1.191-3.96Zm3.3.205a3.759,3.759,0,0,0,.488,2.056,1.541,1.541,0,0,0,1.367.757,1.748,1.748,0,0,0,1.553-.713V11.5a1.7,1.7,0,0,0-1.533-.723,1.551,1.551,0,0,0-1.377.786A4.287,4.287,0,0,0,511.1,13.844Zm14.883,4.014a3.393,3.393,0,0,1-2.822,1.338,3.328,3.328,0,0,1-2.632-1.011,4.251,4.251,0,0,1-.894-2.905V8.434h3.291V15.3a1.183,1.183,0,0,0,1.318,1.357,1.72,1.72,0,0,0,1.611-.811V8.434h3.311V19h-3.086ZM524.812,4h3.477l-2.715,3.066-2.686,0Zm9.18,4.434.107,1.24a3.583,3.583,0,0,1,3.018-1.436,3.015,3.015,0,0,1,2.466.986,4.7,4.7,0,0,1,.845,2.969V19h-3.3V12.33a1.783,1.783,0,0,0-.322-1.177,1.491,1.491,0,0,0-1.172-.376,1.569,1.569,0,0,0-1.436.762V19h-3.291V8.434Zm17.07-2.627V8.434H552.8v2.285h-1.738v4.834a1.234,1.234,0,0,0,.215.83,1.152,1.152,0,0,0,.85.234,4.828,4.828,0,0,0,.82-.059v2.354a6.074,6.074,0,0,1-1.855.283,3.448,3.448,0,0,1-2.51-.8,3.282,3.282,0,0,1-.811-2.432V10.719h-1.348V8.434h1.348V5.807ZM557.566,19h-3.3V8.434h3.3Zm-3.5-13.291a1.469,1.469,0,0,1,.508-1.152,2.159,2.159,0,0,1,2.637,0,1.469,1.469,0,0,1,.508,1.152,1.469,1.469,0,0,1-.508,1.152,2.159,2.159,0,0,1-2.637,0A1.469,1.469,0,0,1,554.07,5.709ZM569.4,13.795a6.372,6.372,0,0,1-1.108,3.931A3.554,3.554,0,0,1,565.3,19.2a3.046,3.046,0,0,1-2.393-1.064v4.932h-3.291V8.434h3.076l.1.977a3.046,3.046,0,0,1,2.49-1.172,3.582,3.582,0,0,1,3.037,1.44,6.45,6.45,0,0,1,1.084,3.96Zm-3.291-.205q0-2.812-1.641-2.812a1.549,1.549,0,0,0-1.562.84v4.16a1.6,1.6,0,0,0,1.582.879q1.572,0,1.621-2.715Zm4.326.029a6.236,6.236,0,0,1,.615-2.817,4.4,4.4,0,0,1,1.768-1.9,5.324,5.324,0,0,1,2.705-.664,4.858,4.858,0,0,1,3.74,1.47,5.64,5.64,0,0,1,1.367,4v.117a5.472,5.472,0,0,1-1.372,3.921,4.871,4.871,0,0,1-3.716,1.45,4.927,4.927,0,0,1-3.623-1.353,5.29,5.29,0,0,1-1.475-3.667Zm3.291.205a3.932,3.932,0,0,0,.459,2.148,1.529,1.529,0,0,0,1.357.684q1.758,0,1.8-2.705v-.332q0-2.842-1.816-2.842-1.65,0-1.787,2.451Zm12.92-.186a6.455,6.455,0,0,1,1.084-3.955,3.568,3.568,0,0,1,3.027-1.445,3.035,3.035,0,0,1,2.383,1.113V4h3.3V19h-2.959l-.166-1.133A3.116,3.116,0,0,1,590.74,19.2a3.561,3.561,0,0,1-2.988-1.445A6.659,6.659,0,0,1,586.648,13.639Zm3.291.205q0,2.813,1.641,2.813a1.62,1.62,0,0,0,1.563-.918V11.715a1.576,1.576,0,0,0-1.543-.937q-1.523,0-1.65,2.461ZM603.426,19.2a5.432,5.432,0,0,1-3.936-1.45,5.008,5.008,0,0,1-1.5-3.774V13.7a6.489,6.489,0,0,1,.6-2.861,4.395,4.395,0,0,1,1.753-1.919,5.292,5.292,0,0,1,2.734-.679A4.574,4.574,0,0,1,606.59,9.62a5.43,5.43,0,0,1,1.289,3.853v1.279h-6.543a2.372,2.372,0,0,0,.771,1.4,2.3,2.3,0,0,0,1.543.508,2.958,2.958,0,0,0,2.441-1.094l1.5,1.777a4.2,4.2,0,0,1-1.743,1.353A5.891,5.891,0,0,1,603.426,19.2Zm-.371-8.418q-1.445,0-1.719,1.914h3.32v-.254a1.63,1.63,0,0,0-.4-1.226A1.593,1.593,0,0,0,603.055,10.777Zm15.6,5.879a1.464,1.464,0,0,0,1.074-.376,1.379,1.379,0,0,0,.371-1.05h3.086a3.653,3.653,0,0,1-1.245,2.852,4.631,4.631,0,0,1-3.208,1.113A4.689,4.689,0,0,1,615.1,17.75a5.7,5.7,0,0,1-1.328-4v-.137a6.436,6.436,0,0,1,.591-2.827,4.3,4.3,0,0,1,1.7-1.885,5.081,5.081,0,0,1,2.637-.659,4.573,4.573,0,0,1,3.271,1.143,4.052,4.052,0,0,1,1.211,3.1H620.1a1.807,1.807,0,0,0-.4-1.26,1.382,1.382,0,0,0-1.074-.439q-1.279,0-1.494,1.631a11.5,11.5,0,0,0-.068,1.426,4.52,4.52,0,0,0,.381,2.207A1.319,1.319,0,0,0,618.65,16.656Zm5.508-3.037a6.236,6.236,0,0,1,.615-2.817,4.4,4.4,0,0,1,1.768-1.9,5.324,5.324,0,0,1,2.705-.664,4.858,4.858,0,0,1,3.74,1.47,5.64,5.64,0,0,1,1.367,4v.117a5.472,5.472,0,0,1-1.372,3.921,4.871,4.871,0,0,1-3.716,1.45,4.927,4.927,0,0,1-3.623-1.353,5.29,5.29,0,0,1-1.475-3.667Zm3.291.205a3.932,3.932,0,0,0,.459,2.148,1.529,1.529,0,0,0,1.357.684q1.758,0,1.8-2.705v-.332q0-2.842-1.816-2.842-1.65,0-1.787,2.451Zm11.465-5.391.107,1.24a3.633,3.633,0,0,1,3.018-1.436,2.675,2.675,0,0,1,2.705,1.592,3.516,3.516,0,0,1,3.105-1.592q3.213,0,3.3,3.887V19h-3.3V12.33a2.014,2.014,0,0,0-.273-1.182,1.164,1.164,0,0,0-1-.371,1.559,1.559,0,0,0-1.455.869l.01.137V19h-3.3V12.35a2.117,2.117,0,0,0-.264-1.2,1.161,1.161,0,0,0-1.006-.371,1.578,1.578,0,0,0-1.445.869V19h-3.291V8.434Zm23.926,5.361a6.372,6.372,0,0,1-1.108,3.931,3.554,3.554,0,0,1-2.993,1.47,3.046,3.046,0,0,1-2.393-1.064v4.932h-3.291V8.434h3.076l.1.977a3.046,3.046,0,0,1,2.49-1.172,3.582,3.582,0,0,1,3.037,1.44,6.45,6.45,0,0,1,1.084,3.96Zm-3.291-.205q0-2.812-1.641-2.812a1.549,1.549,0,0,0-1.562.84v4.16a1.6,1.6,0,0,0,1.582.879q1.572,0,1.621-2.715ZM670.242,19a3.715,3.715,0,0,1-.312-.947A3.06,3.06,0,0,1,667.39,19.2a3.749,3.749,0,0,1-2.539-.9,2.875,2.875,0,0,1-1.045-2.271,2.955,2.955,0,0,1,1.27-2.6,6.468,6.468,0,0,1,3.691-.879h1.016v-.559q0-1.462-1.26-1.462a1.03,1.03,0,0,0-1.172,1.158H664.06a2.95,2.95,0,0,1,1.3-2.487,5.479,5.479,0,0,1,3.325-.956,4.8,4.8,0,0,1,3.193.986,3.429,3.429,0,0,1,1.2,2.705v4.678a4.79,4.79,0,0,0,.449,2.227V19Zm-2.061-2.148a1.836,1.836,0,0,0,1.021-.264,1.652,1.652,0,0,0,.581-.6V14.3h-.957q-1.719,0-1.719,1.543a.942.942,0,0,0,.3.728A1.1,1.1,0,0,0,668.181,16.852Zm9.746-8.418.107,1.24a3.583,3.583,0,0,1,3.018-1.436,3.015,3.015,0,0,1,2.466.986,4.7,4.7,0,0,1,.845,2.969V19h-3.3V12.33a1.783,1.783,0,0,0-.322-1.177,1.491,1.491,0,0,0-1.172-.376,1.569,1.569,0,0,0-1.436.762V19h-3.291V8.434Zm5.459-4.355a2.847,2.847,0,0,1-.649,1.89,2.015,2.015,0,0,1-1.606.776,3.169,3.169,0,0,1-1.436-.41,2.994,2.994,0,0,0-1.279-.41.733.733,0,0,0-.532.215.892.892,0,0,0-.22.664l-1.826-.1a2.863,2.863,0,0,1,.649-1.875,1.992,1.992,0,0,1,1.6-.791,3.3,3.3,0,0,1,1.279.361,7.857,7.857,0,0,0,1,.41,1.934,1.934,0,0,0,.444.049.746.746,0,0,0,.537-.217.9.9,0,0,0,.225-.671ZM689.773,19h-3.311V8.434h3.311Zm-1.23-14.8h3.477L689.3,7.262l-2.686,0Zm9.3,14.8a3.715,3.715,0,0,1-.312-.947,3.06,3.06,0,0,1-2.539,1.143,3.749,3.749,0,0,1-2.539-.9,2.875,2.875,0,0,1-1.045-2.271,2.955,2.955,0,0,1,1.27-2.6,6.468,6.468,0,0,1,3.691-.879h1.016v-.559q0-1.462-1.26-1.462a1.03,1.03,0,0,0-1.172,1.158h-3.291a2.95,2.95,0,0,1,1.3-2.487,5.479,5.479,0,0,1,3.325-.956,4.8,4.8,0,0,1,3.193.986,3.429,3.429,0,0,1,1.2,2.705v4.678a4.79,4.79,0,0,0,.449,2.227V19Zm-2.061-2.148a1.836,1.836,0,0,0,1.021-.264,1.652,1.652,0,0,0,.581-.6V14.3h-.957q-1.719,0-1.719,1.543a.942.942,0,0,0,.3.728A1.1,1.1,0,0,0,695.779,16.852Z" transform="translate(442 2960.829)" fill="#fff"/>
    <g id="Grupo_878511" data-name="Grupo 878511" transform="translate(390 3033.752)">
      <path id="Trazado_627151" data-name="Trazado 627151" d="M.174,10.059,28.828,147.5a8.087,8.087,0,0,0,10.081,6.14L183.448,113.5a8.088,8.088,0,0,0,5.866-8.75L178.422,13.4a8.087,8.087,0,0,0-7.734-7.124L8.387.327A8.086,8.086,0,0,0,.174,10.059" transform="translate(0 0.11)" fill="#ffb338"/>
      <path id="Trazado_627156" data-name="Trazado 627156" d="M.174,10.059,28.828,147.5a8.087,8.087,0,0,0,10.081,6.14L183.448,113.5a8.088,8.088,0,0,0,5.866-8.75L178.422,13.4a8.087,8.087,0,0,0-7.734-7.124L8.387.327A8.086,8.086,0,0,0,.174,10.059" transform="translate(0 -0.322)" fill="#ffb338"/>
      <path id="Trazado_627153" data-name="Trazado 627153" d="M21.417,20.747,13.885,96.127a11.335,11.335,0,0,0,8.936,12.216l115.532,24.408a11.334,11.334,0,0,0,13.495-9.066L170.427,21.332A11.335,11.335,0,0,0,159.045,7.977L32.465,10.542A11.335,11.335,0,0,0,21.417,20.747" transform="translate(4.687 2.703)" fill="#fff"/>
      <path id="Trazado_627154" data-name="Trazado 627154" d="M139.353,126.286a5.993,5.993,0,0,1-1.249-.133L22.572,101.745A5.969,5.969,0,0,1,17.859,95.3L25.39,19.923a5.983,5.983,0,0,1,5.828-5.384L157.8,11.975a6.022,6.022,0,0,1,4.706,2.148,5.884,5.884,0,0,1,1.292,4.9L145.224,121.372A5.969,5.969,0,0,1,139.353,126.286Z" transform="translate(6.043 4.059)" fill="#fff"/>
      <path id="Trazado_627155" data-name="Trazado 627155" d="M139.353,126.286a5.993,5.993,0,0,1-1.249-.133L22.572,101.745A5.969,5.969,0,0,1,17.859,95.3L25.39,19.923a5.983,5.983,0,0,1,5.828-5.384L157.8,11.975a6.022,6.022,0,0,1,4.706,2.148,5.884,5.884,0,0,1,1.292,4.9L145.224,121.372A5.969,5.969,0,0,1,139.353,126.286Z" transform="translate(6.043 4.059)" fill="none" stroke="#f7b955" stroke-miterlimit="10" stroke-width="0.5" stroke-dasharray="4.929 4.929"/>
      <rect id="Rectángulo_328308" data-name="Rectángulo 328308" width="189.37" height="154.049" transform="translate(0 0.001)" fill="none"/>
    </g>
    <g id="Grupo_878512" data-name="Grupo 878512" transform="translate(602.887 3033.752)">
      <path id="Trazado_627151-2" data-name="Trazado 627151" d="M.174,10.059,28.828,147.5a8.087,8.087,0,0,0,10.081,6.14L183.448,113.5a8.088,8.088,0,0,0,5.866-8.75L178.422,13.4a8.087,8.087,0,0,0-7.734-7.124L8.387.327A8.086,8.086,0,0,0,.174,10.059" transform="translate(0 0.11)" fill="#ffb338"/>
      <path id="Trazado_627156-2" data-name="Trazado 627156" d="M.174,10.059,28.828,147.5a8.087,8.087,0,0,0,10.081,6.14L183.448,113.5a8.088,8.088,0,0,0,5.866-8.75L178.422,13.4a8.087,8.087,0,0,0-7.734-7.124L8.387.327A8.086,8.086,0,0,0,.174,10.059" transform="translate(0 -0.322)" fill="#2b95f9"/>
      <path id="Trazado_627153-2" data-name="Trazado 627153" d="M21.417,20.747,13.885,96.127a11.335,11.335,0,0,0,8.936,12.216l115.532,24.408a11.334,11.334,0,0,0,13.495-9.066L170.427,21.332A11.335,11.335,0,0,0,159.045,7.977L32.465,10.542A11.335,11.335,0,0,0,21.417,20.747" transform="translate(4.687 2.703)" fill="#fff"/>
      <path id="Trazado_627154-2" data-name="Trazado 627154" d="M139.353,126.286a5.993,5.993,0,0,1-1.249-.133L22.572,101.745A5.969,5.969,0,0,1,17.859,95.3L25.39,19.923a5.983,5.983,0,0,1,5.828-5.384L157.8,11.975a6.022,6.022,0,0,1,4.706,2.148,5.884,5.884,0,0,1,1.292,4.9L145.224,121.372A5.969,5.969,0,0,1,139.353,126.286Z" transform="translate(6.043 4.059)" fill="#fff"/>
      <path id="Trazado_627155-2" data-name="Trazado 627155" d="M139.353,126.286a5.993,5.993,0,0,1-1.249-.133L22.572,101.745A5.969,5.969,0,0,1,17.859,95.3L25.39,19.923a5.983,5.983,0,0,1,5.828-5.384L157.8,11.975a6.022,6.022,0,0,1,4.706,2.148,5.884,5.884,0,0,1,1.292,4.9L145.224,121.372A5.969,5.969,0,0,1,139.353,126.286Z" transform="translate(6.043 4.059)" fill="none" stroke="#0175e5" stroke-miterlimit="10" stroke-width="0.5" stroke-dasharray="4.929 4.929"/>
      <rect id="Rectángulo_328308-2" data-name="Rectángulo 328308" width="189.37" height="154.049" transform="translate(0 0.001)" fill="none"/>
    </g>
    <g id="Grupo_878513" data-name="Grupo 878513" transform="translate(811.757 3033.752)">
      <path id="Trazado_627151-3" data-name="Trazado 627151" d="M.174,10.059,28.828,147.5a8.087,8.087,0,0,0,10.081,6.14L183.448,113.5a8.088,8.088,0,0,0,5.866-8.75L178.422,13.4a8.087,8.087,0,0,0-7.734-7.124L8.387.327A8.086,8.086,0,0,0,.174,10.059" transform="translate(0 0.11)" fill="#ffb338"/>
      <path id="Trazado_627156-3" data-name="Trazado 627156" d="M.174,10.059,28.828,147.5a8.087,8.087,0,0,0,10.081,6.14L183.448,113.5a8.088,8.088,0,0,0,5.866-8.75L178.422,13.4a8.087,8.087,0,0,0-7.734-7.124L8.387.327A8.086,8.086,0,0,0,.174,10.059" transform="translate(0 -0.322)" fill="#eb6f2d"/>
      <path id="Trazado_627153-3" data-name="Trazado 627153" d="M21.417,20.747,13.885,96.127a11.335,11.335,0,0,0,8.936,12.216l115.532,24.408a11.334,11.334,0,0,0,13.495-9.066L170.427,21.332A11.335,11.335,0,0,0,159.045,7.977L32.465,10.542A11.335,11.335,0,0,0,21.417,20.747" transform="translate(4.687 2.703)" fill="#fff"/>
      <path id="Trazado_627154-3" data-name="Trazado 627154" d="M139.353,126.286a5.993,5.993,0,0,1-1.249-.133L22.572,101.745A5.969,5.969,0,0,1,17.859,95.3L25.39,19.923a5.983,5.983,0,0,1,5.828-5.384L157.8,11.975a6.022,6.022,0,0,1,4.706,2.148,5.884,5.884,0,0,1,1.292,4.9L145.224,121.372A5.969,5.969,0,0,1,139.353,126.286Z" transform="translate(6.043 4.059)" fill="#fff"/>
      <path id="Trazado_627155-3" data-name="Trazado 627155" d="M139.353,126.286a5.993,5.993,0,0,1-1.249-.133L22.572,101.745A5.969,5.969,0,0,1,17.859,95.3L25.39,19.923a5.983,5.983,0,0,1,5.828-5.384L157.8,11.975a6.022,6.022,0,0,1,4.706,2.148,5.884,5.884,0,0,1,1.292,4.9L145.224,121.372A5.969,5.969,0,0,1,139.353,126.286Z" transform="translate(6.043 4.059)" fill="none" stroke="#e44e00" stroke-miterlimit="10" stroke-width="0.5" stroke-dasharray="4.929 4.929"/>
      <rect id="Rectángulo_328308-3" data-name="Rectángulo 328308" width="189.37" height="154.049" transform="translate(0 0.001)" fill="none"/>
    </g>
    <g id="Grupo_878514" data-name="Grupo 878514" transform="translate(1020.628 3033.752)">
      <path id="Trazado_627151-4" data-name="Trazado 627151" d="M.174,10.059,28.828,147.5a8.087,8.087,0,0,0,10.081,6.14L183.448,113.5a8.088,8.088,0,0,0,5.866-8.75L178.422,13.4a8.087,8.087,0,0,0-7.734-7.124L8.387.327A8.086,8.086,0,0,0,.174,10.059" transform="translate(0 0.11)" fill="#ffb338"/>
      <path id="Trazado_627156-4" data-name="Trazado 627156" d="M.174,10.059,28.828,147.5a8.087,8.087,0,0,0,10.081,6.14L183.448,113.5a8.088,8.088,0,0,0,5.866-8.75L178.422,13.4a8.087,8.087,0,0,0-7.734-7.124L8.387.327A8.086,8.086,0,0,0,.174,10.059" transform="translate(0 -0.322)" fill="#b1de19"/>
      <path id="Trazado_627153-4" data-name="Trazado 627153" d="M21.417,20.747,13.885,96.127a11.335,11.335,0,0,0,8.936,12.216l115.532,24.408a11.334,11.334,0,0,0,13.495-9.066L170.427,21.332A11.335,11.335,0,0,0,159.045,7.977L32.465,10.542A11.335,11.335,0,0,0,21.417,20.747" transform="translate(4.687 2.703)" fill="#fff"/>
      <path id="Trazado_627154-4" data-name="Trazado 627154" d="M139.353,126.286a5.993,5.993,0,0,1-1.249-.133L22.572,101.745A5.969,5.969,0,0,1,17.859,95.3L25.39,19.923a5.983,5.983,0,0,1,5.828-5.384L157.8,11.975a6.022,6.022,0,0,1,4.706,2.148,5.884,5.884,0,0,1,1.292,4.9L145.224,121.372A5.969,5.969,0,0,1,139.353,126.286Z" transform="translate(6.043 4.059)" fill="#fff"/>
      <path id="Trazado_627155-4" data-name="Trazado 627155" d="M139.353,126.286a5.993,5.993,0,0,1-1.249-.133L22.572,101.745A5.969,5.969,0,0,1,17.859,95.3L25.39,19.923a5.983,5.983,0,0,1,5.828-5.384L157.8,11.975a6.022,6.022,0,0,1,4.706,2.148,5.884,5.884,0,0,1,1.292,4.9L145.224,121.372A5.969,5.969,0,0,1,139.353,126.286Z" transform="translate(6.043 4.059)" fill="none" stroke="#617a0b" stroke-miterlimit="10" stroke-width="0.5" stroke-dasharray="4.929 4.929"/>
      <rect id="Rectángulo_328308-4" data-name="Rectángulo 328308" width="189.37" height="154.049" transform="translate(0 0.001)" fill="none"/>
    </g>
    <path id="Trazado_749459" data-name="Trazado 749459" d="M0,0H189.37V154.049H0Z" transform="translate(390 3033.752)" fill="none"/>
    <path id="Trazado_749460" data-name="Trazado 749460" d="M0,0H189.37V154.049H0Z" transform="translate(602.887 3033.752)" fill="none"/>
    <path id="Trazado_749461" data-name="Trazado 749461" d="M0,0H189.37V154.049H0Z" transform="translate(811.758 3033.752)" fill="none"/>
    <path id="Trazado_749462" data-name="Trazado 749462" d="M0,0H189.37V154.049H0Z" transform="translate(1020.628 3033.752)" fill="none"/>
    <path id="Trazado_749463" data-name="Trazado 749463" d="M.762,0V-8.531H3.75a3.924,3.924,0,0,1,2.355.595,2.034,2.034,0,0,1,.8,1.743,1.927,1.927,0,0,1-.322,1.1,1.861,1.861,0,0,1-.9.7,1.8,1.8,0,0,1,1.034.662A1.957,1.957,0,0,1,7.1-2.508,2.251,2.251,0,0,1,6.316-.645,3.535,3.535,0,0,1,4.078,0ZM2.52-3.715v2.3H4.025a1.453,1.453,0,0,0,.97-.3,1.015,1.015,0,0,0,.349-.817A1.071,1.071,0,0,0,4.131-3.715Zm0-1.242h1.3Q5.15-4.98,5.15-6.018a.98.98,0,0,0-.337-.835A1.772,1.772,0,0,0,3.75-7.107H2.52ZM14.086,0H8.238V-1.16L11-4.1a6.808,6.808,0,0,0,.841-1.084,1.742,1.742,0,0,0,.272-.879,1.3,1.3,0,0,0-.287-.894A1.036,1.036,0,0,0,11-7.283a1.118,1.118,0,0,0-.905.4,1.567,1.567,0,0,0-.331,1.04h-1.7A2.8,2.8,0,0,1,8.44-7.271,2.622,2.622,0,0,1,9.492-8.282a3.2,3.2,0,0,1,1.541-.366,3.027,3.027,0,0,1,2.048.633,2.239,2.239,0,0,1,.729,1.787,2.868,2.868,0,0,1-.328,1.289A7.164,7.164,0,0,1,12.357-3.41L10.418-1.365h3.668ZM15.3,0V-8.531h2.988a3.924,3.924,0,0,1,2.355.595,2.034,2.034,0,0,1,.8,1.743,1.927,1.927,0,0,1-.322,1.1,1.861,1.861,0,0,1-.9.7,1.8,1.8,0,0,1,1.034.662,1.957,1.957,0,0,1,.378,1.219,2.251,2.251,0,0,1-.785,1.863A3.535,3.535,0,0,1,18.621,0Zm1.758-3.715v2.3h1.506a1.453,1.453,0,0,0,.97-.3,1.015,1.015,0,0,0,.349-.817,1.071,1.071,0,0,0-1.213-1.189Zm0-1.242h1.3q1.33-.023,1.33-1.061a.98.98,0,0,0-.337-.835,1.772,1.772,0,0,0-1.063-.255h-1.23ZM27.709-3.006V0H25.951V-8.531h3.328a3.85,3.85,0,0,1,1.69.352,2.591,2.591,0,0,1,1.122,1,2.786,2.786,0,0,1,.393,1.474,2.45,2.45,0,0,1-.858,1.978,3.575,3.575,0,0,1-2.376.724Zm0-1.424h1.57a1.544,1.544,0,0,0,1.063-.328,1.193,1.193,0,0,0,.366-.937,1.407,1.407,0,0,0-.369-1.014,1.379,1.379,0,0,0-1.02-.4H27.709Zm9.434-.322a4.6,4.6,0,0,0-.609-.047,1.24,1.24,0,0,0-1.26.65V0H33.58V-6.34h1.6l.047.756a1.569,1.569,0,0,1,1.412-.873,1.774,1.774,0,0,1,.527.076Zm.34,1.523a3.76,3.76,0,0,1,.363-1.682,2.659,2.659,0,0,1,1.046-1.143,3.051,3.051,0,0,1,1.585-.4,2.887,2.887,0,0,1,2.095.785,3.151,3.151,0,0,1,.905,2.133l.012.434a3.314,3.314,0,0,1-.814,2.341,2.831,2.831,0,0,1-2.186.882A2.845,2.845,0,0,1,38.3-.762a3.372,3.372,0,0,1-.817-2.391Zm1.693.12a2.37,2.37,0,0,0,.34,1.382,1.121,1.121,0,0,0,.973.478,1.124,1.124,0,0,0,.961-.472,2.593,2.593,0,0,0,.346-1.511A2.346,2.346,0,0,0,41.449-4.6a1.124,1.124,0,0,0-.973-.487,1.105,1.105,0,0,0-.961.484A2.637,2.637,0,0,0,39.176-3.108Zm5.092-.108a3.821,3.821,0,0,1,.665-2.361,2.158,2.158,0,0,1,1.819-.879,1.942,1.942,0,0,1,1.529.691V-9h1.7V0H48.451l-.082-.674A1.993,1.993,0,0,1,46.74.117a2.152,2.152,0,0,1-1.8-.882A3.944,3.944,0,0,1,44.268-3.217Zm1.693.126a2.5,2.5,0,0,0,.311,1.367,1.012,1.012,0,0,0,.9.475,1.133,1.133,0,0,0,1.107-.663V-4.417a1.117,1.117,0,0,0-1.1-.663Q45.961-5.08,45.961-3.091ZM55.09-.645a2.124,2.124,0,0,1-1.734.762A2,2,0,0,1,51.8-.469a2.5,2.5,0,0,1-.548-1.717V-6.34h1.693v4.1q0,.991.9.991a1.223,1.223,0,0,0,1.184-.6V-6.34h1.7V0H55.137Zm5.555-.6a1.111,1.111,0,0,0,.762-.258.9.9,0,0,0,.3-.686H63.3a2.172,2.172,0,0,1-.352,1.181A2.32,2.32,0,0,1,62-.179a2.962,2.962,0,0,1-1.327.3,2.752,2.752,0,0,1-2.145-.864,3.42,3.42,0,0,1-.785-2.388v-.111a3.381,3.381,0,0,1,.779-2.338,2.72,2.72,0,0,1,2.139-.873,2.667,2.667,0,0,1,1.907.677,2.4,2.4,0,0,1,.729,1.8H61.711a1.164,1.164,0,0,0-.3-.8,1.016,1.016,0,0,0-.773-.309,1.02,1.02,0,0,0-.894.431,2.5,2.5,0,0,0-.3,1.4v.176a2.531,2.531,0,0,0,.3,1.408A1.033,1.033,0,0,0,60.645-1.248ZM66.293-7.9V-6.34h1.084V-5.1H66.293v3.164a.756.756,0,0,0,.135.5.677.677,0,0,0,.516.152,2.7,2.7,0,0,0,.5-.041V-.035a3.486,3.486,0,0,1-1.025.152,1.617,1.617,0,0,1-1.816-1.8V-5.1h-.926V-6.34H64.6V-7.9Zm1.588,4.67a3.76,3.76,0,0,1,.363-1.682A2.659,2.659,0,0,1,69.29-6.053a3.051,3.051,0,0,1,1.585-.4,2.887,2.887,0,0,1,2.095.785,3.151,3.151,0,0,1,.905,2.133l.012.434a3.314,3.314,0,0,1-.814,2.341,2.831,2.831,0,0,1-2.186.882A2.845,2.845,0,0,1,68.7-.762a3.372,3.372,0,0,1-.817-2.391Zm1.693.12a2.37,2.37,0,0,0,.34,1.382,1.121,1.121,0,0,0,.973.478,1.124,1.124,0,0,0,.961-.472,2.593,2.593,0,0,0,.346-1.511A2.346,2.346,0,0,0,71.848-4.6a1.124,1.124,0,0,0-.973-.487,1.105,1.105,0,0,0-.961.484A2.637,2.637,0,0,0,69.574-3.108Z" transform="translate(447.186 3086.817)" fill="#eb6f2d"/>
    <path id="Trazado_749464" data-name="Trazado 749464" d="M.762,0V-8.531H3.75a3.924,3.924,0,0,1,2.355.595,2.034,2.034,0,0,1,.8,1.743,1.927,1.927,0,0,1-.322,1.1,1.861,1.861,0,0,1-.9.7,1.8,1.8,0,0,1,1.034.662A1.957,1.957,0,0,1,7.1-2.508,2.251,2.251,0,0,1,6.316-.645,3.535,3.535,0,0,1,4.078,0ZM2.52-3.715v2.3H4.025a1.453,1.453,0,0,0,.97-.3,1.015,1.015,0,0,0,.349-.817A1.071,1.071,0,0,0,4.131-3.715Zm0-1.242h1.3Q5.15-4.98,5.15-6.018a.98.98,0,0,0-.337-.835A1.772,1.772,0,0,0,3.75-7.107H2.52ZM14.086,0H8.238V-1.16L11-4.1a6.808,6.808,0,0,0,.841-1.084,1.742,1.742,0,0,0,.272-.879,1.3,1.3,0,0,0-.287-.894A1.036,1.036,0,0,0,11-7.283a1.118,1.118,0,0,0-.905.4,1.567,1.567,0,0,0-.331,1.04h-1.7A2.8,2.8,0,0,1,8.44-7.271,2.622,2.622,0,0,1,9.492-8.282a3.2,3.2,0,0,1,1.541-.366,3.027,3.027,0,0,1,2.048.633,2.239,2.239,0,0,1,.729,1.787,2.868,2.868,0,0,1-.328,1.289A7.164,7.164,0,0,1,12.357-3.41L10.418-1.365h3.668ZM15.3,0V-8.531h2.988a3.924,3.924,0,0,1,2.355.595,2.034,2.034,0,0,1,.8,1.743,1.927,1.927,0,0,1-.322,1.1,1.861,1.861,0,0,1-.9.7,1.8,1.8,0,0,1,1.034.662,1.957,1.957,0,0,1,.378,1.219,2.251,2.251,0,0,1-.785,1.863A3.535,3.535,0,0,1,18.621,0Zm1.758-3.715v2.3h1.506a1.453,1.453,0,0,0,.97-.3,1.015,1.015,0,0,0,.349-.817,1.071,1.071,0,0,0-1.213-1.189Zm0-1.242h1.3q1.33-.023,1.33-1.061a.98.98,0,0,0-.337-.835,1.772,1.772,0,0,0-1.063-.255h-1.23ZM30.375-2.238A.9.9,0,0,0,30.023-3a4.611,4.611,0,0,0-1.266-.562,8.972,8.972,0,0,1-1.447-.583,2.365,2.365,0,0,1-1.453-2.115,2.06,2.06,0,0,1,.39-1.233,2.542,2.542,0,0,1,1.119-.847A4.212,4.212,0,0,1,29-8.648a3.834,3.834,0,0,1,1.629.331,2.594,2.594,0,0,1,1.11.935,2.445,2.445,0,0,1,.4,1.371H30.381a1.15,1.15,0,0,0-.369-.911,1.517,1.517,0,0,0-1.037-.325,1.621,1.621,0,0,0-1,.272.859.859,0,0,0-.357.718.823.823,0,0,0,.419.7,4.733,4.733,0,0,0,1.233.527,5.329,5.329,0,0,1,2.186,1.119,2.229,2.229,0,0,1,.686,1.664A2.053,2.053,0,0,1,31.3-.513a3.668,3.668,0,0,1-2.256.63,4.356,4.356,0,0,1-1.793-.36,2.837,2.837,0,0,1-1.233-.987,2.528,2.528,0,0,1-.425-1.453h1.764q0,1.412,1.688,1.412a1.642,1.642,0,0,0,.979-.255A.829.829,0,0,0,30.375-2.238ZM36.135.117a3.112,3.112,0,0,1-2.271-.855,3.041,3.041,0,0,1-.876-2.279v-.164a3.83,3.83,0,0,1,.369-1.708A2.709,2.709,0,0,1,34.4-6.05a2.936,2.936,0,0,1,1.544-.407A2.631,2.631,0,0,1,38-5.637a3.333,3.333,0,0,1,.747,2.326v.691H34.705a1.573,1.573,0,0,0,.5,1,1.5,1.5,0,0,0,1.046.375,1.828,1.828,0,0,0,1.529-.709l.832.932a2.542,2.542,0,0,1-1.031.841A3.383,3.383,0,0,1,36.135.117Zm-.193-5.209a1.058,1.058,0,0,0-.817.341,1.768,1.768,0,0,0-.4.977h2.355v-.135a1.261,1.261,0,0,0-.3-.874A1.092,1.092,0,0,0,35.941-5.092Zm7.324.34a4.6,4.6,0,0,0-.609-.047,1.24,1.24,0,0,0-1.26.65V0H39.7V-6.34h1.6l.047.756a1.569,1.569,0,0,1,1.412-.873,1.774,1.774,0,0,1,.527.076Zm3.293,2.684L47.736-6.34h1.77L47.367,0H45.75L43.611-6.34h1.77ZM52.037,0h-1.7V-6.34h1.7Zm-1.8-7.98a.834.834,0,0,1,.255-.627.958.958,0,0,1,.694-.246.96.96,0,0,1,.691.246.829.829,0,0,1,.258.627.831.831,0,0,1-.261.633.962.962,0,0,1-.688.246.962.962,0,0,1-.688-.246A.831.831,0,0,1,50.238-7.98Zm5.83,6.732a1.111,1.111,0,0,0,.762-.258.9.9,0,0,0,.3-.686h1.588a2.172,2.172,0,0,1-.352,1.181,2.32,2.32,0,0,1-.946.832,2.962,2.962,0,0,1-1.327.3,2.752,2.752,0,0,1-2.145-.864,3.42,3.42,0,0,1-.785-2.388v-.111a3.381,3.381,0,0,1,.779-2.338,2.72,2.72,0,0,1,2.139-.873,2.667,2.667,0,0,1,1.907.677,2.4,2.4,0,0,1,.729,1.8H57.135a1.164,1.164,0,0,0-.3-.8,1.016,1.016,0,0,0-.773-.309,1.02,1.02,0,0,0-.894.431,2.5,2.5,0,0,0-.3,1.4v.176a2.531,2.531,0,0,0,.3,1.408A1.033,1.033,0,0,0,56.068-1.248ZM61.477,0h-1.7V-6.34h1.7Zm-1.8-7.98a.834.834,0,0,1,.255-.627.958.958,0,0,1,.694-.246.96.96,0,0,1,.691.246.829.829,0,0,1,.258.627.831.831,0,0,1-.261.633.962.962,0,0,1-.688.246.962.962,0,0,1-.688-.246A.831.831,0,0,1,59.678-7.98Zm2.93,4.752a3.76,3.76,0,0,1,.363-1.682,2.659,2.659,0,0,1,1.046-1.143,3.051,3.051,0,0,1,1.585-.4,2.887,2.887,0,0,1,2.095.785A3.151,3.151,0,0,1,68.6-3.539l.012.434A3.314,3.314,0,0,1,67.8-.765a2.831,2.831,0,0,1-2.186.882,2.845,2.845,0,0,1-2.188-.879,3.372,3.372,0,0,1-.817-2.391Zm1.693.12a2.37,2.37,0,0,0,.34,1.382,1.121,1.121,0,0,0,.973.478,1.124,1.124,0,0,0,.961-.472,2.593,2.593,0,0,0,.346-1.511A2.346,2.346,0,0,0,66.574-4.6a1.124,1.124,0,0,0-.973-.487,1.105,1.105,0,0,0-.961.484A2.637,2.637,0,0,0,64.3-3.108ZM73.09-1.752a.546.546,0,0,0-.308-.489,3.494,3.494,0,0,0-.987-.319q-2.262-.475-2.262-1.922a1.742,1.742,0,0,1,.7-1.409,2.825,2.825,0,0,1,1.831-.565A3.04,3.04,0,0,1,74-5.889a1.791,1.791,0,0,1,.724,1.477H73.025a.819.819,0,0,0-.234-.6.992.992,0,0,0-.732-.237,1.013,1.013,0,0,0-.662.193.61.61,0,0,0-.234.492.522.522,0,0,0,.267.454,2.743,2.743,0,0,0,.9.3,7.346,7.346,0,0,1,1.066.284,1.752,1.752,0,0,1,1.342,1.705,1.654,1.654,0,0,1-.744,1.4A3.21,3.21,0,0,1,72.07.117a3.353,3.353,0,0,1-1.415-.284,2.374,2.374,0,0,1-.97-.779,1.811,1.811,0,0,1-.352-1.069h1.605a.884.884,0,0,0,.334.691,1.325,1.325,0,0,0,.832.24,1.226,1.226,0,0,0,.735-.185A.574.574,0,0,0,73.09-1.752Z" transform="translate(660.073 3086.817)" fill="#2b95f9"/>
    <path id="Trazado_749465" data-name="Trazado 749465" d="M.762,0V-8.531H3.75a3.924,3.924,0,0,1,2.355.595,2.034,2.034,0,0,1,.8,1.743,1.927,1.927,0,0,1-.322,1.1,1.861,1.861,0,0,1-.9.7,1.8,1.8,0,0,1,1.034.662A1.957,1.957,0,0,1,7.1-2.508,2.251,2.251,0,0,1,6.316-.645,3.535,3.535,0,0,1,4.078,0ZM2.52-3.715v2.3H4.025a1.453,1.453,0,0,0,.97-.3,1.015,1.015,0,0,0,.349-.817A1.071,1.071,0,0,0,4.131-3.715Zm0-1.242h1.3Q5.15-4.98,5.15-6.018a.98.98,0,0,0-.337-.835A1.772,1.772,0,0,0,3.75-7.107H2.52ZM14.086,0H8.238V-1.16L11-4.1a6.808,6.808,0,0,0,.841-1.084,1.742,1.742,0,0,0,.272-.879,1.3,1.3,0,0,0-.287-.894A1.036,1.036,0,0,0,11-7.283a1.118,1.118,0,0,0-.905.4,1.567,1.567,0,0,0-.331,1.04h-1.7A2.8,2.8,0,0,1,8.44-7.271,2.622,2.622,0,0,1,9.492-8.282a3.2,3.2,0,0,1,1.541-.366,3.027,3.027,0,0,1,2.048.633,2.239,2.239,0,0,1,.729,1.787,2.868,2.868,0,0,1-.328,1.289A7.164,7.164,0,0,1,12.357-3.41L10.418-1.365h3.668ZM22-2.842A3.019,3.019,0,0,1,20.985-.674a3.57,3.57,0,0,1-2.417.791,3.21,3.21,0,0,1-2.581-1.1,4.529,4.529,0,0,1-.94-3.032v-.521a5.114,5.114,0,0,1,.434-2.168A3.249,3.249,0,0,1,16.72-8.147a3.471,3.471,0,0,1,1.872-.5,3.478,3.478,0,0,1,2.379.791,3.244,3.244,0,0,1,1.043,2.221H20.256a1.782,1.782,0,0,0-.46-1.2,1.7,1.7,0,0,0-1.2-.372,1.494,1.494,0,0,0-1.315.63,3.53,3.53,0,0,0-.448,1.954v.645a3.778,3.778,0,0,0,.419,2.021,1.466,1.466,0,0,0,1.321.639,1.735,1.735,0,0,0,1.216-.372,1.681,1.681,0,0,0,.46-1.151Zm5.9-.164V0H26.145V-8.531h3.328a3.85,3.85,0,0,1,1.69.352,2.591,2.591,0,0,1,1.122,1,2.786,2.786,0,0,1,.393,1.474,2.45,2.45,0,0,1-.858,1.978,3.575,3.575,0,0,1-2.376.724Zm0-1.424h1.57a1.544,1.544,0,0,0,1.063-.328A1.193,1.193,0,0,0,30.9-5.7a1.407,1.407,0,0,0-.369-1.014,1.379,1.379,0,0,0-1.02-.4H27.9Zm9.434-.322a4.6,4.6,0,0,0-.609-.047,1.24,1.24,0,0,0-1.26.65V0H33.773V-6.34h1.6l.047.756a1.569,1.569,0,0,1,1.412-.873,1.774,1.774,0,0,1,.527.076Zm.34,1.523a3.76,3.76,0,0,1,.363-1.682,2.659,2.659,0,0,1,1.046-1.143,3.051,3.051,0,0,1,1.585-.4,2.887,2.887,0,0,1,2.095.785,3.151,3.151,0,0,1,.905,2.133l.012.434a3.314,3.314,0,0,1-.814,2.341,2.831,2.831,0,0,1-2.186.882,2.845,2.845,0,0,1-2.188-.879,3.372,3.372,0,0,1-.817-2.391Zm1.693.12a2.37,2.37,0,0,0,.34,1.382,1.121,1.121,0,0,0,.973.478,1.124,1.124,0,0,0,.961-.472,2.593,2.593,0,0,0,.346-1.511A2.346,2.346,0,0,0,41.643-4.6a1.124,1.124,0,0,0-.973-.487,1.105,1.105,0,0,0-.961.484A2.637,2.637,0,0,0,39.369-3.108Zm5.092-.108a3.821,3.821,0,0,1,.665-2.361,2.158,2.158,0,0,1,1.819-.879,1.942,1.942,0,0,1,1.529.691V-9h1.7V0H48.645l-.082-.674a1.993,1.993,0,0,1-1.629.791,2.152,2.152,0,0,1-1.8-.882A3.944,3.944,0,0,1,44.461-3.217Zm1.693.126a2.5,2.5,0,0,0,.311,1.367,1.012,1.012,0,0,0,.9.475,1.133,1.133,0,0,0,1.107-.663V-4.417a1.117,1.117,0,0,0-1.1-.663Q46.154-5.08,46.154-3.091ZM55.283-.645a2.124,2.124,0,0,1-1.734.762,2,2,0,0,1-1.556-.586,2.5,2.5,0,0,1-.548-1.717V-6.34h1.693v4.1q0,.991.9.991a1.223,1.223,0,0,0,1.184-.6V-6.34h1.7V0H55.33Zm5.555-.6a1.111,1.111,0,0,0,.762-.258.9.9,0,0,0,.3-.686h1.588a2.172,2.172,0,0,1-.352,1.181,2.32,2.32,0,0,1-.946.832,2.962,2.962,0,0,1-1.327.3,2.752,2.752,0,0,1-2.145-.864,3.42,3.42,0,0,1-.785-2.388v-.111a3.381,3.381,0,0,1,.779-2.338,2.72,2.72,0,0,1,2.139-.873,2.667,2.667,0,0,1,1.907.677,2.4,2.4,0,0,1,.729,1.8H61.9a1.164,1.164,0,0,0-.3-.8,1.016,1.016,0,0,0-.773-.309,1.02,1.02,0,0,0-.894.431,2.5,2.5,0,0,0-.3,1.4v.176a2.531,2.531,0,0,0,.3,1.408A1.033,1.033,0,0,0,60.838-1.248ZM66.486-7.9V-6.34H67.57V-5.1H66.486v3.164a.756.756,0,0,0,.135.5.677.677,0,0,0,.516.152,2.7,2.7,0,0,0,.5-.041V-.035a3.486,3.486,0,0,1-1.025.152,1.617,1.617,0,0,1-1.816-1.8V-5.1h-.926V-6.34h.926V-7.9Zm1.588,4.67a3.76,3.76,0,0,1,.363-1.682,2.659,2.659,0,0,1,1.046-1.143,3.051,3.051,0,0,1,1.585-.4,2.887,2.887,0,0,1,2.095.785,3.151,3.151,0,0,1,.905,2.133l.012.434a3.314,3.314,0,0,1-.814,2.341A2.831,2.831,0,0,1,71.08.117a2.845,2.845,0,0,1-2.188-.879,3.372,3.372,0,0,1-.817-2.391Zm1.693.12a2.37,2.37,0,0,0,.34,1.382,1.121,1.121,0,0,0,.973.478,1.124,1.124,0,0,0,.961-.472,2.593,2.593,0,0,0,.346-1.511A2.346,2.346,0,0,0,72.041-4.6a1.124,1.124,0,0,0-.973-.487,1.105,1.105,0,0,0-.961.484A2.637,2.637,0,0,0,69.768-3.108Z" transform="translate(869.443 3086.817)" fill="#e44e00"/>
    <path id="Trazado_749466" data-name="Trazado 749466" d="M.762,0V-8.531H3.75a3.924,3.924,0,0,1,2.355.595,2.034,2.034,0,0,1,.8,1.743,1.927,1.927,0,0,1-.322,1.1,1.861,1.861,0,0,1-.9.7,1.8,1.8,0,0,1,1.034.662A1.957,1.957,0,0,1,7.1-2.508,2.251,2.251,0,0,1,6.316-.645,3.535,3.535,0,0,1,4.078,0ZM2.52-3.715v2.3H4.025a1.453,1.453,0,0,0,.97-.3,1.015,1.015,0,0,0,.349-.817A1.071,1.071,0,0,0,4.131-3.715Zm0-1.242h1.3Q5.15-4.98,5.15-6.018a.98.98,0,0,0-.337-.835A1.772,1.772,0,0,0,3.75-7.107H2.52ZM14.086,0H8.238V-1.16L11-4.1a6.808,6.808,0,0,0,.841-1.084,1.742,1.742,0,0,0,.272-.879,1.3,1.3,0,0,0-.287-.894A1.036,1.036,0,0,0,11-7.283a1.118,1.118,0,0,0-.905.4,1.567,1.567,0,0,0-.331,1.04h-1.7A2.8,2.8,0,0,1,8.44-7.271,2.622,2.622,0,0,1,9.492-8.282a3.2,3.2,0,0,1,1.541-.366,3.027,3.027,0,0,1,2.048.633,2.239,2.239,0,0,1,.729,1.787,2.868,2.868,0,0,1-.328,1.289A7.164,7.164,0,0,1,12.357-3.41L10.418-1.365h3.668ZM22-2.842A3.019,3.019,0,0,1,20.985-.674a3.57,3.57,0,0,1-2.417.791,3.21,3.21,0,0,1-2.581-1.1,4.529,4.529,0,0,1-.94-3.032v-.521a5.114,5.114,0,0,1,.434-2.168A3.249,3.249,0,0,1,16.72-8.147a3.471,3.471,0,0,1,1.872-.5,3.478,3.478,0,0,1,2.379.791,3.244,3.244,0,0,1,1.043,2.221H20.256a1.782,1.782,0,0,0-.46-1.2,1.7,1.7,0,0,0-1.2-.372,1.494,1.494,0,0,0-1.315.63,3.53,3.53,0,0,0-.448,1.954v.645a3.778,3.778,0,0,0,.419,2.021,1.466,1.466,0,0,0,1.321.639,1.735,1.735,0,0,0,1.216-.372,1.681,1.681,0,0,0,.46-1.151Zm8.566.6A.9.9,0,0,0,30.217-3a4.611,4.611,0,0,0-1.266-.562A8.972,8.972,0,0,1,27.5-4.148a2.365,2.365,0,0,1-1.453-2.115A2.06,2.06,0,0,1,26.44-7.5a2.542,2.542,0,0,1,1.119-.847,4.212,4.212,0,0,1,1.638-.3,3.834,3.834,0,0,1,1.629.331,2.594,2.594,0,0,1,1.11.935,2.445,2.445,0,0,1,.4,1.371H30.574a1.15,1.15,0,0,0-.369-.911,1.517,1.517,0,0,0-1.037-.325,1.621,1.621,0,0,0-1,.272.859.859,0,0,0-.357.718.823.823,0,0,0,.419.7,4.733,4.733,0,0,0,1.233.527,5.329,5.329,0,0,1,2.186,1.119,2.229,2.229,0,0,1,.686,1.664,2.053,2.053,0,0,1-.838,1.737,3.668,3.668,0,0,1-2.256.63,4.356,4.356,0,0,1-1.793-.36,2.837,2.837,0,0,1-1.233-.987,2.528,2.528,0,0,1-.425-1.453h1.764q0,1.412,1.688,1.412a1.642,1.642,0,0,0,.979-.255A.829.829,0,0,0,30.568-2.238ZM36.328.117a3.112,3.112,0,0,1-2.271-.855,3.041,3.041,0,0,1-.876-2.279v-.164a3.83,3.83,0,0,1,.369-1.708A2.709,2.709,0,0,1,34.6-6.05a2.936,2.936,0,0,1,1.544-.407,2.631,2.631,0,0,1,2.048.82,3.333,3.333,0,0,1,.747,2.326v.691H34.9a1.573,1.573,0,0,0,.5,1,1.5,1.5,0,0,0,1.046.375,1.828,1.828,0,0,0,1.529-.709l.832.932a2.542,2.542,0,0,1-1.031.841A3.383,3.383,0,0,1,36.328.117Zm-.193-5.209a1.058,1.058,0,0,0-.817.341,1.768,1.768,0,0,0-.4.977h2.355v-.135a1.261,1.261,0,0,0-.3-.874A1.092,1.092,0,0,0,36.135-5.092Zm7.324.34A4.6,4.6,0,0,0,42.85-4.8a1.24,1.24,0,0,0-1.26.65V0H39.9V-6.34h1.6l.047.756a1.569,1.569,0,0,1,1.412-.873,1.774,1.774,0,0,1,.527.076Zm3.293,2.684L47.93-6.34H49.7L47.561,0H45.943L43.8-6.34h1.77ZM52.23,0h-1.7V-6.34h1.7Zm-1.8-7.98a.834.834,0,0,1,.255-.627.958.958,0,0,1,.694-.246.96.96,0,0,1,.691.246.829.829,0,0,1,.258.627.831.831,0,0,1-.261.633.962.962,0,0,1-.688.246.962.962,0,0,1-.688-.246A.831.831,0,0,1,50.432-7.98Zm5.83,6.732a1.111,1.111,0,0,0,.762-.258.9.9,0,0,0,.3-.686h1.588a2.172,2.172,0,0,1-.352,1.181,2.32,2.32,0,0,1-.946.832,2.962,2.962,0,0,1-1.327.3,2.752,2.752,0,0,1-2.145-.864,3.42,3.42,0,0,1-.785-2.388v-.111a3.381,3.381,0,0,1,.779-2.338,2.72,2.72,0,0,1,2.139-.873,2.667,2.667,0,0,1,1.907.677,2.4,2.4,0,0,1,.729,1.8H57.328a1.164,1.164,0,0,0-.3-.8,1.016,1.016,0,0,0-.773-.309,1.02,1.02,0,0,0-.894.431,2.5,2.5,0,0,0-.3,1.4v.176a2.531,2.531,0,0,0,.3,1.408A1.033,1.033,0,0,0,56.262-1.248ZM61.67,0h-1.7V-6.34h1.7Zm-1.8-7.98a.834.834,0,0,1,.255-.627.958.958,0,0,1,.694-.246.96.96,0,0,1,.691.246.829.829,0,0,1,.258.627.831.831,0,0,1-.261.633.962.962,0,0,1-.688.246.962.962,0,0,1-.688-.246A.831.831,0,0,1,59.871-7.98ZM62.8-3.229a3.76,3.76,0,0,1,.363-1.682A2.659,2.659,0,0,1,64.21-6.053a3.051,3.051,0,0,1,1.585-.4,2.887,2.887,0,0,1,2.095.785,3.151,3.151,0,0,1,.905,2.133l.012.434a3.314,3.314,0,0,1-.814,2.341,2.831,2.831,0,0,1-2.186.882,2.845,2.845,0,0,1-2.188-.879A3.372,3.372,0,0,1,62.8-3.152Zm1.693.12a2.37,2.37,0,0,0,.34,1.382,1.121,1.121,0,0,0,.973.478,1.124,1.124,0,0,0,.961-.472,2.593,2.593,0,0,0,.346-1.511A2.346,2.346,0,0,0,66.768-4.6a1.124,1.124,0,0,0-.973-.487,1.105,1.105,0,0,0-.961.484A2.637,2.637,0,0,0,64.494-3.108Zm8.789,1.356a.546.546,0,0,0-.308-.489,3.494,3.494,0,0,0-.987-.319q-2.262-.475-2.262-1.922a1.742,1.742,0,0,1,.7-1.409,2.825,2.825,0,0,1,1.831-.565,3.04,3.04,0,0,1,1.931.568,1.791,1.791,0,0,1,.724,1.477H73.219a.819.819,0,0,0-.234-.6.992.992,0,0,0-.732-.237,1.013,1.013,0,0,0-.662.193.61.61,0,0,0-.234.492.522.522,0,0,0,.267.454,2.743,2.743,0,0,0,.9.3,7.346,7.346,0,0,1,1.066.284A1.752,1.752,0,0,1,74.93-1.822a1.654,1.654,0,0,1-.744,1.4,3.21,3.21,0,0,1-1.922.536,3.353,3.353,0,0,1-1.415-.284,2.374,2.374,0,0,1-.97-.779,1.811,1.811,0,0,1-.352-1.069h1.605a.884.884,0,0,0,.334.691,1.325,1.325,0,0,0,.832.24,1.226,1.226,0,0,0,.735-.185A.574.574,0,0,0,73.283-1.752Z" transform="translate(1077.814 3086.817)" fill="#617a0b"/>
    <path id="Trazado_749467" data-name="Trazado 749467" d="M11.021,0H6.565V-14.186L2.188-12.907v-3.375L10.613-19.2h.409ZM30.138-7.844a9.166,9.166,0,0,1-1.747,6A6.036,6.036,0,0,1,23.467.264,6.069,6.069,0,0,1,18.51-1.859a9.151,9.151,0,0,1-1.753-5.985v-3.507a9.166,9.166,0,0,1,1.747-6,6.052,6.052,0,0,1,4.937-2.109,6.054,6.054,0,0,1,4.944,2.123,9.174,9.174,0,0,1,1.753,6Zm-4.443-4.074a6.846,6.846,0,0,0-.541-3.092,1.807,1.807,0,0,0-1.714-1.022,1.764,1.764,0,0,0-1.668.949,6.449,6.449,0,0,0-.56,2.874v4.9a6.9,6.9,0,0,0,.541,3.144,1.814,1.814,0,0,0,1.714,1,1.789,1.789,0,0,0,1.674-.969,6.585,6.585,0,0,0,.554-3.039Zm9.571,7.607a2.529,2.529,0,0,1,1.753.626,2.055,2.055,0,0,1,.7,1.6,2.055,2.055,0,0,1-.7,1.6,2.529,2.529,0,0,1-1.753.626,2.508,2.508,0,0,1-1.76-.633,2.069,2.069,0,0,1-.692-1.6,2.069,2.069,0,0,1,.692-1.6A2.508,2.508,0,0,1,35.266-4.311Zm5.6-5.065L42.042-19.2H53.262v3.454H45.655l-.435,3.813a5.24,5.24,0,0,1,1.246-.49,5.684,5.684,0,0,1,1.51-.212,5.631,5.631,0,0,1,4.4,1.694,6.824,6.824,0,0,1,1.536,4.753,6.812,6.812,0,0,1-.824,3.342,5.663,5.663,0,0,1-2.314,2.3,7.3,7.3,0,0,1-3.52.8,7.86,7.86,0,0,1-3.388-.744,6.078,6.078,0,0,1-2.479-2.042A4.961,4.961,0,0,1,40.5-5.453h4.456a2.52,2.52,0,0,0,.672,1.671,2.134,2.134,0,0,0,1.6.618q2.241,0,2.241-3.315,0-3.065-2.742-3.065a2.736,2.736,0,0,0-2.32,1ZM62.978-15.5a3.768,3.768,0,0,1,1.16-2.874,4.35,4.35,0,0,1,3.111-1.094,4.355,4.355,0,0,1,3.125,1.088,3.867,3.867,0,0,1,1.147,2.947v.949a3.747,3.747,0,0,1-1.147,2.861,4.334,4.334,0,0,1-3.1,1.081,4.452,4.452,0,0,1-3.118-1.074,3.786,3.786,0,0,1-1.18-2.947Zm2.861,1.012a1.594,1.594,0,0,0,.382,1.107,1.345,1.345,0,0,0,1.055.426q1.384,0,1.384-1.755V-15.5a1.68,1.68,0,0,0-.369-1.12,1.286,1.286,0,0,0-1.042-.439,1.314,1.314,0,0,0-1.028.426,1.671,1.671,0,0,0-.382,1.159ZM72.1-4.707a3.731,3.731,0,0,1,1.167-2.874,4.387,4.387,0,0,1,3.1-1.081A4.434,4.434,0,0,1,79.5-7.594a3.847,3.847,0,0,1,1.16,2.979v.923A3.764,3.764,0,0,1,79.51-.817,4.352,4.352,0,0,1,76.4.264,4.452,4.452,0,0,1,73.281-.811,3.786,3.786,0,0,1,72.1-3.757Zm2.848,1.012a1.559,1.559,0,0,0,.422,1.081,1.337,1.337,0,0,0,1.028.465,1.212,1.212,0,0,0,1.384-1.205L77.8-4.7a1.613,1.613,0,0,0-.382-1.12,1.329,1.329,0,0,0-1.042-.426,1.34,1.34,0,0,0-1.015.4,1.592,1.592,0,0,0-.409,1.081ZM68.12-1.437,66.05-2.479l9.374-15,2.07,1.042Z" transform="translate(447.186 3125.918)" fill="#eb6f2d"/>
    <path id="Trazado_749468" data-name="Trazado 749468" d="M11.021,0H6.565V-14.186L2.188-12.907v-3.375L10.613-19.2h.409ZM30.138-7.844a9.166,9.166,0,0,1-1.747,6A6.036,6.036,0,0,1,23.467.264,6.069,6.069,0,0,1,18.51-1.859a9.151,9.151,0,0,1-1.753-5.985v-3.507a9.166,9.166,0,0,1,1.747-6,6.052,6.052,0,0,1,4.937-2.109,6.054,6.054,0,0,1,4.944,2.123,9.174,9.174,0,0,1,1.753,6Zm-4.443-4.074a6.846,6.846,0,0,0-.541-3.092,1.807,1.807,0,0,0-1.714-1.022,1.764,1.764,0,0,0-1.668.949,6.449,6.449,0,0,0-.56,2.874v4.9a6.9,6.9,0,0,0,.541,3.144,1.814,1.814,0,0,0,1.714,1,1.789,1.789,0,0,0,1.674-.969,6.585,6.585,0,0,0,.554-3.039ZM39.182-15.5a3.768,3.768,0,0,1,1.16-2.874,4.35,4.35,0,0,1,3.111-1.094,4.355,4.355,0,0,1,3.125,1.088,3.867,3.867,0,0,1,1.147,2.947v.949a3.747,3.747,0,0,1-1.147,2.861,4.334,4.334,0,0,1-3.1,1.081,4.452,4.452,0,0,1-3.118-1.074,3.786,3.786,0,0,1-1.18-2.947Zm2.861,1.012a1.594,1.594,0,0,0,.382,1.107,1.345,1.345,0,0,0,1.055.426q1.384,0,1.384-1.755V-15.5a1.68,1.68,0,0,0-.369-1.12,1.286,1.286,0,0,0-1.042-.439,1.314,1.314,0,0,0-1.028.426,1.671,1.671,0,0,0-.382,1.159ZM48.3-4.707a3.731,3.731,0,0,1,1.167-2.874,4.387,4.387,0,0,1,3.1-1.081A4.434,4.434,0,0,1,55.7-7.594a3.847,3.847,0,0,1,1.16,2.979v.923A3.764,3.764,0,0,1,55.714-.817,4.352,4.352,0,0,1,52.6.264,4.452,4.452,0,0,1,49.485-.811,3.786,3.786,0,0,1,48.3-3.757Zm2.848,1.012a1.559,1.559,0,0,0,.422,1.081,1.337,1.337,0,0,0,1.028.465,1.212,1.212,0,0,0,1.384-1.205L54-4.7a1.613,1.613,0,0,0-.382-1.12,1.329,1.329,0,0,0-1.042-.426,1.34,1.34,0,0,0-1.015.4,1.592,1.592,0,0,0-.409,1.081ZM44.323-1.437l-2.07-1.042,9.374-15L53.7-16.44Z" transform="translate(672.073 3125.918)" fill="#2b95f9"/>
    <path id="Trazado_749469" data-name="Trazado 749469" d="M14.568,0H1.173V-2.9l6.17-6.486q2.281-2.6,2.281-4.126A2.87,2.87,0,0,0,9.083-15.4a1.93,1.93,0,0,0-1.569-.646,1.954,1.954,0,0,0-1.648.864,3.549,3.549,0,0,0-.633,2.156H.778a6.3,6.3,0,0,1,.883-3.263,6.194,6.194,0,0,1,2.452-2.34,7.284,7.284,0,0,1,3.507-.844,7.166,7.166,0,0,1,4.792,1.437,5.13,5.13,0,0,1,1.681,4.126,5.992,5.992,0,0,1-.422,2.208A9.684,9.684,0,0,1,12.36-9.446,33.043,33.043,0,0,1,9.492-6.289L7.014-3.428h7.554Zm15.57-7.844a9.166,9.166,0,0,1-1.747,6A6.036,6.036,0,0,1,23.467.264,6.069,6.069,0,0,1,18.51-1.859a9.151,9.151,0,0,1-1.753-5.985v-3.507a9.166,9.166,0,0,1,1.747-6,6.052,6.052,0,0,1,4.937-2.109,6.054,6.054,0,0,1,4.944,2.123,9.174,9.174,0,0,1,1.753,6Zm-4.443-4.074a6.846,6.846,0,0,0-.541-3.092,1.807,1.807,0,0,0-1.714-1.022,1.764,1.764,0,0,0-1.668.949,6.449,6.449,0,0,0-.56,2.874v4.9a6.9,6.9,0,0,0,.541,3.144,1.814,1.814,0,0,0,1.714,1,1.789,1.789,0,0,0,1.674-.969,6.585,6.585,0,0,0,.554-3.039ZM39.182-15.5a3.768,3.768,0,0,1,1.16-2.874,4.35,4.35,0,0,1,3.111-1.094,4.355,4.355,0,0,1,3.125,1.088,3.867,3.867,0,0,1,1.147,2.947v.949a3.747,3.747,0,0,1-1.147,2.861,4.334,4.334,0,0,1-3.1,1.081,4.452,4.452,0,0,1-3.118-1.074,3.786,3.786,0,0,1-1.18-2.947Zm2.861,1.012a1.594,1.594,0,0,0,.382,1.107,1.345,1.345,0,0,0,1.055.426q1.384,0,1.384-1.755V-15.5a1.68,1.68,0,0,0-.369-1.12,1.286,1.286,0,0,0-1.042-.439,1.314,1.314,0,0,0-1.028.426,1.671,1.671,0,0,0-.382,1.159ZM48.3-4.707a3.731,3.731,0,0,1,1.167-2.874,4.387,4.387,0,0,1,3.1-1.081A4.434,4.434,0,0,1,55.7-7.594a3.847,3.847,0,0,1,1.16,2.979v.923A3.764,3.764,0,0,1,55.714-.817,4.352,4.352,0,0,1,52.6.264,4.452,4.452,0,0,1,49.485-.811,3.786,3.786,0,0,1,48.3-3.757Zm2.848,1.012a1.559,1.559,0,0,0,.422,1.081,1.337,1.337,0,0,0,1.028.465,1.212,1.212,0,0,0,1.384-1.205L54-4.7a1.613,1.613,0,0,0-.382-1.12,1.329,1.329,0,0,0-1.042-.426,1.34,1.34,0,0,0-1.015.4,1.592,1.592,0,0,0-.409,1.081ZM44.323-1.437l-2.07-1.042,9.374-15L53.7-16.44Z" transform="translate(880.443 3125.918)" fill="#e44e00"/>
    <path id="Trazado_749470" data-name="Trazado 749470" d="M14.12-14.067a4.431,4.431,0,0,1-.692,2.465,5.041,5.041,0,0,1-1.905,1.714A5.547,5.547,0,0,1,13.7-8.049a4.746,4.746,0,0,1,.8,2.762,5.023,5.023,0,0,1-1.773,4.061A7.363,7.363,0,0,1,7.844.264a7.5,7.5,0,0,1-4.931-1.5A4.988,4.988,0,0,1,1.107-5.287,4.805,4.805,0,0,1,1.9-8.016,5.379,5.379,0,0,1,4.14-9.888,5.069,5.069,0,0,1,2.215-11.6a4.4,4.4,0,0,1-.7-2.465,4.925,4.925,0,0,1,1.7-3.955A6.837,6.837,0,0,1,7.8-19.472a6.879,6.879,0,0,1,4.614,1.45A4.925,4.925,0,0,1,14.12-14.067ZM10.046-5.643a2.534,2.534,0,0,0-.613-1.826,2.135,2.135,0,0,0-1.615-.639A2.156,2.156,0,0,0,6.2-7.469a2.518,2.518,0,0,0-.62,1.826A2.539,2.539,0,0,0,6.2-3.83a2.149,2.149,0,0,0,1.641.666,2.065,2.065,0,0,0,1.6-.659A2.585,2.585,0,0,0,10.046-5.643ZM7.8-16.044a1.642,1.642,0,0,0-1.365.587,2.546,2.546,0,0,0-.468,1.628,2.7,2.7,0,0,0,.475,1.661,1.638,1.638,0,0,0,1.4.633,1.57,1.57,0,0,0,1.365-.633,2.784,2.784,0,0,0,.455-1.661A2.552,2.552,0,0,0,9.2-15.451,1.664,1.664,0,0,0,7.8-16.044ZM19.63-4.311a2.529,2.529,0,0,1,1.753.626,2.055,2.055,0,0,1,.7,1.6,2.055,2.055,0,0,1-.7,1.6A2.529,2.529,0,0,1,19.63.145a2.508,2.508,0,0,1-1.76-.633,2.069,2.069,0,0,1-.692-1.6,2.069,2.069,0,0,1,.692-1.6A2.508,2.508,0,0,1,19.63-4.311Zm5.6-5.065L26.407-19.2H37.626v3.454H30.019l-.435,3.813a5.24,5.24,0,0,1,1.246-.49,5.684,5.684,0,0,1,1.51-.212,5.631,5.631,0,0,1,4.4,1.694,6.824,6.824,0,0,1,1.536,4.753,6.812,6.812,0,0,1-.824,3.342,5.663,5.663,0,0,1-2.314,2.3,7.3,7.3,0,0,1-3.52.8,7.86,7.86,0,0,1-3.388-.744,6.078,6.078,0,0,1-2.479-2.042,4.961,4.961,0,0,1-.883-2.931H29.32a2.52,2.52,0,0,0,.672,1.671,2.134,2.134,0,0,0,1.6.618q2.241,0,2.241-3.315,0-3.065-2.742-3.065a2.736,2.736,0,0,0-2.32,1ZM47.342-15.5a3.768,3.768,0,0,1,1.16-2.874,4.35,4.35,0,0,1,3.111-1.094,4.355,4.355,0,0,1,3.125,1.088,3.867,3.867,0,0,1,1.147,2.947v.949a3.747,3.747,0,0,1-1.147,2.861,4.334,4.334,0,0,1-3.1,1.081,4.452,4.452,0,0,1-3.118-1.074,3.786,3.786,0,0,1-1.18-2.947ZM50.2-14.492a1.594,1.594,0,0,0,.382,1.107,1.345,1.345,0,0,0,1.055.426q1.384,0,1.384-1.755V-15.5a1.68,1.68,0,0,0-.369-1.12,1.286,1.286,0,0,0-1.042-.439,1.314,1.314,0,0,0-1.028.426,1.671,1.671,0,0,0-.382,1.159Zm6.262,9.786a3.731,3.731,0,0,1,1.167-2.874,4.387,4.387,0,0,1,3.1-1.081,4.434,4.434,0,0,1,3.125,1.068,3.847,3.847,0,0,1,1.16,2.979v.923A3.764,3.764,0,0,1,63.875-.817,4.352,4.352,0,0,1,60.763.264,4.452,4.452,0,0,1,57.645-.811a3.786,3.786,0,0,1-1.18-2.947Zm2.848,1.012a1.559,1.559,0,0,0,.422,1.081,1.337,1.337,0,0,0,1.028.465,1.212,1.212,0,0,0,1.384-1.205L62.161-4.7a1.613,1.613,0,0,0-.382-1.12,1.329,1.329,0,0,0-1.042-.426,1.34,1.34,0,0,0-1.015.4,1.592,1.592,0,0,0-.409,1.081ZM52.484-1.437l-2.07-1.042,9.374-15,2.07,1.042Z" transform="translate(1085.814 3125.918)" fill="#617a0b"/>
  </g>
</svg>
