<svg id="Grupo_877210" data-name="Grupo 877210" xmlns="http://www.w3.org/2000/svg" xmlns:xlink="http://www.w3.org/1999/xlink" width="505" height="314.562" viewBox="0 0 505 314.562">
  <defs>
    <clipPath id="clip-path">
      <path id="Trazado_628044" data-name="Trazado 628044" d="M0,0H505V314.561H0Z" fill="none" stroke="#707070" stroke-width="1"/>
    </clipPath>
    <clipPath id="clip-path-2">
      <rect id="Rectángulo_327327" data-name="Rectángulo 327327" width="467.952" height="314.561" fill="none"/>
    </clipPath>
    <clipPath id="clip-path-4">
      <rect id="Rectángulo_327328" data-name="Rectángulo 327328" width="151.979" height="41.69" fill="none"/>
    </clipPath>
    <clipPath id="clip-path-5">
      <rect id="Rectángulo_327329" data-name="Rectángulo 327329" width="3.894" height="13.136" fill="none"/>
    </clipPath>
    <clipPath id="clip-path-7">
      <rect id="Rectángulo_327342" data-name="Rectángulo 327342" width="12.28" height="26.154" fill="#617a0b"/>
    </clipPath>
    <clipPath id="clip-path-8">
      <rect id="Rectángulo_327343" data-name="Rectángulo 327343" width="22.953" height="14.363" fill="#617a0b"/>
    </clipPath>
    <clipPath id="clip-path-15">
      <rect id="Rectángulo_327354" data-name="Rectángulo 327354" width="8.206" height="20.349" fill="none"/>
    </clipPath>
  </defs>
  <g id="Enmascarar_grupo_878816" data-name="Enmascarar grupo 878816" clip-path="url(#clip-path)">
    <g id="Grupo_877177" data-name="Grupo 877177">
      <g id="Grupo_877176" data-name="Grupo 877176" clip-path="url(#clip-path-2)">
        <path id="Trazado_622233" data-name="Trazado 622233" d="M389.618,377.418c0,.12-85.816.217-191.651.217-105.871,0-191.669-.1-191.669-.217s85.8-.217,191.669-.217c105.835,0,191.651.1,191.651.217" transform="translate(-1.053 -63.073)" fill="#263238"/>
      </g>
    </g>
    <g id="Grupo_877185" data-name="Grupo 877185">
      <g id="Grupo_877184" data-name="Grupo 877184" clip-path="url(#clip-path-2)">
        <path id="Trazado_622234" data-name="Trazado 622234" d="M338.4,237.247H171.953c-4.04,0-7.315-2.819-7.315-6.3V22.322c0-3.478,3.275-6.3,7.315-6.3H338.4c4.041,0,7.315,2.819,7.315,6.3V230.951c0,3.478-3.275,6.3-7.315,6.3" transform="translate(-27.53 -2.68)" fill="#e0e0e0"/>
        <path id="Trazado_622235" data-name="Trazado 622235" d="M338.369,237.217s.188-.013.56-.032a9.087,9.087,0,0,0,1.63-.272,8.021,8.021,0,0,0,2.393-1.118,6.48,6.48,0,0,0,2.2-2.6,5.29,5.29,0,0,0,.475-1.9c.042-.687.009-1.419.017-2.182q0-2.292-.008-5.008c0-3.621-.01-7.8-.016-12.5-.013-18.81-.032-46.026-.056-79.654-.007-16.815-.014-35.234-.022-55.006q0-14.829-.009-30.643,0-7.9,0-16.024-.006-4.06-.013-8.174a5.7,5.7,0,0,0-1.614-3.714,7.479,7.479,0,0,0-3.947-2.094,11.663,11.663,0,0,0-2.375-.157h-7.321l-9.862,0-20.063,0-41.379,0-87.015,0a7.821,7.821,0,0,0-4.938,1.7,5.794,5.794,0,0,0-2.205,4.146c-.037,3.173-.011,6.363-.018,9.528q0,9.5,0,18.878,0,18.744,0,36.909c0,24.2-.007,47.539-.01,69.774s-.012,43.363-.017,63.138q0,3.708,0,7.351c.007,1.212-.017,2.429.015,3.621a5.582,5.582,0,0,0,1.3,3.29,7.168,7.168,0,0,0,3.125,2.154,8.744,8.744,0,0,0,1.946.428c.662.05,1.347.039,2.027.04l8.078,0,30.665.01,92.538.048,25.159.028,6.542.015c1.474,0,2.229.015,2.229.015s-.755.011-2.229.016l-6.542.015-25.159.028-92.538.047-30.665.01-8.078,0c-.679,0-1.359.012-2.057-.04a9.073,9.073,0,0,1-2.022-.444,7.452,7.452,0,0,1-3.249-2.236,5.8,5.8,0,0,1-1.352-3.419c-.032-1.213-.01-2.415-.017-3.632q0-3.644,0-7.351c-.005-19.775-.01-40.9-.016-63.138s-.007-45.577-.01-69.774q0-18.149,0-36.909V31.515c.007-3.171-.019-6.34.018-9.542a6.081,6.081,0,0,1,2.313-4.35,8.2,8.2,0,0,1,5.179-1.78l87.015,0,41.379,0,20.063,0h17.183a12.113,12.113,0,0,1,2.447.164,7.812,7.812,0,0,1,4.122,2.19,5.944,5.944,0,0,1,1.686,3.881q0,4.117.01,8.182,0,8.123,0,16.024,0,15.8-.008,30.643c-.007,19.772-.015,38.191-.022,55.006-.023,33.628-.042,60.843-.056,79.654-.006,4.7-.011,8.878-.016,12.5q0,2.714-.008,5.008c-.011.764.019,1.491-.026,2.185a5.35,5.35,0,0,1-.488,1.922,6.529,6.529,0,0,1-2.229,2.617,8.022,8.022,0,0,1-2.416,1.111,8.774,8.774,0,0,1-1.639.258c-.374.013-.562.017-.562.017" transform="translate(-27.494 -2.649)" fill="#263238"/>
        <g id="Grupo_877180" data-name="Grupo 877180" transform="translate(152.906 187.879)" opacity="0.3">
          <g id="Grupo_877179" data-name="Grupo 877179">
            <g id="Grupo_877178" data-name="Grupo 877178" clip-path="url(#clip-path-4)">
              <path id="Trazado_622236" data-name="Trazado 622236" d="M183.608,267.292H335.587l-1.667-27.208V225.6L183.608,245.818Z" transform="translate(-183.608 -225.602)"/>
            </g>
          </g>
        </g>
        <g id="Grupo_877183" data-name="Grupo 877183" transform="translate(272.902 13.797)" opacity="0.3">
          <g id="Grupo_877182" data-name="Grupo 877182">
            <g id="Grupo_877181" data-name="Grupo 877181" clip-path="url(#clip-path-5)">
              <path id="Trazado_622237" data-name="Trazado 622237" d="M328.137,16.567l3.454,8.816V29.7H327.7Z" transform="translate(-327.697 -16.567)"/>
            </g>
          </g>
        </g>
        <path id="Trazado_622238" data-name="Trazado 622238" d="M174.336,26.668V229.883H339.265V26.668Z" transform="translate(-29.151 -4.459)" fill="#fff"/>
        <path id="Trazado_622239" data-name="Trazado 622239" d="M339.23,193.515s-.008-.263-.013-.781-.007-1.292-.012-2.309c-.005-2.04-.013-5.061-.023-8.995-.011-7.876-.025-19.409-.044-34.049-.015-29.287-.037-71.006-.063-120.743l.156.133L174.3,26.788l.175-.151v.181c-.017,78.119-.032,149.46-.043,203.034l-.132-.113,90.041.051,24.552.03,6.393.016c1.442.006,2.18.017,2.18.017s-.739.011-2.18.017l-6.393.016-24.552.03-90.041.05h-.132v-.114c-.012-53.574-.027-124.915-.044-203.034v-.331h.176L339.23,26.5h.156v.134c-.026,49.737-.047,91.455-.063,120.743-.018,14.64-.033,26.173-.043,34.049-.01,3.934-.018,6.955-.023,8.995-.006,1.017-.01,1.789-.013,2.309s-.012.781-.012.781" transform="translate(-29.116 -4.429)" fill="#263238"/>
        <path id="Trazado_622240" data-name="Trazado 622240" d="M311.47,30.241H228.021V14.057a4.648,4.648,0,0,1,4.649-4.649h74.152a4.648,4.648,0,0,1,4.649,4.649Z" transform="translate(-38.128 -1.573)" fill="#263238"/>
        <path id="Trazado_622241" data-name="Trazado 622241" d="M286.61,0H265.371l2.483,15.67h16Z" transform="translate(-44.373 0)" fill="#263238"/>
        <path id="Trazado_622242" data-name="Trazado 622242" d="M307.186,9.378c0,.083-16.283.151-36.363.151s-36.365-.067-36.365-.151,16.279-.151,36.365-.151,36.363.067,36.363.151" transform="translate(-39.204 -1.543)" fill="#455a64"/>
        <path id="Trazado_622243" data-name="Trazado 622243" d="M230.228,27.745a62.066,62.066,0,0,1-.175-6.582,62.066,62.066,0,0,1,.175-6.582,62.063,62.063,0,0,1,.175,6.582,62.063,62.063,0,0,1-.175,6.582" transform="translate(-38.468 -2.438)" fill="#455a64"/>
        <path id="Trazado_622244" data-name="Trazado 622244" d="M324.947,26.118a51.189,51.189,0,0,1-.175-5.975,51.177,51.177,0,0,1,.175-5.975,51.19,51.19,0,0,1,.175,5.975,51.2,51.2,0,0,1-.175,5.975" transform="translate(-54.306 -2.369)" fill="#455a64"/>
        <path id="Trazado_622245" data-name="Trazado 622245" d="M305.159,31.814c0,.083-16.713.151-37.326.151s-37.33-.067-37.33-.151,16.71-.151,37.33-.151,37.326.067,37.326.151" transform="translate(-38.543 -5.294)" fill="#455a64"/>
        <rect id="Rectángulo_327330" data-name="Rectángulo 327330" width="97.069" height="4.819" transform="translate(195.839 52.851)" fill="#e0e0e0"/>
        <rect id="Rectángulo_327331" data-name="Rectángulo 327331" width="44.037" height="4.785" transform="translate(195.839 62.696)" fill="#e0e0e0"/>
        <rect id="Rectángulo_327332" data-name="Rectángulo 327332" width="97.069" height="4.819" transform="translate(195.839 82.688)" fill="#e0e0e0"/>
        <rect id="Rectángulo_327333" data-name="Rectángulo 327333" width="44.037" height="4.786" transform="translate(195.839 92.532)" fill="#e0e0e0"/>
        <path id="Trazado_622246" data-name="Trazado 622246" d="M211.843,114.946H198.985a2.634,2.634,0,0,1-2.634-2.633V99.453a2.634,2.634,0,0,1,2.634-2.633h12.858a2.633,2.633,0,0,1,2.633,2.633v12.859a2.633,2.633,0,0,1-2.633,2.633" transform="translate(-32.832 -16.19)" fill="#eb6f2d"/>
        <path id="Trazado_622247" data-name="Trazado 622247" d="M205.9,111.153l-5.077-3.924,1.369-1.771,3.405,2.631,4.842-5.571,1.69,1.469Z" transform="translate(-33.58 -17.142)" fill="#fff"/>
        <path id="Trazado_622248" data-name="Trazado 622248" d="M211.843,80.489H198.985a2.634,2.634,0,0,1-2.634-2.633V65a2.634,2.634,0,0,1,2.634-2.633h12.858A2.633,2.633,0,0,1,214.477,65V77.855a2.633,2.633,0,0,1-2.633,2.633" transform="translate(-32.832 -10.428)" fill="#eb6f2d"/>
        <path id="Trazado_622249" data-name="Trazado 622249" d="M205.9,76.7l-5.077-3.924L202.194,71l3.405,2.631,4.842-5.571,1.69,1.469Z" transform="translate(-33.58 -11.381)" fill="#fff"/>
        <rect id="Rectángulo_327334" data-name="Rectángulo 327334" width="97.069" height="4.819" transform="translate(195.839 114.657)" fill="#e0e0e0"/>
        <rect id="Rectángulo_327335" data-name="Rectángulo 327335" width="44.037" height="4.785" transform="translate(195.839 124.501)" fill="#e0e0e0"/>
        <rect id="Rectángulo_327336" data-name="Rectángulo 327336" width="97.069" height="4.819" transform="translate(195.839 144.211)" fill="#e0e0e0"/>
        <rect id="Rectángulo_327337" data-name="Rectángulo 327337" width="44.037" height="4.785" transform="translate(195.839 154.056)" fill="#e0e0e0"/>
        <path id="Trazado_622250" data-name="Trazado 622250" d="M211.843,153.334H198.985a2.634,2.634,0,0,1-2.634-2.633V137.841a2.634,2.634,0,0,1,2.634-2.633h12.858a2.633,2.633,0,0,1,2.633,2.633V150.7a2.633,2.633,0,0,1-2.633,2.633" transform="translate(-32.832 -22.608)" fill="#eb6f2d"/>
        <path id="Trazado_622251" data-name="Trazado 622251" d="M205.9,149.541l-5.077-3.924,1.369-1.771,3.405,2.631,4.842-5.571,1.69,1.469Z" transform="translate(-33.58 -23.561)" fill="#fff"/>
        <path id="Trazado_622252" data-name="Trazado 622252" d="M212.042,190.077H198.665a2.685,2.685,0,0,1-2.682-2.682V174.019a2.685,2.685,0,0,1,2.682-2.682h13.377a2.684,2.684,0,0,1,2.682,2.682v13.376a2.684,2.684,0,0,1-2.682,2.682m-13.377-18.126a2.069,2.069,0,0,0-2.067,2.067v13.376a2.07,2.07,0,0,0,2.067,2.068h13.377a2.07,2.07,0,0,0,2.067-2.068V174.019a2.07,2.07,0,0,0-2.067-2.067Z" transform="translate(-32.771 -28.65)" fill="#ff725e"/>
        <rect id="Rectángulo_327338" data-name="Rectángulo 327338" width="97.069" height="4.819" transform="translate(195.839 178.019)" fill="#e0e0e0"/>
        <rect id="Rectángulo_327339" data-name="Rectángulo 327339" width="44.037" height="4.785" transform="translate(195.839 187.863)" fill="#e0e0e0"/>
        <path id="Trazado_622253" data-name="Trazado 622253" d="M212.042,230.673H198.665a2.685,2.685,0,0,1-2.682-2.682V214.615a2.685,2.685,0,0,1,2.682-2.682h13.377a2.684,2.684,0,0,1,2.682,2.682v13.376a2.684,2.684,0,0,1-2.682,2.682m-13.377-18.126a2.069,2.069,0,0,0-2.067,2.067v13.376a2.07,2.07,0,0,0,2.067,2.068h13.377a2.07,2.07,0,0,0,2.067-2.068V214.615a2.07,2.07,0,0,0-2.067-2.067Z" transform="translate(-32.771 -35.438)" fill="#ff725e"/>
        <rect id="Rectángulo_327340" data-name="Rectángulo 327340" width="78.164" height="6.692" transform="translate(180.187 34.191)" fill="#eb6f2d"/>
      </g>
    </g>
    <g id="Grupo_877193" data-name="Grupo 877193">
      <g id="Grupo_877192" data-name="Grupo 877192" clip-path="url(#clip-path-2)">
        <path id="Trazado_622254" data-name="Trazado 622254" d="M205.8,342.693s-2.874-19.759-2.635-31.255-.014-24.429-.014-24.429h1.325s-.9,22.818.079,36.581,3.545,19.1,3.545,19.1Z" transform="translate(-33.97 -47.991)" fill="#263238"/>
        <path id="Trazado_622255" data-name="Trazado 622255" d="M213.953,259.894a3.487,3.487,0,0,0-1.207-1.766,3.359,3.359,0,0,0-2.879.02c-4,1.416-7.549,8.876-9.166,12.8l5.312,17.9c9.589-8.9,11.249-20.566,7.94-28.954" transform="translate(-33.56 -43.109)" fill="#617a0b"/>
        <path id="Trazado_622256" data-name="Trazado 622256" d="M213.5,259.062a1.053,1.053,0,0,1-.077.233l-.26.653c-.233.563-.56,1.382-.95,2.4-.783,2.033-1.779,4.875-2.67,8.076s-1.5,6.153-1.875,8.3c-.189,1.073-.331,1.943-.422,2.546-.047.281-.084.51-.113.693a1.049,1.049,0,0,1-.054.24.965.965,0,0,1,.01-.246c.019-.184.043-.415.072-.7.065-.607.184-1.482.355-2.56a76.175,76.175,0,0,1,4.554-16.405c.41-1.011.759-1.822,1.016-2.376l.3-.636a1.033,1.033,0,0,1,.117-.216" transform="translate(-34.626 -43.318)" fill="#263238"/>
        <path id="Trazado_622257" data-name="Trazado 622257" d="M202.6,294.983a16.211,16.211,0,0,1-8.188-13.61c-.192-3.972,1.029-7.87,2.412-11.6a1.5,1.5,0,0,1,.562-.843,1.431,1.431,0,0,1,1.358.212c3.618,2.061,5.81,5.989,6.977,9.986a20.156,20.156,0,0,1,.819,8.211,13.645,13.645,0,0,1-3.94,7.642" transform="translate(-32.504 -44.952)" fill="#455a64"/>
        <path id="Trazado_622258" data-name="Trazado 622258" d="M203.536,295.569a.99.99,0,0,1-.019-.24c0-.182-.008-.409-.013-.687,0-.6-.026-1.459-.075-2.523a68.986,68.986,0,0,0-.924-8.27c-.552-3.206-1.223-6.077-1.716-8.152-.243-1.015-.443-1.847-.59-2.457-.062-.272-.112-.494-.153-.67a1.067,1.067,0,0,1-.039-.237.948.948,0,0,1,.082.227c.052.174.115.392.193.66.164.574.391,1.407.657,2.441.533,2.067,1.228,4.938,1.783,8.153a60.574,60.574,0,0,1,.863,8.3c.029,1.068.03,1.934.005,2.53-.012.279-.021.506-.027.688a1.009,1.009,0,0,1-.025.239" transform="translate(-33.443 -45.537)" fill="#263238"/>
        <g id="Grupo_877188" data-name="Grupo 877188" transform="translate(161.885 223.877)" opacity="0.3">
          <g id="Grupo_877187" data-name="Grupo 877187">
            <g id="Grupo_877186" data-name="Grupo 877186" clip-path="url(#clip-path-7)">
              <path id="Trazado_622259" data-name="Trazado 622259" d="M202.6,294.983a16.211,16.211,0,0,1-8.188-13.61c-.192-3.972,1.029-7.87,2.412-11.6a1.5,1.5,0,0,1,.562-.843,1.431,1.431,0,0,1,1.358.212c3.618,2.061,5.81,5.989,6.977,9.986a20.156,20.156,0,0,1,.819,8.211,13.645,13.645,0,0,1-3.94,7.642" transform="translate(-194.389 -268.829)" fill="#617a0b"/>
            </g>
          </g>
        </g>
        <path id="Trazado_622260" data-name="Trazado 622260" d="M210.991,336.452c4.9,1.077,8.936,4.534,13.664,6.214,3.128,1.112,6.666,1.506,9.163,3.693a7.763,7.763,0,0,0-3.4-3.383,60.97,60.97,0,0,0-12.384-5.913c-2.224-.768-4.638-1.41-6.9-.777" transform="translate(-35.28 -56.188)" fill="#617a0b"/>
        <path id="Trazado_622261" data-name="Trazado 622261" d="M198.726,340.48c-6.138-.1-12.6-5.324-18.709-5.636,6.392-2.064,15.546-.378,18.709,5.636" transform="translate(-30.101 -55.849)" fill="#617a0b"/>
        <path id="Trazado_622262" data-name="Trazado 622262" d="M205.362,322.6a19.975,19.975,0,0,1,9.812-.668,59.652,59.652,0,0,1,9.58,2.6c-.316-2.129-2.039-3.731-3.66-5.148a25.5,25.5,0,0,0-3.847-2.956,8.568,8.568,0,0,0-4.613-1.3,7.294,7.294,0,0,0-5.091,2.566,8.456,8.456,0,0,0-2.181,4.9" transform="translate(-34.339 -52.693)" fill="#617a0b"/>
        <path id="Trazado_622263" data-name="Trazado 622263" d="M187.265,315.376c-3.863-3.3-9.715-2.976-14.794-2.861a120.488,120.488,0,0,1,22.944,14.3c.207-3.59-3.27-7.269-8.15-11.436" transform="translate(-28.839 -52.245)" fill="#455a64"/>
        <g id="Grupo_877191" data-name="Grupo 877191" transform="translate(143.632 260.203)" opacity="0.3">
          <g id="Grupo_877190" data-name="Grupo 877190">
            <g id="Grupo_877189" data-name="Grupo 877189" clip-path="url(#clip-path-8)">
              <path id="Trazado_622264" data-name="Trazado 622264" d="M187.265,315.376c-3.863-3.3-9.715-2.976-14.794-2.861a120.488,120.488,0,0,1,22.944,14.3c.207-3.59-3.27-7.269-8.15-11.436" transform="translate(-172.471 -312.449)" fill="#617a0b"/>
            </g>
          </g>
        </g>
        <path id="Trazado_622265" data-name="Trazado 622265" d="M207.444,307.309a43.125,43.125,0,0,1,5.941-3.454c2.034-.924,3.931-2.4,5.9-3.459a64.346,64.346,0,0,0,7.09-5.005,18.414,18.414,0,0,1,7.766-3.706,15.264,15.264,0,0,0-7.067.409,45.633,45.633,0,0,0-6.651,2.587,32.437,32.437,0,0,0-8.544,4.953c-2.464,2.2-4.691,4.379-4.43,7.674" transform="translate(-34.684 -48.732)" fill="#617a0b"/>
        <path id="Trazado_622266" data-name="Trazado 622266" d="M223.525,340.85a.738.738,0,0,1-.194-.084l-.536-.277c-.462-.246-1.126-.61-1.962-1.03q-.62-.329-1.369-.68c-.492-.245-1.027-.486-1.594-.731a23.3,23.3,0,0,0-3.778-1.317,8.11,8.11,0,0,0-3.937-.1,11.247,11.247,0,0,0-1.668.5,8.6,8.6,0,0,0-3.038,2.089c-.356.381-.53.614-.545.6a.785.785,0,0,1,.111-.181c.077-.115.2-.277.371-.479a7.92,7.92,0,0,1,1.672-1.471,8.354,8.354,0,0,1,1.361-.73,11.112,11.112,0,0,1,1.691-.526,8.186,8.186,0,0,1,4.034.082,22.314,22.314,0,0,1,3.809,1.345c.569.251,1.1.5,1.593.753s.952.478,1.362.705c.829.439,1.482.824,1.932,1.093l.516.313a.792.792,0,0,1,.172.122" transform="translate(-34.262 -56.22)" fill="#263238"/>
        <path id="Trazado_622267" data-name="Trazado 622267" d="M196.985,338.127a1.415,1.415,0,0,1,.385.112,8.607,8.607,0,0,1,1,.435A12.139,12.139,0,0,1,203.5,343.6a8.439,8.439,0,0,1,.474.982,1.405,1.405,0,0,1,.128.379c-.036.016-.265-.5-.736-1.283a13.608,13.608,0,0,0-5.066-4.868c-.8-.44-1.327-.648-1.312-.684" transform="translate(-32.938 -56.539)" fill="#263238"/>
        <path id="Trazado_622268" data-name="Trazado 622268" d="M180.679,315.594a1.263,1.263,0,0,1,.262.077l.737.262,1.161.428c.453.168.944.416,1.5.661a35.48,35.48,0,0,1,7.99,5.091,39.017,39.017,0,0,1,3.727,3.669,41.116,41.116,0,0,1,2.644,3.351c.7.993,1.233,1.82,1.6,2.391l.42.659a1.314,1.314,0,0,1,.137.237,1.245,1.245,0,0,1-.172-.212c-.107-.143-.263-.356-.455-.636-.386-.558-.937-1.37-1.651-2.348s-1.611-2.107-2.669-3.307a40.875,40.875,0,0,0-3.718-3.636,37.365,37.365,0,0,0-7.914-5.117c-.55-.253-1.035-.51-1.482-.689l-1.145-.462-.721-.3a1.3,1.3,0,0,1-.247-.119" transform="translate(-30.212 -52.771)" fill="#263238"/>
        <path id="Trazado_622269" data-name="Trazado 622269" d="M214.407,319.87a2.1,2.1,0,0,1-.49-.063l-.564-.1c-.219-.042-.475-.043-.754-.072a7.724,7.724,0,0,0-4.218.833,7.627,7.627,0,0,0-1.92,1.424,8.693,8.693,0,0,0-1.233,1.526,12.617,12.617,0,0,0-.844,1.61,1.783,1.783,0,0,1,.124-.478,6.881,6.881,0,0,1,.588-1.213,8.128,8.128,0,0,1,1.222-1.586,7.467,7.467,0,0,1,6.294-2.269c.282.039.541.052.761.106l.562.142a2.148,2.148,0,0,1,.471.147" transform="translate(-34.175 -53.413)" fill="#263238"/>
        <path id="Trazado_622270" data-name="Trazado 622270" d="M220.52,296.98a1.29,1.29,0,0,1-.232.143l-.685.371c-.6.321-1.452.794-2.493,1.408s-2.257,1.385-3.556,2.313a29.752,29.752,0,0,0-3.969,3.325,10.1,10.1,0,0,0-1.624,2.1c-.4.773-.786,1.518-1.139,2.235a40.288,40.288,0,0,0-1.706,3.882,23.628,23.628,0,0,0-.829,2.733c-.157.657-.214,1.028-.236,1.023a1.294,1.294,0,0,1,.025-.271c.022-.177.059-.438.127-.77a20.379,20.379,0,0,1,.767-2.768,37.414,37.414,0,0,1,1.67-3.918c.35-.721.73-1.471,1.13-2.244a10.181,10.181,0,0,1,1.657-2.156,28.815,28.815,0,0,1,4.01-3.338c1.312-.924,2.545-1.676,3.594-2.283s1.924-1.052,2.533-1.349l.7-.336a1.3,1.3,0,0,1,.252-.1" transform="translate(-34.119 -49.659)" fill="#263238"/>
        <path id="Trazado_622271" data-name="Trazado 622271" d="M202.339,316.731a2.475,2.475,0,0,1-.122-.517c-.072-.379-.162-.854-.269-1.418a36.239,36.239,0,0,0-2.913-9.021l-.6-1.314a2.5,2.5,0,0,1-.2-.494,2.53,2.53,0,0,1,.273.456c.163.3.392.737.662,1.285a30.273,30.273,0,0,1,2.926,9.06c.1.6.166,1.093.2,1.432a2.478,2.478,0,0,1,.037.53" transform="translate(-33.148 -50.827)" fill="#263238"/>
        <path id="Trazado_622272" data-name="Trazado 622272" d="M199.25,298.977a16.646,16.646,0,0,0-2-6.626A21.87,21.87,0,0,0,182.429,281.3l13.726,20.457,1.772,3.651a10.494,10.494,0,0,0,1.323-6.427" transform="translate(-30.504 -47.036)" fill="#617a0b"/>
        <rect id="Rectángulo_327344" data-name="Rectángulo 327344" width="31.916" height="5.657" transform="translate(156.519 292.257)" fill="#eb6f2d"/>
        <path id="Trazado_622273" data-name="Trazado 622273" d="M190.808,356.384l2.717,17.553h21.189l3.243-17.553Z" transform="translate(-31.905 -59.592)" fill="#eb6f2d"/>
        <path id="Trazado_622274" data-name="Trazado 622274" d="M219.792,357.717c0,.062-7.2.112-16.078.112s-16.079-.051-16.079-.112,7.2-.112,16.079-.112,16.078.051,16.078.112" transform="translate(-31.375 -59.796)" fill="#263238"/>
      </g>
    </g>
    <g id="Grupo_877195" data-name="Grupo 877195">
      <g id="Grupo_877194" data-name="Grupo 877194" clip-path="url(#clip-path-2)">
        <path id="Trazado_622275" data-name="Trazado 622275" d="M452.364,120.805l-1.692-4.017a16.624,16.624,0,1,0-2.8,5.253l0,.009Z" transform="translate(-69.939 -15.91)" fill="#fff"/>
        <path id="Trazado_622276" data-name="Trazado 622276" d="M452.328,120.769a2.1,2.1,0,0,1-.274.091l-.849.254-3.355.978a.08.08,0,0,1-.1-.054.086.086,0,0,1,0-.054l0-.008.135.081a16.529,16.529,0,0,1-6.328,4.95,17.109,17.109,0,0,1-5.139,1.36,16.708,16.708,0,0,1-6.022-.515,17.073,17.073,0,0,1-5.956-3.021,16.391,16.391,0,0,1-4.592-5.576,17.132,17.132,0,0,1-1.8-7.469,16.82,16.82,0,0,1,7.292-13.917,17.1,17.1,0,0,1,7.244-2.784,16.349,16.349,0,0,1,7.26.656,17.115,17.115,0,0,1,5.885,3.268,16.8,16.8,0,0,1,3.819,4.734l.61,1.275c.19.422.322.859.482,1.277a15.084,15.084,0,0,1,.644,2.493,16.513,16.513,0,0,1-.581,7.99l0-.053c.525,1.3.935,2.309,1.223,3.021l.3.771a1.919,1.919,0,0,1,.092.255,2.909,2.909,0,0,1-.129-.271l-.346-.774-1.288-2.941a.079.079,0,0,1,0-.053,16.581,16.581,0,0,0,.481-7.9,14.93,14.93,0,0,0-.655-2.45c-.16-.409-.293-.838-.483-1.252l-.608-1.249a16.544,16.544,0,0,0-3.775-4.624,16.823,16.823,0,0,0-5.781-3.18,16.027,16.027,0,0,0-7.1-.622,16.74,16.74,0,0,0-7.075,2.733,16.464,16.464,0,0,0-7.124,13.6,16.791,16.791,0,0,0,1.751,7.3,16.062,16.062,0,0,0,4.476,5.466,16.8,16.8,0,0,0,5.825,2.985,16.491,16.491,0,0,0,5.907.539,16.957,16.957,0,0,0,5.065-1.3,16.584,16.584,0,0,0,6.306-4.818.079.079,0,0,1,.111-.014.082.082,0,0,1,.024.095l0,.008-.094-.107,3.333-.874.877-.224a2.9,2.9,0,0,1,.311-.071" transform="translate(-69.903 -15.873)" fill="#263238"/>
        <path id="Trazado_622277" data-name="Trazado 622277" d="M432.836,115.239a1.815,1.815,0,1,1-1.815-1.815,1.815,1.815,0,0,1,1.815,1.815" transform="translate(-71.769 -18.966)" fill="#263238"/>
        <path id="Trazado_622278" data-name="Trazado 622278" d="M440.178,115.239a1.815,1.815,0,1,1-1.815-1.815,1.815,1.815,0,0,1,1.815,1.815" transform="translate(-72.996 -18.966)" fill="#263238"/>
        <path id="Trazado_622279" data-name="Trazado 622279" d="M447.325,115.239a1.815,1.815,0,1,1-1.815-1.815,1.815,1.815,0,0,1,1.815,1.815" transform="translate(-74.191 -18.966)" fill="#263238"/>
      </g>
    </g>
    <g id="Grupo_877197" data-name="Grupo 877197">
      <g id="Grupo_877196" data-name="Grupo 877196" clip-path="url(#clip-path-2)">
        <path id="Trazado_622280" data-name="Trazado 622280" d="M103.092,67.946l.789-4.633a15.784,15.784,0,1,1,3.638,4.327l0,.007Z" transform="translate(-17.025 -6.649)" fill="#fff"/>
        <path id="Trazado_622281" data-name="Trazado 622281" d="M103.07,67.915a2.535,2.535,0,0,0,.276-.007l.843-.042,3.318-.183a.065.065,0,0,0,.062-.069.058.058,0,0,0-.012-.035l0-.007-.1.089a15.8,15.8,0,0,0,6.891,3.357,16.051,16.051,0,0,0,2.431.311c.424.029.857,0,1.3,0,.22-.007.442,0,.665-.019l.673-.077a15.7,15.7,0,0,0,5.51-1.683,15.838,15.838,0,0,0,8.147-17.505,16.06,16.06,0,0,0-6.271-9.505,15.987,15.987,0,0,0-3.339-1.812,15.721,15.721,0,0,0-7.189-1.092,15.885,15.885,0,0,0-14.573,16.3,15.667,15.667,0,0,0,2.105,7.388l-.008-.045c-.239,1.5-.423,2.669-.551,3.474-.057.376-.1.668-.134.881a2.815,2.815,0,0,0-.037.289s.026-.109.065-.311l.168-.894c.144-.792.353-1.936.623-3.417a.066.066,0,0,0-.008-.045,15.67,15.67,0,0,1,12.376-23.3,15.431,15.431,0,0,1,7.045,1.079,15.769,15.769,0,0,1,3.27,1.777,15.415,15.415,0,0,1,6.145,9.311,15.578,15.578,0,0,1-.087,7.184,15.724,15.724,0,0,1-7.872,10.012,15.506,15.506,0,0,1-5.411,1.681l-.662.081c-.219.024-.438.014-.655.022-.434,0-.86.035-1.278.009a15.591,15.591,0,0,1-9.248-3.542.066.066,0,0,0-.1.089l.005.007.049-.1-3.269.259-.858.073c-.195.017-.3.032-.3.032" transform="translate(-17.003 -6.617)" fill="#263238"/>
        <path id="Trazado_622282" data-name="Trazado 622282" d="M112.556,58.955l1.739-1.739,3.354,2.981,6.582-6.334,1.615,1.739L117.4,63.55Z" transform="translate(-18.821 -9.006)" fill="#eb6f2d"/>
      </g>
    </g>
    <g id="Grupo_877199" data-name="Grupo 877199">
      <g id="Grupo_877198" data-name="Grupo 877198" clip-path="url(#clip-path-2)">
        <path id="Trazado_622283" data-name="Trazado 622283" d="M532.6,261.987c.021-.2.039-.391.047-.585.167-3.748-1.355-7.339-2.82-10.794-3.928-9.261-7.728-19.087-6.624-29.083,1.459-13.217,11.178-24.148,14.647-36.932a3.465,3.465,0,0,1,3.353-2.54h0a3.467,3.467,0,0,1,3.329,4.5c-3.864,11.955-12.679,22.434-14.064,34.971-1.1,10,2.7,19.821,6.624,29.083,1.466,3.454,2.987,7.046,2.821,10.794s-2.578,7.686-6.291,8.286h-55.23a3.48,3.48,0,0,1-3.484-3.474v-.752a3.48,3.48,0,0,1,3.484-3.474Z" transform="translate(-79.41 -30.442)" fill="#455a64"/>
        <path id="Trazado_622284" data-name="Trazado 622284" d="M540.69,362.343H460.543a3.522,3.522,0,0,1-2.857-1.51,4.323,4.323,0,0,1-.585-3.872l22.814-69.911,1.19.389L458.29,357.35a3.067,3.067,0,0,0,.409,2.748,2.284,2.284,0,0,0,1.844.993H540.69a2.254,2.254,0,0,0,1.81-.947,3.073,3.073,0,0,0,.481-2.671l-19.607-70.061,1.205-.337,19.607,70.061a4.327,4.327,0,0,1-.689,3.765,3.524,3.524,0,0,1-2.807,1.442" transform="translate(-76.396 -47.998)" fill="#e0e0e0"/>
        <path id="Trazado_622285" data-name="Trazado 622285" d="M422.537,222.865s2.919-7.093,5.8-8.594a36.859,36.859,0,0,1,6.556-2.459H447.73l.127,8.31a5.653,5.653,0,0,1-4.395,1.507c-2.541-.351-8.884-1.92-8.884-1.92l-3.131.172-2.886,3.7s-2.343.711-1.518-1.5,1.193-3.194,1.193-3.194-2.772,4.313-3.835,4.511a2.355,2.355,0,0,1-1.865-.53" transform="translate(-70.653 -35.418)" fill="#6f4439"/>
        <path id="Trazado_622286" data-name="Trazado 622286" d="M480.6,192.964l-10.215,14.693-17.644,1-.241,8.061,13.3,2.617a21.431,21.431,0,0,0,19.082-5.665l1.945-17.771Z" transform="translate(-75.664 -32.266)" fill="#ae7461"/>
        <path id="Trazado_622287" data-name="Trazado 622287" d="M476.73,336.947,488.6,348.558s-8.572,16.55-6.6,18.919l24.785-23.322-17.709-18.887Z" transform="translate(-79.715 -54.389)" fill="#263238"/>
        <path id="Trazado_622288" data-name="Trazado 622288" d="M498.9,343.326a1.318,1.318,0,0,1,1.733.431,1.336,1.336,0,0,1-.51,1.735,1.387,1.387,0,0,1-1.832-.466,1.4,1.4,0,0,1,.729-1.758" transform="translate(-83.306 -57.382)" fill="#e0e0e0"/>
        <path id="Trazado_622289" data-name="Trazado 622289" d="M507.765,347.579l-1.864-1.83-23.067,23.046s-.675,1.492.146,2.107Z" transform="translate(-80.692 -57.814)" fill="#455a64"/>
        <path id="Trazado_622290" data-name="Trazado 622290" d="M490.367,353.3c.112.111.766-.407,1.709-.6.94-.217,1.716-.013,1.784-.162.091-.127-.736-.64-1.875-.386s-1.744,1.068-1.618,1.148" transform="translate(-81.993 -58.873)" fill="#fff"/>
        <path id="Trazado_622291" data-name="Trazado 622291" d="M488.4,357.572c.077.137.785-.162,1.654-.067.873.071,1.472.5,1.587.376.131-.088-.419-.836-1.5-.935s-1.84.514-1.739.625" transform="translate(-81.665 -59.684)" fill="#fff"/>
        <path id="Trazado_622292" data-name="Trazado 622292" d="M489.406,362.632c.133-.079-.239-.808-1.143-1.141s-1.706-.049-1.666.094c.021.159.706.148,1.443.433.744.267,1.235.715,1.366.614" transform="translate(-81.365 -60.419)" fill="#fff"/>
        <path id="Trazado_622293" data-name="Trazado 622293" d="M487.488,349.519c.15.057.555-.624,1.281-1.223s1.451-.9,1.422-1.056c-.008-.148-.929-.082-1.773.636s-1.073,1.609-.929,1.643" transform="translate(-81.507 -58.052)" fill="#fff"/>
        <path id="Trazado_622294" data-name="Trazado 622294" d="M464.192,239.916c-2.171,0-55.06,15.407-60.783,20.614S393.4,330.184,393.4,330.184l22.176,7.6s4.674-31.475,7.507-41.64a51.973,51.973,0,0,0,1.734-15.626L468.73,261.4Z" transform="translate(-65.782 -40.117)" fill="#263238"/>
        <path id="Trazado_622295" data-name="Trazado 622295" d="M471.146,242.06c-.987.434-39.413,16.841-43.024,27.833-2.943,8.957.478,16.844,4.589,23.007,4.641,6.959,38.676,38.017,38.676,38.017L490.6,317.182,457.664,283.17S474.944,272.5,475.536,272.5s18.555-1.188,24.248-1.832c5.317-.6,8.226-8.227,8.226-8.227l4.743-21.86-35.638-8.225Z" transform="translate(-71.403 -38.853)" fill="#263238"/>
        <path id="Trazado_622296" data-name="Trazado 622296" d="M471.124,242.047s.123-.219.376-.639l1.129-1.865,4.413-7.228.022-.037.042.01,35.651,8.17.11.025-.024.111-4.724,21.864,0,.012,0,.008a19.158,19.158,0,0,1-3.384,5.48,9.753,9.753,0,0,1-2.606,2.074,4.016,4.016,0,0,1-.771.355,4.582,4.582,0,0,1-.814.26c-.281.052-.564.12-.844.16l-.842.089c-4.5.444-9.152.777-13.938,1.126l-7.278.5-1.852.112-.238.01c-.052,0-.045.017-.068.018a.949.949,0,0,0-.091.04c-.132.057-.271.135-.406.2l-.814.45c-1.081.615-2.159,1.254-3.242,1.9-4.328,2.587-8.726,5.284-13.2,8.04l.031-.245L483.475,309.6l7.217,7.454.131.136-.153.109-19.212,13.733-.1.076-.095-.087q-10.317-9.456-19.754-18.468c-3.135-3-6.183-5.953-9.116-8.886s-5.777-5.813-8.342-8.813c-.336-.361-.612-.775-.917-1.16a13.517,13.517,0,0,1-.854-1.193c-.531-.814-1.038-1.638-1.5-2.476a34.091,34.091,0,0,1-2.386-5.137,25.308,25.308,0,0,1-1.324-5.327,22.266,22.266,0,0,1-.038-5.3,19.572,19.572,0,0,1,1.2-4.972,14.417,14.417,0,0,1,2.835-4.012,47.492,47.492,0,0,1,7.088-5.837,137.42,137.42,0,0,1,13.446-8.056c4.054-2.163,7.593-3.892,10.491-5.268s5.162-2.388,6.7-3.064l1.748-.755c.4-.167.6-.245.6-.245s-.2.1-.588.271l-1.736.781c-1.527.692-3.782,1.722-6.671,3.112s-6.419,3.135-10.462,5.31a138.752,138.752,0,0,0-13.4,8.082,47.447,47.447,0,0,0-7.042,5.825,14.224,14.224,0,0,0-2.781,3.947,19.331,19.331,0,0,0-1.171,4.908,22.029,22.029,0,0,0,.045,5.243,25.147,25.147,0,0,0,1.318,5.271,33.931,33.931,0,0,0,2.375,5.094c.465.832.969,1.65,1.5,2.459a13.528,13.528,0,0,0,.847,1.179c.3.38.572.784.908,1.145,2.554,2.981,5.4,5.86,8.335,8.786s5.983,5.879,9.119,8.873c6.272,5.989,12.881,12.153,19.759,18.451l-.2-.012,19.207-13.738-.022.245-7.217-7.453-25.713-26.561-.137-.142.168-.1c4.475-2.755,8.875-5.449,13.208-8.036,1.084-.645,2.164-1.283,3.25-1.9l.821-.453c.142-.072.274-.147.426-.213a.839.839,0,0,1,.123-.051.614.614,0,0,1,.157-.033l.226-.01,1.847-.111,7.276-.491c4.784-.344,9.441-.672,13.931-1.111a7.461,7.461,0,0,0,3.168-.829,9.454,9.454,0,0,0,2.534-2.013,18.909,18.909,0,0,0,3.338-5.389l-.006.019c1.722-7.906,3.329-15.287,4.761-21.856l.086.136L477.079,232.4l.063-.027-4.47,7.209-1.153,1.844c-.259.412-.4.616-.4.616" transform="translate(-71.38 -38.84)" fill="#455a64"/>
        <path id="Trazado_622297" data-name="Trazado 622297" d="M483.34,113.954a3.6,3.6,0,0,1-2.129-6.846,3.748,3.748,0,0,1,2.706-6.581,4.485,4.485,0,0,1,6.42-4.251,5.043,5.043,0,0,1,6.177-.665A3.587,3.587,0,0,1,500.2,101.4" transform="translate(-80.101 -15.86)" fill="#263238"/>
        <path id="Trazado_622298" data-name="Trazado 622298" d="M498.364,99.936l-.789.07a15.288,15.288,0,0,0-13.943,15.347c.057,7.41.216,15.6.613,19.54.824,8.165,9.112,8.713,9.112,8.713l.177,9.881,19.782-2.368-1.394-35.77c-.018-8.551-5.01-15.668-13.558-15.413" transform="translate(-80.869 -16.709)" fill="#ae7461"/>
        <path id="Trazado_622299" data-name="Trazado 622299" d="M495.3,151.554a19.833,19.833,0,0,0,10.375-4.086s-2.1,6.253-10.326,6.238Z" transform="translate(-82.82 -24.658)" fill="#6f4439"/>
        <path id="Trazado_622300" data-name="Trazado 622300" d="M487.174,127.318a1.173,1.173,0,0,0,1.23,1.078,1.12,1.12,0,0,0,1.109-1.159,1.173,1.173,0,0,0-1.228-1.079,1.122,1.122,0,0,0-1.111,1.16" transform="translate(-81.461 -21.095)" fill="#263238"/>
        <path id="Trazado_622301" data-name="Trazado 622301" d="M486.162,122.776c.157.139.984-.593,2.24-.7,1.253-.126,2.232.44,2.355.274.061-.075-.111-.336-.538-.593a3.214,3.214,0,0,0-1.9-.407,3.089,3.089,0,0,0-1.767.748c-.36.331-.466.618-.388.68" transform="translate(-81.288 -20.289)" fill="#263238"/>
        <path id="Trazado_622302" data-name="Trazado 622302" d="M500.735,126.538a1.172,1.172,0,0,0,1.23,1.078,1.12,1.12,0,0,0,1.11-1.158,1.174,1.174,0,0,0-1.229-1.079,1.122,1.122,0,0,0-1.111,1.16" transform="translate(-83.729 -20.965)" fill="#263238"/>
        <path id="Trazado_622303" data-name="Trazado 622303" d="M501.012,121.747c.158.139.986-.593,2.241-.7,1.253-.126,2.233.439,2.355.273.061-.074-.109-.336-.538-.593a3.227,3.227,0,0,0-1.9-.407,3.089,3.089,0,0,0-1.767.748c-.359.331-.466.618-.389.68" transform="translate(-83.772 -20.117)" fill="#263238"/>
        <path id="Trazado_622304" data-name="Trazado 622304" d="M495.872,131.593a8.294,8.294,0,0,0-2.073-.188c-.323,0-.633-.042-.706-.256a1.641,1.641,0,0,1,.13-.969l.733-2.526a42.106,42.106,0,0,0,1.566-6.577,42.137,42.137,0,0,0-2.091,6.436q-.362,1.328-.691,2.537a1.864,1.864,0,0,0-.055,1.274.809.809,0,0,0,.569.422,2.219,2.219,0,0,0,.551.027,8.22,8.22,0,0,0,2.068-.18" transform="translate(-82.367 -20.246)" fill="#263238"/>
        <path id="Trazado_622305" data-name="Trazado 622305" d="M499.19,116.028c.194.3,1.24-.137,2.562-.3,1.317-.19,2.457-.039,2.548-.381.038-.162-.222-.427-.723-.64a3.994,3.994,0,0,0-2.025-.242,3.852,3.852,0,0,0-1.867.759c-.414.334-.582.656-.495.8" transform="translate(-83.467 -19.134)" fill="#263238"/>
        <path id="Trazado_622306" data-name="Trazado 622306" d="M485.533,116.542c.29.262,1.3-.126,2.546-.25,1.242-.161,2.319-.012,2.536-.332.093-.154-.1-.426-.583-.655a4.071,4.071,0,0,0-2.113-.284,4,4,0,0,0-1.982.753c-.414.332-.533.639-.4.768" transform="translate(-81.179 -19.228)" fill="#263238"/>
        <path id="Trazado_622307" data-name="Trazado 622307" d="M484.162,111.342s1.7-5.309,4.066-6.722c2.861-1.71,4.437,1.456,7.214.408s5.507-2.687,8.612-.743c3.4,2.127,2.055,3.949,2.572,7.559,2.1,14.632,5.151,18.553,5.3,11.56.017-.766,2.069-1.556,2.1-4.789.037-4.192-.25-9.254-1.438-12.122-1-2.418-2.571-4.01-5.281-5.679-4.278-2.635-9.8-2.212-13.506-1.5s-10.546,5.653-9.639,12.032" transform="translate(-80.944 -16.516)" fill="#263238"/>
        <path id="Trazado_622308" data-name="Trazado 622308" d="M516.869,127.666a2.227,2.227,0,0,1,2.206-2.35c1.537.01,3.31.726,3.489,3.885.315,5.6-5.376,4.764-5.395,4.6-.012-.109-.189-3.793-.3-6.139" transform="translate(-86.427 -20.954)" fill="#ae7461"/>
        <path id="Trazado_622309" data-name="Trazado 622309" d="M518.551,131.993c.023-.019.1.063.271.129a.975.975,0,0,0,.73-.026,2.417,2.417,0,0,0,1-2.23,3.241,3.241,0,0,0-.352-1.382,1.13,1.13,0,0,0-.776-.708.5.5,0,0,0-.561.3c-.066.162-.024.271-.053.282s-.126-.087-.093-.321a.622.622,0,0,1,.2-.364.739.739,0,0,1,.531-.173,1.374,1.374,0,0,1,1.068.812,3.311,3.311,0,0,1,.426,1.542,2.536,2.536,0,0,1-1.287,2.5,1.049,1.049,0,0,1-.9-.1c-.182-.129-.218-.252-.2-.264" transform="translate(-86.707 -21.319)" fill="#6f4439"/>
        <path id="Trazado_622310" data-name="Trazado 622310" d="M510.961,112.059a5.329,5.329,0,0,1-2.27,1.3,1.831,1.831,0,0,1-2.135-1.1c-.1-.383-.046-.843-.328-1.121-.336-.331-.889-.17-1.353-.078-1.61.316-3.667-1.311-4.22-2.855a1.464,1.464,0,0,1-1.914.576,5.249,5.249,0,0,1-1.452-1.078,2.307,2.307,0,0,0-2-.789,5.514,5.514,0,0,1-1.192.375c-.74,0-1.173-.828-1.349-1.546s-.337-1.561-.994-1.9a2.934,2.934,0,0,0-2,.122c-.666.159-1.553.077-1.784-.568a1.332,1.332,0,0,1,.16-1.035,3.634,3.634,0,0,1,4.151-1.748,4.924,4.924,0,0,1,8.928-1.747,5,5,0,0,1,8.118,1.111,3.623,3.623,0,0,1,4.533,4.889,3.439,3.439,0,0,1,2.126,2.562,1.969,1.969,0,0,1-2.044,2.2,2.006,2.006,0,0,1-3.28,2.3" transform="translate(-81.585 -16.164)" fill="#263238"/>
        <path id="Trazado_622311" data-name="Trazado 622311" d="M492.828,103.419c-.005,0,0,.035.01.1s.027.167.062.295a3.516,3.516,0,0,0,.5,1.041,4.015,4.015,0,0,0,1.356,1.212,3.741,3.741,0,0,0,2.347.451L497,106.4a2.035,2.035,0,0,0,.249,1.533,5.807,5.807,0,0,0,1.078,1.29,4.192,4.192,0,0,0,.682.585,1.961,1.961,0,0,0,.914.251,2.05,2.05,0,0,0,1.742-.8l-.214-.042a4.207,4.207,0,0,0,2.034,2.743,3.076,3.076,0,0,0,1.888.439,5.526,5.526,0,0,0,1.774-.557l-.156-.052a4.422,4.422,0,0,0,1.476,1.608,2.353,2.353,0,0,0,1.994.358,3.091,3.091,0,0,0,2.157-2.618l-.122.07a2.894,2.894,0,0,0,1.945.112,3.139,3.139,0,0,0,1.286-.715,2.707,2.707,0,0,0,.564-.739,1.29,1.29,0,0,0,.117-.3,3.352,3.352,0,0,1-.743.969,3.116,3.116,0,0,1-1.259.655,2.766,2.766,0,0,1-1.838-.137l-.11-.05-.012.121a2.915,2.915,0,0,1-2.045,2.43,2.137,2.137,0,0,1-1.811-.346,4.208,4.208,0,0,1-1.387-1.527l-.053-.1-.1.047a5.337,5.337,0,0,1-1.7.53,2.831,2.831,0,0,1-1.745-.41,3.98,3.98,0,0,1-1.922-2.584l-.058-.261-.157.221a1.82,1.82,0,0,1-1.538.709,1.74,1.74,0,0,1-.809-.215,4.039,4.039,0,0,1-.643-.55,5.654,5.654,0,0,1-1.052-1.232,1.844,1.844,0,0,1-.245-1.386l.034-.137-.14.022a3.6,3.6,0,0,1-2.245-.4,4,4,0,0,1-1.342-1.142,4.36,4.36,0,0,1-.658-1.377" transform="translate(-82.407 -17.293)" fill="#455a64"/>
        <path id="Trazado_622312" data-name="Trazado 622312" d="M496.661,137.792c.013-.211,1.413-.046,2.551-1.123s1.163-2.587,1.36-2.575c.09-.009.232.365.173,1a3.513,3.513,0,0,1-1.056,2.159,3.056,3.056,0,0,1-2.128.853c-.592-.017-.92-.215-.9-.31" transform="translate(-83.048 -22.422)" fill="#263238"/>
        <path id="Trazado_622313" data-name="Trazado 622313" d="M394.744,338.35l-2.582,17.928s-20.089,3.1-20.907,6.365l36.489,6.813,5.232-27.75Z" transform="translate(-62.078 -56.576)" fill="#263238"/>
        <path id="Trazado_622314" data-name="Trazado 622314" d="M409.832,360.581a1.436,1.436,0,0,1,.735,1.8,1.457,1.457,0,0,1-1.855.669,1.513,1.513,0,0,1-.769-1.914,1.531,1.531,0,0,1,2.016-.489" transform="translate(-68.192 -60.27)" fill="#e0e0e0"/>
        <path id="Trazado_622315" data-name="Trazado 622315" d="M407.743,374.036l.411-2.82-35.138-5.478s-1.747.366-1.762,1.484Z" transform="translate(-62.078 -61.156)" fill="#455a64"/>
        <path id="Trazado_622316" data-name="Trazado 622316" d="M395.688,359.517c-.025.17.852.413,1.629,1.119.8.687,1.115,1.5,1.291,1.467.171,0,.089-1.061-.868-1.9s-2.063-.848-2.052-.685" transform="translate(-66.164 -60.102)" fill="#fff"/>
        <path id="Trazado_622317" data-name="Trazado 622317" d="M390.762,360.467c-.071.156.649.587,1.123,1.414.5.814.51,1.614.69,1.64.162.058.467-.908-.143-1.925s-1.636-1.289-1.67-1.128" transform="translate(-65.339 -60.267)" fill="#fff"/>
        <path id="Trazado_622318" data-name="Trazado 622318" d="M387.018,364.562c.155.066.557-.73.269-1.741s-1.054-1.533-1.155-1.407c-.127.12.324.717.547,1.549.244.827.165,1.548.339,1.6" transform="translate(-64.562 -60.43)" fill="#fff"/>
        <path id="Trazado_622319" data-name="Trazado 622319" d="M396.968,354.646c.047.168.907.087,1.9.341,1,.234,1.725.7,1.845.573.126-.1-.525-.87-1.7-1.153s-2.108.09-2.044.239" transform="translate(-66.378 -59.243)" fill="#fff"/>
        <path id="Trazado_622320" data-name="Trazado 622320" d="M490.628,163.1l.749-3.392,19.929-9.9,1.738,2.712s7.458,6.069,10.314,11.337-.531,48.4-1.009,54.7c-.959,12.685-5.7,29.287-5.7,29.287s-6.395-4.451-25.209-12.176-19.823-11.222-19.823-11.222l11.087-14.06Z" transform="translate(-78.861 -25.05)" fill="#ffb338"/>
        <path id="Trazado_622321" data-name="Trazado 622321" d="M492.975,167.194c-.112.625-9.119,22.257-9.119,22.257s4.68,2.612,5.333,2.742,3.786-25,3.786-25" transform="translate(-80.907 -27.957)" fill="#ffb338"/>
        <path id="Trazado_622322" data-name="Trazado 622322" d="M492.933,171.453c.089.014-.71,5.511-1.785,12.275s-2.018,12.24-2.107,12.226.71-5.51,1.785-12.277,2.018-12.239,2.107-12.224" transform="translate(-81.773 -28.669)" fill="#263238"/>
        <path id="Trazado_622323" data-name="Trazado 622323" d="M417.8,221.117s5.368-7.921,8.568-9.311a39.555,39.555,0,0,1,7.2-2.144l13.5,1.805-.24,8.061a6.068,6.068,0,0,1-4.819,1.285c-2.694-.566-9.368-2.719-9.368-2.719l-3.365-.05-3.366,3.747s-2.562.587-1.513-1.725,1.516-3.33,1.516-3.33-3.29,4.411-4.443,4.544a23.167,23.167,0,0,1-3.67-.162" transform="translate(-69.861 -35.058)" fill="#ae7461"/>
        <path id="Trazado_622324" data-name="Trazado 622324" d="M494.141,185.322l-9.358,21.748-32.042.312-.24,8.061s30.9,10.895,39.125,8.778S513.5,193.01,513.5,193.01Z" transform="translate(-75.664 -30.988)" fill="#ae7461"/>
        <path id="Trazado_622325" data-name="Trazado 622325" d="M508.732,162.715c-.875.794-3.77,4.195-6.861,11.587s-7.427,16.033-7.427,16.033l22.091,8.806s5.036-11.587,7.373-16.741c1.779-3.925,3.026-11.645,1.4-15.382s-8.886-11.279-16.579-4.3" transform="translate(-82.677 -26.731)" fill="#ffb338"/>
        <path id="Trazado_622326" data-name="Trazado 622326" d="M508.691,162.7s.065-.07.2-.194.338-.315.624-.537a10.989,10.989,0,0,1,2.723-1.61,8.3,8.3,0,0,1,4.956-.367,11.834,11.834,0,0,1,5.66,3.384,13.52,13.52,0,0,1,2.307,3.115,10.128,10.128,0,0,1,.962,4.089,29.208,29.208,0,0,1-1.15,9.16,33.792,33.792,0,0,1-1.827,4.661l-2.094,4.766-4.41,10.023-.064.144-.146-.058-.321-.127-21.763-8.693-.149-.059.072-.143c2.064-4.135,3.891-7.987,5.456-11.44s2.767-6.557,4.073-8.984a37.059,37.059,0,0,1,3.369-5.437,16.19,16.19,0,0,1,1.093-1.3,4.249,4.249,0,0,1,.428-.4.689.689,0,0,1-.1.111l-.295.319c-.252.287-.615.725-1.053,1.319a39.1,39.1,0,0,0-3.287,5.462c-1.277,2.427-2.443,5.543-4.007,9s-3.361,7.325-5.416,11.472l-.077-.2,21.776,8.663.321.127-.21.087,4.418-10.023,2.1-4.764a33.768,33.768,0,0,0,1.823-4.617,29.108,29.108,0,0,0,1.168-9.062,9.908,9.908,0,0,0-.916-3.99,13.335,13.335,0,0,0-2.249-3.07,11.7,11.7,0,0,0-5.537-3.368,8.219,8.219,0,0,0-4.868.309,11.409,11.409,0,0,0-2.729,1.543c-.291.213-.495.4-.642.51s-.224.169-.224.169" transform="translate(-82.637 -26.716)" fill="#263238"/>
        <path id="Trazado_622327" data-name="Trazado 622327" d="M433.571,214.528a8.069,8.069,0,0,0-6.138,3.1,2.376,2.376,0,0,1,.55-.918,6.373,6.373,0,0,1,4.522-2.285,2.38,2.38,0,0,1,1.066.1" transform="translate(-71.471 -35.854)" fill="#6f4439"/>
        <path id="Trazado_622328" data-name="Trazado 622328" d="M489.8,197.566a.873.873,0,0,1-.071.225c-.066.168-.148.377-.248.635-.241.584-.57,1.383-.979,2.38-.875,2.069-2.094,4.955-3.538,8.37l-.037.087h-.1l-9.732.112-15.776.106-4.782,0-1.3-.018a2.3,2.3,0,0,1-.453-.028,2.3,2.3,0,0,1,.452-.037l1.3-.043,4.78-.1,15.775-.2,9.732-.078-.132.089,3.646-8.324,1.054-2.348.291-.617a.87.87,0,0,1,.114-.206" transform="translate(-75.712 -33.035)" fill="#6f4439"/>
      </g>
    </g>
    <rect id="Rectángulo_327349" data-name="Rectángulo 327349" width="9.026" height="120.68" transform="translate(22.551 193.506)" fill="#455a64"/>
    <rect id="Rectángulo_327350" data-name="Rectángulo 327350" width="9.027" height="119.843" transform="translate(393.062 194.357)" fill="#455a64"/>
    <rect id="Rectángulo_327351" data-name="Rectángulo 327351" width="411.031" height="7.282" transform="translate(0 192.316)" fill="#455a64"/>
    <g id="Grupo_877201" data-name="Grupo 877201">
      <g id="Grupo_877200" data-name="Grupo 877200" clip-path="url(#clip-path-2)">
        <path id="Trazado_622329" data-name="Trazado 622329" d="M445.791,239.644c0,.09-47.964.163-107.118.163-59.174,0-107.128-.073-107.128-.163s47.954-.163,107.128-.163c59.154,0,107.118.073,107.118.163" transform="translate(-38.717 -40.044)" fill="#263238"/>
      </g>
    </g>
    <g id="Grupo_877203" data-name="Grupo 877203">
      <g id="Grupo_877202" data-name="Grupo 877202" clip-path="url(#clip-path-2)">
        <path id="Trazado_622330" data-name="Trazado 622330" d="M383.377,179.776h0a1.362,1.362,0,0,1,1.591,1.085l7.6,40.275h36.957a1,1,0,1,1,0,2h-39.2v-.161l-.179.033-7.858-41.644a1.361,1.361,0,0,1,1.085-1.591" transform="translate(-63.92 -30.057)" fill="#263238"/>
      </g>
    </g>
    <g id="Grupo_877208" data-name="Grupo 877208">
      <g id="Grupo_877207" data-name="Grupo 877207" clip-path="url(#clip-path-2)">
        <path id="Trazado_622331" data-name="Trazado 622331" d="M48.5,65.088A20.064,20.064,0,0,1,63.288,56c3.511-.371,5.031.23,7.624.687a11.141,11.141,0,0,1,6.7,3.622,18.69,18.69,0,0,1,4.4,8.17,26.838,26.838,0,0,1,.29,8.9,35.367,35.367,0,0,1-3.818,10.89L73.144,89.41c-4.47.552-9,1.1-13.463.471s-8.913-2.606-11.594-6.226c-3.723-5.028-3.109-13.392.408-18.568" transform="translate(-7.619 -9.345)" fill="#263238"/>
        <path id="Trazado_622332" data-name="Trazado 622332" d="M57.23,65.04l10.44-5.267,2.857.077C76.891,59.3,81.9,65.931,82.4,71.08c.557,5.721,1.011,12.727.477,17.028-1.073,8.648-8.251,10-8.251,10s1.2,10.086,1.512,12.93l-17.329-5.3L54.627,68.2a3.027,3.027,0,0,1,2.6-3.16" transform="translate(-9.134 -9.995)" fill="#ffc09d"/>
        <path id="Trazado_622333" data-name="Trazado 622333" d="M73.062,92.427a1.809,1.809,0,0,1,.525-1.17,1.854,1.854,0,0,1,2.229-.327,2.484,2.484,0,0,1,1.145,2.238,2.255,2.255,0,0,1-1.526,1.076,2.8,2.8,0,0,1-.3.037,2.025,2.025,0,0,1-1.408-.417,1.8,1.8,0,0,1-.664-1.436" transform="translate(-12.217 -15.166)" fill="#ff9b6c"/>
        <path id="Trazado_622334" data-name="Trazado 622334" d="M85.551,82.434a1.1,1.1,0,0,1-1.026,1.149,1.056,1.056,0,0,1-1.171-.956,1.1,1.1,0,0,1,1.024-1.149,1.055,1.055,0,0,1,1.173.956" transform="translate(-13.937 -13.623)" fill="#263238"/>
        <path id="Trazado_622335" data-name="Trazado 622335" d="M85.085,76.776c-.132.148-.989-.441-2.176-.4-1.186.027-2.036.667-2.17.526-.065-.062.066-.326.436-.616a3.034,3.034,0,0,1,1.731-.6,2.907,2.907,0,0,1,1.737.5c.375.267.507.524.442.59" transform="translate(-13.498 -12.656)" fill="#263238"/>
        <path id="Trazado_622336" data-name="Trazado 622336" d="M77.659,86.949a7.845,7.845,0,0,1,1.916-.413c.3-.042.586-.112.631-.321a1.546,1.546,0,0,0-.233-.891q-.466-1.087-.975-2.279a39.848,39.848,0,0,1-2.219-5.968,39.632,39.632,0,0,1,2.694,5.775q.491,1.2.939,2.293a1.755,1.755,0,0,1,.2,1.184.761.761,0,0,1-.483.461,2.07,2.07,0,0,1-.513.089,7.709,7.709,0,0,1-1.954.069" transform="translate(-12.836 -12.888)" fill="#263238"/>
        <path id="Trazado_622337" data-name="Trazado 622337" d="M76.33,105.253a21.894,21.894,0,0,1-11.624-2.68s3.272,5.857,11.853,4.759Z" transform="translate(-10.82 -17.151)" fill="#ff9b6c"/>
        <path id="Trazado_622338" data-name="Trazado 622338" d="M85.088,72.436c-.19.3-1.105.134-2.164.258-1.063.091-1.93.434-2.171.182-.109-.124,0-.411.356-.715a3.375,3.375,0,0,1,3.494-.355c.41.227.568.486.486.63" transform="translate(-13.496 -11.952)" fill="#263238"/>
        <path id="Trazado_622339" data-name="Trazado 622339" d="M71.361,83.48A1.1,1.1,0,0,0,72.5,84.515a1.056,1.056,0,0,0,1.064-1.073,1.1,1.1,0,0,0-1.14-1.035,1.056,1.056,0,0,0-1.065,1.074" transform="translate(-11.932 -13.779)" fill="#263238"/>
        <path id="Trazado_622340" data-name="Trazado 622340" d="M66.712,77.892c.147.133.937-.543,2.122-.625,1.182-.1,2.1.449,2.214.295.058-.069-.1-.318-.5-.566a3.029,3.029,0,0,0-1.785-.414,2.918,2.918,0,0,0-1.676.677c-.344.306-.449.574-.377.634" transform="translate(-11.151 -12.804)" fill="#263238"/>
        <path id="Trazado_622341" data-name="Trazado 622341" d="M68.585,72.857c.248.257,1.148-.073,2.248-.147,1.1-.107,2.042.07,2.24-.223.087-.142-.075-.4-.5-.636a3.592,3.592,0,0,0-3.617.3c-.373.3-.486.583-.376.709" transform="translate(-11.462 -11.955)" fill="#263238"/>
        <path id="Trazado_622342" data-name="Trazado 622342" d="M56.714,86.556c-.023-.64-.815-2.125-1.452-2.2-1.7-.206-4.738.033-4.62,4.325.162,5.866,6.017,4.494,6.023,4.326,0-.132.13-4.236.049-6.447" transform="translate(-8.467 -14.096)" fill="#ffc09d"/>
        <path id="Trazado_622343" data-name="Trazado 622343" d="M55.323,91.305c-.026-.018-.1.074-.271.158a1.021,1.021,0,0,1-.764.037,2.526,2.526,0,0,1-1.232-2.236,3.376,3.376,0,0,1,.245-1.472,1.184,1.184,0,0,1,.748-.805.521.521,0,0,1,.61.263c.083.162.049.281.081.29s.123-.1.069-.342a.65.65,0,0,0-.242-.362A.77.77,0,0,0,54,86.7a1.439,1.439,0,0,0-1.043.939,3.473,3.473,0,0,0-.309,1.645,2.654,2.654,0,0,0,1.561,2.493,1.1,1.1,0,0,0,.93-.182c.177-.149.2-.281.184-.291" transform="translate(-8.802 -14.496)" fill="#ff9b6c"/>
        <path id="Trazado_622344" data-name="Trazado 622344" d="M55.078,80.1l1.62,1.4c9.337-6.142,18.832-22.859,16.379-22.176a18.71,18.71,0,0,0-9.233-.177c-4.687,1.235-13.5,4.422-12.863,10.023a29.394,29.394,0,0,0,4.1,10.925" transform="translate(-8.519 -9.806)" fill="#263238"/>
        <path id="Trazado_622345" data-name="Trazado 622345" d="M50.247,56.077c2.273,1.328,4.3,5.2,3.369,7.665a7.723,7.723,0,0,1-9.869,8.632,7.434,7.434,0,0,1-4.187-3.229,8.943,8.943,0,0,1-.914-6.206,9.888,9.888,0,0,1,4.109-6.493,7.3,7.3,0,0,1,7.493-.369" transform="translate(-6.431 -9.232)" fill="#263238"/>
        <path id="Trazado_622346" data-name="Trazado 622346" d="M51.995,80.249a5.605,5.605,0,0,0,1.068-.462c.674-.327,1.636-.825,2.8-1.491a42.323,42.323,0,0,0,8.413-6.22,28.128,28.128,0,0,0,6.086-8.5,20.2,20.2,0,0,0,1.087-2.988,5.139,5.139,0,0,0,.237-1.141c-.084-.025-.451,1.6-1.608,4a30.036,30.036,0,0,1-6.112,8.315A47.409,47.409,0,0,1,55.7,78.027c-1.136.7-2.073,1.235-2.719,1.608a6.1,6.1,0,0,0-.988.615" transform="translate(-8.694 -9.94)" fill="#455a64"/>
        <path id="Trazado_622347" data-name="Trazado 622347" d="M45.84,75.813c.081,0,.115-1.093.442-2.815a22.231,22.231,0,0,1,6.41-11.833c1.264-1.215,2.163-1.843,2.116-1.908a2.562,2.562,0,0,0-.67.385,14.479,14.479,0,0,0-1.661,1.292,20.2,20.2,0,0,0-6.506,12.01,14.354,14.354,0,0,0-.175,2.1,2.582,2.582,0,0,0,.042.771" transform="translate(-7.658 -9.908)" fill="#455a64"/>
        <path id="Trazado_622348" data-name="Trazado 622348" d="M53.33,95.035a2.2,2.2,0,1,0,2.2-2.2,2.2,2.2,0,0,0-2.2,2.2" transform="translate(-8.917 -15.524)" fill="#263238"/>
        <path id="Trazado_622349" data-name="Trazado 622349" d="M77.324,93.2c-.024-.207-1.4.032-2.576-.97s-1.287-2.489-1.481-2.466c-.089,0-.209.373-.117.993a3.468,3.468,0,0,0,1.158,2.072,3.021,3.021,0,0,0,2.144.725c.583-.048.9-.261.871-.354" transform="translate(-12.226 -15.01)" fill="#263238"/>
        <path id="Trazado_622350" data-name="Trazado 622350" d="M39.8,182.852s-6.551,23.112-2.659,35.66c2.334,7.528,35.1,48.994,36.677,50.778,1.1,1.242-14.009,40.413-16.772,48.574l17.37,8.419s21.737-46.218,23.065-54.319c1.706-10.4-22.745-54.9-21.847-55.5l8.789-18.332-7.294-18.88s-30.743.333-37.021.835Z" transform="translate(-6.005 -29.974)" fill="#263238"/>
        <path id="Trazado_622351" data-name="Trazado 622351" d="M83.807,199.94s42.377,15.035,47.155,17.58c5.21,2.774,9.143,12.506,4.8,20.779s-42.441,31.96-42.441,31.96l-9.514-14.477,27.571-21.717-29.846-7.031-9.72-11.519Z" transform="translate(-12.008 -33.432)" fill="#263238"/>
        <path id="Trazado_622352" data-name="Trazado 622352" d="M105.425,276.131a15.483,15.483,0,0,0-.021-2.946,33.165,33.165,0,0,0-2.144-7.743c-.6-1.592-1.328-3.314-2.09-5.172-.387-.924-.754-1.906-1.136-2.9s-.824-2-1.268-3.032c-1.806-4.131-3.865-8.646-6.029-13.382L83.42,220.708l-.026-.056.014-.058c1.1-4.566,2.073-8.3,2.81-10.885.371-1.291.685-2.293.929-2.966a6.776,6.776,0,0,1,.318-.752,1.055,1.055,0,0,1,.153-.234,1.24,1.24,0,0,1-.106.257c-.075.164-.153.427-.267.763-.212.68-.494,1.688-.836,2.985-.678,2.595-1.6,6.342-2.662,10.913l-.012-.114c2.638,5.593,5.909,12.6,9.4,20.216,2.164,4.738,4.211,9.257,6,13.4.44,1.042.88,2.048,1.258,3.058s.73,1.969,1.112,2.9c.747,1.86,1.457,3.593,2.044,5.2a31.548,31.548,0,0,1,2.026,7.834,8.663,8.663,0,0,1-.147,2.962" transform="translate(-13.945 -34.405)" fill="#455a64"/>
        <g id="Grupo_877206" data-name="Grupo 877206" transform="translate(69.633 175.21)" opacity="0.3">
          <g id="Grupo_877205" data-name="Grupo 877205">
            <g id="Grupo_877204" data-name="Grupo 877204" clip-path="url(#clip-path-15)">
              <path id="Trazado_622353" data-name="Trazado 622353" d="M86.382,210.39c-.083.3,0,11.134,0,11.134l5.437,9.216-4.342-1.023-3.863-8.043Z" transform="translate(-83.614 -210.39)"/>
            </g>
          </g>
        </g>
        <path id="Trazado_622354" data-name="Trazado 622354" d="M114.246,206.382c-1.223-1.2-4.81-4.569-7.331-6.929a1.472,1.472,0,0,1,.979-2.546l29.021-.593a1.473,1.473,0,0,1,1.13.493l6.066,6.814a1.473,1.473,0,0,1-1.062,2.452l-27.736.727a1.465,1.465,0,0,1-1.067-.418" transform="translate(-17.799 -32.826)" fill="#455a64"/>
        <path id="Trazado_622355" data-name="Trazado 622355" d="M101.111,199.552a25.471,25.471,0,0,1,6.745-1.832c3.373-.336,5.059,1.084,6.866.916s6.745.314,6.745,1.639-6.865,1.806-6.865,1.806l6.022,1.927s6.865-.843,6.985,0-6.143,1.686-9.033,2.048-19.632.6-22.041,0S77.022,195.1,77.022,195.1l8.19-8.431Z" transform="translate(-12.879 -31.213)" fill="#ffc09d"/>
        <path id="Trazado_622356" data-name="Trazado 622356" d="M53.051,111.61a14.069,14.069,0,0,0-10.571,9.781c-2.24,7.131,2.033,36.438,3.849,41.728S67.7,185.44,69.421,183.993s11.249-9.879,11.249-9.879L65.37,156.03s.81-21.472-.2-25.523-7.862-19.3-12.116-18.9" transform="translate(-6.997 -18.661)" fill="#2b95f9"/>
        <path id="Trazado_622357" data-name="Trazado 622357" d="M43.028,146.2c1.119,10.178-1.066,14.554-1.066,14.554a7.9,7.9,0,0,0-2.848,5.215,1.487,1.487,0,0,0,1.532,1.656l37.02-.835s5.181.494,5.071-4.418c-.123-5.483,1.387-24.748-.6-32.321-.686-2.613-9.141-15.357-9.141-15.357L55.346,104.682l-1.868,4.81s-5.6,2.044-8.156,5.34a18.526,18.526,0,0,0-3.542,7.194c-1.531,5.274.648,18.711,1.248,24.17" transform="translate(-6.539 -17.504)" fill="#2b95f9"/>
        <path id="Trazado_622358" data-name="Trazado 622358" d="M150.716,134.112s-.323-.29-1.446.072-4.314,1.929-5.761,2.3-4.585,1.581-4.585,1.581a6.336,6.336,0,0,0-3.966,1.332c-2.219,1.534-8.481,5.67-8.481,5.67l2.151,6.09a12.731,12.731,0,0,1,3.107-.2,9.6,9.6,0,0,0,4.437-.182c1.7-.511,4.007-1.432,4.007-1.432s2.244.184,2.833-.63-.044-2.285-.044-2.285,2.2-2.02,1.256-3.156-2.124-2.393-2.124-2.393,6.532-3.463,7.767-4.38,1.478-1.652.849-2.388" transform="translate(-21.149 -22.407)" fill="#ffc09d"/>
        <path id="Trazado_622359" data-name="Trazado 622359" d="M120.749,147.293l-20.318,6.838-8.21,4.148,11.524,6.213L122.9,153.383Z" transform="translate(-15.421 -24.629)" fill="#ffc09d"/>
        <path id="Trazado_622360" data-name="Trazado 622360" d="M141.09,141.264a10.106,10.106,0,0,1-.25,5.236c-.032.11-.063.219-.092.321l-.17-.276c1.347.242,2.547.48,3.412.674.888.177,1.356.551,1.312.6a11.8,11.8,0,0,0-1.367-.3c-.874-.117-2.085-.3-3.433-.54l-.237-.042.067-.234c.028-.1.059-.2.089-.312a26.6,26.6,0,0,0,.668-5.12" transform="translate(-23.454 -23.621)" fill="#ff9b6c"/>
        <path id="Trazado_622361" data-name="Trazado 622361" d="M141.138,144.731c.015-.036.182-.018.419.137a1.642,1.642,0,0,1,.662.946l-.218-.151a7.26,7.26,0,0,1,1.15-.113,4.457,4.457,0,0,1,2.591.531c-.033.122-1.171-.13-2.582-.1-.4.008-.774.033-1.1.066l-.185.018-.034-.17c-.155-.787-.757-1.093-.7-1.167" transform="translate(-23.599 -24.198)" fill="#ff9b6c"/>
        <path id="Trazado_622362" data-name="Trazado 622362" d="M144.434,142.859c.07.1-.477.567-.969,1.272s-.757,1.367-.879,1.337-.03-.81.525-1.587,1.268-1.121,1.323-1.021" transform="translate(-23.835 -23.885)" fill="#ff9b6c"/>
        <path id="Trazado_622363" data-name="Trazado 622363" d="M79.336,111.332l2.04,5.481c2.221,2.106,7.752,8.024,8.8,12.1,1.374,5.327,7.564,18.716,7.564,18.716s14.039-5.985,15.008-5,5.887,12.519,4.269,14.941-15.955,8.768-21.754,7.341-11.3-9.822-11.3-9.822Z" transform="translate(-13.266 -18.616)" fill="#2b95f9"/>
        <path id="Trazado_622364" data-name="Trazado 622364" d="M90.4,132.5a7.766,7.766,0,0,1,.459,1.25,11.663,11.663,0,0,1,.422,1.5,20.556,20.556,0,0,1,.416,2.03,37.7,37.7,0,0,1,.483,5.369c.033,2.029-.037,4.258-.182,6.59-.32,4.66-.65,8.866-.613,11.917-.016.764.029,1.452.046,2.057s.048,1.127.086,1.551a7.937,7.937,0,0,1,.055,1.329,7.742,7.742,0,0,1-.223-1.312c-.063-.424-.127-.945-.16-1.553s-.107-1.3-.11-2.066c-.117-3.069.167-7.3.486-11.951.146-2.325.227-4.541.216-6.556a41.467,41.467,0,0,0-.386-5.329c-.431-3.016-1.088-4.8-.994-4.832" transform="translate(-15.115 -22.156)" fill="#263238"/>
        <path id="Trazado_622365" data-name="Trazado 622365" d="M101.15,162.81a19.253,19.253,0,0,1-.158-4.072,19.272,19.272,0,0,1,.276-4.066,19.391,19.391,0,0,1,.158,4.072,19.268,19.268,0,0,1-.276,4.066" transform="translate(-16.886 -25.863)" fill="#263238"/>
        <path id="Trazado_622366" data-name="Trazado 622366" d="M69.686,131.36a2.108,2.108,0,0,1,.032.492c0,.369.009.835.016,1.408.017,1.282.041,3.036.07,5.179.052,4.37.28,10.42.1,17.095a9.614,9.614,0,0,0,.854,4.639,20.823,20.823,0,0,0,2.752,3.534l5.062,5.782,3.384,3.923c.367.44.667.8.9,1.081a2.024,2.024,0,0,1,.292.4,2.2,2.2,0,0,1-.358-.339l-.965-1.028-3.488-3.832-5.132-5.721a20.721,20.721,0,0,1-2.826-3.6,9.955,9.955,0,0,1-.913-4.84c.18-6.673,0-12.712.027-17.09,0-2.189.027-3.96.068-5.183.018-.612.044-1.087.066-1.409a2.109,2.109,0,0,1,.055-.49" transform="translate(-11.616 -21.965)" fill="#263238"/>
        <path id="Trazado_622367" data-name="Trazado 622367" d="M52.308,111.612c.018.049-.839.291-2.236,1.046a15.443,15.443,0,0,0-5,4.385,14.788,14.788,0,0,0-2.14,4.066,13.858,13.858,0,0,0-.614,2.486c-.122.869-.192,1.792-.253,2.726a47.424,47.424,0,0,0,.01,5.887c.136,2.035.418,4.147.634,6.311.458,4.328.894,8.449,1.29,12.2a62.022,62.022,0,0,0,1.467,9.872,17.113,17.113,0,0,0,2.876,6.014,13.655,13.655,0,0,0,1.209,1.368,4.14,4.14,0,0,1,.451.456c0,.006-.051-.025-.137-.09s-.215-.162-.372-.3a11.144,11.144,0,0,1-1.282-1.327,16.642,16.642,0,0,1-3.038-6.035,59.474,59.474,0,0,1-1.57-9.913c-.407-3.754-.854-7.874-1.324-12.2-.216-2.166-.494-4.269-.626-6.331a46.844,46.844,0,0,1,.015-5.939c.067-.947.143-1.86.276-2.758a14.069,14.069,0,0,1,.65-2.547,14.939,14.939,0,0,1,2.234-4.131,15.1,15.1,0,0,1,5.164-4.35,11.262,11.262,0,0,1,1.7-.719,3.577,3.577,0,0,1,.617-.178" transform="translate(-6.95 -18.663)" fill="#263238"/>
        <path id="Trazado_622368" data-name="Trazado 622368" d="M75.776,116.848a4.414,4.414,0,0,1-.857-.511L72.661,114.8l.24-.12c-.01,1.153-.022,2.5-.037,3.988l0,.316-.286-.143L67.9,116.493c-3.189-1.617-6.064-3.1-8.136-4.2l-2.443-1.316a4.643,4.643,0,0,1-.869-.535,4.6,4.6,0,0,1,.946.385l2.505,1.193c2.107,1.024,5,2.467,8.193,4.085l4.66,2.384-.288.172c.048-1.484.092-2.834.13-3.986l.01-.295.231.174,2.178,1.645a4.447,4.447,0,0,1,.759.647" transform="translate(-9.439 -18.467)" fill="#263238"/>
        <path id="Trazado_622369" data-name="Trazado 622369" d="M82.588,339.145l-6.846,14.333s13.141,12.045,12.15,14.822l-29.93-12.8,9.7-22.788Z" transform="translate(-9.692 -55.634)" fill="#263238"/>
        <path id="Trazado_622370" data-name="Trazado 622370" d="M68.548,351.421a1.259,1.259,0,0,0-1.414.957,1.277,1.277,0,0,0,1.028,1.391,1.326,1.326,0,0,0,1.492-1.021,1.342,1.342,0,0,0-1.233-1.338" transform="translate(-11.223 -58.76)" fill="#e0e0e0"/>
        <path id="Trazado_622371" data-name="Trazado 622371" d="M57.962,359.626l1.073-2.257,28.3,13.113s1.1,1.118.562,1.94Z" transform="translate(-9.692 -59.757)" fill="#455a64"/>
        <path id="Trazado_622372" data-name="Trazado 622372" d="M79.286,357.617c-.064.136-.823-.114-1.733.022-.916.114-1.545.554-1.656.441-.123-.084.451-.817,1.558-.964s1.917.386,1.83.5" transform="translate(-12.688 -59.71)" fill="#fff"/>
        <path id="Trazado_622373" data-name="Trazado 622373" d="M82.531,360.762c-.024.148-.759.112-1.507.485-.761.35-1.159.929-1.3.859-.147-.037.1-.889,1.043-1.334s1.821-.143,1.767-.01" transform="translate(-13.324 -60.286)" fill="#fff"/>
        <path id="Trazado_622374" data-name="Trazado 622374" d="M83.391,365.6c-.146-.027-.051-.8.651-1.4s1.516-.605,1.527-.464c.034.149-.585.365-1.153.863s-.874,1.049-1.025,1" transform="translate(-13.934 -60.808)" fill="#fff"/>
      </g>
    </g>
  </g>
</svg>
