<svg xmlns="http://www.w3.org/2000/svg" xmlns:xlink="http://www.w3.org/1999/xlink" width="610" height="304.493" viewBox="0 0 610 304.493">
  <defs>
    <clipPath id="clip-path">
      <rect id="Rectángulo_327983" data-name="Rectángulo 327983" width="486.368" height="304.493" fill="none"/>
    </clipPath>
    <clipPath id="clip-path-5">
      <rect id="Rectángulo_327967" data-name="Rectángulo 327967" width="103.268" height="40.906" fill="none"/>
    </clipPath>
    <clipPath id="clip-path-6">
      <rect id="Rectángulo_327968" data-name="Rectángulo 327968" width="103.268" height="41.534" fill="none"/>
    </clipPath>
    <clipPath id="clip-path-12">
      <rect id="Rectángulo_327977" data-name="Rectángulo 327977" width="7.188" height="25.015" fill="none"/>
    </clipPath>
    <clipPath id="clip-path-13">
      <rect id="Rectángulo_327978" data-name="Rectángulo 327978" width="29.646" height="20.166" fill="none"/>
    </clipPath>
    <clipPath id="clip-path-14">
      <rect id="Rectángulo_327979" data-name="Rectángulo 327979" width="4.07" height="23.619" fill="none"/>
    </clipPath>
    <clipPath id="clip-path-15">
      <rect id="Rectángulo_327980" data-name="Rectángulo 327980" width="2.403" height="2.365" fill="none"/>
    </clipPath>
    <clipPath id="clip-path-16">
      <rect id="Rectángulo_327981" data-name="Rectángulo 327981" width="29.415" height="11.065" fill="none"/>
    </clipPath>
  </defs>
  <g id="Grupo_878898" data-name="Grupo 878898" transform="translate(-810 -12918.76)">
    <g id="Grupo_878081" data-name="Grupo 878081" transform="translate(848.632 12918.76)">
      <g id="Grupo_878080" data-name="Grupo 878080" clip-path="url(#clip-path)">
        <g id="Grupo_878044" data-name="Grupo 878044">
          <g id="Grupo_878043" data-name="Grupo 878043" clip-path="url(#clip-path)">
            <path id="Trazado_626237" data-name="Trazado 626237" d="M213.656,390.133a40.109,40.109,0,0,0-19.546-20.076c-8.644-4.049-27.935-2.168-27.935-2.168l-50.692-.1c1.037,4.453,4.34,15.885,6.808,19.734a19.12,19.12,0,0,0,10.511,8.336c5.382,1.523,11.084-.054,16.666-.414,9.825-.633,19.438,2.538,28.9,5.265s19.495,5.051,29.063,2.733c2.717-.658,5.562-1.87,6.882-4.334,1.466-2.739.588-6.125-.655-8.973" transform="translate(-31.395 -99.896)" fill="#e0e0e0"/>
            <path id="Trazado_626238" data-name="Trazado 626238" d="M28.22,151.785s-5.766-.415-5.235,12.52a149.786,149.786,0,0,0,1.851,19.824s-.17,2.868-2.391,2.305-6.4-3.355-8.463-1.268c-2.14,2.163-1.379,5.482,1.46,9.392s8.744,12.7,9.275,13.5.73,2.25-.844,2.109-12.2-3.743-13.61,1.4,8.291,14.736,9.331,15.8,1.1,1.744.674,2.391-3.88-.9-6.945-1.8-6.776-1.408-7.34,1.629,3.708,11.923,19.706,21.262l7.7,3.842,7.284-4.646c14.982-10.894,18.344-20.163,17.48-23.128s-4.506-2.089-7.466-.886-6.245,3.088-6.73,2.487-.5-1.278.432-2.446,9.619-11.68,7.7-16.659-12.129-.331-13.682-.033-1.491-1.183-1.051-2.014c.449-.846,5.445-10.186,7.878-14.36s2.859-7.552.513-9.491c-2.262-1.87-6.14,1.325-8.294,2.108s-2.609-2.055-2.609-2.055a149.8,149.8,0,0,0-.142-19.91c-.765-12.923-6.6-11.88-6.6-11.88" transform="translate(-1.614 -41.259)" fill="#ebebeb"/>
            <path id="Trazado_626239" data-name="Trazado 626239" d="M37.165,167.7s.015.091.031.27.036.455.062.794c.048.712.118,1.739.207,3.055.177,2.653.4,6.494.666,11.24.528,9.493,1.145,22.612,1.777,37.1s1.217,27.617,1.691,37.112c.241,4.737.436,8.575.572,11.243.066,1.317.117,2.345.151,3.057.014.339.025.6.032.8s0,.272,0,.272-.016-.091-.031-.269-.035-.455-.061-.794c-.048-.711-.118-1.738-.208-3.054-.176-2.653-.4-6.493-.666-11.239-.527-9.493-1.144-22.614-1.777-37.11s-1.217-27.611-1.691-37.106c-.242-4.737-.437-8.575-.572-11.244-.066-1.317-.117-2.345-.152-3.057-.014-.34-.024-.6-.032-.8s0-.272,0-.272" transform="translate(-10.103 -45.592)" fill="#e0e0e0"/>
            <path id="Trazado_626240" data-name="Trazado 626240" d="M24.8,203.323a2.524,2.524,0,0,1,.479.4c.3.269.711.671,1.22,1.173,1.016,1.006,2.382,2.433,3.859,4.035l3.764,4.118,1.145,1.242a2.527,2.527,0,0,1,.4.476,2.556,2.556,0,0,1-.482-.395c-.295-.27-.711-.672-1.215-1.18-1.006-1.016-2.353-2.46-3.829-4.062l-3.792-4.09L25.194,203.8a2.532,2.532,0,0,1-.4-.479" transform="translate(-6.741 -55.275)" fill="#e0e0e0"/>
            <path id="Trazado_626241" data-name="Trazado 626241" d="M40.772,213.851c-.058-.058,2.757-3,6.285-6.582s6.438-6.433,6.5-6.376-2.756,3-6.287,6.582-6.437,6.432-6.5,6.376" transform="translate(-11.084 -54.614)" fill="#e0e0e0"/>
            <path id="Trazado_626242" data-name="Trazado 626242" d="M40.729,246.175a2.609,2.609,0,0,1,.537-.341l1.505-.845c1.27-.714,3.021-1.705,4.913-2.869s3.576-2.267,4.786-3.078l1.436-.957a2.646,2.646,0,0,1,.548-.324,2.613,2.613,0,0,1-.481.417c-.32.253-.791.609-1.383,1.035-1.183.856-2.85,2-4.752,3.158s-3.671,2.133-4.969,2.8c-.65.332-1.18.593-1.551.763a2.61,2.61,0,0,1-.589.24" transform="translate(-11.072 -64.637)" fill="#e0e0e0"/>
            <path id="Trazado_626243" data-name="Trazado 626243" d="M23.22,238.6a2.254,2.254,0,0,1,.532.25c.333.178.81.443,1.4.775,1.172.666,2.78,1.6,4.547,2.653s3.359,2.017,4.5,2.728c.572.356,1.033.648,1.348.856a2.271,2.271,0,0,1,.473.348,2.216,2.216,0,0,1-.532-.25c-.333-.177-.809-.442-1.4-.775-1.172-.666-2.78-1.6-4.547-2.654s-3.357-2.016-4.5-2.728c-.572-.356-1.033-.648-1.348-.856a2.272,2.272,0,0,1-.473-.348" transform="translate(-6.312 -64.865)" fill="#e0e0e0"/>
            <path id="Trazado_626244" data-name="Trazado 626244" d="M19.746,265.631a3.8,3.8,0,0,1,.677.328l1.791.987c1.506.845,3.576,2.032,5.853,3.356s4.332,2.539,5.811,3.431l1.744,1.068a3.823,3.823,0,0,1,.619.427,3.667,3.667,0,0,1-.676-.328c-.475-.261-1.075-.593-1.791-.987-1.506-.845-3.577-2.031-5.854-3.356s-4.331-2.539-5.81-3.431l-1.744-1.068a3.656,3.656,0,0,1-.62-.427" transform="translate(-5.368 -72.214)" fill="#e0e0e0"/>
            <path id="Trazado_626245" data-name="Trazado 626245" d="M41.947,274.183a4.246,4.246,0,0,1,.669-.449l1.871-1.139c1.579-.962,3.755-2.3,6.116-3.839s4.469-2.985,5.986-4.041l1.8-1.25a4.244,4.244,0,0,1,.68-.431,4.157,4.157,0,0,1-.612.524c-.406.321-1,.777-1.745,1.327-1.488,1.1-3.577,2.578-5.947,4.119s-4.564,2.854-6.172,3.771c-.8.457-1.461.819-1.919,1.059a4.2,4.2,0,0,1-.726.349" transform="translate(-11.404 -71.509)" fill="#e0e0e0"/>
            <path id="Trazado_626246" data-name="Trazado 626246" d="M49.883,296.586H28.592l6.949,52.6h7.393Z" transform="translate(-7.773 -80.63)" fill="#e0e0e0"/>
            <path id="Trazado_626247" data-name="Trazado 626247" d="M30.109,304.656c-.009.005.023.074.113.187a1.342,1.342,0,0,0,.515.368,2.577,2.577,0,0,0,2.248-.276c.86-.474,1.608-1.406,2.76-1.817a6.044,6.044,0,0,1,3.916.078,16.8,16.8,0,0,1,3.646,1.766,25.228,25.228,0,0,0,2.964,1.591,8.194,8.194,0,0,0,2.186.632,3.988,3.988,0,0,0,.619.042c.141,0,.215-.007.216-.018a11.094,11.094,0,0,1-2.92-.88,29.206,29.206,0,0,1-2.9-1.64,16.168,16.168,0,0,0-3.708-1.824,6.252,6.252,0,0,0-4.132-.045,5.456,5.456,0,0,0-1.555.962,12.132,12.132,0,0,1-1.219.944,2.5,2.5,0,0,1-2.074.36,2.117,2.117,0,0,1-.674-.428" transform="translate(-8.185 -82.234)" fill="#f5f5f5"/>
            <path id="Trazado_626248" data-name="Trazado 626248" d="M31.176,317.331c.028.017.168-.217.5-.564a4.727,4.727,0,0,1,1.7-1.078,7.6,7.6,0,0,1,2.961-.446,31.141,31.141,0,0,1,3.7.5,12.73,12.73,0,0,0,3.794.157,10.421,10.421,0,0,0,2.985-.852,9.477,9.477,0,0,0,1.795-1.067,2.587,2.587,0,0,0,.569-.512,19.094,19.094,0,0,1-2.463,1.354,10.912,10.912,0,0,1-2.923.759,13.069,13.069,0,0,1-3.7-.183,27.921,27.921,0,0,0-3.751-.481,7.5,7.5,0,0,0-3.062.538,4.465,4.465,0,0,0-1.709,1.215,3.138,3.138,0,0,0-.322.472c-.063.115-.09.178-.079.184" transform="translate(-8.475 -85.22)" fill="#f5f5f5"/>
            <path id="Trazado_626249" data-name="Trazado 626249" d="M48.624,325.347a1.786,1.786,0,0,0-.587-.305,6.285,6.285,0,0,0-1.764-.378,11.277,11.277,0,0,0-2.668.152c-.992.161-2.057.435-3.175.673a13.423,13.423,0,0,1-3.17.358,6.915,6.915,0,0,1-2.517-.545,5.8,5.8,0,0,1-1.909-1.421,1.624,1.624,0,0,0,.36.556,4.5,4.5,0,0,0,1.446,1.089,6.773,6.773,0,0,0,2.606.641,12.816,12.816,0,0,0,3.256-.338c1.13-.24,2.187-.522,3.158-.7a12.186,12.186,0,0,1,2.6-.223,9.748,9.748,0,0,1,2.365.438" transform="translate(-8.926 -88.05)" fill="#f5f5f5"/>
            <path id="Trazado_626250" data-name="Trazado 626250" d="M33.76,335.452a3.453,3.453,0,0,1,2.067-.208,9.966,9.966,0,0,1,2.163.806,8.2,8.2,0,0,0,2.807.773,8.416,8.416,0,0,0,5.093-1.18,7.227,7.227,0,0,0,1.268-.974c.259-.276.392-.435.375-.451a18.628,18.628,0,0,1-1.766,1.214,8.732,8.732,0,0,1-4.939,1.046c-2.015-.115-3.563-1.317-4.96-1.476a3.168,3.168,0,0,0-1.606.139,1.056,1.056,0,0,0-.5.312" transform="translate(-9.178 -90.859)" fill="#f5f5f5"/>
            <path id="Trazado_626251" data-name="Trazado 626251" d="M35.389,348.682a4.083,4.083,0,0,0,1.775-.352c1.07-.357,2.395-1.179,3.942-1.793a6.4,6.4,0,0,1,2.262-.473,4.166,4.166,0,0,1,1.82.415,4.035,4.035,0,0,1,1.315,1.134.968.968,0,0,0-.2-.449,2.926,2.926,0,0,0-1-.9,4.176,4.176,0,0,0-1.93-.518,6.343,6.343,0,0,0-2.39.47c-1.6.639-2.886,1.483-3.908,1.889-1.01.435-1.694.526-1.686.581" transform="translate(-9.621 -93.993)" fill="#f5f5f5"/>
            <path id="Trazado_626252" data-name="Trazado 626252" d="M36.822,356.226a4.949,4.949,0,0,0,1.348.438,24.784,24.784,0,0,0,6.786.667,4.979,4.979,0,0,0,1.407-.167c-.006-.1-2.157-.013-4.79-.278s-4.726-.762-4.752-.66" transform="translate(-10.01 -96.84)" fill="#f5f5f5"/>
            <rect id="Rectángulo_327961" data-name="Rectángulo 327961" width="66.417" height="44.767" transform="translate(358.846 141.851) rotate(-12.873)" fill="#f5f5f5"/>
            <path id="Trazado_626253" data-name="Trazado 626253" d="M558.022,175.146a4.578,4.578,0,0,1-.47.719l-1.442,1.991-5.4,7.264c-4.64,6.148-10.991,14.564-18.026,23.885l-.149.2-.223-.107-.538-.26L504.5,195.588l-8.237-4.076-2.226-1.136a4.746,4.746,0,0,1-.759-.433,4.78,4.78,0,0,1,.811.324l2.275,1.034,8.321,3.9,27.358,13.088.538.26-.371.089,18.169-23.777,5.548-7.148,1.531-1.924a4.641,4.641,0,0,1,.566-.646" transform="translate(-134.101 -47.615)" fill="#e0e0e0"/>
            <path id="Trazado_626254" data-name="Trazado 626254" d="M506.97,243.674c-.148-.076,3.354-7.171,7.82-15.845s8.21-15.647,8.358-15.571-3.353,7.169-7.821,15.847-8.209,15.646-8.357,15.569" transform="translate(-137.824 -57.705)" fill="#e0e0e0"/>
            <path id="Trazado_626255" data-name="Trazado 626255" d="M558.577,204.754c.1-.129,6.274,4.71,13.776,10.807s13.5,11.147,13.4,11.276-6.272-4.709-13.776-10.808-13.5-11.146-13.4-11.275" transform="translate(-151.854 -55.664)" fill="#e0e0e0"/>
            <rect id="Rectángulo_327962" data-name="Rectángulo 327962" width="26.395" height="39.159" transform="translate(129.239 34.136) rotate(-76.997)" fill="#f5f5f5"/>
            <path id="Trazado_626256" data-name="Trazado 626256" d="M223.873,20.835a2.684,2.684,0,0,1-.434.261l-1.278.685-4.731,2.465-15.709,8.032-.129.066-.091-.114-.218-.276L190.218,17.907,186.9,13.624l-.888-1.176a2.832,2.832,0,0,1-.291-.425,2.8,2.8,0,0,1,.347.38l.941,1.134,3.41,4.212,11.146,13.983.218.276-.219-.048,15.756-7.938,4.782-2.364,1.307-.627a2.746,2.746,0,0,1,.467-.2" transform="translate(-50.489 -3.269)" fill="#e0e0e0"/>
            <path id="Trazado_626257" data-name="Trazado 626257" d="M177.562,42.675c-.059-.079,3.625-2.941,8.226-6.393s8.382-6.188,8.441-6.11S190.6,33.113,186,36.566s-8.38,6.188-8.439,6.109" transform="translate(-48.272 -8.202)" fill="#e0e0e0"/>
            <path id="Trazado_626258" data-name="Trazado 626258" d="M217.97,33.754c.089-.042,2.116,4.113,4.527,9.278s4.294,9.387,4.205,9.429-2.115-4.112-4.527-9.279-4.294-9.386-4.2-9.428" transform="translate(-59.257 -9.176)" fill="#e0e0e0"/>
            <rect id="Rectángulo_327963" data-name="Rectángulo 327963" width="30.343" height="20.453" transform="translate(349.156 26.816) rotate(-23.255)" fill="#f5f5f5"/>
            <path id="Trazado_626259" data-name="Trazado 626259" d="M507.651,20.633a2.091,2.091,0,0,1-.152.362l-.483,1.014-1.828,3.708-6.134,12.218-.05.1-.109-.03-.263-.073-13.351-3.706-4.038-1.154-1.094-.327a2.118,2.118,0,0,1-.376-.133,2.228,2.228,0,0,1,.391.079l1.107.277,4.061,1.07L498.7,37.668l.263.072-.159.071c2.422-4.754,4.609-9.046,6.207-12.181l1.9-3.669.53-.99a2.1,2.1,0,0,1,.2-.337" transform="translate(-130.431 -5.609)" fill="#e0e0e0"/>
            <path id="Trazado_626260" data-name="Trazado 626260" d="M490.862,57.125c-.073-.022.917-3.5,2.21-7.765s2.4-7.707,2.474-7.685-.917,3.5-2.21,7.765-2.4,7.707-2.474,7.685" transform="translate(-133.445 -11.33)" fill="#e0e0e0"/>
            <path id="Trazado_626261" data-name="Trazado 626261" d="M509.884,35.882c.036-.067,3.207,1.6,7.08,3.722s6.985,3.9,6.949,3.965-3.207-1.6-7.081-3.723-6.984-3.9-6.948-3.964" transform="translate(-138.617 -9.754)" fill="#e0e0e0"/>
          </g>
        </g>
        <g id="Grupo_878046" data-name="Grupo 878046">
          <g id="Grupo_878045" data-name="Grupo 878045" clip-path="url(#clip-path)">
            <path id="Trazado_626262" data-name="Trazado 626262" d="M562.892,280.148a23.058,23.058,0,0,0-9.864-3.4,6.574,6.574,0,0,0-4.666.858.959.959,0,0,0-.481.852,1.04,1.04,0,0,0,.456.583,14.1,14.1,0,0,0,14.555,1.1" transform="translate(-148.945 -75.218)" fill="#617a0b"/>
            <path id="Trazado_626263" data-name="Trazado 626263" d="M564.239,275.285a48.048,48.048,0,0,1-6.371-5.606,16.113,16.113,0,0,1-3.995-7.387,2.98,2.98,0,0,1,.316-2.472c5.078,3.966,9.068,9.1,10.05,15.465" transform="translate(-150.544 -70.635)" fill="#617a0b"/>
            <path id="Trazado_626264" data-name="Trazado 626264" d="M568.307,275.69a23.046,23.046,0,0,1,.118-8.365,11.313,11.313,0,0,1,4.455-6.9c.878,2.051.5,4.415-.117,6.558a31.887,31.887,0,0,1-4.418,9.3" transform="translate(-154.412 -70.798)" fill="#617a0b"/>
            <path id="Trazado_626265" data-name="Trazado 626265" d="M570.622,293.642a14.572,14.572,0,0,0-7.91,4,14.963,14.963,0,0,0-4.525,7.768c2.964-.183,5.479-2.274,7.3-4.618s3.088-4.916,5.091-7.108" transform="translate(-151.749 -79.83)" fill="#617a0b"/>
            <path id="Trazado_626266" data-name="Trazado 626266" d="M576.242,288.71a19.51,19.51,0,0,1,2.253-18.455,23.491,23.491,0,0,1-2.253,18.455" transform="translate(-156.287 -73.472)" fill="#617a0b"/>
            <path id="Trazado_626267" data-name="Trazado 626267" d="M580.671,306.348a14.108,14.108,0,0,0-13.49,7.766c-.168.334-.315.759-.091,1.057a1,1,0,0,0,.895.264c2.658-.173,5.015-1.772,6.959-3.593s3.638-3.925,5.787-5.5" transform="translate(-154.138 -83.277)" fill="#617a0b"/>
            <path id="Trazado_626268" data-name="Trazado 626268" d="M585.074,298.793a25.122,25.122,0,0,1-.25-14.035c.494-1.807,1.325-3.708,2.995-4.555a.587.587,0,0,1,.458-.081.6.6,0,0,1,.29.336,8.457,8.457,0,0,1,.706,4.027,25.24,25.24,0,0,1-.631,4.076c-.526,2.491-.806,5.168-2.172,7.317a14.8,14.8,0,0,0-.869,1.607c-.258.546-.261.738-.5,1.172" transform="translate(-158.751 -76.148)" fill="#617a0b"/>
            <path id="Trazado_626269" data-name="Trazado 626269" d="M609.228,303.562a18.094,18.094,0,0,1,3.172-14.879c.227-.3.529-.614.9-.58.569.053.717.812.692,1.383a26.886,26.886,0,0,1-4.765,14.075" transform="translate(-165.493 -78.323)" fill="#617a0b"/>
            <path id="Trazado_626270" data-name="Trazado 626270" d="M611.566,308.888a21.643,21.643,0,0,0,17.76-3.612,14.38,14.38,0,0,0-9.614-1.18,13.716,13.716,0,0,0-8.146,4.792" transform="translate(-166.26 -82.576)" fill="#617a0b"/>
            <path id="Trazado_626271" data-name="Trazado 626271" d="M613.384,302.842a20.525,20.525,0,0,1,16.118-9.32,9.925,9.925,0,0,1-5.272,5.829,29.27,29.27,0,0,1-7.737,2.263c-1.03.2-2.441.419-3.109,1.228" transform="translate(-166.755 -79.797)" fill="#617a0b"/>
            <path id="Trazado_626272" data-name="Trazado 626272" d="M609,277.537a46.819,46.819,0,0,0,2.061-9.44,15.72,15.72,0,0,0-1.88-9.338,20.554,20.554,0,0,0-.275,19.1" transform="translate(-164.933 -70.347)" fill="#617a0b"/>
            <path id="Trazado_626273" data-name="Trazado 626273" d="M624.286,272.53c3.647-6.629,11.089-11.924,18.619-12.666-2.9,7.232-10.826,12.821-18.619,12.666" transform="translate(-169.718 -70.647)" fill="#617a0b"/>
            <path id="Trazado_626274" data-name="Trazado 626274" d="M621.135,278.637c5.44.829,10.074,4.3,15.158,6.409a6.8,6.8,0,0,0,3.427.656,2.683,2.683,0,0,0,1.679-4.745,7.318,7.318,0,0,0-2.489-1.509,27.66,27.66,0,0,0-17.306-.965" transform="translate(-168.862 -75.455)" fill="#617a0b"/>
            <path id="Trazado_626275" data-name="Trazado 626275" d="M616.812,284.185c1.231.352,1.652.99,2.627,1.821a28.355,28.355,0,0,0,11.494,5.9c.439.109,1.015.153,1.233-.244.19-.347-.051-.766-.3-1.075a15.821,15.821,0,0,0-6.94-4.711c-2.653-.988-4.951-2.179-8.117-1.923" transform="translate(-167.687 -77.187)" fill="#617a0b"/>
            <path id="Trazado_626276" data-name="Trazado 626276" d="M611.934,252.417a21.752,21.752,0,0,0,16.677,5.674,1.138,1.138,0,0,0,.759-.272c.419-.457-.084-1.161-.573-1.543a19.212,19.212,0,0,0-16.863-3.858" transform="translate(-166.36 -68.462)" fill="#617a0b"/>
            <path id="Trazado_626277" data-name="Trazado 626277" d="M617.718,248.829a23.247,23.247,0,0,1,20.809-3.433,16.517,16.517,0,0,1-9.916,4.353,31.374,31.374,0,0,1-10.894-.92" transform="translate(-167.933 -66.416)" fill="#617a0b"/>
            <path id="Trazado_626278" data-name="Trazado 626278" d="M614.369,230.484c-.481-4.894-.169-8.757-.509-13.674-.027-.393-.111-.866-.479-1.007-.511-.2-.938.432-1.106.954a15.675,15.675,0,0,0,2.087,13.619" transform="translate(-166.258 -58.658)" fill="#617a0b"/>
            <path id="Trazado_626279" data-name="Trazado 626279" d="M614.935,230.977a28.767,28.767,0,0,0,8.106-7.879c1.6-2.191,2.951-4.815,2.588-7.5a7.757,7.757,0,0,0-5.848,2.9,16.3,16.3,0,0,0-2.981,6c-.65,2.153-1.1,4.366-1.866,6.482" transform="translate(-167.176 -58.611)" fill="#617a0b"/>
            <path id="Trazado_626280" data-name="Trazado 626280" d="M625.835,229.106a65.367,65.367,0,0,0,19.95-11.764c-2.383-.96-5.112-.385-7.494.576a23.631,23.631,0,0,0-12.56,11.135" transform="translate(-170.111 -58.952)" fill="#617a0b"/>
            <path id="Trazado_626281" data-name="Trazado 626281" d="M618.011,238.244a40.555,40.555,0,0,0,11.078.054,46.974,46.974,0,0,0,10.342-3.436,1.214,1.214,0,0,0,.7-.534.807.807,0,0,0-.252-.885,2.142,2.142,0,0,0-.882-.414,19.157,19.157,0,0,0-11.176.668,51.863,51.863,0,0,0-9.812,4.546" transform="translate(-168.013 -63.2)" fill="#617a0b"/>
            <path id="Trazado_626282" data-name="Trazado 626282" d="M588.441,246.812a19.594,19.594,0,0,1-.179-16.218c1.528,2.328,1.715,5.293,1.435,8.063s-1.123,5.623-1.177,8.406" transform="translate(-159.472 -62.689)" fill="#617a0b"/>
            <path id="Trazado_626283" data-name="Trazado 626283" d="M569.068,245.913a22.619,22.619,0,0,0-16.808,7.161,15.71,15.71,0,0,0,9.2-1.707,46.774,46.774,0,0,0,7.887-5.279" transform="translate(-150.137 -66.853)" fill="#617a0b"/>
            <path id="Trazado_626284" data-name="Trazado 626284" d="M560.172,242.7c-3.069-.249-6.022-.629-8.973.275a10.765,10.765,0,0,0-6.839,5.8,16.21,16.21,0,0,0,8.412-1.588,48.442,48.442,0,0,0,7.4-4.486" transform="translate(-147.99 -65.901)" fill="#617a0b"/>
            <path id="Trazado_626285" data-name="Trazado 626285" d="M573.081,241.2c-2.761-1.809-5.6-3.651-8.81-4.4s-6.94-.2-9.182,2.227c2.6,1.528,5.76,1.707,8.777,1.705s6.716-.036,9.561.97" transform="translate(-150.907 -64.291)" fill="#617a0b"/>
            <path id="Trazado_626286" data-name="Trazado 626286" d="M577.821,235.952c-4.72-4.635-6.51-12.961-4.611-19.3a29.4,29.4,0,0,1,4.611,19.3" transform="translate(-155.63 -58.9)" fill="#617a0b"/>
            <path id="Trazado_626287" data-name="Trazado 626287" d="M597.646,219.435c.89-2.069,1.516-4.241,2.315-6.348a18.237,18.237,0,0,1,3.3-5.852,8.693,8.693,0,0,1,5.846-3.03,23.541,23.541,0,0,1-11.345,15.263" transform="translate(-162.476 -55.515)" fill="#617a0b"/>
            <path id="Trazado_626288" data-name="Trazado 626288" d="M589.861,225.773c-1.473-2.028-3.175-4.78-5.173-6.293a8.653,8.653,0,0,0-7.037-1.848,16.389,16.389,0,0,0,12.209,8.141" transform="translate(-157.041 -59.118)" fill="#617a0b"/>
            <path id="Trazado_626289" data-name="Trazado 626289" d="M594.133,219.675a35.008,35.008,0,0,1-2.329-7.541,11.765,11.765,0,0,1,1.18-7.667c2.591,4.9,3.426,10.155,1.28,15.263" transform="translate(-160.842 -55.586)" fill="#617a0b"/>
            <path id="Trazado_626290" data-name="Trazado 626290" d="M597.679,200.591c1.468-4.855,5.913-8.43,10.713-10.07a4,4,0,0,1,1.878-.282,1.631,1.631,0,0,1,1.385,1.156c.175.826-.508,1.566-1.149,2.115a36.474,36.474,0,0,1-12.827,7.082" transform="translate(-162.485 -51.711)" fill="#617a0b"/>
            <path id="Trazado_626291" data-name="Trazado 626291" d="M597.722,192.921a34.746,34.746,0,0,1,1.4-9.272,11.72,11.72,0,0,1,5.835-7.047c.486,3.162-.909,6.307-2.591,9.028s-3.711,5.288-4.721,8.323" transform="translate(-162.476 -48.011)" fill="#617a0b"/>
            <path id="Trazado_626292" data-name="Trazado 626292" d="M594.247,195.618c-1.213-3.538-1.338-8.033-3.457-11.115-1.481-2.155-3.853-3.623-5.129-5.905a8.983,8.983,0,0,0,.3,6.7,19.4,19.4,0,0,0,3.92,5.612c1.568,1.674,2.91,2.934,4.368,4.705" transform="translate(-159.077 -48.554)" fill="#617a0b"/>
            <path id="Trazado_626293" data-name="Trazado 626293" d="M597.611,305.715c-.094,0-.176-23.6-.183-52.715s.065-52.72.159-52.72.176,23.6.183,52.72-.065,52.715-.159,52.715" transform="translate(-162.417 -54.448)" fill="#617a0b"/>
            <path id="Trazado_626294" data-name="Trazado 626294" d="M618.295,247.974a5.146,5.146,0,0,1-.888.333l-2.442.824c-2.06.7-4.889,1.718-7.959,2.976-3.04,1.3-5.907,2.363-7.54,3.778a5.547,5.547,0,0,0-1.515,2c-.234.554-.277.893-.307.888-.012,0-.008-.087.009-.248a3.783,3.783,0,0,1,.173-.688A5.334,5.334,0,0,1,599.3,255.7a13.286,13.286,0,0,1,3.272-2.032c1.309-.61,2.76-1.248,4.3-1.88,3.079-1.263,5.931-2.246,8.013-2.89,1.041-.325,1.89-.564,2.479-.722a5.016,5.016,0,0,1,.926-.206" transform="translate(-162.473 -67.413)" fill="#617a0b"/>
            <path id="Trazado_626295" data-name="Trazado 626295" d="M625.662,225.167a1.471,1.471,0,0,1-.248.266l-.758.711-2.827,2.569-9.411,8.379c-3.674,3.27-6.849,6.4-9.049,8.748-1.1,1.174-1.969,2.148-2.561,2.827l-.684.781a1.429,1.429,0,0,1-.255.258,1.453,1.453,0,0,1,.2-.3c.143-.189.351-.473.636-.823.561-.707,1.4-1.707,2.485-2.906a119.322,119.322,0,0,1,9-8.838c3.686-3.263,7.041-6.194,9.479-8.307l2.9-2.487.8-.663a1.47,1.47,0,0,1,.294-.214" transform="translate(-163.08 -61.214)" fill="#617a0b"/>
            <path id="Trazado_626296" data-name="Trazado 626296" d="M611.653,243.061c-.1-.043.671-1.815,1.436-4.056s1.135-4.132,1.233-4.116a13.838,13.838,0,0,1-.909,4.225,27.518,27.518,0,0,1-1.143,2.837,4.423,4.423,0,0,1-.616,1.11" transform="translate(-166.282 -63.857)" fill="#263238"/>
            <path id="Trazado_626297" data-name="Trazado 626297" d="M592.6,259.3a4.219,4.219,0,0,1-.567-.658l-1.45-1.86c-1.219-1.574-2.9-3.748-4.79-6.127s-3.623-4.513-4.881-6.057l-1.482-1.835a4.119,4.119,0,0,1-.511-.7,4.32,4.32,0,0,1,.612.615c.378.41.913,1.013,1.566,1.766,1.306,1.505,3.072,3.617,4.963,6s3.546,4.581,4.716,6.2c.585.806,1.051,1.464,1.364,1.925a4.251,4.251,0,0,1,.459.736" transform="translate(-157.385 -65.807)" fill="#263238"/>
            <path id="Trazado_626298" data-name="Trazado 626298" d="M590.621,255.095a8.3,8.3,0,0,1-1.895-3.548,10.119,10.119,0,0,1-.43-3.576l.151.012c-.068.273-.117.417-.144.413s-.028-.157-.006-.438l.151.012a16.315,16.315,0,0,0,.605,3.479,26.454,26.454,0,0,0,1.568,3.644" transform="translate(-159.928 -67.41)" fill="#263238"/>
            <path id="Trazado_626299" data-name="Trazado 626299" d="M579.663,247.13a6.114,6.114,0,0,0-1.323-.768,8.848,8.848,0,0,0-3.673-.293,22.742,22.742,0,0,0-3.7.6,11.149,11.149,0,0,1-1.522.366,5.307,5.307,0,0,1,1.457-.6,16.91,16.91,0,0,1,3.738-.7,8,8,0,0,1,3.789.409,2.345,2.345,0,0,1,1.233.992" transform="translate(-154.81 -66.79)" fill="#263238"/>
            <path id="Trazado_626300" data-name="Trazado 626300" d="M576.217,244.417c-.026.053-.77-.309-2.026-.738a20.406,20.406,0,0,0-10.214-.778c-1.306.234-2.1.478-2.115.422a1.918,1.918,0,0,1,.537-.229,12.675,12.675,0,0,1,1.531-.43,18.033,18.033,0,0,1,10.343.789,12.653,12.653,0,0,1,1.448.657,1.909,1.909,0,0,1,.5.308" transform="translate(-152.748 -65.858)" fill="#263238"/>
            <path id="Trazado_626301" data-name="Trazado 626301" d="M596.662,231.024a42.04,42.04,0,0,1-1.478-5.134,41.993,41.993,0,0,1-1.148-5.219,42.036,42.036,0,0,1,1.478,5.135,41.929,41.929,0,0,1,1.148,5.218" transform="translate(-161.492 -59.992)" fill="#263238"/>
            <path id="Trazado_626302" data-name="Trazado 626302" d="M596.263,232.81a24.773,24.773,0,0,0-1.638-3.073,13.547,13.547,0,0,0-2.411-2.489,2.251,2.251,0,0,1,.931.48,7.5,7.5,0,0,1,1.759,1.812,6.82,6.82,0,0,1,1.359,3.27" transform="translate(-160.999 -61.778)" fill="#263238"/>
            <path id="Trazado_626303" data-name="Trazado 626303" d="M589.605,314.937c-.036.006-.106-.567-.372-1.57a22.355,22.355,0,0,0-1.577-4.086,56.6,56.6,0,0,0-8.369-11.791c-1.868-2.135-3.681-4.148-5.22-6.077a42.675,42.675,0,0,1-3.732-5.383,25.839,25.839,0,0,1-1.884-3.995c-.173-.492-.3-.877-.37-1.142a1.923,1.923,0,0,1-.1-.408c.031-.01.2.54.591,1.5a29.136,29.136,0,0,0,1.968,3.921,45.212,45.212,0,0,0,3.769,5.308c1.545,1.908,3.36,3.911,5.232,6.049a53.6,53.6,0,0,1,8.329,11.91,20.394,20.394,0,0,1,1.489,4.159,11.64,11.64,0,0,1,.209,1.184,1.955,1.955,0,0,1,.034.418" transform="translate(-154.411 -76.253)" fill="#263238"/>
            <path id="Trazado_626304" data-name="Trazado 626304" d="M616.318,298.885a8.5,8.5,0,0,1-.977.548,21.534,21.534,0,0,0-2.534,1.675,29.126,29.126,0,0,0-3.328,3.036c-1.168,1.233-2.371,2.666-3.6,4.2-2.455,3.08-4.751,5.806-6.126,7.982-.7,1.079-1.206,1.989-1.538,2.628a8.387,8.387,0,0,1-.538.983.929.929,0,0,1,.09-.277c.073-.176.172-.44.328-.765a24.9,24.9,0,0,1,1.453-2.7,87.859,87.859,0,0,1,6.064-8.066c1.231-1.539,2.448-2.974,3.638-4.206a27.036,27.036,0,0,1,3.41-3.011,17.776,17.776,0,0,1,2.617-1.6c.323-.163.588-.262.762-.338a.938.938,0,0,1,.276-.093" transform="translate(-162.484 -81.254)" fill="#263238"/>
            <path id="Trazado_626305" data-name="Trazado 626305" d="M618.969,308.257a14.239,14.239,0,0,1-2.065.3,27.312,27.312,0,0,0-4.9.964,14.718,14.718,0,0,0-4.385,2.3c-1.011.781-1.487,1.427-1.534,1.389a1.6,1.6,0,0,1,.306-.475,7.8,7.8,0,0,1,1.076-1.1A13.27,13.27,0,0,1,611.9,309.2a22.12,22.12,0,0,1,4.978-.88,11.383,11.383,0,0,1,2.089-.06" transform="translate(-164.771 -83.796)" fill="#263238"/>
            <path id="Trazado_626306" data-name="Trazado 626306" d="M606.914,311.428c-.108-.061.822-1.483,1.544-3.394.678-1.93.836-3.621.958-3.6a3.259,3.259,0,0,1-.034,1.107,11.888,11.888,0,0,1-.6,2.61,12.632,12.632,0,0,1-1.2,2.394,3.369,3.369,0,0,1-.667.884" transform="translate(-164.993 -82.763)" fill="#263238"/>
            <path id="Trazado_626307" data-name="Trazado 626307" d="M622.357,273.7a1.551,1.551,0,0,1-.331.175l-.97.441c-.425.182-.941.414-1.522.72s-1.264.611-1.973,1.036l-1.127.641c-.39.224-.777.491-1.188.749-.831.5-1.662,1.124-2.551,1.758a43.774,43.774,0,0,0-9.821,10.163c-.6.909-1.195,1.761-1.67,2.609-.243.419-.5.815-.708,1.213l-.6,1.148c-.4.723-.688,1.414-.968,2.007s-.5,1.115-.668,1.545l-.408.985a1.585,1.585,0,0,1-.164.336,1.545,1.545,0,0,1,.1-.36c.092-.267.207-.6.349-1.009.149-.44.345-.973.617-1.574s.538-1.306.928-2.04l.585-1.165c.207-.4.456-.8.7-1.231.467-.859,1.054-1.724,1.654-2.644a42.159,42.159,0,0,1,9.893-10.238c.9-.631,1.744-1.247,2.586-1.744.417-.254.81-.517,1.206-.737l1.145-.625c.72-.415,1.412-.711,2.006-1s1.118-.505,1.552-.67l1-.383a1.531,1.531,0,0,1,.356-.111" transform="translate(-162.487 -74.408)" fill="#263238"/>
            <path id="Trazado_626308" data-name="Trazado 626308" d="M611.307,286.357a2.372,2.372,0,0,1,.811-1.208,5.121,5.121,0,0,1,3.269-1.254,8.923,8.923,0,0,1,3.439.672,4.91,4.91,0,0,1,1.3.631,7.948,7.948,0,0,1-1.38-.4,10.415,10.415,0,0,0-3.349-.559,5.327,5.327,0,0,0-3.122,1.1,9.707,9.707,0,0,0-.968,1.025" transform="translate(-166.189 -77.179)" fill="#263238"/>
            <path id="Trazado_626309" data-name="Trazado 626309" d="M608.277,288.1a8.728,8.728,0,0,0,.72-6.171,2,2,0,0,1,.383.879,6.238,6.238,0,0,1-.528,4.525c-.288.522-.542.792-.575.767" transform="translate(-165.364 -76.644)" fill="#263238"/>
            <path id="Trazado_626310" data-name="Trazado 626310" d="M575.289,332.445c.509,9.021,3.227,18.195,7.408,27.47h18.182c3.988-9.183,6.518-18.343,6.968-27.47Z" transform="translate(-156.398 -90.379)" fill="#455a64"/>
            <path id="Trazado_626311" data-name="Trazado 626311" d="M605.972,352.428c0,.094-5.987.17-13.369.17s-13.371-.076-13.371-.17,5.985-.17,13.371-.17,13.369.076,13.369.17" transform="translate(-157.47 -95.765)" fill="#fafafa"/>
            <path id="Trazado_626312" data-name="Trazado 626312" d="M606.039,356.916c0,.095-5.612.17-12.534.17s-12.534-.076-12.534-.17,5.61-.17,12.534-.17,12.534.076,12.534.17" transform="translate(-157.943 -96.985)" fill="#fafafa"/>
          </g>
        </g>
        <g id="Grupo_878054" data-name="Grupo 878054">
          <g id="Grupo_878053" data-name="Grupo 878053" clip-path="url(#clip-path)">
            <path id="Trazado_626313" data-name="Trazado 626313" d="M404.247,295.138H145.479a10.607,10.607,0,0,1-10.607-10.607V120.6a10.607,10.607,0,0,1,10.607-10.607H404.247A10.607,10.607,0,0,1,414.853,120.6V284.531a10.607,10.607,0,0,1-10.607,10.607" transform="translate(-36.666 -29.902)" fill="#455a64"/>
            <path id="Trazado_626314" data-name="Trazado 626314" d="M410.224,364.044H132.8a12.959,12.959,0,0,1-12.959-12.959v-3.241H423.183v3.241a12.96,12.96,0,0,1-12.959,12.959" transform="translate(-32.581 -94.565)" fill="#455a64"/>
            <rect id="Rectángulo_327966" data-name="Rectángulo 327966" width="264.168" height="156.356" transform="translate(105.721 87.444)" fill="#263238"/>
            <path id="Trazado_626315" data-name="Trazado 626315" d="M289.225,345.459l3.764,5.988h52.967l3.5-5.988Z" transform="translate(-78.629 -93.917)" fill="#263238"/>
            <path id="Trazado_626316" data-name="Trazado 626316" d="M404.112,277.924H155.049a2.384,2.384,0,0,1-2.383-2.383v-145.8a2.383,2.383,0,0,1,2.383-2.383H404.112a2.384,2.384,0,0,1,2.383,2.383v145.8a2.383,2.383,0,0,1-2.383,2.382" transform="translate(-41.504 -34.624)" fill="#ebebeb"/>
            <path id="Trazado_626317" data-name="Trazado 626317" d="M406.122,282.345H152.292l.272-139.531H406.122Z" transform="translate(-41.402 -38.825)" fill="#fafafa"/>
            <path id="Trazado_626318" data-name="Trazado 626318" d="M179.743,134.589a2.027,2.027,0,1,1-2.027-2.026,2.027,2.027,0,0,1,2.027,2.026" transform="translate(-47.763 -36.039)" fill="#263238"/>
            <path id="Trazado_626319" data-name="Trazado 626319" d="M162.869,134.589a2.027,2.027,0,1,1-2.027-2.026,2.027,2.027,0,0,1,2.027,2.026" transform="translate(-43.175 -36.039)" fill="#263238"/>
            <path id="Trazado_626320" data-name="Trazado 626320" d="M170.968,134.589a2.027,2.027,0,1,1-2.027-2.026,2.027,2.027,0,0,1,2.027,2.026" transform="translate(-45.377 -36.039)" fill="#263238"/>
            <path id="Trazado_626321" data-name="Trazado 626321" d="M412.448,345.391c0,.1-62.142.181-138.781.181-76.666,0-138.794-.081-138.794-.181s62.129-.181,138.794-.181c76.639,0,138.781.082,138.781.181" transform="translate(-36.666 -93.849)" fill="#263238"/>
            <path id="Trazado_626322" data-name="Trazado 626322" d="M264.055,217.31l103.268-.965,3.025,70.2-106.934-.769Z" transform="translate(-71.611 -58.816)" fill="#ffb338"/>
            <path id="Trazado_626323" data-name="Trazado 626323" d="M264.294,202.4l48.793-39.649a5.613,5.613,0,0,1,7.089.008l47.386,38.677" transform="translate(-71.851 -43.903)" fill="#ffb338"/>
            <g id="Grupo_878049" data-name="Grupo 878049" transform="translate(192.645 117.589)" opacity="0.3">
              <g id="Grupo_878048" data-name="Grupo 878048">
                <g id="Grupo_878047" data-name="Grupo 878047" clip-path="url(#clip-path-5)">
                  <path id="Trazado_626324" data-name="Trazado 626324" d="M264.294,202.4l48.793-39.649a5.613,5.613,0,0,1,7.089.008l47.386,38.677" transform="translate(-264.294 -161.492)"/>
                </g>
              </g>
            </g>
            <path id="Trazado_626325" data-name="Trazado 626325" d="M263.412,296.785c-.129-.121,8.12-9.164,18.421-20.2S300.6,256.7,300.725,256.825s-8.117,9.162-18.423,20.2-18.76,19.881-18.889,19.761" transform="translate(-71.611 -69.82)" fill="#263238"/>
            <path id="Trazado_626326" data-name="Trazado 626326" d="M396.992,297.881c-.132.117-8.2-8.71-18.022-19.714s-17.678-20.025-17.546-20.142,8.2,8.708,18.024,19.716,17.676,20.023,17.545,20.14" transform="translate(-98.256 -70.146)" fill="#263238"/>
            <g id="Grupo_878052" data-name="Grupo 878052" transform="translate(192.443 157.53)" opacity="0.5">
              <g id="Grupo_878051" data-name="Grupo 878051">
                <g id="Grupo_878050" data-name="Grupo 878050" clip-path="url(#clip-path-6)">
                  <path id="Trazado_626327" data-name="Trazado 626327" d="M367.562,216.345l-51.771,41.534-51.5-40.569" transform="translate(-264.294 -216.346)"/>
                </g>
              </g>
            </g>
            <path id="Trazado_626328" data-name="Trazado 626328" d="M271.362,210.413l-.228-32.253,90.423-1.257,1.09,33.934-45,35.778Z" transform="translate(-73.711 -48.093)" fill="#fafafa"/>
            <path id="Trazado_626329" data-name="Trazado 626329" d="M271.316,210.341s.3.216.858.644l2.465,1.9L284,220.154l33.7,26.265H317.5l44.982-35.8-.07.153c-.209-6.474-.428-13.265-.65-20.177-.149-4.652-.3-9.25-.441-13.757l.191.182L271.09,178.21l.12-.122c.046,10.14.083,18.193.108,23.722.006,2.759.01,4.886.013,6.334q0,1.073,0,1.638c0,.368-.012.56-.012.56s-.012-.181-.02-.545-.015-.915-.027-1.624c-.017-1.445-.042-3.566-.076-6.319-.053-5.538-.13-13.605-.227-23.764v-.121h.122l90.423-1.324.185,0,.006.186c.145,4.507.293,9.1.443,13.757.221,6.911.439,13.7.646,20.176l0,.095-.074.058L317.7,246.664l-.1.076-.1-.076-33.653-26.413-9.293-7.322-2.425-1.924c-.545-.435-.816-.665-.816-.665" transform="translate(-73.665 -48.021)" fill="#263238"/>
            <path id="Trazado_626330" data-name="Trazado 626330" d="M352.675,199.222c0,.1-13.827.3-30.883.441s-30.888.167-30.889.062,13.824-.3,30.885-.441,30.885-.167,30.886-.062" transform="translate(-79.085 -54.143)" fill="#263238"/>
            <path id="Trazado_626331" data-name="Trazado 626331" d="M352.7,211.734c0,.1-13.827.3-30.883.441s-30.888.167-30.889.062,13.824-.3,30.886-.441,30.885-.167,30.886-.062" transform="translate(-79.092 -57.545)" fill="#263238"/>
            <path id="Trazado_626332" data-name="Trazado 626332" d="M352.731,226.155c0,.1-13.827.3-30.883.441s-30.888.167-30.889.062,13.824-.3,30.885-.441,30.886-.167,30.886-.062" transform="translate(-79.1 -61.465)" fill="#263238"/>
            <path id="Trazado_626333" data-name="Trazado 626333" d="M353.821,240.575c0,.1-13.192.3-29.463.43s-29.469.155-29.469.051,13.19-.3,29.466-.43,29.466-.155,29.466-.05" transform="translate(-80.168 -65.385)" fill="#263238"/>
            <path id="Trazado_626334" data-name="Trazado 626334" d="M346.655,253.258a1.327,1.327,0,0,1-.362.042l-1.038.044-3.82.1-12.6.229c-4.924.092-9.382.122-12.608.118l-3.821-.025-1.039-.026A1.266,1.266,0,0,1,311,253.7a1.391,1.391,0,0,1,.362-.041l1.038-.044,3.82-.1,12.6-.229c4.921-.092,9.38-.121,12.606-.118l3.821.025,1.039.027a1.318,1.318,0,0,1,.363.035" transform="translate(-84.549 -68.827)" fill="#263238"/>
            <path id="Trazado_626335" data-name="Trazado 626335" d="M339.088,265.425a114.628,114.628,0,0,1-13.171.028,114.188,114.188,0,0,1,13.171-.028" transform="translate(-88.604 -72.11)" fill="#263238"/>
          </g>
        </g>
        <g id="Grupo_878056" data-name="Grupo 878056">
          <g id="Grupo_878055" data-name="Grupo 878055" clip-path="url(#clip-path)">
            <path id="Trazado_626336" data-name="Trazado 626336" d="M486.368,369.169c0,.1-108.886.19-243.173.19-134.333,0-243.2-.085-243.2-.19s108.863-.189,243.2-.189c134.286,0,243.173.084,243.173.189" transform="translate(0 -100.311)" fill="#263238"/>
          </g>
        </g>
        <g id="Grupo_878058" data-name="Grupo 878058">
          <g id="Grupo_878057" data-name="Grupo 878057" clip-path="url(#clip-path)">
            <path id="Trazado_626337" data-name="Trazado 626337" d="M360.627,176.512c.1.011.149.425.1.925s-.174.9-.278.888-.149-.424-.1-.925.174-.9.278-.888" transform="translate(-97.959 -47.986)" fill="#263238"/>
            <path id="Trazado_626338" data-name="Trazado 626338" d="M361.846,166.772a8.541,8.541,0,0,1-.54,3.539,8.541,8.541,0,0,1,.54-3.539" transform="translate(-98.209 -45.339)" fill="#263238"/>
            <path id="Trazado_626339" data-name="Trazado 626339" d="M363.729,157.139a8.531,8.531,0,0,1-.775,3.5,8.539,8.539,0,0,1,.775-3.5" transform="translate(-98.661 -42.72)" fill="#263238"/>
            <path id="Trazado_626340" data-name="Trazado 626340" d="M366.3,147.677a8.532,8.532,0,0,1-1.036,3.426,8.532,8.532,0,0,1,1.036-3.426" transform="translate(-99.292 -40.147)" fill="#263238"/>
            <path id="Trazado_626341" data-name="Trazado 626341" d="M369.627,138.464a8.526,8.526,0,0,1-1.323,3.327,8.556,8.556,0,0,1,1.323-3.327" transform="translate(-100.121 -37.642)" fill="#263238"/>
            <path id="Trazado_626342" data-name="Trazado 626342" d="M373.775,129.615a8.5,8.5,0,0,1-1.629,3.183,4.369,4.369,0,0,1,.646-1.678c.451-.882.891-1.556.983-1.506" transform="translate(-101.167 -35.236)" fill="#263238"/>
            <path id="Trazado_626343" data-name="Trazado 626343" d="M378.8,121.237a4.426,4.426,0,0,1-.839,1.591c-.526.834-1.026,1.465-1.116,1.411a4.4,4.4,0,0,1,.8-1.618c.551-.825,1.071-1.444,1.156-1.384" transform="translate(-102.444 -32.958)" fill="#263238"/>
            <path id="Trazado_626344" data-name="Trazado 626344" d="M384.728,113.5a4.418,4.418,0,0,1-1,1.5c-.63.758-1.207,1.32-1.29,1.255s.363-.735,1-1.5,1.212-1.325,1.29-1.255" transform="translate(-103.968 -30.853)" fill="#263238"/>
            <path id="Trazado_626345" data-name="Trazado 626345" d="M391.542,106.525c.069.079-.454.691-1.169,1.369s-1.356,1.166-1.43,1.092.449-.686,1.169-1.368,1.361-1.171,1.43-1.093" transform="translate(-105.736 -28.958)" fill="#263238"/>
            <path id="Trazado_626346" data-name="Trazado 626346" d="M399.172,100.466c.058.087-.537.629-1.332,1.211a4.409,4.409,0,0,1-1.556.9c-.065-.082.532-.624,1.332-1.211a4.369,4.369,0,0,1,1.556-.9" transform="translate(-107.733 -27.309)" fill="#263238"/>
            <path id="Trazado_626347" data-name="Trazado 626347" d="M407.55,95.487c.046.094-.618.55-1.484,1.019a4.421,4.421,0,0,1-1.664.686c-.054-.09.61-.546,1.484-1.019a4.369,4.369,0,0,1,1.665-.686" transform="translate(-109.94 -25.954)" fill="#263238"/>
            <path id="Trazado_626348" data-name="Trazado 626348" d="M416.571,91.782A8.529,8.529,0,0,1,413.206,93a8.54,8.54,0,0,1,3.365-1.222" transform="translate(-112.334 -24.945)" fill="#263238"/>
            <path id="Trazado_626349" data-name="Trazado 626349" d="M426.081,89.545a10.585,10.585,0,0,1-3.516.668,4.392,4.392,0,0,1,1.716-.557,4.323,4.323,0,0,1,1.8-.111" transform="translate(-114.878 -24.329)" fill="#263238"/>
            <path id="Trazado_626350" data-name="Trazado 626350" d="M435.866,88.96a8.54,8.54,0,0,1-3.58.042,8.571,8.571,0,0,1,3.58-.042" transform="translate(-117.521 -24.139)" fill="#263238"/>
            <path id="Trazado_626351" data-name="Trazado 626351" d="M445.638,89.94a8.544,8.544,0,0,1-3.534-.571,8.544,8.544,0,0,1,3.534.571" transform="translate(-120.19 -24.28)" fill="#263238"/>
            <path id="Trazado_626352" data-name="Trazado 626352" d="M455.107,92.534a8.542,8.542,0,0,1-3.383-1.174,8.552,8.552,0,0,1,3.383,1.174" transform="translate(-122.805 -24.83)" fill="#263238"/>
            <path id="Trazado_626353" data-name="Trazado 626353" d="M463.957,96.776a4.43,4.43,0,0,1-1.648-.722c-.853-.487-1.507-.958-1.461-1.051a4.339,4.339,0,0,1,1.649.722c.864.493,1.517.963,1.461,1.051" transform="translate(-125.286 -25.823)" fill="#263238"/>
            <path id="Trazado_626354" data-name="Trazado 626354" d="M471.815,102.642c-.074.074-.732-.39-1.471-1.038s-1.284-1.24-1.22-1.323.722.382,1.471,1.038,1.294,1.248,1.22,1.322" transform="translate(-127.535 -27.26)" fill="#263238"/>
            <path id="Trazado_626355" data-name="Trazado 626355" d="M477.257,108.585c-.085.061-.4-.209-.708-.6s-.488-.769-.407-.836.4.2.707.6.492.774.408.835" transform="translate(-129.439 -29.126)" fill="#263238"/>
            <path id="Trazado_626356" data-name="Trazado 626356" d="M522.69,168.8a8.842,8.842,0,0,1-3.3-1.533,8.842,8.842,0,0,1,3.3,1.533" transform="translate(-141.2 -45.467)" fill="#263238"/>
            <path id="Trazado_626357" data-name="Trazado 626357" d="M532.064,172.253a8.822,8.822,0,0,1-3.481-1.064,8.844,8.844,0,0,1,3.481,1.064" transform="translate(-143.7 -46.531)" fill="#263238"/>
            <path id="Trazado_626358" data-name="Trazado 626358" d="M541.875,174.059a8.841,8.841,0,0,1-3.618-.4,8.84,8.84,0,0,1,3.618.4" transform="translate(-146.33 -47.191)" fill="#263238"/>
            <path id="Trazado_626359" data-name="Trazado 626359" d="M551.855,173.888a8.82,8.82,0,0,1-3.63.274,8.82,8.82,0,0,1,3.63-.274" transform="translate(-149.041 -47.247)" fill="#263238"/>
            <path id="Trazado_626360" data-name="Trazado 626360" d="M561.7,172.069a4.528,4.528,0,0,1-1.728.617,4.376,4.376,0,0,1-1.824.178,4.691,4.691,0,0,1,1.743-.548,4.558,4.558,0,0,1,1.809-.247" transform="translate(-151.739 -46.769)" fill="#263238"/>
            <path id="Trazado_626361" data-name="Trazado 626361" d="M571.076,168.394a8.827,8.827,0,0,1-3.308,1.521,8.841,8.841,0,0,1,3.308-1.521" transform="translate(-154.353 -45.775)" fill="#263238"/>
            <path id="Trazado_626362" data-name="Trazado 626362" d="M579.51,162.826c.068.078-.5.679-1.308,1.288a4.033,4.033,0,0,1-1.6.9c-.059-.088.572-.605,1.368-1.207a5.221,5.221,0,0,1,1.536-.985" transform="translate(-156.755 -44.263)" fill="#263238"/>
            <path id="Trazado_626363" data-name="Trazado 626363" d="M586.53,155.527a3.954,3.954,0,0,1-.967,1.561c-.644.782-1.273,1.318-1.348,1.247s.421-.718,1.055-1.488,1.173-1.381,1.26-1.319" transform="translate(-158.823 -42.281)" fill="#263238"/>
            <path id="Trazado_626364" data-name="Trazado 626364" d="M591.523,146.729a3.875,3.875,0,0,1-.507,1.766,3.914,3.914,0,0,1-.974,1.557,13.421,13.421,0,0,1,1.481-3.323" transform="translate(-160.404 -39.889)" fill="#263238"/>
            <path id="Trazado_626365" data-name="Trazado 626365" d="M593.771,136.946a6.274,6.274,0,0,1-.371,3.618,5.729,5.729,0,0,1,.076-1.82,5.655,5.655,0,0,1,.295-1.8" transform="translate(-161.309 -37.23)" fill="#263238"/>
            <path id="Trazado_626366" data-name="Trazado 626366" d="M592.476,127.09a6.516,6.516,0,0,1,.808,3.547,13.819,13.819,0,0,1-.808-3.547" transform="translate(-161.062 -34.55)" fill="#263238"/>
            <path id="Trazado_626367" data-name="Trazado 626367" d="M588.136,118.122c.084-.06.63.563,1.14,1.441a3.85,3.85,0,0,1,.691,1.7c-.1.045-.516-.651-1.019-1.512a5.547,5.547,0,0,1-.812-1.632" transform="translate(-159.887 -32.111)" fill="#263238"/>
            <path id="Trazado_626368" data-name="Trazado 626368" d="M581.2,110.986a3.735,3.735,0,0,1,1.552.984c.769.665,1.272,1.324,1.2,1.394s-.693-.457-1.445-1.108-1.365-1.183-1.3-1.271" transform="translate(-158.004 -30.17)" fill="#263238"/>
            <path id="Trazado_626369" data-name="Trazado 626369" d="M572.134,106.915a5.907,5.907,0,0,1,3.455,1.137,17.957,17.957,0,0,1-3.455-1.137" transform="translate(-155.54 -29.055)" fill="#263238"/>
            <path id="Trazado_626370" data-name="Trazado 626370" d="M562.217,106.871a5.77,5.77,0,0,1,3.6-.473,19.275,19.275,0,0,1-3.6.473" transform="translate(-152.844 -28.892)" fill="#263238"/>
            <path id="Trazado_626371" data-name="Trazado 626371" d="M553.6,111.093c-.076-.067.424-.743,1.245-1.361a3.4,3.4,0,0,1,1.643-.837c.05.1-.627.541-1.415,1.14s-1.394,1.132-1.474,1.059" transform="translate(-150.499 -29.6)" fill="#263238"/>
            <path id="Trazado_626372" data-name="Trazado 626372" d="M549.614,119.577a3.336,3.336,0,0,1,.1-1.841,3.264,3.264,0,0,1,.764-1.678,7.6,7.6,0,0,1-.4,1.769,7.217,7.217,0,0,1-.473,1.75" transform="translate(-149.397 -31.551)" fill="#263238"/>
            <path id="Trazado_626373" data-name="Trazado 626373" d="M551.134,129.305a5.513,5.513,0,0,1-1.19-3.435,23.312,23.312,0,0,1,1.19,3.435" transform="translate(-149.496 -34.219)" fill="#263238"/>
            <path id="Trazado_626374" data-name="Trazado 626374" d="M557.112,137.123a3.619,3.619,0,0,1-1.554-.986c-.767-.675-1.244-1.359-1.166-1.426s.671.486,1.417,1.142,1.363,1.181,1.3,1.27" transform="translate(-150.715 -36.621)" fill="#263238"/>
            <path id="Trazado_626375" data-name="Trazado 626375" d="M565.921,141.645a3.818,3.818,0,0,1-1.807-.336,3.767,3.767,0,0,1-1.633-.842,5.711,5.711,0,0,1,1.755.483,5.6,5.6,0,0,1,1.684.7" transform="translate(-152.916 -38.182)" fill="#263238"/>
            <path id="Trazado_626376" data-name="Trazado 626376" d="M575.771,142.972a6.654,6.654,0,0,1-3.637-.077,13.193,13.193,0,0,1,3.637.077" transform="translate(-155.54 -38.821)" fill="#263238"/>
            <path id="Trazado_626377" data-name="Trazado 626377" d="M585.612,141.21a6.777,6.777,0,0,1-3.523.9,12.668,12.668,0,0,1,3.523-.9" transform="translate(-158.247 -38.382)" fill="#263238"/>
            <path id="Trazado_626378" data-name="Trazado 626378" d="M594.8,137.061c.055.09-.625.545-1.52,1.018a4.475,4.475,0,0,1-1.7.683,8.826,8.826,0,0,1,3.217-1.7" transform="translate(-160.826 -37.257)" fill="#263238"/>
            <path id="Trazado_626379" data-name="Trazado 626379" d="M602.962,131.107c.071.077-.505.66-1.287,1.3s-1.466,1.093-1.527,1.008.514-.668,1.287-1.3a4.585,4.585,0,0,1,1.527-1.008" transform="translate(-163.155 -35.64)" fill="#263238"/>
            <path id="Trazado_626380" data-name="Trazado 626380" d="M609.939,123.8c.083.064-.382.739-1.038,1.507s-1.251,1.332-1.327,1.26a4.564,4.564,0,0,1,1.038-1.507c.65-.76,1.244-1.324,1.327-1.26" transform="translate(-165.173 -33.654)" fill="#263238"/>
            <path id="Trazado_626381" data-name="Trazado 626381" d="M615.617,115.456a4.5,4.5,0,0,1-.775,1.658c-.521.866-1.013,1.521-1.1,1.462a4.586,4.586,0,0,1,.775-1.657c.516-.858,1.008-1.512,1.1-1.463" transform="translate(-166.848 -31.387)" fill="#263238"/>
            <path id="Trazado_626382" data-name="Trazado 626382" d="M619.869,106.321a4.5,4.5,0,0,1-.488,1.765c-.361.943-.754,1.664-.856,1.618a5.147,5.147,0,0,1,.5-1.758,4.544,4.544,0,0,1,.84-1.624" transform="translate(-168.147 -28.904)" fill="#263238"/>
            <path id="Trazado_626383" data-name="Trazado 626383" d="M622.82,96.725a8.816,8.816,0,0,1-.914,3.523,8.845,8.845,0,0,1,.914-3.523" transform="translate(-169.062 -26.295)" fill="#263238"/>
            <path id="Trazado_626384" data-name="Trazado 626384" d="M624.7,86.883a4.5,4.5,0,0,1-.088,1.828,4.523,4.523,0,0,1-.463,1.771,8.824,8.824,0,0,1,.551-3.6" transform="translate(-169.664 -23.62)" fill="#263238"/>
            <path id="Trazado_626385" data-name="Trazado 626385" d="M625.707,76.928a4.508,4.508,0,0,1,.054,1.829,4.526,4.526,0,0,1-.324,1.8,4.558,4.558,0,0,1-.054-1.83,4.541,4.541,0,0,1,.324-1.8" transform="translate(-170.005 -20.914)" fill="#263238"/>
            <path id="Trazado_626386" data-name="Trazado 626386" d="M626.077,66.936a4.515,4.515,0,0,1,.154,1.824,4.519,4.519,0,0,1-.225,1.816,4.538,4.538,0,0,1-.154-1.824,4.544,4.544,0,0,1,.225-1.816" transform="translate(-170.143 -18.197)" fill="#263238"/>
            <path id="Trazado_626387" data-name="Trazado 626387" d="M626.028,56.937a4.531,4.531,0,0,1,.215,1.817,4.518,4.518,0,0,1-.163,1.823,4.525,4.525,0,0,1-.215-1.817,4.534,4.534,0,0,1,.163-1.823" transform="translate(-170.147 -15.479)" fill="#263238"/>
            <path id="Trazado_626388" data-name="Trazado 626388" d="M625.874,50.787c.1,0,.194.182.2.413s-.073.421-.178.424-.194-.182-.2-.414.074-.42.178-.423" transform="translate(-170.102 -13.807)" fill="#263238"/>
            <rect id="Rectángulo_327971" data-name="Rectángulo 327971" width="49.786" height="33.557" transform="translate(422.232 20.756) rotate(-6.198)" fill="#ffb338"/>
            <path id="Trazado_626389" data-name="Trazado 626389" d="M583.477,59.871v-.017L579.85,26.474l.018,0,49.514-5.377,0,.018,3.624,33.379-.017,0Zm-3.586-33.365,3.619,33.325,49.46-5.371-3.62-33.326Z" transform="translate(-157.638 -5.735)" fill="#263238"/>
            <path id="Trazado_626390" data-name="Trazado 626390" d="M629.65,21.65a3.453,3.453,0,0,1-.413.494L627.991,23.5l-4.651,4.938-15.5,16.213-.127.133-.157-.1-.379-.24-19.158-12.24-5.778-3.753-1.558-1.039a3.608,3.608,0,0,1-.527-.389,3.539,3.539,0,0,1,.576.312l1.6.968,5.855,3.632,19.229,12.128.378.24-.284.034,15.6-16.119,4.753-4.839,1.308-1.3a3.459,3.459,0,0,1,.478-.432" transform="translate(-157.721 -5.886)" fill="#263238"/>
            <path id="Trazado_626391" data-name="Trazado 626391" d="M585.13,66.643c-.1-.07,3.122-5.047,7.2-11.116s7.476-10.934,7.579-10.865-3.121,5.046-7.2,11.117-7.475,10.934-7.578,10.864" transform="translate(-159.073 -12.142)" fill="#263238"/>
            <path id="Trazado_626392" data-name="Trazado 626392" d="M627.964,41.636c.09-.087,4.26,4.054,9.314,9.247s9.081,9.475,8.992,9.562-4.26-4.052-9.316-9.247-9.08-9.475-8.99-9.562" transform="translate(-170.718 -11.319)" fill="#263238"/>
          </g>
        </g>
        <g id="Grupo_878060" data-name="Grupo 878060">
          <g id="Grupo_878059" data-name="Grupo 878059" clip-path="url(#clip-path)">
            <path id="Trazado_626393" data-name="Trazado 626393" d="M337.418,160.034c.1-.017.255.371.339.866s.068.913-.035.931-.255-.371-.339-.867-.068-.912.035-.93" transform="translate(-91.706 -43.507)" fill="#263238"/>
            <path id="Trazado_626394" data-name="Trazado 626394" d="M335.829,150.278a8.656,8.656,0,0,1,.573,3.553,8.624,8.624,0,0,1-.573-3.553" transform="translate(-91.283 -40.855)" fill="#263238"/>
            <path id="Trazado_626395" data-name="Trazado 626395" d="M334.4,140.495a8.633,8.633,0,0,1,.5,3.565,8.633,8.633,0,0,1-.5-3.565" transform="translate(-90.893 -38.195)" fill="#263238"/>
            <path id="Trazado_626396" data-name="Trazado 626396" d="M333.27,130.673a8.636,8.636,0,0,1,.376,3.58,8.634,8.634,0,0,1-.376-3.58" transform="translate(-90.582 -35.525)" fill="#263238"/>
            <path id="Trazado_626397" data-name="Trazado 626397" d="M332.57,120.811a8.637,8.637,0,0,1,.2,3.594,8.64,8.64,0,0,1-.2-3.594" transform="translate(-90.382 -32.844)" fill="#263238"/>
            <path id="Trazado_626398" data-name="Trazado 626398" d="M332.431,110.922a8.648,8.648,0,0,1-.021,3.6,8.648,8.648,0,0,1,.021-3.6" transform="translate(-90.32 -30.155)" fill="#263238"/>
            <path id="Trazado_626399" data-name="Trazado 626399" d="M332.981,101.061a8.635,8.635,0,0,1-.3,3.587,8.634,8.634,0,0,1,.3-3.587" transform="translate(-90.418 -27.474)" fill="#263238"/>
            <path id="Trazado_626400" data-name="Trazado 626400" d="M334.362,91.288a8.652,8.652,0,0,1-.626,3.545,8.652,8.652,0,0,1,.626-3.545" transform="translate(-90.715 -24.817)" fill="#263238"/>
            <path id="Trazado_626401" data-name="Trazado 626401" d="M336.741,81.734a4.464,4.464,0,0,1-.331,1.779,4.471,4.471,0,0,1-.695,1.671,4.389,4.389,0,0,1,.331-1.779,4.413,4.413,0,0,1,.695-1.671" transform="translate(-91.259 -22.22)" fill="#263238"/>
            <path id="Trazado_626402" data-name="Trazado 626402" d="M340.283,72.568a4.478,4.478,0,0,1-.551,1.724,4.48,4.48,0,0,1-.9,1.571,4.4,4.4,0,0,1,.551-1.724,4.408,4.408,0,0,1,.9-1.571" transform="translate(-92.109 -19.728)" fill="#263238"/>
            <path id="Trazado_626403" data-name="Trazado 626403" d="M344.956,63.943a4.48,4.48,0,0,1-.766,1.64c-.511.848-1,1.494-1.091,1.444a4.412,4.412,0,0,1,.766-1.64c.515-.855,1-1.5,1.091-1.444" transform="translate(-93.271 -17.382)" fill="#263238"/>
            <path id="Trazado_626404" data-name="Trazado 626404" d="M350.736,56.037a4.479,4.479,0,0,1-.982,1.52c-.621.771-1.193,1.345-1.277,1.282s.355-.743.982-1.52,1.2-1.351,1.277-1.282" transform="translate(-94.734 -15.233)" fill="#263238"/>
            <path id="Trazado_626405" data-name="Trazado 626405" d="M357.614,49.089c.067.081-.47.687-1.2,1.354s-1.382,1.149-1.456,1.075.463-.68,1.2-1.354,1.389-1.156,1.456-1.075" transform="translate(-96.497 -13.343)" fill="#263238"/>
            <path id="Trazado_626406" data-name="Trazado 626406" d="M365.554,43.406c.052.091-.582.6-1.415,1.129a4.48,4.48,0,0,1-1.619.809c-.061-.085.572-.591,1.415-1.129a4.41,4.41,0,0,1,1.619-.809" transform="translate(-98.553 -11.796)" fill="#263238"/>
            <path id="Trazado_626407" data-name="Trazado 626407" d="M374.44,39.349a8.636,8.636,0,0,1-3.352,1.311,8.636,8.636,0,0,1,3.352-1.311" transform="translate(-100.883 -10.691)" fill="#263238"/>
            <path id="Trazado_626408" data-name="Trazado 626408" d="M382.246,37.549c.016.1-.368.263-.857.356s-.905.086-.928-.016.361-.261.857-.356.912-.087.928.016" transform="translate(-103.432 -10.186)" fill="#263238"/>
            <rect id="Rectángulo_327973" data-name="Rectángulo 327973" width="36.488" height="54.133" transform="translate(226.923 34.055) rotate(-68.859)" fill="#ffb338"/>
            <path id="Trazado_626409" data-name="Trazado 626409" d="M362.139,53.6l-.017-.006L311.616,34.065l.006-.017L324.788,0l.017.007,50.506,19.53-.007.017ZM311.663,34.045l50.455,19.511,13.147-34L324.808.047Z" transform="translate(-84.716)" fill="#263238"/>
            <path id="Trazado_626410" data-name="Trazado 626410" d="M380.214,20.2a3.764,3.764,0,0,1-.645.271l-1.882.688-6.957,2.447-23.068,7.919-.189.065-.1-.174-.245-.42c-4.828-8.334-9.2-15.875-12.392-21.388L331.026,3.1q-.615-1.112-.987-1.782a3.861,3.861,0,0,1-.315-.639,3.859,3.859,0,0,1,.4.588L331.191,3l3.842,6.431,12.516,21.316.245.42-.291-.108,23.116-7.78,7.007-2.3,1.911-.6a3.747,3.747,0,0,1,.677-.178" transform="translate(-89.639 -0.185)" fill="#263238"/>
            <path id="Trazado_626411" data-name="Trazado 626411" d="M311.652,42.245c-.066-.119,5.535-3.316,12.508-7.139s12.68-6.827,12.745-6.709-5.535,3.316-12.509,7.14-12.678,6.828-12.744,6.708" transform="translate(-84.726 -7.719)" fill="#263238"/>
            <path id="Trazado_626412" data-name="Trazado 626412" d="M369.605,36.727c.13-.039,2.091,6.042,4.38,13.582S378.024,64,377.895,64.035s-2.09-6.041-4.38-13.583-4.039-13.685-3.909-13.725" transform="translate(-100.479 -9.985)" fill="#263238"/>
          </g>
        </g>
        <g id="Grupo_878062" data-name="Grupo 878062">
          <g id="Grupo_878061" data-name="Grupo 878061" clip-path="url(#clip-path)">
            <path id="Trazado_626413" data-name="Trazado 626413" d="M308.226,170.98c.1.007.157.421.116.923s-.159.9-.263.893-.156-.424-.115-.924.158-.9.262-.893" transform="translate(-83.719 -46.483)" fill="#263238"/>
            <path id="Trazado_626414" data-name="Trazado 626414" d="M308.511,160.81a9.156,9.156,0,0,1-.009,3.7,9.156,9.156,0,0,1,.009-3.7" transform="translate(-83.819 -43.718)" fill="#263238"/>
            <path id="Trazado_626415" data-name="Trazado 626415" d="M307.86,150.661a9.152,9.152,0,0,1,.341,3.689,9.116,9.116,0,0,1-.341-3.689" transform="translate(-83.672 -40.959)" fill="#263238"/>
            <path id="Trazado_626416" data-name="Trazado 626416" d="M306.178,140.631a9.14,9.14,0,0,1,.711,3.636,9.148,9.148,0,0,1-.711-3.636" transform="translate(-83.225 -38.232)" fill="#263238"/>
            <path id="Trazado_626417" data-name="Trazado 626417" d="M303.42,130.841a9.158,9.158,0,0,1,1.107,3.537,9.135,9.135,0,0,1-1.107-3.537" transform="translate(-82.48 -35.57)" fill="#263238"/>
            <path id="Trazado_626418" data-name="Trazado 626418" d="M299.535,121.447a9.146,9.146,0,0,1,1.521,3.378,9.131,9.131,0,0,1-1.521-3.378" transform="translate(-81.426 -33.016)" fill="#263238"/>
            <path id="Trazado_626419" data-name="Trazado 626419" d="M294.486,112.62c.086-.058.609.594,1.161,1.461a4.7,4.7,0,0,1,.786,1.694c-.091.051-.588-.617-1.109-1.494a4.762,4.762,0,0,1-.838-1.661" transform="translate(-80.056 -30.616)" fill="#263238"/>
            <path id="Trazado_626420" data-name="Trazado 626420" d="M288.257,104.583c.078-.071.674.512,1.332,1.3s1.124,1.48,1.041,1.544-.679-.519-1.332-1.3a4.731,4.731,0,0,1-1.04-1.544" transform="translate(-78.363 -28.43)" fill="#263238"/>
            <path id="Trazado_626421" data-name="Trazado 626421" d="M280.954,97.507c.067-.081.74.411,1.5,1.1s1.322,1.307,1.249,1.381a4.725,4.725,0,0,1-1.5-1.1c-.757-.682-1.316-1.3-1.249-1.381" transform="translate(-76.379 -26.506)" fill="#263238"/>
            <path id="Trazado_626422" data-name="Trazado 626422" d="M272.7,91.559a4.661,4.661,0,0,1,1.647.869c.855.57,1.5,1.1,1.437,1.185a4.728,4.728,0,0,1-1.647-.869c-.848-.564-1.49-1.1-1.437-1.185" transform="translate(-74.137 -24.888)" fill="#263238"/>
            <path id="Trazado_626423" data-name="Trazado 626423" d="M263.645,86.938a9.173,9.173,0,0,1,3.366,1.551,9.127,9.127,0,0,1-3.366-1.551" transform="translate(-71.674 -23.63)" fill="#263238"/>
            <path id="Trazado_626424" data-name="Trazado 626424" d="M253.953,83.866a9.153,9.153,0,0,1,3.577.964,9.153,9.153,0,0,1-3.577-.964" transform="translate(-69.04 -22.79)" fill="#263238"/>
            <path id="Trazado_626425" data-name="Trazado 626425" d="M243.872,82.548a4.623,4.623,0,0,1,1.865-.084,4.7,4.7,0,0,1,1.827.382,4.7,4.7,0,0,1-1.858,0,4.754,4.754,0,0,1-1.833-.294" transform="translate(-66.299 -22.411)" fill="#263238"/>
            <path id="Trazado_626426" data-name="Trazado 626426" d="M233.733,83.1a9.131,9.131,0,0,1,3.679-.435,9.131,9.131,0,0,1-3.679.435" transform="translate(-63.543 -22.454)" fill="#263238"/>
            <path id="Trazado_626427" data-name="Trazado 626427" d="M223.911,85.474a9.133,9.133,0,0,1,3.531-1.121,9.133,9.133,0,0,1-3.531,1.121" transform="translate(-60.872 -22.924)" fill="#263238"/>
            <path id="Trazado_626428" data-name="Trazado 626428" d="M214.751,89.647c-.055-.089.633-.558,1.539-1.049a4.645,4.645,0,0,1,1.719-.715,9.141,9.141,0,0,1-3.258,1.764" transform="translate(-58.381 -23.888)" fill="#263238"/>
            <path id="Trazado_626429" data-name="Trazado 626429" d="M206.626,95.528c-.072-.076.51-.673,1.3-1.332s1.482-1.126,1.544-1.041-.52.681-1.3,1.332a4.73,4.73,0,0,1-1.544,1.041" transform="translate(-56.172 -25.323)" fill="#263238"/>
            <path id="Trazado_626430" data-name="Trazado 626430" d="M199.976,103a4.128,4.128,0,0,1,.941-1.613c.63-.816,1.247-1.386,1.324-1.316a5.427,5.427,0,0,1-1.024,1.548c-.623.8-1.153,1.44-1.241,1.381" transform="translate(-54.362 -27.203)" fill="#263238"/>
            <path id="Trazado_626431" data-name="Trazado 626431" d="M196.256,110.083c-.1-.042.006-.446.226-.9s.475-.786.569-.737-.009.453-.227.9-.473.778-.568.736" transform="translate(-53.344 -29.48)" fill="#263238"/>
            <path id="Trazado_626432" data-name="Trazado 626432" d="M132.731,169.589c-.007-.1.387-.238.881-.3s.908-.025.926.079-.376.237-.881.3-.92.025-.926-.079" transform="translate(-36.084 -46.016)" fill="#263238"/>
            <path id="Trazado_626433" data-name="Trazado 626433" d="M122.826,168.576a5.75,5.75,0,0,1,1.806.269,5.822,5.822,0,0,1,1.762.478,6.22,6.22,0,0,1-3.568-.747" transform="translate(-33.391 -45.821)" fill="#263238"/>
            <path id="Trazado_626434" data-name="Trazado 626434" d="M113.874,164.157a5.452,5.452,0,0,1,1.63.827c.857.513,1.549.943,1.5,1.038a3.877,3.877,0,0,1-1.7-.713c-.874-.521-1.5-1.069-1.436-1.153" transform="translate(-30.957 -44.624)" fill="#263238"/>
            <path id="Trazado_626435" data-name="Trazado 626435" d="M106.429,157.479c.08-.07.678.487,1.383,1.2s1.255,1.315,1.185,1.394-.741-.4-1.454-1.128-1.191-1.4-1.113-1.465" transform="translate(-28.932 -42.811)" fill="#263238"/>
            <path id="Trazado_626436" data-name="Trazado 626436" d="M100.546,149.378c.09-.052.609.584,1.158,1.422a4.587,4.587,0,0,1,.841,1.63c-.084.062-.6-.574-1.158-1.422a4.525,4.525,0,0,1-.841-1.63" transform="translate(-27.331 -40.609)" fill="#263238"/>
            <path id="Trazado_626437" data-name="Trazado 626437" d="M96.223,140.345a8.875,8.875,0,0,1,1.431,3.357,8.875,8.875,0,0,1-1.431-3.357" transform="translate(-26.153 -38.154)" fill="#263238"/>
            <path id="Trazado_626438" data-name="Trazado 626438" d="M93.344,130.75a8.882,8.882,0,0,1,.927,3.529,8.881,8.881,0,0,1-.927-3.529" transform="translate(-25.367 -35.546)" fill="#263238"/>
            <path id="Trazado_626439" data-name="Trazado 626439" d="M91.6,120.881a8.871,8.871,0,0,1,.547,3.609,8.876,8.876,0,0,1-.547-3.609" transform="translate(-24.885 -32.863)" fill="#263238"/>
            <path id="Trazado_626440" data-name="Trazado 626440" d="M90.622,110.9a8.878,8.878,0,0,1,.295,3.638,8.878,8.878,0,0,1-.295-3.638" transform="translate(-24.611 -30.15)" fill="#263238"/>
            <path id="Trazado_626441" data-name="Trazado 626441" d="M90.186,103.4c.1,0,.209.4.233.9s-.042.913-.146.918-.209-.4-.233-.9.042-.914.146-.918" transform="translate(-24.477 -28.109)" fill="#263238"/>
            <rect id="Rectángulo_327975" data-name="Rectángulo 327975" width="60.612" height="40.855" transform="translate(32.579 33.994) rotate(-2.698)" fill="#ffb338"/>
            <path id="Trazado_626442" data-name="Trazado 626442" d="M46.64,86.443v-.019L44.715,45.6h.019L105.3,42.742v.018l1.924,40.828H107.2ZM44.754,45.632,46.675,86.4l60.508-2.852L105.262,42.78Z" transform="translate(-12.156 -11.62)" fill="#263238"/>
            <path id="Trazado_626443" data-name="Trazado 626443" d="M105.585,43.429a4.168,4.168,0,0,1-.538.57l-1.616,1.556L97.413,51.21,77.37,69.759l-.165.153-.183-.133-.442-.32L54.21,53.162l-6.743-4.989-1.816-1.38a4.226,4.226,0,0,1-.612-.511,4.388,4.388,0,0,1,.676.422L47.593,48l6.845,4.848L76.9,69.014l.441.32-.347.02L97.151,50.926l6.136-5.527,1.686-1.481a4.2,4.2,0,0,1,.612-.489" transform="translate(-12.244 -11.806)" fill="#263238"/>
            <path id="Trazado_626444" data-name="Trazado 626444" d="M47.68,93.832c-.121-.092,4.169-5.9,9.579-12.973s9.9-12.732,10.018-12.639-4.168,5.9-9.58,12.973S47.8,93.925,47.68,93.832" transform="translate(-12.962 -18.546)" fill="#263238"/>
            <path id="Trazado_626445" data-name="Trazado 626445" d="M102.2,66.216c.114-.1,4.875,5.242,10.631,11.928s10.331,12.189,10.216,12.288-4.875-5.24-10.632-11.929S102.084,66.316,102.2,66.216" transform="translate(-27.784 -18.001)" fill="#263238"/>
          </g>
        </g>
        <g id="Grupo_878079" data-name="Grupo 878079">
          <g id="Grupo_878078" data-name="Grupo 878078" clip-path="url(#clip-path)">
            <path id="Trazado_626446" data-name="Trazado 626446" d="M182.161,240.428a1.655,1.655,0,0,0-1.256-1.845l-1.623.111-5.8-2.02a1.735,1.735,0,0,0-2.2,1.579c-.033,1.67-.7,6.212-2.05,4.785-.032-.034-.065-.06-.1-.093-1.914-2.136-4.13-3.166-4.986-3.043a.97.97,0,0,0-.416,1.717,1.029,1.029,0,0,0,.344.241c.059.024.13.072.194.1a14.32,14.32,0,0,1,2.219,1.982,7.615,7.615,0,0,1,1.461,2.208c.392.9.7,1.692.932,2.366l.091,5.337-2.319,24.954s-15.36-16.134-15-16.292l.881,25.114,9.3,7.7A11.7,11.7,0,0,0,181,286.125l-.537-32.267.379-4.232Z" transform="translate(-41.226 -64.327)" fill="#ffbe9d"/>
            <path id="Trazado_626447" data-name="Trazado 626447" d="M57.237,290.566,40.43,329.045,27.127,356.8l-9.879,3.323s-7.819,2.27-7.819,3.888,2.063,1.25,2.063,1.25c.379,2.416,3.725,1.046,6.068-.039s7.546-1.3,7.546-1.3a2.121,2.121,0,0,0-.146,3.394c.827.581,2.273-.122,3.251-1.164s3.493-1.527,6.294-2.525,3.261-4.766,3.261-4.766l33.664-56.7Z" transform="translate(-2.563 -78.993)" fill="#ffbe9d"/>
            <path id="Trazado_626448" data-name="Trazado 626448" d="M127.239,295.881l4.233,5.589,9.165-20.338s-8.9-10.857-12.151-15.411c-3.226-4.514-5.646-5.3-5.646-5.3s-5.91-1.756-8.864-1.694l-14.6.871L84.54,266.075a20.536,20.536,0,0,0-8.931,7.519L61.641,296.028l19.775,8.454L88.047,342.4c1.274,5.686,2.385,11.052,7.634,13.673l36.679-35.25-4.3-6.767Z" transform="translate(-16.758 -70.338)" fill="#2b95f9"/>
            <path id="Trazado_626449" data-name="Trazado 626449" d="M99.686,300.2c.087.058-2.174,3.572-5.048,7.847s-5.276,7.7-5.363,7.637,2.173-3.572,5.049-7.848,5.276-7.694,5.363-7.636" transform="translate(-24.269 -81.613)" fill="#263238"/>
            <path id="Trazado_626450" data-name="Trazado 626450" d="M136.069,349.635a6.512,6.512,0,0,1-.974.582c-.639.353-1.571.849-2.729,1.449-2.316,1.2-5.541,2.811-9.142,4.509s-6.9,3.16-9.3,4.181c-1.2.51-2.176.914-2.855,1.182a6.58,6.58,0,0,1-1.069.382,6.458,6.458,0,0,1,1.011-.517l2.8-1.292c2.372-1.083,5.646-2.583,9.245-4.279s6.838-3.266,9.183-4.405l2.781-1.341a6.547,6.547,0,0,1,1.042-.45" transform="translate(-29.905 -95.051)" fill="#263238"/>
            <path id="Trazado_626451" data-name="Trazado 626451" d="M97.948,285.831a12.538,12.538,0,0,1-1.286-1.62A26.017,26.017,0,0,0,93.4,280.5a11.479,11.479,0,0,0-4.2-2.473c-1.2-.373-2-.363-2-.432a1.421,1.421,0,0,1,.559-.044,6.792,6.792,0,0,1,1.514.219,10.59,10.59,0,0,1,4.38,2.448,20.829,20.829,0,0,1,3.223,3.841,10.138,10.138,0,0,1,1.068,1.776" transform="translate(-23.707 -75.454)" fill="#263238"/>
            <path id="Trazado_626452" data-name="Trazado 626452" d="M134.8,314.3a1.6,1.6,0,0,1,.017.4c-.007.263,0,.653-.036,1.153a27.734,27.734,0,0,1-.584,4.2,30.123,30.123,0,0,1-16.95,21.131,27.741,27.741,0,0,1-3.976,1.483c-.479.148-.862.222-1.118.286a1.628,1.628,0,0,1-.4.07c-.008-.031.524-.184,1.47-.5a32.674,32.674,0,0,0,3.906-1.584A30.816,30.816,0,0,0,133.934,320a32.565,32.565,0,0,0,.7-4.157c.1-.992.134-1.544.166-1.544" transform="translate(-30.382 -85.446)" fill="#263238"/>
            <g id="Grupo_878065" data-name="Grupo 878065" transform="translate(64.734 223.787)" opacity="0.3">
              <g id="Grupo_878064" data-name="Grupo 878064">
                <g id="Grupo_878063" data-name="Grupo 878063" clip-path="url(#clip-path-12)">
                  <path id="Trazado_626453" data-name="Trazado 626453" d="M91.391,332.357c-.063-.361,4.7-25.014,4.7-25.014L88.9,318.136" transform="translate(-88.904 -307.341)"/>
                </g>
              </g>
            </g>
            <path id="Trazado_626454" data-name="Trazado 626454" d="M150.431,277.257a1.82,1.82,0,0,1,.052.424c.02.32.046.723.076,1.218.056,1.11.133,2.628.226,4.481.185,3.83.437,9.034.716,14.784.275,5.776.492,11.007.605,14.794.058,1.893.094,3.427.106,4.486,0,.5,0,.9.005,1.22a1.879,1.879,0,0,1-.023.426,1.788,1.788,0,0,1-.053-.424c-.02-.32-.045-.723-.076-1.217-.056-1.11-.133-2.628-.226-4.481-.186-3.83-.438-9.035-.716-14.786-.275-5.774-.492-11-.605-14.792-.058-1.894-.094-3.427-.106-4.486,0-.5,0-.9-.006-1.221a1.8,1.8,0,0,1,.024-.426" transform="translate(-40.89 -75.375)" fill="#263238"/>
            <g id="Grupo_878068" data-name="Grupo 878068" transform="translate(79.498 246.679)" opacity="0.2">
              <g id="Grupo_878067" data-name="Grupo 878067">
                <g id="Grupo_878066" data-name="Grupo 878066" clip-path="url(#clip-path-13)">
                  <path id="Trazado_626455" data-name="Trazado 626455" d="M109.95,358.947c-1.173-.979-.906-2.97.131-4.092a9.03,9.03,0,0,1,4.026-2.075c6.97-2.257,13.977-5.449,18.574-11.153a11.005,11.005,0,0,1,2.06-2.216,2.839,2.839,0,0,1,2.859-.4c1.409.732,1.461,2.773.87,4.247a8.156,8.156,0,0,1-3.843,4.195" transform="translate(-109.179 -338.78)"/>
                </g>
              </g>
            </g>
            <g id="Grupo_878071" data-name="Grupo 878071" transform="translate(109.694 206.257)" opacity="0.2">
              <g id="Grupo_878070" data-name="Grupo 878070">
                <g id="Grupo_878069" data-name="Grupo 878069" clip-path="url(#clip-path-14)">
                  <path id="Trazado_626456" data-name="Trazado 626456" d="M150.649,283.266l4.07,23.619-3.17-4.186Z" transform="translate(-150.649 -283.266)"/>
                </g>
              </g>
            </g>
            <path id="Trazado_626457" data-name="Trazado 626457" d="M201.264,368.477l-6.882,23.6,29.322,8.713c.661-2.852-12.838-12.983-12.838-12.983l5.03-14.942Z" transform="translate(-52.845 -100.174)" fill="#727997"/>
            <g id="Grupo_878074" data-name="Grupo 878074" transform="translate(148.096 283.66)" opacity="0.6">
              <g id="Grupo_878073" data-name="Grupo 878073">
                <g id="Grupo_878072" data-name="Grupo 878072" clip-path="url(#clip-path-15)">
                  <path id="Trazado_626458" data-name="Trazado 626458" d="M204.625,389.579a1.25,1.25,0,0,0-1.234,1.121,1.2,1.2,0,0,0,1.1,1.233,1.317,1.317,0,0,0,1.3-1.193c-.03-.613-.685-1.279-1.287-1.156" transform="translate(-203.39 -389.568)" fill="#fff"/>
                </g>
              </g>
            </g>
            <g id="Grupo_878077" data-name="Grupo 878077" transform="translate(141.537 289.554)" opacity="0.6">
              <g id="Grupo_878076" data-name="Grupo 878076">
                <g id="Grupo_878075" data-name="Grupo 878075" clip-path="url(#clip-path-16)">
                  <path id="Trazado_626459" data-name="Trazado 626459" d="M194.382,400.015l.786-2.352,27.82,9.233s1.137.956.716,1.832Z" transform="translate(-194.382 -397.663)" fill="#fff"/>
                </g>
              </g>
            </g>
            <path id="Trazado_626460" data-name="Trazado 626460" d="M216.557,394.884c-.047.142-.783-.006-1.624.245-.848.229-1.4.741-1.51.645-.124-.067.344-.859,1.368-1.145s1.836.133,1.766.255" transform="translate(-58.016 -107.256)" fill="#263238"/>
            <path id="Trazado_626461" data-name="Trazado 626461" d="M220.486,397.965c-.009.149-.7.208-1.367.669-.679.441-1,1.059-1.137,1.011-.141-.017.009-.885.848-1.442s1.694-.375,1.657-.237" transform="translate(-59.248 -108.151)" fill="#263238"/>
            <path id="Trazado_626462" data-name="Trazado 626462" d="M222.309,402.98c-.139-.008-.126-.783.475-1.458s1.363-.788,1.389-.651c.046.142-.514.434-1,1s-.718,1.142-.864,1.113" transform="translate(-60.417 -108.967)" fill="#263238"/>
            <path id="Trazado_626463" data-name="Trazado 626463" d="M217.634,389.773c-.1.113-.7-.28-1.523-.465-.822-.2-1.533-.118-1.571-.263-.052-.128.72-.475,1.689-.243s1.507.88,1.4.971" transform="translate(-58.324 -105.678)" fill="#263238"/>
            <path id="Trazado_626464" data-name="Trazado 626464" d="M217.765,383.8a2.877,2.877,0,0,1-1.467-.444,6.862,6.862,0,0,1-1.4-.928,7.185,7.185,0,0,1-.711-.7,1.867,1.867,0,0,1-.34-.477.65.65,0,0,1,.16-.781.819.819,0,0,1,.725-.141,1.968,1.968,0,0,1,.528.24,5.5,5.5,0,0,1,.821.585,5.383,5.383,0,0,1,1.089,1.291,2.558,2.558,0,0,1,.51,1.449c-.079.028-.277-.518-.815-1.244a6.107,6.107,0,0,0-1.09-1.127,5.734,5.734,0,0,0-.766-.51c-.287-.174-.55-.255-.671-.14-.045.044-.055.063-.017.174a1.556,1.556,0,0,0,.251.349,8.058,8.058,0,0,0,.644.674,8.453,8.453,0,0,0,1.257.966,10.64,10.64,0,0,1,1.287.765" transform="translate(-58.12 -103.388)" fill="#263238"/>
            <path id="Trazado_626465" data-name="Trazado 626465" d="M218.877,383.686a2.44,2.44,0,0,1,.034-1.534,4.952,4.952,0,0,1,1.317-2.329,1.265,1.265,0,0,1,1.157-.463.715.715,0,0,1,.491.592,2.079,2.079,0,0,1-.009.583,3.406,3.406,0,0,1-.293.989,3.518,3.518,0,0,1-1.078,1.331c-.8.589-1.448.583-1.445.531-.027-.086.555-.214,1.21-.814a3.535,3.535,0,0,0,.875-1.242,3.159,3.159,0,0,0,.225-.856c.047-.326,0-.612-.122-.615-.145-.045-.463.116-.657.329a5.071,5.071,0,0,0-.6.687,5.5,5.5,0,0,0-.72,1.381c-.3.848-.3,1.43-.387,1.429" transform="translate(-59.479 -103.128)" fill="#263238"/>
            <path id="Trazado_626466" data-name="Trazado 626466" d="M208.3,317.356c.743,5.446-1.121,11.587-3.091,16.718l-12.86,30.236-14.232-2.185a18.331,18.331,0,0,1-6.762,4.568c-1.7.566-7.281,1.662-11.874-1.644,0,0-6.5,9.057-16.733,11.8s-25.722,4.249-33.221-7.719l35.7-34.4c.737.176,30.749-20.064,46.96-24.671,0,0,14.751-2.712,16.116,7.3" transform="translate(-29.776 -84.201)" fill="#263238"/>
            <path id="Trazado_626467" data-name="Trazado 626467" d="M187.121,370.14a1.009,1.009,0,0,1,.193-.116l.583-.309c.513-.271,1.274-.66,2.235-1.192a36.783,36.783,0,0,0,3.4-2.1,17.781,17.781,0,0,0,3.855-3.573,12.389,12.389,0,0,0,2.5-5.779,19.384,19.384,0,0,0-.3-7.275,11.738,11.738,0,0,0-3.928-6.837,14.81,14.81,0,0,0-8.038-2.861,24.922,24.922,0,0,0-4.407.037,33.174,33.174,0,0,0-4.225.741,50.13,50.13,0,0,0-7.681,2.658c-4.76,2.077-8.889,4.323-12.517,5.872a44.764,44.764,0,0,1-8.847,2.954c-.538.121-1.022.2-1.442.261s-.775.117-1.064.143l-.657.063a.973.973,0,0,1-.225.009.99.99,0,0,1,.221-.047l.651-.1c.287-.038.641-.093,1.055-.178s.9-.163,1.429-.295a47.1,47.1,0,0,0,8.77-3.055c3.6-1.575,7.71-3.842,12.486-5.947a49.919,49.919,0,0,1,7.731-2.7,33.272,33.272,0,0,1,4.276-.757,25.161,25.161,0,0,1,4.477-.039,15.143,15.143,0,0,1,8.237,2.948,10.386,10.386,0,0,1,2.677,3.254,14.97,14.97,0,0,1,1.36,3.8,19.617,19.617,0,0,1,.274,7.4,12.608,12.608,0,0,1-2.6,5.892,17.78,17.78,0,0,1-3.944,3.582,34.511,34.511,0,0,1-3.455,2.054c-.975.514-1.748.882-2.271,1.131l-.6.275a.971.971,0,0,1-.21.082" transform="translate(-39.842 -92.335)" fill="#455a64"/>
            <path id="Trazado_626468" data-name="Trazado 626468" d="M212.182,327.041a85.726,85.726,0,0,1-6.282,9.525,86,86,0,0,1,6.282-9.525" transform="translate(-55.975 -88.909)" fill="#455a64"/>
            <path id="Trazado_626469" data-name="Trazado 626469" d="M194.033,378.224a25.969,25.969,0,0,1-2.586.667c-1.6.4-3.791,1-6.16,1.831s-4.461,1.724-5.958,2.41a25.8,25.8,0,0,1-2.437,1.091,2.66,2.66,0,0,1,.6-.4c.4-.237.984-.558,1.722-.933a49.729,49.729,0,0,1,12.174-4.26c.81-.167,1.469-.283,1.928-.344a2.644,2.644,0,0,1,.718-.061" transform="translate(-48.089 -102.821)" fill="#455a64"/>
            <path id="Trazado_626470" data-name="Trazado 626470" d="M219.283,380.232c-.066.022-.237-.646-.84-1.535a6.16,6.16,0,0,0-7.327-2.378c-1.011.366-1.541.805-1.582.749-.015-.018.1-.146.344-.339a5.2,5.2,0,0,1,1.139-.66,6.066,6.066,0,0,1,7.652,2.482,5.187,5.187,0,0,1,.534,1.2c.084.3.1.47.08.476" transform="translate(-56.963 -102.103)" fill="#455a64"/>
            <path id="Trazado_626471" data-name="Trazado 626471" d="M135.057,366.476a2.283,2.283,0,0,1,.185.681,10.657,10.657,0,0,1,.165,1.916,11.8,11.8,0,0,1-1.679,6.08,9.282,9.282,0,0,1-4.876,3.964,6.918,6.918,0,0,1-1.895.363,2.042,2.042,0,0,1-.7-.034,13.835,13.835,0,0,0,2.51-.583,9.485,9.485,0,0,0,4.643-3.909,12.378,12.378,0,0,0,1.734-5.887c.065-1.6-.15-2.58-.081-2.591" transform="translate(-34.323 -99.63)" fill="#455a64"/>
            <path id="Trazado_626472" data-name="Trazado 626472" d="M115.806,388.242c-.081.065-.457-.265-.812-.76s-.545-.963-.453-1.016.412.312.762.8.585.915.5.981" transform="translate(-31.133 -105.063)" fill="#455a64"/>
            <path id="Trazado_626473" data-name="Trazado 626473" d="M119.815,392.684c-.068.079-.479-.2-.916-.622s-.728-.823-.652-.894.486.207.915.622.721.816.652.894" transform="translate(-32.143 -106.34)" fill="#455a64"/>
            <path id="Trazado_626474" data-name="Trazado 626474" d="M124.573,396.314c-.052.091-.508-.1-1.019-.435s-.875-.67-.813-.754.518.111,1.019.436.864.663.813.754" transform="translate(-33.367 -107.413)" fill="#455a64"/>
            <path id="Trazado_626475" data-name="Trazado 626475" d="M129.989,398.838c-.028.1-.517.015-1.091-.192s-1.006-.454-.963-.55.531-.009,1.091.193.991.449.963.549" transform="translate(-34.78 -108.216)" fill="#455a64"/>
            <path id="Trazado_626476" data-name="Trazado 626476" d="M135.857,399.941c0,.1-.5.145-1.1.09s-1.086-.184-1.069-.288.511-.143,1.1-.09,1.07.183,1.069.288" transform="translate(-36.343 -108.643)" fill="#455a64"/>
            <path id="Trazado_626477" data-name="Trazado 626477" d="M141.84,399.684c.012.1-.471.222-1.08.263a4.465,4.465,0,0,1-.818-.008h.015c-.179-.015-.288-.048-.293-.1s.095-.1.264-.155h.015a4.461,4.461,0,0,1,.8-.118c.593-.04,1.083.012,1.1.116" transform="translate(-37.969 -108.623)" fill="#455a64"/>
            <path id="Trazado_626478" data-name="Trazado 626478" d="M147.749,398.644c.025.1-.434.287-1.027.414s-1.088.146-1.106.043.441-.288,1.027-.414,1.081-.145,1.106-.043" transform="translate(-39.587 -108.358)" fill="#455a64"/>
            <path id="Trazado_626479" data-name="Trazado 626479" d="M153.5,396.906c.036.1-.4.334-.975.526s-1.065.267-1.1.167.406-.336.975-.526,1.059-.265,1.1-.167" transform="translate(-41.168 -107.891)" fill="#455a64"/>
            <path id="Trazado_626480" data-name="Trazado 626480" d="M159.049,394.569c.046.094-.363.374-.915.625s-1.031.376-1.072.28.369-.376.915-.625,1.026-.374,1.072-.28" transform="translate(-42.698 -107.259)" fill="#455a64"/>
            <path id="Trazado_626481" data-name="Trazado 626481" d="M164.341,391.688c.055.089-.324.408-.848.712s-.989.476-1.039.384.33-.411.848-.712.983-.473,1.038-.384" transform="translate(-44.164 -106.478)" fill="#455a64"/>
            <path id="Trazado_626482" data-name="Trazado 626482" d="M169.335,388.311c.063.084-.285.438-.777.791s-.939.569-1,.482.289-.441.777-.79.934-.566,1-.483" transform="translate(-45.551 -105.562)" fill="#455a64"/>
            <path id="Trazado_626483" data-name="Trazado 626483" d="M174,384.494c.071.077-.243.462-.7.858s-.883.652-.949.572.248-.465.7-.858.879-.648.949-.571" transform="translate(-46.852 -104.525)" fill="#455a64"/>
            <path id="Trazado_626484" data-name="Trazado 626484" d="M178.384,380.376c.069.079-.229.475-.667.887s-.854.683-.925.612.224-.473.666-.888.858-.69.927-.611" transform="translate(-48.059 -103.405)" fill="#455a64"/>
            <path id="Trazado_626485" data-name="Trazado 626485" d="M183.059,376.688c.058.087-.289.443-.775.8s-.932.57-1,.488.282-.438.775-.8.939-.575,1-.488" transform="translate(-49.283 -102.401)" fill="#455a64"/>
            <path id="Trazado_626486" data-name="Trazado 626486" d="M188.246,373.784c.041.1-.36.39-.9.655s-1.013.406-1.065.315.35-.384.9-.655,1.024-.411,1.065-.315" transform="translate(-50.642 -101.609)" fill="#455a64"/>
            <path id="Trazado_626487" data-name="Trazado 626487" d="M193.908,371.992c.018.1-.436.3-1.014.449s-1.073.181-1.106.081.422-.3,1.014-.449,1.087-.184,1.105-.081" transform="translate(-52.139 -101.114)" fill="#455a64"/>
            <path id="Trazado_626488" data-name="Trazado 626488" d="M199.862,371.618c-.011.1-.5.141-1.094.131s-1.082-.065-1.089-.17.483-.22,1.1-.209,1.1.145,1.087.248" transform="translate(-53.741 -100.96)" fill="#455a64"/>
            <path id="Trazado_626489" data-name="Trazado 626489" d="M205.69,372.93c-.048.093-.513-.046-1.073-.242s-1.008-.392-.983-.5.529-.068,1.11.138.995.507.946.6" transform="translate(-55.36 -101.169)" fill="#455a64"/>
            <path id="Trazado_626490" data-name="Trazado 626490" d="M205.191,376.968c-.067-.084.26-.443.648-.88s.7-.8.794-.749-.093.534-.511,1-.869.708-.931.628" transform="translate(-55.781 -102.039)" fill="#455a64"/>
            <path id="Trazado_626491" data-name="Trazado 626491" d="M199.9,380c-.033-.1.387-.365.936-.591s1.035-.335,1.083-.242-.371.357-.936.591-1.049.341-1.082.242" transform="translate(-54.343 -103.073)" fill="#455a64"/>
            <path id="Trazado_626492" data-name="Trazado 626492" d="M194.182,381.886c-.035-.1.4-.335.975-.527s1.065-.268,1.1-.167-.406.336-.976.527-1.059.266-1.1.167" transform="translate(-52.79 -103.619)" fill="#455a64"/>
            <path id="Trazado_626493" data-name="Trazado 626493" d="M188.574,383.988c-.039-.1.384-.355.947-.577s1.049-.322,1.086-.224-.387.356-.947.577-1.047.321-1.086.224" transform="translate(-51.265 -104.163)" fill="#455a64"/>
            <path id="Trazado_626494" data-name="Trazado 626494" d="M183.045,386.3c-.043-.1.373-.368.928-.607s1.038-.355,1.079-.258-.375.368-.929.607-1.035.354-1.078.258" transform="translate(-49.762 -104.775)" fill="#455a64"/>
            <path id="Trazado_626495" data-name="Trazado 626495" d="M171.871,205.975s4.762-1.431,11.087-8.489,8.88-16,9.718-16.016,4.352-1.981,12.4,12.569,5.578,18.251,4.2,18.325-10.932-1.838-16.727-.739-13.082,4.7-13.082,4.7Z" transform="translate(-46.725 -49.308)" fill="#455a64"/>
            <path id="Trazado_626496" data-name="Trazado 626496" d="M158.351,223.028l1.885,3.017.845,1.352a4.111,4.111,0,0,0,5.478,1.418l10.108-4.388-7.07-13.347-9.957,6.3a4.111,4.111,0,0,0-1.29,5.652" transform="translate(-42.879 -57.385)" fill="#263238"/>
            <path id="Trazado_626497" data-name="Trazado 626497" d="M167.314,232.679l3.789,6.235,1.619-.583,11.453,7.981,2.578-6.132s-6.587-2.275-7.936-4.462-.024-2.806-.024-2.806l-3.258-3.19Z" transform="translate(-45.486 -62.453)" fill="#263238"/>
            <path id="Trazado_626498" data-name="Trazado 626498" d="M212.428,194.471c4.292,7.886,6.368,15.045,4.635,15.988s-6.617-4.686-10.91-12.572-6.368-15.045-4.635-15.988,6.617,4.686,10.91,12.572" transform="translate(-54.619 -49.423)" fill="#263238"/>
            <path id="Trazado_626499" data-name="Trazado 626499" d="M157.357,232.216l2.747-1.092-1.987-3.181-2.012,1.469Z" transform="translate(-42.439 -61.969)" fill="#455a64"/>
            <path id="Trazado_626500" data-name="Trazado 626500" d="M177.049,231.224l-7.2,5.382-1.08-1.777Z" transform="translate(-45.881 -62.861)" fill="#455a64"/>
            <path id="Trazado_626501" data-name="Trazado 626501" d="M158.779,227.944l1.986,3.18-.564.225-1.663-3.229Z" transform="translate(-43.1 -61.969)" fill="#455a64"/>
            <path id="Trazado_626502" data-name="Trazado 626502" d="M161.608,227.588a31.432,31.432,0,0,0,5.916-3.222,31.372,31.372,0,0,0-5.916,3.222" transform="translate(-43.934 -60.994)" fill="#455a64"/>
            <path id="Trazado_626503" data-name="Trazado 626503" d="M160.218,225.006a26.308,26.308,0,0,0,5.313-3.126,26.31,26.31,0,0,0-5.313,3.126" transform="translate(-43.557 -60.318)" fill="#455a64"/>
            <path id="Trazado_626504" data-name="Trazado 626504" d="M163.318,230.438c.018.047.347-.055.867-.259.261-.1.568-.229.909-.376s.684-.36,1.057-.564a11.961,11.961,0,0,0,2.564-1.7,14.6,14.6,0,0,0-2.739,1.378c-.369.2-.71.419-1.034.584s-.617.309-.861.44c-.486.261-.781.446-.762.493" transform="translate(-44.399 -61.857)" fill="#455a64"/>
            <path id="Trazado_626505" data-name="Trazado 626505" d="M206.225,197.189s4.013-2.922,6.739,2.591-1.633,6.778-1.633,6.778a37.972,37.972,0,0,1-5.106-9.37" transform="translate(-56.064 -53.398)" fill="#455a64"/>
            <path id="Trazado_626506" data-name="Trazado 626506" d="M199.386,188.63a6.407,6.407,0,0,0,.245,1.074c.185.684.448,1.679.81,2.9l.728,1.946.41,1.083c.071.186.142.376.215.566s.173.374.261.565c.362.759.741,1.557,1.133,2.382l.3.624c.1.211.229.407.343.614l.722,1.243.723,1.243c.123.2.229.412.363.6l.4.569,1.509,2.164c.123.171.235.346.362.507l.387.468.74.894,1.332,1.6c.877.915,1.609,1.634,2.112,2.133a6.385,6.385,0,0,0,.813.746,6.518,6.518,0,0,0-.711-.843l-2.029-2.213-1.287-1.615-.719-.9c-.124-.154-.25-.309-.376-.468s-.234-.336-.353-.508l-1.482-2.162-.39-.566c-.133-.189-.237-.4-.358-.6l-.717-1.235-.718-1.233c-.114-.205-.245-.4-.343-.609l-.3-.619c-.4-.817-.78-1.6-1.145-2.357-.09-.189-.187-.371-.266-.558l-.221-.56c-.145-.368-.287-.725-.423-1.07l-.767-1.92-.916-2.852a6.54,6.54,0,0,0-.382-1.036" transform="translate(-54.204 -51.281)" fill="#263238"/>
            <path id="Trazado_626507" data-name="Trazado 626507" d="M183.474,234.107a1.239,1.239,0,0,1,.853,1.493c-.313,1.238-.825,3.182-1.236,4.371a3.143,3.143,0,0,1-.545,1.078,1.016,1.016,0,0,1-1.852-.526,3.241,3.241,0,0,1,.106-1.27c.256-1.154.726-2.889,1.134-4.3a1.24,1.24,0,0,1,1.541-.845" transform="translate(-49.115 -63.631)" fill="#ffbe9d"/>
            <path id="Trazado_626508" data-name="Trazado 626508" d="M186.181,236.869a1.239,1.239,0,0,1,.853,1.493c-.313,1.238-.824,3.182-1.236,4.371a3.143,3.143,0,0,1-.545,1.078,1.016,1.016,0,0,1-1.852-.526,3.242,3.242,0,0,1,.106-1.27c.256-1.153.726-2.889,1.135-4.3a1.239,1.239,0,0,1,1.541-.845" transform="translate(-49.851 -64.381)" fill="#ffbe9d"/>
            <path id="Trazado_626509" data-name="Trazado 626509" d="M188.935,238.53a1.073,1.073,0,0,1,.738,1.293c-.271,1.072-.714,2.755-1.07,3.785a2.728,2.728,0,0,1-.473.934.88.88,0,0,1-1.6-.455,2.809,2.809,0,0,1,.092-1.1c.222-1,.628-2.5.982-3.726a1.073,1.073,0,0,1,1.335-.731" transform="translate(-50.702 -64.835)" fill="#ffbe9d"/>
            <path id="Trazado_626510" data-name="Trazado 626510" d="M191.9,238.864a1.078,1.078,0,0,1,.742,1.3c-.272,1.078-.717,2.769-1.075,3.8a2.747,2.747,0,0,1-.475.939.884.884,0,0,1-1.611-.457,2.821,2.821,0,0,1,.092-1.105c.223-1,.631-2.513.987-3.743a1.078,1.078,0,0,1,1.341-.735" transform="translate(-51.505 -64.926)" fill="#ffbe9d"/>
            <path id="Trazado_626511" data-name="Trazado 626511" d="M183.569,241.995A15.068,15.068,0,0,1,185,237.45a15.068,15.068,0,0,1-1.435,4.545" transform="translate(-49.899 -64.553)" fill="#eb996e"/>
            <path id="Trazado_626512" data-name="Trazado 626512" d="M189.2,244.253a29.265,29.265,0,0,1,1.361-4.577,10.268,10.268,0,0,1-1.361,4.577" transform="translate(-51.432 -65.158)" fill="#eb996e"/>
            <path id="Trazado_626513" data-name="Trazado 626513" d="M186.414,243.888a29.262,29.262,0,0,1,1.361-4.577,10.244,10.244,0,0,1-1.361,4.577" transform="translate(-50.673 -65.059)" fill="#eb996e"/>
            <path id="Trazado_626514" data-name="Trazado 626514" d="M232.134,161.032c.083.063-2.9,4.118-6.668,9.055s-6.887,8.89-6.97,8.827,2.9-4.118,6.668-9.057,6.886-8.888,6.969-8.825" transform="translate(-59.4 -43.778)" fill="#263238"/>
            <path id="Trazado_626515" data-name="Trazado 626515" d="M253.53,176.9c.044.095-6.234,3.1-14.022,6.717s-14.139,6.469-14.183,6.373,6.234-3.1,14.024-6.717,14.137-6.468,14.181-6.373" transform="translate(-61.257 -48.092)" fill="#263238"/>
            <path id="Trazado_626516" data-name="Trazado 626516" d="M252.613,209.2c-.01.1-4.485-.242-9.994-.773s-9.969-1.047-9.959-1.151,4.484.242,10,.773,9.968,1.047,9.957,1.151" transform="translate(-63.251 -56.345)" fill="#263238"/>
            <path id="Trazado_626517" data-name="Trazado 626517" d="M102.3,222.673l4.944,28.108a9.252,9.252,0,0,0,10.418,7.485,9.152,9.152,0,0,0,7.865-10.517l-.8-4.838s6.917-1.875,6.2-8.82c-.348-3.348-1.633-10.178-2.87-16.355A13.25,13.25,0,0,0,112.9,207.375a12.933,12.933,0,0,0-10.6,15.3" transform="translate(-27.738 -56.33)" fill="#ffbe9d"/>
            <path id="Trazado_626518" data-name="Trazado 626518" d="M129.667,255.692a16.707,16.707,0,0,1-9.478-1.531s2.752,4.745,9.7,3.326Z" transform="translate(-32.675 -69.096)" fill="#eb996e"/>
            <path id="Trazado_626519" data-name="Trazado 626519" d="M134.947,227.81a1,1,0,0,1-.853,1.109.968.968,0,0,1-1.141-.775,1,1,0,0,1,.852-1.11.968.968,0,0,1,1.142.776" transform="translate(-36.142 -61.717)" fill="#263238"/>
            <path id="Trazado_626520" data-name="Trazado 626520" d="M134.524,225.486c-.109.143-.936-.326-2.018-.2-1.082.11-1.812.748-1.945.631-.065-.051.036-.3.352-.585a2.794,2.794,0,0,1,1.538-.665,2.7,2.7,0,0,1,1.625.321c.362.214.5.435.447.5" transform="translate(-35.489 -61.073)" fill="#263238"/>
            <path id="Trazado_626521" data-name="Trazado 626521" d="M120.969,229.495a1,1,0,0,1-.853,1.109.968.968,0,0,1-1.141-.775,1,1,0,0,1,.852-1.11.967.967,0,0,1,1.142.776" transform="translate(-32.342 -62.175)" fill="#263238"/>
            <path id="Trazado_626522" data-name="Trazado 626522" d="M120.167,227.411c-.11.143-.937-.325-2.018-.2-1.082.11-1.813.748-1.946.631-.064-.052.034-.3.352-.586a2.8,2.8,0,0,1,1.539-.665,2.706,2.706,0,0,1,1.625.321c.361.214.5.435.447.5" transform="translate(-31.586 -61.596)" fill="#263238"/>
            <path id="Trazado_626523" data-name="Trazado 626523" d="M127.738,235.552a7.278,7.278,0,0,1,1.72-.511c.273-.059.529-.143.553-.334a1.379,1.379,0,0,0-.279-.786l-1.058-1.98a35.51,35.51,0,0,1-2.467-5.213,35.852,35.852,0,0,1,2.887,5.005c.358.7.7,1.36,1.025,2a1.566,1.566,0,0,1,.268,1.052.691.691,0,0,1-.408.449,1.926,1.926,0,0,1-.462.117,7.179,7.179,0,0,1-1.78.2" transform="translate(-34.309 -61.638)" fill="#263238"/>
            <path id="Trazado_626524" data-name="Trazado 626524" d="M124.013,240.354c.175-.03.311,1.126,1.412,1.833s2.337.439,2.364.6c.025.071-.253.256-.779.33a2.976,2.976,0,0,1-1.965-.435,2.519,2.519,0,0,1-1.11-1.547c-.1-.478,0-.78.078-.782" transform="translate(-33.681 -65.342)" fill="#263238"/>
            <path id="Trazado_626525" data-name="Trazado 626525" d="M119.545,222.6c-.073.3-1.169.287-2.421.581-1.257.269-2.239.751-2.438.51-.09-.116.058-.408.438-.736a4.381,4.381,0,0,1,3.7-.832c.487.133.749.333.719.476" transform="translate(-31.172 -60.356)" fill="#263238"/>
            <path id="Trazado_626526" data-name="Trazado 626526" d="M133.8,222.164c-.162.264-.936.1-1.834.186-.9.058-1.636.35-1.841.116-.091-.114,0-.37.305-.636a2.7,2.7,0,0,1,2.961-.244c.346.213.479.451.409.578" transform="translate(-35.368 -60.15)" fill="#263238"/>
            <path id="Trazado_626527" data-name="Trazado 626527" d="M127.329,204.122a2.453,2.453,0,0,0-3.2.2,2.216,2.216,0,0,0-.619-2.913,3.754,3.754,0,0,0-3.186-.462,11.026,11.026,0,0,0-2.972,1.461,1.118,1.118,0,0,0-.493-1.13,2.575,2.575,0,0,0-1.249-.392,9.487,9.487,0,0,0-5.25,1.179,32.685,32.685,0,0,0-4.859,3.295h.006a23.075,23.075,0,0,0-4.439,4.75l-.055.049a7.74,7.74,0,0,0-1.739,5.042c.573,5,2.229,7.889,3.161,12.622a1.691,1.691,0,0,0,.357.878c.578.6,1.612.092,2.157-.537a8.935,8.935,0,0,0,1.849-5.626c.065-2.008-.22-4.015-.175-6.024,0-.045,0-.092,0-.142a10.409,10.409,0,0,1,.147-1.535c.087-.324.938-3.194,3.7-3.664,2.926-.5,8.7,2.344,11.564,1.891s3.009-2.472,3.009-2.472l1.683,3.423a10.288,10.288,0,0,0,.271-4.275,4.838,4.838,0,0,0,1.42-2.5,3.206,3.206,0,0,0-1.091-3.123" transform="translate(-26.985 -54.588)" fill="#263238"/>
            <path id="Trazado_626528" data-name="Trazado 626528" d="M104.543,232.522c-.126-.038-5-.862-4.3,3.861s5.375,3.051,5.363,2.914-1.068-6.775-1.068-6.775" transform="translate(-27.234 -63.192)" fill="#ffbe9d"/>
            <path id="Trazado_626529" data-name="Trazado 626529" d="M104.351,238.341c-.023-.012-.075.07-.207.154a.857.857,0,0,1-.623.1,2.062,2.062,0,0,1-1.23-1.688,2.717,2.717,0,0,1,.058-1.212.962.962,0,0,1,.534-.722.432.432,0,0,1,.526.154c.084.123.068.221.094.226s.092-.094.024-.283a.535.535,0,0,0-.233-.269.648.648,0,0,0-.481-.053,1.176,1.176,0,0,0-.763.859,2.786,2.786,0,0,0-.092,1.358,2.168,2.168,0,0,0,1.524,1.863.913.913,0,0,0,.746-.236c.131-.138.14-.248.122-.253" transform="translate(-27.707 -63.813)" fill="#eb996e"/>
            <path id="Trazado_626530" data-name="Trazado 626530" d="M86.831,279.514a.855.855,0,0,1,.415-.066,1.627,1.627,0,0,1,1.077.535,2.349,2.349,0,0,1,.629,1.79,10.309,10.309,0,0,1-.554,2.45,3.358,3.358,0,0,0,.165,2.8c.518.9,1.575,1.594,2.007,2.851a3.37,3.37,0,0,1-1.057,3.659,3.444,3.444,0,0,1-1.967.764,7.352,7.352,0,0,1-2.107-.342,3.782,3.782,0,0,0-1.959-.125,2.855,2.855,0,0,0-1.45,1.181,10.313,10.313,0,0,1-1.242,1.552,2.473,2.473,0,0,1-1.839.675,3.666,3.666,0,0,1-2.906-1.929,7.026,7.026,0,0,1-.741-2.97c-.055-.932-.023-1.768-.042-2.5a11.883,11.883,0,0,0-.16-1.859,10.007,10.007,0,0,0-.443-1.529,1.39,1.39,0,0,1,.209.363,5.429,5.429,0,0,1,.378,1.137,10.907,10.907,0,0,1,.228,1.881c.039.737.026,1.574.1,2.487a6.841,6.841,0,0,0,.748,2.836,3.359,3.359,0,0,0,2.648,1.733,2.118,2.118,0,0,0,1.579-.594,10.263,10.263,0,0,0,1.188-1.507,3.214,3.214,0,0,1,1.643-1.322,4.117,4.117,0,0,1,2.157.12,7.1,7.1,0,0,0,2,.333,3.067,3.067,0,0,0,1.752-.676,3.014,3.014,0,0,0,.958-3.261c-.358-1.113-1.379-1.82-1.946-2.8a2.891,2.891,0,0,1-.415-1.579,5.655,5.655,0,0,1,.263-1.46,10.548,10.548,0,0,0,.6-2.385,2.207,2.207,0,0,0-.526-1.681,1.609,1.609,0,0,0-.975-.56c-.263-.032-.4.01-.408-.009" transform="translate(-20.295 -75.97)" fill="#fafafa"/>
            <path id="Trazado_626531" data-name="Trazado 626531" d="M94.133,342.08c.022-.007.046.173.217.449a1.91,1.91,0,0,0,1.131.786,2.263,2.263,0,0,0,2.077-.438,4.332,4.332,0,0,0,1.393-2.544c.232-1.086.192-2.325.4-3.657a5.958,5.958,0,0,1,.672-1.99,3.321,3.321,0,0,1,1.673-1.5,4.772,4.772,0,0,1,2.34-.214c.789.087,1.568.264,2.361.366a5.612,5.612,0,0,0,2.374-.114,5.374,5.374,0,0,0,2.13-1.182,4.621,4.621,0,0,0,1.308-2.031,3.867,3.867,0,0,0-.043-2.322A4,4,0,0,0,109,324.874c-1.429-.162-2.77.545-4.145.572a3.972,3.972,0,0,1-1.922-.432,9.75,9.75,0,0,1-1.508-.968,9.193,9.193,0,0,0-2.551-1.559,2.6,2.6,0,0,0-2.151.141,1.952,1.952,0,0,0-.933,1.015,4.942,4.942,0,0,0-.116.485,1.088,1.088,0,0,1,.043-.509,1.978,1.978,0,0,1,.933-1.12,2.71,2.71,0,0,1,1.016-.349,3.152,3.152,0,0,1,1.271.135,9.2,9.2,0,0,1,2.646,1.545,5.174,5.174,0,0,0,3.26,1.3,10.319,10.319,0,0,0,1.985-.365,6.227,6.227,0,0,1,2.211-.24,4.345,4.345,0,0,1,3.477,3.047,4.234,4.234,0,0,1,.052,2.545,4.979,4.979,0,0,1-1.414,2.2,5.741,5.741,0,0,1-2.283,1.266,5.959,5.959,0,0,1-2.526.119c-.815-.108-1.592-.287-2.353-.374a4.435,4.435,0,0,0-2.17.179,2.984,2.984,0,0,0-1.513,1.341,5.673,5.673,0,0,0-.65,1.875c-.216,1.285-.192,2.539-.448,3.66a4.525,4.525,0,0,1-1.525,2.656,2.418,2.418,0,0,1-2.249.412,1.937,1.937,0,0,1-1.156-.888,1.1,1.1,0,0,1-.151-.488" transform="translate(-25.591 -87.575)" fill="#fafafa"/>
            <path id="Trazado_626532" data-name="Trazado 626532" d="M122.817,288.261a2.577,2.577,0,0,1,.5-.68,3.882,3.882,0,0,1,2.155-1.094,3.761,3.761,0,0,1,3.482,1.386,4.017,4.017,0,0,1,.877,2.252,5.977,5.977,0,0,0,.552,2.534,1.99,1.99,0,0,0,1.065.79,5.4,5.4,0,0,0,1.445.224c.508.026,1.033.023,1.575.079a2.972,2.972,0,0,1,1.6.561,1.989,1.989,0,0,1,.556.71,1.959,1.959,0,0,1,.145.909,3.035,3.035,0,0,1-.757,1.646,4.616,4.616,0,0,1-1.448,1.144c-.55.28-1.124.5-1.682.762a5.975,5.975,0,0,0-1.553.956,3.037,3.037,0,0,0-.909,1.55,21.872,21.872,0,0,0-.09,3.937,5.077,5.077,0,0,1-.554,2.036,2.4,2.4,0,0,1-1.733,1.3,2.666,2.666,0,0,1-2.087-.69,6.425,6.425,0,0,1-1.391-1.7,17.164,17.164,0,0,0-1.125-1.788,3.28,3.28,0,0,0-1.549-1.207,2.792,2.792,0,0,0-1.907.122,11.545,11.545,0,0,0-1.772.947,10.243,10.243,0,0,1-1.811.943,5.494,5.494,0,0,1-2,.331,6.262,6.262,0,0,1-3.647-1.279,5.2,5.2,0,0,1-2-3.081,3.555,3.555,0,0,1,.869-3.324,3.4,3.4,0,0,1,1.5-.775,12.517,12.517,0,0,1,1.564-.272,5.043,5.043,0,0,0,2.682-.908,5.324,5.324,0,0,0,1.428-2.16c.309-.778.518-1.552.783-2.256a6.653,6.653,0,0,1,.983-1.858,8.183,8.183,0,0,1,1.272-1.224,4.425,4.425,0,0,1,2.177-1.055.962.962,0,0,1,.805.226,1.246,1.246,0,0,0-.8-.151,4.507,4.507,0,0,0-2.093,1.094,8.278,8.278,0,0,0-1.222,1.22,6.531,6.531,0,0,0-.925,1.82c-.253.7-.451,1.47-.757,2.271a5.551,5.551,0,0,1-1.481,2.278,5.287,5.287,0,0,1-2.814.992,5.083,5.083,0,0,0-2.886.987,3.24,3.24,0,0,0-.758,3.028,4.862,4.862,0,0,0,1.884,2.869,5.916,5.916,0,0,0,3.441,1.2,5.15,5.15,0,0,0,1.865-.313,9.925,9.925,0,0,0,1.745-.916,11.783,11.783,0,0,1,1.831-.979,3.168,3.168,0,0,1,2.157-.132,3.647,3.647,0,0,1,1.734,1.335,17.374,17.374,0,0,1,1.152,1.828,6.076,6.076,0,0,0,1.3,1.594,2.29,2.29,0,0,0,1.79.609,2.021,2.021,0,0,0,1.461-1.109,4.716,4.716,0,0,0,.512-1.882,21.275,21.275,0,0,1,.108-4,3.41,3.41,0,0,1,1.02-1.726,6.293,6.293,0,0,1,1.648-1.011c.572-.261,1.142-.481,1.673-.749a4.292,4.292,0,0,0,1.349-1.054,2.732,2.732,0,0,0,.689-1.458,1.644,1.644,0,0,0-.115-.752,1.665,1.665,0,0,0-.462-.595,2.677,2.677,0,0,0-1.43-.5c-.518-.057-1.041-.059-1.558-.09a5.634,5.634,0,0,1-1.52-.251,2.264,2.264,0,0,1-1.2-.909,6.084,6.084,0,0,1-.567-2.653,3.8,3.8,0,0,0-.8-2.146,3.609,3.609,0,0,0-3.3-1.373,3.9,3.9,0,0,0-2.122,1,7.752,7.752,0,0,0-.558.625" transform="translate(-29.542 -77.871)" fill="#fafafa"/>
            <path id="Trazado_626533" data-name="Trazado 626533" d="M109,269.861a2.564,2.564,0,0,1-1.51.742,4.867,4.867,0,0,1-1.854.013,3.213,3.213,0,0,1-1.988-1.14,4.336,4.336,0,0,1-.716-2.168,5.88,5.88,0,0,1,.13-1.84,2.458,2.458,0,0,1,.774-1.49,6.725,6.725,0,0,0-.511,1.544,6.345,6.345,0,0,0-.046,1.753,4.224,4.224,0,0,0,.673,1.975,2.973,2.973,0,0,0,1.755,1.025,5.067,5.067,0,0,0,1.736.064,7.692,7.692,0,0,0,1.557-.478" transform="translate(-27.976 -71.764)" fill="#fafafa"/>
            <path id="Trazado_626534" data-name="Trazado 626534" d="M148.474,269.42c.012.005-.005.073-.052.2a2.074,2.074,0,0,1-.285.521,3.231,3.231,0,0,1-1.81,1.208,3.283,3.283,0,0,1-1.538.034,4.069,4.069,0,0,1-1.548-.827,5.136,5.136,0,0,0-1.535-.94,1.387,1.387,0,0,0-1.552.615,14.019,14.019,0,0,0-.9,1.772,3.594,3.594,0,0,1-1.285,1.467,3.451,3.451,0,0,1-4.86-1.049,1.644,1.644,0,0,1-.3-.739c.033-.014.125.256.422.656a3.546,3.546,0,0,0,1.644,1.228,3.233,3.233,0,0,0,2.9-.388,3.279,3.279,0,0,0,1.146-1.342,13.271,13.271,0,0,1,.92-1.828,1.962,1.962,0,0,1,.864-.707,1.727,1.727,0,0,1,1.094-.042,5.258,5.258,0,0,1,1.648,1.02,3.815,3.815,0,0,0,1.41.8,3.073,3.073,0,0,0,1.4.011,3.248,3.248,0,0,0,1.758-1.038c.319-.379.419-.647.453-.632" transform="translate(-36.106 -73.182)" fill="#fafafa"/>
            <path id="Trazado_626535" data-name="Trazado 626535" d="M159.689,301.908a3.971,3.971,0,0,1-.808-.527,16.759,16.759,0,0,1-1.986-1.727,9.269,9.269,0,0,1-1.155-1.426,4.871,4.871,0,0,1-.725-2,3.947,3.947,0,0,1,.369-2.337,3.051,3.051,0,0,1,.824-.982,8.909,8.909,0,0,1,1.075-.685,4.5,4.5,0,0,0,.969-.7,2.261,2.261,0,0,0,.558-.96,5.533,5.533,0,0,0,.072-2.2,11.456,11.456,0,0,1-.149-2.1,2.534,2.534,0,0,1,.676-1.741,3.855,3.855,0,0,1,2.454-.985c.663,0,.926.34.9.339a1.59,1.59,0,0,0-.9-.191,3.882,3.882,0,0,0-2.27,1.028,2.281,2.281,0,0,0-.55,1.567,11.713,11.713,0,0,0,.182,2.036,5.764,5.764,0,0,1-.063,2.351,2.627,2.627,0,0,1-.644,1.118,4.79,4.79,0,0,1-1.048.763,3.932,3.932,0,0,0-1.761,1.514,3.629,3.629,0,0,0-.351,2.121,5.859,5.859,0,0,0,1.729,3.288c1.5,1.6,2.648,2.38,2.6,2.438" transform="translate(-42.132 -77.082)" fill="#fafafa"/>
            <path id="Trazado_626536" data-name="Trazado 626536" d="M137.805,328.6a1.165,1.165,0,0,1,.341-.023c.223,0,.552.011.974.056a9.488,9.488,0,0,1,3.448,1,6.287,6.287,0,0,1,3.264,4.132,4.386,4.386,0,0,1-.454,3.154,4.261,4.261,0,0,1-2.737,2.046,3.85,3.85,0,0,1-1.768-.1,2.383,2.383,0,0,0-1.517-.027,2.907,2.907,0,0,0-1.176.906,8.539,8.539,0,0,0-.812,1.26,4.91,4.91,0,0,1-1.9,2.167,3.575,3.575,0,0,1-2.5.3,3.163,3.163,0,0,1-1.739-1.133,3.491,3.491,0,0,1-.668-1.415,2.892,2.892,0,0,1-.054-.983.916.916,0,0,1,.076-.334,4.9,4.9,0,0,0,.122,1.282,3.461,3.461,0,0,0,.689,1.316,2.962,2.962,0,0,0,1.638,1.006,3.316,3.316,0,0,0,2.289-.312,4.636,4.636,0,0,0,1.74-2.061,4.672,4.672,0,0,1,2.162-2.342,2.751,2.751,0,0,1,1.735.008,3.465,3.465,0,0,0,1.6.092,3.911,3.911,0,0,0,2.492-1.861,4.048,4.048,0,0,0,.433-2.9,6.063,6.063,0,0,0-3.051-3.968,10.049,10.049,0,0,0-3.339-1.094c-.829-.13-1.3-.147-1.3-.18" transform="translate(-35.475 -89.327)" fill="#fafafa"/>
            <path id="Trazado_626537" data-name="Trazado 626537" d="M119.313,360.408a5.06,5.06,0,0,0-.683-1.5,3.631,3.631,0,0,0-1.362-1.1,2.873,2.873,0,0,0-3.754,1.008,3.63,3.63,0,0,0-.628,1.634,5.08,5.08,0,0,0,.16,1.641c-.018.01-.121-.123-.238-.4a2.91,2.91,0,0,1-.189-1.263,3.679,3.679,0,0,1,.605-1.805,3.14,3.14,0,0,1,4.2-1.126,3.681,3.681,0,0,1,1.428,1.259,2.91,2.91,0,0,1,.469,1.189c.038.3.016.467-.005.467" transform="translate(-30.616 -97.086)" fill="#fafafa"/>
            <path id="Trazado_626538" data-name="Trazado 626538" d="M118.082,374.939c-.036.007-.068-.342-.328-.894a3.83,3.83,0,0,0-1.746-1.793,3.6,3.6,0,0,0-3.55.269,5.679,5.679,0,0,0-1.47,1.659,4.824,4.824,0,0,1-.832.947,1.938,1.938,0,0,1-1.269.471,3.156,3.156,0,0,1-2.185-1.313,7.252,7.252,0,0,0-1.542-1.613,2.725,2.725,0,0,0-1.887-.339,3.741,3.741,0,0,0-1.594.663,6.449,6.449,0,0,0-1.681,1.93,7.511,7.511,0,0,1-.5.823,3.456,3.456,0,0,1,.368-.895,6.082,6.082,0,0,1,1.65-2.074,3.952,3.952,0,0,1,1.7-.758,3.029,3.029,0,0,1,2.123.352,7.358,7.358,0,0,1,1.643,1.67,2.826,2.826,0,0,0,1.908,1.174c.778.023,1.348-.628,1.793-1.256a5.91,5.91,0,0,1,1.579-1.734,3.767,3.767,0,0,1,5.623,1.758,3.136,3.136,0,0,1,.187.7c.016.165.018.251.005.253" transform="translate(-27.05 -101.022)" fill="#fafafa"/>
            <path id="Trazado_626539" data-name="Trazado 626539" d="M129.082,339.368a8.5,8.5,0,0,0-2.094-.923,6.528,6.528,0,0,0-2.45-.132,5.867,5.867,0,0,0-2.765,1.076,5.039,5.039,0,0,0-1.748,2.366,5.242,5.242,0,0,0-.264,2.415,6.833,6.833,0,0,0,.773,2.141,1.6,1.6,0,0,1-.408-.484,4.312,4.312,0,0,1-.629-1.616,5.287,5.287,0,0,1,2.05-5.128,6.019,6.019,0,0,1,2.95-1.118,6.4,6.4,0,0,1,2.562.221,5.042,5.042,0,0,1,1.559.751c.328.245.478.415.465.43" transform="translate(-32.465 -91.868)" fill="#fafafa"/>
          </g>
        </g>
      </g>
    </g>
    <rect id="Rectángulo_357098" data-name="Rectángulo 357098" width="610" height="288" transform="translate(810 12919)" fill="none"/>
  </g>
</svg>
