<svg xmlns="http://www.w3.org/2000/svg" xmlns:xlink="http://www.w3.org/1999/xlink" width="435" height="89.256" viewBox="0 0 435 89.256">
  <defs>
    <filter id="Trazado_749456" x="0" y="29.999" width="435" height="59" filterUnits="userSpaceOnUse">
      <feOffset dy="3" input="SourceAlpha"/>
      <feGaussianBlur stdDeviation="3" result="blur"/>
      <feFlood flood-opacity="0.161"/>
      <feComposite operator="in" in2="blur"/>
      <feComposite in="SourceGraphic"/>
    </filter>
    <filter id="Trazado_502571" x="0" y="0" width="89.256" height="89.256" filterUnits="userSpaceOnUse">
      <feOffset dy="3" input="SourceAlpha"/>
      <feGaussianBlur stdDeviation="3" result="blur-2"/>
      <feFlood flood-opacity="0.161"/>
      <feComposite operator="in" in2="blur-2"/>
      <feComposite in="SourceGraphic"/>
    </filter>
  </defs>
  <g id="Grupo_1034321" data-name="Grupo 1034321" transform="translate(-840 -1595.873)">
    <g transform="matrix(1, 0, 0, 1, 840, 1595.87)" filter="url(#Trazado_749456)">
      <path id="Trazado_749456-2" data-name="Trazado 749456" d="M0,0H407a10,10,0,0,1,10,10V41H0Z" transform="translate(9 36)" fill="#fff"/>
    </g>
    <path id="Trazado_749457" data-name="Trazado 749457" d="M4.5,14.176V19H1.074V4.781H6.748a6.608,6.608,0,0,1,2.886.6,4.526,4.526,0,0,1,1.943,1.709,4.667,4.667,0,0,1,.688,2.515,4.114,4.114,0,0,1-1.489,3.325,6.179,6.179,0,0,1-4.087,1.245Zm0-2.646H6.748a2.118,2.118,0,0,0,1.519-.5,1.85,1.85,0,0,0,.522-1.406,2.287,2.287,0,0,0-.537-1.592,1.9,1.9,0,0,0-1.465-.605H4.5Zm8.9,2.09a6.236,6.236,0,0,1,.615-2.817,4.4,4.4,0,0,1,1.768-1.9,5.323,5.323,0,0,1,2.705-.664,4.858,4.858,0,0,1,3.74,1.47,5.64,5.64,0,0,1,1.367,4v.117a5.472,5.472,0,0,1-1.372,3.921,4.871,4.871,0,0,1-3.716,1.45,4.927,4.927,0,0,1-3.623-1.353,5.29,5.29,0,0,1-1.475-3.667Zm3.291.205a3.932,3.932,0,0,0,.459,2.148,1.529,1.529,0,0,0,1.357.684q1.758,0,1.8-2.705v-.332q0-2.842-1.816-2.842-1.65,0-1.787,2.451Zm14.746-2.412-1.084-.078a1.947,1.947,0,0,0-1.992.977V19H25.068V8.434h3.086l.107,1.357a2.548,2.548,0,0,1,2.314-1.553,3.209,3.209,0,0,1,.918.117ZM36.9,16.656a1.464,1.464,0,0,0,1.074-.376,1.379,1.379,0,0,0,.371-1.05h3.086a3.653,3.653,0,0,1-1.245,2.852A4.631,4.631,0,0,1,36.982,19.2,4.689,4.689,0,0,1,33.35,17.75a5.7,5.7,0,0,1-1.328-4v-.137a6.436,6.436,0,0,1,.591-2.827,4.3,4.3,0,0,1,1.7-1.885,5.081,5.081,0,0,1,2.637-.659,4.573,4.573,0,0,1,3.271,1.143,4.053,4.053,0,0,1,1.211,3.1H38.35a1.807,1.807,0,0,0-.4-1.26,1.382,1.382,0,0,0-1.074-.439q-1.279,0-1.494,1.631a11.507,11.507,0,0,0-.068,1.426,4.52,4.52,0,0,0,.381,2.207A1.319,1.319,0,0,0,36.9,16.656ZM47.939,19.2A5.432,5.432,0,0,1,44,17.745a5.008,5.008,0,0,1-1.5-3.774V13.7a6.489,6.489,0,0,1,.6-2.861,4.395,4.395,0,0,1,1.753-1.919,5.292,5.292,0,0,1,2.734-.679A4.574,4.574,0,0,1,51.1,9.62a5.43,5.43,0,0,1,1.289,3.853v1.279H45.85a2.372,2.372,0,0,0,.771,1.4,2.3,2.3,0,0,0,1.543.508,2.958,2.958,0,0,0,2.441-1.094l1.5,1.777a4.2,4.2,0,0,1-1.743,1.353A5.891,5.891,0,0,1,47.939,19.2Zm-.371-8.418q-1.445,0-1.719,1.914h3.32v-.254a1.63,1.63,0,0,0-.4-1.226A1.593,1.593,0,0,0,47.568,10.777Zm9.17-2.344.107,1.24a3.583,3.583,0,0,1,3.018-1.436,3.015,3.015,0,0,1,2.466.986,4.7,4.7,0,0,1,.845,2.969V19h-3.3V12.33a1.783,1.783,0,0,0-.322-1.177,1.491,1.491,0,0,0-1.172-.376,1.569,1.569,0,0,0-1.436.762V19H53.652V8.434Zm12.09-2.627V8.434h1.738v2.285H68.828v4.834a1.234,1.234,0,0,0,.215.83,1.152,1.152,0,0,0,.85.234,4.828,4.828,0,0,0,.82-.059v2.354a6.074,6.074,0,0,1-1.855.283,3.448,3.448,0,0,1-2.51-.8,3.282,3.282,0,0,1-.811-2.432V10.719H64.189V8.434h1.348V5.807ZM77.813,19a3.716,3.716,0,0,1-.312-.947A3.06,3.06,0,0,1,74.961,19.2a3.749,3.749,0,0,1-2.539-.9,2.875,2.875,0,0,1-1.045-2.271,2.955,2.955,0,0,1,1.27-2.6,6.468,6.468,0,0,1,3.691-.879h1.016v-.559q0-1.462-1.26-1.462a1.03,1.03,0,0,0-1.172,1.158H71.631a2.95,2.95,0,0,1,1.3-2.487,5.479,5.479,0,0,1,3.325-.956,4.8,4.8,0,0,1,3.193.986,3.429,3.429,0,0,1,1.2,2.705v4.678a4.79,4.79,0,0,0,.449,2.227V19Zm-2.061-2.148a1.836,1.836,0,0,0,1.021-.264,1.653,1.653,0,0,0,.581-.6V14.3H76.4q-1.719,0-1.719,1.543a.942.942,0,0,0,.3.728A1.1,1.1,0,0,0,75.752,16.852ZM86.016,8.434V19.361a3.836,3.836,0,0,1-1.074,2.891,4.127,4.127,0,0,1-2.969,1.016A7.009,7.009,0,0,1,80.42,23.1v-2.49a6.3,6.3,0,0,0,.928.088,1.2,1.2,0,0,0,1.367-1.357V8.434ZM82.471,5.709a1.469,1.469,0,0,1,.508-1.152,2.159,2.159,0,0,1,2.637,0,1.469,1.469,0,0,1,.508,1.152,1.469,1.469,0,0,1-.508,1.152,2.159,2.159,0,0,1-2.637,0A1.469,1.469,0,0,1,82.471,5.709ZM92.988,19.2a5.432,5.432,0,0,1-3.936-1.45,5.008,5.008,0,0,1-1.5-3.774V13.7a6.489,6.489,0,0,1,.6-2.861A4.395,4.395,0,0,1,89.9,8.917a5.292,5.292,0,0,1,2.734-.679A4.574,4.574,0,0,1,96.152,9.62a5.43,5.43,0,0,1,1.289,3.853v1.279H90.9a2.372,2.372,0,0,0,.771,1.4,2.3,2.3,0,0,0,1.543.508,2.958,2.958,0,0,0,2.441-1.094l1.5,1.777a4.2,4.2,0,0,1-1.743,1.353A5.891,5.891,0,0,1,92.988,19.2Zm-.371-8.418q-1.445,0-1.719,1.914h3.32v-.254a1.63,1.63,0,0,0-.4-1.226A1.593,1.593,0,0,0,92.617,10.777Zm16.66,5.254a.76.76,0,0,0-.439-.674,6.685,6.685,0,0,0-1.67-.527,7.615,7.615,0,0,1-2.031-.718,3.4,3.4,0,0,1-1.221-1.079,2.577,2.577,0,0,1-.42-1.455,2.92,2.92,0,0,1,1.2-2.4,4.948,4.948,0,0,1,3.145-.942,5.482,5.482,0,0,1,3.359.947,2.962,2.962,0,0,1,1.27,2.49h-3.3q0-1.27-1.338-1.27a1.326,1.326,0,0,0-.869.288.892.892,0,0,0-.352.718.819.819,0,0,0,.43.713,4.06,4.06,0,0,0,1.372.449,11.857,11.857,0,0,1,1.655.42,3.007,3.007,0,0,1,2.383,2.939,2.767,2.767,0,0,1-1.284,2.354,5.631,5.631,0,0,1-3.325.908,5.747,5.747,0,0,1-2.422-.488,4.05,4.05,0,0,1-1.66-1.328,3.007,3.007,0,0,1-.6-1.768h3.076a1.272,1.272,0,0,0,.488,1.069,2.009,2.009,0,0,0,1.2.337,1.58,1.58,0,0,0,1.011-.273A.875.875,0,0,0,109.277,16.031Zm4.3-2.412a6.236,6.236,0,0,1,.615-2.817,4.4,4.4,0,0,1,1.768-1.9,5.323,5.323,0,0,1,2.705-.664,4.858,4.858,0,0,1,3.74,1.47,5.64,5.64,0,0,1,1.367,4v.117a5.472,5.472,0,0,1-1.372,3.921,4.871,4.871,0,0,1-3.716,1.45,4.927,4.927,0,0,1-3.623-1.353,5.29,5.29,0,0,1-1.475-3.667Zm3.291.205a3.932,3.932,0,0,0,.459,2.148,1.529,1.529,0,0,0,1.357.684q1.758,0,1.8-2.705v-.332q0-2.842-1.816-2.842-1.65,0-1.787,2.451Zm18.164-.02a6.44,6.44,0,0,1-1.074,3.994,3.6,3.6,0,0,1-3.027,1.4,3.122,3.122,0,0,1-2.6-1.279L128.193,19h-2.949V4h3.291V9.283a3.013,3.013,0,0,1,2.373-1.045,3.6,3.6,0,0,1,3.047,1.416,6.473,6.473,0,0,1,1.074,3.984Zm-3.3-.21a4.3,4.3,0,0,0-.405-2.169,1.366,1.366,0,0,0-1.245-.648,1.576,1.576,0,0,0-1.543.848v4.192a1.585,1.585,0,0,0,1.563.838,1.4,1.4,0,0,0,1.475-1.131A8.121,8.121,0,0,0,131.729,13.595Zm11.143-2.183-1.084-.078a1.947,1.947,0,0,0-1.992.977V19H136.5V8.434h3.086l.107,1.357a2.548,2.548,0,0,1,2.314-1.553,3.209,3.209,0,0,1,.918.117Zm6.113,7.783a5.432,5.432,0,0,1-3.936-1.45,5.008,5.008,0,0,1-1.5-3.774V13.7a6.489,6.489,0,0,1,.6-2.861A4.395,4.395,0,0,1,145.9,8.917a5.292,5.292,0,0,1,2.734-.679,4.574,4.574,0,0,1,3.516,1.382,5.43,5.43,0,0,1,1.289,3.853v1.279h-6.543a2.372,2.372,0,0,0,.771,1.4,2.3,2.3,0,0,0,1.543.508,2.958,2.958,0,0,0,2.441-1.094l1.5,1.777a4.2,4.2,0,0,1-1.743,1.353A5.891,5.891,0,0,1,148.984,19.2Zm-.371-8.418q-1.445,0-1.719,1.914h3.32v-.254a1.63,1.63,0,0,0-.4-1.226A1.593,1.593,0,0,0,148.613,10.777Zm16.24,8.418a5.432,5.432,0,0,1-3.936-1.45,5.008,5.008,0,0,1-1.5-3.774V13.7a6.489,6.489,0,0,1,.6-2.861,4.395,4.395,0,0,1,1.753-1.919,5.292,5.292,0,0,1,2.734-.679,4.574,4.574,0,0,1,3.516,1.382,5.43,5.43,0,0,1,1.289,3.853v1.279h-6.543a2.372,2.372,0,0,0,.771,1.4,2.3,2.3,0,0,0,1.543.508,2.958,2.958,0,0,0,2.441-1.094l1.5,1.777a4.2,4.2,0,0,1-1.743,1.353A5.891,5.891,0,0,1,164.854,19.2Zm-.371-8.418q-1.445,0-1.719,1.914h3.32v-.254a1.63,1.63,0,0,0-.4-1.226A1.593,1.593,0,0,0,164.482,10.777ZM174.1,19h-3.3V4h3.3ZM184.219,8.434l.107,1.24a3.633,3.633,0,0,1,3.018-1.436,2.675,2.675,0,0,1,2.705,1.592,3.516,3.516,0,0,1,3.105-1.592q3.213,0,3.3,3.887V19h-3.3V12.33a2.014,2.014,0,0,0-.273-1.182,1.164,1.164,0,0,0-1-.371,1.559,1.559,0,0,0-1.455.869l.01.137V19h-3.3V12.35a2.117,2.117,0,0,0-.264-1.2,1.161,1.161,0,0,0-1.006-.371,1.578,1.578,0,0,0-1.445.869V19h-3.291V8.434ZM204.287,19a3.716,3.716,0,0,1-.312-.947,3.06,3.06,0,0,1-2.539,1.143,3.749,3.749,0,0,1-2.539-.9,2.875,2.875,0,0,1-1.045-2.271,2.955,2.955,0,0,1,1.27-2.6,6.468,6.468,0,0,1,3.691-.879h1.016v-.559q0-1.462-1.26-1.462a1.03,1.03,0,0,0-1.172,1.158h-3.291a2.95,2.95,0,0,1,1.3-2.487,5.479,5.479,0,0,1,3.325-.956,4.8,4.8,0,0,1,3.193.986,3.429,3.429,0,0,1,1.2,2.705v4.678a4.79,4.79,0,0,0,.449,2.227V19Zm-2.061-2.148a1.836,1.836,0,0,0,1.021-.264,1.653,1.653,0,0,0,.581-.6V14.3h-.957q-1.719,0-1.719,1.543a.942.942,0,0,0,.3.728A1.1,1.1,0,0,0,202.227,16.852Zm13.115-5.439-1.084-.078a1.947,1.947,0,0,0-1.992.977V19h-3.291V8.434h3.086l.107,1.357a2.548,2.548,0,0,1,2.314-1.553,3.209,3.209,0,0,1,.918.117Zm.615,2.227a7.134,7.134,0,0,1,.527-2.832A4.245,4.245,0,0,1,218,8.907a3.99,3.99,0,0,1,2.295-.669,3.173,3.173,0,0,1,2.578,1.113l.117-.918h2.988V18.6a4.455,4.455,0,0,1-.649,2.427,4.167,4.167,0,0,1-1.88,1.582,6.91,6.91,0,0,1-2.852.552,5.961,5.961,0,0,1-2.251-.439,4.063,4.063,0,0,1-1.665-1.143l1.377-1.934a3.018,3.018,0,0,0,2.422,1.084,1.96,1.96,0,0,0,2.188-2.246V18.15a3.09,3.09,0,0,1-2.393,1.045,3.819,3.819,0,0,1-3.125-1.479,6.13,6.13,0,0,1-1.191-3.96Zm3.3.205a3.759,3.759,0,0,0,.488,2.056,1.541,1.541,0,0,0,1.367.757,1.748,1.748,0,0,0,1.553-.713V11.5a1.7,1.7,0,0,0-1.533-.723,1.551,1.551,0,0,0-1.377.786A4.287,4.287,0,0,0,219.258,13.844Zm13.7,5.352a5.432,5.432,0,0,1-3.936-1.45,5.008,5.008,0,0,1-1.5-3.774V13.7a6.489,6.489,0,0,1,.6-2.861,4.395,4.395,0,0,1,1.753-1.919,5.292,5.292,0,0,1,2.734-.679,4.574,4.574,0,0,1,3.516,1.382,5.43,5.43,0,0,1,1.289,3.853v1.279h-6.543a2.372,2.372,0,0,0,.771,1.4,2.3,2.3,0,0,0,1.543.508,2.958,2.958,0,0,0,2.441-1.094l1.5,1.777a4.2,4.2,0,0,1-1.743,1.353A5.891,5.891,0,0,1,232.959,19.2Zm-.371-8.418q-1.445,0-1.719,1.914h3.32v-.254a1.63,1.63,0,0,0-.4-1.226A1.593,1.593,0,0,0,232.588,10.777Zm9.17-2.344.107,1.24a3.583,3.583,0,0,1,3.018-1.436,3.015,3.015,0,0,1,2.466.986,4.7,4.7,0,0,1,.845,2.969V19h-3.3V12.33a1.783,1.783,0,0,0-.322-1.177,1.491,1.491,0,0,0-1.172-.376,1.569,1.569,0,0,0-1.436.762V19h-3.291V8.434ZM264.8,13.8A6.44,6.44,0,0,1,263.73,17.8a3.6,3.6,0,0,1-3.027,1.4,3.122,3.122,0,0,1-2.6-1.279L257.969,19H255.02V4h3.291V9.283a3.012,3.012,0,0,1,2.373-1.045,3.6,3.6,0,0,1,3.047,1.416,6.473,6.473,0,0,1,1.074,3.984Zm-3.3-.21a4.3,4.3,0,0,0-.405-2.169,1.366,1.366,0,0,0-1.245-.648,1.576,1.576,0,0,0-1.543.848v4.192a1.585,1.585,0,0,0,1.563.838,1.4,1.4,0,0,0,1.475-1.131A8.122,8.122,0,0,0,261.5,13.595Zm11.143-2.183-1.084-.078a1.947,1.947,0,0,0-1.992.977V19h-3.291V8.434h3.086l.107,1.357a2.548,2.548,0,0,1,2.314-1.553,3.209,3.209,0,0,1,.918.117Zm7.48,6.445A3.393,3.393,0,0,1,277.3,19.2a3.328,3.328,0,0,1-2.632-1.011,4.251,4.251,0,0,1-.894-2.905V8.434h3.291V15.3a1.183,1.183,0,0,0,1.318,1.357A1.72,1.72,0,0,0,280,15.846V8.434h3.311V19h-3.086Zm8.818-12.051V8.434h1.738v2.285h-1.738v4.834a1.234,1.234,0,0,0,.215.83,1.152,1.152,0,0,0,.85.234,4.828,4.828,0,0,0,.82-.059v2.354a6.074,6.074,0,0,1-1.855.283,3.448,3.448,0,0,1-2.51-.8,3.282,3.282,0,0,1-.811-2.432V10.719h-1.348V8.434h1.348V5.807Zm2.324,7.813a6.236,6.236,0,0,1,.615-2.817,4.4,4.4,0,0,1,1.768-1.9,5.323,5.323,0,0,1,2.705-.664,4.859,4.859,0,0,1,3.74,1.47,5.64,5.64,0,0,1,1.367,4v.117a5.472,5.472,0,0,1-1.372,3.921,4.871,4.871,0,0,1-3.716,1.45,4.927,4.927,0,0,1-3.623-1.353,5.29,5.29,0,0,1-1.475-3.667Zm3.291.205a3.931,3.931,0,0,0,.459,2.148,1.529,1.529,0,0,0,1.357.684q1.758,0,1.8-2.705v-.332q0-2.842-1.816-2.842-1.65,0-1.787,2.451Z" transform="translate(945 1638.771)" fill="#12263f"/>
    <path id="Trazado_194609" data-name="Trazado 194609" d="M0,0,85,40H0Z" transform="translate(849 1632.771)" fill="#ffb338"/>
    <g id="tarea-completada" transform="translate(849 1601.873)">
      <path id="Trazado_203286" data-name="Trazado 203286" d="M0,20.438ZM4.438,16" transform="translate(13.875 -13.525)" fill="#ffc846"/>
      <g transform="matrix(1, 0, 0, 1, -9, -6)" filter="url(#Trazado_502571)">
        <path id="Trazado_502571-2" data-name="Trazado 502571" d="M295.256,259.628A35.628,35.628,0,1,1,259.628,224,35.629,35.629,0,0,1,295.256,259.628Zm0,0" transform="translate(-215 -218)" fill="#cee4c6"/>
      </g>
    </g>
    <g id="Grupo_881478" data-name="Grupo 881478" transform="translate(855.65 1609.07)">
      <path id="Trazado_749203" data-name="Trazado 749203" d="M355.359,186.687a.672.672,0,0,1,.672.672h1.344a2.018,2.018,0,0,0-2.015-2.015V184h-1.344v1.344H352v2.015a2.018,2.018,0,0,0,2.015,2.015h1.344a.672.672,0,0,1,.672.672v.672h-2.015a.672.672,0,0,1-.672-.672H352a2.018,2.018,0,0,0,2.015,2.015V193.4h1.344v-1.344h2.015v-2.015a2.018,2.018,0,0,0-2.015-2.015h-1.344a.672.672,0,0,1-.672-.672v-.672Z" transform="translate(-315.114 -161.221)"/>
      <path id="Trazado_749204" data-name="Trazado 749204" d="M303.39,152a7.39,7.39,0,1,0,7.389,7.389A7.4,7.4,0,0,0,303.39,152Zm0,13.435a6.046,6.046,0,1,1,6.046-6.046A6.052,6.052,0,0,1,303.39,165.435Z" transform="translate(-263.816 -131.908)"/>
      <path id="Trazado_749205" data-name="Trazado 749205" d="M172.7,424a2,2,0,0,0-1.344.524,2.015,2.015,0,1,0,0,2.983A2.012,2.012,0,1,0,172.7,424Zm-2.687,2.687a.672.672,0,1,1,.672-.672A.672.672,0,0,1,170.015,426.687Zm2.687,0a.672.672,0,1,1,.672-.672A.672.672,0,0,1,172.7,426.687Z" transform="translate(-146.565 -381.068)"/>
      <path id="Trazado_749206" data-name="Trazado 749206" d="M104,456h1.344v1.344H104Z" transform="translate(-87.939 -410.381)"/>
      <path id="Trazado_749207" data-name="Trazado 749207" d="M40,456h1.344v1.344H40Z" transform="translate(-29.313 -410.381)"/>
      <path id="Trazado_749208" data-name="Trazado 749208" d="M72,456h1.344v1.344H72Z" transform="translate(-58.626 -410.381)"/>
      <path id="Trazado_749209" data-name="Trazado 749209" d="M40,424h6.718v1.344H40Z" transform="translate(-29.313 -381.068)"/>
      <path id="Trazado_749210" data-name="Trazado 749210" d="M49.65,27.481a10.081,10.081,0,0,0-9.4-10.042V8H34.871v.672a.672.672,0,1,1-1.344,0V8H28.153v.672a.672.672,0,1,1-1.344,0V8H21.435v.672a.672.672,0,1,1-1.344,0V8H14.718V34.871h-4.7A2.018,2.018,0,0,0,8,36.886V47.635a2.018,2.018,0,0,0,2.015,2.015h18.81a2.018,2.018,0,0,0,2.015-2.015V40.245h6.046v6.718a2.687,2.687,0,0,0,5.374,0v-9.78A10.086,10.086,0,0,0,49.65,27.481ZM10.015,36.214h18.81a.672.672,0,0,1,.672.672v.672H9.344v-.672A.672.672,0,0,1,10.015,36.214ZM29.5,38.9v1.344H9.344V38.9Zm-.672,9.4H10.015a.672.672,0,0,1-.672-.672V41.589H29.5v6.046A.672.672,0,0,1,28.825,48.306Zm2.015-9.4V36.886a2.018,2.018,0,0,0-2.015-2.015H16.061V9.344h2.8a2.016,2.016,0,0,0,3.8,0h2.917a2.016,2.016,0,0,0,3.8,0H32.3a2.016,2.016,0,0,0,3.8,0h2.8v8.1a10.064,10.064,0,0,0-2.015,19.744V38.9Zm10.077,8.061a1.344,1.344,0,1,1-2.687,0v-9.5a9.067,9.067,0,0,0,2.687,0ZM39.573,36.214a8.733,8.733,0,1,1,8.733-8.733A8.743,8.743,0,0,1,39.573,36.214Z"/>
      <path id="Trazado_749211" data-name="Trazado 749211" d="M140.153,56H120v5.374h20.153Zm-1.344,4.031H121.344V57.344H138.81Z" transform="translate(-102.595 -43.969)"/>
      <path id="Trazado_749212" data-name="Trazado 749212" d="M120,136h1.344v1.344H120Z" transform="translate(-102.595 -117.252)"/>
      <path id="Trazado_749213" data-name="Trazado 749213" d="M152,136h8.061v1.344H152Z" transform="translate(-131.908 -117.252)"/>
      <path id="Trazado_749214" data-name="Trazado 749214" d="M120,168h10.748v1.344H120Z" transform="translate(-102.595 -146.565)"/>
      <path id="Trazado_749215" data-name="Trazado 749215" d="M232,200h1.344v1.344H232Z" transform="translate(-205.19 -175.877)"/>
      <path id="Trazado_749216" data-name="Trazado 749216" d="M120,200h8.061v1.344H120Z" transform="translate(-102.595 -175.877)"/>
      <path id="Trazado_749217" data-name="Trazado 749217" d="M120,232h10.748v1.344H120Z" transform="translate(-102.595 -205.19)"/>
      <path id="Trazado_749218" data-name="Trazado 749218" d="M120,264h10.748v1.344H120Z" transform="translate(-102.595 -234.503)"/>
      <path id="Trazado_749219" data-name="Trazado 749219" d="M120,296h1.344v1.344H120Z" transform="translate(-102.595 -263.816)"/>
      <path id="Trazado_749220" data-name="Trazado 749220" d="M152,296h8.061v1.344H152Z" transform="translate(-131.908 -263.816)"/>
    </g>
  </g>
</svg>
