<svg id="Grupo_877585" data-name="Grupo 877585" xmlns="http://www.w3.org/2000/svg" xmlns:xlink="http://www.w3.org/1999/xlink" width="391.421" height="244.128" viewBox="0 0 391.421 244.128">
  <defs>
    <clipPath id="clip-path">
      <rect id="Rectángulo_327612" data-name="Rectángulo 327612" width="391.421" height="244.128" fill="none"/>
    </clipPath>
    <clipPath id="clip-path-9">
      <rect id="Rectángulo_327604" data-name="Rectángulo 327604" width="76.907" height="76.907" fill="none"/>
    </clipPath>
    <clipPath id="clip-path-10">
      <rect id="Rectángulo_327605" data-name="Rectángulo 327605" width="31.568" height="27.562" fill="none"/>
    </clipPath>
    <clipPath id="clip-path-12">
      <rect id="Rectángulo_327607" data-name="Rectángulo 327607" width="2.238" height="2.212" fill="none"/>
    </clipPath>
    <clipPath id="clip-path-13">
      <rect id="Rectángulo_327608" data-name="Rectángulo 327608" width="2.068" height="2.038" fill="none"/>
    </clipPath>
    <clipPath id="clip-path-14">
      <rect id="Rectángulo_327609" data-name="Rectángulo 327609" width="7.604" height="11.652" fill="none"/>
    </clipPath>
    <clipPath id="clip-path-15">
      <rect id="Rectángulo_327610" data-name="Rectángulo 327610" width="42.003" height="25.423" fill="none"/>
    </clipPath>
  </defs>
  <g id="Grupo_877584" data-name="Grupo 877584" clip-path="url(#clip-path)">
    <g id="Grupo_877551" data-name="Grupo 877551" transform="translate(0 -0.001)">
      <g id="Grupo_877550" data-name="Grupo 877550" clip-path="url(#clip-path)">
        <path id="Trazado_624293" data-name="Trazado 624293" d="M677.573,275.329s-3.192-1.89-6.593,5.689a96.1,96.1,0,0,0-4.617,11.913s-.919,1.6-2.033.639-2.714-3.76-4.5-3.152c-1.849.629-2.362,2.753-1.852,5.811s1.382,9.8,1.458,10.408-.225,1.5-1.089.969-5.935-5.645-8.216-3.094.539,10.837.83,11.749.13,1.315-.3,1.565-1.97-1.629-3.472-3.024-3.488-2.75-4.681-1.168-1.286,7.909,5.223,17.854l3.318,4.411,5.513-.581c11.724-1.963,16.309-6.322,16.663-8.272s-1.989-2.491-4.033-2.648-4.471-.016-4.577-.5.081-.876.949-1.281,8.869-3.952,9.2-7.359-6.87-3.665-7.846-3.939-.517-1.106-.026-1.457,6.044-4.289,8.637-5.988,3.805-3.518,3.013-5.3c-.763-1.722-3.905-1-5.366-1.166s-.91-1.927-.91-1.927a96.179,96.179,0,0,0,5.622-11.473c3.263-7.64-.386-8.712-.386-8.712" transform="translate(-287.827 -123.365)" fill="#ebebeb"/>
        <path id="Trazado_624294" data-name="Trazado 624294" d="M657,342.619c2.418-5.6,6.883-15.484,10.673-23.989s7.211-16.2,9.657-21.791c1.218-2.791,2.2-5.051,2.89-6.621l.787-1.8.208-.467c.048-.1.077-.156.077-.156s-.018.056-.061.163-.11.27-.193.473l-.757,1.813c-.66,1.573-1.63,3.843-2.841,6.643-2.418,5.6-5.823,13.311-9.611,21.813s-8.272,18.38-10.718,23.968" transform="translate(-294.605 -129.049)" fill="#e0e0e0"/>
        <path id="Trazado_624295" data-name="Trazado 624295" d="M678.193,310.116a1.788,1.788,0,0,1,.158.367c.092.24.214.59.362,1.024.294.869.668,2.08,1.057,3.423.379,1.327.722,2.525.984,3.442l.3,1.041a1.765,1.765,0,0,1,.1.387,1.838,1.838,0,0,1-.16-.366c-.091-.24-.214-.591-.357-1.027-.285-.872-.644-2.087-1.033-3.43l-1.008-3.434-.31-1.04a1.838,1.838,0,0,1-.094-.388" transform="translate(-304.107 -139.058)" fill="#e0e0e0"/>
        <path id="Trazado_624296" data-name="Trazado 624296" d="M684.493,324.733c-.015-.045,2.446-.927,5.5-1.97s5.539-1.853,5.554-1.809-2.446.927-5.5,1.971-5.538,1.853-5.553,1.808" transform="translate(-306.932 -143.917)" fill="#e0e0e0"/>
        <path id="Trazado_624297" data-name="Trazado 624297" d="M672.877,350.269a1.905,1.905,0,0,1,.406-.039l1.107-.051c.934-.044,2.224-.111,3.644-.237s2.7-.278,3.63-.4l1.1-.142a1.876,1.876,0,0,1,.407-.033,1.822,1.822,0,0,1-.4.1c-.257.052-.629.121-1.092.2-.924.151-2.207.326-3.632.45s-2.719.174-3.655.188c-.468,0-.848,0-1.109,0a1.909,1.909,0,0,1-.407-.028" transform="translate(-301.724 -156.658)" fill="#e0e0e0"/>
        <path id="Trazado_624298" data-name="Trazado 624298" d="M663.658,336.258a1.589,1.589,0,0,1,.231.3l.577.846c.481.719,1.135,1.718,1.848,2.827s1.352,2.12,1.807,2.856l.531.876a1.591,1.591,0,0,1,.175.334,1.609,1.609,0,0,1-.231-.3l-.577-.846c-.481-.719-1.135-1.718-1.848-2.829s-1.351-2.119-1.806-2.854l-.531-.876a1.589,1.589,0,0,1-.175-.334" transform="translate(-297.59 -150.78)" fill="#e0e0e0"/>
        <path id="Trazado_624299" data-name="Trazado 624299" d="M650.8,355.435a2.573,2.573,0,0,1,.292.384l.744,1.082c.621.917,1.469,2.192,2.4,3.605s1.761,2.7,2.356,3.633l.7,1.111a2.573,2.573,0,0,1,.236.421,2.647,2.647,0,0,1-.292-.384l-.743-1.082c-.621-.918-1.469-2.192-2.4-3.606s-1.76-2.7-2.355-3.633l-.7-1.111a2.576,2.576,0,0,1-.236-.421" transform="translate(-291.825 -159.379)" fill="#e0e0e0"/>
        <path id="Trazado_624300" data-name="Trazado 624300" d="M662.823,372.249a2.98,2.98,0,0,1,.513-.062l1.4-.115c1.182-.1,2.815-.241,4.612-.449s3.421-.435,4.595-.608l1.39-.205a2.92,2.92,0,0,1,.513-.056,2.991,2.991,0,0,1-.5.121c-.326.067-.8.158-1.382.259-1.17.2-2.793.453-4.595.659s-3.438.333-4.623.4c-.593.033-1.073.054-1.4.061a3.023,3.023,0,0,1-.517,0" transform="translate(-297.216 -166.247)" fill="#e0e0e0"/>
        <path id="Trazado_624301" data-name="Trazado 624301" d="M122.707,103.458s-3.457,1.344.406,8.7a96.1,96.1,0,0,0,6.523,10.985s.69,1.71-.752,1.994-4.633-.185-5.256,1.591c-.646,1.843.708,3.558,3.428,5.045s8.562,4.962,9.089,5.278,1.043,1.1.09,1.455-8.1,1.184-7.506,4.554,8.859,6.266,9.755,6.6,1.115.71,1.048,1.2-2.5.544-4.522.864-4.316,1.046-3.808,2.962,5.428,5.894,17.271,6.912l5.519.113,2.947-4.7c5.693-10.435,5.093-16.734,3.777-18.215s-3.187.027-4.572,1.538-2.772,3.508-3.219,3.292-.639-.605-.422-1.537,2.366-9.417-.113-11.778-7.124,3.142-7.942,3.741-1.19-.276-1.163-.879.357-7.4.621-10.492-.419-5.165-2.312-5.644c-1.826-.462-3.2,2.456-4.23,3.5s-2.077-.474-2.077-.474a96.1,96.1,0,0,0-5.556-11.506c-4-7.283-7.092-5.074-7.092-5.074" transform="translate(-54.385 -46.264)" fill="#ebebeb"/>
        <path id="Trazado_624302" data-name="Trazado 624302" d="M158.253,168.593c-2.914-5.36-7.933-14.973-12.285-23.2s-8.3-15.675-11.183-21.049l-3.425-6.361-.931-1.73-.238-.452c-.053-.1-.076-.157-.076-.157s.034.049.092.148l.253.444.959,1.715c.831,1.49,2.017,3.655,3.473,6.336,2.914,5.36,6.877,12.8,11.228,21.027s9.354,17.853,12.24,23.228" transform="translate(-58.345 -51.853)" fill="#e0e0e0"/>
        <path id="Trazado_624303" data-name="Trazado 624303" d="M133.574,147.39a1.8,1.8,0,0,1,.386.1c.245.076.6.2,1.029.348.865.306,2.049.758,3.345,1.281l3.316,1.351,1.007.4a1.821,1.821,0,0,1,.364.163,1.8,1.8,0,0,1-.387-.1c-.245-.076-.6-.2-1.028-.352-.862-.314-2.04-.782-3.337-1.305l-3.324-1.327-1.009-.4a1.8,1.8,0,0,1-.363-.165" transform="translate(-59.896 -66.09)" fill="#e0e0e0"/>
        <path id="Trazado_624304" data-name="Trazado 624304" d="M151.378,144.391c-.045-.015.781-2.5,1.843-5.542s1.961-5.5,2.006-5.486-.78,2.5-1.843,5.542-1.961,5.5-2.006,5.485" transform="translate(-67.878 -59.801)" fill="#e0e0e0"/>
        <path id="Trazado_624305" data-name="Trazado 624305" d="M162.459,169.782a1.865,1.865,0,0,1,.22-.343l.643-.9c.542-.762,1.285-1.818,2.063-3.013s1.45-2.3,1.927-3.1l.566-.951a1.859,1.859,0,0,1,.226-.34,1.867,1.867,0,0,1-.167.372c-.118.234-.293.57-.52.98-.451.82-1.106,1.938-1.889,3.135s-1.541,2.246-2.109,2.991c-.285.371-.52.669-.687.87a1.875,1.875,0,0,1-.273.3" transform="translate(-72.848 -72.251)" fill="#e0e0e0"/>
        <path id="Trazado_624306" data-name="Trazado 624306" d="M145.168,174.958a1.62,1.62,0,0,1,.377,0l1.022.069c.862.066,2.052.168,3.365.291s2.5.245,3.361.341l1.017.124a1.547,1.547,0,0,1,.371.068,1.6,1.6,0,0,1-.377,0l-1.022-.069c-.862-.065-2.052-.168-3.366-.291s-2.5-.245-3.361-.341l-1.017-.123a1.619,1.619,0,0,1-.371-.068" transform="translate(-65.095 -78.449)" fill="#e0e0e0"/>
        <path id="Trazado_624307" data-name="Trazado 624307" d="M152.319,196.911a2.6,2.6,0,0,1,.482.007l1.31.083c1.105.078,2.632.2,4.316.339s3.21.281,4.313.389l1.305.138a2.661,2.661,0,0,1,.477.073,2.54,2.54,0,0,1-.482-.007l-1.31-.083c-1.105-.078-2.632-.2-4.317-.339s-3.209-.281-4.312-.389l-1.306-.137a2.625,2.625,0,0,1-.477-.074" transform="translate(-68.301 -88.293)" fill="#e0e0e0"/>
        <path id="Trazado_624308" data-name="Trazado 624308" d="M173.925,189.511a2.95,2.95,0,0,1,.268-.442l.774-1.173c.653-.991,1.548-2.363,2.494-3.906s1.77-2.96,2.357-3.991l.7-1.22a2.957,2.957,0,0,1,.273-.439,3,3,0,0,1-.215.47c-.147.3-.368.725-.649,1.248-.562,1.047-1.368,2.477-2.318,4.022s-1.861,2.909-2.54,3.884c-.341.486-.62.877-.82,1.143a3.009,3.009,0,0,1-.322.4" transform="translate(-77.989 -79.969)" fill="#e0e0e0"/>
        <path id="Trazado_624309" data-name="Trazado 624309" d="M54.035,170.869a20.19,20.19,0,0,1,4.673-2.645l.5-4.954,8.175-1.007,1.686,4.684a20.151,20.151,0,0,1,5.175,1.431l3.853-3.15,6.493,5.069-2.12,4.5a20.138,20.138,0,0,1,2.644,4.674l4.954.5,1.007,8.175-4.684,1.686a20.181,20.181,0,0,1-1.431,5.174l3.149,3.854-5.067,6.493-4.5-2.12a20.176,20.176,0,0,1-4.674,2.645l-.5,4.954-8.175,1.007-1.686-4.685a20.156,20.156,0,0,1-5.175-1.431l-3.853,3.15L47.985,203.8l2.119-4.5a20.165,20.165,0,0,1-2.644-4.674l-4.954-.5L41.5,185.957l4.685-1.686a20.207,20.207,0,0,1,1.43-5.175l-3.15-3.853,5.068-6.493Zm5.517,10.45a8.835,8.835,0,1,0,12.4-1.529,8.836,8.836,0,0,0-12.4,1.529" transform="translate(-18.609 -72.76)" fill="#ebebeb"/>
        <path id="Trazado_624310" data-name="Trazado 624310" d="M483.1,5.182a14.617,14.617,0,0,1,3.564-1.549L487.4.1l5.961-.1.858,3.5a14.613,14.613,0,0,1,3.617,1.423l3.012-1.975,4.289,4.141-1.867,3.08a14.606,14.606,0,0,1,1.549,3.565l3.527.734.1,5.961-3.5.858a14.612,14.612,0,0,1-1.423,3.616l1.974,3.013-4.141,4.289-3.079-1.867a14.6,14.6,0,0,1-3.565,1.548l-.735,3.529-5.96.1-.858-3.5a14.606,14.606,0,0,1-3.616-1.423l-3.013,1.975-4.289-4.141,1.868-3.08a14.6,14.6,0,0,1-1.549-3.565l-3.528-.734-.1-5.961,3.5-.858a14.628,14.628,0,0,1,1.423-3.616L475.879,7.6l4.14-4.289Zm3.178,7.941a6.4,6.4,0,1,0,9.043-.159,6.4,6.4,0,0,0-9.043.159" transform="translate(-212.066 0.001)" fill="#f5f5f5"/>
        <path id="Trazado_624311" data-name="Trazado 624311" d="M619.65,102.755a9.225,9.225,0,0,1,2.247-.977l.463-2.225,3.759-.066.541,2.207a9.2,9.2,0,0,1,2.281.9l1.9-1.245,2.7,2.611-1.178,1.942a9.188,9.188,0,0,1,.977,2.248l2.225.463.066,3.759-2.207.541a9.2,9.2,0,0,1-.9,2.28l1.245,1.9-2.611,2.7-1.942-1.178a9.208,9.208,0,0,1-2.248.977l-.463,2.225-3.758.066-.541-2.207a9.237,9.237,0,0,1-2.28-.9l-1.9,1.245-2.7-2.611,1.178-1.942a9.19,9.19,0,0,1-.977-2.248l-2.225-.463L613.237,109l2.207-.541a9.212,9.212,0,0,1,.9-2.28l-1.245-1.9,2.611-2.7Zm2,5.007a4.033,4.033,0,1,0,5.7-.1,4.033,4.033,0,0,0-5.7.1" transform="translate(-274.981 -44.611)" fill="#f5f5f5"/>
        <path id="Trazado_624312" data-name="Trazado 624312" d="M43.823,69.447a17.918,17.918,0,0,1,4.371-1.9l.9-4.326,7.31-.129,1.052,4.292a17.9,17.9,0,0,1,4.435,1.745l3.695-2.421,5.259,5.079-2.29,3.776a17.921,17.921,0,0,1,1.9,4.372l4.326.9.129,7.31L70.617,89.2a17.917,17.917,0,0,1-1.745,4.435l2.421,3.695-5.077,5.259-3.777-2.29a17.9,17.9,0,0,1-4.372,1.9l-.9,4.327-7.31.128-1.052-4.292a17.914,17.914,0,0,1-4.435-1.745l-3.694,2.421-5.26-5.079,2.29-3.776a17.9,17.9,0,0,1-1.9-4.372l-4.326-.9-.129-7.31,4.292-1.052a17.941,17.941,0,0,1,1.745-4.435l-2.421-3.694,5.077-5.26Zm3.9,9.738a7.843,7.843,0,1,0,11.089-.2,7.843,7.843,0,0,0-11.089.2" transform="translate(-14.059 -28.291)" fill="#f5f5f5"/>
        <path id="Trazado_624313" data-name="Trazado 624313" d="M621.528,161.824a14.61,14.61,0,0,1,3.564-1.549l.734-3.528,5.961-.1.858,3.5a14.6,14.6,0,0,1,3.617,1.423l3.013-1.975,4.289,4.141-1.867,3.08a14.606,14.606,0,0,1,1.549,3.565l3.528.734.1,5.961-3.5.858a14.62,14.62,0,0,1-1.423,3.616l1.974,3.013-4.141,4.289-3.079-1.867a14.628,14.628,0,0,1-3.565,1.549l-.735,3.528-5.961.1-.858-3.5a14.6,14.6,0,0,1-3.616-1.423l-3.013,1.975-4.289-4.141,1.867-3.08a14.617,14.617,0,0,1-1.549-3.565l-3.528-.734-.1-5.961,3.5-.858a14.628,14.628,0,0,1,1.423-3.616l-1.975-3.013,4.141-4.289Zm3.178,7.941a6.4,6.4,0,1,0,9.043-.159,6.4,6.4,0,0,0-9.043.159" transform="translate(-274.138 -70.239)" fill="#ebebeb"/>
        <path id="Trazado_624314" data-name="Trazado 624314" d="M381.96,31.772a22.5,22.5,0,0,1,5.491-2.386l1.131-5.435,9.182-.161,1.322,5.391a22.489,22.489,0,0,1,5.571,2.192l4.641-3.042L415.9,34.71l-2.877,4.744a22.479,22.479,0,0,1,2.386,5.492l5.434,1.131.161,9.182-5.391,1.322a22.5,22.5,0,0,1-2.191,5.571l3.042,4.641L410.089,73.4l-4.744-2.877a22.5,22.5,0,0,1-5.492,2.386l-1.131,5.434-9.182.162-1.322-5.392a22.518,22.518,0,0,1-5.571-2.192l-4.641,3.042L371.4,67.584l2.877-4.744a22.49,22.49,0,0,1-2.386-5.491l-5.434-1.131-.161-9.182,5.391-1.322a22.511,22.511,0,0,1,2.191-5.571L370.836,35.5l6.378-6.607ZM386.855,44a9.851,9.851,0,1,0,13.93-.245,9.851,9.851,0,0,0-13.93.245" transform="translate(-164.25 -10.667)" fill="#ebebeb"/>
      </g>
    </g>
    <g id="Grupo_877553" data-name="Grupo 877553" transform="translate(0 -0.001)">
      <g id="Grupo_877552" data-name="Grupo 877552" clip-path="url(#clip-path)">
        <path id="Trazado_624315" data-name="Trazado 624315" d="M391.25,387.226c0,.079-87.592.143-195.616.143C87.573,387.37,0,387.306,0,387.226s87.573-.143,195.635-.143c108.024,0,195.616.064,195.616.143" transform="translate(0 -173.571)" fill="#263238"/>
      </g>
    </g>
    <g id="Grupo_877555" data-name="Grupo 877555" transform="translate(0 -0.001)">
      <g id="Grupo_877554" data-name="Grupo 877554" clip-path="url(#clip-path)">
        <path id="Trazado_624316" data-name="Trazado 624316" d="M385.233,79.5H193.187a5.994,5.994,0,0,0-5.994,5.994V221.144a5.994,5.994,0,0,0,5.994,6h73.706s4.689,14.5-9.846,22h68.92s-16.41-5.626-12.191-22h71.456a6,6,0,0,0,5.995-5.995V85.5a6,6,0,0,0-5.995-5.995" transform="translate(-83.939 -35.65)" fill="#455a64"/>
        <path id="Trazado_624317" data-name="Trazado 624317" d="M371.626,320.363a3.7,3.7,0,0,1-5.211,5.21,1.337,1.337,0,0,1-.321-.322,3.7,3.7,0,0,1,5.211-5.21,1.314,1.314,0,0,1,.321.321" transform="translate(-163.79 -143.14)" fill="#263238"/>
        <path id="Trazado_624318" data-name="Trazado 624318" d="M390.609,204.344H193.187V89.358a5.349,5.349,0,0,1,5.349-5.349H385.26a5.349,5.349,0,0,1,5.349,5.349Z" transform="translate(-86.627 -37.67)" fill="#fff"/>
        <path id="Trazado_624319" data-name="Trazado 624319" d="M390.609,94.007H193.187v-4.95a5.049,5.049,0,0,1,5.049-5.049H386.463a4.146,4.146,0,0,1,4.146,4.146Z" transform="translate(-86.627 -37.669)" fill="#ebebeb"/>
        <path id="Trazado_624320" data-name="Trazado 624320" d="M204.844,92.326a1.387,1.387,0,1,1-1.387-1.387,1.387,1.387,0,0,1,1.387,1.387" transform="translate(-90.61 -40.777)" fill="#e0e0e0"/>
        <path id="Trazado_624321" data-name="Trazado 624321" d="M212.339,92.326a1.387,1.387,0,1,1-1.387-1.387,1.387,1.387,0,0,1,1.387,1.387" transform="translate(-93.971 -40.777)" fill="#e0e0e0"/>
        <path id="Trazado_624322" data-name="Trazado 624322" d="M219.467,92.326a1.387,1.387,0,1,1-1.387-1.387,1.387,1.387,0,0,1,1.387,1.387" transform="translate(-97.167 -40.777)" fill="#e0e0e0"/>
        <path id="Trazado_624323" data-name="Trazado 624323" d="M384.745,347.1c0,.063-27.328.115-61.032.115s-61.037-.052-61.037-.115,27.323-.115,61.037-.115,61.032.052,61.032.115" transform="translate(-117.786 -155.59)" fill="#263238"/>
        <rect id="Rectángulo_327565" data-name="Rectángulo 327565" width="196.905" height="43.955" transform="translate(106.627 72.518)" fill="#f5f5f5"/>
        <rect id="Rectángulo_327566" data-name="Rectángulo 327566" width="28.416" height="7.438" transform="translate(111.46 60.943)" fill="#f5f5f5"/>
        <rect id="Rectángulo_327567" data-name="Rectángulo 327567" width="15.559" height="7.438" transform="translate(283.299 60.943)" fill="#f5f5f5"/>
        <rect id="Rectángulo_327568" data-name="Rectángulo 327568" width="25.462" height="7.438" transform="translate(253.162 60.943)" fill="#f5f5f5"/>
        <rect id="Rectángulo_327569" data-name="Rectángulo 327569" width="25.462" height="7.438" transform="translate(222.406 60.943)" fill="#f5f5f5"/>
        <rect id="Rectángulo_327570" data-name="Rectángulo 327570" width="173.543" height="7.791" transform="translate(116.213 128.858)" fill="#f5f5f5"/>
        <rect id="Rectángulo_327571" data-name="Rectángulo 327571" width="173.543" height="7.791" transform="translate(116.213 143.358)" fill="#f5f5f5"/>
        <path id="Trazado_624324" data-name="Trazado 624324" d="M334.571,169.747l4.783-4.783,8.342,7.6,14.7-14.685,4.442,4.783-19.826,19.127Z" transform="translate(-150.024 -70.795)" fill="#eb6f2d"/>
        <path id="Trazado_624325" data-name="Trazado 624325" d="M344.451,156a21.165,21.165,0,0,1-3.18-3.757,21.165,21.165,0,0,1,3.18,3.757" transform="translate(-153.027 -68.266)" fill="#263238"/>
        <path id="Trazado_624326" data-name="Trazado 624326" d="M358.243,149.092a50.039,50.039,0,0,1-.389-5.343,50.07,50.07,0,0,1-.1-5.357,50.126,50.126,0,0,1,.388,5.344,49.981,49.981,0,0,1,.1,5.357" transform="translate(-160.402 -62.056)" fill="#263238"/>
        <path id="Trazado_624327" data-name="Trazado 624327" d="M373.94,151.85a24.961,24.961,0,0,1-3.323,4.193,25.043,25.043,0,0,1,3.323-4.193" transform="translate(-166.186 -68.09)" fill="#263238"/>
      </g>
    </g>
    <g id="Grupo_877557" data-name="Grupo 877557" transform="translate(0 -0.001)">
      <g id="Grupo_877556" data-name="Grupo 877556" clip-path="url(#clip-path)">
        <path id="Trazado_624328" data-name="Trazado 624328" d="M546.21,282.448H464.424a4.008,4.008,0,0,1-4.008-4.008V157.583a4.008,4.008,0,0,1,4.008-4.008H546.21a4.008,4.008,0,0,1,4.008,4.008V278.44a4.008,4.008,0,0,1-4.008,4.008" transform="translate(-206.454 -68.864)" fill="#e0e0e0"/>
        <path id="Trazado_624329" data-name="Trazado 624329" d="M546.093,282.331s.094-.009.279-.022a3.839,3.839,0,0,0,.814-.148,4.012,4.012,0,0,0,2.436-2,4.134,4.134,0,0,0,.371-1.063,6.3,6.3,0,0,0,.073-1.254q0-1.327-.007-2.9c0-2.1-.008-4.515-.013-7.238-.011-10.9-.026-26.654-.046-46.127-.006-9.737-.011-20.4-.018-31.853q0-8.587-.007-17.745,0-4.574,0-9.279,0-2.352,0-4.736a6.215,6.215,0,0,0-.062-1.167,3.75,3.75,0,0,0-.366-1.093,3.93,3.93,0,0,0-1.6-1.643,4.24,4.24,0,0,0-1.1-.394,6,6,0,0,0-1.182-.074h-7.352l-10,0-20.625,0-43.371,0a3.861,3.861,0,0,0-3.805,3.147,6.952,6.952,0,0,0-.07,1.353v4.138q0,5.5,0,10.932,0,10.855,0,21.374c0,14.013-.006,27.529-.008,40.406s-.009,25.111-.013,36.562q0,2.147,0,4.257,0,1.055,0,2.1a4.536,4.536,0,0,0,.316,1.991,3.906,3.906,0,0,0,3.033,2.315,6.75,6.75,0,0,0,1,.042h3.012l15.285.009,46.124.046,12.54.027,3.262.014c.735,0,1.111.015,1.111.015s-.376.01-1.111.015l-3.262.014-12.54.026-46.124.046-15.285.009H464.76a6.963,6.963,0,0,1-1.027-.044,4.135,4.135,0,0,1-3.213-2.447,4.775,4.775,0,0,1-.336-2.082q0-1.046,0-2.1,0-2.11,0-4.257c0-11.451-.008-23.686-.013-36.562s-.005-26.393-.008-40.406q0-10.509,0-21.374,0-5.428,0-10.932V158.1a7.193,7.193,0,0,1,.074-1.406,4.148,4.148,0,0,1,4.088-3.381l43.371,0,20.625,0,10,0h7.352a6.283,6.283,0,0,1,1.234.08,4.524,4.524,0,0,1,1.17.422,4.2,4.2,0,0,1,1.707,1.755,4.023,4.023,0,0,1,.391,1.168,6.457,6.457,0,0,1,.066,1.212q0,2.384,0,4.736,0,4.7,0,9.279,0,9.148-.007,17.745c-.006,11.45-.012,22.116-.018,31.853-.019,19.473-.035,35.232-.045,46.127,0,2.723-.009,5.141-.013,7.238q0,1.572-.007,2.9a6.4,6.4,0,0,1-.081,1.266,4.192,4.192,0,0,1-.383,1.077,4.027,4.027,0,0,1-2.479,2.005,3.656,3.656,0,0,1-.821.135c-.186.007-.28.007-.28.007" transform="translate(-206.338 -68.747)" fill="#263238"/>
        <path id="Trazado_624330" data-name="Trazado 624330" d="M546.137,282.375s.094-.008.279-.019a2.367,2.367,0,0,0,.344-.041,3.394,3.394,0,0,0,.471-.1,4.013,4.013,0,0,0,2.444-2,4.168,4.168,0,0,0,.373-1.066,6.342,6.342,0,0,0,.074-1.256q0-1.327,0-2.9c0-2.1-.005-4.515-.008-7.238-.007-10.893-.017-26.653-.029-46.126,0-9.738-.007-20.4-.011-31.853q0-8.587,0-17.745,0-4.574,0-9.279,0-2.352,0-4.736A6.253,6.253,0,0,0,550,156.83a3.813,3.813,0,0,0-.371-1.108,3.978,3.978,0,0,0-1.62-1.663,4.274,4.274,0,0,0-1.109-.4,6.01,6.01,0,0,0-1.192-.076H528.357l-20.625,0-43.371,0a3.914,3.914,0,0,0-3.858,3.19,7.013,7.013,0,0,0-.07,1.362v4.138q0,5.5,0,10.932,0,10.855,0,21.374c0,14.013,0,27.53-.006,40.406s-.005,25.111-.008,36.562q0,2.147,0,4.257,0,1.055,0,2.1a6.5,6.5,0,0,0,.046,1.03,3.907,3.907,0,0,0,3.339,3.317,6.778,6.778,0,0,0,1,.043h3.012l15.285.006,46.124.029,12.54.017,3.261.009c.735,0,1.111.009,1.111.009s-.376.006-1.111.009l-3.261.009-12.54.017-46.124.029-15.285.006H464.8a6.86,6.86,0,0,1-1.022-.044,4.051,4.051,0,0,1-3.463-3.437,6.672,6.672,0,0,1-.049-1.051q0-1.045,0-2.1,0-2.11,0-4.257c0-11.451,0-23.686-.008-36.562s0-26.393,0-40.406q0-10.509,0-21.374,0-5.427,0-10.932v-4.138a7.185,7.185,0,0,1,.073-1.4,4.094,4.094,0,0,1,4.035-3.338l43.371,0,20.625,0,10,0h7.352a6.144,6.144,0,0,1,1.224.079,4.464,4.464,0,0,1,1.157.416,4.152,4.152,0,0,1,1.687,1.734,3.975,3.975,0,0,1,.386,1.154,6.421,6.421,0,0,1,.065,1.2q0,2.384,0,4.736,0,4.7,0,9.279,0,9.149,0,17.745c0,11.45-.008,22.116-.011,31.853-.012,19.473-.022,35.233-.029,46.126,0,2.723-.006,5.141-.008,7.238q0,1.572,0,2.9a6.345,6.345,0,0,1-.079,1.264,4.2,4.2,0,0,1-.381,1.075,4.018,4.018,0,0,1-2.471,2.005,3.292,3.292,0,0,1-.474.1,2.307,2.307,0,0,1-.345.037c-.186.008-.28.009-.28.009" transform="translate(-206.381 -68.79)" fill="#263238"/>
        <path id="Trazado_624331" data-name="Trazado 624331" d="M542.463,372.672a3.446,3.446,0,1,1-3.446-3.446,3.446,3.446,0,0,1,3.446,3.446" transform="translate(-240.155 -165.564)" fill="#fff"/>
        <path id="Trazado_624332" data-name="Trazado 624332" d="M546.21,162.726h-18.34a1.279,1.279,0,1,1,0-2.558h18.34a1.279,1.279,0,0,1,0,2.558" transform="translate(-236.127 -71.82)" fill="#ebebeb"/>
        <path id="Trazado_624333" data-name="Trazado 624333" d="M548.205,277.868H466.75a1.342,1.342,0,0,1-1.341-1.341V171.584a1.342,1.342,0,0,1,1.342-1.341h81.455a1.342,1.342,0,0,1,1.341,1.341V276.526a1.342,1.342,0,0,1-1.341,1.341" transform="translate(-208.693 -76.338)" fill="#fff"/>
        <path id="Trazado_624334" data-name="Trazado 624334" d="M548.088,277.751c0-.007.084,0,.246-.031a1.329,1.329,0,0,0,.642-.327,1.345,1.345,0,0,0,.433-1.074q0-.724-.007-1.676c-.006-2.543-.015-6.286-.027-11.107-.011-9.65-.026-23.606-.046-40.85-.006-8.624-.012-18.069-.018-28.209q0-7.605-.007-15.715,0-2.025,0-4.08,0-1.028,0-2.062v-1.036a1.249,1.249,0,0,0-.277-.886,1.212,1.212,0,0,0-.81-.435c-.322-.013-.69,0-1.033-.006h-2.1l-4.248,0-74.186.011a1.2,1.2,0,0,0-.956.466,1.218,1.218,0,0,0-.227.495,3.378,3.378,0,0,0-.024.586v7.346q0,4.874,0,9.682,0,9.613,0,18.928c0,12.41-.006,24.38-.009,35.783s-.009,22.239-.013,32.38v.474a1.25,1.25,0,0,0,.077.423,1.221,1.221,0,0,0,.547.642,1.512,1.512,0,0,0,.853.158h.937l3.7,0,7.2,0,13.536.009,40.848.046,11.106.027,2.888.014c.651,0,.984.015.984.015s-.333.01-.984.015l-2.888.014-11.106.026-40.848.046-13.536.009-7.2,0-3.7,0h-.937a1.752,1.752,0,0,1-.969-.187,1.46,1.46,0,0,1-.653-.766,1.488,1.488,0,0,1-.092-.505v-.474c0-10.142-.009-20.977-.013-32.38s-.006-23.374-.009-35.783q0-9.307,0-18.928,0-4.807,0-9.682v-7.346a3.6,3.6,0,0,1,.029-.642,1.49,1.49,0,0,1,1.465-1.191l74.186.011,4.248,0h2.1c.355,0,.685-.008,1.06.008a1.473,1.473,0,0,1,.983.528,1.512,1.512,0,0,1,.335,1.051v1.036q0,1.034,0,2.062,0,2.054,0,4.08,0,8.1-.007,15.715c-.007,10.14-.012,19.585-.018,28.209-.019,17.244-.035,31.2-.046,40.85-.012,4.82-.02,8.564-.026,11.107q0,.951-.007,1.676a1.376,1.376,0,0,1-.456,1.1,1.32,1.32,0,0,1-.659.319.908.908,0,0,1-.248.017" transform="translate(-208.576 -76.221)" fill="#263238"/>
        <rect id="Rectángulo_327573" data-name="Rectángulo 327573" width="83.289" height="30.493" transform="translate(257.218 109.234)" fill="#f5f5f5"/>
        <rect id="Rectángulo_327574" data-name="Rectángulo 327574" width="19.713" height="5.16" transform="translate(259.071 98.914)" fill="#f5f5f5"/>
        <rect id="Rectángulo_327575" data-name="Rectángulo 327575" width="17.664" height="5.16" transform="translate(321.201 98.914)" fill="#f5f5f5"/>
        <rect id="Rectángulo_327576" data-name="Rectángulo 327576" width="17.664" height="5.16" transform="translate(300.18 98.914)" fill="#f5f5f5"/>
        <rect id="Rectángulo_327577" data-name="Rectángulo 327577" width="71.112" height="5.405" transform="translate(262.392 155.43)" fill="#f5f5f5"/>
        <rect id="Rectángulo_327578" data-name="Rectángulo 327578" width="71.112" height="5.405" transform="translate(262.392 145.206)" fill="#f5f5f5"/>
        <rect id="Rectángulo_327579" data-name="Rectángulo 327579" width="71.112" height="5.405" transform="translate(262.392 176.364)" fill="#f5f5f5"/>
        <rect id="Rectángulo_327580" data-name="Rectángulo 327580" width="71.112" height="5.405" transform="translate(262.392 166.14)" fill="#f5f5f5"/>
        <path id="Trazado_624335" data-name="Trazado 624335" d="M512.568,237.046l4.784-4.783,8.342,7.6,14.7-14.685,4.442,4.783L525.01,249.091Z" transform="translate(-229.84 -100.973)" fill="#eb6f2d"/>
      </g>
    </g>
    <g id="Grupo_877559" data-name="Grupo 877559" transform="translate(0 -0.001)">
      <g id="Grupo_877558" data-name="Grupo 877558" clip-path="url(#clip-path)">
        <path id="Trazado_624336" data-name="Trazado 624336" d="M630.612,304.489l-34.791-.02a7.567,7.567,0,0,1-7.574-7.558l.017-86.972a7.568,7.568,0,0,1,7.583-7.555l34.79.02a7.567,7.567,0,0,1,7.574,7.558l-.017,86.972a7.567,7.567,0,0,1-7.583,7.555" transform="translate(-263.775 -90.75)" fill="#263238"/>
        <path id="Trazado_624337" data-name="Trazado 624337" d="M632.527,206.989l-6.769-.031a1.682,1.682,0,0,0-1.651,1.711L624.1,209.9a1.681,1.681,0,0,1-1.65,1.711l-13.194-.061a1.683,1.683,0,0,1-1.637-1.726l.005-1.227a1.683,1.683,0,0,0-1.637-1.726l-2.381-.011-5.924-.028a5.326,5.326,0,0,0-5.35,5.3l-.361,85.429a5.326,5.326,0,0,0,5.3,5.348l34.841.161a5.326,5.326,0,0,0,5.35-5.3l.361-85.429a5.326,5.326,0,0,0-5.3-5.348" transform="translate(-265.446 -92.743)" fill="#fff"/>
        <rect id="Rectángulo_327582" data-name="Rectángulo 327582" width="45.339" height="16.599" transform="translate(326.785 129.454)" fill="#f5f5f5"/>
        <rect id="Rectángulo_327583" data-name="Rectángulo 327583" width="10.731" height="2.809" transform="translate(327.795 123.836)" fill="#f5f5f5"/>
        <rect id="Rectángulo_327584" data-name="Rectángulo 327584" width="9.615" height="2.809" transform="translate(361.615 123.836)" fill="#f5f5f5"/>
        <rect id="Rectángulo_327585" data-name="Rectángulo 327585" width="9.615" height="2.809" transform="translate(350.172 123.836)" fill="#f5f5f5"/>
        <rect id="Rectángulo_327586" data-name="Rectángulo 327586" width="38.71" height="2.942" transform="translate(329.602 154.601)" fill="#f5f5f5"/>
        <rect id="Rectángulo_327587" data-name="Rectángulo 327587" width="38.71" height="2.942" transform="translate(329.602 149.035)" fill="#f5f5f5"/>
        <rect id="Rectángulo_327588" data-name="Rectángulo 327588" width="38.71" height="2.942" transform="translate(329.602 165.996)" fill="#f5f5f5"/>
        <rect id="Rectángulo_327589" data-name="Rectángulo 327589" width="38.71" height="2.942" transform="translate(329.602 171.201)" fill="#f5f5f5"/>
        <rect id="Rectángulo_327590" data-name="Rectángulo 327590" width="38.71" height="2.942" transform="translate(329.602 177.15)" fill="#f5f5f5"/>
        <rect id="Rectángulo_327591" data-name="Rectángulo 327591" width="38.71" height="2.942" transform="translate(329.602 183.099)" fill="#f5f5f5"/>
        <rect id="Rectángulo_327592" data-name="Rectángulo 327592" width="38.71" height="2.942" transform="translate(329.602 189.048)" fill="#f5f5f5"/>
        <rect id="Rectángulo_327593" data-name="Rectángulo 327593" width="38.71" height="2.942" transform="translate(329.602 160.43)" fill="#f5f5f5"/>
        <path id="Trazado_624338" data-name="Trazado 624338" d="M611.282,291.453l3.744-3.744,7.22,6.418,14.173-13.638,3.476,3.744-18.183,17.114Z" transform="translate(-274.104 -125.773)" fill="#eb6f2d"/>
      </g>
    </g>
    <g id="Grupo_877561" data-name="Grupo 877561" transform="translate(0 -0.001)">
      <g id="Grupo_877560" data-name="Grupo 877560" clip-path="url(#clip-path)">
        <path id="Trazado_624339" data-name="Trazado 624339" d="M161.435,302.2H26.833a8.035,8.035,0,0,1-8.035-8.035V210.6a8.035,8.035,0,0,1,8.035-8.035h134.6a8.035,8.035,0,0,1,8.035,8.035v83.568a8.035,8.035,0,0,1-8.035,8.035" transform="translate(-8.429 -90.832)" fill="#263238"/>
        <path id="Trazado_624340" data-name="Trazado 624340" d="M163.034,380.256H16.453a8.33,8.33,0,0,1-8.33-8.33v-.388H171.364v.388a8.33,8.33,0,0,1-8.33,8.33" transform="translate(-3.642 -166.6)" fill="#263238"/>
        <rect id="Rectángulo_327595" data-name="Rectángulo 327595" width="142.162" height="84.143" transform="translate(14.414 115.694)" fill="#263238"/>
        <path id="Trazado_624341" data-name="Trazado 624341" d="M128.45,369.843l2.025,3.222h28.5l1.881-3.222Z" transform="translate(-57.598 -165.84)" fill="#455a64"/>
        <path id="Trazado_624342" data-name="Trazado 624342" d="M166.232,295.932H33.245a1.806,1.806,0,0,1-1.806-1.805V216.712a1.806,1.806,0,0,1,1.805-1.805H166.232a1.8,1.8,0,0,1,1.8,1.805v77.414a1.8,1.8,0,0,1-1.8,1.805" transform="translate(-14.098 -96.366)" fill="#ebebeb"/>
        <path id="Trazado_624343" data-name="Trazado 624343" d="M167.772,300.973H31.174l.146-75.088H167.772Z" transform="translate(-13.979 -101.288)" fill="#fff"/>
        <path id="Trazado_624344" data-name="Trazado 624344" d="M49.976,219.693a1.091,1.091,0,1,1-1.092-1.091,1.091,1.091,0,0,1,1.092,1.091" transform="translate(-21.431 -98.022)" fill="#263238"/>
        <path id="Trazado_624345" data-name="Trazado 624345" d="M37.989,219.693A1.091,1.091,0,1,1,36.9,218.6a1.091,1.091,0,0,1,1.091,1.091" transform="translate(-16.056 -98.022)" fill="#263238"/>
        <path id="Trazado_624346" data-name="Trazado 624346" d="M43.742,219.693a1.091,1.091,0,1,1-1.091-1.091,1.091,1.091,0,0,1,1.091,1.091" transform="translate(-18.636 -98.022)" fill="#263238"/>
        <path id="Trazado_624347" data-name="Trazado 624347" d="M168.175,369.764c0,.054-33.442.1-74.685.1s-74.692-.044-74.692-.1,33.435-.1,74.692-.1,74.685.044,74.685.1" transform="translate(-8.429 -165.761)" fill="#455a64"/>
        <rect id="Rectángulo_327596" data-name="Rectángulo 327596" width="136.598" height="30.493" transform="translate(17.341 136.702)" fill="#f5f5f5"/>
        <rect id="Rectángulo_327597" data-name="Rectángulo 327597" width="19.713" height="5.16" transform="translate(20.695 128.671)" fill="#f5f5f5"/>
        <rect id="Rectángulo_327598" data-name="Rectángulo 327598" width="10.794" height="5.16" transform="translate(139.903 128.671)" fill="#f5f5f5"/>
        <rect id="Rectángulo_327599" data-name="Rectángulo 327599" width="17.664" height="5.16" transform="translate(118.996 128.671)" fill="#f5f5f5"/>
        <rect id="Rectángulo_327600" data-name="Rectángulo 327600" width="17.664" height="5.16" transform="translate(97.66 128.671)" fill="#f5f5f5"/>
        <rect id="Rectángulo_327601" data-name="Rectángulo 327601" width="120.391" height="5.405" transform="translate(24.015 185.188)" fill="#f5f5f5"/>
        <rect id="Rectángulo_327602" data-name="Rectángulo 327602" width="120.391" height="5.405" transform="translate(24.015 174.964)" fill="#f5f5f5"/>
        <path id="Trazado_624348" data-name="Trazado 624348" d="M123.869,273.223l4.783-4.783,9.225,8.2,18.109-17.426L160.428,264l-23.234,21.867Z" transform="translate(-55.544 -116.233)" fill="#eb6f2d"/>
      </g>
    </g>
    <g id="Grupo_877569" data-name="Grupo 877569" transform="translate(0 -0.001)">
      <g id="Grupo_877568" data-name="Grupo 877568" clip-path="url(#clip-path)">
        <path id="Trazado_624349" data-name="Trazado 624349" d="M232.458,66.715A38.454,38.454,0,1,1,194,28.261a38.454,38.454,0,0,1,38.454,38.454" transform="translate(-69.75 -12.672)" fill="#ff725e"/>
        <g id="Grupo_877564" data-name="Grupo 877564" transform="translate(85.801 15.589)" opacity="0.3">
          <g id="Grupo_877563" data-name="Grupo 877563">
            <g id="Grupo_877562" data-name="Grupo 877562" clip-path="url(#clip-path-9)">
              <path id="Trazado_624350" data-name="Trazado 624350" d="M232.458,66.715A38.454,38.454,0,1,1,194,28.261a38.454,38.454,0,0,1,38.454,38.454" transform="translate(-155.551 -28.261)"/>
            </g>
          </g>
        </g>
        <path id="Trazado_624351" data-name="Trazado 624351" d="M230.58,62.258A38.454,38.454,0,1,1,192.127,23.8,38.454,38.454,0,0,1,230.58,62.258" transform="translate(-68.908 -10.673)" fill="#ffb338"/>
        <path id="Trazado_624352" data-name="Trazado 624352" d="M228.983,69.2a29.914,29.914,0,1,1-29.914-29.914A29.914,29.914,0,0,1,228.983,69.2" transform="translate(-75.851 -17.616)" fill="#fff"/>
        <path id="Trazado_624353" data-name="Trazado 624353" d="M227.325,76.408a21.047,21.047,0,1,1-21.047-21.047,21.047,21.047,0,0,1,21.047,21.047" transform="translate(-83.059 -24.824)" fill="#ffb338"/>
        <path id="Trazado_624354" data-name="Trazado 624354" d="M225.465,84.49A11.1,11.1,0,1,1,214.36,73.385,11.105,11.105,0,0,1,225.465,84.49" transform="translate(-91.141 -32.906)" fill="#fff"/>
        <path id="Trazado_624355" data-name="Trazado 624355" d="M276.472,23.12l-1.045-8.2,8.351-8.937.6,8.853Z" transform="translate(-123.504 -2.68)" fill="#455a64"/>
        <path id="Trazado_624356" data-name="Trazado 624356" d="M296.025,24.659l-8.472-.689-8.492,8.169,8.494.908Z" transform="translate(-125.134 -10.747)" fill="#455a64"/>
        <g id="Grupo_877567" data-name="Grupo 877567" transform="translate(123.219 24.668)" opacity="0.3">
          <g id="Grupo_877566" data-name="Grupo 877566">
            <g id="Grupo_877565" data-name="Grupo 877565" clip-path="url(#clip-path-10)">
              <path id="Trazado_624357" data-name="Trazado 624357" d="M223.388,72.282l31.568-22.608a42.863,42.863,0,0,0-4.008-4.955L223.906,70.867Z" transform="translate(-223.388 -44.72)"/>
            </g>
          </g>
        </g>
        <path id="Trazado_624358" data-name="Trazado 624358" d="M261.322,18.679l-3.962,4.014-9.513,9.64-11.46,11.612-9.955,10.088c-1.612,1.633-3.3,3.22-4.847,4.911-.023.024-.046.047-.07.07-.936.949.526,2.412,1.462,1.463l3.962-4.014,9.513-9.64,11.46-11.612,9.956-10.088c1.611-1.633,3.3-3.22,4.847-4.911.022-.024.046-.047.07-.07.935-.949-.526-2.412-1.463-1.463" transform="translate(-99.194 -8.237)" fill="#263238"/>
      </g>
    </g>
    <g id="Grupo_877583" data-name="Grupo 877583" transform="translate(0 -0.001)">
      <g id="Grupo_877582" data-name="Grupo 877582" clip-path="url(#clip-path)">
        <path id="Trazado_624359" data-name="Trazado 624359" d="M415.355,190.049a2.663,2.663,0,0,1-.879-5.225,2.77,2.77,0,0,1,2.635-4.55,3.315,3.315,0,0,1,5.123-2.474,3.727,3.727,0,0,1,4.588.127,2.651,2.651,0,0,1,2.123,4.6" transform="translate(-184.978 -79.4)" fill="#263238"/>
        <path id="Trazado_624360" data-name="Trazado 624360" d="M415.709,193.222a11.3,11.3,0,0,1,11.733-9.851l.584.028c6.284.662,9.231,6.369,8.4,12.632l-1.893,20.939-.5,4.937-14.282-1.686.27-5.347s-6.013-1.225-5.8-7.285c.1-2.926.8-8.936,1.493-14.367" transform="translate(-185.736 -82.219)" fill="#99655c"/>
        <path id="Trazado_624361" data-name="Trazado 624361" d="M424.62,238.888a14.709,14.709,0,0,0,8.044-1.952s-2.07,4.271-8.088,3.443Z" transform="translate(-190.383 -106.244)" fill="#744a45"/>
        <path id="Trazado_624362" data-name="Trazado 624362" d="M419.338,210.757a.866.866,0,0,0,.793.912.828.828,0,0,0,.928-.739.866.866,0,0,0-.792-.912.829.829,0,0,0-.929.739" transform="translate(-188.033 -94.171)" fill="#263238"/>
        <path id="Trazado_624363" data-name="Trazado 624363" d="M419.026,206.046c.1.118.779-.336,1.71-.291s1.591.543,1.7.434c.052-.048-.047-.257-.335-.487a2.376,2.376,0,0,0-1.352-.487,2.283,2.283,0,0,0-1.368.372c-.3.206-.4.406-.352.459" transform="translate(-187.889 -92.019)" fill="#263238"/>
        <path id="Trazado_624364" data-name="Trazado 624364" d="M434.707,211.53a.866.866,0,0,0,.793.911.828.828,0,0,0,.928-.738.866.866,0,0,0-.792-.912.828.828,0,0,0-.929.739" transform="translate(-194.925 -94.518)" fill="#263238"/>
        <path id="Trazado_624365" data-name="Trazado 624365" d="M435.6,207.135c.1.118.78-.336,1.71-.29s1.591.543,1.7.434c.052-.048-.047-.257-.335-.487a2.373,2.373,0,0,0-1.352-.487,2.285,2.285,0,0,0-1.368.372c-.3.206-.4.405-.352.458" transform="translate(-195.32 -92.507)" fill="#263238"/>
        <path id="Trazado_624366" data-name="Trazado 624366" d="M427,213.751a6.158,6.158,0,0,0-1.5-.344c-.237-.035-.459-.093-.492-.258a1.213,1.213,0,0,1,.192-.7q.375-.847.787-1.777a31.037,31.037,0,0,0,1.8-4.66,31.228,31.228,0,0,0-2.17,4.5q-.4.936-.758,1.789a1.375,1.375,0,0,0-.167.927.6.6,0,0,0,.374.366,1.633,1.633,0,0,0,.4.075,6.09,6.09,0,0,0,1.532.074" transform="translate(-190.419 -92.379)" fill="#263238"/>
        <path id="Trazado_624367" data-name="Trazado 624367" d="M435.238,201.737c.111.242.921.023,1.9.038.983-.008,1.8.216,1.9-.025.044-.115-.12-.335-.465-.541a2.947,2.947,0,0,0-1.459-.379,2.85,2.85,0,0,0-1.442.37c-.336.2-.491.423-.442.538" transform="translate(-195.16 -90.053)" fill="#263238"/>
        <path id="Trazado_624368" data-name="Trazado 624368" d="M419.259,199.048c.186.221.964.037,1.889.069.925.006,1.7.222,1.889.009.084-.1-.029-.321-.361-.537a3.011,3.011,0,0,0-1.519-.418,2.964,2.964,0,0,0-1.526.355c-.336.2-.453.415-.372.522" transform="translate(-187.988 -88.861)" fill="#263238"/>
        <path id="Trazado_624369" data-name="Trazado 624369" d="M418.218,189.843s1.774-3.718,3.645-4.518c2.264-.968,3.1,1.506,5.241,1.015s4.3-1.42,6.379.311c2.276,1.9,1.112,3.1,1.133,5.79.082,10.922,1.928,14.1,2.733,8.991.088-.559,1.67-.934,2.012-3.3.444-3.066.737-6.8.152-9.018a8.63,8.63,0,0,0-3.3-4.683c-2.87-2.354-6.952-2.592-9.739-2.443s-8.283,3.091-8.252,7.852" transform="translate(-187.532 -81.59)" fill="#263238"/>
        <path id="Trazado_624370" data-name="Trazado 624370" d="M451.9,215.7a1.645,1.645,0,0,1,1.848-1.5c1.124.161,2.351.861,2.168,3.191-.326,4.134-4.409,2.954-4.406,2.835,0-.081.238-2.8.39-4.525" transform="translate(-202.46 -96.041)" fill="#99655c"/>
        <path id="Trazado_624371" data-name="Trazado 624371" d="M453.356,219.836c.019-.012.068.056.185.121a.719.719,0,0,0,.537.053,1.787,1.787,0,0,0,.951-1.534,2.375,2.375,0,0,0-.121-1.046.834.834,0,0,0-.5-.6.367.367,0,0,0-.441.164c-.065.111-.045.2-.067.2s-.083-.076-.037-.244a.461.461,0,0,1,.183-.246.543.543,0,0,1,.407-.074,1.016,1.016,0,0,1,.7.7,2.463,2.463,0,0,1,.159,1.172,1.875,1.875,0,0,1-1.191,1.7.773.773,0,0,1-.65-.161c-.12-.113-.135-.206-.12-.213" transform="translate(-203.287 -97.136)" fill="#744a45"/>
        <path id="Trazado_624372" data-name="Trazado 624372" d="M439.748,192.075a3.932,3.932,0,0,1-1.791.728,1.351,1.351,0,0,1-1.453-1.02c-.036-.29.05-.621-.129-.853-.213-.276-.634-.213-.983-.192a2.646,2.646,0,0,1-2.655-2.023,1.11,1.11,0,0,1-1.495.071,5.927,5.927,0,0,1-1.071-1.259,1.706,1.706,0,0,0-1.388-.777,4.072,4.072,0,0,1-.91.156c-.542-.073-.777-.723-.834-1.266s-.092-1.176-.539-1.491a2.169,2.169,0,0,0-1.478-.11c-.5.05-1.145-.1-1.25-.593a.985.985,0,0,1,.22-.742,2.685,2.685,0,0,1,3.213-.867,3.638,3.638,0,0,1,6.711-.392,3.692,3.692,0,0,1,5.833,1.62,2.677,2.677,0,0,1,2.833,4.03,2.543,2.543,0,0,1,1.3,2.087,1.455,1.455,0,0,1-1.716,1.408,1.482,1.482,0,0,1-2.629,1.357" transform="translate(-190.017 -80.441)" fill="#263238"/>
        <path id="Trazado_624373" data-name="Trazado 624373" d="M429.343,186a.217.217,0,0,0,0,.076c0,.05,0,.125.016.222a2.616,2.616,0,0,0,.264.811,2.966,2.966,0,0,0,.872,1.022,2.762,2.762,0,0,0,1.674.563l-.066-.095a1.5,1.5,0,0,0,.03,1.147,4.291,4.291,0,0,0,.661,1.051,3.053,3.053,0,0,0,.441.5,1.442,1.442,0,0,0,.645.274,1.511,1.511,0,0,0,1.355-.415l-.153-.051a3.109,3.109,0,0,0,1.217,2.21,2.272,2.272,0,0,0,1.339.509,4.085,4.085,0,0,0,1.354-.232l-.108-.053a3.264,3.264,0,0,0,.92,1.323,1.738,1.738,0,0,0,1.424.461,2.284,2.284,0,0,0,1.84-1.7l-.1.039a2.137,2.137,0,0,0,1.413.275,2.315,2.315,0,0,0,1.013-.4,2.017,2.017,0,0,0,.487-.484,1,1,0,0,0,.115-.209,2.482,2.482,0,0,1-.64.635,2.3,2.3,0,0,1-.987.355,2.046,2.046,0,0,1-1.332-.284l-.076-.047-.02.087a2.153,2.153,0,0,1-1.739,1.576,1.581,1.581,0,0,1-1.292-.432,3.119,3.119,0,0,1-.864-1.256l-.029-.078-.079.024a3.951,3.951,0,0,1-1.295.22,2.09,2.09,0,0,1-1.236-.473,2.943,2.943,0,0,1-1.151-2.083l-.017-.2-.136.146a1.345,1.345,0,0,1-1.2.366,1.282,1.282,0,0,1-.571-.238,3.014,3.014,0,0,1-.416-.466,4.193,4.193,0,0,1-.647-1.007,1.36,1.36,0,0,1-.042-1.039l.039-.1-.1,0a2.67,2.67,0,0,1-1.605-.514,2.958,2.958,0,0,1-.869-.969,3.213,3.213,0,0,1-.345-1.073" transform="translate(-192.52 -83.406)" fill="#455a64"/>
        <path id="Trazado_624374" data-name="Trazado 624374" d="M426.976,224.573c-.015.039.213.181.633.273a3.5,3.5,0,0,0,3.1-.917c.3-.306.416-.549.382-.574a4.972,4.972,0,0,1-4.114,1.218" transform="translate(-191.46 -100.152)" fill="#263238"/>
        <path id="Trazado_624375" data-name="Trazado 624375" d="M399.369,345.258l36.68.5s10.258-4.292,13.076-4.408,8.412.243,11,4.408c2.674,4.3,3.048,11.9-5.194,17.419-8.026,5.374-44.731,10.341-49.762,9.884l-9.275-12.449s-.1-10.2,0-10.689,1.652-4.858,1.652-4.858Z" transform="translate(-177.502 -153.056)" fill="#263238"/>
        <path id="Trazado_624376" data-name="Trazado 624376" d="M435.126,378.352l21.9,8.134-9.981,27.3c-2.549-1.113-2.621-17.15-2.621-17.15L430.178,392Z" transform="translate(-192.896 -169.656)" fill="#727997"/>
        <g id="Grupo_877572" data-name="Grupo 877572" transform="translate(253.238 217.631)" opacity="0.6">
          <g id="Grupo_877571" data-name="Grupo 877571">
            <g id="Grupo_877570" data-name="Grupo 877570" clip-path="url(#clip-path-12)">
              <path id="Trazado_624377" data-name="Trazado 624377" d="M459.3,395.025a1.187,1.187,0,0,1,1.554-.306,1.142,1.142,0,0,1,.317,1.538,1.253,1.253,0,0,1-1.648.315,1.183,1.183,0,0,1-.152-1.636" transform="translate(-459.104 -394.551)" fill="#fff"/>
            </g>
          </g>
        </g>
        <path id="Trazado_624378" data-name="Trazado 624378" d="M469.931,392.433l-2.21-.821-8.761,26.534s.084,1.409.991,1.584Z" transform="translate(-205.801 -175.602)" fill="#263238"/>
        <path id="Trazado_624379" data-name="Trazado 624379" d="M455.423,410.6c.135.044.439-.6,1.108-1.1.655-.517,1.356-.644,1.348-.785.019-.132-.851-.225-1.649.394s-.939,1.475-.806,1.491" transform="translate(-204.196 -183.226)" fill="#263238"/>
        <path id="Trazado_624380" data-name="Trazado 624380" d="M455.688,417.161c.118.078.555-.417,1.285-.663.722-.268,1.373-.159,1.416-.295.067-.118-.68-.5-1.581-.171s-1.246,1.079-1.12,1.129" transform="translate(-204.323 -186.494)" fill="#263238"/>
        <path id="Trazado_624381" data-name="Trazado 624381" d="M458.668,423.017c.073-.111-.526-.54-1.381-.465s-1.374.592-1.283.69c.082.115.622-.146,1.325-.2.7-.067,1.277.1,1.339-.028" transform="translate(-204.472 -189.472)" fill="#263238"/>
        <path id="Trazado_624382" data-name="Trazado 624382" d="M449.65,407.371c.142-.012.182-.69.508-1.425s.779-1.236.691-1.346c-.068-.113-.771.28-1.144,1.151s-.183,1.648-.055,1.621" transform="translate(-201.552 -181.417)" fill="#263238"/>
        <path id="Trazado_624383" data-name="Trazado 624383" d="M443.469,402.435a2.724,2.724,0,0,0,.493-1.37,6.529,6.529,0,0,0,.084-1.591,6.775,6.775,0,0,0-.13-.938,1.779,1.779,0,0,0-.17-.53.618.618,0,0,0-.687-.321.779.779,0,0,0-.519.472,1.886,1.886,0,0,0-.116.539,5.227,5.227,0,0,0-.019.956,5.107,5.107,0,0,0,.367,1.563c.355.848.773,1.246.816,1.21.066-.045-.238-.505-.487-1.327a5.823,5.823,0,0,1-.241-1.47,5.385,5.385,0,0,1,.045-.874c.029-.317.117-.564.273-.591.059-.009.08-.006.142.086a1.444,1.444,0,0,1,.124.389,7.567,7.567,0,0,1,.149.873,8.087,8.087,0,0,1,.023,1.507,9.915,9.915,0,0,0-.146,1.414" transform="translate(-198.372 -178.316)" fill="#263238"/>
        <path id="Trazado_624384" data-name="Trazado 624384" d="M440.936,405.14c.038-.04-.343-.479-1.189-.843a4.709,4.709,0,0,0-2.522-.316,1.2,1.2,0,0,0-1.009.619.68.68,0,0,0,.173.71,1.975,1.975,0,0,0,.45.324,3.257,3.257,0,0,0,.921.338,3.343,3.343,0,0,0,1.626-.067c.9-.275,1.265-.773,1.224-.8a11.862,11.862,0,0,1-1.307.461,3.351,3.351,0,0,1-1.442-.037,3,3,0,0,1-.781-.314c-.275-.149-.469-.343-.4-.441.047-.136.35-.287.623-.314a4.777,4.777,0,0,1,.865-.067,5.207,5.207,0,0,1,1.461.234c.815.255,1.262.58,1.308.515" transform="translate(-195.585 -181.125)" fill="#263238"/>
        <path id="Trazado_624385" data-name="Trazado 624385" d="M401.285,377.324l-19.624,9.1,11.2,24.473c2.272-1.213,1.172-16.022,1.172-16.022l12.813-5.316Z" transform="translate(-171.14 -169.195)" fill="#727997"/>
        <g id="Grupo_877575" data-name="Grupo 877575" transform="translate(218.646 217.259)" opacity="0.6">
          <g id="Grupo_877574" data-name="Grupo 877574">
            <g id="Grupo_877573" data-name="Grupo 877573" clip-path="url(#clip-path-13)">
              <path id="Trazado_624386" data-name="Trazado 624386" d="M398.235,394.246a1.1,1.1,0,0,0-1.457-.169,1.056,1.056,0,0,0-.18,1.442,1.159,1.159,0,0,0,1.543.171,1.1,1.1,0,0,0,.021-1.521" transform="translate(-396.392 -393.875)" fill="#fff"/>
            </g>
          </g>
        </g>
        <path id="Trazado_624387" data-name="Trazado 624387" d="M381.661,393.079l1.981-.919,10.019,23.857s.024,1.307-.8,1.535Z" transform="translate(-171.14 -175.847)" fill="#263238"/>
        <path id="Trazado_624388" data-name="Trazado 624388" d="M402.69,408.4c-.121.051-.449-.522-1.1-.934-.643-.43-1.3-.5-1.3-.627-.028-.121.768-.27,1.551.243s.975,1.293.853,1.318" transform="translate(-179.492 -182.376)" fill="#263238"/>
        <path id="Trazado_624389" data-name="Trazado 624389" d="M402.762,414.458c-.1.081-.543-.344-1.234-.518-.686-.2-1.28-.047-1.329-.169-.07-.1.592-.507,1.447-.273s1.229.906,1.116.96" transform="translate(-179.45 -185.383)" fill="#263238"/>
        <path id="Trazado_624390" data-name="Trazado 624390" d="M400.484,420.059c-.075-.1.446-.537,1.241-.529s1.311.447,1.235.543c-.067.112-.585-.089-1.238-.086-.652-.012-1.172.185-1.238.072" transform="translate(-179.577 -188.12)" fill="#263238"/>
        <path id="Trazado_624391" data-name="Trazado 624391" d="M408.626,404.953c-.132,0-.218-.624-.573-1.279s-.809-1.083-.735-1.193c.055-.109.732.2,1.139.979s.29,1.508.169,1.492" transform="translate(-182.641 -180.466)" fill="#263238"/>
        <path id="Trazado_624392" data-name="Trazado 624392" d="M413.868,399.917a2.524,2.524,0,0,1-.554-1.228,6.03,6.03,0,0,1-.193-1.463,6.322,6.322,0,0,1,.051-.875,1.65,1.65,0,0,1,.119-.5.573.573,0,0,1,.611-.346.719.719,0,0,1,.512.4,1.748,1.748,0,0,1,.147.489,4.866,4.866,0,0,1,.087.881,4.761,4.761,0,0,1-.225,1.47c-.266.808-.624,1.206-.666,1.176-.064-.036.184-.483.353-1.26a5.368,5.368,0,0,0,.116-1.375,4.992,4.992,0,0,0-.105-.8c-.05-.29-.149-.511-.3-.525-.055,0-.074,0-.125.089a1.328,1.328,0,0,0-.086.368,6.937,6.937,0,0,0-.074.817,7.452,7.452,0,0,0,.088,1.393,9.276,9.276,0,0,1,.238,1.295" transform="translate(-185.247 -177.341)" fill="#263238"/>
        <path id="Trazado_624393" data-name="Trazado 624393" d="M414.034,402.276c-.038-.034.282-.467,1.036-.865a4.369,4.369,0,0,1,2.306-.476,1.115,1.115,0,0,1,.976.5.629.629,0,0,1-.108.669,1.83,1.83,0,0,1-.392.331,3.006,3.006,0,0,1-.825.378,3.1,3.1,0,0,1-1.506.056c-.853-.188-1.224-.622-1.188-.65a11.023,11.023,0,0,0,1.24.331,3.1,3.1,0,0,0,1.329-.14,2.763,2.763,0,0,0,.7-.346c.243-.158.408-.351.336-.436a.771.771,0,0,0-.6-.245,4.449,4.449,0,0,0-.8,0,4.858,4.858,0,0,0-1.332.322c-.734.3-1.122.628-1.17.571" transform="translate(-185.655 -179.778)" fill="#263238"/>
        <path id="Trazado_624394" data-name="Trazado 624394" d="M374.138,343.855s-15.839-5.916-21.67-5.15c-3.26.428-8.357,2.915-8.746,7.093s.631,9.768,6.267,12.489,28.131,12.815,33.475,14.37,18.67,5.2,18.67,5.2l5.063-14.427s-27.618-9.562-29.076-10.631a32.777,32.777,0,0,0-5.15-2.526Z" transform="translate(-154.095 -151.847)" fill="#263238"/>
        <path id="Trazado_624395" data-name="Trazado 624395" d="M464.684,350.863a.579.579,0,0,1-.11-.029l-.318-.1c-.28-.084-.693-.205-1.232-.333a13.509,13.509,0,0,0-4.65-.342,15.434,15.434,0,0,0-3.169.6,10.97,10.97,0,0,0-1.672.653l-1.724.841c-2.37,1.133-5.016,2.292-7.835,3.406a93.8,93.8,0,0,1-14.924,4.212c-1.938.429-3.5.782-4.584,1.038l-1.244.295-.324.073a.057.057,0,1,1,0-.017l.32-.089c.282-.076.7-.191,1.237-.326,1.075-.277,2.639-.648,4.574-1.092a98,98,0,0,0,14.889-4.253c2.815-1.112,5.459-2.265,7.829-3.389l1.725-.834a11.083,11.083,0,0,1,1.7-.653,15.406,15.406,0,0,1,3.2-.589,14.455,14.455,0,0,1,2.685.022,14.136,14.136,0,0,1,1.992.376c.539.138.95.27,1.227.365l.313.113a.538.538,0,0,1,.1.045" transform="translate(-189.58 -156.893)" fill="#455a64"/>
        <path id="Trazado_624396" data-name="Trazado 624396" d="M490.285,347.526c-.006.028-.482-.059-1.258-.142a18.956,18.956,0,0,0-6.056.311c-.763.163-1.228.3-1.236.271a1.284,1.284,0,0,1,.317-.128c.207-.073.512-.164.892-.26a15.895,15.895,0,0,1,6.1-.313c.388.057.7.115.915.167a1.325,1.325,0,0,1,.328.095" transform="translate(-216.014 -155.644)" fill="#455a64"/>
        <path id="Trazado_624397" data-name="Trazado 624397" d="M379.383,353.042c-.019.024-.457-.316-1.216-.786a16.128,16.128,0,0,0-6.52-2.3c-.886-.11-1.441-.121-1.44-.151a1.678,1.678,0,0,1,.39-.021,10.6,10.6,0,0,1,1.064.052,14.4,14.4,0,0,1,6.572,2.319,10.531,10.531,0,0,1,.861.627,1.722,1.722,0,0,1,.291.261" transform="translate(-166.004 -156.845)" fill="#455a64"/>
        <path id="Trazado_624398" data-name="Trazado 624398" d="M386.611,370.9s.043.014.124.047l.36.151c.319.129.78.348,1.4.585,1.233.49,3.057,1.161,5.4,1.929,4.679,1.529,11.4,3.477,19.452,5.5l-.092.049,4.9-13.592.047.107L412.13,363.2l-33.554-13.81-.012-.005-.008-.009c-1.366-1.446-2.622-2.719-3.8-3.748a25.762,25.762,0,0,0-3.186-2.4A23.489,23.489,0,0,0,369.383,342l-.587-.274c-.131-.062-.2-.1-.2-.1s.07.026.2.083l.595.26a21.763,21.763,0,0,1,2.2,1.2,25.159,25.159,0,0,1,3.212,2.386c1.187,1.024,2.453,2.3,3.824,3.737l-.02-.013L412.2,363.037l6.064,2.491.075.031-.028.076c-1.747,4.832-3.407,9.424-4.911,13.587l-.024.066-.067-.017c-8.048-2.041-14.77-4.011-19.444-5.566-2.335-.782-4.155-1.467-5.384-1.971-.617-.245-1.076-.472-1.391-.608l-.355-.162c-.079-.037-.118-.058-.118-.058" transform="translate(-165.283 -153.19)" fill="#455a64"/>
        <path id="Trazado_624399" data-name="Trazado 624399" d="M463.3,256.58s4.561,2.627,5.485,5.714c.561,1.874,4.815,25.852,5.488,30.579.68,4.773-.747,8.23-2.763,9.8s-8.128,3.658-8.128,3.658l-8.6,2.785-2.464-6.272,8.185-11.758-.792-7.921Z" transform="translate(-202.825 -115.052)" fill="#2b95f9"/>
        <path id="Trazado_624400" data-name="Trazado 624400" d="M411.464,247.071l-3.428-1.956s-3.121,3.65-7.378,3.2a10.7,10.7,0,0,1-6.777-3.706L381.188,247.2a6.231,6.231,0,0,0-3.89,2.831c-1.657,2.367-9.511,12.866-9.511,12.866h-5.5a4.08,4.08,0,0,0-3.614,2.18c-.939,1.787-2.066,4.178-1.956,5.169.186,1.675-.137,6.273,2.109,7.709.713.456,3.262,1.821,5.239,1.728a17.618,17.618,0,0,0,8.26-3.022,76.037,76.037,0,0,0,6.979-6.713l0,.024.95,33.3,33.281-.948,6.9-51.107s-8.629-4.142-8.964-4.142" transform="translate(-159.951 -109.686)" fill="#2b95f9"/>
        <path id="Trazado_624401" data-name="Trazado 624401" d="M397.433,265.246c.047,0,.134,4.127.194,9.218s.07,9.22.023,9.22-.134-4.126-.194-9.218-.071-9.219-.023-9.22" transform="translate(-178.199 -118.938)" fill="#263238"/>
        <path id="Trazado_624402" data-name="Trazado 624402" d="M466.716,314.045c0,.017-.282.045-.785.141a9.667,9.667,0,0,0-2.06.656,13.411,13.411,0,0,0-2.744,1.658,23.948,23.948,0,0,0-2.89,2.673c-.953,1.028-1.821,2.045-2.638,2.947a31.949,31.949,0,0,1-2.267,2.31,16.139,16.139,0,0,1-1.7,1.364c-.209.151-.384.249-.5.322a.948.948,0,0,1-.181.1.965.965,0,0,1,.162-.129c.108-.082.276-.189.478-.348a19.084,19.084,0,0,0,1.661-1.4c.672-.624,1.424-1.418,2.232-2.326s1.674-1.927,2.63-2.958a23.16,23.16,0,0,1,2.92-2.682,13.036,13.036,0,0,1,2.792-1.643,8.909,8.909,0,0,1,2.1-.611,5.607,5.607,0,0,1,.59-.068.945.945,0,0,1,.207-.008" transform="translate(-202.209 -140.818)" fill="#263238"/>
        <path id="Trazado_624403" data-name="Trazado 624403" d="M474.683,309.954c0,.031-.5.1-1.3.321a12.048,12.048,0,0,0-5.451,3.247c-.571.592-.874,1.006-.9.987a1.435,1.435,0,0,1,.192-.305,8.035,8.035,0,0,1,.618-.765,10.954,10.954,0,0,1,5.509-3.281,8.017,8.017,0,0,1,.967-.179,1.455,1.455,0,0,1,.36-.024" transform="translate(-209.423 -138.983)" fill="#263238"/>
        <g id="Grupo_877578" data-name="Grupo 877578" transform="translate(203.319 153.533)" opacity="0.3">
          <g id="Grupo_877577" data-name="Grupo 877577">
            <g id="Grupo_877576" data-name="Grupo 877576" clip-path="url(#clip-path-14)">
              <path id="Trazado_624404" data-name="Trazado 624404" d="M368.6,289.937c1.762.48,3.878-2.055,5.477-3.641a6.749,6.749,0,0,0,2-2.837,4.5,4.5,0,0,0-.277-2.84,10.451,10.451,0,0,0-1.171-2.276,14.782,14.782,0,0,1,.024,5.183,9.2,9.2,0,0,1-2.256,3.657,8.122,8.122,0,0,1-3.8,2.754" transform="translate(-368.604 -278.344)"/>
            </g>
          </g>
        </g>
        <path id="Trazado_624405" data-name="Trazado 624405" d="M380.944,288.414c-.033-.01.171-.581.336-1.536a11.636,11.636,0,0,0,.162-1.691,11.644,11.644,0,0,0-.645-4.088,11.664,11.664,0,0,0-.675-1.559c-.451-.858-.821-1.337-.793-1.357a1.957,1.957,0,0,1,.271.327,4.25,4.25,0,0,1,.286.408c.1.165.231.347.343.565a10.507,10.507,0,0,1,.717,1.564,11.008,11.008,0,0,1,.655,4.145,10.563,10.563,0,0,1-.2,1.708c-.04.242-.1.454-.152.643a4.44,4.44,0,0,1-.146.477,2.017,2.017,0,0,1-.157.394" transform="translate(-170.093 -124.739)" fill="#263238"/>
        <path id="Trazado_624406" data-name="Trazado 624406" d="M425.392,246.939c.023.045-.367.271-.776.638s-.681.724-.723.7a2.5,2.5,0,0,1,1.5-1.334" transform="translate(-190.075 -110.726)" fill="#263238"/>
        <path id="Trazado_624407" data-name="Trazado 624407" d="M432.074,250.59c.036.036-.3.4-.568.927s-.372,1.01-.423,1a2.45,2.45,0,0,1,.991-1.928" transform="translate(-193.294 -112.365)" fill="#263238"/>
        <path id="Trazado_624408" data-name="Trazado 624408" d="M443.052,252.75a5.311,5.311,0,0,1-.381-.993,5.369,5.369,0,0,1-.34-1.008,3.876,3.876,0,0,1,.721,2" transform="translate(-198.342 -112.437)" fill="#263238"/>
        <path id="Trazado_624409" data-name="Trazado 624409" d="M449.464,249.3c-.051.012-.18-.57-.557-1.183s-.823-1-.789-1.041a2.906,2.906,0,0,1,1.346,2.224" transform="translate(-200.939 -110.788)" fill="#263238"/>
        <path id="Trazado_624410" data-name="Trazado 624410" d="M468.24,270.657c.047.006-.517,4.554-1.258,10.158s-1.381,10.143-1.428,10.136.517-4.553,1.259-10.159,1.381-10.142,1.428-10.136" transform="translate(-208.757 -121.364)" fill="#263238"/>
        <path id="Trazado_624411" data-name="Trazado 624411" d="M374.262,284.008a2.477,2.477,0,0,1-.01.47,3.588,3.588,0,0,1-.068.548q-.027.161-.057.34c-.025.12-.062.244-.095.375a10.138,10.138,0,0,1-.656,1.787,12.222,12.222,0,0,1-1.223,1.986,10.484,10.484,0,0,1-1.626,1.675,6.993,6.993,0,0,1-1.632.984c-.126.052-.244.106-.359.148l-.334.093-.29.079c-.09.02-.175.024-.25.035a2.5,2.5,0,0,1-.469.038,8.455,8.455,0,0,0,1.654-.5,7.3,7.3,0,0,0,1.581-1,10.858,10.858,0,0,0,1.589-1.656,12.83,12.83,0,0,0,1.217-1.95,10.914,10.914,0,0,0,.681-1.75,16.265,16.265,0,0,0,.347-1.7" transform="translate(-164.652 -127.351)" fill="#263238"/>
        <g id="Grupo_877581" data-name="Grupo 877581" transform="translate(219.661 169.298)" opacity="0.3">
          <g id="Grupo_877580" data-name="Grupo 877580">
            <g id="Grupo_877579" data-name="Grupo 877579" clip-path="url(#clip-path-15)">
              <path id="Trazado_624412" data-name="Trazado 624412" d="M436.983,332.349c1.411-.682,1.732-2.513,1.876-4.073l1.266-13.723c.2-2.151.295-4.606-1.222-6.143-1.385-1.4-3.586-1.489-5.558-1.483-12.179.035-22.934.391-35.112.426l.621,21.3Z" transform="translate(-398.232 -306.926)"/>
            </g>
          </g>
        </g>
        <path id="Trazado_624413" data-name="Trazado 624413" d="M388.714,312.146l1.3,24.709a1.8,1.8,0,0,0,1.811,1.7l39.359.069a1.805,1.805,0,0,0,1.811-1.706l1.5-24.289c.05-1.009-.668-2.351-1.689-2.371l-42.243,0a1.8,1.8,0,0,0-1.847,1.885" transform="translate(-174.302 -139.121)" fill="#e0e0e0"/>
        <path id="Trazado_624414" data-name="Trazado 624414" d="M388.711,312.081s0-.031,0-.093a1.648,1.648,0,0,1,.015-.275,1.777,1.777,0,0,1,.466-.963,1.805,1.805,0,0,1,.659-.448,2.31,2.31,0,0,1,.951-.132l2.393-.008,15.25-.028,22.617-.02h1.606a1.423,1.423,0,0,1,.814.207,2.027,2.027,0,0,1,.6.59,2.84,2.84,0,0,1,.494,1.594q-.049.826-.1,1.661-.205,3.335-.419,6.806c-.285,4.623-.58,9.409-.883,14.312l-.057.918c-.025.308-.021.6-.076.925a1.884,1.884,0,0,1-1.187,1.393,2.3,2.3,0,0,1-.924.123l-.905,0-1.8,0-7.066-.013-13.358-.029-12.088-.029-2.79-.007-.682,0a5.846,5.846,0,0,1-.683-.021,1.88,1.88,0,0,1-1.18-.652,1.908,1.908,0,0,1-.44-1.244q-.033-.645-.066-1.275-.065-1.263-.126-2.468l-.772-15.229c-.087-1.8-.155-3.191-.2-4.141-.021-.471-.037-.831-.048-1.077s-.01-.367-.01-.367.012.124.028.366.036.606.065,1.076c.053.95.132,2.344.233,4.139.2,3.6.477,8.8.826,15.227q.064,1.206.132,2.468.034.63.068,1.275a1.775,1.775,0,0,0,.411,1.166,1.752,1.752,0,0,0,1.1.6,5.7,5.7,0,0,0,.665.019h.682l2.79,0,12.088.013,13.358.018,7.066.011,1.8,0,.905,0a2.135,2.135,0,0,0,.864-.112,1.713,1.713,0,0,0,1.079-1.267c.049-.28.048-.6.073-.9l.057-.918c.3-4.9.6-9.688.886-14.311q.216-3.467.423-6.806.051-.832.1-1.656a2.687,2.687,0,0,0-.465-1.5,1.464,1.464,0,0,0-1.283-.729h-1.606l-22.617-.016-15.249-.026-2.393-.008a2.277,2.277,0,0,0-.935.121,1.8,1.8,0,0,0-1.123,1.373c-.036.239-.018.365-.028.365" transform="translate(-174.299 -139.056)" fill="#263238"/>
        <path id="Trazado_624415" data-name="Trazado 624415" d="M431.176,333.645a2.318,2.318,0,1,1-2.318-2.318,2.319,2.319,0,0,1,2.318,2.318" transform="translate(-191.264 -148.569)" fill="#fff"/>
        <path id="Trazado_624416" data-name="Trazado 624416" d="M431.106,333.587c-.019,0-.01-.206-.1-.558a2.314,2.314,0,0,0-.848-1.237,2.253,2.253,0,0,0-2.129-.308,2.215,2.215,0,0,0-1.036.783,2.229,2.229,0,0,0,0,2.641,2.217,2.217,0,0,0,1.037.783,2.252,2.252,0,0,0,2.129-.309,2.308,2.308,0,0,0,.847-1.237c.094-.351.085-.559.1-.558a.5.5,0,0,1,.01.149,1.86,1.86,0,0,1-.05.425,2.308,2.308,0,0,1-.838,1.317,2.355,2.355,0,0,1-1,.456,2.386,2.386,0,0,1-1.257-.1,2.362,2.362,0,0,1-1.118-.832,2.382,2.382,0,0,1,0-2.84,2.372,2.372,0,0,1,3.374-.471,2.308,2.308,0,0,1,.839,1.317,1.857,1.857,0,0,1,.05.425.5.5,0,0,1-.01.149" transform="translate(-191.194 -148.511)" fill="#263238"/>
        <path id="Trazado_624417" data-name="Trazado 624417" d="M391.112,318.641c.048,0,.241,4.15.434,9.273s.309,9.278.262,9.281-.241-4.15-.433-9.274-.309-9.278-.263-9.279" transform="translate(-175.373 -142.881)" fill="#263238"/>
        <path id="Trazado_624418" data-name="Trazado 624418" d="M368.075,247.114c-.23-.2.778-4.076.778-4.076s-2.67-4.356-2.74-5.761a15.331,15.331,0,0,1,1.054-4.286l7.659-1.968a59.892,59.892,0,0,1,2.952,6.183c.491,1.616-.844,7.1-.844,7.1l-1.3,2.811s-3.913,3.092-7.561,0" transform="translate(-164.167 -103.592)" fill="#99655c"/>
        <path id="Trazado_624419" data-name="Trazado 624419" d="M364.993,230.483a17,17,0,0,1-.807-1.7c-.485-1.15-1.08-2.278,0-2.921a1.41,1.41,0,0,1,1.155-.182s-.166-.968.413-1.331a1.245,1.245,0,0,1,1.135-.1s-.182-1.365.65-1.945a2.021,2.021,0,0,1,2.121-.06s-.659-5.976-.716-6.294c-.21-1.162.22-2.19,1.376-1.9.424.1.659.552,1.156,2.5s1.3,5.268,1.3,5.268,1.345,2.338,1.981,3.605a30.845,30.845,0,0,1,2,4.919,10.491,10.491,0,0,1-.887,4.6l-8.142.473s-2.415-4.355-2.725-4.922" transform="translate(-163.032 -95.958)" fill="#99655c"/>
        <path id="Trazado_624420" data-name="Trazado 624420" d="M365.994,235.643a6.788,6.788,0,0,1,.63.879l.644.98a4.152,4.152,0,0,1,.35.612,1.242,1.242,0,0,1,.1.776.78.78,0,0,1-.514.6,1.015,1.015,0,0,1-.729-.09,3.233,3.233,0,0,1-.544-.336c-.16-.115-.307-.226-.439-.329-.264-.206-.469-.383-.607-.51s-.209-.2-.2-.212.339.239.88.624a7.252,7.252,0,0,0,.975.618.873.873,0,0,0,.613.074.617.617,0,0,0,.4-.481,1.091,1.091,0,0,0-.084-.673,4.3,4.3,0,0,0-.328-.593l-.613-1a6.771,6.771,0,0,1-.528-.944" transform="translate(-163.525 -105.664)" fill="#744a45"/>
        <path id="Trazado_624421" data-name="Trazado 624421" d="M379.137,234.932a3.786,3.786,0,0,1,.593-2.457c.045.022-.181.543-.341,1.217s-.2,1.241-.251,1.239" transform="translate(-169.991 -104.243)" fill="#744a45"/>
        <path id="Trazado_624422" data-name="Trazado 624422" d="M378.421,238.794a5.4,5.4,0,0,0-2.723-1.421,10.239,10.239,0,0,0-3.1-.119,2.531,2.531,0,0,0-2.151,1.03,1.772,1.772,0,0,0,.814,2.185,4.12,4.12,0,0,0,2.5.379,10.484,10.484,0,0,1,2.558-.1" transform="translate(-166.048 -106.358)" fill="#99655c"/>
        <path id="Trazado_624423" data-name="Trazado 624423" d="M376.245,240.679c0,.014-.229-.022-.643-.017a17.076,17.076,0,0,0-1.745.166,7.386,7.386,0,0,1-1.222.051,3.31,3.31,0,0,1-1.371-.344,2.109,2.109,0,0,1-1.019-1.185,1.605,1.605,0,0,1-.057-.847,1.445,1.445,0,0,1,.449-.752,2.919,2.919,0,0,1,1.565-.608,13.174,13.174,0,0,1,1.547-.093,7.83,7.83,0,0,1,2.588.392,5.188,5.188,0,0,1,1.553.838,3.683,3.683,0,0,1,.356.322c.075.081.112.125.108.129s-.17-.156-.5-.4a5.516,5.516,0,0,0-1.552-.777,7.966,7.966,0,0,0-2.549-.349,13.661,13.661,0,0,0-1.525.1,2.782,2.782,0,0,0-1.473.568,1.279,1.279,0,0,0-.4.663,1.436,1.436,0,0,0,.051.758,1.957,1.957,0,0,0,.933,1.1,3.216,3.216,0,0,0,1.307.342,7.6,7.6,0,0,0,1.2-.03,13.634,13.634,0,0,1,1.757-.112,4.06,4.06,0,0,1,.479.044.623.623,0,0,1,.163.039" transform="translate(-165.981 -106.294)" fill="#744a45"/>
        <path id="Trazado_624424" data-name="Trazado 624424" d="M367.17,235.446c.857,1.3,1.613,2.731,2.335,4.11a2.549,2.549,0,0,0,.818,1.064c.309.19,1.075-.155,1.418-.272L369.389,235" transform="translate(-164.642 -105.374)" fill="#99655c"/>
        <path id="Trazado_624425" data-name="Trazado 624425" d="M369.388,235a2.459,2.459,0,0,1,.209.4l.521,1.121c.436.954,1.033,2.288,1.7,3.8l.036.083-.087.031c-.254.09-.527.205-.821.279a1.681,1.681,0,0,1-.36.054.636.636,0,0,1-.193-.02.526.526,0,0,1-.177-.087,1.825,1.825,0,0,1-.474-.507c-.242-.379-.412-.76-.6-1.114-.37-.712-.708-1.349-1-1.879s-.541-.954-.712-1.246a3.562,3.562,0,0,1-.257-.461,2.842,2.842,0,0,1,.313.426c.189.282.453.7.761,1.222s.659,1.157,1.036,1.865c.194.35.374.739.6,1.094a1.687,1.687,0,0,0,.431.46.71.71,0,0,0,.592.028c.279-.069.543-.18.807-.274l-.05.114c-.662-1.512-1.241-2.854-1.649-3.821l-.474-1.141a2.49,2.49,0,0,1-.152-.424" transform="translate(-164.642 -105.374)" fill="#744a45"/>
        <path id="Trazado_624426" data-name="Trazado 624426" d="M370.043,231.272l2.268,5.688a3.9,3.9,0,0,0,.609,1.141,1.32,1.32,0,0,0,1.142.5,1.349,1.349,0,0,0,1.007-1.312,4.249,4.249,0,0,0-.425-1.726,35.938,35.938,0,0,1-1.626-5.323" transform="translate(-165.93 -103.24)" fill="#99655c"/>
        <path id="Trazado_624427" data-name="Trazado 624427" d="M373.019,230.237a.753.753,0,0,1,.057.173c.035.133.08.3.134.5.117.436.288,1.067.528,1.838s.548,1.681.939,2.674a5.5,5.5,0,0,1,.475,1.627,1.759,1.759,0,0,1-.171.9,1.325,1.325,0,0,1-.682.667,1.143,1.143,0,0,1-.953-.077,1.785,1.785,0,0,1-.67-.63,10.031,10.031,0,0,1-.686-1.546l-1.035-2.645-.684-1.788c-.072-.2-.131-.36-.178-.489a.8.8,0,0,1-.051-.175.728.728,0,0,1,.083.162l.208.478.734,1.768c.307.756.669,1.646,1.069,2.631a10.248,10.248,0,0,0,.68,1.512,1.626,1.626,0,0,0,.607.572.98.98,0,0,0,.813.069,1.159,1.159,0,0,0,.591-.584,1.589,1.589,0,0,0,.157-.819,5.449,5.449,0,0,0-.455-1.58c-.384-1-.682-1.918-.908-2.7s-.379-1.415-.477-1.857c-.047-.221-.083-.393-.1-.511a.761.761,0,0,1-.024-.181" transform="translate(-165.93 -103.24)" fill="#744a45"/>
        <path id="Trazado_624428" data-name="Trazado 624428" d="M365.967,255.456s-5.194,15.308-5.4,16.06,1.025,6.219,3.28,7.518,6.629-4.1,7.176-6.082a16.1,16.1,0,0,0,0-5.331l3.5-13.191" transform="translate(-161.672 -114.088)" fill="#99655c"/>
        <path id="Trazado_624429" data-name="Trazado 624429" d="M377.66,250.254a.985.985,0,0,1-.489-.064,2.727,2.727,0,0,1-1.714-1.572.991.991,0,0,1-.106-.482,3.481,3.481,0,0,0,2.31,2.118" transform="translate(-168.307 -111.266)" fill="#744a45"/>
      </g>
    </g>
  </g>
</svg>
