<svg xmlns="http://www.w3.org/2000/svg" width="85" height="84.441" viewBox="0 0 85 84.441">
  <g id="Grupo_877124" data-name="Grupo 877124" transform="translate(0 -1.682)">
    <g id="Grupo_877122" data-name="Grupo 877122" transform="translate(1.245 2.927)">
      <path id="Trazado_622082" data-name="Trazado 622082" d="M60.038,416.525H75.131v14.142H60.038Z" transform="translate(-51.316 -348.9)" fill="#febbac" fill-rule="evenodd"/>
      <path id="Trazado_622083" data-name="Trazado 622083" d="M193.582,331.314H208.67V359.6H193.582Z" transform="translate(-162.689 -277.835)" fill="#b6e1fd" fill-rule="evenodd"/>
      <path id="Trazado_622084" data-name="Trazado 622084" d="M327.1,241.091h15.093v43.267H327.1Z" transform="translate(-274.04 -202.59)" fill="#b1de19" fill-rule="evenodd"/>
      <path id="Trazado_622085" data-name="Trazado 622085" d="M178.078,104.545a3.732,3.732,0,0,0,3.7,3.716h9.362a3.716,3.716,0,1,0,0-7.433h-6.769l-3.977.274A3.734,3.734,0,0,0,178.078,104.545Z" transform="translate(-149.759 -85.614)" fill="#ffcebf" fill-rule="evenodd"/>
      <path id="Trazado_622086" data-name="Trazado 622086" d="M181.661,145.6a3.716,3.716,0,1,0,0,7.433h8.2a3.716,3.716,0,1,0,0-7.433h-8.2Z" transform="translate(-149.64 -122.952)" fill="#ffcebf" fill-rule="evenodd"/>
      <path id="Trazado_622087" data-name="Trazado 622087" d="M195.078,190.369h-2.617a3.3,3.3,0,1,0,0,6.6h4.214a3.312,3.312,0,0,0,.422-6.6h-2.02Z" transform="translate(-158.999 -160.289)" fill="#ffcebf" fill-rule="evenodd"/>
      <path id="Trazado_622088" data-name="Trazado 622088" d="M66.453,39.262a3.716,3.716,0,1,1,0-7.433,3.716,3.716,0,0,1-1.384-7.158,4.062,4.062,0,0,0,5.807-3.655V16.123l0-1.948c0-3.688-2.584-5-4.992-4.993l-8.485,0c-4.115,0-10.481,2.936-14.776,10.87l-2.835,8.832,2.835,11.981c6.3,3.518,6.987,5.007,12.718,4.988H67.895a3.3,3.3,0,1,1,0-6.6Z" transform="translate(-34.433 -9.182)" fill="#ffdfcf" fill-rule="evenodd"/>
      <path id="Trazado_622089" data-name="Trazado 622089" d="M234.347,63.492a3.716,3.716,0,1,0,0-7.433h-16.52v4.052A4.062,4.062,0,0,1,216,63.492Z" transform="translate(-181.383 -48.277)" fill="#ffcebf" fill-rule="evenodd"/>
      <path id="Trazado_622090" data-name="Trazado 622090" d="M234.347,63.492a3.716,3.716,0,0,0,.033-7.433c1.413,2.52-.308,4.449-2.674,4.449h-13.9A4.064,4.064,0,0,1,216,63.492Z" transform="translate(-181.383 -48.277)" fill="#ffb09e" fill-rule="evenodd"/>
      <path id="Trazado_622091" data-name="Trazado 622091" d="M178.211,117.295a3.712,3.712,0,0,0,3.57,4.695h9.362a3.716,3.716,0,0,0,3.593-4.7c-.436,1.574-1.887,1.589-3.593,1.589H181.8C180.13,118.879,178.656,118.9,178.211,117.295Z" transform="translate(-149.759 -99.342)" fill="#ffb09e" fill-rule="evenodd"/>
      <path id="Trazado_622092" data-name="Trazado 622092" d="M181.661,161.937a3.747,3.747,0,0,1-3.456-2.326,3.671,3.671,0,0,0-.27,1.39,3.731,3.731,0,0,0,3.726,3.716h8.2A3.731,3.731,0,0,0,193.587,161a3.674,3.674,0,0,0-.275-1.39,3.736,3.736,0,0,1-3.451,2.326Z" transform="translate(-149.64 -134.637)" fill="#ffb09e" fill-rule="evenodd"/>
      <path id="Trazado_622093" data-name="Trazado 622093" d="M60.643,180.455a14.767,14.767,0,0,1-1.986-1.017l-7.67-4.619-1.171,1.229,1.171,2.96c6.3,3.518,6.987,5.007,12.718,4.988H76.253a3.311,3.311,0,0,1-3.238-2.648,3.227,3.227,0,0,1-.066-.648,2.1,2.1,0,0,1,.009-.246H60.643Z" transform="translate(-42.791 -147.321)" fill="#ffcebf" fill-rule="evenodd"/>
      <path id="Trazado_622094" data-name="Trazado 622094" d="M121.947,37.433c-.27,1.783-3.186,2.988-4.764,2.9-3.759-.2-3.133,3.938,0,3.39,3.759.2,7.949-3.693,7.949-7.366v4.893a4.068,4.068,0,0,0,3.75,4.038c0-.151-.332-.785-.327-.955a6.256,6.256,0,0,1-.232-1.825V37.2C128.323,32.634,122.815,31.693,121.947,37.433Z" transform="translate(-96.814 -29.419)" fill="#ffcebf" fill-rule="evenodd"/>
      <path id="Trazado_622095" data-name="Trazado 622095" d="M15.7,81.65V59.532a1.456,1.456,0,0,0-1.45-1.451H7.5V83.1h6.745A1.455,1.455,0,0,0,15.7,81.65Z" transform="translate(-7.5 -49.963)" fill="#99e6fc" fill-rule="evenodd"/>
      <path id="Trazado_622096" data-name="Trazado 622096" d="M14.245,166.155H7.5v5.867h6.745a1.455,1.455,0,0,0,1.45-1.447v-5.868A1.455,1.455,0,0,1,14.245,166.155Z" transform="translate(-7.5 -138.888)" fill="#62dbfb" fill-rule="evenodd"/>
      <path id="Trazado_622097" data-name="Trazado 622097" d="M383.177,241.091h5.783v43.267h-5.783Z" transform="translate(-320.809 -202.59)" fill="#3d672f" fill-rule="evenodd"/>
      <path id="Trazado_622098" data-name="Trazado 622098" d="M249.661,331.314h5.779V359.6h-5.779Z" transform="translate(-209.458 -277.835)" fill="#2b95f9" fill-rule="evenodd"/>
      <path id="Trazado_622099" data-name="Trazado 622099" d="M116.146,416.525h5.779v14.142h-5.779Z" transform="translate(-98.109 -348.9)" fill="#e44e00" fill-rule="evenodd"/>
      <path id="Trazado_622100" data-name="Trazado 622100" d="M195.907,204.72h-3.622a3.1,3.1,0,0,1-3.048-1.754,2.693,2.693,0,0,0-.071.482,2.1,2.1,0,0,0-.009.246,3.227,3.227,0,0,0,.066.648,3.311,3.311,0,0,0,3.238,2.648h4.214a3.333,3.333,0,0,0,3.3-3.324,3.283,3.283,0,0,0-.256-1.276,3.113,3.113,0,0,1-3.223,2.331h-.593Z" transform="translate(-158.999 -170.314)" fill="#ffb09e" fill-rule="evenodd"/>
    </g>
    <g id="Grupo_877123" data-name="Grupo 877123" transform="translate(0 1.682)">
      <path id="Trazado_622101" data-name="Trazado 622101" d="M10.022,36.379c.9.526,1.683,1,2.391,1.432,3.305,2.017,4.976,3.037,9.639,3.037H38.921a4.564,4.564,0,0,0,4.549-4.569,4.513,4.513,0,0,0-.591-2.232,4.952,4.952,0,0,0,2.366-7.974,4.946,4.946,0,0,0,1.69-6.686h7.273a4.961,4.961,0,1,0,0-9.922H38.937V7.92a6.2,6.2,0,0,0-1.684-4.512,6.335,6.335,0,0,0-4.538-1.726H32.7l-8.486,0c-3.961,0-9.808,2.406-14.289,8.937A2.686,2.686,0,0,0,7.99,9.8H1.245a1.245,1.245,0,1,0,0,2.49H7.991A.211.211,0,0,1,8.2,12.5v8.336a1.245,1.245,0,0,0,2.49,0V14.126C14.5,7.264,20.211,4.182,24.217,4.177l8.487,0h.01a3.973,3.973,0,0,1,2.781,1,3.733,3.733,0,0,1,.952,2.747l0,2.736c0,.019,0,.037,0,.056s0,.036,0,.054l0,4a2.8,2.8,0,0,1-1.232,2.319c-.02.012-.04.024-.059.037a2.815,2.815,0,0,1-4.344-2.356V9.868a1.245,1.245,0,0,0-2.49,0,6.107,6.107,0,0,1-2.1,4.158,6.464,6.464,0,0,1-4.541,1.965,1.245,1.245,0,1,0-.131,2.487,8.961,8.961,0,0,0,6.386-2.645q.219-.208.424-.425a5.277,5.277,0,0,0,1.393,2.968,4.942,4.942,0,0,0,.242,7.185,4.95,4.95,0,0,0,.994,8.135,4.522,4.522,0,0,0-.336,4.66H22.155c-4.042.018-5.243-.718-8.446-2.672-.868-.53-1.837-1.121-3.023-1.8V26.61a1.245,1.245,0,0,0-2.49,0v8a.209.209,0,0,1-.205.2H1.245a1.245,1.245,0,0,0,0,2.49H7.991a2.688,2.688,0,0,0,2.031-.927ZM54.208,11.955a2.471,2.471,0,1,1,0,4.942H38.482a5.255,5.255,0,0,0,.452-2.135l0-2.807H54.208Zm-18,7.432h6.42a2.471,2.471,0,1,1,0,4.942H33.275a2.467,2.467,0,0,1-1.33-4.544,5.308,5.308,0,0,0,4.263-.4ZM33.266,26.82h8.2a2.471,2.471,0,1,1,0,4.942h-8.2a2.471,2.471,0,1,1,0-4.942Zm-.618,9.488a2.059,2.059,0,0,1,2.059-2.055h4.535a2.058,2.058,0,0,1,1.738,2.027,2.1,2.1,0,0,1-2.059,2.079H34.707a2.057,2.057,0,0,1-2.059-2.05Z" transform="translate(0 -1.682)"/>
      <path id="Trazado_622102" data-name="Trazado 622102" d="M96.471,24.579a1.245,1.245,0,0,0-1.245,1.245v6H89.692a1.245,1.245,0,1,0,0,2.49h5.533V45.969H89.692a1.245,1.245,0,0,0,0,2.49h5.533V60.115H89.692a1.245,1.245,0,0,0,0,2.49h5.533V74.257H89.692a1.245,1.245,0,0,0,0,2.49h5.533V88.4H89.692a1.245,1.245,0,0,0,0,2.49h5.533v11.836H83.357V60.523a1.245,1.245,0,0,0-1.245-1.245H67.019a1.245,1.245,0,0,0-1.245,1.245V78.9a1.245,1.245,0,0,0,2.49,0V61.769h12.6v40.776h-12.6V84.674a1.245,1.245,0,0,0-2.49,0v18.055H61.187V75.5a1.245,1.245,0,0,0-1.245-1.245H44.853A1.245,1.245,0,0,0,43.608,75.5v27.227H39.021V89.648A1.245,1.245,0,0,0,37.776,88.4H22.683a1.245,1.245,0,0,0-1.245,1.245v13.081H16.492a1.245,1.245,0,0,0,0,2.49H96.471a1.245,1.245,0,0,0,1.245-1.245V25.824a1.245,1.245,0,0,0-1.245-1.245ZM46.1,76.747H58.7v25.8H46.1ZM23.928,90.893h12.6v11.651h-12.6Z" transform="translate(-12.716 -20.778)"/>
    </g>
  </g>
</svg>
