<svg xmlns="http://www.w3.org/2000/svg" width="98" height="74.61" viewBox="0 0 98 74.61">
  <g id="Grupo_878454" data-name="Grupo 878454" transform="translate(-0.001 -61.1)">
    <g id="Grupo_878452" data-name="Grupo 878452" transform="translate(1.436 62.536)">
      <path id="Trazado_626841" data-name="Trazado 626841" d="M53.149,192.031H19.35a4.914,4.914,0,0,1,0-9.828h33.8a4.914,4.914,0,0,1,0,9.828Z" transform="translate(-13.108 -160.459)" fill="#eaac9d"/>
      <path id="Trazado_626842" data-name="Trazado 626842" d="M68.295,138.833a14.228,14.228,0,0,1-14.228-14.228V111.127a14.228,14.228,0,0,1,28.455,0v13.479A14.227,14.227,0,0,1,68.295,138.833Z" transform="translate(-45.153 -91.482)" fill="#ffddce"/>
      <path id="Trazado_626843" data-name="Trazado 626843" d="M71.948,138.363a14.24,14.24,0,0,1-17.88-13.756V111.13a14.24,14.24,0,0,1,17.88-13.756A14.235,14.235,0,0,0,61.369,111.13v13.477A14.234,14.234,0,0,0,71.948,138.363Z" transform="translate(-45.154 -91.484)" fill="#ffcbbe"/>
      <path id="Trazado_626844" data-name="Trazado 626844" d="M35.7,82.309h1.25a6.865,6.865,0,0,1,6.865,6.865v.053a6.865,6.865,0,0,1-6.865,6.865H35.7a6.865,6.865,0,0,1-6.865-6.865v-.053A6.865,6.865,0,0,1,35.7,82.309Z" transform="translate(-24.749 -79.685)" fill="#f9d9a2"/>
      <path id="Trazado_626845" data-name="Trazado 626845" d="M38.78,95.844a6.753,6.753,0,0,1-1.833.25H35.7a6.865,6.865,0,0,1-6.866-6.864v-.052A6.865,6.865,0,0,1,35.7,82.314h1.249a6.752,6.752,0,0,1,1.833.25,6.859,6.859,0,0,0-5.034,6.614v.052A6.859,6.859,0,0,0,38.78,95.844Z" transform="translate(-24.749 -79.689)" fill="#aa593d"/>
      <path id="Trazado_626846" data-name="Trazado 626846" d="M100.828,76.09a9.867,9.867,0,0,0,9.867,9.867,16.049,16.049,0,0,0,16.049-16.049V68.6H107.958A7.139,7.139,0,0,0,100.828,76.09Z" transform="translate(-82.957 -68.6)" fill="#f9d9a2"/>
      <path id="Trazado_626847" data-name="Trazado 626847" d="M113.9,85.643a16.112,16.112,0,0,1-3.2.319,9.865,9.865,0,0,1-9.867-9.867,7.139,7.139,0,0,1,7.131-7.488h5.706a7.139,7.139,0,0,0-7.131,7.488A9.872,9.872,0,0,0,113.9,85.643Z" transform="translate(-82.957 -68.606)" fill="#aa593d"/>
      <path id="Trazado_626848" data-name="Trazado 626848" d="M224.813,161.43v37.751l-36.641-12.564V173.994Z" transform="translate(-153.59 -143.662)" fill="#ffb338"/>
      <path id="Trazado_626849" data-name="Trazado 626849" d="M224.813,276.475v11.57l-36.641-12.564V271.33Z" transform="translate(-153.59 -232.526)" fill="#eb6f2d"/>
      <path id="Trazado_626850" data-name="Trazado 626850" d="M52.03,331.344a28.7,28.7,0,0,1-33.854.641A28.484,28.484,0,0,1,7.8,318.5a4.786,4.786,0,0,1,8.979-3.315,19.077,19.077,0,0,0,28.652,9.122Z" transform="translate(-7.499 -265.458)" fill="#cbe2ff"/>
      <path id="Trazado_626851" data-name="Trazado 626851" d="M46.384,334.691a28.859,28.859,0,0,1-11.76,2.506A28.622,28.622,0,0,1,7.8,318.5a4.787,4.787,0,0,1,4.791-6.433,4.781,4.781,0,0,0-1.164,5.1,28.622,28.622,0,0,0,26.828,18.695A28.93,28.93,0,0,0,46.384,334.691Z" transform="translate(-7.499 -265.459)" fill="#bed8fb"/>
      <path id="Trazado_626852" data-name="Trazado 626852" d="M218.323,348.071a28.518,28.518,0,0,1-6.058,6.3l-6.6-7.036a18.953,18.953,0,0,0,4.833-4.768,4.785,4.785,0,1,1,7.827,5.509Z" transform="translate(-167.733 -288.481)" fill="#ffddce"/>
      <g id="Grupo_878451" data-name="Grupo 878451" transform="translate(79.571 15.112)">
        <path id="Trazado_626853" data-name="Trazado 626853" d="M428.753,328.068l.209-.39a2.97,2.97,0,0,1,3.839-1.3l4.378,1.975a2.97,2.97,0,0,1,1.4,4.111l-.52.97a2.97,2.97,0,0,1-4.2,1.111l-4.067-2.555A2.97,2.97,0,0,1,428.753,328.068Z" transform="translate(-427.407 -291.934)" fill="#eb6f2d"/>
        <path id="Trazado_626854" data-name="Trazado 626854" d="M448.332,244.8l-.014-.443a2.97,2.97,0,0,1,2.673-3.048l4.779-.478a2.97,2.97,0,0,1,3.264,2.863l.034,1.1a2.97,2.97,0,0,1-3.079,3.061l-4.8-.179A2.97,2.97,0,0,1,448.332,244.8Z" transform="translate(-443.512 -222.966)" fill="#eb6f2d"/>
        <path id="Trazado_626855" data-name="Trazado 626855" d="M423.894,155.269l-.233-.376a2.97,2.97,0,0,1,.791-3.976l3.9-2.8a2.97,2.97,0,0,1,4.258.847l.58.935a2.97,2.97,0,0,1-1.136,4.19l-4.246,2.245A2.97,2.97,0,0,1,423.894,155.269Z" transform="translate(-423.215 -147.554)" fill="#eb6f2d"/>
      </g>
      <path id="Trazado_626856" data-name="Trazado 626856" d="M120.131,214.621h2.849a2.522,2.522,0,0,1,2.522,2.522v4.989a3.946,3.946,0,1,1-7.893,0v-4.989A2.523,2.523,0,0,1,120.131,214.621Z" transform="translate(-96.533 -186.671)" fill="#2b95f9"/>
    </g>
    <g id="Grupo_878453" data-name="Grupo 878453" transform="translate(0.001 61.1)">
      <path id="Trazado_626857" data-name="Trazado 626857" d="M112.941,178.675a1.435,1.435,0,0,0,1.436-1.436v-2.874a1.436,1.436,0,1,0-2.871,0v2.874A1.435,1.435,0,0,0,112.941,178.675Z" transform="translate(-90.162 -151.525)"/>
      <path id="Trazado_626858" data-name="Trazado 626858" d="M151.731,178.675a1.435,1.435,0,0,0,1.436-1.436v-2.874a1.436,1.436,0,1,0-2.871,0v2.874A1.435,1.435,0,0,0,151.731,178.675Z" transform="translate(-121.528 -151.525)"/>
      <path id="Trazado_626859" data-name="Trazado 626859" d="M73.5,79.135a1.435,1.435,0,0,0-1.3-.19l-5.551,1.9a1.435,1.435,0,0,0,.931,2.716l3.65-1.251v33.732l-33.772-11.58V93.893l24.811-8.507a1.436,1.436,0,0,0-.931-2.716l-13.768,4.72a6.361,6.361,0,0,0-6.088-4.546H40.242V77.369a17.457,17.457,0,0,0,6.417-13.526V62.536A1.435,1.435,0,0,0,45.224,61.1H26.438a8.5,8.5,0,0,0-6.21,2.662A8.641,8.641,0,0,0,18.891,65.6a8.258,8.258,0,0,0-5.256-1.873H12.384a8.309,8.309,0,0,0-8.3,8.3v.052a8.309,8.309,0,0,0,4.829,7.536v3.232H7.679a6.349,6.349,0,1,0,0,12.7H8.913v.114a15.66,15.66,0,0,0,26.626,11.186l.013.006,4.992,1.712-.69,1.673a7.271,7.271,0,0,0,1.4,7.7,17.641,17.641,0,0,1-29.191-6.166A6.221,6.221,0,1,0,.387,116.076a30.032,30.032,0,0,0,3.775,7.114,1.436,1.436,0,1,0,2.332-1.675,27.157,27.157,0,0,1-3.414-6.434,3.35,3.35,0,1,1,6.285-2.319,20.511,20.511,0,0,0,29.768,10.475l4.658,4.963a27.33,27.33,0,0,1-15.23,4.639,26.994,26.994,0,0,1-15.621-4.951A27.4,27.4,0,0,1,10.1,125.6a1.435,1.435,0,1,0-1.949,2.108,30.255,30.255,0,0,0,3.134,2.529A30.1,30.1,0,0,0,53.2,122.953q.175-.249.324-.51a7.228,7.228,0,0,0,6.19-4.462l1.03-2.495L72.2,119.413a1.436,1.436,0,0,0,1.9-1.358V80.3a1.44,1.44,0,0,0-.6-1.169Zm-32.019,6.58a3.483,3.483,0,0,1,3.365,2.609l-4.6,1.577V85.715ZM22.307,65.742a5.652,5.652,0,0,1,4.131-1.771h17.35A14.631,14.631,0,0,1,29.175,78.457a8.441,8.441,0,0,1-8.432-8.432c0-.024,0-.047,0-.07a5.652,5.652,0,0,1,1.566-4.213ZM6.955,72.077v-.052A5.435,5.435,0,0,1,12.383,66.6h1.251a5.393,5.393,0,0,1,4.283,2.1,8.744,8.744,0,0,0-.046,1.365,11.236,11.236,0,0,0,.782,4.088,5.4,5.4,0,0,1-5.019,3.357H12.383A5.434,5.434,0,0,1,6.955,72.077Zm.724,20.6a3.478,3.478,0,1,1,0-6.955H8.912v6.955Zm16.9,15.781a12.808,12.808,0,0,1-12.792-12.8v-15.3c.2.014.4.024.6.024h1.251a8.26,8.26,0,0,0,6.674-3.354,11.286,11.286,0,0,0,8.866,4.305,17.375,17.375,0,0,0,8.2-2.044v11.6l-1.819.624a1.436,1.436,0,0,0-.97,1.358v10.763a12.676,12.676,0,0,1-10.007,4.822ZM50.851,121.3a27.031,27.031,0,0,1-4.752,5.164l-4.586-4.887a20.449,20.449,0,0,0,3.859-4.133,3.35,3.35,0,1,1,5.479,3.856Zm6.208-4.415a4.365,4.365,0,0,1-2.726,2.5,6.292,6.292,0,0,0-.091-1.079A6.22,6.22,0,0,0,43.1,115.684a4.384,4.384,0,0,1-.6-4.355l.758-1.835,14.757,5.06Z" transform="translate(-0.001 -61.1)"/>
      <path id="Trazado_626860" data-name="Trazado 626860" d="M431.721,320.989l-4.378-1.976a4.419,4.419,0,0,0-5.694,1.933l-.209.39h0a4.419,4.419,0,0,0,1.539,5.813l4.067,2.555a4.406,4.406,0,0,0,6.226-1.648l.52-.969a4.406,4.406,0,0,0-2.07-6.1Zm-.46,4.741-.52.969a1.535,1.535,0,0,1-2.168.574l-4.067-2.555a1.539,1.539,0,0,1-.536-2.025l.209-.39a1.539,1.539,0,0,1,1.983-.673l4.378,1.975a1.535,1.535,0,0,1,.721,2.124Z" transform="translate(-340.352 -269.333)"/>
      <path id="Trazado_626861" data-name="Trazado 626861" d="M454.437,238.688l-.034-1.1a4.406,4.406,0,0,0-4.842-4.246l-4.779.478a4.419,4.419,0,0,0-3.965,4.521l.014.443a4.419,4.419,0,0,0,4.239,4.265l4.8.179c.054,0,.108,0,.162,0a4.406,4.406,0,0,0,4.405-4.544Zm-3.321,1.226a1.517,1.517,0,0,1-1.139.445l-4.8-.179A1.539,1.539,0,0,1,443.7,238.7l-.014-.443a1.539,1.539,0,0,1,1.381-1.575l4.779-.478a1.535,1.535,0,0,1,1.687,1.479l.034,1.1A1.521,1.521,0,0,1,451.116,239.914Z" transform="translate(-356.44 -200.357)"/>
      <path id="Trazado_626862" data-name="Trazado 626862" d="M420.383,152.047a4.372,4.372,0,0,0,2.048-.508l4.246-2.245a4.406,4.406,0,0,0,1.686-6.216l-.579-.935a4.406,4.406,0,0,0-6.316-1.256l-3.9,2.8a4.418,4.418,0,0,0-1.173,5.9l.233.376A4.417,4.417,0,0,0,420.383,152.047Zm-1.141-6.025,3.9-2.8a1.518,1.518,0,0,1,.89-.289,1.555,1.555,0,0,1,.3.03,1.519,1.519,0,0,1,1.005.7l.579.935a1.534,1.534,0,0,1-.587,2.165L421.089,149a1.54,1.54,0,0,1-2.022-.548h0l-.233-.376a1.539,1.539,0,0,1,.409-2.055Z" transform="translate(-336.162 -124.946)"/>
      <path id="Trazado_626863" data-name="Trazado 626863" d="M116.916,207.121h-2.849a3.962,3.962,0,0,0-3.958,3.958v4.989a5.382,5.382,0,0,0,10.764,0v-4.989a3.962,3.962,0,0,0-3.958-3.958ZM118,216.067a2.511,2.511,0,0,1-5.022,0v-4.989a1.088,1.088,0,0,1,1.087-1.087h2.849A1.088,1.088,0,0,1,118,211.079v4.989Z" transform="translate(-89.034 -179.171)"/>
    </g>
  </g>
</svg>
