<svg id="Grupo_877530" data-name="Grupo 877530" xmlns="http://www.w3.org/2000/svg" xmlns:xlink="http://www.w3.org/1999/xlink" width="485.207" height="305.632" viewBox="0 0 485.207 305.632">
  <defs>
    <clipPath id="clip-path">
      <rect id="Rectángulo_327547" data-name="Rectángulo 327547" width="485.207" height="305.632" fill="none"/>
    </clipPath>
    <clipPath id="clip-path-7">
      <rect id="Rectángulo_327536" data-name="Rectángulo 327536" width="65.871" height="26.521" fill="none"/>
    </clipPath>
    <clipPath id="clip-path-8">
      <rect id="Rectángulo_327537" data-name="Rectángulo 327537" width="4.107" height="21.626" fill="none"/>
    </clipPath>
    <clipPath id="clip-path-9">
      <rect id="Rectángulo_327538" data-name="Rectángulo 327538" width="24.185" height="16.94" fill="none"/>
    </clipPath>
  </defs>
  <g id="Grupo_877529" data-name="Grupo 877529" clip-path="url(#clip-path)">
    <g id="Grupo_877507" data-name="Grupo 877507">
      <g id="Grupo_877506" data-name="Grupo 877506" clip-path="url(#clip-path)">
        <path id="Trazado_623852" data-name="Trazado 623852" d="M555.363,304.271a21.784,21.784,0,0,1,5.279-2.258l1.087-5.143,8.828-.152,1.271,5.1a21.835,21.835,0,0,1,5.356,2.074l4.461-2.879L588,307.051l-2.766,4.489a21.075,21.075,0,0,1,2.294,5.2l5.224,1.07.155,8.688-5.183,1.25a21.059,21.059,0,0,1-2.107,5.272l2.924,4.392-6.132,6.251-4.561-2.722a21.786,21.786,0,0,1-5.279,2.258l-1.088,5.143-8.827.153-1.271-5.1a21.847,21.847,0,0,1-5.356-2.074l-4.461,2.879-6.352-6.036,2.766-4.489a21.091,21.091,0,0,1-2.294-5.2l-5.225-1.07-.156-8.689,5.184-1.25a21.087,21.087,0,0,1,2.107-5.272l-2.924-4.392,6.132-6.251Zm5.616,10.757a9.239,9.239,0,0,0,.268,14.788,9.583,9.583,0,0,0,11.538-.2,9.239,9.239,0,0,0-.268-14.79,9.584,9.584,0,0,0-11.538.2" transform="translate(-161.602 -88.747)" fill="#ebebeb"/>
        <path id="Trazado_623853" data-name="Trazado 623853" d="M413.547,385.052a16.745,16.745,0,0,1,4.06-1.737l.836-3.955,6.79-.117.977,3.923a16.816,16.816,0,0,1,4.119,1.6l3.432-2.213,4.885,4.642-2.127,3.453a16.217,16.217,0,0,1,1.765,4l4.018.823.119,6.682-3.986.962a16.214,16.214,0,0,1-1.621,4.054l2.249,3.378-4.716,4.808-3.508-2.094a16.784,16.784,0,0,1-4.06,1.736l-.837,3.955-6.789.117-.977-3.924a16.758,16.758,0,0,1-4.119-1.6l-3.432,2.214-4.885-4.642,2.127-3.453a16.23,16.23,0,0,1-1.765-4l-4.018-.823-.119-6.682,3.987-.962a16.243,16.243,0,0,1,1.62-4.054l-2.249-3.377,4.716-4.808Zm4.319,8.273a7.106,7.106,0,0,0,.206,11.373,7.371,7.371,0,0,0,8.873-.154,7.106,7.106,0,0,0-.205-11.376,7.371,7.371,0,0,0-8.874.157" transform="translate(-120.225 -113.43)" fill="#f5f5f5"/>
        <path id="Trazado_623854" data-name="Trazado 623854" d="M635.245,299.308A9.753,9.753,0,0,1,637.6,298.3l.486-2.3,3.942-.068.567,2.277a9.727,9.727,0,0,1,2.391.927l1.993-1.285,2.836,2.7-1.234,2a9.431,9.431,0,0,1,1.024,2.321l2.333.477.069,3.879-2.314.559a9.434,9.434,0,0,1-.941,2.354l1.305,1.96L647.32,316.9l-2.037-1.215a9.74,9.74,0,0,1-2.357,1.008l-.486,2.3-3.942.068-.567-2.278a9.764,9.764,0,0,1-2.391-.926l-1.992,1.285-2.837-2.7,1.235-2a9.427,9.427,0,0,1-1.025-2.321l-2.333-.477-.069-3.88,2.314-.559a9.452,9.452,0,0,1,.941-2.354l-1.306-1.96,2.738-2.792Zm2.508,4.8a4.126,4.126,0,0,0,.12,6.6,4.28,4.28,0,0,0,5.152-.09,4.126,4.126,0,0,0-.119-6.6,4.28,4.28,0,0,0-5.152.091" transform="translate(-187.987 -88.513)" fill="#ebebeb"/>
        <path id="Trazado_623855" data-name="Trazado 623855" d="M555.169,394.217a9.735,9.735,0,0,1,2.356-1.008l.486-2.3,3.942-.069.567,2.278a9.744,9.744,0,0,1,2.392.927l1.992-1.285,2.836,2.695-1.234,2a9.426,9.426,0,0,1,1.024,2.321l2.333.477.069,3.879-2.314.559a9.423,9.423,0,0,1-.941,2.354l1.305,1.961-2.738,2.792-2.037-1.215a9.741,9.741,0,0,1-2.357,1.008l-.486,2.3-3.942.068-.567-2.278a9.753,9.753,0,0,1-2.391-.926l-1.992,1.285-2.837-2.7,1.235-2a9.43,9.43,0,0,1-1.025-2.321l-2.333-.478-.069-3.88,2.314-.559a9.433,9.433,0,0,1,.941-2.354l-1.306-1.96L553.132,393Zm2.507,4.8a4.126,4.126,0,0,0,.12,6.6,4.28,4.28,0,0,0,5.152-.09,4.126,4.126,0,0,0-.119-6.6,4.28,4.28,0,0,0-5.152.091" transform="translate(-164.037 -116.899)" fill="#f5f5f5"/>
        <path id="Trazado_623856" data-name="Trazado 623856" d="M71.068,37.363a24.316,24.316,0,0,1,5.886-2.518l1.212-5.734,9.844-.17,1.417,5.689A24.359,24.359,0,0,1,95.4,36.942l4.975-3.209,7.083,6.731-3.084,5.005a23.53,23.53,0,0,1,2.558,5.8l5.825,1.193.173,9.688-5.78,1.395a23.518,23.518,0,0,1-2.349,5.878l3.261,4.9-6.838,6.971L96.137,78.25a24.305,24.305,0,0,1-5.887,2.518L89.038,86.5l-9.844.17-1.417-5.689a24.365,24.365,0,0,1-5.972-2.312L66.83,81.88l-7.083-6.731,3.084-5.005a23.528,23.528,0,0,1-2.558-5.794l-5.826-1.193-.172-9.688,5.78-1.4A23.539,23.539,0,0,1,62.4,46.2l-3.261-4.9,6.837-6.97ZM77.33,49.358a10.3,10.3,0,0,0,.3,16.489,10.689,10.689,0,0,0,12.866-.224,10.3,10.3,0,0,0-.3-16.492,10.687,10.687,0,0,0-12.866.227" transform="translate(-16.233 -8.656)" fill="#ebebeb"/>
        <path id="Trazado_623857" data-name="Trazado 623857" d="M152.994,14.566a9.736,9.736,0,0,1,2.356-1.008l.486-2.3,3.942-.068.567,2.277a9.742,9.742,0,0,1,2.392.927l1.992-1.285,2.836,2.695-1.234,2a9.425,9.425,0,0,1,1.024,2.321l2.333.477.069,3.88-2.314.558A9.422,9.422,0,0,1,166.5,27.4l1.305,1.961-2.738,2.792-2.037-1.215a9.741,9.741,0,0,1-2.357,1.008l-.486,2.3-3.942.068-.567-2.278a9.752,9.752,0,0,1-2.391-.926L151.3,32.393l-2.836-2.7,1.235-2a9.428,9.428,0,0,1-1.025-2.321l-2.333-.477-.069-3.88,2.314-.558a9.44,9.44,0,0,1,.941-2.354l-1.306-1.96,2.738-2.792Zm2.507,4.8a4.126,4.126,0,0,0,.12,6.6,4.28,4.28,0,0,0,5.152-.09,4.126,4.126,0,0,0-.119-6.6,4.28,4.28,0,0,0-5.152.091" transform="translate(-43.748 -3.348)" fill="#ebebeb"/>
        <path id="Trazado_623858" data-name="Trazado 623858" d="M43.853,156.781a12.082,12.082,0,0,1,2.928-1.253l.6-2.853,4.9-.084.705,2.83a12.1,12.1,0,0,1,2.971,1.151l2.476-1.6,3.523,3.348-1.534,2.49A11.71,11.71,0,0,1,61.7,163.7l2.9.593.086,4.821-2.875.694a11.715,11.715,0,0,1-1.169,2.924l1.622,2.436-3.4,3.468-2.53-1.51a12.1,12.1,0,0,1-2.929,1.253l-.6,2.853-4.9.085-.705-2.83a12.1,12.1,0,0,1-2.971-1.151l-2.476,1.6-3.523-3.348,1.534-2.49a11.7,11.7,0,0,1-1.272-2.883l-2.9-.594-.086-4.82,2.875-.694a11.72,11.72,0,0,1,1.169-2.925l-1.623-2.436,3.4-3.468Zm3.116,5.967a5.126,5.126,0,0,0,.149,8.2,5.319,5.319,0,0,0,6.4-.111,5.126,5.126,0,0,0-.149-8.205,5.317,5.317,0,0,0-6.4.113" transform="translate(-10.617 -45.639)" fill="#f5f5f5"/>
      </g>
    </g>
    <g id="Grupo_877509" data-name="Grupo 877509">
      <g id="Grupo_877508" data-name="Grupo 877508" clip-path="url(#clip-path)">
        <path id="Trazado_623859" data-name="Trazado 623859" d="M404.677,156.084s-.026-.538-.059-1.59q-.023-.79-.059-1.957c-.018-.779-.039-1.682-.138-2.7q-.121-1.534-.27-3.427c-.128-1.258-.33-2.628-.514-4.116a103.428,103.428,0,0,0-1.991-10.151,97.241,97.241,0,0,0-4.016-12.31,94.672,94.672,0,0,0-6.818-13.8,99.092,99.092,0,0,0-24.878-27.836A97.678,97.678,0,0,0,324.717,59.9a99.484,99.484,0,0,0-38.357.439c-2.182.507-4.389.976-6.56,1.643-2.2.573-4.346,1.359-6.525,2.087a98.056,98.056,0,0,0-24.791,13.328,107.336,107.336,0,0,0-11.043,9.511,105.636,105.636,0,0,0-9.668,11.282,96.526,96.526,0,0,0-7.979,12.843c-.562,1.14-1.2,2.249-1.7,3.422l-1.581,3.5-1.415,3.584-.355.9-.31.915-.62,1.834-.62,1.837-.531,1.869c-.336,1.252-.752,2.485-1.014,3.76l-.875,3.81q-.344,1.927-.689,3.862a97.666,97.666,0,0,0,0,31.5,95.447,95.447,0,0,0,3.725,15.144l.62,1.834.31.916.354.9L216.5,194.2l1.581,3.5c.253.587.536,1.158.833,1.722l.871,1.7a96.224,96.224,0,0,0,7.979,12.848,105.4,105.4,0,0,0,9.668,11.286,107.217,107.217,0,0,0,11.045,9.515,98.1,98.1,0,0,0,24.8,13.33c2.181.728,4.328,1.514,6.526,2.087,2.172.667,4.379,1.136,6.562,1.644a99.5,99.5,0,0,0,38.361.437,97.684,97.684,0,0,0,41.218-18.3,99.093,99.093,0,0,0,24.876-27.836,94.573,94.573,0,0,0,6.816-13.8c.421-1.107.894-2.167,1.245-3.244l1.068-3.144c.369-1.016.606-2.046.9-3.029.27-.991.583-1.943.8-2.893.927-3.781,1.574-7.182,1.991-10.15.184-1.487.386-2.857.514-4.116q.149-1.891.27-3.427c.1-1.021.12-1.924.138-2.7s.043-1.431.059-1.957c.033-1.051.059-1.589.059-1.589s0,.538-.022,1.59q-.016.791-.04,1.958c-.013.779-.027,1.684-.121,2.705q-.114,1.536-.252,3.431c-.122,1.26-.319,2.632-.5,4.121a102.168,102.168,0,0,1-1.96,10.169c-.211.952-.522,1.906-.79,2.9-.3.985-.53,2.017-.9,3.036l-1.062,3.151c-.35,1.079-.821,2.143-1.241,3.252a94.524,94.524,0,0,1-6.8,13.841A99.18,99.18,0,0,1,366.1,234.177a97.879,97.879,0,0,1-41.319,18.39,99.749,99.749,0,0,1-38.484-.413c-2.19-.507-4.405-.977-6.585-1.645-2.206-.575-4.362-1.362-6.55-2.092a98.325,98.325,0,0,1-24.888-13.367,107.481,107.481,0,0,1-11.087-9.544,105.717,105.717,0,0,1-9.707-11.325,96.571,96.571,0,0,1-8.011-12.892l-.875-1.707c-.3-.566-.582-1.14-.837-1.728l-1.588-3.512-1.421-3.6-.355-.9-.311-.92-.622-1.841a95.793,95.793,0,0,1-3.741-15.2,98.016,98.016,0,0,1,0-31.619l.693-3.875q.439-1.916.878-3.825c.263-1.28.68-2.518,1.017-3.774l.533-1.876.622-1.845.623-1.84.311-.919.356-.9,1.421-3.6,1.588-3.511c.508-1.178,1.146-2.289,1.712-3.434a96.763,96.763,0,0,1,8.011-12.889,105.881,105.881,0,0,1,9.706-11.32,107.605,107.605,0,0,1,11.086-9.542,98.376,98.376,0,0,1,24.884-13.363c2.188-.73,4.344-1.517,6.549-2.091,2.179-.668,4.394-1.138,6.584-1.646a99.759,99.759,0,0,1,38.48-.414,97.887,97.887,0,0,1,41.319,18.387,99.166,99.166,0,0,1,24.9,27.936,94.543,94.543,0,0,1,6.8,13.842,96.862,96.862,0,0,1,3.992,12.339,102.45,102.45,0,0,1,1.961,10.171c.179,1.49.375,2.862.5,4.122q.139,1.895.252,3.432c.093,1.023.109,1.927.121,2.706s.029,1.432.04,1.959c.021,1.051.022,1.59.022,1.59" transform="translate(-62.342 -17.32)" fill="#263238"/>
        <path id="Trazado_623860" data-name="Trazado 623860" d="M162.966,107.106s0-.05.008-.158.026-.268.05-.479c.043-.421.143-1.043.273-1.859.28-1.628.789-4.016,1.632-7.045A107.085,107.085,0,0,1,175.5,73.151l1.083-1.846c.36-.626.733-1.254,1.145-1.867l2.462-3.8c.868-1.273,1.8-2.537,2.729-3.845.908-1.322,1.928-2.6,2.959-3.9,2-2.654,4.3-5.211,6.625-7.891l3.723-3.9.948-.991,1-.955,2.018-1.928a152.148,152.148,0,0,1,18.315-14.733c3.382-2.291,6.893-4.531,10.583-6.592a108.523,108.523,0,0,1,11.521-5.724l.19-.079.053.2,1.2,4.6c.547,2.1,1.091,4.185,1.61,6.171l.04.154-.147.061A115.414,115.414,0,0,0,212.442,45.47a128.523,128.523,0,0,0-21.325,23.973,140.705,140.705,0,0,0-12.668,22.708c-1.51,3.422-2.748,6.612-3.738,9.511-.491,1.451-.936,2.825-1.3,4.126-.191.647-.344,1.281-.5,1.889a8.911,8.911,0,0,0-.288,1.748v.111l-.084-.021-7.138-1.78-1.831-.464c-.41-.105-.611-.164-.611-.164s.221.044.64.142l1.853.435,7.121,1.7-.083.09a7.982,7.982,0,0,1,.273-1.827c.15-.612.3-1.248.488-1.9.355-1.306.793-2.684,1.277-4.141.978-2.909,2.206-6.11,3.706-9.544a139.816,139.816,0,0,1,12.632-22.784A128.34,128.34,0,0,1,212.216,45.21a115.453,115.453,0,0,1,31.2-19.264l-.107.214-1.61-6.172c-.411-1.574-.819-3.141-1.2-4.6l.243.124a108.51,108.51,0,0,0-11.475,5.7c-3.682,2.054-7.185,4.287-10.561,6.57a152.256,152.256,0,0,0-18.288,14.683l-2.016,1.92-1,.951-.948.988-3.72,3.889c-2.319,2.669-4.621,5.216-6.624,7.861-1.032,1.3-2.053,2.568-2.962,3.885-.927,1.3-1.862,2.563-2.731,3.831l-2.467,3.785c-.413.61-.786,1.236-1.147,1.859l-1.086,1.84A108.42,108.42,0,0,0,165.064,97.6c-.864,3.017-1.393,5.4-1.7,7.019-.141.813-.252,1.433-.307,1.852-.03.2-.053.357-.069.47s-.026.162-.026.162" transform="translate(-48.742 -4.516)" fill="#e0e0e0"/>
        <path id="Trazado_623861" data-name="Trazado 623861" d="M415.417,145.959s-.029-.641-.067-1.893c-.018-.627-.041-1.405-.068-2.332s-.046-2-.163-3.22q-.143-1.826-.32-4.082c-.152-1.5-.392-3.132-.611-4.9a122.957,122.957,0,0,0-2.368-12.093c-.255-1.131-.627-2.266-.949-3.446l-.51-1.788-.26-.911-.307-.909-1.271-3.745c-.418-1.284-.982-2.547-1.484-3.865a112.583,112.583,0,0,0-8.119-16.444,118.04,118.04,0,0,0-29.634-33.165,116.352,116.352,0,0,0-49.1-21.8,118.538,118.538,0,0,0-45.7.52c-2.6.6-5.229,1.163-7.816,1.957-2.619.683-5.177,1.619-7.774,2.487a116.8,116.8,0,0,0-29.537,15.878A127.776,127.776,0,0,0,216.2,63.538,125.735,125.735,0,0,0,204.68,76.98l-2.6,3.652-2.435,3.783c-.841,1.248-1.539,2.586-2.305,3.885l-1.13,1.965-1.041,2.018-1.037,2.026c-.353.672-.692,1.352-.994,2.051l-1.883,4.168q-.842,2.131-1.686,4.27l-.422,1.07-.369,1.091-.739,2.185-.738,2.189-.632,2.227-.634,2.23-.313,1.118-.261,1.132q-.52,2.266-1.042,4.54-.41,2.3-.821,4.6a125.879,125.879,0,0,0-1.526,18.763,126.071,126.071,0,0,0,1.52,18.77q.412,2.3.822,4.6l1.041,4.541c.312,1.52.8,2.991,1.206,4.482l.632,2.227.738,2.19.739,2.185.369,1.091.421,1.071q.845,2.139,1.686,4.272.943,2.088,1.884,4.168l.474,1.037.519,1.015,1.037,2.026,1.041,2.019,1.13,1.965c.767,1.3,1.464,2.639,2.305,3.887l2.435,3.784,2.6,3.652a125.649,125.649,0,0,0,11.52,13.446,127.828,127.828,0,0,0,13.159,11.336,116.851,116.851,0,0,0,29.542,15.881c2.6.868,5.157,1.8,7.776,2.487,2.588.795,5.218,1.353,7.817,1.958a118.536,118.536,0,0,0,45.7.519,116.356,116.356,0,0,0,49.1-21.8,118.033,118.033,0,0,0,29.631-33.165,112.564,112.564,0,0,0,8.117-16.443c.5-1.318,1.065-2.581,1.484-3.864s.857-2.526,1.271-3.745c.217-.606.4-1.214.567-1.82l.51-1.788c.321-1.18.694-2.314.948-3.446a122.965,122.965,0,0,0,2.368-12.091c.219-1.772.459-3.4.611-4.9q.176-2.254.319-4.082c.118-1.216.142-2.293.163-3.22s.05-1.7.068-2.331c.038-1.252.067-1.893.067-1.893s0,.641-.029,1.893q-.02.941-.05,2.333c-.015.928-.034,2.005-.145,3.222q-.136,1.829-.3,4.086c-.146,1.5-.381,3.134-.594,4.909a121.876,121.876,0,0,1-2.338,12.11c-.252,1.133-.623,2.27-.942,3.453l-.507,1.791c-.163.608-.347,1.217-.564,1.824l-1.265,3.753c-.416,1.286-.978,2.551-1.478,3.872a112.6,112.6,0,0,1-8.1,16.483,118.134,118.134,0,0,1-29.65,33.266,116.562,116.562,0,0,1-49.2,21.895,118.761,118.761,0,0,1-45.826-.494c-2.608-.6-5.246-1.164-7.841-1.959-2.627-.684-5.194-1.622-7.8-2.491a117.086,117.086,0,0,1-29.634-15.918,128.166,128.166,0,0,1-13.2-11.365,126.042,126.042,0,0,1-11.558-13.485l-2.605-3.663-2.443-3.8c-.844-1.252-1.543-2.595-2.314-3.9l-1.133-1.972-1.044-2.025-1.041-2.032-.521-1.018-.475-1.041-1.89-4.181-1.692-4.285-.423-1.074-.37-1.094-.742-2.192-.74-2.2-.634-2.234c-.4-1.5-.9-2.971-1.211-4.5q-.52-2.274-1.044-4.556-.412-2.3-.825-4.617a126.365,126.365,0,0,1-1.526-18.828,126.194,126.194,0,0,1,1.531-18.821q.413-2.312.824-4.615.524-2.28,1.046-4.554l.262-1.135.314-1.121.635-2.237.635-2.234.741-2.2.742-2.191.371-1.094.423-1.074,1.692-4.283,1.89-4.18c.3-.7.643-1.383,1-2.057l1.041-2.031,1.044-2.024,1.133-1.971c.77-1.3,1.47-2.645,2.314-3.9l2.443-3.794,2.605-3.662a126.051,126.051,0,0,1,11.557-13.481,128.042,128.042,0,0,1,13.2-11.362,117.116,117.116,0,0,1,29.629-15.914c2.605-.869,5.172-1.806,7.8-2.49,2.6-.8,5.233-1.355,7.84-1.959a118.785,118.785,0,0,1,45.822-.5,116.569,116.569,0,0,1,49.2,21.891A118.123,118.123,0,0,1,399.1,86.223a112.535,112.535,0,0,1,8.105,16.484c.5,1.321,1.062,2.587,1.478,3.873l1.266,3.753q.153.458.306.91.129.459.258.913l.507,1.792c.32,1.183.69,2.319.942,3.453a121.962,121.962,0,0,1,2.339,12.112c.213,1.774.448,3.409.594,4.909q.166,2.256.3,4.087c.111,1.217.13,2.294.145,3.223s.036,1.705.05,2.333c.026,1.252.029,1.894.029,1.894" transform="translate(-54.348 -8.69)" fill="#e0e0e0"/>
        <path id="Trazado_623862" data-name="Trazado 623862" d="M360.984,4.817c-.04,0-.024-.416-.214-1.121a4.649,4.649,0,0,0-1.705-2.482A4.541,4.541,0,0,0,354.791.6a4.45,4.45,0,0,0-2.08,1.571,4.472,4.472,0,0,0,0,5.3,4.453,4.453,0,0,0,2.08,1.571,4.54,4.54,0,0,0,4.273-.617,4.65,4.65,0,0,0,1.705-2.483c.191-.705.175-1.123.214-1.121a.929.929,0,0,1,.022.3,3.633,3.633,0,0,1-.1.857,4.641,4.641,0,0,1-1.686,2.653,4.792,4.792,0,0,1-6.8-.948,4.8,4.8,0,0,1,0-5.723,4.793,4.793,0,0,1,6.8-.947,4.64,4.64,0,0,1,1.686,2.653,3.626,3.626,0,0,1,.1.857.929.929,0,0,1-.022.3" transform="translate(-105.125 0)" fill="#e0e0e0"/>
        <path id="Trazado_623863" data-name="Trazado 623863" d="M159.612,171.855a1.959,1.959,0,0,1-.371.027l-1.078.026-4.062.048-14.248.066h-.086l-.05-.07L131.859,161.1l-9.831-13.656.127.065-11.847-.065-3.317-.043-.873-.024a1.369,1.369,0,0,1-.3-.025,1.371,1.371,0,0,1,.3-.025l.873-.024,3.317-.043,11.847-.065h.08l.048.066,9.872,13.626,7.834,10.872-.135-.069,14.248.066,4.062.048,1.078.026a1.963,1.963,0,0,1,.371.027" transform="translate(-31.65 -44.024)" fill="#e0e0e0"/>
        <path id="Trazado_623864" data-name="Trazado 623864" d="M103.024,145.79c.013,0,.021.081.025.236a2.771,2.771,0,0,1-.071.675,3.643,3.643,0,0,1-1.321,2.1,3.79,3.79,0,0,1-5.382-.742,3.8,3.8,0,0,1,0-4.537,3.79,3.79,0,0,1,5.383-.742,3.64,3.64,0,0,1,1.321,2.1,2.771,2.771,0,0,1,.071.675c0,.155-.013.236-.025.236-.036,0-.029-.326-.184-.876a3.65,3.65,0,0,0-1.339-1.93,3.5,3.5,0,1,0,0,5.611,3.65,3.65,0,0,0,1.339-1.93c.154-.55.147-.878.184-.876" transform="translate(-28.571 -42.464)" fill="#e0e0e0"/>
        <path id="Trazado_623865" data-name="Trazado 623865" d="M602.582,274.6c-.013,0-.021-.081-.025-.236a2.8,2.8,0,0,1,.07-.675,3.651,3.651,0,0,1,1.321-2.1,3.79,3.79,0,0,1,5.382.742,3.8,3.8,0,0,1,0,4.537,3.791,3.791,0,0,1-5.383.743,3.652,3.652,0,0,1-1.321-2.1,2.8,2.8,0,0,1-.07-.675c0-.155.013-.236.025-.236.036,0,.029.326.183.876a3.652,3.652,0,0,0,1.34,1.93,3.5,3.5,0,1,0,0-5.611,3.652,3.652,0,0,0-1.34,1.93c-.154.55-.147.878-.183.876" transform="translate(-180.221 -80.989)" fill="#e0e0e0"/>
        <path id="Trazado_623866" data-name="Trazado 623866" d="M502.033,264.862a1.173,1.173,0,0,1,.222.126l.629.4,2.383,1.581,8.621,5.811-.081-.025,22.29-.039,25.846.054,7.833.057,2.129.034.554.018a.743.743,0,0,1,.189.019.73.73,0,0,1-.189.018l-.554.018-2.129.034-7.833.058-25.846.053-22.29-.038h-.046l-.036-.025-8.55-5.915-2.339-1.644-.606-.439a1.057,1.057,0,0,1-.2-.162" transform="translate(-150.155 -79.219)" fill="#e0e0e0"/>
        <path id="Trazado_623867" data-name="Trazado 623867" d="M404.144,366.473a.635.635,0,0,1-.157.084l-.475.212-1.84.784c-.8.331-1.776.76-2.926,1.206l-3.94,1.433c-1.46.533-3.1,1-4.835,1.563-1.744.546-3.64,1.016-5.618,1.568-3.992.971-8.412,1.916-13.1,2.619a114.15,114.15,0,0,1-19.584,1.325l-.144,0v-.144c.026-4.423.048-8.085.064-10.675.017-1.256.031-2.251.041-2.963.009-.321.016-.578.022-.777a.134.134,0,1,1,.046,0c.006.2.013.456.022.777.01.712.024,1.707.041,2.963.015,2.59.038,6.251.064,10.675l-.142-.149A118.955,118.955,0,0,0,371.2,375.58c4.678-.7,9.089-1.635,13.075-2.585,1.976-.542,3.87-1,5.614-1.532,1.737-.549,3.376-1,4.838-1.517l3.952-1.379c1.155-.428,2.134-.836,2.944-1.146l1.864-.72.488-.179a.668.668,0,0,1,.172-.05" transform="translate(-105.138 -108.402)" fill="#e0e0e0"/>
        <path id="Trazado_623868" data-name="Trazado 623868" d="M494.363,355.079a.768.768,0,0,1-.178.069l-.532.165-2.055.6-7.577,2.148-25.036,6.952-1.843.508-.118.032-.074-.1-15.119-19.541-4.51-5.894-1.208-1.609-.306-.423a.676.676,0,0,1-.1-.151s.047.04.123.129l.334.4,1.261,1.567,4.6,5.825,15.208,19.472-.192-.064,1.843-.508,25.064-6.849,7.608-2.035,2.073-.536.542-.13a.73.73,0,0,1,.188-.032" transform="translate(-130.319 -101.046)" fill="#e0e0e0"/>
        <path id="Trazado_623869" data-name="Trazado 623869" d="M328.984,6.86a3.2,3.2,0,0,1-.557.048l-1.6.066-2.527.081-1.578.047-1.766.117-4.049.262-4.633.47c-1.632.161-3.331.442-5.1.671s-3.58.606-5.446.915a120.445,120.445,0,0,0-18.672,5.1c-2.329.852-4.169,1.656-5.438,2.216l-1.446.677a4,4,0,0,1-.51.228,2.659,2.659,0,0,1,.475-.294c.317-.184.8-.427,1.419-.74,1.253-.6,3.083-1.445,5.407-2.329a112.025,112.025,0,0,1,18.695-5.22c1.871-.31,3.69-.671,5.462-.91,1.774-.224,3.479-.5,5.115-.651l4.646-.437,4.06-.217,1.77-.092,1.581-.019,2.532-.019,1.6,0a3.207,3.207,0,0,1,.558.026" transform="translate(-82.45 -2.043)" fill="#e0e0e0"/>
        <path id="Trazado_623870" data-name="Trazado 623870" d="M310.453,250.048c-49.691,0-90.116-41.353-90.116-92.182s40.425-92.182,90.116-92.182,90.116,41.353,90.116,92.182-40.425,92.182-90.116,92.182m0-183.664c-49.3,0-89.415,41.039-89.415,91.481s40.111,91.481,89.415,91.481,89.415-41.039,89.415-91.481-40.111-91.481-89.415-91.481" transform="translate(-65.902 -19.645)" fill="#e0e0e0"/>
        <path id="Trazado_623871" data-name="Trazado 623871" d="M324.217,249.855c-.412-.407-41.26-41.361-41.26-94.05,0-27.55,12.51-50.557,23-65.007a141.174,141.174,0,0,1,23-25.006l.437.548a140.5,140.5,0,0,0-22.885,24.887c-10.428,14.362-22.859,37.224-22.859,64.578,0,52.39,40.641,93.145,41.052,93.551Z" transform="translate(-84.631 -19.678)" fill="#e0e0e0"/>
        <path id="Trazado_623872" data-name="Trazado 623872" d="M317.7,137.956c-24.413,0-46.946-7.423-68.889-22.695l.4-.575c21.822,15.186,44.224,22.568,68.489,22.568,29.614,0,55.5-11.429,72-21.017l.352.606c-16.573,9.632-42.578,21.112-72.348,21.112" transform="translate(-74.419 -34.302)" fill="#e0e0e0"/>
        <path id="Trazado_623873" data-name="Trazado 623873" d="M387.863,267.779c-15.847-10.833-41.111-23.747-71.474-23.747-30.151,0-56.5,11.43-73.3,21.018l-.348-.609c16.869-9.63,43.34-21.11,73.644-21.11,30.543,0,55.941,12.981,71.869,23.869Z" transform="translate(-72.604 -72.779)" fill="#e0e0e0"/>
        <path id="Trazado_623874" data-name="Trazado 623874" d="M353.495,249.855l-.493-.5c.411-.406,41.051-41.161,41.051-93.551,0-27.362-12.437-50.23-22.871-64.595A140.33,140.33,0,0,0,348.31,66.34l.437-.548a141.2,141.2,0,0,1,23,25.006c10.495,14.45,23,37.457,23,65.007,0,52.688-40.847,93.642-41.259,94.05" transform="translate(-104.178 -19.678)" fill="#e0e0e0"/>
        <rect id="Rectángulo_327532" data-name="Rectángulo 327532" width="181.347" height="0.701" transform="translate(153.678 133.528)" fill="#e0e0e0"/>
        <path id="Trazado_623875" data-name="Trazado 623875" d="M510.976,299.5l-12.239-9.413-3.6,4.885,11.771,9.6Z" transform="translate(-148.094 -86.764)" fill="#e0e0e0"/>
        <path id="Trazado_623876" data-name="Trazado 623876" d="M502.042,310.765l-11.749-10.018-3.838,4.7,11.272,10.179Z" transform="translate(-145.496 -89.952)" fill="#e0e0e0"/>
        <path id="Trazado_623877" data-name="Trazado 623877" d="M492.584,321.482,481.4,310.838l-4.088,4.481,10.833,10.912Z" transform="translate(-142.761 -92.97)" fill="#e0e0e0"/>
        <path id="Trazado_623878" data-name="Trazado 623878" d="M482.934,331.539l-10.523-11-4.3,4.283,10.181,11.27Z" transform="translate(-140.011 -95.871)" fill="#e0e0e0"/>
        <path id="Trazado_623879" data-name="Trazado 623879" d="M441.6,34.946s-.049-.033-.13-.109l-.355-.345-1.336-1.35c-.582-.585-1.26-1.332-2.15-2.1l-1.389-1.258c-.491-.446-1-.925-1.588-1.374-1.16-.907-2.366-1.984-3.795-2.966l-2.173-1.573L426.3,22.317a96.429,96.429,0,0,0-11.1-6.085A90.078,90.078,0,0,0,402.246,11.3l.193-.1c-2.163,5.078-3.992,9.372-5.293,12.429-.646,1.487-1.161,2.672-1.527,3.516l-.417.926a1.708,1.708,0,0,1-.16.312,1.724,1.724,0,0,1,.111-.333l.369-.946,1.442-3.551,5.171-12.48.055-.135.138.039A87.427,87.427,0,0,1,415.355,15.9a93.434,93.434,0,0,1,11.128,6.133l2.382,1.576,2.172,1.594c1.426,1,2.627,2.089,3.781,3.012.581.457,1.09.944,1.576,1.4l1.375,1.283c.877.78,1.544,1.544,2.11,2.145l1.289,1.4.328.37c.072.084.107.13.1.134" transform="translate(-118.155 -3.274)" fill="#e0e0e0"/>
        <path id="Trazado_623880" data-name="Trazado 623880" d="M424.216,7.969,416.778,21.5l8.273,4.639L433.162,13Z" transform="translate(-124.656 -2.384)" fill="#e0e0e0"/>
        <path id="Trazado_623881" data-name="Trazado 623881" d="M436.692,15.149l-8.111,13.138,5.227,3.078,8.343-12.691Z" transform="translate(-128.187 -4.531)" fill="#e0e0e0"/>
        <path id="Trazado_623882" data-name="Trazado 623882" d="M448.709,22.955l-8.815,12.677,5.051,3.357,9.134-12.37Z" transform="translate(-131.57 -6.866)" fill="#e0e0e0"/>
        <path id="Trazado_623883" data-name="Trazado 623883" d="M460.106,31.129l-9.271,12.077,4.887,3.592,9.587-11.779Z" transform="translate(-134.842 -9.311)" fill="#e0e0e0"/>
        <path id="Trazado_623884" data-name="Trazado 623884" d="M154.036,210.594l15.433-.444-.3-6.058-15.376,0Z" transform="translate(-45.998 -61.043)" fill="#e0e0e0"/>
        <path id="Trazado_623885" data-name="Trazado 623885" d="M153.826,196.416l15.222.279-.015-6.066-15.17-.71Z" transform="translate(-46.009 -56.804)" fill="#e0e0e0"/>
        <path id="Trazado_623886" data-name="Trazado 623886" d="M514.171,360.874a3.659,3.659,0,1,0,3.659-3.659,3.659,3.659,0,0,0-3.659,3.659" transform="translate(-153.786 -106.841)" fill="#fff"/>
        <path id="Trazado_623887" data-name="Trazado 623887" d="M514.16,360.807c-.013,0-.021-.081-.025-.235a2.773,2.773,0,0,1,.071-.675,3.643,3.643,0,0,1,1.321-2.1,3.79,3.79,0,0,1,5.382.742,3.8,3.8,0,0,1,0,4.537,3.79,3.79,0,0,1-5.383.742,3.64,3.64,0,0,1-1.321-2.1,2.773,2.773,0,0,1-.071-.675c0-.155.013-.236.025-.236.036,0,.029.326.183.876a3.656,3.656,0,0,0,1.34,1.93,3.5,3.5,0,1,0,0-5.611,3.657,3.657,0,0,0-1.34,1.93c-.154.55-.146.878-.183.876" transform="translate(-153.774 -106.775)" fill="#e0e0e0"/>
        <path id="Trazado_623888" data-name="Trazado 623888" d="M253.037,95.491a5.325,5.325,0,1,1-5.325-5.325,5.325,5.325,0,0,1,5.325,5.325" transform="translate(-72.497 -26.968)" fill="#e0e0e0"/>
      </g>
    </g>
    <g id="Grupo_877511" data-name="Grupo 877511">
      <g id="Grupo_877510" data-name="Grupo 877510" clip-path="url(#clip-path)">
        <path id="Trazado_623889" data-name="Trazado 623889" d="M212.363,367.489H46.114a10.429,10.429,0,0,1-10.429-10.429v-118.1a10.429,10.429,0,0,1,10.429-10.429H212.363a10.429,10.429,0,0,1,10.429,10.429v118.1a10.429,10.429,0,0,1-10.429,10.429" transform="translate(-10.673 -68.351)" fill="#fff"/>
        <path id="Trazado_623890" data-name="Trazado 623890" d="M223.372,252.859H36.265v-15.9a8.436,8.436,0,0,1,8.435-8.436H213.037a10.336,10.336,0,0,1,10.336,10.336Z" transform="translate(-10.847 -68.351)" fill="#e0e0e0"/>
        <path id="Trazado_623891" data-name="Trazado 623891" d="M53.831,243.636a2.753,2.753,0,1,1-2.753-2.753,2.754,2.754,0,0,1,2.753,2.753" transform="translate(-14.454 -72.047)" fill="#fff"/>
        <path id="Trazado_623892" data-name="Trazado 623892" d="M65.667,243.636a2.753,2.753,0,1,1-2.753-2.753,2.753,2.753,0,0,1,2.753,2.753" transform="translate(-17.994 -72.047)" fill="#fff"/>
        <path id="Trazado_623893" data-name="Trazado 623893" d="M77.5,243.636a2.753,2.753,0,1,1-2.753-2.753,2.753,2.753,0,0,1,2.753,2.753" transform="translate(-21.534 -72.047)" fill="#fff"/>
        <path id="Trazado_623894" data-name="Trazado 623894" d="M212.867,367.414s.139-.013.412-.029a8.488,8.488,0,0,0,1.216-.128,10.422,10.422,0,0,0,8.539-8.187,27.855,27.855,0,0,0,.2-4.966q0-2.67-.008-5.684c-.013-16.064-.032-39.3-.055-68.019q-.006-10.769-.012-22.538,0-5.878,0-11.989,0-3.055,0-6.167a13.149,13.149,0,0,0-.255-3.074,10.225,10.225,0,0,0-1.127-2.882,9.914,9.914,0,0,0-1.954-2.433,9.672,9.672,0,0,0-2.615-1.75,9.915,9.915,0,0,0-3.048-.878,29.793,29.793,0,0,0-3.236-.088l-13.291,0-27.742.008-123.526.013H45.333c-.334.022-.671.025-1,.061a8.939,8.939,0,0,0-7.439,5.917,8.887,8.887,0,0,0-.456,1.937,17.446,17.446,0,0,0-.069,2.007V254.67q0,16.007,0,31.518c0,20.664-.007,40.6-.011,59.583q0,3.56,0,7.076,0,1.758,0,3.5c-.011.586.024,1.154.059,1.725l.129.846c.044.282.135.554.2.831a10.331,10.331,0,0,0,6.749,7.017,11.276,11.276,0,0,0,3.287.492l26.169.008,46.973.022,68.015.056,18.491.033,4.809.018c1.084.006,1.639.018,1.639.018s-.555.012-1.639.018l-4.809.017-18.491.034-68.015.055-46.973.022-26.169.008a11.6,11.6,0,0,1-3.382-.5,10.647,10.647,0,0,1-6.959-7.227c-.067-.286-.16-.566-.206-.857l-.133-.873c-.038-.587-.071-1.18-.061-1.758q0-1.746,0-3.5,0-3.516,0-7.076c0-18.987-.007-38.918-.011-59.583q0-15.5,0-31.518,0-8,0-16.121a17.677,17.677,0,0,1,.071-2.048,9.233,9.233,0,0,1,.474-2.013,9.352,9.352,0,0,1,7.73-6.149c.346-.038.7-.041,1.044-.062H46.36l123.526.014,27.742.007,13.291,0a30.089,30.089,0,0,1,3.273.093,10.2,10.2,0,0,1,3.135.906,9.981,9.981,0,0,1,2.689,1.8,10.217,10.217,0,0,1,2.008,2.5,10.533,10.533,0,0,1,1.157,2.966,13.457,13.457,0,0,1,.26,3.137q0,3.111,0,6.167,0,6.109,0,11.989-.006,11.756-.012,22.538c-.023,28.715-.042,51.955-.055,68.019q0,3.012-.008,5.684a27.923,27.923,0,0,1-.22,4.987,10.481,10.481,0,0,1-4.208,6.414,10.318,10.318,0,0,1-4.428,1.788,7.816,7.816,0,0,1-1.221.11c-.274.011-.413.012-.413.012" transform="translate(-10.771 -68.276)" fill="#263238"/>
        <path id="Trazado_623895" data-name="Trazado 623895" d="M130.954,206.574c-2.319-1.472-2.879-4.886-1.622-7.327a8.954,8.954,0,0,1,6.633-4.362,12.64,12.64,0,0,1,10.889,3.608c1.5,1.541,2.708,3.551,4.737,4.257,1.783.62,3.755.06,5.628.3a8.494,8.494,0,0,1,5.949,4.289,18.329,18.329,0,0,1,2.115,7.235c.273,2.307.453,4.838,2.054,6.522,1.561,1.642,4.026,1.989,5.967,3.158a8.167,8.167,0,0,1,2.426,11.156c-.768,1.121-1.871,2.149-1.96,3.505-.081,1.238.719,2.34,1.094,3.523a5.514,5.514,0,0,1-4.717,6.846c-1.61.093-3.335-.535-4.778.184s-1.967,2.444-2.884,3.758a6.894,6.894,0,0,1-8.405,2.171c-1.185-.581-2.3-1.539-3.618-1.451s-2.347,1.21-3.639,1.46c-1.692.327-3.3-.919-4.3-2.318s-1.707-3.047-2.994-4.192c-1.685-1.5-4.053-1.87-6.187-2.6a17.453,17.453,0,0,1-9.855-24.448" transform="translate(-36.367 -58.244)" fill="#263238"/>
        <path id="Trazado_623896" data-name="Trazado 623896" d="M169.552,254.288a4.732,4.732,0,0,1,1.882-1.238l-.144-.009a2.749,2.749,0,0,1,.4-.068,1.87,1.87,0,0,1,1.47.182h-.014a3.482,3.482,0,0,1,1.9,1.657,4.119,4.119,0,0,1-.485,4.245,3.149,3.149,0,0,1-5.778-1.082,3.908,3.908,0,0,1,.762-3.686" transform="translate(-50.436 -75.642)" fill="#455a64"/>
        <path id="Trazado_623897" data-name="Trazado 623897" d="M125.1,263.907l-2.318-42.548a3.839,3.839,0,0,1,3.323-3.99l20.219-5.726c6.5-.875,11.067,7.033,11.666,13.567.665,7.259,1.19,16.147.483,21.6-1.423,10.96-10.4,12.619-10.4,12.619,0-.037-.066,2.757,0,6.723l-4.127,13.483Z" transform="translate(-36.722 -63.281)" fill="#ffc09d"/>
        <path id="Trazado_623898" data-name="Trazado 623898" d="M167.807,243.746a1.4,1.4,0,0,1-1.309,1.45,1.339,1.339,0,0,1-1.478-1.221,1.4,1.4,0,0,1,1.308-1.451,1.34,1.34,0,0,1,1.48,1.222" transform="translate(-49.356 -72.536)" fill="#263238"/>
        <path id="Trazado_623899" data-name="Trazado 623899" d="M168.09,237.113c-.168.188-1.25-.567-2.756-.52-1.5.025-2.588.831-2.757.651-.083-.079.085-.414.556-.777a3.845,3.845,0,0,1,2.2-.748,3.693,3.693,0,0,1,2.2.643c.473.342.639.667.556.751" transform="translate(-48.62 -70.502)" fill="#263238"/>
        <path id="Trazado_623900" data-name="Trazado 623900" d="M148.772,244.049a1.4,1.4,0,0,1-1.309,1.45,1.338,1.338,0,0,1-1.478-1.221,1.4,1.4,0,0,1,1.307-1.451,1.34,1.34,0,0,1,1.48,1.222" transform="translate(-43.663 -72.627)" fill="#263238"/>
        <path id="Trazado_623901" data-name="Trazado 623901" d="M146.985,238.114c-.169.187-1.252-.567-2.757-.52-1.5.025-2.587.831-2.756.651-.082-.079.083-.414.557-.777a3.841,3.841,0,0,1,2.2-.748,3.7,3.7,0,0,1,2.2.642c.472.343.639.668.557.752" transform="translate(-42.307 -70.801)" fill="#263238"/>
        <path id="Trazado_623902" data-name="Trazado 623902" d="M157.143,249.073a9.95,9.95,0,0,1,2.433-.511c.383-.05.745-.137.8-.4a1.956,1.956,0,0,0-.289-1.132q-.582-1.38-1.22-2.9c-1.7-4.124-2.938-7.519-2.771-7.586s1.678,3.221,3.376,7.345q.613,1.526,1.173,2.914a2.222,2.222,0,0,1,.243,1.5.966.966,0,0,1-.616.58,2.628,2.628,0,0,1-.651.109,9.789,9.789,0,0,1-2.478.074" transform="translate(-46.684 -70.75)" fill="#263238"/>
        <path id="Trazado_623903" data-name="Trazado 623903" d="M152.862,278.345a26.2,26.2,0,0,1-14.066-3.516s3.158,8.116,14.049,6.785Z" transform="translate(-41.513 -82.2)" fill="#ff9b6c"/>
        <path id="Trazado_623904" data-name="Trazado 623904" d="M155.143,258.88a3.707,3.707,0,0,0-3.1-1.532,2.416,2.416,0,0,0-1.951,1.135,2.212,2.212,0,0,0,2.574,3.242,5.5,5.5,0,0,0,2.178-1.434,1.716,1.716,0,0,0,.46-.578.767.767,0,0,0-.081-.762" transform="translate(-44.806 -76.97)" fill="#ff9b6c"/>
        <path id="Trazado_623905" data-name="Trazado 623905" d="M151.22,256.085c.245-.021.294,1.613,1.726,2.734s3.166.891,3.186,1.119c.025.1-.379.328-1.114.369a4.079,4.079,0,0,1-2.657-.842,3.549,3.549,0,0,1-1.342-2.3c-.081-.681.089-1.091.2-1.085" transform="translate(-45.163 -76.594)" fill="#263238"/>
        <path id="Trazado_623906" data-name="Trazado 623906" d="M147.12,229.39c-.137.414-1.646.262-3.406.526-1.766.227-3.176.785-3.421.424-.109-.172.128-.564.693-.977a5.991,5.991,0,0,1,5.2-.724c.656.243.991.555.933.751" transform="translate(-41.953 -68.296)" fill="#263238"/>
        <path id="Trazado_623907" data-name="Trazado 623907" d="M167.293,229.7c-.255.349-1.3.024-2.551.043-1.248-.025-2.3.3-2.55-.055-.111-.171.045-.518.5-.855a3.691,3.691,0,0,1,4.109.011c.451.339.606.687.493.857" transform="translate(-48.501 -68.258)" fill="#263238"/>
        <path id="Trazado_623908" data-name="Trazado 623908" d="M169.15,220.556a7.5,7.5,0,0,0-2.878-4.129,27.71,27.71,0,0,1-2.429-1.414c-1.576-1.272-1.941-3.488-2.915-5.265a8.241,8.241,0,0,0-6.278-4.164c-2.162-.221-4.39.428-6.5-.1-1.557-.393-2.919-1.4-4.5-1.7-3.073-.585-5.931,1.621-8.159,3.817-.008,2.2,1.745,3.671,3.432,5.084a7.63,7.63,0,0,0,6.178,1.63c1.679-.307,3.519-1.156,4.973-.261,1.529.941,1.592,3.244,2.948,4.422,1.937,1.681,5.018.1,7.477.833,1.9.564,3.086,2.379,4.348,3.906s3.152,2.98,5.051,2.416a22.274,22.274,0,0,0-.753-5.068" transform="translate(-40.526 -60.92)" fill="#263238"/>
        <path id="Trazado_623909" data-name="Trazado 623909" d="M134.872,211.629c-1.378-.394-4.2-1.286-4.936-2.481a8.422,8.422,0,0,0-7.326-4.21,6.953,6.953,0,0,0-6.258,5.494,9.993,9.993,0,0,0-8.59,5.53,10.443,10.443,0,0,0-.545,1.282,7.6,7.6,0,0,0-.509,6.384c.477,1.245,1.289,2.629.648,3.8-.651,1.189-2.3,1.227-3.58,1.67a5.049,5.049,0,0,0-3.181,5.639,6.157,6.157,0,0,1,.4,2.483,5.41,5.41,0,0,1-1.485,2.147,6.284,6.284,0,0,0,3.685,10.228,8.117,8.117,0,0,1,2.891.66c.973.6,1.4,1.769,2.085,2.682a5.421,5.421,0,0,0,5.874,1.839,4.959,4.959,0,0,0,1.18-.594,3.891,3.891,0,0,0,3.448,1.527l-.4-23.007a1.906,1.906,0,0,0,1.395,1.093c3.692.835,4.231-6.774,3.408-8.836a21.456,21.456,0,0,0,3.7-3.9,15.483,15.483,0,0,0,1.7-7.465c1.331.078,7-1.794,6.4-1.967" transform="translate(-29.326 -61.293)" fill="#263238"/>
        <path id="Trazado_623910" data-name="Trazado 623910" d="M125.415,246.252c-.117-2.338-2.978-2.839-5.005-1.667-1.112.643-1.964,1.937-1.862,4.419.273,6.62,6.863,4.981,6.867,4.791,0-.118.137-4.805,0-7.543" transform="translate(-35.455 -72.972)" fill="#ffc09d"/>
        <path id="Trazado_623911" data-name="Trazado 623911" d="M124.01,252.311c-.03-.02-.112.086-.3.183a1.155,1.155,0,0,1-.861.053,2.857,2.857,0,0,1-1.426-2.506,3.813,3.813,0,0,1,.255-1.665,1.333,1.333,0,0,1,.831-.921.588.588,0,0,1,.694.288c.1.182.06.315.1.325.019.016.137-.117.073-.388a.738.738,0,0,0-.278-.4.872.872,0,0,0-.645-.142,1.621,1.621,0,0,0-1.162,1.076,3.918,3.918,0,0,0-.324,1.862,2.994,2.994,0,0,0,1.8,2.79,1.237,1.237,0,0,0,1.047-.218c.2-.172.227-.322.2-.333" transform="translate(-36.175 -73.913)" fill="#ff9b6c"/>
        <path id="Trazado_623912" data-name="Trazado 623912" d="M130.851,211.938a3.942,3.942,0,0,0-1.32,1.106,6.1,6.1,0,0,0-.487,4.578l.036.167-.163.041a6.4,6.4,0,0,0-4.265,3.758,4.968,4.968,0,0,0-.343,1.615,9.783,9.783,0,0,0,.207,1.749,13.135,13.135,0,0,1,.252,1.884,3.114,3.114,0,0,1-.524,1.953,8.029,8.029,0,0,1-3.284,2.467,11.127,11.127,0,0,0-3.073,2.014,8.273,8.273,0,0,0-2.473,5.547,8.632,8.632,0,0,0,.873,4.091c.439.9.809,1.335.771,1.363-.013.01-.109-.093-.282-.3a7.052,7.052,0,0,1-.65-.981,8.409,8.409,0,0,1-1.041-4.184,8.513,8.513,0,0,1,2.5-5.844,11.407,11.407,0,0,1,3.168-2.115,7.7,7.7,0,0,0,3.1-2.314c.734-1.005.406-2.317.213-3.5a9.977,9.977,0,0,1-.2-1.837,5.367,5.367,0,0,1,.387-1.767,6.711,6.711,0,0,1,4.587-3.934l-.127.208a6.149,6.149,0,0,1,.667-4.77,2.791,2.791,0,0,1,1.036-.845,1.614,1.614,0,0,1,.441-.149" transform="translate(-34.42 -63.389)" fill="#455a64"/>
        <path id="Trazado_623913" data-name="Trazado 623913" d="M121.393,257.469a4.733,4.733,0,0,1,1.882-1.238l-.144-.009a2.746,2.746,0,0,1,.4-.068,1.869,1.869,0,0,1,1.47.182h-.014a3.479,3.479,0,0,1,1.9,1.657,4.12,4.12,0,0,1-.485,4.245,3.149,3.149,0,0,1-5.778-1.081,3.908,3.908,0,0,1,.762-3.686" transform="translate(-36.031 -76.593)" fill="#455a64"/>
        <path id="Trazado_623914" data-name="Trazado 623914" d="M266.209,291.344s5.192-7.129,7.024-7.341,13.3.212,14.917,0,10.683-4.244,10.683-4.244a2.077,2.077,0,0,1,1.411,2.089c-.2,1.517-10.28,7.247-11.489,7.459s-10.885.961-10.885.961l-5.863,9.214Z" transform="translate(-79.622 -83.675)" fill="#ffc09d"/>
        <path id="Trazado_623915" data-name="Trazado 623915" d="M217.488,289.805l-21.926,21.616L164.4,291.933a13.249,13.249,0,0,0-5.789-1.952l-12.224-1.256-4.911-4.574L137.491,297.3l-19.6-15.1-3.637,6.828L101.2,295.289l12.517,61.517s-.076.961-2.762,8.526c-.8,2.261-3.833,13.41-3.305,18l33.867.288,35.191-.172-6.345-21.258-3.738-16.43c.946-20.13,1.432-23.353.449-28.305l0,.008s20.45,12,30.555,13.152c1.572.179,5.957-1.921,8.025-4.355,8.286-9.752,22.5-27.244,22.5-27.244Z" transform="translate(-30.268 -84.405)" fill="#617a0b"/>
        <path id="Trazado_623916" data-name="Trazado 623916" d="M100.2,331.656l-5.305,19.577,35.722,19.011-6.833,14.084L81.49,367.514a12.781,12.781,0,0,1-5.875-4.545c-1.678-2.448-2.946-5.393-1.276-10.83l9.1-34.148c.578-2.17,1.57-5.6,2.575-8.417a16.782,16.782,0,0,1,4.554-6.951,16.049,16.049,0,0,1,2.361-1.748" transform="translate(-22 -89.99)" fill="#617a0b"/>
        <path id="Trazado_623917" data-name="Trazado 623917" d="M92.864,300.873s-.142.1-.422.286-.69.475-1.2.886a15.774,15.774,0,0,0-3.7,4.292c-1.3,2.108-2.129,5.027-3.14,8.363-.978,3.351-1.936,7.214-3.078,11.46L77.64,340.066l-2.056,7.746q-.53,2-1.075,4.051a18.627,18.627,0,0,0-.83,4.178,9.893,9.893,0,0,0,.609,4.265,11.518,11.518,0,0,0,1.009,1.977,11.907,11.907,0,0,0,1.352,1.8,12.7,12.7,0,0,0,3.677,2.751c.695.355,1.436.629,2.181.928l2.24.89,18.575,7.381,20.457,8.138-.219.083,6.842-14.08.069.206-35.7-19.058-.074-.039.022-.078,3.959-14.421c.463-1.663.82-2.943,1.064-3.82.122-.425.215-.751.28-.98s.105-.33.105-.33-.021.115-.076.337l-.252.988c-.232.88-.571,2.165-1.01,3.834-.9,3.359-2.207,8.254-3.863,14.445l-.052-.117L130.626,370.1l.134.071-.065.135L123.869,384.4l-.069.142-.15-.06-20.46-8.129-18.572-7.388-2.239-.891c-.739-.3-1.494-.577-2.209-.943A13.042,13.042,0,0,1,76.4,364.3a12.236,12.236,0,0,1-1.386-1.852,11.769,11.769,0,0,1-1.033-2.033,10.182,10.182,0,0,1-.623-4.4,18.865,18.865,0,0,1,.847-4.242l1.083-4.048,2.073-7.741L81.084,326.1c1.158-4.243,2.131-8.1,3.13-11.452,1.03-3.331,1.882-6.258,3.211-8.377a15.538,15.538,0,0,1,3.772-4.278,11.886,11.886,0,0,1,1.667-1.119" transform="translate(-21.933 -89.99)" fill="#263238"/>
        <path id="Trazado_623918" data-name="Trazado 623918" d="M189.281,410.717l-10.174-4.866-19.854-1.575-6.676-3.469L148,410.6s10.087,6.079,12.813,6.3L177.5,416.4l8.727.916Z" transform="translate(-44.265 -119.879)" fill="#ffc09d"/>
        <path id="Trazado_623919" data-name="Trazado 623919" d="M111.608,331.238c-.071-.013.23-1.316.355-3.453a26.387,26.387,0,0,0-.056-3.751,26.413,26.413,0,0,0-2.36-8.851,27.061,27.061,0,0,0-1.825-3.3c-1.178-1.807-2.091-2.8-2.035-2.846a4.95,4.95,0,0,1,.66.68,10.236,10.236,0,0,1,.711.852c.261.344.578.724.872,1.183a24.475,24.475,0,0,1,1.911,3.3,25.06,25.06,0,0,1,2.389,8.957,24.052,24.052,0,0,1-.018,3.792c-.027.54-.114,1.023-.17,1.447a9.981,9.981,0,0,1-.2,1.082,4.785,4.785,0,0,1-.237.908" transform="translate(-31.61 -92.43)" fill="#263238"/>
        <path id="Trazado_623920" data-name="Trazado 623920" d="M100.487,372.781c-.012.059-.579-.051-1.5-.065a10.322,10.322,0,0,0-6.626,2.274c-.715.576-1.1,1.011-1.141.971a4,4,0,0,1,.98-1.16,9.18,9.18,0,0,1,6.8-2.334,4.012,4.012,0,0,1,1.485.313" transform="translate(-27.284 -111.395)" fill="#263238"/>
        <path id="Trazado_623921" data-name="Trazado 623921" d="M188.127,312.427a6.492,6.492,0,0,1,.648.913l.33.5.345.625a16.9,16.9,0,0,1,.791,1.552l.422.922.4,1.025c.292.7.5,1.487.775,2.3A44.824,44.824,0,0,1,193,325.687a63.2,63.2,0,0,1,.592,10.043c-.02,1.287-.064,2.327-.114,3.045a6.551,6.551,0,0,1-.11,1.113,6.507,6.507,0,0,1-.032-1.118c.006-.718.011-1.758,0-3.042a74.294,74.294,0,0,0-.695-9.988,48.629,48.629,0,0,0-1.126-5.386c-.258-.8-.458-1.585-.735-2.286l-.371-1.023-.4-.922c-.238-.6-.507-1.107-.736-1.562l-.316-.635-.3-.514a6.585,6.585,0,0,1-.527-.986" transform="translate(-56.267 -93.445)" fill="#263238"/>
        <path id="Trazado_623922" data-name="Trazado 623922" d="M142.582,301.437a.947.947,0,0,1-.271-.111c-.172-.083-.423-.212-.744-.39a16.279,16.279,0,0,1-2.612-1.74l.179-.022a42.66,42.66,0,0,0-4.165,8.365l-.1.262-.2-.2-2.673-2.676c-3.4-3.41-6.46-6.511-8.663-8.769l-2.6-2.687-.693-.744a1.321,1.321,0,0,1-.224-.277,1.3,1.3,0,0,1,.276.225l.741.7,2.678,2.605c2.25,2.211,5.34,5.283,8.739,8.694l2.666,2.682-.294.064a39.639,39.639,0,0,1,4.3-8.372l.077-.113.1.09a18.946,18.946,0,0,0,2.517,1.8,9.627,9.627,0,0,1,.948.612" transform="translate(-35.84 -87.47)" fill="#263238"/>
        <path id="Trazado_623923" data-name="Trazado 623923" d="M161.878,291.8a3.752,3.752,0,0,1,.064.892,16.47,16.47,0,0,1-.168,2.434,18.78,18.78,0,0,1-2.8,7.512l-.214.331-.142.22-.156-.214a28.059,28.059,0,0,1-3.326-5.994h.259l-1.2,2.748a5.821,5.821,0,0,1-.5.992,5.739,5.739,0,0,1,.35-1.053l1.09-2.795.123-.315.136.315a30.931,30.931,0,0,0,3.363,5.887l-.3.006.21-.325a19.866,19.866,0,0,0,2.852-7.353c.343-2.01.288-3.287.358-3.286" transform="translate(-45.968 -87.276)" fill="#263238"/>
        <path id="Trazado_623924" data-name="Trazado 623924" d="M166.555,365.05a3.871,3.871,0,0,1-.1-.611q-.082-.652-.221-1.759l-.766-6.475c-.66-5.464-1.557-13.02-3.145-21.262-.808-4.118-1.742-8.007-2.718-11.509-.526-1.739-.991-3.4-1.531-4.927-.261-.765-.5-1.51-.753-2.215l-.76-2.019c-.463-1.3-.973-2.43-1.388-3.44l-.592-1.4-.539-1.161-.737-1.611a3.9,3.9,0,0,1-.234-.574,3.926,3.926,0,0,1,.3.541l.8,1.584.569,1.149c.2.424.4.894.62,1.393.435,1,.964,2.135,1.442,3.428q.375.964.784,2.016c.264.7.507,1.449.774,2.213.554,1.525,1.031,3.191,1.567,4.932,1,3.507,1.944,7.4,2.753,11.532,1.592,8.26,2.448,15.83,3.043,21.3.292,2.738.509,4.956.65,6.489q.1,1.113.154,1.766a3.945,3.945,0,0,1,.029.619" transform="translate(-45.782 -91.548)" fill="#263238"/>
        <path id="Trazado_623925" data-name="Trazado 623925" d="M174.594,376.795a6.34,6.34,0,0,1-1.1.022c-.708-.008-1.731-.042-2.994-.1-2.527-.119-6.015-.367-9.852-.792s-7.3-.95-9.788-1.389c-1.246-.219-2.251-.41-2.943-.557a6.319,6.319,0,0,1-1.068-.262,6.407,6.407,0,0,1,1.093.123l2.96.442c2.5.373,5.956.854,9.787,1.281s7.308.713,9.827.9l2.985.217a6.364,6.364,0,0,1,1.093.121" transform="translate(-43.922 -111.774)" fill="#263238"/>
        <path id="Trazado_623926" data-name="Trazado 623926" d="M172.116,389.013a4.574,4.574,0,0,1-.891-.283l-2.386-.876c-2.014-.741-4.8-1.739-7.913-2.756s-5.953-1.858-8.016-2.449l-2.443-.7a4.606,4.606,0,0,1-.886-.3,4.578,4.578,0,0,1,.921.16c.588.125,1.434.326,2.476.59,2.082.529,4.942,1.333,8.061,2.352s5.9,2.059,7.892,2.863c1,.4,1.8.739,2.346.985a4.623,4.623,0,0,1,.838.415" transform="translate(-44.739 -114.148)" fill="#263238"/>
        <path id="Trazado_623927" data-name="Trazado 623927" d="M237.334,332.838a4.081,4.081,0,0,1-.7-1.2,14.162,14.162,0,0,1-1.238-6.529,4.092,4.092,0,0,1,.209-1.37,22.094,22.094,0,0,0,1.725,9.1" transform="translate(-70.401 -96.829)" fill="#263238"/>
        <path id="Trazado_623928" data-name="Trazado 623928" d="M243.33,357.852l-57.234.465c-1.857,0-3.631.892-3.909,2.728l-6.255,41.714H146.453a1.719,1.719,0,0,0,0,3.437h94.155l6.435-44.026a3.755,3.755,0,0,0-3.713-4.318" transform="translate(-43.289 -107.032)" fill="#e0e0e0"/>
        <path id="Trazado_623929" data-name="Trazado 623929" d="M243.351,357.842a3.014,3.014,0,0,1,.9.085,3.783,3.783,0,0,1,2.893,3.277,10.562,10.562,0,0,1-.21,2.354c-.24,1.686-.515,3.628-.826,5.81L240.8,406.212l-.022.151h-.154l-91.345.055h-2.459a2.374,2.374,0,0,1-1.3-.247,1.951,1.951,0,0,1,.008-3.41,2.388,2.388,0,0,1,1.29-.242H157.6l18.352.006-.22.19c2.251-14.939,4.352-28.875,6.236-41.377a3.239,3.239,0,0,1,1.059-2.18,4.255,4.255,0,0,1,2.188-.966,18.974,18.974,0,0,1,2.308-.081l2.247-.015,8.616-.058,15.313-.1,21.8-.111,5.832-.01,1.506.007c.339,0,.511.015.511.015s-.172.015-.511.024l-1.506.032-5.832.084-21.8.243-15.313.152-8.616.082-2.247.021a18.8,18.8,0,0,0-2.251.082,3.885,3.885,0,0,0-2,.88,2.849,2.849,0,0,0-.931,1.954c-1.866,12.5-3.945,26.444-6.174,41.386l-.028.19h-.193l-18.352.006H146.824a1.925,1.925,0,0,0-1.067.185,1.489,1.489,0,0,0-.006,2.6,1.919,1.919,0,0,0,1.075.189h2.459l91.345.054-.175.151c2.3-15.487,4.165-28.082,5.461-36.824.327-2.179.618-4.118.871-5.8a10.6,10.6,0,0,0,.233-2.319,3.67,3.67,0,0,0-.664-1.78,3.744,3.744,0,0,0-2.115-1.459,7.541,7.541,0,0,0-.889-.135" transform="translate(-43.226 -107.022)" fill="#263238"/>
        <path id="Trazado_623930" data-name="Trazado 623930" d="M192.675,406.01c.081.013,1.9-10.609,4.069-23.721s3.856-23.759,3.776-23.773-1.9,10.606-4.069,23.724-3.856,23.756-3.776,23.77" transform="translate(-57.627 -107.23)" fill="#263238"/>
        <path id="Trazado_623931" data-name="Trazado 623931" d="M236.729,391.976a3.583,3.583,0,1,0,3.583-3.583,3.583,3.583,0,0,0-3.583,3.583" transform="translate(-70.804 -116.166)" fill="#fff"/>
      </g>
    </g>
    <g id="Grupo_877513" data-name="Grupo 877513">
      <g id="Grupo_877512" data-name="Grupo 877512" clip-path="url(#clip-path)">
        <path id="Trazado_623932" data-name="Trazado 623932" d="M368.569,126.3H278.094a7.4,7.4,0,0,0-7.4,7.4V207.39a7.4,7.4,0,0,0,7.4,7.4h11.657v15.2l15.231-15.2h63.587a7.4,7.4,0,0,0,7.4-7.4V133.7a7.4,7.4,0,0,0-7.4-7.4" transform="translate(-80.963 -37.776)" fill="#fff"/>
        <path id="Trazado_623933" data-name="Trazado 623933" d="M368.492,126.236s.269,0,.8.027a7.66,7.66,0,0,1,2.26.6,7.392,7.392,0,0,1,2.954,2.383,7.574,7.574,0,0,1,1.114,2.18,8.606,8.606,0,0,1,.341,2.771c.013,7.891.031,19.357.053,33.687.007,7.167.014,15.051.022,23.56q0,6.383.009,13.224,0,.855,0,1.716c0,.572,0,1.151-.043,1.744a7.562,7.562,0,0,1-3.813,5.781,7.562,7.562,0,0,1-3.511.962l-63.77.032.127-.053-15.229,15.2-.31.31v-.439c0-4.833,0-9.994,0-15.2l.182.182h-11.1a7.882,7.882,0,0,1-4.882-1.36,7.633,7.633,0,0,1-2.947-4.088,8.222,8.222,0,0,1-.31-2.516v-2.484q0-2.48,0-4.94,0-4.921,0-9.759c0-12.9.008-25.345.011-37.2q0-8.89.008-17.323c.011-.706-.025-1.391.026-2.108a7.106,7.106,0,0,1,.437-2.073,7.553,7.553,0,0,1,6.21-4.919,19.375,19.375,0,0,1,2.017-.055h1.985l29.327.022,42.464.058,11.545.034,3,.018c.677.006,1.023.019,1.023.019s-.346.013-1.023.019l-3,.018-11.545.034-42.464.058-29.327.022h-1.985a18.95,18.95,0,0,0-1.981.055,7.241,7.241,0,0,0-5.949,4.721,10.72,10.72,0,0,0-.44,4.073q0,8.425.008,17.323c0,11.854.007,24.3.011,37.2q0,4.837,0,9.759,0,2.46,0,4.94v2.484a7.838,7.838,0,0,0,.3,2.414,7.267,7.267,0,0,0,2.806,3.891,7.5,7.5,0,0,0,4.674,1.293h11.284v.183c0,5.208,0,10.369,0,15.2l-.311-.128,15.233-15.2.053-.053h.074l63.763.013a7.267,7.267,0,0,0,3.367-.917A7.259,7.259,0,0,0,375.7,208.1c.046-.561.048-1.135.043-1.712s0-1.146,0-1.716q.005-6.836.01-13.224c.008-8.509.015-16.393.022-23.56.023-14.33.041-25.8.054-33.687a8.513,8.513,0,0,0-.321-2.738,7.5,7.5,0,0,0-1.085-2.157,7.365,7.365,0,0,0-2.9-2.38,7.842,7.842,0,0,0-3.029-.689" transform="translate(-80.885 -37.71)" fill="#263238"/>
        <path id="Trazado_623934" data-name="Trazado 623934" d="M319.122,150.249a28.382,28.382,0,0,1,6.869-2.938l1.415-6.692,11.488-.2,1.653,6.638a28.41,28.41,0,0,1,6.97,2.7l5.806-3.746,8.266,7.855-3.6,5.841a27.459,27.459,0,0,1,2.984,6.762l6.8,1.392.2,11.306L361.23,180.8a27.427,27.427,0,0,1-2.742,6.86l3.805,5.715-7.98,8.135-5.935-3.542a28.391,28.391,0,0,1-6.87,2.937l-1.415,6.692-11.487.2-1.653-6.639a28.432,28.432,0,0,1-6.97-2.7l-5.806,3.746-8.265-7.855,3.6-5.841a27.5,27.5,0,0,1-2.986-6.762l-6.8-1.393-.2-11.306,6.745-1.628a27.514,27.514,0,0,1,2.742-6.859l-3.805-5.714,7.98-8.135Zm7.308,14a12.023,12.023,0,0,0,.348,19.243,12.473,12.473,0,0,0,15.015-.261,12.024,12.024,0,0,0-.348-19.248,12.473,12.473,0,0,0-15.015.266" transform="translate(-89.586 -41.999)" fill="#eb6f2d"/>
        <path id="Trazado_623935" data-name="Trazado 623935" d="M340.421,222.992H325.367a1.641,1.641,0,0,1-1.609-1.33l-.892-4.64a.944.944,0,0,0-.592-.7l-3.425-1.29a.942.942,0,0,0-.842.092l-3.9,2.541a1.642,1.642,0,0,1-1.988-.154L301,207.536a1.638,1.638,0,0,1-.353-1.988l2.536-4.779a.937.937,0,0,0,.055-.756l-1.1-3.068a.939.939,0,0,0-.628-.587L295.3,194.6a1.63,1.63,0,0,1-1.191-1.543l-.227-11.13.7-.015.227,11.13a.931.931,0,0,0,.683.884l6.209,1.756a1.639,1.639,0,0,1,1.1,1.025l1.1,3.069a1.647,1.647,0,0,1-.1,1.321l-2.535,4.779a.937.937,0,0,0,.2,1.138l11.116,9.974a.938.938,0,0,0,1.138.088l3.9-2.541a1.634,1.634,0,0,1,1.471-.161l3.426,1.291a1.65,1.65,0,0,1,1.032,1.224l.892,4.639a.939.939,0,0,0,.92.762h15.053Z" transform="translate(-87.899 -54.41)" fill="#455a64"/>
        <path id="Trazado_623936" data-name="Trazado 623936" d="M295.22,183.386a1.462,1.462,0,1,1-1.462-1.462,1.462,1.462,0,0,1,1.462,1.462" transform="translate(-87.424 -54.413)" fill="#fff"/>
        <path id="Trazado_623937" data-name="Trazado 623937" d="M293.608,185.05a1.813,1.813,0,1,1,1.813-1.813,1.815,1.815,0,0,1-1.813,1.813m0-2.925a1.112,1.112,0,1,0,1.112,1.112,1.113,1.113,0,0,0-1.112-1.112" transform="translate(-87.274 -54.263)" fill="#455a64"/>
        <path id="Trazado_623938" data-name="Trazado 623938" d="M360.259,240.175a1.463,1.463,0,1,1-1.463-1.462,1.463,1.463,0,0,1,1.463,1.462" transform="translate(-106.876 -71.398)" fill="#fff"/>
        <path id="Trazado_623939" data-name="Trazado 623939" d="M358.647,241.838a1.813,1.813,0,1,1,1.813-1.813,1.815,1.815,0,0,1-1.813,1.813m0-2.925a1.112,1.112,0,1,0,1.112,1.112,1.113,1.113,0,0,0-1.112-1.112" transform="translate(-106.727 -71.248)" fill="#455a64"/>
        <path id="Trazado_623940" data-name="Trazado 623940" d="M354.852,205.762l-.69-.126.442-2.417a2.139,2.139,0,0,1,1.3-1.6l3.514-1.435a2.156,2.156,0,0,1,1.911.144l4.564,2.73a1.438,1.438,0,0,0,1.781-.238l8.509-8.85a1.435,1.435,0,0,0,.163-1.8l-3.1-4.688a2.142,2.142,0,0,1-.2-1.981l1.059-2.64a2.14,2.14,0,0,1,1.532-1.3l5.131-1.119a1.452,1.452,0,0,0,1.135-1.41V166.607a1.443,1.443,0,0,0-1.089-1.4l-5.614-1.424a2.154,2.154,0,0,1-1.453-1.256l-1.12-2.7a2.15,2.15,0,0,1,.142-1.923l2.738-4.571a1.437,1.437,0,0,0-.242-1.785l-9.23-8.815a1.438,1.438,0,0,0-1.774-.172l-4.383,2.8a2.136,2.136,0,0,1-2.037.149l-2.892-1.3a2.16,2.16,0,0,1-1.2-1.45l-1.164-4.8a1.439,1.439,0,0,0-1.4-1.1H338.857v-.7h12.322a2.137,2.137,0,0,1,2.084,1.639l1.165,4.8a1.45,1.45,0,0,0,.809.976l2.893,1.3a1.438,1.438,0,0,0,1.371-.1l4.383-2.8a2.14,2.14,0,0,1,2.636.256l9.23,8.815a2.134,2.134,0,0,1,.358,2.652l-2.738,4.571a1.45,1.45,0,0,0-.1,1.295l1.12,2.7a1.452,1.452,0,0,0,.978.846l5.614,1.424a2.144,2.144,0,0,1,1.617,2.079v12.435a2.155,2.155,0,0,1-1.687,2.094l-5.131,1.119a1.44,1.44,0,0,0-1.031.873l-1.059,2.64a1.443,1.443,0,0,0,.135,1.334l3.1,4.687a2.133,2.133,0,0,1-.243,2.669l-8.508,8.85a2.14,2.14,0,0,1-2.647.355l-4.563-2.731a1.453,1.453,0,0,0-1.286-.1l-3.514,1.435a1.437,1.437,0,0,0-.874,1.077Z" transform="translate(-101.35 -40.722)" fill="#455a64"/>
        <path id="Trazado_623941" data-name="Trazado 623941" d="M340.463,136.541A1.462,1.462,0,1,1,339,135.079a1.462,1.462,0,0,1,1.462,1.462" transform="translate(-100.956 -40.401)" fill="#fff"/>
        <path id="Trazado_623942" data-name="Trazado 623942" d="M338.851,138.2a1.813,1.813,0,1,1,1.813-1.813,1.815,1.815,0,0,1-1.813,1.813m0-2.924a1.112,1.112,0,1,0,1.112,1.112,1.112,1.112,0,0,0-1.112-1.112" transform="translate(-100.806 -40.252)" fill="#455a64"/>
        <path id="Trazado_623943" data-name="Trazado 623943" d="M305.962,165.871a.365.365,0,0,1-.349-.369c0-.111,0-.3,1.523-4a1.429,1.429,0,0,0-.125-1.322l-3.092-4.757a2.128,2.128,0,0,1,.239-2.628l8.229-8.7a2.137,2.137,0,0,1,2.692-.336l4.594,2.914a1.444,1.444,0,0,0,1.255.137l3.682-1.332a1.435,1.435,0,0,0,.9-.973l.962-3.551a.35.35,0,1,1,.676.184l-.962,3.551a2.135,2.135,0,0,1-1.333,1.448l-3.682,1.332a2.142,2.142,0,0,1-1.868-.2l-4.594-2.913a1.433,1.433,0,0,0-1.808.226l-8.23,8.7a1.427,1.427,0,0,0-.16,1.764L307.6,159.8a2.131,2.131,0,0,1,.186,1.971c-1.039,2.525-1.442,3.6-1.473,3.767a.334.334,0,0,1-.349.332" transform="translate(-90.797 -42.082)" fill="#455a64"/>
        <path id="Trazado_623944" data-name="Trazado 623944" d="M344.819,193.8a9.5,9.5,0,1,1,3.713-18.243.35.35,0,0,1-.274.645,8.808,8.808,0,1,0,3.349,2.5.351.351,0,0,1,.541-.446,9.5,9.5,0,0,1-7.329,15.54" transform="translate(-100.293 -52.283)" fill="#455a64"/>
        <path id="Trazado_623945" data-name="Trazado 623945" d="M355.411,176.36a1.462,1.462,0,1,1-1.462-1.462,1.462,1.462,0,0,1,1.462,1.462" transform="translate(-105.427 -52.311)" fill="#fff"/>
        <path id="Trazado_623946" data-name="Trazado 623946" d="M353.8,178.024a1.813,1.813,0,1,1,1.813-1.813,1.815,1.815,0,0,1-1.813,1.813m0-2.925a1.112,1.112,0,1,0,1.112,1.112A1.113,1.113,0,0,0,353.8,175.1" transform="translate(-105.277 -52.162)" fill="#455a64"/>
      </g>
    </g>
    <g id="Grupo_877524" data-name="Grupo 877524">
      <g id="Grupo_877523" data-name="Grupo 877523" clip-path="url(#clip-path)">
        <path id="Trazado_623947" data-name="Trazado 623947" d="M611.307,192.941H470.142c-4.891,0-8.856-4.58-8.856-10.231V66.851c0-5.651,3.965-10.231,8.856-10.231H611.307c4.891,0,8.856,4.58,8.856,10.231V182.71c0,5.651-3.965,10.231-8.856,10.231" transform="translate(-137.968 -16.935)" fill="#fff"/>
        <path id="Trazado_623948" data-name="Trazado 623948" d="M620.652,80.44H462.22V65.007a8.437,8.437,0,0,1,8.436-8.437H611.35a9.3,9.3,0,0,1,9.3,9.3Z" transform="translate(-138.248 -16.92)" fill="#e0e0e0"/>
        <path id="Trazado_623949" data-name="Trazado 623949" d="M477.254,71.394a2.672,2.672,0,1,1-2.671-2.7,2.686,2.686,0,0,1,2.671,2.7" transform="translate(-141.146 -20.546)" fill="#fff"/>
        <path id="Trazado_623950" data-name="Trazado 623950" d="M488.738,71.394a2.672,2.672,0,1,1-2.671-2.7,2.686,2.686,0,0,1,2.671,2.7" transform="translate(-144.581 -20.546)" fill="#fff"/>
        <path id="Trazado_623951" data-name="Trazado 623951" d="M500.224,71.394a2.672,2.672,0,1,1-2.671-2.7,2.686,2.686,0,0,1,2.671,2.7" transform="translate(-148.016 -20.546)" fill="#fff"/>
        <path id="Trazado_623952" data-name="Trazado 623952" d="M611.53,192.816s.125-.013.371-.031a6.213,6.213,0,0,0,1.092-.139,8.11,8.11,0,0,0,3.822-1.913,10.394,10.394,0,0,0,3.336-6.082,26.943,26.943,0,0,0,.174-4.524q0-2.431-.008-5.174c-.013-14.627-.032-35.786-.055-61.931-.007-13.073-.014-27.393-.022-42.766q0-1.441,0-2.895a13.933,13.933,0,0,0-.224-2.875,10.506,10.506,0,0,0-2.561-5.133,8.232,8.232,0,0,0-5.07-2.657c-.967-.083-1.985-.036-2.986-.048h-3.026l-24.987.008-111.255.014a11.887,11.887,0,0,0-1.82.08,5.6,5.6,0,0,0-.878.193c-.143.044-.289.083-.43.131l-.415.176a7.423,7.423,0,0,0-2.83,2.192,9.233,9.233,0,0,0-1.665,3.2,11.482,11.482,0,0,0-.409,3.61q0,7.39,0,14.678,0,14.574,0,28.7c0,18.814-.007,36.961-.01,54.249q0,6.483,0,12.8c.006,2.1-.018,4.2.014,6.269a10.96,10.96,0,0,0,.493,3.01,9.976,9.976,0,0,0,1.281,2.734,9.543,9.543,0,0,0,2,2.211,8.423,8.423,0,0,0,2.591,1.387,8.779,8.779,0,0,0,1.428.321c.486.029.97.064,1.469.052H473.9l11.6,0,42.307.022,61.258.057,16.655.033,4.332.018c.976.006,1.475.018,1.475.018s-.5.012-1.475.018l-4.332.018-16.655.033-61.258.057-42.307.021-11.6,0h-2.959c-.491.012-1-.022-1.5-.053a9.059,9.059,0,0,1-1.484-.332,8.733,8.733,0,0,1-2.689-1.436,9.833,9.833,0,0,1-2.068-2.282,10.267,10.267,0,0,1-1.321-2.813,11.259,11.259,0,0,1-.51-3.093c-.033-2.086-.01-4.171-.018-6.279q0-6.317,0-12.8c0-17.288-.006-35.435-.01-54.249q0-14.11,0-28.7,0-7.287,0-14.678a11.848,11.848,0,0,1,.423-3.71,9.585,9.585,0,0,1,1.731-3.325,7.769,7.769,0,0,1,2.96-2.292l.436-.184c.149-.051.3-.092.453-.138a5.84,5.84,0,0,1,.924-.2,12.216,12.216,0,0,1,1.871-.083l111.255.013,24.987.008H609.4c1.009.014,2-.034,3.02.053a8.534,8.534,0,0,1,5.255,2.755A10.807,10.807,0,0,1,620.3,64.43a14.244,14.244,0,0,1,.227,2.933q0,1.453,0,2.895c-.008,15.372-.015,29.692-.022,42.766-.023,26.144-.043,47.3-.055,61.931q0,2.742-.008,5.174a26.879,26.879,0,0,1-.192,4.543,10.446,10.446,0,0,1-3.392,6.117A8.077,8.077,0,0,1,613,192.682a5.842,5.842,0,0,1-1.1.121c-.247.011-.371.013-.371.013" transform="translate(-137.982 -16.844)" fill="#263238"/>
        <path id="Trazado_623953" data-name="Trazado 623953" d="M428.6,187.776c-2.878-.315-6.107-.543-6.107-.543l-2.857-.355a3.247,3.247,0,0,0,.173.552,2.153,2.153,0,0,1,.227,1.056c-.094.685-.833,1.1-1.517,1.222a4.2,4.2,0,0,1-3.91-1.406,4.15,4.15,0,0,1-.713-3.921,3.037,3.037,0,0,1-.258-1.156c-.073-2.7,3.134-4.973,3.134-4.973l-.983-.264s-3.119.426-4.758,5.4a3.222,3.222,0,0,1-1.417,1.8,1.638,1.638,0,0,1-1.382.206c-1.2-.428-1.2-1.386-.222-4.506s2.963-5.809,5.039-6.535a21.879,21.879,0,0,1,2.935-.876s-8.722-2.9-9.267-3.1c-1.576-.594-2.626-1.794-2.325-2.88.193-.7.951-1.434,2.807-.8,1.606.55,18.788,4.1,18.788,4.1l7.507,2.013,5.921,2.667-4.151,10.375-.682.456a8.992,8.992,0,0,1-5.982,1.474" transform="translate(-120.937 -49.785)" fill="#ae7461"/>
        <path id="Trazado_623954" data-name="Trazado 623954" d="M438.247,176.213a2.408,2.408,0,0,1-2.04,1.91c-.978.215-2,.095-2.99.239-2.963.432-5.253,3.137-8.233,3.427-.416.041-.94-.039-1.065-.433-.117-.366.2-.717.488-.974l7.386-6.608" transform="translate(-126.785 -51.975)" fill="#ae7461"/>
        <path id="Trazado_623955" data-name="Trazado 623955" d="M431.675,173.773a4.01,4.01,0,0,0-.872.634c-.537.435-1.3,1.079-2.239,1.883l-3.27,2.845-.941.828c-.278.285-.767.535-.854,1.213a.826.826,0,0,0,.514.777,1.724,1.724,0,0,0,.8.121,6.58,6.58,0,0,0,1.431-.3,38.3,38.3,0,0,0,4.748-2.455,7.515,7.515,0,0,1,2.116-.724c.688-.112,1.365-.1,1.991-.15a3.52,3.52,0,0,0,2.706-1.2c.437-.6.34-1.053.321-1.038a2.906,2.906,0,0,1-.491.9,3.406,3.406,0,0,1-2.556.937c-.6.027-1.286-.013-2.038.085a7.784,7.784,0,0,0-2.274.719,44.381,44.381,0,0,1-4.695,2.386,6.088,6.088,0,0,1-1.292.275c-.411.034-.765-.111-.73-.328,0-.243.341-.547.66-.827l.927-.842,3.19-2.934c.9-.842,1.626-1.53,2.118-2.015a3.983,3.983,0,0,0,.725-.8" transform="translate(-126.666 -51.974)" fill="#6f4439"/>
        <path id="Trazado_623956" data-name="Trazado 623956" d="M418.3,183a4.111,4.111,0,0,0-1.873,0,3.178,3.178,0,0,0-1.623,1.131,8.058,8.058,0,0,0-1.157,2.223,12.846,12.846,0,0,1-1.07,2.371,4.178,4.178,0,0,1-1.548,1.507,1.632,1.632,0,0,1-1.456.05c-.311-.16-.43-.315-.42-.326.02-.029.171.086.474.2a1.543,1.543,0,0,0,1.283-.146,4.135,4.135,0,0,0,1.381-1.454,14.2,14.2,0,0,0,1.014-2.324,7.848,7.848,0,0,1,1.238-2.305,3.331,3.331,0,0,1,1.82-1.17,2.964,2.964,0,0,1,1.455.028c.331.1.489.2.481.223" transform="translate(-122.375 -54.638)" fill="#6f4439"/>
        <path id="Trazado_623957" data-name="Trazado 623957" d="M406.871,171.7a10.321,10.321,0,0,1,1.738.564l4.147,1.463,4.168,1.4a10.24,10.24,0,0,1,1.716.626,8.261,8.261,0,0,1-1.792-.381c-1.092-.29-2.586-.744-4.215-1.3s-3.083-1.124-4.121-1.567a8.186,8.186,0,0,1-1.643-.8" transform="translate(-121.693 -51.354)" fill="#6f4439"/>
        <path id="Trazado_623958" data-name="Trazado 623958" d="M422.334,186.883c.019.02-.128.167-.372.436a1.693,1.693,0,0,0-.529,1.309.9.9,0,0,0,.566.694,4.848,4.848,0,0,0,1.152.3,2.044,2.044,0,0,1,1.29.669,1.721,1.721,0,0,1,.226,1.553A1.989,1.989,0,0,1,423.6,193a2.5,2.5,0,0,1-1.433.228,8.065,8.065,0,0,1-2.213-.793,4.7,4.7,0,0,1-1.277-.928,1.048,1.048,0,0,1-.3-.5c.029-.016.134.158.4.4a5.548,5.548,0,0,0,1.294.8,8.6,8.6,0,0,0,2.147.692,1.977,1.977,0,0,0,2.1-1.16,1.382,1.382,0,0,0-.165-1.229,1.741,1.741,0,0,0-1.076-.557,4.835,4.835,0,0,1-1.219-.36,1.168,1.168,0,0,1-.683-.931,1.772,1.772,0,0,1,.686-1.438c.282-.247.457-.353.472-.337" transform="translate(-125.134 -55.895)" fill="#6f4439"/>
        <path id="Trazado_623959" data-name="Trazado 623959" d="M423.139,194.393c0-.018.2,0,.475.215a1.572,1.572,0,0,1,.541,1.309,2.127,2.127,0,0,1-1.252,1.694,3.494,3.494,0,0,1-2.584.066,4.168,4.168,0,0,1-2.063-1.531,3.962,3.962,0,0,1-.7-1.969,3.76,3.76,0,0,1,.145-1.4c.1-.317.2-.475.217-.467a6.514,6.514,0,0,0-.106,1.835,3.9,3.9,0,0,0,.721,1.8,3.98,3.98,0,0,0,1.909,1.384,3.249,3.249,0,0,0,2.324-.025,1.888,1.888,0,0,0,1.135-1.417,1.488,1.488,0,0,0-.382-1.182c-.213-.226-.389-.289-.376-.318" transform="translate(-124.884 -57.52)" fill="#6f4439"/>
        <path id="Trazado_623960" data-name="Trazado 623960" d="M435.9,187.238c-.032-.008.013-.341.3-.823a3.474,3.474,0,0,1,1.726-1.428l-.017.32a10.356,10.356,0,0,1-1.092-.586,7.771,7.771,0,0,1-3-3.022,19.655,19.655,0,0,0,3.2,2.713c.357.221.714.415,1.049.581l.371.183-.388.137a3.64,3.64,0,0,0-1.663,1.224c-.319.417-.437.718-.482.7" transform="translate(-129.751 -54.345)" fill="#6f4439"/>
        <path id="Trazado_623961" data-name="Trazado 623961" d="M415.592,182.636c.069-.067.575.479.636,1.351s-.351,1.491-.43,1.435c-.1-.045.13-.648.066-1.406-.048-.76-.361-1.321-.273-1.38" transform="translate(-124.297 -54.624)" fill="#6f4439"/>
        <path id="Trazado_623962" data-name="Trazado 623962" d="M516.376,146.07s-18.589,31.743-24.781,34.836-28.574-1.423-33.778-2.607c-5.906-1.344-13.445-3.7-13.445-3.7l2.205-17.629,4.869.106s27.6,2.793,29.2,1.534,12.227-21.591,12.227-21.591,6.672-13.477,9.063-16.56c3.514-4.529,6.438-4.529,6.438-4.529Z" transform="translate(-132.909 -34.673)" fill="#2b95f9"/>
        <path id="Trazado_623963" data-name="Trazado 623963" d="M515.238,206.567c.491-25.192,2.751-76.384,2.751-76.384l11.578-18.13a51.778,51.778,0,0,1,8-1.539c4.43-.488,5.184-.912,5.184-.912l3.225-5.079,26.565-1.55,4.06,7.53s16.635,8.666,18.85,9.886-12.224,60.944-12.224,60.944l2.785,25.234Z" transform="translate(-154.105 -30.799)" fill="#2b95f9"/>
        <path id="Trazado_623964" data-name="Trazado 623964" d="M548.058,215.594c.1-4.42.333-9.679.639-15.515.348-5.834.81-12.244,1.472-18.957.691-6.713,1.508-13.089,2.411-18.867.956-5.768,1.909-10.952,2.935-15.258q.37-1.616.7-3.077.383-1.444.723-2.723c.444-1.7.825-3.168,1.208-4.348.346-1.159.619-2.073.816-2.735.082-.291.148-.526.2-.716a.91.91,0,0,0,.051-.249.972.972,0,0,0-.1.233c-.066.185-.146.416-.249.7l-.908,2.711c-.413,1.173-.824,2.633-1.295,4.332q-.358,1.276-.761,2.719-.352,1.458-.742,3.075c-1.072,4.3-2.065,9.49-3.047,15.265-.931,5.783-1.763,12.168-2.455,18.889-.662,6.721-1.111,13.139-1.434,18.98-.28,5.843-.473,11.108-.53,15.531" transform="translate(-163.813 -39.824)" fill="#263238"/>
        <path id="Trazado_623965" data-name="Trazado 623965" d="M518.442,141.8a11.077,11.077,0,0,0-.162,1.72c-.072,1.109-.15,2.715-.229,4.7-.161,3.969-.3,9.454-.456,15.51s-.362,11.537-.557,15.5c-.1,1.919-.175,3.5-.235,4.7a11.1,11.1,0,0,0-.032,1.727,11.147,11.147,0,0,0,.231-1.712c.119-1.1.254-2.707.4-4.689.288-3.964.55-9.449.709-15.51s.237-11.544.3-15.514c.027-1.922.05-3.509.067-4.7a11.182,11.182,0,0,0-.038-1.727" transform="translate(-154.558 -42.41)" fill="#263238"/>
        <g id="Grupo_877516" data-name="Grupo 877516" transform="translate(364.783 138.087)" opacity="0.3">
          <g id="Grupo_877515" data-name="Grupo 877515">
            <g id="Grupo_877514" data-name="Grupo 877514" clip-path="url(#clip-path-7)">
              <path id="Trazado_623966" data-name="Trazado 623966" d="M520.472,201.5a4.774,4.774,0,0,1,2.915-3.526,12.815,12.815,0,0,1,4.695-.871,82.776,82.776,0,0,1,57.42,19.754l.814,5.631c-5.052,2.141-10.917.673-15.926-1.562s-9.772-5.239-15.165-6.277c-4.674-.9-9.711-.3-14.024-2.291-2.722-1.26-4.957-3.481-7.814-4.4-2.549-.821-5.333-.521-7.945-1.118s-5.3-2.7-4.969-5.34" transform="translate(-520.445 -197.013)"/>
            </g>
          </g>
        </g>
        <path id="Trazado_623967" data-name="Trazado 623967" d="M613.68,127.822a21.063,21.063,0,0,1,10.551,14.154c1.4,6.214,5.456,23.309,5.456,23.309s4.407,20.4,3.778,24.351-1.956,12.781-10.562,13.821-38.548-9.867-38.548-9.867l-8.185-3.33,3.148-14.985,14.061,3.538,13.767,1.092-1.861-12.457-3.053-8.005s.172-8.726,3.53-16.011,7.917-15.611,7.917-15.611" transform="translate(-172.33 -38.231)" fill="#2b95f9"/>
        <path id="Trazado_623968" data-name="Trazado 623968" d="M537.915,174.929l-10.866-21.957a4.4,4.4,0,0,0-3.943-2.436H495.8a1.33,1.33,0,0,0-1.182,1.958L513.1,186.707a2.979,2.979,0,0,0,2.623,1.557h28.317Z" transform="translate(-147.891 -45.024)" fill="#455a64"/>
        <path id="Trazado_623969" data-name="Trazado 623969" d="M494.949,153.3a2.206,2.206,0,0,0,.546.043l1.564.027h5.75l18.954-.161a5.443,5.443,0,0,1,2.521.6,4.7,4.7,0,0,1,1.675,1.839c.793,1.5,1.461,3.065,2.152,4.493l3.622,7.657,2.483,5.143.7,1.388a2.147,2.147,0,0,0,.276.469,2.185,2.185,0,0,0-.182-.512l-.611-1.427c-.58-1.3-1.371-3.06-2.334-5.211l-3.523-7.7c-.687-1.447-1.321-2.97-2.143-4.54a5.189,5.189,0,0,0-1.856-2.032,5.935,5.935,0,0,0-2.756-.676c-7.435.049-14.12.209-18.98.31l-5.748.16-1.562.069a2.239,2.239,0,0,0-.545.059" transform="translate(-148.037 -45.673)" fill="#263238"/>
        <path id="Trazado_623970" data-name="Trazado 623970" d="M518.705,160.377a.889.889,0,0,0-.409,1.358,1.307,1.307,0,0,0,1.445.543,1.011,1.011,0,0,0,.753-.72,1.247,1.247,0,0,0-.834-1.249,1.973,1.973,0,0,0-.955.067" transform="translate(-154.97 -47.939)" fill="#fff"/>
        <path id="Trazado_623971" data-name="Trazado 623971" d="M565.536,190.093l-1.883-1.92s-2.764-3.988-3.9-5.234-7.916-5.608-7.916-5.608-3.27-4.395-3.772-4.395-2.094.282-1.665,2.325a31.174,31.174,0,0,0,1.793,5.9l-14.493.315a3.082,3.082,0,0,0-2.361,1.121c-.379.479-.537,1.007.142,1.343a70.54,70.54,0,0,0,7.665,2.243l-2.75-.7s-.59,2.607,1.149,3.846a9.36,9.36,0,0,1,1.851,1.467s.086,2.467.839,3.464,8.919,5.163,8.919,5.163,5.218,1.529,7.856,1.4a13.588,13.588,0,0,1,5.651,1.439c.3.08,2.87-12.166,2.87-12.166" transform="translate(-158.825 -51.724)" fill="#ae7461"/>
        <path id="Trazado_623972" data-name="Trazado 623972" d="M553.538,184.679a29.97,29.97,0,0,0,4.071.452,16.108,16.108,0,0,0,4.1.2,17.491,17.491,0,0,0-4.053-.707,11.682,11.682,0,0,0-4.122.053" transform="translate(-165.56 -55.183)" fill="#6f4439"/>
        <path id="Trazado_623973" data-name="Trazado 623973" d="M551.208,193.052a21.426,21.426,0,0,0-5.921-1.248c-1.657-.209-3.158-.357-4.24-.476a7.983,7.983,0,0,0-1.768-.133,5.112,5.112,0,0,0,1.714.489c1.078.212,2.577.417,4.231.624,3.311.378,5.951.861,5.985.744" transform="translate(-161.296 -57.178)" fill="#6f4439"/>
        <path id="Trazado_623974" data-name="Trazado 623974" d="M552.338,199.882c0-.15-2.113-.214-4.664-.655s-4.566-1.064-4.618-.922a17.515,17.515,0,0,0,9.281,1.577" transform="translate(-162.425 -59.306)" fill="#6f4439"/>
        <path id="Trazado_623975" data-name="Trazado 623975" d="M555,206.97c.139.022.35-.542.47-1.262s.1-1.321-.036-1.344-.35.542-.47,1.262-.1,1.321.036,1.344" transform="translate(-165.963 -61.124)" fill="#6f4439"/>
        <path id="Trazado_623976" data-name="Trazado 623976" d="M556.829,198.24c.146-.011.221-.479.47-.971s.56-.847.479-.968c-.065-.121-.631.111-.941.746s-.145,1.217-.009,1.194" transform="translate(-166.494 -58.703)" fill="#6f4439"/>
        <path id="Trazado_623977" data-name="Trazado 623977" d="M559.206,189.471c.143.015.292-.286.467-.627s.324-.642.226-.746-.466.085-.684.519-.147.843-.008.854" transform="translate(-167.217 -56.251)" fill="#6f4439"/>
        <path id="Trazado_623978" data-name="Trazado 623978" d="M564.135,127.4a5.337,5.337,0,0,0,.828-.475l2.286-1.36c.981-.579,2.171-1.272,3.506-2.091a32.932,32.932,0,0,0,4.3-2.994l-.375-.064a14.007,14.007,0,0,1,1.541,6.943v.031l-.015.575.438-.371c4.26-3.605,8.082-6.917,10.739-9.434,1.331-1.255,2.383-2.3,3.088-3.038a8.837,8.837,0,0,0,1.053-1.19,10.141,10.141,0,0,0-1.193,1.05l-3.193,2.915c-2.713,2.443-6.565,5.705-10.826,9.312l.423.2v-.032A14.239,14.239,0,0,0,575.1,120.2l-.143-.269-.232.205a34.961,34.961,0,0,1-4.188,3l-3.445,2.181c-.962.613-1.716,1.115-2.218,1.479a3.783,3.783,0,0,0-.741.6" transform="translate(-168.73 -34.076)" fill="#263238"/>
        <path id="Trazado_623979" data-name="Trazado 623979" d="M552.88,112.431a4.719,4.719,0,0,0-.557,1.052c-.317.7-.745,1.717-1.235,2.991s-1.049,2.8-1.571,4.538c-.131.435-.253.885-.353,1.359a2.645,2.645,0,0,0-.067.808.367.367,0,0,0,.423.279.381.381,0,0,0,.219-.126l.056-.072.226-.29,1.874-2.407,2.42-3.135-.418-.034c1.514,2.839,2.891,5.265,3.931,6.954.52.846.955,1.508,1.273,1.95a2.917,2.917,0,0,0,.532.653,3.508,3.508,0,0,0-.39-.743l-1.143-2.017c-.963-1.727-2.28-4.177-3.765-7.025l-.178-.341-.24.308-2.422,3.108-1.855,2.4-.223.29-.056.072.09.09v0s0,0,0,.01l0,0,0,0,.131-.034a2.8,2.8,0,0,1,.063-.609c.09-.449.2-.892.327-1.323.49-1.722,1.018-3.258,1.458-4.545l1.079-3.039a6.144,6.144,0,0,0,.372-1.126" transform="translate(-164.229 -33.627)" fill="#263238"/>
        <path id="Trazado_623980" data-name="Trazado 623980" d="M637.86,199.7a9.3,9.3,0,0,0-2.523-.667,25.517,25.517,0,0,0-12.473.995,9.277,9.277,0,0,0-2.382,1.058,22.948,22.948,0,0,0,2.491-.715,31.02,31.02,0,0,1,12.311-.981,22.888,22.888,0,0,0,2.575.311" transform="translate(-185.583 -59.422)" fill="#263238"/>
        <path id="Trazado_623981" data-name="Trazado 623981" d="M629.051,194.816a14.043,14.043,0,0,0-8.967,4.89c.109.113,1.776-1.5,4.264-2.841,2.475-1.364,4.74-1.9,4.7-2.049" transform="translate(-185.463 -58.261)" fill="#263238"/>
        <path id="Trazado_623982" data-name="Trazado 623982" d="M604.044,173.844a1.583,1.583,0,0,0,.023.352c.032.261.074.6.126,1.021.129.933.309,2.241.538,3.9.5,3.411,1.206,8.259,2.068,14.175v-.016c.008.124.017.266.026.409l.22-.213-14.752-1.38.037.006-13.069-3.3-.259-.065-.055.259c-.25,1.186-.516,2.453-.784,3.731-.813,3.881-1.605,7.659-2.358,11.254l-.042.2.191.078a231.182,231.182,0,0,0,27.566,9.419c3.512.946,6.34,1.618,8.289,2.057l2.241.483.582.113a.679.679,0,0,0,.2.024.717.717,0,0,0-.191-.067l-.571-.156-2.22-.564c-1.935-.491-4.749-1.211-8.244-2.2a248.932,248.932,0,0,1-27.461-9.57l.149.28c.757-3.595,1.553-7.372,2.37-11.252.268-1.278.534-2.545.783-3.732l-.313.194,13.075,3.276.019,0h.019l14.759,1.3.237.021-.017-.234c-.011-.143-.02-.285-.029-.409v-.016c-.935-5.905-1.7-10.744-2.241-14.15-.275-1.651-.491-2.954-.646-3.883l-.183-1.012a1.6,1.6,0,0,0-.083-.343" transform="translate(-172.208 -51.996)" fill="#263238"/>
        <path id="Trazado_623983" data-name="Trazado 623983" d="M614.7,146.236a23.139,23.139,0,0,0,.638-2.5,28.945,28.945,0,0,1,5.521-10.982,23.414,23.414,0,0,0,1.63-2.009,9.135,9.135,0,0,0-1.907,1.779,24.092,24.092,0,0,0-5.6,11.132,9.028,9.028,0,0,0-.285,2.581" transform="translate(-183.845 -39.104)" fill="#263238"/>
        <g id="Grupo_877519" data-name="Grupo 877519" transform="translate(429.304 112.211)" opacity="0.3">
          <g id="Grupo_877518" data-name="Grupo 877518">
            <g id="Grupo_877517" data-name="Grupo 877517" clip-path="url(#clip-path-8)">
              <path id="Trazado_623984" data-name="Trazado 623984" d="M613.546,160.094c1.187,6.4,2.035,13.634,3.062,20.066-.242.3-.112,1.262-.354,1.561a78.673,78.673,0,0,1-3.437-10.7,25.3,25.3,0,0,1,.73-10.929" transform="translate(-612.5 -160.094)"/>
            </g>
          </g>
        </g>
        <g id="Grupo_877522" data-name="Grupo 877522" transform="translate(396.152 82.264)" opacity="0.3">
          <g id="Grupo_877521" data-name="Grupo 877521">
            <g id="Grupo_877520" data-name="Grupo 877520" clip-path="url(#clip-path-9)">
              <path id="Trazado_623985" data-name="Trazado 623985" d="M574.048,126.785,565.2,128a63.861,63.861,0,0,0,10.009-6.664c1.1,2.581,1.723,3.523,1.54,7.252,4.286-3.571,8.35-7.648,12.637-11.219a74.559,74.559,0,0,1-16.035,16.941,27.945,27.945,0,0,0,.7-7.523" transform="translate(-565.2 -117.368)"/>
            </g>
          </g>
        </g>
        <path id="Trazado_623986" data-name="Trazado 623986" d="M571.318,19.8a4.754,4.754,0,0,0-4.842-2.561,6.529,6.529,0,0,0-7.988-.125,5.927,5.927,0,0,0-5.682-.3,5.835,5.835,0,0,0-3.181,4.679,4.969,4.969,0,0,0-5.123,2.345,4.881,4.881,0,0,0,.632,5.561,4.593,4.593,0,0,0,1.637,9l23.5-13.253a4.678,4.678,0,0,0,1.053-5.341" transform="translate(-162.045 -4.728)" fill="#263238"/>
        <path id="Trazado_623987" data-name="Trazado 623987" d="M544.621,66.377c.115-5.053,1.2-15.438,2.3-24.827a19.61,19.61,0,0,1,20.216-17.242l1.017.036c10.95,1.014,16.2,10.8,14.872,21.629L579.942,80.1l-21.185,19.1-4.618-13.5.735-6.876s-10.49-1.991-10.254-12.453" transform="translate(-162.892 -7.267)" fill="#ae7461"/>
        <path id="Trazado_623988" data-name="Trazado 623988" d="M559.109,100.567a25.774,25.774,0,0,0,13.959-3.533s-3.514,7.413-14,6.108Z" transform="translate(-167.213 -29.022)" fill="#6f4439"/>
        <path id="Trazado_623989" data-name="Trazado 623989" d="M552.293,62.45a1.5,1.5,0,0,0,1.4,1.557,1.438,1.438,0,0,0,1.6-1.292,1.5,1.5,0,0,0-1.4-1.558,1.439,1.439,0,0,0-1.6,1.294" transform="translate(-165.187 -18.29)" fill="#263238"/>
        <path id="Trazado_623990" data-name="Trazado 623990" d="M550.874,55.7c.179.2,1.35-.6,2.97-.537,1.62.037,2.78.906,2.962.714.09-.084-.088-.442-.593-.833a4.152,4.152,0,0,0-2.363-.813,3.994,3.994,0,0,0-2.373.67c-.512.362-.693.709-.6.8" transform="translate(-164.757 -16.219)" fill="#263238"/>
        <path id="Trazado_623991" data-name="Trazado 623991" d="M572.678,63.369a1.5,1.5,0,0,0,1.4,1.557,1.439,1.439,0,0,0,1.6-1.293,1.5,1.5,0,0,0-1.4-1.557,1.439,1.439,0,0,0-1.6,1.294" transform="translate(-171.284 -18.565)" fill="#263238"/>
        <path id="Trazado_623992" data-name="Trazado 623992" d="M573.585,56.91c.18.2,1.352-.6,2.971-.536,1.619.037,2.78.9,2.962.714.09-.084-.086-.442-.593-.834a4.16,4.16,0,0,0-2.363-.812,3.994,3.994,0,0,0-2.373.67c-.51.362-.693.708-.6.8" transform="translate(-171.55 -16.582)" fill="#263238"/>
        <path id="Trazado_623993" data-name="Trazado 623993" d="M562.862,68.548a10.82,10.82,0,0,0-2.616-.562c-.412-.056-.8-.151-.861-.435a2.079,2.079,0,0,1,.32-1.206q.635-1.47,1.333-3.083c1.856-4.39,3.214-8.006,3.035-8.079s-1.827,3.427-3.683,7.817q-.672,1.624-1.283,3.1a2.366,2.366,0,0,0-.271,1.6,1.034,1.034,0,0,0,.659.623,2.809,2.809,0,0,0,.7.121,10.694,10.694,0,0,0,2.668.1" transform="translate(-167.126 -16.505)" fill="#263238"/>
        <path id="Trazado_623994" data-name="Trazado 623994" d="M569.087,76.072c-.263-.025-.328,1.72-1.876,2.906s-3.415.929-3.437,1.173c-.029.109.405.353,1.2.4a4.408,4.408,0,0,0,2.865-.88,3.776,3.776,0,0,0,1.461-2.441c.093-.728-.088-1.166-.209-1.16" transform="translate(-168.621 -22.753)" fill="#263238"/>
        <path id="Trazado_623995" data-name="Trazado 623995" d="M573.31,48.061c.144.442,1.77.291,3.663.584,1.9.255,3.413.861,3.679.477.119-.184-.134-.6-.739-1.049a6.493,6.493,0,0,0-5.593-.808c-.708.254-1.072.586-1.01.8" transform="translate(-171.472 -14.046)" fill="#263238"/>
        <path id="Trazado_623996" data-name="Trazado 623996" d="M551.95,49.048c.272.375,1.4.034,2.745.063,1.344-.018,2.471.331,2.745-.042.121-.181-.044-.553-.529-.915a4,4,0,0,0-4.424-.018c-.487.359-.657.73-.537.912" transform="translate(-165.074 -14.2)" fill="#263238"/>
        <path id="Trazado_623997" data-name="Trazado 623997" d="M549.592,36.227s3.01-6.453,6.249-7.871c3.921-1.717,5.433,2.537,9.143,1.645s7.453-2.539,11.107.407c4,3.224,2,5.321,2.091,9.97.369,18.847,3.645,24.287,4.943,15.46.142-.967,2.886-1.645,3.433-5.733.709-5.3,1.141-11.751.077-15.567-.9-3.216-2.649-5.478-5.843-8.014-5.044-4-12.154-4.332-17-4.016s-14.352,5.5-14.2,13.72" transform="translate(-164.38 -6.705)" fill="#263238"/>
        <path id="Trazado_623998" data-name="Trazado 623998" d="M596.24,68.527a2.857,2.857,0,0,1,3.186-2.629c1.96.254,4.11,1.437,3.839,5.463-.481,7.142-7.613,5.189-7.611,4.983,0-.14.357-4.831.586-7.817" transform="translate(-178.157 -19.703)" fill="#ae7461"/>
        <path id="Trazado_623999" data-name="Trazado 623999" d="M598.146,74.753c.033-.02.12.1.325.206a1.269,1.269,0,0,0,.936.081,3.084,3.084,0,0,0,1.623-2.667,4.092,4.092,0,0,0-.231-1.8,1.445,1.445,0,0,0-.879-1.018.643.643,0,0,0-.764.292c-.109.193-.074.339-.112.348-.022.017-.146-.13-.069-.421a.8.8,0,0,1,.314-.428.954.954,0,0,1,.706-.136,1.76,1.76,0,0,1,1.236,1.194,4.2,4.2,0,0,1,.3,2.019c-.144,1.436-.977,2.734-2.038,2.963a1.353,1.353,0,0,1-1.135-.264c-.211-.192-.238-.354-.212-.365" transform="translate(-178.9 -20.695)" fill="#6f4439"/>
        <path id="Trazado_624000" data-name="Trazado 624000" d="M585.031,40.629a6.881,6.881,0,0,1-3.1,1.293,2.351,2.351,0,0,1-2.551-1.73c-.069-.5.074-1.074-.242-1.47-.378-.472-1.109-.354-1.715-.311a4.6,4.6,0,0,1-4.662-3.438,1.945,1.945,0,0,1-2.6.154,10.337,10.337,0,0,1-1.89-2.15,2.975,2.975,0,0,0-2.431-1.314,7.117,7.117,0,0,1-1.58.289c-.944-.117-1.367-1.231-1.478-2.169s-.184-2.028-.968-2.562a3.8,3.8,0,0,0-2.575-.16c-.876.1-1.994-.144-2.188-1a1.688,1.688,0,0,1,.368-1.285,4.7,4.7,0,0,1,5.574-1.563,6.352,6.352,0,0,1,11.67-.814,6.45,6.45,0,0,1,10.186,2.677,4.794,4.794,0,0,1,4.807,1.8,4.7,4.7,0,0,1,.207,5.093,4.384,4.384,0,0,1,2.309,3.575c-.025,1.48-1.531,2.9-2.957,2.466a2.642,2.642,0,0,1-1.135,3.324,2.689,2.689,0,0,1-3.414-.929" transform="translate(-166.603 -5.661)" fill="#263238"/>
        <path id="Trazado_624001" data-name="Trazado 624001" d="M599.172,46.164a1.7,1.7,0,0,1-.5,1.358,2.318,2.318,0,0,1-1.475.8,2.508,2.508,0,0,1-2.034-.663l.306-.035a7.172,7.172,0,0,1-1.5,1.733,4.153,4.153,0,0,1-1.342.765,3.219,3.219,0,0,1-3.495-1.171,4.119,4.119,0,0,1-.531-1.508,1.391,1.391,0,0,1-.035-.58c.032-.006.086.193.193.544a4.778,4.778,0,0,0,.618,1.382,2.958,2.958,0,0,0,4.329.251,7.2,7.2,0,0,0,1.431-1.624l.135-.206.173.171a2.2,2.2,0,0,0,1.719.61,2.135,2.135,0,0,0,1.329-.637,3.473,3.473,0,0,0,.68-1.194" transform="translate(-176.032 -13.807)" fill="#455a64"/>
        <path id="Trazado_624002" data-name="Trazado 624002" d="M573.972,76.671c-.117,0-.135-.758-.727-1.4-.568-.664-1.321-.778-1.31-.894,0-.05.205-.1.531-.036a2.085,2.085,0,0,1,1.091.658,2.054,2.054,0,0,1,.519,1.157c.025.329-.054.522-.1.517" transform="translate(-171.063 -22.225)" fill="#6f4439"/>
        <path id="Trazado_624003" data-name="Trazado 624003" d="M575.221,74.514c-.1.057-.356-.2-.733-.383s-.731-.243-.745-.359.435-.259.932-.008.65.707.546.75" transform="translate(-171.603 -22.021)" fill="#6f4439"/>
        <path id="Trazado_624004" data-name="Trazado 624004" d="M556.159,17.493c-.032-.069-.778.4-1.361,1.583a6.078,6.078,0,0,0-.644,2.2,4.019,4.019,0,0,0,.744,2.743,5.85,5.85,0,0,0,2.249,1.731,16.3,16.3,0,0,0,2.128.8,9.339,9.339,0,0,0,2.016.514,7.77,7.77,0,0,0-1.9-.852c-.592-.234-1.3-.506-2.038-.882a5.732,5.732,0,0,1-2.045-1.609,3.681,3.681,0,0,1-.688-2.414,6.359,6.359,0,0,1,.5-2.087,8.6,8.6,0,0,1,1.032-1.732" transform="translate(-165.738 -5.23)" fill="#e0e0e0"/>
        <path id="Trazado_624005" data-name="Trazado 624005" d="M550.473,24.2c-.058,0-.1.453.09,1.151a5.241,5.241,0,0,0,1.495,2.363,5.307,5.307,0,0,0,2.494,1.293c.716.137,1.165.055,1.163,0,0-.081-.428-.132-1.07-.346a6.222,6.222,0,0,1-3.741-3.428c-.265-.618-.349-1.041-.431-1.031" transform="translate(-164.629 -7.239)" fill="#e0e0e0"/>
      </g>
    </g>
    <g id="Grupo_877526" data-name="Grupo 877526">
      <g id="Grupo_877525" data-name="Grupo 877525" clip-path="url(#clip-path)">
        <path id="Trazado_624006" data-name="Trazado 624006" d="M667.532,11.186a4.061,4.061,0,0,1,4.06,4.048l.131,36.969-.113,14.911a4.061,4.061,0,0,1-4.06,4.03H639l-8.958,8.941V71.144h-1.918a4.059,4.059,0,0,1-4.06-4.1l.495-51.838a4.061,4.061,0,0,1,4.06-4.025Z" transform="translate(-186.656 -3.346)" fill="#fff"/>
        <path id="Trazado_624007" data-name="Trazado 624007" d="M667.456,11.126s-.182.012-.539.018l-1.584.018-6.1.034-22.484.057-7.468.011a5.988,5.988,0,0,0-1.908.182,4,4,0,0,0-1.631,1.007,3.9,3.9,0,0,0-.968,1.693,7.773,7.773,0,0,0-.152,2.032c-.048,5.6-.1,11.6-.154,17.914s-.116,12.956-.179,19.85q-.047,5.171-.1,10.523c0,.889-.025,1.794-.017,2.677a3.853,3.853,0,0,0,.9,2.369,3.928,3.928,0,0,0,2.191,1.311,6.576,6.576,0,0,0,1.327.079h1.555v9.123l-.311-.129,8.959-8.939.053-.053h.074l19.167.008,9.042.006a3.972,3.972,0,0,0,3.6-1.766,3.837,3.837,0,0,0,.627-1.934c.022-.7.017-1.411.026-2.108.034-5.6.126-10.9.107-15.843s-.018-9.523-.027-13.695c-.006-8.334-.011-15.02-.015-19.636a7.52,7.52,0,0,0-.09-1.609,3.873,3.873,0,0,0-.531-1.3,4.014,4.014,0,0,0-1.62-1.461,4.5,4.5,0,0,0-1.758-.442,4.406,4.406,0,0,1,.467.012,4.058,4.058,0,0,1,2.994,1.838,3.964,3.964,0,0,1,.56,1.325,7.582,7.582,0,0,1,.107,1.634c.029,4.615.071,11.3.125,19.636.021,4.172.045,8.754.07,13.695s-.047,10.242-.07,15.845c-.008.7,0,1.4-.023,2.122a4.163,4.163,0,0,1-.676,2.1,4.309,4.309,0,0,1-3.872,1.921l-9.042.006-19.167.008.128-.053L630.1,80.154l-.311.311v-9.38l.182.182H628.6a6.905,6.905,0,0,1-1.4-.086,4.3,4.3,0,0,1-2.4-1.435,4.219,4.219,0,0,1-.983-2.592c-.008-.912.013-1.8.018-2.691q.052-5.349.1-10.523c.07-6.893.137-13.532.2-19.849s.13-12.31.188-17.914a8.014,8.014,0,0,1,.168-2.106,4.175,4.175,0,0,1,1.044-1.817,4.279,4.279,0,0,1,1.752-1.076,6.245,6.245,0,0,1,1.992-.189l7.468.012,22.484.057,6.1.034,1.584.018c.357.006.539.018.539.018" transform="translate(-186.58 -3.286)" fill="#263238"/>
        <rect id="Rectángulo_327540" data-name="Rectángulo 327540" width="6.12" height="19.823" transform="translate(471.632 41.103)" fill="#ffb338"/>
        <rect id="Rectángulo_327541" data-name="Rectángulo 327541" width="6.12" height="10.469" transform="translate(444.812 50.457)" fill="#ffb338"/>
        <rect id="Rectángulo_327542" data-name="Rectángulo 327542" width="6.12" height="23.552" transform="translate(462.126 37.374)" fill="#ffb338"/>
        <rect id="Rectángulo_327543" data-name="Rectángulo 327543" width="6.12" height="33.421" transform="translate(452.95 27.506)" fill="#ffb338"/>
        <path id="Trazado_624008" data-name="Trazado 624008" d="M670.09,66.747s-.006-.081-.009-.229-.006-.378-.009-.66c0-.592-.011-1.445-.02-2.553-.01-2.238-.024-5.494-.042-9.624-.02-8.263-.048-20.017-.081-34.037l.161.161-40.812.021h0l.182-.182c-.011,17.374-.02,33.568-.029,47.1l-.153-.154,29.579.079,8.286.04,2.19.018c.5.006.762.017.762.017s-.243.011-.729.017l-2.16.018-8.251.04-29.676.079h-.154v-.154c-.008-13.534-.018-29.729-.029-47.1v-.183h.187l40.812.021h.162v.161c-.034,14.063-.062,25.853-.081,34.14-.018,4.114-.032,7.359-.043,9.588-.008,1.095-.014,1.937-.019,2.521,0,.275-.007.487-.009.643a1.741,1.741,0,0,1-.009.211" transform="translate(-188.158 -5.821)" fill="#263238"/>
        <path id="Trazado_624009" data-name="Trazado 624009" d="M670.169,66.157c0,.1-9.138.182-20.408.182s-20.408-.081-20.408-.182,9.135-.182,20.408-.182,20.408.081,20.408.182" transform="translate(-188.236 -19.733)" fill="#263238"/>
        <path id="Trazado_624010" data-name="Trazado 624010" d="M670.169,35.714c0,.1-9.138.182-20.408.182s-20.408-.081-20.408-.182,9.135-.182,20.408-.182,20.408.081,20.408.182" transform="translate(-188.236 -10.627)" fill="#263238"/>
      </g>
    </g>
    <g id="Grupo_877528" data-name="Grupo 877528">
      <g id="Grupo_877527" data-name="Grupo 877527" clip-path="url(#clip-path)">
        <path id="Trazado_624011" data-name="Trazado 624011" d="M67.165,270.506H57.809v-1.821a4.046,4.046,0,0,0-4.046-4.046H4.307a4.046,4.046,0,0,0-4.046,4.046v40.28a4.046,4.046,0,0,0,4.046,4.046H53.763a4.045,4.045,0,0,0,4.046-4.046V279.39Z" transform="translate(-0.078 -79.152)" fill="#fff"/>
        <path id="Trazado_624012" data-name="Trazado 624012" d="M67.087,270.433l-9.3,8.946.027-.062c.011,4.463.024,10.082.04,16.658,0,3.29.011,6.819.017,10.561-.014.943.036,1.869-.03,2.863a4.16,4.16,0,0,1-1.375,2.626,4.23,4.23,0,0,1-2.845,1.065l-3.073,0-26.93.02-14.778.006H5.035a6.845,6.845,0,0,1-1.953-.161A4.233,4.233,0,0,1,.247,310.3a4.375,4.375,0,0,1-.225-.988C0,308.972,0,308.647,0,308.324v-3.917c0-11.157.006-21.921.008-32.057q0-1.9,0-3.772a4.227,4.227,0,0,1,3.406-4.1A10.533,10.533,0,0,1,5.26,264.4l3.576,0,13.574.013,23.052.034,4.779.01,2.227.006a10.48,10.48,0,0,1,2.128.109,4.16,4.16,0,0,1,2.91,2.469,4.415,4.415,0,0,1,.3,1.754q0,.85-.006,1.637l-.074-.074,9.356.074-9.356.074h-.074v-.074q0-.787-.006-1.637a4.255,4.255,0,0,0-.3-1.688,3.98,3.98,0,0,0-2.795-2.346,10.4,10.4,0,0,0-2.085-.093l-2.227.006-4.779.01-23.052.034-13.574.013-3.576,0a10.443,10.443,0,0,0-1.777.075,3.887,3.887,0,0,0-3.125,3.773v3.769c0,10.135.006,20.9.008,32.057v3.917a4.774,4.774,0,0,0,.225,1.857,3.87,3.87,0,0,0,2.59,2.427,6.516,6.516,0,0,0,1.855.148H8.841l14.778.006,26.93.02c2.028-.1,4.264.435,5.721-.979a3.869,3.869,0,0,0,1.284-2.438c.064-.924.02-1.9.036-2.828.006-3.742.011-7.271.016-10.561.016-6.575.029-12.2.04-16.658v-.036l.027-.025,9.415-8.822" transform="translate(0 -79.08)" fill="#263238"/>
        <path id="Trazado_624013" data-name="Trazado 624013" d="M55.746,281.141a7.319,7.319,0,0,1-4.664,4.036c-1.466.4-3.043.32-4.456.882-2.581,1.028-3.947,3.861-5.105,6.445s-2.6,5.4-5.225,6.311c-2.166.751-4.556-.043-6.566-1.163s-3.868-2.58-6.044-3.3c-3.861-1.28-8.222.027-11.413,2.6s-5.358,6.268-7,10.083H55.639Z" transform="translate(-1.577 -84.088)" fill="#ffb338"/>
        <path id="Trazado_624014" data-name="Trazado 624014" d="M55.689,304.593s-.011-.2-.015-.575-.009-.937-.016-1.653c-.008-1.457-.02-3.577-.036-6.292-.018-5.438-.044-13.252-.076-22.81l.143.143-50.419.039h0l.183-.182c-.006,11.107-.01,21.7-.014,31.33l-.169-.169,36.262.083,10.411.046,2.779.02.721.01c.163,0,.251.01.251.01a1.739,1.739,0,0,1-.231.01l-.7.01-2.745.02-10.372.046-36.373.082H5.1v-.169c0-9.635-.009-20.223-.014-31.33v-.183H5.27l50.419.039h.144v.143c-.032,9.6-.057,17.439-.076,22.9-.015,2.7-.027,4.81-.036,6.26-.007.7-.013,1.246-.016,1.626,0,.364-.015.545-.015.545" transform="translate(-1.521 -81.677)" fill="#263238"/>
        <path id="Trazado_624015" data-name="Trazado 624015" d="M23.594,304.749c-.1,0-.182-6.9-.182-15.4s.081-15.4.182-15.4.182,6.895.182,15.4-.081,15.4-.182,15.4" transform="translate(-7.002 -81.936)" fill="#263238"/>
        <path id="Trazado_624016" data-name="Trazado 624016" d="M42.1,305.162c-.1,0-.182-7.124-.182-15.91s.081-15.911.182-15.911.182,7.122.182,15.911-.081,15.91-.182,15.91" transform="translate(-12.537 -81.755)" fill="#263238"/>
        <path id="Trazado_624017" data-name="Trazado 624017" d="M60.146,305.162c-.1,0-.182-7.124-.182-15.91s.081-15.911.182-15.911.182,7.122.182,15.911-.081,15.91-.182,15.91" transform="translate(-17.935 -81.755)" fill="#263238"/>
        <path id="Trazado_624018" data-name="Trazado 624018" d="M55.685,296.191c0,.1-11.252.182-25.13.182s-25.132-.081-25.132-.182,11.25-.182,25.132-.182,25.13.081,25.13.182" transform="translate(-1.622 -88.535)" fill="#263238"/>
        <rect id="Rectángulo_327545" data-name="Rectángulo 327545" width="41.838" height="3.069" transform="translate(3.865 225.513)" fill="#e0e0e0"/>
      </g>
    </g>
  </g>
</svg>
