<svg xmlns="http://www.w3.org/2000/svg" width="78.227" height="60.607" viewBox="0 0 78.227 60.607">
  <g id="Grupo_1034308" data-name="Grupo 1034308" transform="translate(-180 -7543.393)">
    <path id="Trazado_194609" data-name="Trazado 194609" d="M0,0,78.227,36.813H0Z" transform="translate(180 7567.188)" fill="#617a0b"/>
    <g id="XMLID_1443_" transform="translate(196.183 7543.393)">
      <circle id="XMLID_2426_" cx="17" cy="17" r="17" transform="translate(23 1)" fill="#2b95f9"/>
      <g id="XMLID_2455_" transform="translate(1.133 22.978)">
        <path id="XMLID_2459_" d="M21.339,286.175H13.071A3.071,3.071,0,0,1,10,283.1v-6.817a3.071,3.071,0,0,1,3.071-3.071h8.268v12.958Z" transform="translate(-10 -265.244)" fill="#ffb338"/>
        <path id="XMLID_2458_" d="M110.093,223.768l18.806,7.973v-28.9l-18.806,7.973Z" transform="translate(-98.754 -202.837)" fill="#fff"/>
        <path id="XMLID_2457_" d="M59.376,400.566V387.608H52.9v6.479A6.479,6.479,0,0,0,59.376,400.566Z" transform="translate(-48.038 -366.677)" fill="#98a1b3"/>
        <path id="XMLID_2456_" d="M276.1,297.234a4.859,4.859,0,1,0,0-9.719Z" transform="translate(-245.959 -277.923)" fill="#ffb338"/>
      </g>
      <g id="XMLID_2489_" transform="translate(30.771 9.981)">
        <ellipse id="XMLID_1287_" cx="2.914" cy="3.105" rx="2.914" ry="3.105" fill="#fff"/>
        <ellipse id="XMLID_825_" cx="2.914" cy="3.105" rx="2.914" ry="3.105" transform="translate(12.622 9.852)" fill="#fff"/>
      </g>
      <g id="XMLID_1219_" transform="translate(0 0)">
        <path id="XMLID_1261_" d="M39.988,0A18.032,18.032,0,0,0,21.977,18.012a17.825,17.825,0,0,0,1.44,7.068L12.241,29.817H4.2a4.208,4.208,0,0,0-4.2,4.2v6.817a4.208,4.208,0,0,0,4.2,4.2h.656v5.346A7.621,7.621,0,0,0,12.471,58,1.133,1.133,0,0,0,13.6,56.867V45.619l17.231,7.305a1.133,1.133,0,0,0,1.575-1.043V43.313a5.987,5.987,0,0,0,4.627-7.531,18.068,18.068,0,0,0,11.35-1.833,1.133,1.133,0,0,0-1.058-2,15.778,15.778,0,0,1-11.946,1.125,5.979,5.979,0,0,0-2.973-1.525V22.978a1.133,1.133,0,0,0-1.575-1.043L25.5,24.2a15.586,15.586,0,0,1-1.261-6.184,15.746,15.746,0,1,1,29.7,7.3,1.133,1.133,0,1,0,2.006,1.052A18.018,18.018,0,0,0,39.988,0ZM2.266,40.838V34.021A1.94,1.94,0,0,1,4.2,32.083h7.135V42.776H4.2a1.94,1.94,0,0,1-1.938-1.938Zm9.073,14.776a5.355,5.355,0,0,1-4.214-5.226V45.042h4.214ZM35,37.429a3.733,3.733,0,0,1-2.594,3.55v-7.1A3.733,3.733,0,0,1,35,37.429ZM30.145,50.171,13.6,43.159V31.7l16.54-7.012Z" transform="translate(0 0)"/>
        <path id="XMLID_1274_" d="M315.485,100.6a1.132,1.132,0,0,0,1.5-.559l6.6-14.409a1.133,1.133,0,1,0-2.06-.943l-6.6,14.409A1.133,1.133,0,0,0,315.485,100.6Z" transform="translate(-279.16 -74.512)"/>
        <path id="XMLID_1279_" d="M269.723,82.345a4.051,4.051,0,1,0-4.047,4.238A4.15,4.15,0,0,0,269.723,82.345Zm-4.047,1.972a1.982,1.982,0,1,1,1.781-1.972A1.886,1.886,0,0,1,265.676,84.317Z" transform="translate(-231.991 -69.259)"/>
        <path id="XMLID_1290_" d="M377.1,165.074a4.242,4.242,0,1,0,4.047,4.238A4.151,4.151,0,0,0,377.1,165.074Zm0,6.21a1.982,1.982,0,1,1,1.781-1.972A1.886,1.886,0,0,1,377.1,171.284Z" transform="translate(-330.789 -146.374)"/>
        <path id="XMLID_1291_" d="M449.492,254.359a1.133,1.133,0,1,0,.8.332A1.138,1.138,0,0,0,449.492,254.359Z" transform="translate(-397.568 -225.545)"/>
      </g>
    </g>
  </g>
</svg>
