<svg id="Grupo_877630" data-name="Grupo 877630" xmlns="http://www.w3.org/2000/svg" xmlns:xlink="http://www.w3.org/1999/xlink" width="354.709" height="356" viewBox="0 0 354.709 356">
  <defs>
    <clipPath id="clip-path">
      <rect id="Rectángulo_327642" data-name="Rectángulo 327642" width="354.709" height="356" fill="none"/>
    </clipPath>
    <clipPath id="clip-path-7">
      <rect id="Rectángulo_327636" data-name="Rectángulo 327636" width="73.516" height="70.376" fill="#e44e00"/>
    </clipPath>
    <clipPath id="clip-path-8">
      <rect id="Rectángulo_327637" data-name="Rectángulo 327637" width="58.733" height="117.495" fill="#e44e00"/>
    </clipPath>
    <clipPath id="clip-path-9">
      <rect id="Rectángulo_327638" data-name="Rectángulo 327638" width="7.885" height="13.811" fill="none"/>
    </clipPath>
    <clipPath id="clip-path-10">
      <rect id="Rectángulo_327639" data-name="Rectángulo 327639" width="47.718" height="98.18" fill="none"/>
    </clipPath>
    <clipPath id="clip-path-11">
      <rect id="Rectángulo_327640" data-name="Rectángulo 327640" width="36.996" height="34.051" fill="none"/>
    </clipPath>
  </defs>
  <g id="Grupo_877629" data-name="Grupo 877629" clip-path="url(#clip-path)">
    <g id="Grupo_877605" data-name="Grupo 877605">
      <g id="Grupo_877604" data-name="Grupo 877604" clip-path="url(#clip-path)">
        <path id="Trazado_624559" data-name="Trazado 624559" d="M101.88,88.639h0A27.336,27.336,0,1,1,129.216,61.3,27.336,27.336,0,0,1,101.88,88.639" transform="translate(-15.064 -6.864)" fill="#ebebeb"/>
        <rect id="Rectángulo_327627" data-name="Rectángulo 327627" width="5.657" height="18.277" transform="translate(74.42 48.344)" fill="#fff"/>
        <path id="Trazado_624560" data-name="Trazado 624560" d="M95.933,55.881a3.373,3.373,0,1,0-3.346-3.374,3.36,3.36,0,0,0,3.346,3.374" transform="translate(-18.71 -9.929)" fill="#fff"/>
        <path id="Trazado_624561" data-name="Trazado 624561" d="M110.318,69.13c0-2.569,1.183-4.1,3.447-4.1,2.08,0,3.08,1.47,3.08,4.1v9.594h5.631V67.152c0-4.9-2.775-7.263-6.65-7.263a6.372,6.372,0,0,0-5.508,3.019V60.447h-5.427V78.724h5.427Z" transform="translate(-21.196 -12.102)" fill="#fff"/>
        <path id="Trazado_624562" data-name="Trazado 624562" d="M152.036,0l3.743,6.845,6.845,3.743-6.845,3.743-3.743,6.845-3.743-6.845-6.845-3.743,6.845-3.743Z" transform="translate(-28.584 0)" fill="#f5f5f5"/>
        <path id="Trazado_624563" data-name="Trazado 624563" d="M348.356,232.386l2.807,5.133,5.134,2.808-5.134,2.807-2.807,5.134-2.807-5.134-5.134-2.807,5.134-2.808Z" transform="translate(-68.791 -46.961)" fill="#ebebeb"/>
        <path id="Trazado_624564" data-name="Trazado 624564" d="M359.411,200.622l1.266,2.316,2.316,1.267-2.316,1.266-1.266,2.316-1.266-2.316-2.316-1.266,2.316-1.267Z" transform="translate(-71.906 -40.542)" fill="#e0e0e0"/>
        <path id="Trazado_624565" data-name="Trazado 624565" d="M120.3,3.226l1.267,2.316,2.316,1.266L121.57,8.075,120.3,10.391l-1.266-2.316L116.72,6.809l2.316-1.266Z" transform="translate(-23.587 -0.652)" fill="#e0e0e0"/>
        <path id="Trazado_624566" data-name="Trazado 624566" d="M37.359,268.836a8.274,8.274,0,0,0,4.831-7.719,8.036,8.036,0,0,0-7.835-8.212,8.027,8.027,0,0,0-7.687,8.341,8.264,8.264,0,0,0,5.045,7.663C19.795,270.863,20.5,283.835,20.5,283.835l28.242-.235s.475-13.129-11.387-14.764" transform="translate(-4.142 -51.107)" fill="#e0e0e0"/>
        <path id="Trazado_624567" data-name="Trazado 624567" d="M376.721,379.152a4.4,4.4,0,0,0-8.669.259,4.4,4.4,0,0,0-8.672-.182,5.933,5.933,0,0,0,1.065,4.281,17.567,17.567,0,0,0,3.1,3.276c1.578,1.405,3.036,2.725,4.614,4.13,1.566-1.419,2.9-2.751,4.464-4.17a17.633,17.633,0,0,0,3.071-3.3,5.935,5.935,0,0,0,1.027-4.29" transform="translate(-72.608 -75.902)" fill="#ebebeb"/>
        <path id="Trazado_624568" data-name="Trazado 624568" d="M404.184,164.9l3.027-.6,4.779-10.513-1.2-6.041s4.62-1.215,5.639,6.8,1.214,5.887,1.214,5.887,9.94-1.932,10.936-1.232c.724.507,2.952,10.32,4.117,15.65a5.9,5.9,0,0,1-2.947,6.649,4.363,4.363,0,0,1-1.041.356c-2.477.492-15.533.988-15.533.988l-5.228,1.036Z" transform="translate(-81.677 -29.844)" fill="#e0e0e0"/>
        <path id="Trazado_624569" data-name="Trazado 624569" d="M392.915,169.091l5.966,20.329,5.183-1.029-4.022-20.282Z" transform="translate(-79.4 -33.972)" fill="#e0e0e0"/>
      </g>
    </g>
    <g id="Grupo_877607" data-name="Grupo 877607">
      <g id="Grupo_877606" data-name="Grupo 877606" clip-path="url(#clip-path)">
        <path id="Trazado_624570" data-name="Trazado 624570" d="M353.451,445.383c0,.115-79.129.207-176.717.207C79.112,445.591,0,445.5,0,445.383s79.112-.207,176.734-.207c97.588,0,176.717.093,176.717.207" transform="translate(0 -89.961)" fill="#263238"/>
      </g>
    </g>
    <g id="Grupo_877609" data-name="Grupo 877609">
      <g id="Grupo_877608" data-name="Grupo 877608" clip-path="url(#clip-path)">
        <path id="Trazado_624571" data-name="Trazado 624571" d="M354.125,143.667h0a32.42,32.42,0,1,1-28.36-58.309h0a32.42,32.42,0,0,1,28.359,58.309" transform="translate(-62.143 -16.588)" fill="#e44e00"/>
        <path id="Trazado_624572" data-name="Trazado 624572" d="M335.837,125.08a.761.761,0,0,0,.755-.981c-.079-.393-.29-1.38-.372-1.795-.109-.564-.246-.713-.825-.968a6.385,6.385,0,0,1-3.209-3.264,10.474,10.474,0,0,1,5.159-14.288c5.341-2.6,9.862-.761,11.982,3.6,2.79,5.735,2.605,11.808-1.163,13.64a3.422,3.422,0,0,1-5-2.3c-.626-2.811-.792-6.094-1.677-7.913-.792-1.628-2.326-2.561-4.134-1.681-2.128,1.035-2.766,4.066-1.333,7.014a8.5,8.5,0,0,0,2.166,2.839s2.309,10.282,2.713,12.082a24.772,24.772,0,0,0,3.616,7.587.294.294,0,0,0,.528-.115,23.607,23.607,0,0,0,.424-8.256c-.186-1-1.258-6.146-1.258-6.146a6.336,6.336,0,0,0,6.063.115c6.395-3.11,7.9-11.047,4.1-18.849-2.869-5.9-10.537-8.965-18.132-5.27-9.45,4.6-10.92,13.688-8.172,19.338,1.664,3.421,4.44,5.834,7.769,5.617" transform="translate(-66.047 -19.909)" fill="#fff"/>
        <path id="Trazado_624573" data-name="Trazado 624573" d="M402.866,262.915h0a22.36,22.36,0,1,1,28.868-12.906h0a22.36,22.36,0,0,1-28.868,12.906" transform="translate(-78.504 -44.389)" fill="#e44e00"/>
        <path id="Trazado_624574" data-name="Trazado 624574" d="M424.174,248.4a12.044,12.044,0,0,0-22.4-8.8c-.068.161-.136.322-.2.485a11.866,11.866,0,0,0-.592,6.383l-4.316,5.213,6.987.4a12.057,12.057,0,0,0,20.418-3.4c.036-.095.073-.19.1-.286m-14.938,5.372a10.084,10.084,0,0,1-4.61-3.541L400.551,250l2.511-3.035a9.946,9.946,0,0,1,.3-6.191,9.325,9.325,0,0,1,.395-.893,10.129,10.129,0,0,1,18.769,7.377c-.072.251-.153.5-.248.744a10.1,10.1,0,0,1-13.044,5.771" transform="translate(-80.158 -46.969)" fill="#fff" fill-rule="evenodd"/>
        <path id="Trazado_624575" data-name="Trazado 624575" d="M420,249.972c-.227-.243-1.327-1.424-1.546-1.61s-.385-.3-.673-.1-1.056.616-1.283.735-.4.083-.626-.161a7.989,7.989,0,0,1-1.7-2.205,8.763,8.763,0,0,1-.81-2.476c-.053-.334.145-.428.334-.512s.4-.216.6-.32l.15-.093a3.241,3.241,0,0,0,.3-.261.528.528,0,0,0,.162-.487c-.016-.163-.054-1.723-.077-2.359s-.285-.628-.448-.69-.332-.157-.516-.227a1.1,1.1,0,0,0-.868.06,3.283,3.283,0,0,0-1.837,1.918,3.72,3.72,0,0,0-.215.986,6.64,6.64,0,0,0,.261,2.272,12.111,12.111,0,0,0,3.128,5.933c2.391,2.162,2.529,1.8,3.053,1.945a2.945,2.945,0,0,0,2.356-.59,2.413,2.413,0,0,0,.66-1.238c-.026-.136-.184-.275-.405-.517" transform="translate(-83.041 -48.326)" fill="#fff" fill-rule="evenodd"/>
        <path id="Trazado_624576" data-name="Trazado 624576" d="M37.81,135.718h0a17.05,17.05,0,1,1,17.05-17.05,17.05,17.05,0,0,1-17.05,17.05" transform="translate(-4.195 -20.535)" fill="#e44e00"/>
        <path id="Trazado_624577" data-name="Trazado 624577" d="M30.743,126.824a10.6,10.6,0,0,0,16.309-9.414,7.543,7.543,0,0,0,1.86-1.929,7.443,7.443,0,0,1-2.141.586,3.734,3.734,0,0,0,1.639-2.062,7.488,7.488,0,0,1-2.367.9,3.73,3.73,0,0,0-6.352,3.4,10.58,10.58,0,0,1-7.682-3.895,3.732,3.732,0,0,0,1.153,4.977,3.713,3.713,0,0,1-1.689-.467,3.734,3.734,0,0,0,2.99,3.7,3.727,3.727,0,0,1-1.682.063,3.729,3.729,0,0,0,3.481,2.589,7.494,7.494,0,0,1-5.518,1.543" transform="translate(-6.213 -22.983)" fill="#fff"/>
        <path id="Trazado_624578" data-name="Trazado 624578" d="M71.366,369.053h0a29.366,29.366,0,1,1,21.762-35.373,29.367,29.367,0,0,1-21.762,35.373" transform="translate(-7.111 -62.87)" fill="#2b95f9"/>
        <path id="Trazado_624579" data-name="Trazado 624579" d="M64.538,330.683c4.183-1,4.682-1.1,6.351-1.416a8.9,8.9,0,0,1,3.037-.154,5.334,5.334,0,0,1,3.681,2.264,8.914,8.914,0,0,1,1.233,2.781c.468,1.633.6,2.125,1.6,6.308s1.1,4.681,1.416,6.351a8.92,8.92,0,0,1,.153,3.037,5.334,5.334,0,0,1-2.264,3.681,8.917,8.917,0,0,1-2.78,1.233c-1.633.468-2.125.6-6.308,1.6s-4.681,1.1-6.351,1.417a8.92,8.92,0,0,1-3.037.153,5.33,5.33,0,0,1-3.681-2.264,8.9,8.9,0,0,1-1.233-2.78c-.468-1.633-.6-2.125-1.6-6.308s-1.1-4.681-1.416-6.351a8.932,8.932,0,0,1-.154-3.038,5.332,5.332,0,0,1,2.265-3.68,8.879,8.879,0,0,1,2.78-1.233c1.633-.468,2.125-.6,6.307-1.6m-.672-2.822c-4.254,1.013-4.783,1.159-6.435,1.633a11.827,11.827,0,0,0-3.629,1.634,8.233,8.233,0,0,0-3.489,5.672,11.8,11.8,0,0,0,.178,3.975c.322,1.689.43,2.226,1.444,6.481s1.158,4.783,1.633,6.435A11.781,11.781,0,0,0,55.2,357.32a8.234,8.234,0,0,0,5.672,3.489,11.8,11.8,0,0,0,3.975-.178c1.689-.322,2.227-.431,6.481-1.444s4.783-1.158,6.435-1.633a11.84,11.84,0,0,0,3.629-1.633,8.238,8.238,0,0,0,3.489-5.672,11.819,11.819,0,0,0-.177-3.975c-.322-1.689-.432-2.227-1.445-6.481s-1.159-4.783-1.633-6.436a11.833,11.833,0,0,0-1.633-3.628,8.23,8.23,0,0,0-5.672-3.489,11.82,11.82,0,0,0-3.975.177c-1.689.322-2.227.431-6.481,1.444" transform="translate(-10.148 -65.907)" fill="#fff"/>
        <path id="Trazado_624580" data-name="Trazado 624580" d="M67.99,337.788a8.268,8.268,0,1,0,9.959,6.127,8.269,8.269,0,0,0-9.959-6.127m3.16,13.265a5.367,5.367,0,1,1,3.977-6.465,5.367,5.367,0,0,1-3.977,6.465" transform="translate(-12.455 -68.214)" fill="#fff"/>
        <path id="Trazado_624581" data-name="Trazado 624581" d="M81.373,334.013a1.932,1.932,0,1,1-2.328-1.432,1.932,1.932,0,0,1,2.328,1.432" transform="translate(-15.673 -67.197)" fill="#fff"/>
        <path id="Trazado_624582" data-name="Trazado 624582" d="M355.836,344.4h0A13.695,13.695,0,1,1,369.53,330.7,13.695,13.695,0,0,1,355.836,344.4" transform="translate(-69.14 -64.061)" fill="#2b95f9"/>
        <path id="Trazado_624583" data-name="Trazado 624583" d="M356.249,340.353h3.334v-8.348h2.326l.248-2.8h-2.574v-1.593c0-.658.132-.919.77-.919h1.8v-2.9h-2.308c-2.481,0-3.6,1.093-3.6,3.185v2.229h-1.734v2.829h1.734Z" transform="translate(-71.64 -65.433)" fill="#fff"/>
      </g>
    </g>
    <g id="Grupo_877611" data-name="Grupo 877611">
      <g id="Grupo_877610" data-name="Grupo 877610" clip-path="url(#clip-path)">
        <path id="Trazado_624584" data-name="Trazado 624584" d="M266.837,364.148l-110.023-.065a23.964,23.964,0,0,1-23.952-23.97l.053-275.829A23.967,23.967,0,0,1,156.9,40.321l110.023.065a23.967,23.967,0,0,1,23.952,23.971l-.054,275.83a23.966,23.966,0,0,1-23.98,23.962" transform="translate(-26.849 -8.148)" fill="#263238"/>
        <path id="Trazado_624585" data-name="Trazado 624585" d="M268.649,52.613,247.317,52.6a5.3,5.3,0,0,0-5.18,5.412l0,3.869a5.3,5.3,0,0,1-5.181,5.412l-41.58-.025a5.3,5.3,0,0,1-5.178-5.418V57.982a5.3,5.3,0,0,0-5.179-5.418l-7.5,0-18.671-.011A16.785,16.785,0,0,0,142.052,69.33L142,338.559a16.784,16.784,0,0,0,16.775,16.788l109.8.065a16.785,16.785,0,0,0,16.795-16.781L285.424,69.4a16.785,16.785,0,0,0-16.775-16.787" transform="translate(-28.695 -10.619)" fill="#fff"/>
        <path id="Trazado_624586" data-name="Trazado 624586" d="M299.6,80.017c0,.073-2.774.154-6.2.182s-6.2-.007-6.2-.08,2.773-.153,6.2-.182,6.2.008,6.2.08" transform="translate(-58.039 -16.152)" fill="#263238"/>
        <path id="Trazado_624587" data-name="Trazado 624587" d="M299.632,83.991c0,.072-2.774.154-6.2.182s-6.2-.007-6.2-.08,2.773-.153,6.2-.182,6.2.008,6.2.08" transform="translate(-58.045 -16.955)" fill="#263238"/>
        <path id="Trazado_624588" data-name="Trazado 624588" d="M299.665,87.965c0,.073-2.774.154-6.2.182s-6.2-.007-6.2-.08,2.773-.153,6.2-.182,6.2.008,6.2.08" transform="translate(-58.052 -17.758)" fill="#263238"/>
        <path id="Trazado_624589" data-name="Trazado 624589" d="M156.474,88.553a2.545,2.545,0,0,1,.325-.022l.9-.03,3.335-.079-.093.093c-.011-.739-.025-1.546-.039-2.418,0-.449-.038-.873.006-1.392a1.282,1.282,0,0,1,1.119-1.028c.538-.01,1.011-.035,1.593-.008a1.3,1.3,0,0,1,1.094,1.288c.013,1.127.026,2.305.04,3.527l-.155-.152,4.207-.042-.16.163c-.015-1.695-.031-3.447-.047-5.242q-.006-.673-.011-1.335a1.362,1.362,0,0,0-.591-.994l-1.839-1.813-1.775-1.751-.859-.849c-.3-.285-.527-.579-.871-.65a1.129,1.129,0,0,0-.965.184c-.255.215-.527.52-.783.77L159.4,78.3c-.95.986-1.939,1.887-2.657,2.739a2.981,2.981,0,0,0-.212,1.57q0,.783,0,1.483-.008,1.363-.014,2.387c-.007.61-.013,1.115-.018,1.527a5.315,5.315,0,0,1-.02.551,3.807,3.807,0,0,1-.029-.506c-.012-.407-.026-.9-.042-1.5q-.024-1.032-.054-2.407-.013-.713-.028-1.511c0-.269-.009-.544-.013-.827a1.734,1.734,0,0,1,.232-.881c.778-.954,1.707-1.8,2.663-2.813l1.5-1.534c.27-.265.491-.528.811-.8a1.431,1.431,0,0,1,1.22-.24,2.272,2.272,0,0,1,1.01.722l.863.846,1.779,1.745,1.843,1.809a3.46,3.46,0,0,1,.469.509,1.369,1.369,0,0,1,.221.709q.006.667.012,1.341c.014,1.8.027,3.548.04,5.242v.162h-.161l-4.207.027h-.154v-.153c-.006-1.222-.013-2.4-.018-3.527a1.015,1.015,0,0,0-.85-1.021c-.484-.026-1.055-.009-1.526,0a1.032,1.032,0,0,0-.906.818c-.041.423-.01.916-.018,1.345q0,1.307,0,2.418v.094h-.093l-3.39-.023-.883-.015a1.64,1.64,0,0,1-.29-.017" transform="translate(-31.587 -15.253)" fill="#263238"/>
        <path id="Trazado_624590" data-name="Trazado 624590" d="M240.046,355.467a6.157,6.157,0,0,1-1.153.081l-3.144.066c-2.655.037-6.321.061-10.371.061s-7.719-.023-10.374-.061l-3.144-.066a6.153,6.153,0,0,1-1.152-.081,6.149,6.149,0,0,1,1.152-.081l3.144-.066c2.655-.037,6.322-.061,10.374-.061s7.717.023,10.371.061l3.144.066a6.154,6.154,0,0,1,1.153.081" transform="translate(-42.58 -71.791)" fill="#455a64"/>
        <path id="Trazado_624591" data-name="Trazado 624591" d="M286.159,364.513c0,.115-16.892.207-37.724.207s-37.727-.093-37.727-.207,16.888-.207,37.727-.207,37.724.093,37.724.207" transform="translate(-42.58 -73.619)" fill="#455a64"/>
        <path id="Trazado_624592" data-name="Trazado 624592" d="M262.581,373.022c0,.115-11.613.207-25.935.207s-25.938-.093-25.938-.207,11.611-.207,25.938-.207,25.935.093,25.935.207" transform="translate(-42.58 -75.338)" fill="#455a64"/>
        <path id="Trazado_624593" data-name="Trazado 624593" d="M305.978,387.9l-2.343-2.351-2.233,2.225.01-6.73,4.576.007Zm-2.343-2.644.073.073,2.064,2.071.009-6.142-4.162-.006-.009,6.023Z" transform="translate(-60.907 -77.002)" fill="#263238"/>
        <path id="Trazado_624594" data-name="Trazado 624594" d="M227.839,387.368l-.827-.369a2.266,2.266,0,1,1,1.208-1.991,2.288,2.288,0,0,1-.572,1.532Zm-1.934-4.481a2.14,2.14,0,1,0,.034,4.281,2.222,2.222,0,0,0,1.031-.325l.034-.02.61.273-.138-.6.028-.03a2.138,2.138,0,0,0-1.6-3.579" transform="translate(-45.19 -77.342)" fill="#263238"/>
        <path id="Trazado_624595" data-name="Trazado 624595" d="M234.88,387.093l-.948-2.315-1.779-1.62,4.313-.035Zm-2.324-3.781,1.514,1.39.807,1.971,1.355-3.39Z" transform="translate(-46.913 -77.421)" fill="#263238"/>
        <path id="Trazado_624596" data-name="Trazado 624596" d="M234.589,384.785l-.086-.132,2.352-1.53.085.132Z" transform="translate(-47.388 -77.422)" fill="#263238"/>
        <path id="Trazado_624597" data-name="Trazado 624597" d="M219.062,383.5a1.334,1.334,0,0,0-2.631.088,1.333,1.333,0,0,0-2.631-.046,1.8,1.8,0,0,0,.327,1.3,5.361,5.361,0,0,0,.945.99c.48.424.924.823,1.4,1.248.474-.432.877-.838,1.35-1.27a5.3,5.3,0,0,0,.928-1.005,1.8,1.8,0,0,0,.307-1.3" transform="translate(-43.2 -77.281)" fill="#e8505b"/>
        <path id="Trazado_624598" data-name="Trazado 624598" d="M280.788,386.223s-.01-.259-.014-.751-.008-1.228-.014-2.183c-.007-1.925-.019-4.756-.034-8.424-.018-7.334-.043-18-.075-31.385l.137.136-127.6.071h-.008l.207-.207c0,14.854,0,29.265-.007,42.744l-.2-.2,91.308.093,26.655.057,7.153.026,1.854.013c.418,0,.638.013.638.013s-.2.009-.613.013l-1.83.013-7.11.026-26.609.057-91.446.093h-.2v-.2c0-13.479,0-27.89-.006-42.744v-.208h.216l127.6.071h.137v.137c-.031,13.418-.057,24.115-.074,31.468-.015,3.655-.026,6.476-.034,8.393q-.01,1.417-.015,2.159c0,.484-.014.724-.014.724" transform="translate(-30.913 -69.368)" fill="#263238"/>
        <rect id="Rectángulo_327631" data-name="Rectángulo 327631" width="28.26" height="35.348" transform="translate(127.413 309.512) rotate(-89.675)" fill="#ebebeb"/>
        <path id="Trazado_624599" data-name="Trazado 624599" d="M195.136,352.636a1.22,1.22,0,0,1-.177.01l-.5.008-1.929.011-7.248.008-25.493-.052.187-.184c-.041,8.413-.089,18.054-.139,28.256.043.05-.387-.393-.2-.206h.3l.306,0,.612,0,1.218.007,2.419.014,4.762.029,9.171.059,16.554.12-.174.172c.085-8.486.156-15.525.206-20.467.034-2.458.059-4.393.077-5.738.012-.649.022-1.155.028-1.519.009-.346.022-.534.022-.534s.012.163.016.5c0,.357.006.852.011,1.487,0,1.336.007,3.258.013,5.7-.007,4.969-.017,12.045-.028,20.577v.172h-.174L178.419,381l-9.17-.045-4.763-.026-2.419-.013-1.218-.007-.612,0-.306,0h-.3c.182.186-.259-.253-.213-.212.066-10.2.128-19.843.183-28.256v-.187l.186,0,25.612.239,7.205.09,1.893.034.48.013a.769.769,0,0,1,.156.012" transform="translate(-32.215 -71.182)" fill="#263238"/>
        <rect id="Rectángulo_327632" data-name="Rectángulo 327632" width="24.702" height="32.864" transform="translate(128.642 307.74) rotate(-89.674)" fill="#e0e0e0"/>
        <path id="Trazado_624600" data-name="Trazado 624600" d="M161.221,381.806l11.566-15.289,7.055,9.647,4.852-5.108,9.391,10.937Z" transform="translate(-32.58 -74.066)" fill="#f5f5f5"/>
        <path id="Trazado_624601" data-name="Trazado 624601" d="M187.112,363.573a2.588,2.588,0,1,1-2.573-2.6,2.588,2.588,0,0,1,2.573,2.6" transform="translate(-36.766 -72.945)" fill="#f5f5f5"/>
        <path id="Trazado_624602" data-name="Trazado 624602" d="M225.175,122.933a1.329,1.329,0,0,1-.377.041l-1.082.039-3.982.066c-3.362.038-8,.061-13.134.061s-9.775-.023-13.136-.061l-3.981-.066-1.082-.039a1.329,1.329,0,0,1-.377-.041,1.292,1.292,0,0,1,.377-.041l1.082-.039,3.981-.066c3.362-.037,8.006-.061,13.136-.061s9.772.023,13.134.061l3.982.066,1.082.039a1.292,1.292,0,0,1,.377.041" transform="translate(-37.996 -24.8)" fill="#263238"/>
        <path id="Trazado_624603" data-name="Trazado 624603" d="M298.307,316.186l-3.484-3.494L291.506,316l.015-10,6.8.01Zm-3.483-3.929.109.108L298,315.443l.014-9.127-6.185-.01-.014,8.952Z" transform="translate(-58.908 -61.836)" fill="#263238"/>
        <path id="Trazado_624604" data-name="Trazado 624604" d="M187.07,315.136l-1.629-.726a4.46,4.46,0,1,1,2.378-3.918,4.508,4.508,0,0,1-1.126,3.016Zm-3.807-8.82a4.213,4.213,0,1,0,.068,8.425,4.35,4.35,0,0,0,2.028-.639l.068-.038,1.2.536-.272-1.18.055-.059a4.208,4.208,0,0,0-3.147-7.045" transform="translate(-36.127 -61.838)" fill="#263238"/>
        <path id="Trazado_624605" data-name="Trazado 624605" d="M200.932,314.593l-1.866-4.555-3.5-3.189,8.488-.069Zm-4.574-7.441,2.981,2.736,1.589,3.879,2.667-6.674Z" transform="translate(-39.52 -61.994)" fill="#263238"/>
        <rect id="Rectángulo_327633" data-name="Rectángulo 327633" width="5.522" height="0.31" transform="matrix(0.838, -0.545, 0.545, 0.838, 159.736, 247.797)" fill="#263238"/>
        <path id="Trazado_624606" data-name="Trazado 624606" d="M169.8,307.525a2.626,2.626,0,0,0-5.178.173,2.625,2.625,0,0,0-5.179-.09,3.54,3.54,0,0,0,.645,2.555,10.516,10.516,0,0,0,1.859,1.95c.946.835,1.819,1.621,2.765,2.457.932-.851,1.725-1.649,2.657-2.5a10.529,10.529,0,0,0,1.827-1.98,3.545,3.545,0,0,0,.6-2.565" transform="translate(-32.21 -61.718)" fill="#eb6f2d"/>
        <path id="Trazado_624607" data-name="Trazado 624607" d="M175.759,121.528A5.758,5.758,0,1,1,170,115.77a5.758,5.758,0,0,1,5.758,5.758" transform="translate(-33.19 -23.395)" fill="#ebebeb"/>
        <path id="Trazado_624608" data-name="Trazado 624608" d="M269.99,277.315c0,.115-24.145.207-53.923.207s-53.927-.093-53.927-.207,24.139-.207,53.927-.207,53.923.093,53.923.207" transform="translate(-32.765 -55.998)" fill="#455a64"/>
        <path id="Trazado_624609" data-name="Trazado 624609" d="M269.99,266.06c0,.115-24.145.207-53.923.207s-53.927-.093-53.927-.207,24.139-.207,53.927-.207,53.923.093,53.923.207" transform="translate(-32.765 -53.724)" fill="#455a64"/>
        <path id="Trazado_624610" data-name="Trazado 624610" d="M220.844,288.721c0,.115-13.143.207-29.351.207s-29.353-.093-29.353-.207,13.139-.207,29.353-.207,29.351.093,29.351.207" transform="translate(-32.765 -58.303)" fill="#455a64"/>
        <path id="Trazado_624611" data-name="Trazado 624611" d="M225.471,410.812a2.291,2.291,0,1,1-2.281-2.336,2.307,2.307,0,0,1,2.281,2.336" transform="translate(-44.637 -82.545)" fill="#263238"/>
        <path id="Trazado_624612" data-name="Trazado 624612" d="M234.369,410.853a2.291,2.291,0,1,1-2.281-2.336,2.308,2.308,0,0,1,2.281,2.336" transform="translate(-46.435 -82.553)" fill="#263238"/>
        <path id="Trazado_624613" data-name="Trazado 624613" d="M243.267,410.893a2.291,2.291,0,1,1-2.281-2.335,2.307,2.307,0,0,1,2.281,2.335" transform="translate(-48.233 -82.561)" fill="#263238"/>
        <rect id="Rectángulo_327634" data-name="Rectángulo 327634" width="127.609" height="78.04" transform="translate(123.031 109.528)" fill="#e0e0e0"/>
        <path id="Trazado_624614" data-name="Trazado 624614" d="M168.954,222.694l36.567-48.943,22.669,30.607,15.365-16.37,30.134,34.675Z" transform="translate(-34.142 -35.112)" fill="#f5f5f5"/>
        <path id="Trazado_624615" data-name="Trazado 624615" d="M251.057,164.139a8.247,8.247,0,1,1-8.249-8.244,8.246,8.246,0,0,1,8.249,8.244" transform="translate(-47.401 -31.503)" fill="#f5f5f5"/>
        <path id="Trazado_624616" data-name="Trazado 624616" d="M281.316,281.206c0-1.669-.077-72.168-.188-176.532l.188.188-127.594.019h-.014l.207-.207c-.014,66.019-.028,127.117-.039,176.532l-.168-.169,127.608.169-127.608.169h-.169v-.169c-.011-49.414-.025-110.513-.039-176.532v-.207h.223l127.594.019h.188v.188c-.038,52.233-.07,96.386-.093,127.485-.022,15.528-.038,27.8-.05,36.188-.01,4.184-.018,7.4-.022,9.577,0,1.08-.009,1.9-.011,2.457s-.011.824-.011.824" transform="translate(-31.019 -21.111)" fill="#263238"/>
      </g>
    </g>
    <g id="Grupo_877628" data-name="Grupo 877628">
      <g id="Grupo_877627" data-name="Grupo 877627" clip-path="url(#clip-path)">
        <path id="Trazado_624617" data-name="Trazado 624617" d="M225.447,342.44l2.823-9.486c.492-2.056,1.147-4.483,2.027-7.251a19.559,19.559,0,0,1,4.673-6.987c2.881-2.931,4.252-2.951,6.189-4.506.176-.113.373-.275.54-.365a3.055,3.055,0,0,0,.942-.815c1.668-1.8.066-4.6-3.324-4.333-2.552.2-6.714.93-13.482,7.912-.084.105-.173.195-.256.3-3.552,4.617-6.887-8.563-7.489-13.469a5.14,5.14,0,0,0-6.948-3.988l-16.486,7.711a7.692,7.692,0,0,0-4.813.163,4.9,4.9,0,0,0-3.141,5.815l6.687,26.692-19.638,65.344h42.328Z" transform="translate(-35.111 -60.447)" fill="#ffbe9d"/>
        <path id="Trazado_624618" data-name="Trazado 624618" d="M260.479,275.862,247.395,301.5l-6.542-1.818-32.887,26.751a6.662,6.662,0,0,1-9.253-.823l-12.521-14.55s25.247-10.876,29.916-19.879-.726-11.045-.726-11.045l11.883-13.5Z" transform="translate(-37.625 -53.882)" fill="#ffb338"/>
        <path id="Trazado_624619" data-name="Trazado 624619" d="M219.523,189.644s-19.153-4.236-46.105-30.155S133.8,99.152,130.5,99.32,112.8,92.8,85.4,152.4s-16.606,73.437-11.153,73.326,42.47-10.428,65.592-7.8S192.681,232.6,192.681,232.6Z" transform="translate(-13.641 -20.04)" fill="#ffb338"/>
        <path id="Trazado_624620" data-name="Trazado 624620" d="M290.871,242.2l-6.534,12.424-2.928,5.565a16.214,16.214,0,0,1-21.135,7.18l-41.052-14.3,23.908-54.581,41.015,21.857a16.217,16.217,0,0,1,6.726,21.858" transform="translate(-44.3 -40.109)" fill="#e8505b"/>
        <g id="Grupo_877614" data-name="Grupo 877614" transform="translate(174.922 158.372)" opacity="0.4">
          <g id="Grupo_877613" data-name="Grupo 877613">
            <g id="Grupo_877612" data-name="Grupo 877612" clip-path="url(#clip-path-7)">
              <path id="Trazado_624621" data-name="Trazado 624621" d="M290.871,242.2l-6.534,12.424-2.928,5.565a16.214,16.214,0,0,1-21.135,7.18l-41.052-14.3,23.908-54.581,41.015,21.857a16.217,16.217,0,0,1,6.726,21.858" transform="translate(-219.222 -198.481)" fill="#e44e00"/>
            </g>
          </g>
        </g>
        <path id="Trazado_624622" data-name="Trazado 624622" d="M88.522,153.828c-14.581,32.285-20.651,61.054-13.557,64.257s24.664-20.372,39.245-52.656,20.65-61.053,13.557-64.256-24.665,20.37-39.246,52.655" transform="translate(-14.55 -20.386)" fill="#e8505b"/>
        <g id="Grupo_877617" data-name="Grupo 877617" transform="translate(57.45 80.496)" opacity="0.5">
          <g id="Grupo_877616" data-name="Grupo 877616">
            <g id="Grupo_877615" data-name="Grupo 877615" clip-path="url(#clip-path-8)">
              <path id="Trazado_624623" data-name="Trazado 624623" d="M88.522,153.828c-14.581,32.285-20.651,61.054-13.557,64.257s24.664-20.372,39.245-52.656,20.65-61.053,13.557-64.256-24.665,20.37-39.246,52.655" transform="translate(-72 -100.882)" fill="#e44e00"/>
            </g>
          </g>
        </g>
        <path id="Trazado_624624" data-name="Trazado 624624" d="M310.614,271.565l-11.127-3.495,6.885-13.092,8.345,5.188Z" transform="translate(-60.52 -51.526)" fill="#ffb338"/>
        <g id="Grupo_877620" data-name="Grupo 877620" transform="translate(238.967 203.452)" opacity="0.6">
          <g id="Grupo_877619" data-name="Grupo 877619">
            <g id="Grupo_877618" data-name="Grupo 877618" clip-path="url(#clip-path-9)">
              <path id="Trazado_624625" data-name="Trazado 624625" d="M306.373,254.978l-6.885,13.092,2.286.719,5.6-13.19Z" transform="translate(-299.487 -254.978)"/>
            </g>
          </g>
        </g>
        <path id="Trazado_624626" data-name="Trazado 624626" d="M292.375,255.981c-.164.36-5.716-1.8-12.4-4.821s-11.978-5.764-11.816-6.124,5.714,1.8,12.4,4.822,11.976,5.764,11.814,6.123" transform="translate(-54.188 -49.509)" fill="#e8505b"/>
        <path id="Trazado_624627" data-name="Trazado 624627" d="M297.27,246.26c-.176.355-5.2-1.763-11.224-4.729s-10.768-5.66-10.593-6.015,5.2,1.764,11.224,4.732,10.767,5.659,10.593,6.012" transform="translate(-55.663 -47.585)" fill="#e8505b"/>
        <path id="Trazado_624628" data-name="Trazado 624628" d="M287.507,266.517c-.059.19-1.38-.115-3.489-.767-1.053-.325-2.3-.737-3.682-1.215-1.372-.5-2.8-1.217-4.322-1.909-6.088-2.825-10.735-5.593-10.584-5.92.18-.388,5.148,1.823,11.179,4.622,1.513.685,2.916,1.44,4.239,1.992,1.329.537,2.519,1.038,3.514,1.479,1.99.884,3.2,1.529,3.145,1.717" transform="translate(-53.637 -51.866)" fill="#e8505b"/>
        <path id="Trazado_624629" data-name="Trazado 624629" d="M122.773,157.641s-16.647-10.323-25.755,12.168S105.426,196,105.426,196a149.848,149.848,0,0,0,17.348-38.358" transform="translate(-19.075 -31.378)" fill="#ffb338"/>
        <g id="Grupo_877623" data-name="Grupo 877623" transform="translate(73.707 99.458)" opacity="0.5">
          <g id="Grupo_877622" data-name="Grupo 877622">
            <g id="Grupo_877621" data-name="Grupo 877621" clip-path="url(#clip-path-10)">
              <path id="Trazado_624630" data-name="Trazado 624630" d="M140.07,124.647a25.171,25.171,0,0,1-.652,4.3c-.527,2.748-1.271,6.738-2.339,11.636-.7,2.412-1.474,5.047-2.3,7.871q-.626,2.123-1.293,4.384l-.68,2.292c-.248.768-.573,1.522-.863,2.3-1.2,3.1-2.456,6.341-3.76,9.7q-.492,1.262-.992,2.545c-.323.859-.781,1.668-1.17,2.514l-2.474,5.1q-1.257,2.583-2.482,5.1c-.424.829-.779,1.689-1.253,2.475l-1.388,2.354-5.3,8.957c-.432.708-.823,1.428-1.274,2.1q-.7.991-1.384,1.955l-2.65,3.733-4.772,6.679c-3.184,3.856-5.853,6.9-7.686,9.011a25.287,25.287,0,0,1-2.978,3.173,25.47,25.47,0,0,1,2.549-3.526l7.333-9.3,4.594-6.731q1.242-1.812,2.568-3.74.663-.961,1.344-1.953c.438-.67.819-1.393,1.241-2.1,1.657-2.851,3.4-5.841,5.2-8.939q.679-1.162,1.368-2.343c.468-.783.816-1.637,1.236-2.463l2.457-5.067q1.247-2.564,2.464-5.063c.389-.839.847-1.641,1.171-2.493l1-2.521,3.812-9.609c.3-.768.627-1.514.884-2.273q.357-1.149.7-2.268.7-2.233,1.353-4.335c.88-2.791,1.7-5.4,2.453-7.78,1.157-4.8,2.1-8.7,2.77-11.488a25.742,25.742,0,0,1,1.2-4.188" transform="translate(-92.374 -124.647)"/>
            </g>
          </g>
        </g>
        <g id="Grupo_877626" data-name="Grupo 877626" transform="translate(152.554 232.591)" opacity="0.4">
          <g id="Grupo_877625" data-name="Grupo 877625">
            <g id="Grupo_877624" data-name="Grupo 877624" clip-path="url(#clip-path-11)">
              <path id="Trazado_624631" data-name="Trazado 624631" d="M191.19,314.3a32.414,32.414,0,0,0,5.316,7.76c2.247,2.2,5.333,3.764,8.464,3.449s6.1-2.916,6.132-6.063c1.5,1.13,3.807.518,5.052-.891a8.837,8.837,0,0,0,1.8-5.24c2.041,1.2,4.88.249,6.242-1.69a8.074,8.074,0,0,0,.787-6.828,23.908,23.908,0,0,0-3.277-6.276,8.672,8.672,0,0,0,4.642-.476c1.407-.713,2.355-2.572,1.535-3.919a3.9,3.9,0,0,0-2.288-1.46c-2.463-.771-4.191-1.388-6.755-1.09-.6.006,1.026,6.762-15.068,16-9.5,5.456-12.58,6.721-12.58,6.721" transform="translate(-191.19 -291.497)"/>
            </g>
          </g>
        </g>
        <path id="Trazado_624632" data-name="Trazado 624632" d="M232.469,332.214c-.01.074-1.082-.131-2.818-.085a15.933,15.933,0,0,0-11.828,5.671c-1.124,1.325-1.635,2.288-1.7,2.251a2.492,2.492,0,0,1,.315-.7,12.94,12.94,0,0,1,1.157-1.738,15.082,15.082,0,0,1,12.053-5.779,12.818,12.818,0,0,1,2.079.187,2.474,2.474,0,0,1,.742.191" transform="translate(-43.674 -67.057)" fill="#eb996e"/>
        <path id="Trazado_624633" data-name="Trazado 624633" d="M192.505,311.116c2.592,2.49,4.365,5.239,7.085,7.747,1.236,1.14,3.155,3.3,4.811,3.586s2.718.067,3.373-1.48c.531-1.254-.422-2.967-1.081-4-1.731-2.718-3.389-4.843-4.686-6.955-.607-.989.18-1.194.466-.736,1.248,1.293,3.109,2.414,4.227,3.822,1.531,1.929,1.809,4.483,5.813,3.674a3.583,3.583,0,0,0,1.487-.618,4,4,0,0,0,.937-4.767,13.074,13.074,0,0,0-2.229-3.373c1.7,1.925,3.565,3.952,6.275,4.17a3.733,3.733,0,0,0,3.795-2.053c.8-1.821-.348-3.581-1.5-5a52.183,52.183,0,0,0-6.805-6.953,5.185,5.185,0,0,0-3.308-1.226c-1.4-.009-3.156.255-4.022,1.474a5.442,5.442,0,0,0-1.088,4.171s-3.515-1.782-6.34.082a8.956,8.956,0,0,0-3.524,5.068Z" transform="translate(-38.901 -60.008)" fill="#ffbe9d"/>
        <path id="Trazado_624634" data-name="Trazado 624634" d="M215.7,294.059a4.209,4.209,0,0,1-.5-4.755c.6-1.172,1.352-2.311,2.117-2.568,3.345-1.128,17.956,1.4,17.822,4.642-.137,3.33-1.2,4.8-9.13,3.65-1.395-.2-3.583-.476-3.583-.476l-1.914,2.873Z" transform="translate(-43.386 -57.888)" fill="#ffbe9d"/>
        <path id="Trazado_624635" data-name="Trazado 624635" d="M217.19,311.149a19.19,19.19,0,0,0-8.052-7.3,4.677,4.677,0,0,1,1.547.545,13.876,13.876,0,0,1,5.811,5.268,4.691,4.691,0,0,1,.693,1.487" transform="translate(-42.262 -61.4)" fill="#eb996e"/>
        <path id="Trazado_624636" data-name="Trazado 624636" d="M221.09,299.791c-.073.068-1.037-.719-2.353-1.524a16.458,16.458,0,0,0-1.715-.946c-.451-.212-.751-.27-.749-.333s.343-.1.851.057a7.855,7.855,0,0,1,1.832.867,5.647,5.647,0,0,1,2.134,1.878" transform="translate(-43.704 -60.006)" fill="#eb996e"/>
        <path id="Trazado_624637" data-name="Trazado 624637" d="M224.08,296.247a6.307,6.307,0,0,1-2.814-.318,5.145,5.145,0,0,1-1.8-.943c-.4-.341-.568-.626-.528-.661a11.758,11.758,0,0,0,2.452,1.207,20.832,20.832,0,0,1,2.691.714" transform="translate(-44.242 -59.477)" fill="#eb996e"/>
        <path id="Trazado_624638" data-name="Trazado 624638" d="M204.648,316.189a10.2,10.2,0,0,1-1.333-1.732,15.706,15.706,0,0,0-3.41-3.876,6.875,6.875,0,0,0-4.831-1.28,8.8,8.8,0,0,0-2.036.647c-.014-.018.14-.167.466-.369a4.555,4.555,0,0,1,1.522-.568,6.789,6.789,0,0,1,5.121,1.232,13.873,13.873,0,0,1,3.413,4.051,12.925,12.925,0,0,1,1.088,1.894" transform="translate(-39.009 -62.425)" fill="#eb996e"/>
        <path id="Trazado_624639" data-name="Trazado 624639" d="M218.56,358.524a43.881,43.881,0,0,1-5.972.859,43.965,43.965,0,0,1-6.017.445,43.858,43.858,0,0,1,5.972-.859,43.927,43.927,0,0,1,6.016-.445" transform="translate(-41.744 -72.444)" fill="#eb996e"/>
      </g>
    </g>
    <path id="Trazado_624640" data-name="Trazado 624640" d="M378.483,25.957l.9,1.647,1.647.9-1.647.9-.9,1.647-.9-1.647-1.647-.9,1.647-.9Z" transform="translate(-75.969 -5.245)" fill="#e8505b"/>
    <path id="Trazado_624641" data-name="Trazado 624641" d="M402.088,77.127l.9,1.647,1.647.9-1.647.9-.9,1.647-.9-1.647-1.647-.9,1.647-.9Z" transform="translate(-80.739 -15.586)" fill="#e8505b"/>
    <path id="Trazado_624642" data-name="Trazado 624642" d="M23.755,213.647l.9,1.647,1.647.9-1.647.9-.9,1.647-.9-1.647-1.647-.9,1.647-.9Z" transform="translate(-4.286 -43.174)" fill="#e8505b"/>
    <path id="Trazado_624643" data-name="Trazado 624643" d="M346.669,38.675l2.08,3.8,3.8,2.08-3.8,2.08-2.08,3.8-2.08-3.8-3.8-2.08,3.8-2.08Z" transform="translate(-68.866 -7.816)" fill="#e8505b"/>
    <path id="Trazado_624644" data-name="Trazado 624644" d="M44.071,181.211l2.075,3.795,3.795,2.075-3.795,2.075-2.075,3.795L42,189.156,38.2,187.081,42,185.005Z" transform="translate(-7.72 -36.619)" fill="#e8505b"/>
    <path id="Trazado_624645" data-name="Trazado 624645" d="M407.668,294.679l2.075,3.795,3.795,2.075-3.795,2.075-2.075,3.795-2.075-3.795-3.795-2.075,3.795-2.075Z" transform="translate(-81.195 -59.549)" fill="#e8505b"/>
  </g>
</svg>
