<svg id="Grupo_877359" data-name="Grupo 877359" xmlns="http://www.w3.org/2000/svg" xmlns:xlink="http://www.w3.org/1999/xlink" width="317.308" height="360.74" viewBox="0 0 317.308 360.74">
  <defs>
    <clipPath id="clip-path">
      <rect id="Rectángulo_327467" data-name="Rectángulo 327467" width="317.308" height="360.74" fill="none"/>
    </clipPath>
    <clipPath id="clip-path-6">
      <rect id="Rectángulo_327454" data-name="Rectángulo 327454" width="28.994" height="28.994" fill="#12263f"/>
    </clipPath>
    <clipPath id="clip-path-7">
      <rect id="Rectángulo_327455" data-name="Rectángulo 327455" width="11.085" height="10.156" fill="none"/>
    </clipPath>
    <clipPath id="clip-path-9">
      <rect id="Rectángulo_327457" data-name="Rectángulo 327457" width="3.005" height="2.971" fill="none"/>
    </clipPath>
    <clipPath id="clip-path-10">
      <rect id="Rectángulo_327458" data-name="Rectángulo 327458" width="38.025" height="8.88" fill="none"/>
    </clipPath>
    <clipPath id="clip-path-11">
      <rect id="Rectángulo_327459" data-name="Rectángulo 327459" width="19.222" height="6.696" fill="none"/>
    </clipPath>
    <clipPath id="clip-path-12">
      <rect id="Rectángulo_327460" data-name="Rectángulo 327460" width="2.996" height="2.975" fill="none"/>
    </clipPath>
    <clipPath id="clip-path-13">
      <rect id="Rectángulo_327461" data-name="Rectángulo 327461" width="38.402" height="5.33" fill="none"/>
    </clipPath>
    <clipPath id="clip-path-14">
      <rect id="Rectángulo_327462" data-name="Rectángulo 327462" width="19.152" height="4.988" fill="none"/>
    </clipPath>
    <clipPath id="clip-path-15">
      <rect id="Rectángulo_327463" data-name="Rectángulo 327463" width="35.001" height="33.93" fill="none"/>
    </clipPath>
    <clipPath id="clip-path-16">
      <rect id="Rectángulo_327464" data-name="Rectángulo 327464" width="157.736" height="149.856" fill="none"/>
    </clipPath>
    <clipPath id="clip-path-17">
      <rect id="Rectángulo_327465" data-name="Rectángulo 327465" width="151.051" height="143.085" fill="none"/>
    </clipPath>
  </defs>
  <g id="Grupo_877402" data-name="Grupo 877402" clip-path="url(#clip-path)">
    <path id="Trazado_623114" data-name="Trazado 623114" d="M81.083,181.49l39.777-1.826-7.228,38.849Z" transform="translate(-17.225 -38.168)" fill="#ebebeb"/>
    <rect id="Rectángulo_327447" data-name="Rectángulo 327447" width="90.795" height="22.452" transform="matrix(0.751, -0.66, 0.66, 0.751, 8.414, 210.263)" fill="#ebebeb"/>
    <path id="Trazado_623115" data-name="Trazado 623115" d="M287.106,105.26l39.777-1.826-7.228,38.849Z" transform="translate(-60.993 -21.973)" fill="#ebebeb"/>
    <rect id="Rectángulo_327448" data-name="Rectángulo 327448" width="90.795" height="22.452" transform="translate(170.669 150.228) rotate(-41.321)" fill="#ebebeb"/>
    <path id="Trazado_623116" data-name="Trazado 623116" d="M93.721,116.9l25.522-1.172-4.638,24.926Z" transform="translate(-19.91 -24.585)" fill="#f5f5f5"/>
    <rect id="Rectángulo_327449" data-name="Rectángulo 327449" width="58.255" height="14.405" transform="matrix(0.751, -0.66, 0.66, 0.751, 38.238, 135.263)" fill="#f5f5f5"/>
    <path id="Trazado_623117" data-name="Trazado 623117" d="M370.494,118.62l20.884,23.754,4.637-24.927Z" transform="translate(-78.708 -24.95)" fill="#f5f5f5"/>
    <rect id="Rectángulo_327450" data-name="Rectángulo 327450" width="58.255" height="14.406" transform="translate(256.213 136.619) rotate(-41.321)" fill="#f5f5f5"/>
    <g id="Grupo_877360" data-name="Grupo 877360">
      <g id="Grupo_877359-2" data-name="Grupo 877359" clip-path="url(#clip-path)">
        <path id="Trazado_623118" data-name="Trazado 623118" d="M286.338,392.842H249.731a1.914,1.914,0,0,1-1.914-1.914v-9.533a1.914,1.914,0,0,1,1.914-1.914h36.607a1.914,1.914,0,0,1,1.914,1.914v9.533a1.914,1.914,0,0,1-1.914,1.914" transform="translate(-52.646 -80.617)" fill="#ebebeb"/>
        <path id="Trazado_623119" data-name="Trazado 623119" d="M298.625,375.9a2.288,2.288,0,0,0,.984-.323,1.869,1.869,0,0,0,.758-.964,6,6,0,0,0,.092-1.72c-.009-1.329-.021-2.941-.035-4.809q-.008-1.407-.016-3a2.682,2.682,0,0,0-.25-1.522,1.768,1.768,0,0,0-1.285-.857l-36.853.041a1.716,1.716,0,0,0-1.685,1.421c-.053.818-.015,1.752-.027,2.613q0,2.63,0,5.179,0,.637,0,1.267a5.538,5.538,0,0,0,.057,1.2,1.721,1.721,0,0,0,1.624,1.278l4.788.009,16.578.044,11.176.065,3.038.038.79.02a.136.136,0,1,1,0,.043l-.79.02-3.038.039-11.176.065-16.578.044-4.8,0a2.115,2.115,0,0,1-2-1.569,5.658,5.658,0,0,1-.073-1.3q0-.631,0-1.267,0-2.547,0-5.179c.013-.892-.033-1.727.031-2.682a2.128,2.128,0,0,1,2.089-1.763c14.408.01,27.417,0,36.893.083a2.047,2.047,0,0,1,1.483,1,2.005,2.005,0,0,1,.268.841c.017.3,0,.55.005.821q-.008,1.594-.016,3c-.013,1.868-.025,3.48-.035,4.809a5.885,5.885,0,0,1-.138,1.761,1.936,1.936,0,0,1-.829.993,1.8,1.8,0,0,1-.756.253,1.122,1.122,0,0,1-.271,0" transform="translate(-55.212 -76.973)" fill="#e0e0e0"/>
        <path id="Trazado_623120" data-name="Trazado 623120" d="M76.181,339.483a2.289,2.289,0,0,0,.984-.323,1.869,1.869,0,0,0,.758-.964,6,6,0,0,0,.092-1.72c-.009-1.329-.021-2.941-.035-4.809q-.008-1.407-.016-3a2.682,2.682,0,0,0-.25-1.522,1.768,1.768,0,0,0-1.285-.857l-36.853.041a1.716,1.716,0,0,0-1.685,1.421c-.053.817-.015,1.752-.027,2.613q0,2.63,0,5.179,0,.637,0,1.267a5.538,5.538,0,0,0,.057,1.2,1.721,1.721,0,0,0,1.624,1.278l4.788.009,16.578.044,11.176.065,3.038.038.79.02a.136.136,0,1,1,0,.043l-.79.02-3.038.038-11.176.065-16.578.044-4.8,0a2.114,2.114,0,0,1-2-1.569,5.659,5.659,0,0,1-.073-1.3q0-.631,0-1.267,0-2.547,0-5.179c.013-.892-.033-1.727.031-2.682a2.128,2.128,0,0,1,2.089-1.763c14.408.01,27.417,0,36.893.083a2.047,2.047,0,0,1,1.483,1,2.005,2.005,0,0,1,.268.841c.017.3,0,.55.006.821q-.008,1.594-.016,3c-.013,1.868-.025,3.48-.035,4.809a5.91,5.91,0,0,1-.138,1.761,1.935,1.935,0,0,1-.829.993,1.8,1.8,0,0,1-.756.253,1.122,1.122,0,0,1-.271,0" transform="translate(-7.956 -69.238)" fill="#e0e0e0"/>
        <path id="Trazado_623121" data-name="Trazado 623121" d="M192.007,437.893H155.4a1.914,1.914,0,0,1-1.914-1.914v-9.533a1.914,1.914,0,0,1,1.914-1.914h36.607a1.914,1.914,0,0,1,1.914,1.914v9.533a1.914,1.914,0,0,1-1.914,1.914" transform="translate(-32.606 -90.187)" fill="#ebebeb"/>
      </g>
    </g>
    <g id="Grupo_877362" data-name="Grupo 877362">
      <g id="Grupo_877361" data-name="Grupo 877361" clip-path="url(#clip-path)">
        <path id="Trazado_623122" data-name="Trazado 623122" d="M0,414.014A.947.947,0,0,1,.21,414l.625-.018,2.46-.035,9.52-.068,35.521-.118-.256.257c-.019-9.9-.039-21.139-.063-33.479v-.318h.32l55.488-.061-.38.38c-.006-9.893-.013-20.293-.019-31v-.4h.4l51.687-.011h10.407l-.41.41c0-12.152.005-24.036.009-35.557v-.4h.4l62.535.045-.356.356c.035-22.273.065-41.91.09-58.131v-.267h.265l39.278.122,10.483.07,2.7.036.687.019a.116.116,0,1,1,0,.038l-.687.019-2.7.037-10.483.07-39.278.121.266-.266c.025,16.221.056,35.858.091,58.131v.357h-.358l-62.535.045.4-.4c0,11.52.005,23.4.009,35.557v.409H155.512l-51.687-.011.4-.4c-.007,10.707-.013,21.107-.019,31v.38h-.38l-55.488-.061.319-.319c-.023,12.34-.044,23.576-.062,33.479v.258l-.256,0-35.521-.117-9.52-.068-2.46-.035-.625-.018a.942.942,0,0,1-.21-.018" transform="translate(0 -54.295)" fill="#263238"/>
      </g>
    </g>
    <g id="Grupo_877364" data-name="Grupo 877364">
      <g id="Grupo_877363" data-name="Grupo 877363" clip-path="url(#clip-path)">
        <path id="Trazado_623123" data-name="Trazado 623123" d="M18.347,406.816a7.546,7.546,0,0,1,3.912,4.431,13.331,13.331,0,0,1,.519,6c-.441,3.894-2.654,7.827-5.037,10.938-3.28-2.862-4.035-7.855-4.258-10.412-.354-4.042,1.462-11.561,4.865-10.959" transform="translate(-2.855 -86.416)" fill="#617a0b"/>
        <path id="Trazado_623124" data-name="Trazado 623124" d="M23.7,439.934a6.438,6.438,0,0,1,2.081-6.122,8.551,8.551,0,0,1,6.308-1.97,3.6,3.6,0,0,1,2.768,1.244,2.754,2.754,0,0,1,.043,2.791,5.588,5.588,0,0,1-2.067,2.035c-2.842,1.783-5.919,2.987-9.133,2.022" transform="translate(-5.004 -91.734)" fill="#617a0b"/>
        <path id="Trazado_623125" data-name="Trazado 623125" d="M18.4,452.914a4.558,4.558,0,0,1,.117-.8c.1-.563.237-1.289.4-2.163a22.584,22.584,0,0,1,2.233-6.91,13.834,13.834,0,0,1,4.958-5.27,9.433,9.433,0,0,1,2.022-.894,5.736,5.736,0,0,1,.583-.148.592.592,0,0,1,.208-.029,14.722,14.722,0,0,0-2.708,1.244,14.277,14.277,0,0,0-4.814,5.236,24.322,24.322,0,0,0-2.284,6.812c-.2.906-.36,1.641-.485,2.145a4.322,4.322,0,0,1-.225.777" transform="translate(-3.908 -92.772)" fill="#263238"/>
        <path id="Trazado_623126" data-name="Trazado 623126" d="M18.514,414.25a1.643,1.643,0,0,1,.04.35c.015.259.035.591.059,1,.047.873.1,2.135.148,3.7.1,3.121.18,7.435.161,12.2s-.138,9.08-.266,12.2c-.064,1.56-.126,2.822-.18,3.694-.028.411-.051.744-.069,1a1.6,1.6,0,0,1-.043.349,1.686,1.686,0,0,1-.014-.351c0-.26.009-.593.015-1.006.022-.908.053-2.162.09-3.7.077-3.12.161-7.431.184-12.195s-.028-9.072-.077-12.193c-.024-1.534-.044-2.788-.058-3.7,0-.413,0-.746-.006-1.006a1.64,1.64,0,0,1,.017-.351" transform="translate(-3.898 -88.003)" fill="#263238"/>
        <path id="Trazado_623127" data-name="Trazado 623127" d="M13.223,442.012A15.064,15.064,0,0,0,5,430.977c-1.1-.525-2.527-.868-3.428-.053s-.7,2.282-.259,3.416a12.87,12.87,0,0,0,11.835,7.991" transform="translate(-0.199 -91.442)" fill="#617a0b"/>
        <path id="Trazado_623128" data-name="Trazado 623128" d="M6.767,435.814a3.873,3.873,0,0,1,.7.3,7.234,7.234,0,0,1,.786.42,11.769,11.769,0,0,1,1,.628,13.2,13.2,0,0,1,1.146.862,14.959,14.959,0,0,1,1.219,1.108,16.73,16.73,0,0,1,2.316,2.976,16.4,16.4,0,0,1,1.526,3.45,14.571,14.571,0,0,1,.385,1.6,12.21,12.21,0,0,1,.2,1.421,11.389,11.389,0,0,1,.054,1.181,6.691,6.691,0,0,1-.027.891,3.818,3.818,0,0,1-.084.754c-.064,0,.048-1.084-.143-2.806a12.935,12.935,0,0,0-.228-1.4,14.957,14.957,0,0,0-.4-1.57,17.07,17.07,0,0,0-1.519-3.382,17.454,17.454,0,0,0-2.26-2.939,15.672,15.672,0,0,0-1.184-1.11c-.376-.343-.763-.617-1.109-.878-1.41-1.01-2.4-1.459-2.368-1.514" transform="translate(-1.437 -92.584)" fill="#263238"/>
      </g>
    </g>
    <g id="Grupo_877372" data-name="Grupo 877372">
      <g id="Grupo_877371" data-name="Grupo 877371" clip-path="url(#clip-path)">
        <path id="Trazado_623129" data-name="Trazado 623129" d="M248.581,48l6.882-3.3a24.56,24.56,0,1,1-1.191,8.718l0,.013Z" transform="translate(-52.808 -5.91)" fill="#fff"/>
        <path id="Trazado_623130" data-name="Trazado 623130" d="M248.581,47.962s.109.116.346.349l1.065,1.044,4.22,4.1a.084.084,0,0,0,.12,0,.08.08,0,0,0,.022-.042l0-.013-.169-.014a24.549,24.549,0,0,0,3.424,11.578,23.988,23.988,0,0,0,2.2,3.118,26.973,26.973,0,0,0,2.883,2.908,24.513,24.513,0,0,0,17.407,5.95,24.839,24.839,0,0,0,10.227-2.812,24.483,24.483,0,0,0,8.479-7.409,24.21,24.21,0,0,0,4.4-10.932l.191-1.511.054-1.514.026-.755-.043-.752-.091-1.5c-.048-.5-.147-.986-.219-1.477a12.279,12.279,0,0,0-.274-1.459,22.459,22.459,0,0,0-.834-2.824,24.446,24.446,0,0,0-15.261-15.037,24.659,24.659,0,0,0-18.439,1.019,26.894,26.894,0,0,0-3.565,2.034,32.144,32.144,0,0,0-2.963,2.419,24.422,24.422,0,0,0-6.408,10.21l.044-.05L250.3,47.1l-1.3.643c-.288.143-.424.218-.424.218s.165-.069.467-.209l1.335-.619L255.5,44.74a.085.085,0,0,0,.044-.05,24.434,24.434,0,0,1,6.428-10.071,32.2,32.2,0,0,1,2.944-2.377,26.823,26.823,0,0,1,3.532-1.993,24.45,24.45,0,0,1,27.165,4.5,24.7,24.7,0,0,1,6.033,9.374,22.071,22.071,0,0,1,.819,2.779,12.025,12.025,0,0,1,.269,1.437c.069.483.167.965.214,1.453l.09,1.475.042.74-.027.743L303,54.244l-.189,1.486a23.85,23.85,0,0,1-4.323,10.757,24.122,24.122,0,0,1-8.338,7.3,24.49,24.49,0,0,1-19.652,1.4,24.226,24.226,0,0,1-7.6-4.429,26.887,26.887,0,0,1-2.862-2.86,23.778,23.778,0,0,1-2.2-3.072,24.556,24.556,0,0,1-3.48-11.45.086.086,0,0,0-.169-.014l0,.013.142-.043-4.248-3.986-1.109-1.033c-.252-.232-.391-.354-.391-.354" transform="translate(-52.808 -5.871)" fill="#263238"/>
        <path id="Trazado_623131" data-name="Trazado 623131" d="M297.634,56.548a14.5,14.5,0,1,1-14.5-14.5,14.5,14.5,0,0,1,14.5,14.5" transform="translate(-57.07 -8.933)" fill="#eb6f2d"/>
        <g id="Grupo_877367" data-name="Grupo 877367" transform="translate(215.57 32.118)" opacity="0.3">
          <g id="Grupo_877366" data-name="Grupo 877366" transform="translate(-4 1)">
            <g id="Grupo_877365" data-name="Grupo 877365" clip-path="url(#clip-path-6)">
              <path id="Trazado_623132" data-name="Trazado 623132" d="M297.634,56.548a14.5,14.5,0,1,1-14.5-14.5,14.5,14.5,0,0,1,14.5,14.5" transform="translate(-268.64 -42.051)" fill="#12263f"/>
            </g>
          </g>
        </g>
        <path id="Trazado_623133" data-name="Trazado 623133" d="M297.634,54.514a14.5,14.5,0,1,1-14.5-14.5,14.5,14.5,0,0,1,14.5,14.5" transform="translate(-57.07 -8.501)" fill="#eb6f2d"/>
        <path id="Trazado_623134" data-name="Trazado 623134" d="M294.138,55.806a9.71,9.71,0,1,1-9.711-9.711,9.71,9.71,0,0,1,9.711,9.711" transform="translate(-58.361 -9.792)" fill="#fff"/>
        <path id="Trazado_623135" data-name="Trazado 623135" d="M290.517,57.143a4.752,4.752,0,1,1-4.752-4.752,4.752,4.752,0,0,1,4.752,4.752" transform="translate(-59.698 -11.13)" fill="#eb6f2d"/>
        <path id="Trazado_623136" data-name="Trazado 623136" d="M299.771,43.206l-.394-3.093,3.148-3.37.227,3.338Z" transform="translate(-63.6 -7.806)" fill="#455a64"/>
        <path id="Trazado_623137" data-name="Trazado 623137" d="M306.732,41.754l-3.194-.26-3.2,3.079,3.2.343Z" transform="translate(-63.803 -8.815)" fill="#455a64"/>
        <g id="Grupo_877370" data-name="Grupo 877370" transform="translate(226.702 35.788)" opacity="0.3">
          <g id="Grupo_877369" data-name="Grupo 877369">
            <g id="Grupo_877368" data-name="Grupo 877368" clip-path="url(#clip-path-7)">
              <path id="Trazado_623138" data-name="Trazado 623138" d="M287.854,55.6l11.085-8.463a13.53,13.53,0,0,0-1.387-1.692l-9.7,9.4Z" transform="translate(-287.854 -45.442)"/>
            </g>
          </g>
        </g>
        <path id="Trazado_623139" data-name="Trazado 623139" d="M300.189,40.343l-4.513,4.514-7.16,7.161-1.646,1.646c-.521.521.293,1.327.815.8l4.513-4.514,7.16-7.161L301,41.148a.573.573,0,0,0-.815-.8" transform="translate(-60.907 -8.535)" fill="#263238"/>
      </g>
    </g>
    <g id="Grupo_877401" data-name="Grupo 877401">
      <g id="Grupo_877400" data-name="Grupo 877400" clip-path="url(#clip-path)">
        <path id="Trazado_623140" data-name="Trazado 623140" d="M198.141,54.988l3-33.345c.476-8.319,5.715-14.975,14.018-14.269l.764.11a14.9,14.9,0,0,1,12.743,15.676c-.453,7.209-1.046,15.167-1.644,18.983-1.24,7.9-9.333,7.989-9.333,7.989-.017,0-.543,4.83-.778,7.164l-1,5.44-4.065-2.057Z" transform="translate(-42.093 -1.556)" fill="#ffc09d"/>
        <path id="Trazado_623141" data-name="Trazado 623141" d="M220.339,60.111a19.313,19.313,0,0,1-9.865-4.532s1.622,6.307,9.621,6.734Z" transform="translate(-44.713 -11.807)" fill="#ff9b6c"/>
        <path id="Trazado_623142" data-name="Trazado 623142" d="M231.855,35.805a1.141,1.141,0,0,1-1.254.983,1.092,1.092,0,0,1-1.018-1.187,1.141,1.141,0,0,1,1.253-.984,1.092,1.092,0,0,1,1.019,1.188" transform="translate(-48.771 -7.353)" fill="#263238"/>
        <path id="Trazado_623143" data-name="Trazado 623143" d="M232.958,30.8c-.161.127-.926-.63-2.143-.8-1.213-.189-2.2.308-2.306.139-.055-.075.126-.321.555-.547a3.138,3.138,0,0,1,1.873-.294,3.012,3.012,0,0,1,1.679.822c.332.341.421.626.342.682" transform="translate(-48.542 -6.216)" fill="#263238"/>
        <path id="Trazado_623144" data-name="Trazado 623144" d="M218.368,33.984a1.141,1.141,0,0,1-1.254.983A1.091,1.091,0,0,1,216.1,33.78a1.142,1.142,0,0,1,1.253-.984,1.093,1.093,0,0,1,1.019,1.188" transform="translate(-45.906 -6.966)" fill="#263238"/>
        <path id="Trazado_623145" data-name="Trazado 623145" d="M217.77,28.975c-.161.127-.928-.63-2.143-.8-1.213-.189-2.2.307-2.306.139-.055-.076.124-.321.555-.547a3.135,3.135,0,0,1,1.872-.295,3.012,3.012,0,0,1,1.679.822c.332.341.421.626.343.682" transform="translate(-45.316 -5.829)" fill="#263238"/>
        <path id="Trazado_623146" data-name="Trazado 623146" d="M222.8,39.3a8.139,8.139,0,0,1,2.026-.072c.316.013.618-.006.7-.211a1.6,1.6,0,0,0-.075-.95q-.275-1.191-.577-2.5a41.186,41.186,0,0,1-1.171-6.483,41.037,41.037,0,0,1,1.69,6.374c.187.875.366,1.708.536,2.505a1.823,1.823,0,0,1-.015,1.243.785.785,0,0,1-.576.38,2.141,2.141,0,0,1-.539,0,7.951,7.951,0,0,1-2-.286" transform="translate(-47.332 -6.179)" fill="#263238"/>
        <path id="Trazado_623147" data-name="Trazado 623147" d="M218.674,24.159c-.21.287-1.343-.21-2.775-.448-1.428-.267-2.662-.188-2.761-.529-.041-.162.241-.406.784-.585a4.885,4.885,0,0,1,4.217.745c.448.353.63.68.536.817" transform="translate(-45.278 -4.76)" fill="#263238"/>
        <path id="Trazado_623148" data-name="Trazado 623148" d="M233.571,26.249c-.289.244-1.244-.172-2.436-.339-1.186-.2-2.227-.1-2.423-.418-.083-.154.111-.41.587-.615a3.864,3.864,0,0,1,2.041-.2,3.806,3.806,0,0,1,1.874.807c.385.339.487.642.358.762" transform="translate(-48.584 -5.232)" fill="#263238"/>
        <path id="Trazado_623149" data-name="Trazado 623149" d="M200.155,32.569c-.126-.078-5.206-2.393-5.814,3.042s4.975,4.925,5,4.769.813-7.812.813-7.812" transform="translate(-41.276 -6.801)" fill="#ffc09d"/>
        <path id="Trazado_623150" data-name="Trazado 623150" d="M198.29,38.6c-.022-.02-.1.055-.27.111a.951.951,0,0,1-.71-.065,2.357,2.357,0,0,1-.849-2.223,3.135,3.135,0,0,1,.417-1.325,1.1,1.1,0,0,1,.793-.647.485.485,0,0,1,.53.322c.056.16.009.265.037.277s.127-.078.108-.307a.606.606,0,0,0-.176-.365.715.715,0,0,0-.508-.2,1.34,1.34,0,0,0-1.084.732,3.236,3.236,0,0,0-.5,1.478,2.473,2.473,0,0,0,1.118,2.5,1.019,1.019,0,0,0,.882-.047c.184-.116.226-.234.208-.246" transform="translate(-41.653 -7.26)" fill="#ff9b6c"/>
        <path id="Trazado_623151" data-name="Trazado 623151" d="M239.217,15.3a1.294,1.294,0,0,0-.519-.821,3.981,3.981,0,0,0-1.995-.562,11.509,11.509,0,0,1-4.83-1.815,5.7,5.7,0,0,0,1.578-.86,3.432,3.432,0,0,0,1.367-3.279.758.758,0,0,0-.367-.569c-.34-.148-.689.163-.966.41a2.956,2.956,0,0,1-2.9.856,4.845,4.845,0,0,1-2-.847c-.021-.027-.039-.057-.06-.083-.25-.324-.494-.634-.735-.934l0,0v0a18.093,18.093,0,0,0-5.139-4.8A18.58,18.58,0,0,0,212.89.1c-2.849.411-5.589,2.372-6.3,5.162a5.777,5.777,0,0,0-5.708-1.2l-.045-.026c-2.189.51-3.638,2.6-4.5,4.673-.047.113-.09.229-.135.344a8.4,8.4,0,0,1-3.146,2.443c-.217.1-.467.213-.518.445a.684.684,0,0,0,.3.6,4.228,4.228,0,0,0,1.622.9,9.542,9.542,0,0,1-.866,1.4c-.284.375-.621.825-.461,1.266a.893.893,0,0,0,.883.51,2.617,2.617,0,0,0,1.03-.332l-.9,1.606a5.007,5.007,0,0,0,2.306.108c.218,2.057.132,5.812.493,7.231a8.319,8.319,0,0,1,2.508.4c.9.419.357,2.045,1.635,1.711.651-.17,1.877-2.424,2.158-3.035a31.225,31.225,0,0,0,2.838-12.981,10.044,10.044,0,0,1,3.333-1.872l-.1.074c2.31-.519,4.91-.992,6.9.291,1.543,1,2.311,2.8,3.379,4.295a11.451,11.451,0,0,0,7.93,5.04c.038,2.434-.317,6.368-.454,8.62l2.422-4.263v.018c.184-.245.342-.5.5-.747l.051-.076,0-.009a13.908,13.908,0,0,1,.774-1.2l.02.021a1.408,1.408,0,0,0,2.256-1.638,3.16,3.16,0,0,0-.6-.756,2.227,2.227,0,0,0,2.046.786,1.747,1.747,0,0,0,1.423-1.577,1.486,1.486,0,0,0-.745-1.285,5.013,5.013,0,0,0,2.907-.3c.6-.255,1.2-.718,1.1-1.444" transform="translate(-40.901 0)" fill="#263238"/>
        <path id="Trazado_623152" data-name="Trazado 623152" d="M209.888,8.2a6.89,6.89,0,0,0-.881.639,5.741,5.741,0,0,0-1.522,2.5,10.08,10.08,0,0,0-.433,2c-.087.732-.117,1.523-.155,2.356a21.092,21.092,0,0,1-.237,2.615,9.131,9.131,0,0,1-.336,1.355,2.874,2.874,0,0,1-.713,1.27,1.208,1.208,0,0,1-1.166.25,1.794,1.794,0,0,1-.945-.685,4.157,4.157,0,0,1-.536-2.11l.165.039a6.707,6.707,0,0,1-1.158,1.556,2.385,2.385,0,0,1-1.643.666,1.535,1.535,0,0,1-.8-.237,1.332,1.332,0,0,1-.5-.612,1.378,1.378,0,0,1-.088-.725.99.99,0,0,1,.326-.589l.076.085a5.16,5.16,0,0,1-1.855,1.087,4.64,4.64,0,0,1-.553.146.881.881,0,0,1-.195.025.936.936,0,0,1,.187-.056c.124-.035.308-.086.54-.172a5.333,5.333,0,0,0,1.8-1.113l.076.084a1.026,1.026,0,0,0-.187,1.176,1.2,1.2,0,0,0,.448.543,1.4,1.4,0,0,0,.729.206,2.231,2.231,0,0,0,1.527-.637,6.616,6.616,0,0,0,1.118-1.525l.143-.242.021.281a4.009,4.009,0,0,0,.51,2.015A1.617,1.617,0,0,0,204.5,21a1.019,1.019,0,0,0,.991-.21,2.738,2.738,0,0,0,.661-1.19,9.262,9.262,0,0,0,.332-1.327,21.473,21.473,0,0,0,.245-2.592c.043-.832.08-1.626.173-2.367a10.078,10.078,0,0,1,.462-2.022,5.667,5.667,0,0,1,1.6-2.513,3.25,3.25,0,0,1,.929-.584" transform="translate(-41.796 -1.742)" fill="#455a64"/>
        <path id="Trazado_623153" data-name="Trazado 623153" d="M237.252,17.668a.313.313,0,0,1-.071.047l-.215.122a2.676,2.676,0,0,1-.361.177,4.124,4.124,0,0,1-.512.2,7.111,7.111,0,0,1-3.475.225,9.066,9.066,0,0,1-4.6-2.319,15.689,15.689,0,0,1-3.582-5.222c-.469-1.029-.828-2.07-1.245-3.041a10.56,10.56,0,0,0-1.5-2.623,5.464,5.464,0,0,0-2.133-1.652,3.921,3.921,0,0,0-1.192-.276,4.309,4.309,0,0,0-1.13.087,4.615,4.615,0,0,0-1.772.81,4.566,4.566,0,0,0-1.03,1.062,5.537,5.537,0,0,0-.547,1.146s0-.028.015-.083.039-.143.066-.239a4.053,4.053,0,0,1,.4-.863A4.524,4.524,0,0,1,215.4,4.118a4.66,4.66,0,0,1,1.806-.855,4.409,4.409,0,0,1,1.168-.1,4.047,4.047,0,0,1,1.241.277,5.585,5.585,0,0,1,2.208,1.686,10.669,10.669,0,0,1,1.537,2.66c.421.978.78,2.017,1.246,3.036a15.707,15.707,0,0,0,3.528,5.172,9.01,9.01,0,0,0,4.5,2.315,7.2,7.2,0,0,0,3.427-.164,11.441,11.441,0,0,0,1.183-.477" transform="translate(-45.438 -0.671)" fill="#455a64"/>
        <path id="Trazado_623154" data-name="Trazado 623154" d="M242.7,17.063a1.246,1.246,0,0,1-.308.166,6.093,6.093,0,0,1-.893.332,8.234,8.234,0,0,1-1.388.287,9.456,9.456,0,0,1-1.736.032,9.58,9.58,0,0,1-1.707-.313,8.381,8.381,0,0,1-1.323-.508,6.216,6.216,0,0,1-.827-.473,1.275,1.275,0,0,1-.277-.213c.019-.03.432.246,1.16.566a9.386,9.386,0,0,0,1.313.462,9.312,9.312,0,0,0,3.379.276,9.449,9.449,0,0,0,1.37-.243c.769-.2,1.222-.4,1.236-.372" transform="translate(-49.761 -3.478)" fill="#455a64"/>
        <path id="Trazado_623155" data-name="Trazado 623155" d="M220.976,45.945c-.043-.2-1.378.161-2.64-.721s-1.505-2.343-1.694-2.3c-.089,0-.172.388-.024.993a3.444,3.444,0,0,0,1.339,1.942,3,3,0,0,0,2.19.519c.572-.1.862-.343.829-.432" transform="translate(-46.001 -9.118)" fill="#263238"/>
        <path id="Trazado_623156" data-name="Trazado 623156" d="M166.732,61.539a8.614,8.614,0,0,0-9.469,2.167c-4.184,4.477-19.586,34.432-21.615,40.084-3.336,9.3,3.853,17.239,9.839,17.565s29.408-7.21,29.408-7.21l-5.1-13.435L154.848,101.9l11.59-23.282Z" transform="translate(-28.637 -12.947)" fill="#2b95f9"/>
        <path id="Trazado_623157" data-name="Trazado 623157" d="M207.86,91.978s5.765,29.222,8.511,31.582S240.8,135.633,240.8,135.633l6.494-10.556-17.233-10.5-.085-22.18c-.176-6.259-2.686-10.176-5.551-12.273Z" transform="translate(-44.158 -17.021)" fill="#2b95f9"/>
        <path id="Trazado_623158" data-name="Trazado 623158" d="M208.581,67.157,204.675,72.2l-2.423-6.259-13.777-8.937-4.011,3.851s-15.45.3-16.448,1.055c-2.219,1.677-6.28,26.693-6.28,26.693l-7.822,47.175c-.662,1.891,5.907,3.214,9.709,4.142l35.046,5.018s4.169.988,5.351-1.581c.954-2.072,2.947-23.862,4.962-35.755.533-3.15,1.016-14.4,1.016-14.4l3.9-17.4-4.22-3.178Z" transform="translate(-32.688 -12.111)" fill="#2b95f9"/>
        <path id="Trazado_623159" data-name="Trazado 623159" d="M165.695,99.3a7.54,7.54,0,0,1-.665,1.637c-.459.988-1.119,2.344-1.871,3.829s-1.453,2.821-1.979,3.777a7.58,7.58,0,0,1-.925,1.507,7.619,7.619,0,0,1,.668-1.64c.459-.989,1.118-2.342,1.869-3.826s1.451-2.815,1.977-3.771a7.686,7.686,0,0,1,.928-1.513" transform="translate(-34.043 -21.096)" fill="#263238"/>
        <path id="Trazado_623160" data-name="Trazado 623160" d="M209.807,67.253a13.28,13.28,0,0,1-1.38,1.556c-.9.952-2.185,2.282-3.7,3.828l-.118.12-.135-.1c-.977-.745-2.031-1.582-3.11-2.484-2.417-2.016-4.5-3.969-5.948-5.43-.729-.729-1.3-1.336-1.688-1.763a3.757,3.757,0,0,1-.569-.694,3.75,3.75,0,0,1,.682.582l1.776,1.666c1.5,1.406,3.6,3.316,6.01,5.324,1.074.9,2.119,1.74,3.082,2.495l-.254.017c1.536-1.525,2.859-2.819,3.8-3.724a13.3,13.3,0,0,1,1.548-1.39" transform="translate(-41.034 -13.231)" fill="#263238"/>
        <path id="Trazado_623161" data-name="Trazado 623161" d="M227.466,89.7a50.665,50.665,0,0,1-.475,6.42,50.643,50.643,0,0,1-.883,6.378,50.677,50.677,0,0,1,.475-6.421,50.662,50.662,0,0,1,.883-6.377" transform="translate(-48.028 -19.055)" fill="#263238"/>
        <path id="Trazado_623162" data-name="Trazado 623162" d="M247.848,130.827s4.3-7.238,5.209-6.953,1.37,2.163.824,3.548-2.063,6.948-2.063,6.948Z" transform="translate(-52.653 -26.314)" fill="#ffc09d"/>
        <path id="Trazado_623163" data-name="Trazado 623163" d="M243.145,291.691l-4.27,19.257s18.378,9.393,17.935,13.029l-37.873-5.524,5.422-30.278Z" transform="translate(-46.511 -61.22)" fill="#455a64"/>
        <g id="Grupo_877375" data-name="Grupo 877375" transform="translate(179.639 245.929)" opacity="0.6">
          <g id="Grupo_877374" data-name="Grupo 877374">
            <g id="Grupo_877373" data-name="Grupo 877373" clip-path="url(#clip-path-9)">
              <path id="Trazado_623164" data-name="Trazado 623164" d="M229.484,312.29a1.563,1.563,0,0,0-1.386,1.558,1.5,1.5,0,0,0,1.533,1.388,1.648,1.648,0,0,0,1.459-1.658,1.558,1.558,0,0,0-1.753-1.266" transform="translate(-228.096 -312.267)" fill="#fff"/>
            </g>
          </g>
        </g>
        <g id="Grupo_877378" data-name="Grupo 877378" transform="translate(172.425 254.18)" opacity="0.6">
          <g id="Grupo_877377" data-name="Grupo 877377">
            <g id="Grupo_877376" data-name="Grupo 877376" clip-path="url(#clip-path-10)">
              <path id="Trazado_623165" data-name="Trazado 623165" d="M218.936,325.8l.547-3.052,36.385,6.608a2.646,2.646,0,0,1,1.093,2.271Z" transform="translate(-218.936 -322.744)" fill="#fff"/>
            </g>
          </g>
        </g>
        <path id="Trazado_623166" data-name="Trazado 623166" d="M244.044,316.9c-.04.183-.974.1-1.987.521-1.025.4-1.637,1.108-1.793,1-.163-.067.313-1.115,1.55-1.607s2.3-.079,2.23.083" transform="translate(-51.035 -67.255)" fill="#263238"/>
        <path id="Trazado_623167" data-name="Trazado 623167" d="M248.9,319.953c.009.186-.844.351-1.611,1.014-.788.64-1.1,1.451-1.281,1.41-.178,0-.107-1.1.863-1.908s2.058-.691,2.03-.515" transform="translate(-52.246 -67.943)" fill="#263238"/>
        <path id="Trazado_623168" data-name="Trazado 623168" d="M251.409,325.723c-.175.009-.261-.957.4-1.877s1.59-1.161,1.64-.994c.076.171-.582.608-1.11,1.371-.547.75-.742,1.515-.927,1.5" transform="translate(-53.383 -68.576)" fill="#263238"/>
        <path id="Trazado_623169" data-name="Trazado 623169" d="M244.624,311c-.108.154-.9-.256-1.956-.376-1.05-.143-1.922.057-1.989-.118-.082-.153.832-.688,2.069-.528s1.993.895,1.875,1.022" transform="translate(-51.129 -65.845)" fill="#263238"/>
        <g id="Grupo_877381" data-name="Grupo 877381" transform="translate(176.562 231.021)" opacity="0.3">
          <g id="Grupo_877380" data-name="Grupo 877380">
            <g id="Grupo_877379" data-name="Grupo 877379" clip-path="url(#clip-path-11)">
              <path id="Trazado_623170" data-name="Trazado 623170" d="M243.41,296.6l-.757,3.433-18.465-3.579.551-3.117Z" transform="translate(-224.188 -293.338)"/>
            </g>
          </g>
        </g>
        <path id="Trazado_623171" data-name="Trazado 623171" d="M167.383,336.4l-2.448,19.572s19.177,7.63,19.077,11.291l-38.224-1.952,2.562-30.653Z" transform="translate(-30.971 -71.095)" fill="#455a64"/>
        <g id="Grupo_877384" data-name="Grupo 877384" transform="translate(121.077 282.141)" opacity="0.6">
          <g id="Grupo_877383" data-name="Grupo 877383">
            <g id="Grupo_877382" data-name="Grupo 877382" clip-path="url(#clip-path-12)">
              <path id="Trazado_623172" data-name="Trazado 623172" d="M154.984,358.286a1.562,1.562,0,0,0-1.234,1.681A1.5,1.5,0,0,0,155.4,361.2a1.649,1.649,0,0,0,1.3-1.787,1.559,1.559,0,0,0-1.866-1.1" transform="translate(-153.737 -358.246)" fill="#fff"/>
            </g>
          </g>
        </g>
        <g id="Grupo_877387" data-name="Grupo 877387" transform="translate(114.817 291.128)" opacity="0.6">
          <g id="Grupo_877386" data-name="Grupo 877386">
            <g id="Grupo_877385" data-name="Grupo 877385" clip-path="url(#clip-path-13)">
              <path id="Trazado_623173" data-name="Trazado 623173" d="M145.788,372.748l.258-3.09,36.844,3.172a2.645,2.645,0,0,1,1.3,2.158Z" transform="translate(-145.788 -369.658)" fill="#fff"/>
            </g>
          </g>
        </g>
        <path id="Trazado_623174" data-name="Trazado 623174" d="M169.919,361.483c-.023.186-.961.187-1.93.7-.983.491-1.526,1.256-1.692,1.167-.168-.051.209-1.14,1.392-1.745s2.285-.294,2.229-.127" transform="translate(-35.32 -76.743)" fill="#263238"/>
        <path id="Trazado_623175" data-name="Trazado 623175" d="M175.054,364.07c.027.184-.807.429-1.51,1.16-.724.71-.958,1.548-1.143,1.523-.178.014-.21-1.088.68-1.98s1.984-.881,1.972-.7" transform="translate(-36.604 -77.322)" fill="#263238"/>
        <path id="Trazado_623176" data-name="Trazado 623176" d="M178.1,369.595c-.172.024-.349-.929.22-1.905s1.474-1.306,1.54-1.144c.091.162-.522.659-.977,1.468-.473.8-.6,1.578-.783,1.581" transform="translate(-37.799 -77.86)" fill="#263238"/>
        <path id="Trazado_623177" data-name="Trazado 623177" d="M169.912,355.576c-.093.163-.924-.17-1.982-.192-1.058-.043-1.908.237-1.991.069-.1-.144.765-.762,2.011-.719s2.067.7,1.963.842" transform="translate(-35.25 -75.359)" fill="#263238"/>
        <g id="Grupo_877390" data-name="Grupo 877390" transform="translate(116.771 267.682)" opacity="0.3">
          <g id="Grupo_877389" data-name="Grupo 877389">
            <g id="Grupo_877388" data-name="Grupo 877388" clip-path="url(#clip-path-14)">
              <path id="Trazado_623178" data-name="Trazado 623178" d="M167.421,341.388l-.432,3.489-18.72-1.833.256-3.155Z" transform="translate(-148.269 -339.888)"/>
            </g>
          </g>
        </g>
        <path id="Trazado_623179" data-name="Trazado 623179" d="M141.9,37.356a14.577,14.577,0,1,1-15.3-13.815,14.576,14.576,0,0,1,15.3,13.815" transform="translate(-23.956 -4.997)" fill="#eb6f2d"/>
        <path id="Trazado_623180" data-name="Trazado 623180" d="M307.126,208.636l-14.552-33.773L143.58,33.348,123.916,55.079,272.126,195.526Z" transform="translate(-26.325 -7.084)" fill="#ffb338"/>
        <g id="Grupo_877393" data-name="Grupo 877393" transform="translate(245.801 167.622)" opacity="0.7">
          <g id="Grupo_877392" data-name="Grupo 877392">
            <g id="Grupo_877391" data-name="Grupo 877391" clip-path="url(#clip-path-15)">
              <path id="Trazado_623181" data-name="Trazado 623181" d="M312.1,233.657a2.175,2.175,0,0,1,2.853-1.937,6.544,6.544,0,0,1,7.709-9.714,7.634,7.634,0,0,1,10-8.758L347.1,246.767Z" transform="translate(-312.104 -212.837)" fill="#fff"/>
            </g>
          </g>
        </g>
        <path id="Trazado_623182" data-name="Trazado 623182" d="M346.826,238.648s-6.864-1.585-8.488,8.21l14.34,5.371Z" transform="translate(-71.876 -50.678)" fill="#263238"/>
        <g id="Grupo_877396" data-name="Grupo 877396" transform="translate(108.621 26.935)" opacity="0.3">
          <g id="Grupo_877395" data-name="Grupo 877395">
            <g id="Grupo_877394" data-name="Grupo 877394" clip-path="url(#clip-path-16)">
              <path id="Trazado_623183" data-name="Trazado 623183" d="M285.661,184.056,137.921,45l9.294-10.8L295.55,175.044l.107.254a7.338,7.338,0,0,0-3.336-.378,7.927,7.927,0,0,0-4.046,1.7,7.537,7.537,0,0,0-2.664,4.577,7.686,7.686,0,0,0,.05,2.856" transform="translate(-137.921 -34.2)"/>
            </g>
          </g>
        </g>
        <g id="Grupo_877399" data-name="Grupo 877399" transform="translate(97.602 45.357)" opacity="0.3">
          <g id="Grupo_877398" data-name="Grupo 877398">
            <g id="Grupo_877397" data-name="Grupo 877397" clip-path="url(#clip-path-17)">
              <path id="Trazado_623184" data-name="Trazado 623184" d="M274.981,198.739,126.394,57.592l-2.464,2.855,148.2,140.23a2.314,2.314,0,0,1,2.324-2.072,2.57,2.57,0,0,1,.528.135" transform="translate(-123.93 -57.592)"/>
            </g>
          </g>
        </g>
        <path id="Trazado_623185" data-name="Trazado 623185" d="M334.575,225.976a.578.578,0,0,0-.318-.247.8.8,0,0,0-.955.474,3.062,3.062,0,0,0-.024,1.852,1.882,1.882,0,0,0,.6.971,1.255,1.255,0,0,0,1.188.27,1.689,1.689,0,0,0,.941-1,5.477,5.477,0,0,0,.359-1.529,8.417,8.417,0,0,0-.291-3.453,2.155,2.155,0,0,0-1.126-1.369,1.911,1.911,0,0,0-1.791.3,5.1,5.1,0,0,0-1.595,3.654,7.284,7.284,0,0,0,3.4,6.769,1.891,1.891,0,0,0,1.676.056,3.488,3.488,0,0,0,1.262-1.071,10.193,10.193,0,0,0,1.418-2.689,11.166,11.166,0,0,0,.611-4.361c-.039-.523-.093-.927-.14-1.2s-.065-.417-.065-.417a8.124,8.124,0,0,1,.284,1.611,10.936,10.936,0,0,1-.554,4.413,10.211,10.211,0,0,1-1.421,2.745,3.647,3.647,0,0,1-1.322,1.131,2.077,2.077,0,0,1-1.832-.05,7.449,7.449,0,0,1-3.524-6.954,7.3,7.3,0,0,1,.466-2.1,3.749,3.749,0,0,1,1.215-1.7,2.107,2.107,0,0,1,1.982-.313,2.342,2.342,0,0,1,1.231,1.488,8.545,8.545,0,0,1,.282,3.535,5.6,5.6,0,0,1-.384,1.574,1.83,1.83,0,0,1-1.04,1.071,1.386,1.386,0,0,1-1.315-.307,2,2,0,0,1-.627-1.04,3.1,3.1,0,0,1,.063-1.917.848.848,0,0,1,1.039-.479.45.45,0,0,1,.306.287" transform="translate(-70.389 -47.085)" fill="#fff"/>
        <path id="Trazado_623186" data-name="Trazado 623186" d="M329.941,239.179c-.023-.009.18-.379.365-1.1a7.955,7.955,0,0,0,.08-3.138,20.118,20.118,0,0,0-1.388-4.48,17.6,17.6,0,0,1-1.529-5.578,9.987,9.987,0,0,1,1.418-5.579,9.729,9.729,0,0,1,6.326-4.463,6.53,6.53,0,0,1,1.16-.147,1.7,1.7,0,0,1-.3.057c-.2.028-.482.08-.846.167a10.11,10.11,0,0,0-2.915,1.2,9.643,9.643,0,0,0-3.268,3.285,9.886,9.886,0,0,0-1.375,5.471,17.734,17.734,0,0,0,1.5,5.52,19.632,19.632,0,0,1,1.357,4.528,7.732,7.732,0,0,1-.146,3.179,4.406,4.406,0,0,1-.441,1.083" transform="translate(-69.565 -45.608)" fill="#fff"/>
        <path id="Trazado_623187" data-name="Trazado 623187" d="M320.3,238.629a3.04,3.04,0,0,0,1.44-1.6,17.132,17.132,0,0,0,.758-5.272,29.321,29.321,0,0,0-.365-5.348c-.106-.679-.218-1.225-.292-1.6a3.4,3.4,0,0,1-.1-.591,3.294,3.294,0,0,1,.182.573c.1.373.232.916.358,1.6a26.293,26.293,0,0,1,.189,8.34,8.607,8.607,0,0,1-.592,2.362,3,3,0,0,1-1.025,1.281,1.828,1.828,0,0,1-.547.256" transform="translate(-68.045 -47.633)" fill="#fff"/>
        <path id="Trazado_623188" data-name="Trazado 623188" d="M316.773,226.079a5.536,5.536,0,0,1,.462,1.122,6.664,6.664,0,0,1,.39,2.908,3.39,3.39,0,0,1-1.464,2.5,2.42,2.42,0,0,1-.833.341.759.759,0,0,1-.328.02,3.684,3.684,0,0,0,1.081-.48,3.379,3.379,0,0,0,1.342-2.41,7.25,7.25,0,0,0-.324-2.841,9.753,9.753,0,0,1-.324-1.165" transform="translate(-66.918 -48.028)" fill="#fff"/>
        <path id="Trazado_623189" data-name="Trazado 623189" d="M336.417,244.294a.545.545,0,0,1-.069-.161c-.039-.109-.1-.267-.158-.477a2.195,2.195,0,0,1-.1-.8,2.354,2.354,0,0,1,.365-1,27.372,27.372,0,0,1,1.591-2.228,19.544,19.544,0,0,0,1.687-2.864,38.185,38.185,0,0,0,2.105-5.679c.192-.647.365-1.229.525-1.766a4.338,4.338,0,0,1,.214-.642,4.32,4.32,0,0,1-.138.662c-.1.423-.256,1.034-.463,1.785a33.734,33.734,0,0,1-2.059,5.727,18.6,18.6,0,0,1-1.718,2.886c-.613.835-1.229,1.526-1.619,2.191a1.96,1.96,0,0,0-.308,1.709,5.062,5.062,0,0,1,.15.658" transform="translate(-71.396 -48.58)" fill="#fff"/>
        <path id="Trazado_623190" data-name="Trazado 623190" d="M143.112,32.967,122.388,53.811a.752.752,0,0,1-1.062,0L114.9,47.428a.751.751,0,0,1,0-1.062l20.724-20.844a.751.751,0,0,1,1.062,0l6.423,6.386a.751.751,0,0,1,0,1.062" transform="translate(-24.363 -5.375)" fill="#e0e0e0"/>
        <path id="Trazado_623191" data-name="Trazado 623191" d="M143.057,32.93c-.007-.006.046-.057.107-.179a.743.743,0,0,0,.033-.575c-.078-.247-.379-.44-.651-.727l-.986-.955-2.693-2.628-1.677-1.645-.451-.443a1.146,1.146,0,0,0-.458-.35.617.617,0,0,0-.519.08c-.135.1-.311.307-.468.459l-20.3,20.5a.548.548,0,0,0-.058.7c.186.209.478.482.711.719l1.469,1.462,2.872,2.86,1.4,1.394a.558.558,0,0,0,.664.13.6.6,0,0,0,.145-.1l.169-.17.339-.34,2.649-2.655,9.177-9.168,6.212-6.156,1.7-1.659.45-.424a.846.846,0,0,1,.164-.135.817.817,0,0,1-.134.164l-.421.453-1.649,1.714-6.12,6.248-9.114,9.23L122.979,53.4l-.339.342-.17.172a.987.987,0,0,1-.247.177.958.958,0,0,1-1.12-.2L119.7,52.5l-2.876-2.855-1.47-1.461c-.253-.261-.48-.457-.757-.772a.96.96,0,0,1,.1-1.229l20.387-20.42a6.662,6.662,0,0,1,.515-.489.9.9,0,0,1,.758-.109,1.385,1.385,0,0,1,.567.423l.446.449,1.655,1.667,2.644,2.678.959.981c.258.294.558.495.643.788a.763.763,0,0,1-.074.621.486.486,0,0,1-.144.158" transform="translate(-24.308 -5.338)" fill="#263238"/>
        <path id="Trazado_623192" data-name="Trazado 623192" d="M118.123,49.239a32.476,32.476,0,0,1,3.863,3.4,32.451,32.451,0,0,1,3.579,3.7,32.461,32.461,0,0,1-3.863-3.4,32.534,32.534,0,0,1-3.579-3.7" transform="translate(-25.093 -10.46)" fill="#263238"/>
        <path id="Trazado_623193" data-name="Trazado 623193" d="M127.836,38.834a45.565,45.565,0,0,1,4.092,3.412,45.76,45.76,0,0,1,3.955,3.572,28.1,28.1,0,0,1-4.224-3.262,28.114,28.114,0,0,1-3.824-3.722" transform="translate(-27.157 -8.249)" fill="#263238"/>
        <path id="Trazado_623194" data-name="Trazado 623194" d="M147.227,34.5a33.493,33.493,0,0,1-3.961-3.4,33.49,33.49,0,0,1-3.682-3.7,33.307,33.307,0,0,1,3.961,3.4,33.379,33.379,0,0,1,3.681,3.7" transform="translate(-29.653 -5.819)" fill="#263238"/>
        <path id="Trazado_623195" data-name="Trazado 623195" d="M203.266,93.989s-7.018.752-9.118,1.052-4.936.877-5.919,2.542c-.4.679-6.552,9.678-6.552,9.678l-2.35.665,3.756,10.332,6.353-3.16s2.16-2.422,3.88-4.709,2.248-3.12,2.248-3.12,6.293.295,7.565-.8a1.572,1.572,0,0,0,.274-1.664l-6.858-.6s7.454-.02,8.691-.843a1.816,1.816,0,0,0,.289-.235,1.167,1.167,0,0,0-.856-1.963l-8.024-.054s9.214-.836,9.422-1.866a3.639,3.639,0,0,0,.066-.5,1.12,1.12,0,0,0-1.155-1.189l-7.52.237s7.274-1.162,7.343-2.18c.132-1.93-1.534-1.622-1.534-1.622" transform="translate(-38.096 -19.963)" fill="#ffc09d"/>
        <path id="Trazado_623196" data-name="Trazado 623196" d="M149.346,117.548a11.668,11.668,0,0,1,8.592-5.027c.33-.032,15.3-1.627,15.3-1.627l4.584,14.33-21.989,5.722" transform="translate(-31.727 -23.558)" fill="#2b95f9"/>
        <path id="Trazado_623197" data-name="Trazado 623197" d="M155.839,130.887a2.126,2.126,0,0,1,.413-.143l1.214-.35,4.558-1.245,15.754-4.175-.138.25c-.859-2.676-1.788-5.571-2.75-8.568-.629-1.973-1.245-3.9-1.839-5.76l.213.139-10.133,1.052-4.347.442a14.135,14.135,0,0,0-3.659.695,11.8,11.8,0,0,0-4.508,2.792c-.878.9-1.237,1.5-1.27,1.474a2.641,2.641,0,0,1,.259-.433,9.975,9.975,0,0,1,.91-1.139,11.546,11.546,0,0,1,4.522-2.941,14.2,14.2,0,0,1,3.717-.758l4.343-.482,10.125-1.1.163-.017.05.157c.6,1.858,1.214,3.786,1.846,5.758l2.734,8.573.064.2-.2.051-15.79,4.034-4.587,1.134-1.23.287a2.17,2.17,0,0,1-.431.077" transform="translate(-31.727 -23.499)" fill="#263238"/>
        <path id="Trazado_623198" data-name="Trazado 623198" d="M252.75,132.138s4.41-1.5,5.573-.71a4.337,4.337,0,0,1,1.56,2.082,1.984,1.984,0,0,1,1.888,2.834s2.361.474,1.647,3.228c0,0,1.733-.046.9,2.232a28.979,28.979,0,0,1-5.171,7.431c-1.683,1.268-2.148-.743-1.737-1.547s2.726-5.221,2.726-5.221-4.007,6.312-5.364,5.256c-.773-.6-.6-1.529.42-3.38.71-1.285,2.01-3.818,2.01-3.818l-3.153,3.889a1.1,1.1,0,0,1-1.938-.483,2.212,2.212,0,0,1,.156-1.182,26.034,26.034,0,0,1,2.335-4.25l-2.559,2.511a1.359,1.359,0,0,1-2.023-.121,1.325,1.325,0,0,1-.2-1.477c.7-1.41,4.6-5.514,4.6-5.514Z" transform="translate(-53.042 -27.871)" fill="#ffc09d"/>
        <path id="Trazado_623199" data-name="Trazado 623199" d="M156.844,158.648S153.188,177,156.905,185s13.469,11.839,23.612,14.949c13.551,4.156,36.972,17.045,36.972,17.045s-3.029,13.362-5.031,21.362c-1.922,7.678-7.289,35.632-7.289,35.632l24.639,3.4,17.571-63.229s4.907-12.986-5.756-19.428c-9.134-5.517-41.446-27.327-41.446-27.327l-2.5-5.793Z" transform="translate(-32.978 -33.703)" fill="#263238"/>
        <path id="Trazado_623200" data-name="Trazado 623200" d="M154.614,184.187,159.2,194.7l-6.24,49.927s-5.341,16.414-6.523,25.078-3.781,43.55-3.781,43.55h24.154s3.744-42.449,11-55.2c5.711-10.041,9.589-27.517,9.826-28.658s8.656-29.108,8.656-29.108l-11.8-24.282Z" transform="translate(-30.306 -37.391)" fill="#263238"/>
        <path id="Trazado_623201" data-name="Trazado 623201" d="M242.808,225.305a46.878,46.878,0,0,0-4.537,2.548,46.72,46.72,0,0,0-3.965,3.368,4.562,4.562,0,0,1,.923-1.242,16.687,16.687,0,0,1,6.094-4.24,4.6,4.6,0,0,1,1.485-.434" transform="translate(-49.775 -47.862)" fill="#455a64"/>
        <path id="Trazado_623202" data-name="Trazado 623202" d="M229.778,277.379s-.148-.006-.434-.039l-1.271-.155-4.89-.636-18.063-2.425-.147-.02.028-.147c1.394-7.3,3.068-15.989,5.051-25.645.5-2.414,1.015-4.888,1.582-7.41l1.807-7.709,3.82-16.249.1.224c-1.808-.988-3.756-2.022-5.726-3.053-5.488-2.863-10.9-5.549-16.2-7.987a131.991,131.991,0,0,0-15.615-6.2,68.525,68.525,0,0,1-14.109-5.769,26.237,26.237,0,0,1-5.508-4.2,17.24,17.24,0,0,1-3.594-5.276,19.8,19.8,0,0,1-1.3-5.66c-.089-.914-.163-1.8-.176-2.664-.045-.862-.034-1.7-.026-2.506a78.645,78.645,0,0,1,.585-8.254c.272-2.255.554-4,.762-5.173.11-.576.195-1.019.255-1.335.061-.3.106-.451.106-.451s-.017.157-.065.459-.122.762-.214,1.341c-.182,1.18-.438,2.923-.685,5.177a81.628,81.628,0,0,0-.515,8.238c0,.8-.008,1.637.042,2.494.018.859.1,1.74.191,2.646a19.6,19.6,0,0,0,1.3,5.574,16.963,16.963,0,0,0,3.553,5.169,25.951,25.951,0,0,0,5.454,4.125,68.546,68.546,0,0,0,14.049,5.7,131.27,131.27,0,0,1,15.671,6.192c5.311,2.437,10.734,5.123,16.227,7.989,1.971,1.032,3.919,2.067,5.732,3.057l.137.075-.035.15c-1.317,5.581-2.6,11.014-3.835,16.253q-.926,3.926-1.815,7.7c-.57,2.517-1.092,4.989-1.6,7.4-2,9.648-3.706,18.33-5.135,25.623l-.119-.167,18.045,2.551,4.881.71,1.266.194c.284.046.428.08.428.08" transform="translate(-32.949 -33.703)" fill="#455a64"/>
      </g>
    </g>
  </g>
</svg>
