<svg xmlns="http://www.w3.org/2000/svg" xmlns:xlink="http://www.w3.org/1999/xlink" width="339" height="89.256" viewBox="0 0 339 89.256">
  <defs>
    <filter id="Trazado_749448" x="0" y="29.999" width="339" height="59" filterUnits="userSpaceOnUse">
      <feOffset dy="3" input="SourceAlpha"/>
      <feGaussianBlur stdDeviation="3" result="blur"/>
      <feFlood flood-opacity="0.161"/>
      <feComposite operator="in" in2="blur"/>
      <feComposite in="SourceGraphic"/>
    </filter>
    <filter id="Trazado_502571" x="0" y="0" width="89.256" height="89.256" filterUnits="userSpaceOnUse">
      <feOffset dy="3" input="SourceAlpha"/>
      <feGaussianBlur stdDeviation="3" result="blur-2"/>
      <feFlood flood-opacity="0.161"/>
      <feComposite operator="in" in2="blur-2"/>
      <feComposite in="SourceGraphic"/>
    </filter>
  </defs>
  <g id="Grupo_1034317" data-name="Grupo 1034317" transform="translate(-840 -898.873)">
    <g transform="matrix(1, 0, 0, 1, 840, 898.87)" filter="url(#Trazado_749448)">
      <path id="Trazado_749448-2" data-name="Trazado 749448" d="M0,0H311a10,10,0,0,1,10,10V41H0Z" transform="translate(9 36)" fill="#fff"/>
    </g>
    <path id="Trazado_749449" data-name="Trazado 749449" d="M1.074,19V4.781H6.182a7.232,7.232,0,0,1,4.175,1.006,3.347,3.347,0,0,1,1.431,2.92,3.383,3.383,0,0,1-.508,1.885,2.959,2.959,0,0,1-1.494,1.152,3,3,0,0,1,1.709,1.094,3.18,3.18,0,0,1,.6,1.953,3.765,3.765,0,0,1-1.323,3.14A6.3,6.3,0,0,1,6.846,19ZM4.5,12.955v3.408H6.748a2.136,2.136,0,0,0,1.426-.425,1.487,1.487,0,0,0,.5-1.2A1.576,1.576,0,0,0,6.9,12.955Zm0-2.246H6.289a2.539,2.539,0,0,0,1.6-.411,1.46,1.46,0,0,0,.479-1.185,1.533,1.533,0,0,0-.518-1.3,2.77,2.77,0,0,0-1.67-.4H4.5ZM18.936,19.2A5.432,5.432,0,0,1,15,17.745a5.008,5.008,0,0,1-1.5-3.774V13.7a6.489,6.489,0,0,1,.6-2.861A4.395,4.395,0,0,1,15.85,8.917a5.292,5.292,0,0,1,2.734-.679A4.574,4.574,0,0,1,22.1,9.62a5.43,5.43,0,0,1,1.289,3.853v1.279H16.846a2.372,2.372,0,0,0,.771,1.4,2.3,2.3,0,0,0,1.543.508A2.958,2.958,0,0,0,21.6,15.563l1.5,1.777a4.2,4.2,0,0,1-1.743,1.353A5.891,5.891,0,0,1,18.936,19.2Zm-.371-8.418q-1.445,0-1.719,1.914h3.32v-.254a1.63,1.63,0,0,0-.4-1.226A1.593,1.593,0,0,0,18.564,10.777Zm9.17-2.344.107,1.24a3.583,3.583,0,0,1,3.018-1.436,3.015,3.015,0,0,1,2.466.986,4.7,4.7,0,0,1,.845,2.969V19h-3.3V12.33a1.783,1.783,0,0,0-.322-1.177,1.491,1.491,0,0,0-1.172-.376,1.569,1.569,0,0,0-1.436.762V19H24.648V8.434ZM41.1,19.2a5.432,5.432,0,0,1-3.936-1.45,5.008,5.008,0,0,1-1.5-3.774V13.7a6.489,6.489,0,0,1,.6-2.861,4.395,4.395,0,0,1,1.753-1.919,5.292,5.292,0,0,1,2.734-.679A4.574,4.574,0,0,1,44.268,9.62a5.43,5.43,0,0,1,1.289,3.853v1.279H39.014a2.372,2.372,0,0,0,.771,1.4,2.3,2.3,0,0,0,1.543.508,2.958,2.958,0,0,0,2.441-1.094l1.5,1.777a4.2,4.2,0,0,1-1.743,1.353A5.891,5.891,0,0,1,41.1,19.2Zm-.371-8.418q-1.445,0-1.719,1.914h3.32v-.254a1.63,1.63,0,0,0-.4-1.226A1.593,1.593,0,0,0,40.732,10.777ZM47.646,19V10.719H46.113V8.434h1.533V8.082A4.034,4.034,0,0,1,49.033,4.85a5.541,5.541,0,0,1,3.6-1.055,12.787,12.787,0,0,1,3.438.566l-.449,2.6-.547-.146a8.7,8.7,0,0,0-2.246-.283q-1.885,0-1.885,1.719v.186h2.07v2.285h-2.07V19Zm9.941,0H54.277V8.434h3.311Zm6.475-2.344a1.464,1.464,0,0,0,1.074-.376,1.379,1.379,0,0,0,.371-1.05h3.086a3.653,3.653,0,0,1-1.245,2.852A4.631,4.631,0,0,1,64.141,19.2a4.689,4.689,0,0,1-3.633-1.445,5.7,5.7,0,0,1-1.328-4v-.137a6.436,6.436,0,0,1,.591-2.827,4.3,4.3,0,0,1,1.7-1.885,5.081,5.081,0,0,1,2.637-.659,4.573,4.573,0,0,1,3.271,1.143,4.053,4.053,0,0,1,1.211,3.1H65.508a1.806,1.806,0,0,0-.4-1.26,1.382,1.382,0,0,0-1.074-.439q-1.279,0-1.494,1.631a11.507,11.507,0,0,0-.068,1.426,4.52,4.52,0,0,0,.381,2.207A1.319,1.319,0,0,0,64.063,16.656ZM73.457,19h-3.3V8.434h3.3Zm-3.5-13.291a1.469,1.469,0,0,1,.508-1.152,2.159,2.159,0,0,1,2.637,0,1.469,1.469,0,0,1,.508,1.152,1.469,1.469,0,0,1-.508,1.152,2.159,2.159,0,0,1-2.637,0A1.469,1.469,0,0,1,69.961,5.709Zm5.107,7.91a6.236,6.236,0,0,1,.615-2.817,4.4,4.4,0,0,1,1.768-1.9,5.323,5.323,0,0,1,2.705-.664,4.858,4.858,0,0,1,3.74,1.47,5.64,5.64,0,0,1,1.367,4v.117a5.472,5.472,0,0,1-1.372,3.921,4.871,4.871,0,0,1-3.716,1.45,4.927,4.927,0,0,1-3.623-1.353,5.29,5.29,0,0,1-1.475-3.667Zm3.291.205a3.932,3.932,0,0,0,.459,2.148,1.529,1.529,0,0,0,1.357.684q1.758,0,1.8-2.705v-.332q0-2.842-1.816-2.842-1.65,0-1.787,2.451Zm13.887,2.207a.76.76,0,0,0-.439-.674,6.685,6.685,0,0,0-1.67-.527,7.615,7.615,0,0,1-2.031-.718,3.4,3.4,0,0,1-1.221-1.079,2.577,2.577,0,0,1-.42-1.455,2.92,2.92,0,0,1,1.2-2.4,4.948,4.948,0,0,1,3.145-.942,5.482,5.482,0,0,1,3.359.947,2.962,2.962,0,0,1,1.27,2.49h-3.3q0-1.27-1.338-1.27a1.326,1.326,0,0,0-.869.288.892.892,0,0,0-.352.718.819.819,0,0,0,.43.713,4.06,4.06,0,0,0,1.372.449,11.857,11.857,0,0,1,1.655.42,3.007,3.007,0,0,1,2.383,2.939,2.767,2.767,0,0,1-1.284,2.354,5.631,5.631,0,0,1-3.325.908,5.747,5.747,0,0,1-2.422-.488,4.05,4.05,0,0,1-1.66-1.328,3.007,3.007,0,0,1-.6-1.768h3.076a1.272,1.272,0,0,0,.488,1.069,2.009,2.009,0,0,0,1.2.337,1.58,1.58,0,0,0,1.011-.273A.875.875,0,0,0,92.246,16.031ZM107.891,19a3.716,3.716,0,0,1-.312-.947,3.06,3.06,0,0,1-2.539,1.143,3.749,3.749,0,0,1-2.539-.9,2.875,2.875,0,0,1-1.045-2.271,2.955,2.955,0,0,1,1.27-2.6,6.468,6.468,0,0,1,3.691-.879h1.016v-.559q0-1.462-1.26-1.462A1.03,1.03,0,0,0,105,11.681h-3.291a2.95,2.95,0,0,1,1.3-2.487,5.479,5.479,0,0,1,3.325-.956,4.8,4.8,0,0,1,3.193.986,3.429,3.429,0,0,1,1.2,2.705v4.678a4.79,4.79,0,0,0,.449,2.227V19Zm-2.061-2.148a1.836,1.836,0,0,0,1.021-.264,1.653,1.653,0,0,0,.581-.6V14.3h-.957q-1.719,0-1.719,1.543a.942.942,0,0,0,.3.728A1.1,1.1,0,0,0,105.83,16.852Zm9.746-8.418.107,1.24A3.583,3.583,0,0,1,118.7,8.238a3.015,3.015,0,0,1,2.466.986,4.7,4.7,0,0,1,.845,2.969V19h-3.3V12.33a1.783,1.783,0,0,0-.322-1.177,1.491,1.491,0,0,0-1.172-.376,1.569,1.569,0,0,0-1.436.762V19H112.49V8.434Zm5.459-4.355a2.847,2.847,0,0,1-.649,1.89,2.015,2.015,0,0,1-1.606.776,3.169,3.169,0,0,1-1.436-.41,2.994,2.994,0,0,0-1.279-.41.733.733,0,0,0-.532.215.892.892,0,0,0-.22.664l-1.826-.1a2.863,2.863,0,0,1,.649-1.875,1.992,1.992,0,0,1,1.6-.791,3.3,3.3,0,0,1,1.279.361,7.856,7.856,0,0,0,1,.41,1.934,1.934,0,0,0,.444.049.746.746,0,0,0,.537-.217.9.9,0,0,0,.225-.671Zm2.383,9.541a6.236,6.236,0,0,1,.615-2.817A4.4,4.4,0,0,1,125.8,8.9a5.323,5.323,0,0,1,2.705-.664,4.858,4.858,0,0,1,3.74,1.47,5.64,5.64,0,0,1,1.367,4v.117a5.472,5.472,0,0,1-1.372,3.921,4.871,4.871,0,0,1-3.716,1.45,4.927,4.927,0,0,1-3.623-1.353,5.29,5.29,0,0,1-1.475-3.667Zm3.291.205a3.932,3.932,0,0,0,.459,2.148,1.529,1.529,0,0,0,1.357.684q1.758,0,1.8-2.705v-.332q0-2.842-1.816-2.842-1.65,0-1.787,2.451ZM146,19a3.716,3.716,0,0,1-.312-.947,3.06,3.06,0,0,1-2.539,1.143,3.749,3.749,0,0,1-2.539-.9,2.875,2.875,0,0,1-1.045-2.271,2.955,2.955,0,0,1,1.27-2.6,6.468,6.468,0,0,1,3.691-.879h1.016v-.559q0-1.462-1.26-1.462a1.03,1.03,0,0,0-1.172,1.158h-3.291a2.95,2.95,0,0,1,1.3-2.487,5.479,5.479,0,0,1,3.325-.956,4.8,4.8,0,0,1,3.193.986,3.429,3.429,0,0,1,1.2,2.705v4.678a4.79,4.79,0,0,0,.449,2.227V19Zm-2.061-2.148a1.836,1.836,0,0,0,1.021-.264,1.653,1.653,0,0,0,.581-.6V14.3h-.957q-1.719,0-1.719,1.543a.942.942,0,0,0,.3.728A1.1,1.1,0,0,0,143.936,16.852Zm9.746-8.418.107,1.24a3.583,3.583,0,0,1,3.018-1.436,3.015,3.015,0,0,1,2.466.986,4.7,4.7,0,0,1,.845,2.969V19h-3.3V12.33a1.783,1.783,0,0,0-.322-1.177,1.491,1.491,0,0,0-1.172-.376,1.569,1.569,0,0,0-1.436.762V19H150.6V8.434Zm12.09-2.627V8.434h1.738v2.285h-1.738v4.834a1.234,1.234,0,0,0,.215.83,1.152,1.152,0,0,0,.85.234,4.828,4.828,0,0,0,.82-.059v2.354a6.074,6.074,0,0,1-1.855.283,3.448,3.448,0,0,1-2.51-.8,3.282,3.282,0,0,1-.811-2.432V10.719h-1.348V8.434h1.348V5.807ZM173.916,19.2a5.432,5.432,0,0,1-3.936-1.45,5.008,5.008,0,0,1-1.5-3.774V13.7a6.489,6.489,0,0,1,.6-2.861,4.395,4.395,0,0,1,1.753-1.919,5.292,5.292,0,0,1,2.734-.679A4.574,4.574,0,0,1,177.08,9.62a5.43,5.43,0,0,1,1.289,3.853v1.279h-6.543a2.372,2.372,0,0,0,.771,1.4,2.3,2.3,0,0,0,1.543.508,2.958,2.958,0,0,0,2.441-1.094l1.5,1.777a4.2,4.2,0,0,1-1.743,1.353A5.891,5.891,0,0,1,173.916,19.2Zm-.371-8.418q-1.445,0-1.719,1.914h3.32v-.254a1.63,1.63,0,0,0-.4-1.226A1.593,1.593,0,0,0,173.545,10.777Zm12.539.635L185,11.334a1.947,1.947,0,0,0-1.992.977V19h-3.291V8.434H182.8l.107,1.357a2.548,2.548,0,0,1,2.314-1.553,3.209,3.209,0,0,1,.918.117ZM190.742,19h-3.3V8.434h3.3Zm-3.5-13.291a1.469,1.469,0,0,1,.508-1.152,2.159,2.159,0,0,1,2.637,0,1.469,1.469,0,0,1,.508,1.152,1.469,1.469,0,0,1-.508,1.152,2.159,2.159,0,0,1-2.637,0A1.469,1.469,0,0,1,187.246,5.709Zm5.107,7.91a6.236,6.236,0,0,1,.615-2.817,4.4,4.4,0,0,1,1.768-1.9,5.323,5.323,0,0,1,2.705-.664,4.858,4.858,0,0,1,3.74,1.47,5.64,5.64,0,0,1,1.367,4v.117a5.472,5.472,0,0,1-1.372,3.921,4.871,4.871,0,0,1-3.716,1.45,4.927,4.927,0,0,1-3.623-1.353,5.29,5.29,0,0,1-1.475-3.667Zm3.291.205a3.932,3.932,0,0,0,.459,2.148,1.529,1.529,0,0,0,1.357.684q1.758,0,1.8-2.705v-.332q0-2.842-1.816-2.842-1.65,0-1.787,2.451Zm14.746-2.412-1.084-.078a1.947,1.947,0,0,0-1.992.977V19h-3.291V8.434h3.086l.107,1.357a2.548,2.548,0,0,1,2.314-1.553,3.209,3.209,0,0,1,.918.117Z" transform="translate(945 941.771)" fill="#12263f"/>
    <path id="Trazado_194609" data-name="Trazado 194609" d="M0,0,85,40H0Z" transform="translate(849 935.771)" fill="#ffb338"/>
    <g id="tarea-completada" transform="translate(849 904.873)">
      <path id="Trazado_203286" data-name="Trazado 203286" d="M0,20.438ZM4.438,16" transform="translate(13.875 -13.525)" fill="#ffc846"/>
      <g transform="matrix(1, 0, 0, 1, -9, -6)" filter="url(#Trazado_502571)">
        <path id="Trazado_502571-2" data-name="Trazado 502571" d="M295.256,259.628A35.628,35.628,0,1,1,259.628,224,35.629,35.629,0,0,1,295.256,259.628Zm0,0" transform="translate(-215 -218)" fill="#cee4c6"/>
      </g>
    </g>
    <g id="Grupo_881474" data-name="Grupo 881474" transform="translate(857.131 876.074)">
      <path id="Trazado_749141" data-name="Trazado 749141" d="M162.7,277.321h-8.611a.806.806,0,1,1,0-1.611H162.7a1.78,1.78,0,0,0,1.778-1.778.918.918,0,0,0-.917-.917h-8.7a12.926,12.926,0,0,0-4.555.826l-7.4,2.774a.806.806,0,0,1-.566-1.509l7.4-2.774a14.534,14.534,0,0,1,5.121-.929h8.7a2.531,2.531,0,0,1,2.528,2.528A3.393,3.393,0,0,1,162.7,277.321Z" transform="translate(-126.594 -210.052)"/>
      <path id="Trazado_749142" data-name="Trazado 749142" d="M71.939,311.986a2.533,2.533,0,0,1-2.37-1.654L69,308.78a.806.806,0,0,1,1.512-.558l.573,1.552a.916.916,0,0,0,1.177.542l4.847-1.79a.916.916,0,0,0,.542-1.177l-3.58-9.694a.917.917,0,0,0-1.177-.542l-4.847,1.79a.916.916,0,0,0-.542,1.177l1.87,5.065a.806.806,0,0,1-1.512.558l-1.87-5.065a2.528,2.528,0,0,1,1.5-3.247l4.847-1.79a2.528,2.528,0,0,1,3.247,1.5l3.58,9.694a2.528,2.528,0,0,1-1.5,3.247l-4.847,1.79A2.531,2.531,0,0,1,71.939,311.986Z" transform="translate(-58.762 -231.508)"/>
      <path id="Trazado_749143" data-name="Trazado 749143" d="M.8,337.967a.806.806,0,0,1-.279-1.562l7.18-2.652a.806.806,0,1,1,.558,1.511l-7.18,2.652A.8.8,0,0,1,.8,337.967Z" transform="translate(0 -265.659)"/>
      <path id="Trazado_749144" data-name="Trazado 749144" d="M.8,429.526a.806.806,0,0,1-.279-1.562l10.76-3.974a.806.806,0,1,1,.558,1.512l-10.76,3.974A.8.8,0,0,1,.8,429.526Z" transform="translate(0 -346.201)"/>
      <path id="Trazado_749145" data-name="Trazado 749145" d="M174.053,226.456a.806.806,0,0,1-.279-1.562l3.485-1.287a16.257,16.257,0,0,1,5.649-1.01h3.76a11.2,11.2,0,0,0,4.178-.8l8.836-3.534a6.064,6.064,0,0,0,2.742-2.186l5.44-7.857a.912.912,0,0,0,0-1.043,1.19,1.19,0,0,0-1.338-.356,1.921,1.921,0,0,0-1.025.681l-4.981,6.226a3.4,3.4,0,0,1-1.911,1.191l-5.1,1.134a.806.806,0,0,1-.35-1.573l5.1-1.134a1.783,1.783,0,0,0,1-.625l4.981-6.226a3.539,3.539,0,0,1,1.9-1.24,2.748,2.748,0,0,1,3.048,1.009,2.544,2.544,0,0,1,0,2.873l-5.44,7.857a7.671,7.671,0,0,1-3.469,2.765l-8.836,3.534a12.8,12.8,0,0,1-4.777.92h-3.76a14.648,14.648,0,0,0-5.091.91l-3.485,1.287A.807.807,0,0,1,174.053,226.456Z" transform="translate(-154.637 -150.912)"/>
      <path id="Trazado_749146" data-name="Trazado 749146" d="M208.959,109.3a8.557,8.557,0,0,1-7.094-13.34.806.806,0,0,1,1.335.9,6.94,6.94,0,1,0,2.216-2.092.806.806,0,0,1-.823-1.385,8.557,8.557,0,1,1,4.367,15.915Z" transform="translate(-178.876 -50.089)"/>
      <path id="Trazado_749147" data-name="Trazado 749147" d="M148.568,60.62a.8.8,0,0,1-.6-.27,14.583,14.583,0,1,1,22.308-.61.806.806,0,0,1-1.26-1,12.974,12.974,0,1,0-19.844.544.806.806,0,0,1-.6,1.341Z" transform="translate(-128.779)"/>
      <path id="Trazado_749148" data-name="Trazado 749148" d="M143.086,218.549a.8.8,0,0,1-.259-.043l-4.6-1.563a.806.806,0,1,1,.518-1.526l3.584,1.217.165-3.781a.806.806,0,0,1,1.61.07l-.212,4.855a.805.805,0,0,1-.8.77Z" transform="translate(-122.891 -157.103)"/>
      <path id="Trazado_749149" data-name="Trazado 749149" d="M253.782,138.484a4.748,4.748,0,0,1-2.642-.62.806.806,0,0,1,.76-1.421,3.287,3.287,0,0,0,2,.429,1.552,1.552,0,0,0,1.671-1.071c.072-.458-.266-.845-.927-1.061-.186-.061-.393-.12-.612-.182-1.182-.337-2.8-.8-3.034-2.326a2.392,2.392,0,0,1,1.961-2.628,3.966,3.966,0,0,1,3.287.523l-.981,1.278.009.007a2.363,2.363,0,0,0-1.911-.248c-.525.136-.828.46-.772.825.077.5,1.078.79,1.883,1.019.224.064.456.13.672.2a2.6,2.6,0,0,1,2.018,2.843,3.13,3.13,0,0,1-3.254,2.433Z" transform="translate(-223.783 -83.359)"/>
      <path id="Trazado_749150" data-name="Trazado 749150" d="M273.816,133.265a.806.806,0,0,1-.806-.806v-8.943a.806.806,0,1,1,1.611,0v8.943A.806.806,0,0,1,273.816,133.265Z" transform="translate(-243.683 -77.331)"/>
    </g>
  </g>
</svg>
