<svg id="Grupo_877603" data-name="Grupo 877603" xmlns="http://www.w3.org/2000/svg" xmlns:xlink="http://www.w3.org/1999/xlink" width="342.901" height="332.402" viewBox="0 0 342.901 332.402">
  <defs>
    <clipPath id="clip-path">
      <rect id="Rectángulo_327626" data-name="Rectángulo 327626" width="342.901" height="332.402" fill="none"/>
    </clipPath>
    <clipPath id="clip-path-6">
      <rect id="Rectángulo_327622" data-name="Rectángulo 327622" width="8.617" height="27.338" fill="none"/>
    </clipPath>
    <clipPath id="clip-path-7">
      <rect id="Rectángulo_327623" data-name="Rectángulo 327623" width="2.963" height="15.641" fill="none"/>
    </clipPath>
  </defs>
  <g id="Grupo_877602" data-name="Grupo 877602" clip-path="url(#clip-path)">
    <g id="Grupo_877587" data-name="Grupo 877587">
      <g id="Grupo_877586" data-name="Grupo 877586" clip-path="url(#clip-path)">
        <path id="Trazado_624430" data-name="Trazado 624430" d="M134.946,51.236H88.227a2.258,2.258,0,0,1-2.258-2.258V2.259A2.259,2.259,0,0,1,88.227,0h46.719A2.259,2.259,0,0,1,137.2,2.259V48.978a2.258,2.258,0,0,1-2.258,2.258" transform="translate(-15.279)" fill="#f0f0f0"/>
        <path id="Trazado_624431" data-name="Trazado 624431" d="M128.806,15.376h-.062a10.2,10.2,0,0,0-3.144.248,8.825,8.825,0,0,0,2.815.245c-.16.164-.386.409-.678.728l-2.491,2.794-8.2,9.438-3.463-2.314-1.793-1.193-.182-.122-.142.166c-3.661,4.281-6.9,8.1-9.209,10.867l-2.708,3.275a9.791,9.791,0,0,0-.937,1.234,9.845,9.845,0,0,0,1.076-1.116l2.823-3.176c2.346-2.671,5.577-6.394,9.188-10.6l1.61,1.075,3.645,2.425.18.12.139-.164,8.212-9.711,2.38-2.889c.306-.379.522-.655.658-.838h.035a8.923,8.923,0,0,0,.245,2.835,9.925,9.925,0,0,0,.247-3.081v-.248Z" transform="translate(-17.526 -2.733)" fill="#e0e0e0"/>
        <path id="Trazado_624432" data-name="Trazado 624432" d="M287.779,36.172h25.065A25.064,25.064,0,1,1,287.2,11.115Z" transform="translate(-46.691 -1.975)" fill="#f0f0f0"/>
        <path id="Trazado_624433" data-name="Trazado 624433" d="M301.29,28.74l-.567-25.064a26.438,26.438,0,0,1,18.046,7.1,25.767,25.767,0,0,1,7.575,17.574Z" transform="translate(-53.446 -0.653)" fill="#ebebeb"/>
        <path id="Trazado_624434" data-name="Trazado 624434" d="M305.6,166.752c-.144,4.6.121,18.646.121,18.646l4.143-4.143h23.115a1.468,1.468,0,0,0,1.469-1.469V166.794a1.468,1.468,0,0,0-1.469-1.469H307.067a1.47,1.47,0,0,0-1.469,1.427" transform="translate(-54.305 -29.382)" fill="#ebebeb"/>
        <path id="Trazado_624435" data-name="Trazado 624435" d="M319.521,174.808a1.088,1.088,0,1,1-1.088-1.088,1.088,1.088,0,0,1,1.088,1.088" transform="translate(-56.4 -30.874)" fill="#e0e0e0"/>
        <path id="Trazado_624436" data-name="Trazado 624436" d="M323.977,174.808a1.088,1.088,0,1,1-1.088-1.088,1.088,1.088,0,0,1,1.088,1.088" transform="translate(-57.192 -30.874)" fill="#e0e0e0"/>
        <path id="Trazado_624437" data-name="Trazado 624437" d="M328.433,174.808a1.088,1.088,0,1,1-1.088-1.088,1.088,1.088,0,0,1,1.088,1.088" transform="translate(-57.984 -30.874)" fill="#e0e0e0"/>
        <path id="Trazado_624438" data-name="Trazado 624438" d="M76.389,234.921C77,226.915,82.9,214.53,90.125,211.037a23.537,23.537,0,0,1,22.951,1.651c4.535,3.061,7.969,7.72,12.932,10.025,9.809,4.555,21.446-1.9,28.3-10.265s11.146-18.754,18.894-26.3a39.149,39.149,0,0,1,55.99,1.4c5.272,5.673,8.728,12.749,12.958,19.235s9.673,12.713,17.029,15.139c10.109,3.334,21.518-1.562,28.672-9.445s10.866-18.236,13.964-28.42,5.831-20.675,11.524-29.67,15.061-16.437,25.7-16.722v96.947Z" transform="translate(-13.576 -24.466)" fill="#f0f0f0"/>
      </g>
    </g>
    <g id="Grupo_877589" data-name="Grupo 877589">
      <g id="Grupo_877588" data-name="Grupo 877588" clip-path="url(#clip-path)">
        <path id="Trazado_624439" data-name="Trazado 624439" d="M342.9,403.94c0,.118-76.767.215-171.442.215C76.751,404.154,0,404.058,0,403.94s76.751-.214,171.459-.214c94.675,0,171.442.1,171.442.214" transform="translate(0 -71.752)" fill="#263238"/>
      </g>
    </g>
    <g id="Grupo_877591" data-name="Grupo 877591">
      <g id="Grupo_877590" data-name="Grupo 877590" clip-path="url(#clip-path)">
        <path id="Trazado_624440" data-name="Trazado 624440" d="M329.2,139.849a3,3,0,0,0,.493-.1,1.628,1.628,0,0,0,1.006-.989,2.874,2.874,0,0,0,.091-1.071q0-.608-.01-1.326c-.006-.96-.012-2.066-.02-3.307-.016-4.992-.039-12.19-.068-21.077-.008-4.451-.016-9.324-.026-14.555q0-3.923-.01-8.108,0-2.091,0-4.24c-.012-.7.021-1.473-.026-2.13a1.448,1.448,0,0,0-1.331-1.195l-38.265.012a1.436,1.436,0,0,0-1.433,1.388q0,1.263,0,2.517,0,2.514,0,5,0,4.96,0,9.766c0,6.4-.009,12.579-.013,18.463s-.013,11.473-.019,16.706q0,.982,0,1.946a7.327,7.327,0,0,0,.024.927,1.473,1.473,0,0,0,1.1,1.164,4.307,4.307,0,0,0,.891.044l1.839,0,6.984.014,21.076.067,5.73.04,1.49.021c.335.007.507.022.507.022s-.172.015-.507.021l-1.49.021-5.73.04L300.4,140l-6.984.014-1.839,0a4.5,4.5,0,0,1-.969-.05,1.815,1.815,0,0,1-1.363-1.432,7.428,7.428,0,0,1-.033-.989q0-.965,0-1.946c-.006-5.233-.012-10.824-.019-16.706s-.008-12.06-.013-18.463q0-4.8,0-9.766,0-2.48,0-5l0-2.529a1.865,1.865,0,0,1,1.861-1.8l38.29.023a1.841,1.841,0,0,1,1.691,1.521c.057.789.014,1.465.026,2.2q0,2.149,0,4.24,0,4.181-.011,8.108c-.009,5.231-.018,10.1-.026,14.555-.029,8.887-.052,16.085-.067,21.077-.007,1.242-.014,2.347-.02,3.307q-.006.717-.011,1.326a2.944,2.944,0,0,1-.117,1.1,1.661,1.661,0,0,1-1.075,1,1.281,1.281,0,0,1-.507.057" transform="translate(-51.393 -14.455)" fill="#263238"/>
        <path id="Trazado_624441" data-name="Trazado 624441" d="M314.986,95.522c-5.593-1.241-11.731,1.8-13.3,7.56a11.028,11.028,0,0,0,21.128,6.305c1.995-5.913-1.8-12.282-7.516-14.167-.664-.219-.928.8-.286,1.037,4.875,1.786,8.377,7.049,6.92,12.319a10.5,10.5,0,0,1-12.282,7.035c-4.825-1.281-7.94-6.461-7.326-11.287.751-5.91,7.008-9.451,12.577-8.483.206.035.3-.271.087-.318" transform="translate(-53.556 -16.918)" fill="#263238"/>
        <path id="Trazado_624442" data-name="Trazado 624442" d="M311.124,116.3a11.314,11.314,0,0,0,14-7.424c1.745-6.009-2.141-12.5-7.992-14.289-1.349-.413-1.831,1.58-.571,2.074,4.957,1.939,8.24,7.309,6.281,12.581-1.742,4.689-6.878,6.951-11.634,6.41-.381-.043-.428.544-.087.648" transform="translate(-55.254 -16.8)" fill="#ffb338"/>
        <path id="Trazado_624443" data-name="Trazado 624443" d="M323.639,132.911c0,.118-5.089.215-11.365.215s-11.367-.1-11.367-.215,5.088-.214,11.367-.214,11.365.1,11.365.214" transform="translate(-53.478 -23.584)" fill="#e8505b"/>
        <path id="Trazado_624444" data-name="Trazado 624444" d="M323.639,137.1c0,.118-5.089.215-11.365.215s-11.367-.1-11.367-.215,5.088-.214,11.367-.214,11.365.1,11.365.214" transform="translate(-53.478 -24.329)" fill="#e8505b"/>
        <path id="Trazado_624445" data-name="Trazado 624445" d="M140.108,36.856v76.028a3.058,3.058,0,0,0,3.058,3.059H244.437a3.057,3.057,0,0,0,3.057-3.059V34.213a3.058,3.058,0,0,0-3.138-3.057L143.086,33.8a3.059,3.059,0,0,0-2.978,3.057" transform="translate(-24.901 -5.537)" fill="#e0e0e0"/>
        <path id="Trazado_624446" data-name="Trazado 624446" d="M239.781,53.62c-.038.08-1.29-.646-3.746-1.423a24.084,24.084,0,0,0-10.745-.8,23.474,23.474,0,0,0-7.087,2.277,33.41,33.41,0,0,0-6.968,5.012c-2.285,2.016-4.553,4.306-7.169,6.422a24.713,24.713,0,0,1-9.15,4.953,13.847,13.847,0,0,1-5.342.322,17.323,17.323,0,0,1-4.951-1.529,86.508,86.508,0,0,1-8.293-4.931,25.883,25.883,0,0,0-7.8-3.5,23.2,23.2,0,0,0-7.419-.569,23.893,23.893,0,0,0-10.241,3.335c-2.2,1.343-3.234,2.353-3.293,2.282a5.213,5.213,0,0,1,.744-.732A17.821,17.821,0,0,1,150.7,62.93a23.367,23.367,0,0,1,17.98-3.144,26.242,26.242,0,0,1,8.028,3.512,88.835,88.835,0,0,0,8.238,4.849,14.115,14.115,0,0,0,9.771,1.144,24.175,24.175,0,0,0,8.858-4.79c2.575-2.069,4.854-4.343,7.172-6.364a33.526,33.526,0,0,1,7.155-5.05A23.737,23.737,0,0,1,236.132,51.9a19.046,19.046,0,0,1,2.751,1.184,5.139,5.139,0,0,1,.9.534" transform="translate(-26.228 -8.997)" fill="#455a64"/>
        <rect id="Rectángulo_327615" data-name="Rectángulo 327615" width="9.905" height="26.791" transform="translate(139.125 62.482)" fill="#3d672f"/>
        <rect id="Rectángulo_327616" data-name="Rectángulo 327616" width="9.905" height="26.791" transform="translate(181.157 62.482)" fill="#3d672f"/>
        <rect id="Rectángulo_327617" data-name="Rectángulo 327617" width="9.905" height="42.522" transform="translate(195.169 46.75)" fill="#3d672f"/>
        <rect id="Rectángulo_327618" data-name="Rectángulo 327618" width="9.905" height="9.016" transform="translate(126.306 80.839)" fill="#455a64"/>
        <rect id="Rectángulo_327619" data-name="Rectángulo 327619" width="9.906" height="14.692" transform="translate(153.136 74.58)" fill="#3d672f"/>
        <rect id="Rectángulo_327620" data-name="Rectángulo 327620" width="9.905" height="18.065" transform="translate(167.146 71.207)" fill="#3d672f"/>
        <path id="Trazado_624447" data-name="Trazado 624447" d="M179.414,112.322c0,.22-2.4.4-5.351.4s-5.352-.178-5.352-.4,2.4-.4,5.352-.4,5.351.178,5.351.4" transform="translate(-29.984 -19.892)" fill="#263238"/>
        <path id="Trazado_624448" data-name="Trazado 624448" d="M164.423,112.322c0,.22-2.4.4-5.351.4s-5.352-.178-5.352-.4,2.4-.4,5.352-.4,5.351.178,5.351.4" transform="translate(-27.32 -19.892)" fill="#263238"/>
        <path id="Trazado_624449" data-name="Trazado 624449" d="M249.158,112.322c0,.22-2.709.4-6.05.4s-6.049-.178-6.049-.4,2.708-.4,6.049-.4,6.05.178,6.05.4" transform="translate(-42.131 -19.892)" fill="#263238"/>
        <path id="Trazado_624450" data-name="Trazado 624450" d="M231.261,112.322c0,.22-2.709.4-6.049.4s-6.05-.178-6.05-.4,2.709-.4,6.05-.4,6.049.178,6.049.4" transform="translate(-38.95 -19.892)" fill="#263238"/>
        <path id="Trazado_624451" data-name="Trazado 624451" d="M213.007,112.322c0,.22-2.4.4-5.351.4s-5.352-.178-5.352-.4,2.4-.4,5.352-.4,5.351.178,5.351.4" transform="translate(-35.954 -19.892)" fill="#263238"/>
        <path id="Trazado_624452" data-name="Trazado 624452" d="M195.4,112.322c0,.22-2.4.4-5.351.4s-5.352-.178-5.352-.4,2.4-.4,5.352-.4,5.351.178,5.351.4" transform="translate(-32.825 -19.892)" fill="#263238"/>
        <path id="Trazado_624453" data-name="Trazado 624453" d="M218.413,152.974a.947.947,0,0,1,.17,0,1.34,1.34,0,0,1,.485.141,1.409,1.409,0,0,1,.592.583,2.193,2.193,0,0,1,.17,1.135c.009,1.746.023,4.3.04,7.582s.023,7.326.037,12q.009,3.512.016,7.5,0,1,0,2.02l0,1.03a1.941,1.941,0,0,1-.2,1.086,1.523,1.523,0,0,1-.9.708,4.8,4.8,0,0,1-1.108.063l-2.185,0,.153-.154c0,2.371.008,4.932.012,7.585v.437l-.29-.326-6.717-7.576.134.06-69.254.036h-4.837c-.277,0-.515.008-.822-.007a1.589,1.589,0,0,1-1.36-1.1,1.632,1.632,0,0,1-.074-.453l0-.4v-1.592q0-1.589,0-3.166,0-6.31,0-12.425t.006-11.991l0-1.474a1.575,1.575,0,0,1,.862-1.341,1.619,1.619,0,0,1,.794-.171h2.165l5.682,0,39.769.046,26.81.068,7.289.04,1.9.021c.428.007.646.021.646.021s-.219.015-.646.022l-1.9.021-7.289.04-26.81.067L142,153.171l-5.682,0h-2.165a1.208,1.208,0,0,0-.61.127,1.166,1.166,0,0,0-.639,1l0,1.457q0,5.877.006,11.991t0,12.425q0,1.578,0,3.166v1.592a2.378,2.378,0,0,0,.055.726,1.161,1.161,0,0,0,.993.8c.226.011.523,0,.782.006h4.837l69.254.036h.081l.053.06,6.7,7.593-.289.109c0-2.653.007-5.213.012-7.585v-.154h.154l2.185,0a4.733,4.733,0,0,0,1.026-.047,1.23,1.23,0,0,0,.724-.569,1.648,1.648,0,0,0,.164-.941l0-1.03q0-1.025,0-2.02.007-3.981.016-7.5c.014-4.678.026-8.708.036-12s.031-5.837.041-7.582a2.138,2.138,0,0,0-.141-1.1,1.372,1.372,0,0,0-.554-.575,1.675,1.675,0,0,0-.634-.181" transform="translate(-23.546 -27.151)" fill="#263238"/>
        <path id="Trazado_624454" data-name="Trazado 624454" d="M138.1,182.632a18.129,18.129,0,0,1,3.1-6.787c1.608-1.923,4.211-3.213,6.637-2.589,3.834.986,5.689,6.095,9.613,6.619,2.169.29,4.282-1.009,5.68-2.692a36.1,36.1,0,0,0,3.329-5.644,16.4,16.4,0,0,1,6.761-6.961c2.953-1.44,6.746-1.446,9.327.586,4.425,3.484,3.808,11.176,8.524,14.256a6.829,6.829,0,0,0,7.6-.226c2.09-1.549,3.165-4.231,5.365-5.621,2.548-1.609,6.089-.979,8.395.961a12.6,12.6,0,0,1,3.953,7.909" transform="translate(-24.543 -29.069)" fill="#ffb338"/>
        <path id="Trazado_624455" data-name="Trazado 624455" d="M215.137,169.569a.748.748,0,0,1-.193-.075l-.545-.254a14.354,14.354,0,0,0-2.184-.736,17.484,17.484,0,0,0-8.386.244,32.049,32.049,0,0,0-5.485,2.039c-1.914.89-3.9,1.969-6.015,3.07a47.911,47.911,0,0,1-6.852,3.038,20.017,20.017,0,0,1-7.972,1.113,26.463,26.463,0,0,1-7.812-1.973c-2.419-.968-4.65-2.118-6.776-3.186-4.227-2.167-8.184-3.9-11.739-4.433a16.776,16.776,0,0,0-8.358.609,16.094,16.094,0,0,0-2.79,1.372c0-.006.049-.05.16-.131l.493-.349a11.571,11.571,0,0,1,2.079-1.048,16.583,16.583,0,0,1,8.462-.752c3.615.5,7.63,2.23,11.87,4.379,2.133,1.059,4.357,2.2,6.755,3.149a26.231,26.231,0,0,0,7.687,1.936,19.7,19.7,0,0,0,7.808-1.084,48.31,48.31,0,0,0,6.8-2.991c2.114-1.088,4.113-2.159,6.047-3.042a31.8,31.8,0,0,1,5.56-2.01,17.251,17.251,0,0,1,8.5-.113,9.617,9.617,0,0,1,2.881,1.227" transform="translate(-24.887 -29.834)" fill="#263238"/>
        <path id="Trazado_624456" data-name="Trazado 624456" d="M186.378,163.375a.865.865,0,1,1-.865-.864.865.865,0,0,1,.865.864" transform="translate(-32.817 -28.882)" fill="#455a64"/>
        <path id="Trazado_624457" data-name="Trazado 624457" d="M148.693,167.821a.865.865,0,1,1-.864-.865.865.865,0,0,1,.864.865" transform="translate(-26.119 -29.672)" fill="#455a64"/>
        <path id="Trazado_624458" data-name="Trazado 624458" d="M223.668,167.827a.864.864,0,1,1-.864-.865.864.864,0,0,1,.864.865" transform="translate(-39.444 -29.673)" fill="#455a64"/>
      </g>
    </g>
    <g id="Grupo_877599" data-name="Grupo 877599">
      <g id="Grupo_877598" data-name="Grupo 877598" clip-path="url(#clip-path)">
        <path id="Trazado_624459" data-name="Trazado 624459" d="M281.919,314.473h7.709c3.59,0,11.3-9.452-30.512-8.372-27.481.709-29.285,4.765-27.894,7.134a3.417,3.417,0,0,0,3.216,1.606c.669-.049,1.558-.059,2.611-.054l-.658,2.9h0l-15.3,67.606,2.667-.231,11.295-37.227,21.554-.826,1.233,39.566h3.381l.815-39.774.1,0,2.278-.088,19.107-.733,11.319,40.6h3.244Zm-45.26,28.071,7.542-24.857.854-2.814c3.162,0,6.854-.073,10.549-.073l.845,27.124Zm28.42-.891h0l-.836.025-2.1.067.558-27.272h12.044l7.428,26.645Z" transform="translate(-39.294 -54.387)" fill="#455a64"/>
        <path id="Trazado_624460" data-name="Trazado 624460" d="M209.038,396.428v-8.739l15.659-.105.13,13.068-.971.072c-4.319.278-21.981.82-24.875-.077-3.227-1,10.058-4.22,10.058-4.22" transform="translate(-35.274 -68.883)" fill="#e8505b"/>
        <path id="Trazado_624461" data-name="Trazado 624461" d="M198.639,402.441c0,.147,5.857.266,13.082.266s13.082-.119,13.082-.266-5.856-.266-13.082-.266-13.082.119-13.082.266" transform="translate(-35.303 -71.476)" fill="#263238"/>
        <path id="Trazado_624462" data-name="Trazado 624462" d="M210.728,400.162c.129-.068.018-.53-.318-.984s-.744-.7-.847-.6.109.49.419.912.616.739.747.669" transform="translate(-37.24 -70.834)" fill="#263238"/>
        <path id="Trazado_624463" data-name="Trazado 624463" d="M209.532,400.795c.136-.05.066-.568-.243-1.113s-.714-.873-.827-.784.08.538.364,1.045.567.905.706.852" transform="translate(-37.043 -70.891)" fill="#263238"/>
        <path id="Trazado_624464" data-name="Trazado 624464" d="M224.718,401.765c.061.043.294-.187.633-.571a10.243,10.243,0,0,1,1.373-1.376,3.6,3.6,0,0,1,1.694-.74c.476-.064.789.01.815-.067.028-.057-.263-.275-.827-.309a3.12,3.12,0,0,0-2.006.694,5.733,5.733,0,0,0-1.353,1.576c-.267.45-.388.752-.329.793" transform="translate(-39.935 -70.858)" fill="#263238"/>
        <path id="Trazado_624465" data-name="Trazado 624465" d="M210.925,398.5c-.076.123.192.427.639.59s.849.108.869-.036-.294-.317-.685-.463-.746-.218-.823-.091" transform="translate(-37.484 -70.811)" fill="#263238"/>
        <path id="Trazado_624466" data-name="Trazado 624466" d="M211.227,397.428c-.015.146.4.272.932.279s.949-.107.939-.253-.428-.271-.932-.279-.925.107-.939.253" transform="translate(-37.54 -70.588)" fill="#263238"/>
        <path id="Trazado_624467" data-name="Trazado 624467" d="M249.238,396.428v-8.739l15.66-.105.129,13.068-.971.072c-4.319.278-21.981.82-24.875-.077-3.227-1,10.058-4.22,10.058-4.22" transform="translate(-42.418 -68.883)" fill="#e8505b"/>
        <path id="Trazado_624468" data-name="Trazado 624468" d="M238.839,402.441c0,.147,5.858.266,13.082.266S265,402.589,265,402.441s-5.856-.266-13.082-.266-13.082.119-13.082.266" transform="translate(-42.448 -71.476)" fill="#263238"/>
        <path id="Trazado_624469" data-name="Trazado 624469" d="M250.928,400.162c.129-.068.018-.53-.318-.984s-.744-.7-.846-.6.109.49.418.912.616.739.747.669" transform="translate(-44.384 -70.834)" fill="#263238"/>
        <path id="Trazado_624470" data-name="Trazado 624470" d="M249.732,400.795c.137-.05.066-.568-.243-1.113s-.714-.873-.827-.784.08.538.364,1.045.567.905.706.852" transform="translate(-44.187 -70.891)" fill="#263238"/>
        <path id="Trazado_624471" data-name="Trazado 624471" d="M264.918,401.765c.061.043.294-.187.633-.571a10.292,10.292,0,0,1,1.373-1.376,3.6,3.6,0,0,1,1.694-.74c.476-.064.789.01.816-.067.027-.057-.264-.275-.828-.309a3.117,3.117,0,0,0-2.006.694,5.723,5.723,0,0,0-1.353,1.576c-.267.45-.388.752-.329.793" transform="translate(-47.08 -70.858)" fill="#263238"/>
        <path id="Trazado_624472" data-name="Trazado 624472" d="M251.125,398.5c-.076.123.192.427.639.59s.849.108.87-.036-.294-.317-.686-.463-.746-.218-.823-.091" transform="translate(-44.629 -70.811)" fill="#263238"/>
        <path id="Trazado_624473" data-name="Trazado 624473" d="M251.427,397.428c-.014.146.4.272.932.279s.95-.107.939-.253-.428-.271-.932-.279-.925.107-.939.253" transform="translate(-44.685 -70.588)" fill="#263238"/>
        <path id="Trazado_624474" data-name="Trazado 624474" d="M300.962,201.35c-.645-.143-1.444-.06-1.829-.6-.349-.488-.105-1.16.1-1.727a8.189,8.189,0,0,0,.058-5.661,6.385,6.385,0,0,0-2.357-2.969,2.663,2.663,0,0,0,.4-.511,3.543,3.543,0,0,0,.444-1.8,3.963,3.963,0,0,0-1.2-3,1.906,1.906,0,0,0-2.574-.033,1.31,1.31,0,0,0-.036,1.915,1.2,1.2,0,0,0,1.25.157.588.588,0,0,0,.316-.313c-.019-.018-.1.131-.352.234a1.05,1.05,0,0,1-1.006-1.825,1.646,1.646,0,0,1,2.209.1,3.675,3.675,0,0,1,1.042,2.764,3.2,3.2,0,0,1-.413,1.606,2.315,2.315,0,0,1-.4.49,5.285,5.285,0,0,0-1.413-.577,13.808,13.808,0,0,1-3.189-.7,3.871,3.871,0,0,1-1.729-2.074c-.006-.1-.016-.191-.015-.288a40.733,40.733,0,0,1,.59-4.264,13.073,13.073,0,0,0-.112-4.085,7.669,7.669,0,0,0-3.917-5.51,5.36,5.36,0,0,0-4.566-.082,4.145,4.145,0,0,0-1.057.7c-.078.076-.124.127-.17.178a3.767,3.767,0,0,0-1.256,1.006l-2.538,22.841,18.582,11.356a13.854,13.854,0,0,0,4.235-.858,4.686,4.686,0,0,0,2.829-3.078,2.871,2.871,0,0,0-1.916-3.4m-12.2-23.92a7.167,7.167,0,0,0-3.774-4.1,4.905,4.905,0,0,0-3.756.065,4.787,4.787,0,0,1,1.089-.631,5.269,5.269,0,0,1,4.365.2,7.41,7.41,0,0,1,3.666,5.314,12.861,12.861,0,0,1,.082,3.96c-.1,1.025-.391,2.065-.528,3.17a21.963,21.963,0,0,1-.173-2.353,17.136,17.136,0,0,0-.969-5.622" transform="translate(-49.271 -30.593)" fill="#263238"/>
        <path id="Trazado_624475" data-name="Trazado 624475" d="M279.516,175.35a2,2,0,0,0-.727-1.1,3.016,3.016,0,0,0-2.223-.1l-.043-5.242-10.25-8.307-5.494,2.853a8.6,8.6,0,0,0-4.641,7.715c.04,4.226.146,9.959.425,13.211.478,5.588,6.136,6.049,6.136,6.049s.244,2.015.413,4.018c0,.011-1.244,16.554,4.58,16.4,4.292-.109,7.176-9.131,8.4-13.875l.643-2.607,0-.135.022-.109-.023,0-.128-15.7.178.18a1.216,1.216,0,0,0,1.353.164,2.5,2.5,0,0,0,1.344-1.432,3.127,3.127,0,0,0,.039-1.984" transform="translate(-45.522 -28.542)" fill="#ffbe9d"/>
        <path id="Trazado_624476" data-name="Trazado 624476" d="M257.753,178.263a.716.716,0,1,0,.7-.733.715.715,0,0,0-.7.733" transform="translate(-45.809 -31.551)" fill="#263238"/>
        <path id="Trazado_624477" data-name="Trazado 624477" d="M256.883,177.3c.095.09.613-.372,1.383-.433s1.358.3,1.437.192c.039-.048-.062-.215-.32-.383a1.9,1.9,0,0,0-2.25.192c-.225.209-.3.391-.25.431" transform="translate(-45.652 -31.35)" fill="#263238"/>
        <path id="Trazado_624478" data-name="Trazado 624478" d="M267.859,177.964a.716.716,0,1,0,.7-.733.716.716,0,0,0-.7.733" transform="translate(-47.605 -31.498)" fill="#263238"/>
        <path id="Trazado_624479" data-name="Trazado 624479" d="M267.291,176.992c.095.09.613-.372,1.383-.433s1.358.3,1.436.192c.039-.047-.062-.215-.32-.383a1.905,1.905,0,0,0-2.25.192c-.225.209-.3.391-.25.432" transform="translate(-47.502 -31.295)" fill="#263238"/>
        <path id="Trazado_624480" data-name="Trazado 624480" d="M263.66,183.791a4.88,4.88,0,0,1-1.269.1,1.267,1.267,0,0,1-.337-.022.489.489,0,0,1-.341-.274,1.253,1.253,0,0,1,.056-.815q.222-.771.465-1.618a28.254,28.254,0,0,1,1.388-4.1,28.332,28.332,0,0,1-1.069,4.2q-.257.844-.49,1.611a1.092,1.092,0,0,0-.1.619c.041.137.229.164.428.169a4.861,4.861,0,0,1,1.265.136" transform="translate(-46.504 -31.468)" fill="#263238"/>
        <path id="Trazado_624481" data-name="Trazado 624481" d="M266.513,186.012a10.768,10.768,0,0,1-3.8,1.412,2.135,2.135,0,0,0,2.575.664,1.771,1.771,0,0,0,1.224-2.075" transform="translate(-46.691 -33.058)" fill="#fafafa"/>
        <path id="Trazado_624482" data-name="Trazado 624482" d="M264.117,196.294a13.98,13.98,0,0,0,7.354-2.685s-1.58,4.15-7.2,4.055Z" transform="translate(-46.94 -34.409)" fill="#eb996e"/>
        <path id="Trazado_624483" data-name="Trazado 624483" d="M255.183,171.759c2.436.339,4.236-.329,6.622-.929a7.675,7.675,0,0,0,5.482-4.49,8.414,8.414,0,0,0,2.04,4.106c.228.251.656.482.859.211a.611.611,0,0,0,.024-.513q-.247-.977-.493-1.952a15.78,15.78,0,0,0,3.249,4.07c1.363,1.091,5.511,2.786,4.884,1.157-.158-.409,1.232-13.091-10.821-13.281s-11.846,11.621-11.846,11.621" transform="translate(-45.352 -28.46)" fill="#263238"/>
        <path id="Trazado_624484" data-name="Trazado 624484" d="M281.161,178.6c-.034-.035.209-.289.726-.274a1.348,1.348,0,0,1,0,2.693c-.518.013-.759-.241-.725-.276.029-.059.292.061.689-.024a1.063,1.063,0,0,0,0-2.092c-.4-.086-.66.033-.689-.027" transform="translate(-49.968 -31.693)" fill="#eb996e"/>
        <path id="Trazado_624485" data-name="Trazado 624485" d="M292.861,222.084l2.072-.42s-4.515-20.294-20.2-20.294c-.659,0-1.28,0-1.885,0,0,.006-.009.045-.021.105v.135l-.642,2.607c-1.222,4.745-4.106,13.767-8.4,13.875-5.434.139-4.717-14.243-4.595-16.183a1.352,1.352,0,0,0-.4.105s-17.064.95-24.635,15.913l13.155,9.613,3.219-1.945s1.048,21.169-.758,26.929c-2.044,6.517-5.2,13.73-5.2,13.73,14.47-1.127,30.918-.483,48.46,1.138l-11.722-42.97a39.942,39.942,0,0,0,11.551-2.342" transform="translate(-41.616 -35.788)" fill="#2b95f9"/>
        <path id="Trazado_624486" data-name="Trazado 624486" d="M285.556,238.8c.019.019-.1.188-.365.458a7.392,7.392,0,0,1-1.244,1,8.673,8.673,0,0,1-9.967-.363,7.355,7.355,0,0,1-1.167-1.087c-.242-.289-.352-.466-.331-.484.056-.052.586.591,1.674,1.323a8.986,8.986,0,0,0,9.635.351c1.137-.652,1.714-1.254,1.765-1.2" transform="translate(-48.426 -42.356)" fill="#263238"/>
        <path id="Trazado_624487" data-name="Trazado 624487" d="M295.85,247.021a5.117,5.117,0,0,1-.358-1.013c-.223-.742-.5-1.678-.84-2.8-.7-2.362-1.677-5.624-2.811-9.206s-2.215-6.813-3-9.148c-.37-1.106-.68-2.034-.924-2.769a5.233,5.233,0,0,1-.291-1.034,4.992,4.992,0,0,1,.447.976c.263.638.624,1.569,1.053,2.725.862,2.311,1.988,5.529,3.126,9.12s2.069,6.868,2.695,9.253c.314,1.194.555,2.162.708,2.835a5.165,5.165,0,0,1,.2,1.056" transform="translate(-51.117 -39.287)" fill="#263238"/>
        <path id="Trazado_624488" data-name="Trazado 624488" d="M290.575,212.8a7.726,7.726,0,0,1-3.965-1.695,19.121,19.121,0,0,1,3.965,1.695" transform="translate(-50.937 -37.515)" fill="#263238"/>
        <path id="Trazado_624489" data-name="Trazado 624489" d="M296.348,220.719a14.259,14.259,0,0,1,1.553-4.675,14.31,14.31,0,0,1-1.553,4.675" transform="translate(-52.664 -38.396)" fill="#263238"/>
        <path id="Trazado_624490" data-name="Trazado 624490" d="M279.223,226.986a19.486,19.486,0,0,1,2.013-4.154,9.279,9.279,0,0,1-2.013,4.154" transform="translate(-49.622 -39.602)" fill="#263238"/>
        <path id="Trazado_624491" data-name="Trazado 624491" d="M275.418,232.526a9.048,9.048,0,0,1-3.256-3.608c.1-.071.806.753,1.7,1.741a9.73,9.73,0,0,1,1.557,1.867" transform="translate(-48.368 -40.684)" fill="#263238"/>
        <path id="Trazado_624492" data-name="Trazado 624492" d="M287.6,232.49a7.636,7.636,0,0,1-1.761,2.351,12.241,12.241,0,0,1-2.033,1.76l-.608.372.482-.487c.114-.115.189-.17.214-.152s0,.106-.074.252l-.126-.114c.288-.351,1.016-1.067,1.837-1.926a15.122,15.122,0,0,1,2.07-2.055" transform="translate(-50.331 -41.319)" fill="#263238"/>
        <path id="Trazado_624493" data-name="Trazado 624493" d="M290.291,249.8a8.716,8.716,0,0,1-4.173-2.472,34.939,34.939,0,0,1,4.173,2.472" transform="translate(-50.85 -43.954)" fill="#263238"/>
        <path id="Trazado_624494" data-name="Trazado 624494" d="M278.062,246.261a14.436,14.436,0,0,1-2.811,4.082,14.435,14.435,0,0,1,2.811-4.082" transform="translate(-48.917 -43.766)" fill="#263238"/>
        <path id="Trazado_624495" data-name="Trazado 624495" d="M269.761,246.526a4.928,4.928,0,0,1-1.719-1.073c-.877-.686-1.528-1.316-1.455-1.41a4.936,4.936,0,0,1,1.719,1.073c.877.686,1.528,1.317,1.455,1.41" transform="translate(-47.378 -43.37)" fill="#263238"/>
        <path id="Trazado_624496" data-name="Trazado 624496" d="M265.322,234.93c.068.1-.574.672-1.435,1.286s-1.615,1.034-1.684.937.574-.672,1.436-1.286,1.614-1.033,1.683-.937" transform="translate(-46.599 -41.75)" fill="#263238"/>
        <path id="Trazado_624497" data-name="Trazado 624497" d="M263.8,228.062c-.095.072-.688-.554-1.327-1.4s-1.08-1.585-.987-1.656.689.554,1.328,1.4,1.08,1.585.986,1.656" transform="translate(-46.47 -39.989)" fill="#263238"/>
        <path id="Trazado_624498" data-name="Trazado 624498" d="M282.123,211.5a10.918,10.918,0,0,1,2.034-3.8,10.954,10.954,0,0,1-2.034,3.8" transform="translate(-50.137 -36.913)" fill="#263238"/>
        <path id="Trazado_624499" data-name="Trazado 624499" d="M258.986,212.823A12.92,12.92,0,0,1,255,210.37a12.921,12.921,0,0,1,3.986,2.453" transform="translate(-45.319 -37.386)" fill="#263238"/>
        <path id="Trazado_624500" data-name="Trazado 624500" d="M247.8,210.367c.1.06-.2.761-.68,1.565s-.946,1.408-1.048,1.348.2-.761.68-1.566.946-1.407,1.048-1.347" transform="translate(-43.73 -37.387)" fill="#263238"/>
        <path id="Trazado_624501" data-name="Trazado 624501" d="M259.5,277.368a11.964,11.964,0,0,1-3.748-2.505,11.989,11.989,0,0,1,3.748,2.505" transform="translate(-45.453 -48.848)" fill="#263238"/>
        <path id="Trazado_624502" data-name="Trazado 624502" d="M293.092,274.308a5.9,5.9,0,0,1-1.34,1.773c-.828.9-1.569,1.564-1.656,1.483a5.9,5.9,0,0,1,1.34-1.773c.828-.9,1.569-1.564,1.656-1.483" transform="translate(-51.556 -48.75)" fill="#263238"/>
        <path id="Trazado_624503" data-name="Trazado 624503" d="M271.014,277.342c-.119-.03-.025-.757-.028-1.646s-.091-1.616.028-1.645.4.694.4,1.645-.29,1.678-.4,1.646" transform="translate(-48.155 -48.705)" fill="#263238"/>
        <path id="Trazado_624504" data-name="Trazado 624504" d="M282.023,277.745a11.588,11.588,0,0,1-3.788-2.3,11.551,11.551,0,0,1,3.788,2.3" transform="translate(-49.449 -48.951)" fill="#263238"/>
        <path id="Trazado_624505" data-name="Trazado 624505" d="M295.284,281.217a2.1,2.1,0,0,1-.495-.01l-1.411-.11-5.182-.465c-4.374-.381-10.42-.918-17.115-1.029-6.7-.127-12.764.039-17.152.21l-5.2.222-1.413.053a2.032,2.032,0,0,1-.5-.011,2.211,2.211,0,0,1,.489-.076l1.409-.134c1.224-.1,3-.234,5.193-.358,4.388-.247,10.463-.464,17.175-.336,6.713.11,12.767.7,17.137,1.156,2.185.234,3.95.445,5.17.6l1.4.191a2.167,2.167,0,0,1,.486.1" transform="translate(-43.867 -49.61)" fill="#263238"/>
        <g id="Grupo_877594" data-name="Grupo 877594" transform="translate(236.507 181.769)" opacity="0.2">
          <g id="Grupo_877593" data-name="Grupo 877593">
            <g id="Grupo_877592" data-name="Grupo 877592" clip-path="url(#clip-path-6)">
              <path id="Trazado_624506" data-name="Trazado 624506" d="M287.625,221.056l4.114,27.338s3.81-.032,4.5-1.132Z" transform="translate(-287.625 -221.056)"/>
              <path id="Trazado_624507" data-name="Trazado 624507" d="M287.625,221.056l4.114,27.338s3.81-.032,4.5-1.132Z" transform="translate(-287.625 -221.056)"/>
            </g>
          </g>
        </g>
        <path id="Trazado_624508" data-name="Trazado 624508" d="M249.8,279.591c-9.677.749-14.966.081-25.609,1.08a15.2,15.2,0,0,0-13.207,14.717l-1.866,80.426H228.68l3.088-72.107,5.768.73c-.742,27,2.08,71.377,2.08,71.377l21.719-1.061L260.1,305.5s29.216,1.983,28.487-24.251c0,0-23.009-2.788-38.783-1.659" transform="translate(-37.166 -49.642)" fill="#263238"/>
        <path id="Trazado_624509" data-name="Trazado 624509" d="M261.755,279.393a11.058,11.058,0,0,1-1.479.253c-.955.142-2.334.348-4.03.659a24.883,24.883,0,0,0-5.8,1.541,11.609,11.609,0,0,0-2.952,1.887,9.515,9.515,0,0,0-2.237,2.993,16.753,16.753,0,0,0-1.394,7.137c.024,2.271.086,4.335.066,6.063s-.076,3.126-.141,4.091c-.035.483-.066.856-.094,1.11a1.355,1.355,0,0,1-.064.385,10.99,10.99,0,0,1-.009-1.5c.015-.965.032-2.36.006-4.083-.046-1.748-.1-3.8-.158-6.063a16.8,16.8,0,0,1,1.4-7.325,9.865,9.865,0,0,1,2.343-3.119,11.829,11.829,0,0,1,3.071-1.933,23.906,23.906,0,0,1,5.909-1.48c1.708-.274,3.1-.435,4.06-.527.482-.045.856-.074,1.11-.088a1.326,1.326,0,0,1,.39,0" transform="translate(-43.27 -49.653)" fill="#455a64"/>
        <path id="Trazado_624510" data-name="Trazado 624510" d="M234.558,302.848a15.951,15.951,0,0,1,1.062,2.442,5.827,5.827,0,0,1,.664,2.6,16.1,16.1,0,0,1-1.062-2.442,5.825,5.825,0,0,1-.664-2.6" transform="translate(-41.68 -53.824)" fill="#455a64"/>
        <path id="Trazado_624511" data-name="Trazado 624511" d="M236.484,300.9a9.97,9.97,0,0,1,.568,3.309,7.142,7.142,0,0,1-.428,3.336c-.125-.024.1-1.5,0-3.316a19.658,19.658,0,0,1-.141-3.329" transform="translate(-42.02 -53.477)" fill="#455a64"/>
        <path id="Trazado_624512" data-name="Trazado 624512" d="M269.31,302.735a11.4,11.4,0,0,1,.95,3.423,21.067,21.067,0,0,1,.529,3.5,11.511,11.511,0,0,1-.95-3.424,21.267,21.267,0,0,1-.529-3.5" transform="translate(-47.859 -53.803)" fill="#455a64"/>
        <path id="Trazado_624513" data-name="Trazado 624513" d="M271.607,302.722a13.388,13.388,0,0,1-.378,6.938,32.9,32.9,0,0,1,.22-3.468,32.623,32.623,0,0,1,.159-3.471" transform="translate(-48.198 -53.801)" fill="#455a64"/>
        <path id="Trazado_624514" data-name="Trazado 624514" d="M228.158,390.909c0,.118-4.285.214-9.569.214s-9.569-.1-9.569-.214,4.283-.215,9.569-.215,9.569.1,9.569.215" transform="translate(-37.148 -69.436)" fill="#455a64"/>
        <path id="Trazado_624515" data-name="Trazado 624515" d="M267.592,390.473c0,.118-4.874.214-10.884.214s-10.886-.1-10.886-.214,4.873-.215,10.886-.215,10.884.1,10.884.215" transform="translate(-43.689 -69.358)" fill="#455a64"/>
        <path id="Trazado_624516" data-name="Trazado 624516" d="M295.332,296.265a1.183,1.183,0,0,1-.277.021l-.813.021c-.742.007-1.789.021-3.125.036l-11.5.056-7.936.026a18.746,18.746,0,0,0-4.339.5,6.856,6.856,0,0,0-3.807,2.359,7.888,7.888,0,0,0-1.4,4.518c-.083,1.659.093,3.366.158,5.119.1,3.491.194,7.105.3,10.807.413,14.811.758,28.219.884,37.927.066,4.854.086,8.783.083,11.5-.009,1.336-.016,2.384-.021,3.125-.007.338-.013.608-.017.813a1.28,1.28,0,0,1-.021.276,1.359,1.359,0,0,1-.023-.276c-.007-.206-.015-.474-.025-.813-.014-.742-.034-1.789-.059-3.125-.052-2.74-.127-6.66-.219-11.492-.2-9.705-.6-23.111-1.009-37.921-.1-3.7-.195-7.315-.288-10.8-.06-1.735-.234-3.453-.146-5.153a8.274,8.274,0,0,1,1.5-4.739,7.238,7.238,0,0,1,4.023-2.483,19.05,19.05,0,0,1,4.43-.491l7.942.025,11.5.081,3.126.043.812.023a1.311,1.311,0,0,1,.277.021" transform="translate(-46.511 -52.619)" fill="#455a64"/>
        <g id="Grupo_877597" data-name="Grupo 877597" transform="translate(197.989 239.154)" opacity="0.2">
          <g id="Grupo_877596" data-name="Grupo 877596">
            <g id="Grupo_877595" data-name="Grupo 877595" clip-path="url(#clip-path-7)">
              <path id="Trazado_624517" data-name="Trazado 624517" d="M240.847,306.193s-.76-9.746,2.9-15.349l-.581,15.642Z" transform="translate(-240.782 -290.844)"/>
            </g>
          </g>
        </g>
        <path id="Trazado_624518" data-name="Trazado 624518" d="M239.736,298.063a.861.861,0,0,1-.221-.026l-.64-.118c-.561-.1-1.388-.269-2.463-.388a10.533,10.533,0,0,0-3.886.228,6.651,6.651,0,0,0-2.18,1.024,5.481,5.481,0,0,0-1.69,2.069,15.077,15.077,0,0,0-.97,6.156c-.057,2.284-.117,4.721-.18,7.285-.137,5.133-.286,10.773-.443,16.691-.349,11.83-.667,22.536-.9,30.326-.134,3.854-.244,6.984-.321,9.188-.046,1.059-.083,1.894-.109,2.5-.016.265-.029.479-.039.65a.924.924,0,0,1-.028.22.82.82,0,0,1-.016-.221c0-.172,0-.386,0-.65.007-.6.017-1.441.029-2.5.044-2.205.108-5.337.185-9.192.2-7.79.471-18.5.772-30.33.169-5.919.33-11.555.475-16.69.078-2.564.152-5,.221-7.284a15.215,15.215,0,0,1,1.053-6.279,5.734,5.734,0,0,1,1.8-2.157,6.855,6.855,0,0,1,2.279-1.034,10.47,10.47,0,0,1,3.967-.162,24.385,24.385,0,0,1,2.461.47l.632.158a.85.85,0,0,1,.211.069" transform="translate(-40.104 -52.829)" fill="#455a64"/>
        <path id="Trazado_624519" data-name="Trazado 624519" d="M235.259,222.813s-20.653,20.707-24.593,25.34c-3.36,3.953-1.168,11.414,1.647,11.736s48.337-.3,48.337-.3l-.6-9.312s-29.482.132-30.348-.411,17.053-18.657,17.053-18.657Z" transform="translate(-37.138 -39.599)" fill="#ffbe9d"/>
        <path id="Trazado_624520" data-name="Trazado 624520" d="M297.439,226.1s6.274,19.015,7.035,21.263,4.654,11.754-2.746,12.551-47.12,0-47.12,0l-2.955-9.61s38.392-.1,38.2-2.149-5.832-19.227-5.832-19.227Z" transform="translate(-44.725 -40.184)" fill="#ffbe9d"/>
        <path id="Trazado_624521" data-name="Trazado 624521" d="M205.407,218.755l14.268,39.522,65.677-.028-.456-1.931-24.642-.906-12.131-37.264Z" transform="translate(-36.506 -38.77)" fill="#263238"/>
        <path id="Trazado_624522" data-name="Trazado 624522" d="M240.019,240.276a2.324,2.324,0,1,1-2.731-2.246,2.516,2.516,0,0,1,2.731,2.246" transform="translate(-41.845 -42.298)" fill="#fafafa"/>
        <path id="Trazado_624523" data-name="Trazado 624523" d="M309.68,265.9H151.162V379.365h3.364V272.587H309.68V379.445h39.657V265.9Z" transform="translate(-26.865 -47.257)" fill="#455a64"/>
      </g>
    </g>
    <g id="Grupo_877601" data-name="Grupo 877601">
      <g id="Grupo_877600" data-name="Grupo 877600" clip-path="url(#clip-path)">
        <path id="Trazado_624524" data-name="Trazado 624524" d="M108.474,396.643V388.15l-15.219-.1-.127,12.7.943.07c4.2.271,21.364.8,24.177-.073,3.137-.971-9.775-4.1-9.775-4.1" transform="translate(-16.552 -68.966)" fill="#e8505b"/>
        <path id="Trazado_624525" data-name="Trazado 624525" d="M118.619,402.487c0,.143-5.692.26-12.713.26s-12.714-.117-12.714-.26,5.691-.258,12.714-.258,12.713.116,12.713.258" transform="translate(-16.563 -71.486)" fill="#263238"/>
        <path id="Trazado_624526" data-name="Trazado 624526" d="M112.105,400.271c-.125-.066-.017-.515.309-.956s.724-.679.823-.58-.107.476-.406.886-.6.719-.726.65" transform="translate(-19.915 -70.861)" fill="#263238"/>
        <path id="Trazado_624527" data-name="Trazado 624527" d="M113.283,400.887c-.132-.05-.064-.553.236-1.081s.693-.85.8-.762-.078.522-.354,1.016-.552.88-.687.828" transform="translate(-20.122 -70.917)" fill="#263238"/>
        <path id="Trazado_624528" data-name="Trazado 624528" d="M97.819,401.83c-.059.042-.286-.182-.615-.556a9.97,9.97,0,0,0-1.335-1.336,3.49,3.49,0,0,0-1.645-.719c-.463-.062-.767.01-.793-.065-.027-.055.256-.267.8-.3a3.026,3.026,0,0,1,1.95.674,5.547,5.547,0,0,1,1.315,1.532c.26.437.377.731.32.77" transform="translate(-16.605 -70.885)" fill="#263238"/>
        <path id="Trazado_624529" data-name="Trazado 624529" d="M111.855,398.653c.074.12-.187.415-.621.574s-.825.1-.845-.035.285-.308.666-.45.725-.212.8-.089" transform="translate(-19.619 -70.839)" fill="#263238"/>
        <path id="Trazado_624530" data-name="Trazado 624530" d="M111.489,397.616c.014.142-.391.264-.905.271s-.923-.1-.913-.247.415-.264.906-.271.9.1.912.246" transform="translate(-19.491 -70.622)" fill="#263238"/>
        <path id="Trazado_624531" data-name="Trazado 624531" d="M165.188,86.822l.141-2.57a21.926,21.926,0,0,0,.325-4.314,6.332,6.332,0,0,0-.379-2.111,9.651,9.651,0,0,0-1.155-2.411.83.83,0,0,1,.725-1.391c.724.186,2.207,1.905,2.878,4.471s2.4-1.233,3.054-2.606,2.88-5.525,3.462-5.658c.853-.195,1.219.682.533,2.038-.694,1.372-2.456,5.566-1.714,5.878a3.928,3.928,0,0,1,1.621-.069.426.426,0,0,1,.336.36,5,5,0,0,0,.24,1.18s1.02-.326,1.276.107a4.506,4.506,0,0,1,.333,1.43s.776-.345,1.184-.08c.884.575-.067,1.784-.067,1.784a86.493,86.493,0,0,1-6.851,8.625l-5.979-4.811" transform="translate(-29.13 -12.477)" fill="#ffbe9d"/>
        <path id="Trazado_624532" data-name="Trazado 624532" d="M76.536,89.336l-.1,32.8,14.071.671.406-7.978s5,.992,6.288-3.649c.824-2.965.618-25.879.618-25.879Z" transform="translate(-13.585 -15.16)" fill="#ffbe9d"/>
        <path id="Trazado_624533" data-name="Trazado 624533" d="M95.68,79.078c-4.281,1.387-5.314,1.849-7.232,2-1.841.148-14.954.159-16.143,7.508a5.4,5.4,0,0,1-.371-1.08,18.6,18.6,0,0,1-.16-2.171,2.724,2.724,0,0,0-.257,2.267,3.781,3.781,0,0,0,.141.474c-.085-.088-.169-.177-.265-.261a4.136,4.136,0,0,0-1.663-.884c-.471-.116-.775-.09-.78-.039a11.246,11.246,0,0,1,2.163,1.247,5.527,5.527,0,0,1,1.107,1.312c0,.034-.007.064-.007.1,0,0-2.8-1.233-2.066,3.852s4.059,9.4,4.465,17.717c0,0,11.623,1.386,13.689-3.081l1.737-5.126s-2.8-.455-2.471-2.7c.45-3.111,2.828-3.191,4.6-1.8L94.2,92.943s5.166-3.389,5.461-5.545.3-9.706-3.985-8.32" transform="translate(-12.254 -14.024)" fill="#263238"/>
        <path id="Trazado_624534" data-name="Trazado 624534" d="M28.776,390.781l-2.062,9.174,14.206,1.756.509-9.09Z" transform="translate(-4.748 -69.451)" fill="#e8505b"/>
        <path id="Trazado_624535" data-name="Trazado 624535" d="M36.721,391.328a21.077,21.077,0,0,1-.467,4.212,21.054,21.054,0,0,1-.891,4.143,42,42,0,0,1,1.358-8.355" transform="translate(-6.279 -69.549)" fill="#263238"/>
        <path id="Trazado_624536" data-name="Trazado 624536" d="M41.054,402.306A11.069,11.069,0,0,1,39,402.048l-4.929-.8c-1.924-.321-3.664-.644-4.915-.923a9.205,9.205,0,0,1-2-.556,10.9,10.9,0,0,1,2.057.258l4.93.8c1.924.321,3.663.645,4.914.924a9.091,9.091,0,0,1,2,.556" transform="translate(-4.826 -71.046)" fill="#263238"/>
        <path id="Trazado_624537" data-name="Trazado 624537" d="M49.151,214.964,22.865,362.708l22.516,1.277S69.294,236.631,72.805,236.313c1.47-.133,2.061,126.665,3.242,126.4s24.325.411,24.325.411S97.241,213.086,97.3,213.083s-48.144,1.881-48.144,1.881" transform="translate(-4.064 -37.87)" fill="#263238"/>
        <path id="Trazado_624538" data-name="Trazado 624538" d="M91.5,237.559c.025.116-3.877,1.043-8.714,2.07S74,241.4,73.98,241.281s3.876-1.042,8.714-2.07,8.779-1.768,8.8-1.652" transform="translate(-13.148 -42.218)" fill="#455a64"/>
        <path id="Trazado_624539" data-name="Trazado 624539" d="M47.336,385.885c0,.118-5.092.056-11.365-.137s-11.356-.448-11.353-.566,5.092-.057,11.366.138,11.355.447,11.352.565" transform="translate(-4.375 -68.446)" fill="#455a64"/>
        <path id="Trazado_624540" data-name="Trazado 624540" d="M111.615,385.893c0,.118-5.5.051-12.27-.151s-12.262-.462-12.258-.581,5.5-.05,12.271.152,12.261.462,12.258.58" transform="translate(-15.478 -68.442)" fill="#455a64"/>
        <path id="Trazado_624541" data-name="Trazado 624541" d="M63.028,242.536c.116.025-5.454,26.382-12.439,58.862S37.846,360.2,37.73,360.174s5.453-26.375,12.44-58.866,12.743-58.8,12.858-58.772" transform="translate(-6.705 -43.105)" fill="#455a64"/>
        <path id="Trazado_624542" data-name="Trazado 624542" d="M101.823,360.054a1.643,1.643,0,0,1-.032-.305c-.012-.224-.028-.519-.049-.9-.035-.812-.085-1.969-.148-3.444-.123-2.991-.27-7.321-.425-12.671-.312-10.7-.618-25.487-.7-41.821s.087-31.13.3-41.833c.105-5.351.211-9.681.3-12.674.049-1.476.089-2.632.116-3.445.017-.377.03-.673.04-.9a1.665,1.665,0,0,1,.029-.3,1.637,1.637,0,0,1,.016.305c0,.224,0,.52,0,.9-.008.813-.021,1.969-.035,3.447-.039,3.018-.1,7.342-.167,12.675-.132,10.7-.248,25.491-.172,41.827s.339,31.114.574,41.816c.122,5.332.22,9.655.289,12.673.03,1.477.053,2.633.068,3.446,0,.377.006.673.007.9a1.624,1.624,0,0,1-.012.306" transform="translate(-17.853 -42.968)" fill="#455a64"/>
        <path id="Trazado_624543" data-name="Trazado 624543" d="M139.657,89.513s-17.432,26.3-18.909,27.773-28.78,4.347-28.78,4.347c-8.381-1.892-35.482-1.268-40.6,2.5-4.429,2.45-9.811,8.185-12.582,21.816-4.727,23.252-9.455,31.82,0,35.071a62.17,62.17,0,0,0,11.64,2.741l-.261,10.525,49-3.045-2.509-26.136c-.294-7.338-.431-14.988-.613-21.761,3.065-1.162,31.565-11.948,33.522-12.228,2.068-.3,20.726-34.81,20.726-34.81.591-4.136-10.636-6.8-10.636-6.8" transform="translate(-5.923 -15.909)" fill="#eb6f2d"/>
        <path id="Trazado_624544" data-name="Trazado 624544" d="M55.4,147.39c.118,0-.144,12.809-.585,28.6s-.9,28.591-1.015,28.588.145-12.806.586-28.6.9-28.589,1.014-28.586" transform="translate(-9.556 -26.195)" fill="#263238"/>
        <path id="Trazado_624545" data-name="Trazado 624545" d="M142.1,129.208a8.483,8.483,0,0,1-1.428-2.885,21.844,21.844,0,0,1-1.026-3.035,8.535,8.535,0,0,1,1.428,2.885,21.8,21.8,0,0,1,1.026,3.035" transform="translate(-24.816 -21.911)" fill="#263238"/>
        <path id="Trazado_624546" data-name="Trazado 624546" d="M144.05,126.97a14.644,14.644,0,0,1-2.337-1.673,7.405,7.405,0,0,1-2.071-2.01,14.634,14.634,0,0,1,2.336,1.673,7.434,7.434,0,0,1,2.072,2.009" transform="translate(-24.817 -21.91)" fill="#263238"/>
        <path id="Trazado_624547" data-name="Trazado 624547" d="M171.93,98.951a10.422,10.422,0,0,1-1.652-.993c-1-.638-2.394-1.492-3.986-2.346s-3.079-1.539-4.163-2.017a10.589,10.589,0,0,1-1.742-.824,7.414,7.414,0,0,1,1.856.543,34.7,34.7,0,0,1,8.207,4.394,7.435,7.435,0,0,1,1.481,1.243" transform="translate(-28.504 -16.486)" fill="#263238"/>
        <path id="Trazado_624548" data-name="Trazado 624548" d="M53.753,182.04a9.624,9.624,0,0,1-3.031-.311,8.112,8.112,0,0,1-2.891-.972,16.818,16.818,0,0,1,2.978.553,12.635,12.635,0,0,1,2.944.73" transform="translate(-8.501 -32.121)" fill="#263238"/>
        <path id="Trazado_624549" data-name="Trazado 624549" d="M107.936,128.115a24.346,24.346,0,0,0-2.629.618,10.186,10.186,0,0,0-7.007,9.823,24.064,24.064,0,0,0,.272,2.686,2.134,2.134,0,0,1-.266-.689,8.824,8.824,0,0,1-.31-1.989,10,10,0,0,1,7.219-10.119,8.8,8.8,0,0,1,1.983-.355,2.169,2.169,0,0,1,.738.026" transform="translate(-17.414 -22.763)" fill="#263238"/>
        <path id="Trazado_624550" data-name="Trazado 624550" d="M102.805,213.227c.007.118-10.958.9-24.488,1.737s-24.509,1.427-24.516,1.309,10.955-.9,24.49-1.737,24.507-1.427,24.514-1.309" transform="translate(-9.562 -37.893)" fill="#263238"/>
        <path id="Trazado_624551" data-name="Trazado 624551" d="M80.815,127.5a3.353,3.353,0,0,1,.145.609c.036.2.1.451.135.749s.06.653.1,1.036a16.059,16.059,0,0,1-1.062,6.509,15.378,15.378,0,0,1-6.1,7.562,9.812,9.812,0,0,1-1.25.67,11.492,11.492,0,0,1-1.335.554c-.913.331-1.858.608-2.794.941a12.621,12.621,0,0,0-2.714,1.269,9.769,9.769,0,0,0-2.226,2.1,56.722,56.722,0,0,0-3.24,5.253,11.1,11.1,0,0,1-4.025,4.189,9.288,9.288,0,0,1-5.171.957,12.373,12.373,0,0,1-4.41-1.26,19.9,19.9,0,0,1-5.314-3.918c-.553-.55-.963-.995-1.24-1.3a3.483,3.483,0,0,1-.4-.48,3.483,3.483,0,0,1,.465.42l1.293,1.238a20.749,20.749,0,0,0,5.328,3.765,12.172,12.172,0,0,0,4.309,1.178,8.964,8.964,0,0,0,4.955-.951,10.759,10.759,0,0,0,3.855-4.062,55.14,55.14,0,0,1,3.26-5.3,10.082,10.082,0,0,1,2.33-2.194,12.921,12.921,0,0,1,2.806-1.308l2.8-.93a11.323,11.323,0,0,0,1.3-.534,9.723,9.723,0,0,0,1.213-.642,15.217,15.217,0,0,0,6.027-7.335,16.537,16.537,0,0,0,1.176-6.393q-.03-.57-.055-1.028c-.022-.3-.072-.545-.094-.748a3.44,3.44,0,0,1-.059-.624" transform="translate(-7.092 -22.659)" fill="#263238"/>
        <path id="Trazado_624552" data-name="Trazado 624552" d="M106.947,193.961c-.013.016-.187-.126-.547-.35a5.053,5.053,0,0,0-1.7-.695,24.365,24.365,0,0,0-2.927-.261c-1.143-.092-2.45-.1-3.9-.154a19.27,19.27,0,0,1-4.722-.662,15.843,15.843,0,0,1-4.936-2.375,13.789,13.789,0,0,1-4.035-4.51,13.166,13.166,0,0,1-1.655-6.277,11.384,11.384,0,0,1,6.245-10.306,10.341,10.341,0,0,1,2.7-.9,16.418,16.418,0,0,1,2.659-.218,39.125,39.125,0,0,0,4.716-.14,6.828,6.828,0,0,0,5.5-3.426,5.215,5.215,0,0,0,.511-1.761c.05-.42.044-.645.065-.645a.457.457,0,0,1,.021.164,3.751,3.751,0,0,1,0,.489,4.946,4.946,0,0,1-.446,1.825,5.827,5.827,0,0,1-1.927,2.262,8.025,8.025,0,0,1-3.681,1.392,37.909,37.909,0,0,1-4.751.194,16.267,16.267,0,0,0-2.6.234,9.994,9.994,0,0,0-2.59.882,11.023,11.023,0,0,0-5.993,9.95,12.826,12.826,0,0,0,1.594,6.078,13.468,13.468,0,0,0,3.9,4.392,15.633,15.633,0,0,0,4.8,2.354,19.206,19.206,0,0,0,4.638.7c1.443.072,2.759.1,3.91.219a22.393,22.393,0,0,1,2.944.337,4.8,4.8,0,0,1,1.707.784,4.191,4.191,0,0,1,.382.3c.083.072.123.113.118.118" transform="translate(-14.667 -28.664)" fill="#263238"/>
        <path id="Trazado_624553" data-name="Trazado 624553" d="M74.877,208.965a8.479,8.479,0,0,0-.1-1.762,6.168,6.168,0,0,0-2.532-3.9,5.741,5.741,0,0,0-1.4-.683,8.674,8.674,0,0,0-1.682-.311,17.957,17.957,0,0,1-3.852-.522,4.9,4.9,0,0,1-1.845-1.115,5.983,5.983,0,0,1-1.252-1.859,8.616,8.616,0,0,1-.535-4.6c.459-3.162,1.847-5.886,2.09-8.566a8.449,8.449,0,0,0-.335-3.723,5.369,5.369,0,0,0-1.909-2.58,6.26,6.26,0,0,0-4.507-1.154,9.017,9.017,0,0,0-1.7.477A4.083,4.083,0,0,1,57,178.031a6.311,6.311,0,0,1,4.711,1.073,5.647,5.647,0,0,1,2.065,2.7,8.724,8.724,0,0,1,.394,3.885c-.238,2.771-1.622,5.523-2.058,8.582a8.247,8.247,0,0,0,.5,4.374,5.577,5.577,0,0,0,1.153,1.733,4.513,4.513,0,0,0,1.686,1.034,18.166,18.166,0,0,0,3.763.542,8.916,8.916,0,0,1,1.744.349,6,6,0,0,1,1.474.75,6.222,6.222,0,0,1,2.523,4.117,5.037,5.037,0,0,1,.026,1.334,1.875,1.875,0,0,1-.1.456" transform="translate(-9.832 -31.624)" fill="#263238"/>
        <path id="Trazado_624554" data-name="Trazado 624554" d="M76.811,160.248c-.012-.017.17-.174.579-.3a2.838,2.838,0,0,1,2.812.842,2.5,2.5,0,0,1,.6,1.337A2.877,2.877,0,0,1,79.378,165a2.846,2.846,0,0,1-3.167-.493,2.409,2.409,0,0,1-.725-1.275,2.665,2.665,0,0,1,.058-1.264,2.62,2.62,0,0,1,1.025-1.456c.358-.235.6-.267.6-.248.016.035-.2.122-.5.38a2.645,2.645,0,0,0-.833,1.4,2.179,2.179,0,0,0,.641,2.172,2.482,2.482,0,0,0,2.7.4,2.514,2.514,0,0,0,1.229-2.448,2.278,2.278,0,0,0-1.362-1.83,2.8,2.8,0,0,0-1.62-.234c-.392.065-.6.168-.615.134" transform="translate(-13.407 -28.41)" fill="#263238"/>
        <path id="Trazado_624555" data-name="Trazado 624555" d="M45.191,198.007c-.091-.019.3-1.446.386-3.8a16.68,16.68,0,0,0-.021-1.921,21.85,21.85,0,0,0-.218-2.192,22.806,22.806,0,0,0-3.644-9.327,22,22,0,0,0-1.326-1.76,16.779,16.779,0,0,0-1.286-1.427c-1.661-1.668-2.912-2.454-2.857-2.529a4.659,4.659,0,0,1,.883.535,8.33,8.33,0,0,1,.974.721,13.878,13.878,0,0,1,1.212,1.057,15.74,15.74,0,0,1,1.345,1.413,20.959,20.959,0,0,1,1.38,1.766,21.942,21.942,0,0,1,3.708,9.493,20.68,20.68,0,0,1,.183,2.233,15.732,15.732,0,0,1-.031,1.951,14.043,14.043,0,0,1-.174,1.6,8.475,8.475,0,0,1-.228,1.191,4.737,4.737,0,0,1-.286.992" transform="translate(-6.438 -31.111)" fill="#263238"/>
        <path id="Trazado_624556" data-name="Trazado 624556" d="M145.347,138.838a9.288,9.288,0,0,1-1.225-.543c-.78-.362-1.913-.877-3.353-1.4a25.085,25.085,0,0,0-5.2-1.313,17.193,17.193,0,0,0-6.5.321,13,13,0,0,0-5.71,3.01,11,11,0,0,0-2.935,4.383,8.858,8.858,0,0,0-.5,3.539c.062.852.2,1.313.151,1.324a1.087,1.087,0,0,1-.117-.328,6.311,6.311,0,0,1-.2-.979,8.453,8.453,0,0,1,.374-3.653,11.032,11.032,0,0,1,2.952-4.573,13.169,13.169,0,0,1,5.875-3.138,17.134,17.134,0,0,1,6.658-.3,23.9,23.9,0,0,1,5.252,1.42,30.958,30.958,0,0,1,3.321,1.539c.38.206.672.372.864.492s.294.187.286.2" transform="translate(-21.274 -23.992)" fill="#263238"/>
        <path id="Trazado_624557" data-name="Trazado 624557" d="M156.543,94.872c.011-.01.087.056.224.192a6.433,6.433,0,0,1,.567.627,9.593,9.593,0,0,1,1.523,2.713,11.018,11.018,0,0,1,.65,4.57,11.2,11.2,0,0,1-1.788,5.359,10.889,10.889,0,0,1-4.265,3.7,11.394,11.394,0,0,1-4.461,1.184,10.035,10.035,0,0,1-3.1-.285,6.336,6.336,0,0,1-.805-.257c-.181-.067-.273-.11-.268-.124a14.14,14.14,0,0,0,4.148.364,11.519,11.519,0,0,0,4.305-1.235,10.734,10.734,0,0,0,4.085-3.588A11.124,11.124,0,0,0,158.57,98.5a13.483,13.483,0,0,0-2.027-3.632" transform="translate(-25.739 -16.861)" fill="#263238"/>
        <path id="Trazado_624558" data-name="Trazado 624558" d="M90.7,127.326a59.873,59.873,0,0,1-7.141.27,59.843,59.843,0,0,1-7.145-.16,59.738,59.738,0,0,1,7.141-.269,59.778,59.778,0,0,1,7.145.159" transform="translate(-13.58 -22.6)" fill="#263238"/>
      </g>
    </g>
  </g>
</svg>
