<svg xmlns="http://www.w3.org/2000/svg" xmlns:xlink="http://www.w3.org/1999/xlink" width="820" height="449.182" viewBox="0 0 820 449.182">
  <defs>
    <clipPath id="clip-path">
      <rect id="Rectángulo_327787" data-name="Rectángulo 327787" width="820" height="449.181" fill="none"/>
    </clipPath>
    <clipPath id="clip-path-8">
      <rect id="Rectángulo_327780" data-name="Rectángulo 327780" width="124.925" height="17.456" fill="none"/>
    </clipPath>
    <clipPath id="clip-path-9">
      <rect id="Rectángulo_327781" data-name="Rectángulo 327781" width="52.079" height="19.641" fill="none"/>
    </clipPath>
    <clipPath id="clip-path-10">
      <rect id="Rectángulo_327782" data-name="Rectángulo 327782" width="61.439" height="29.083" fill="none"/>
    </clipPath>
    <clipPath id="clip-path-11">
      <rect id="Rectángulo_327783" data-name="Rectángulo 327783" width="64.939" height="11.371" fill="none"/>
    </clipPath>
    <clipPath id="clip-path-12">
      <rect id="Rectángulo_327784" data-name="Rectángulo 327784" width="34.839" height="10.674" fill="none"/>
    </clipPath>
    <clipPath id="clip-path-13">
      <rect id="Rectángulo_327785" data-name="Rectángulo 327785" width="75.461" height="34.248" fill="none"/>
    </clipPath>
  </defs>
  <g id="Grupo_1034308" data-name="Grupo 1034308" transform="translate(-390 -8623.859)">
    <g id="Grupo_1034307" data-name="Grupo 1034307">
      <g id="Grupo_878893" data-name="Grupo 878893" transform="translate(0 -21.918)">
        <g id="Grupo_877864" data-name="Grupo 877864" transform="translate(390 8645.777)">
          <g id="Grupo_877863" data-name="Grupo 877863" clip-path="url(#clip-path)">
            <rect id="Rectángulo_327749" data-name="Rectángulo 327749" width="73.368" height="100.399" transform="translate(228.02 55.83) rotate(-12.187)" fill="#f5f5f5"/>
            <rect id="Rectángulo_327750" data-name="Rectángulo 327750" width="244.426" height="158.949" transform="translate(396.746)" fill="#f5f5f5"/>
            <g id="Grupo_877834" data-name="Grupo 877834">
              <g id="Grupo_877833" data-name="Grupo 877833" clip-path="url(#clip-path)">
                <path id="Trazado_625718" data-name="Trazado 625718" d="M441.86,63.78A33.26,33.26,0,1,1,408.6,30.52a33.261,33.261,0,0,1,33.26,33.26" transform="translate(110.36 8.974)" fill="#e0e0e0"/>
                <path id="Trazado_625719" data-name="Trazado 625719" d="M413.627,58.5l-8.686,5.014-8.687,5.016V48.472l8.687,5.016Z" transform="translate(116.509 14.252)" fill="#f5f5f5"/>
                <rect id="Rectángulo_327751" data-name="Rectángulo 327751" width="244.426" height="28.553" transform="translate(396.746 130.395)" fill="#e0e0e0"/>
                <path id="Trazado_625720" data-name="Trazado 625720" d="M326.556,112.724l-3.525,2.036-3.525,2.034v-8.139l3.525,2.034Z" transform="translate(93.943 31.947)" fill="#f5f5f5"/>
                <rect id="Rectángulo_327752" data-name="Rectángulo 327752" width="180.297" height="1.294" transform="translate(440.758 144.025)" fill="#f5f5f5"/>
                <path id="Trazado_625721" data-name="Trazado 625721" d="M344.652,112.411a2.688,2.688,0,1,1-2.688-2.688,2.688,2.688,0,0,1,2.688,2.688" transform="translate(99.756 32.261)" fill="#f5f5f5"/>
                <path id="Trazado_625722" data-name="Trazado 625722" d="M683.44,313.986H447.4a7.1,7.1,0,0,1-7.1-7.1V95.568a7.1,7.1,0,0,1,7.1-7.1H683.44a7.1,7.1,0,0,1,7.1,7.1V306.885a7.1,7.1,0,0,1-7.1,7.1" transform="translate(129.46 26.012)" fill="#f5f5f5"/>
                <path id="Trazado_625723" data-name="Trazado 625723" d="M690.54,113.648H440.3V96.761a8.293,8.293,0,0,1,8.293-8.293H682.247a8.294,8.294,0,0,1,8.294,8.293Z" transform="translate(129.46 26.012)" fill="#ebebeb"/>
                <path id="Trazado_625724" data-name="Trazado 625724" d="M454.523,98.678A1.974,1.974,0,1,1,452.55,96.7a1.974,1.974,0,0,1,1.973,1.973" transform="translate(132.481 28.434)" fill="#fafafa"/>
                <path id="Trazado_625725" data-name="Trazado 625725" d="M463.675,98.678A1.974,1.974,0,1,1,461.7,96.7a1.974,1.974,0,0,1,1.973,1.973" transform="translate(135.172 28.434)" fill="#fafafa"/>
                <path id="Trazado_625726" data-name="Trazado 625726" d="M472.827,98.678a1.974,1.974,0,1,1-1.973-1.973,1.974,1.974,0,0,1,1.973,1.973" transform="translate(137.863 28.434)" fill="#fafafa"/>
                <rect id="Rectángulo_327753" data-name="Rectángulo 327753" width="94.492" height="3.42" transform="translate(695.418 159.961)" fill="#fafafa"/>
                <rect id="Rectángulo_327754" data-name="Rectángulo 327754" width="94.492" height="3.42" transform="translate(695.418 174.034)" fill="#fafafa"/>
                <rect id="Rectángulo_327755" data-name="Rectángulo 327755" width="94.492" height="3.42" transform="translate(695.418 188.107)" fill="#fafafa"/>
                <rect id="Rectángulo_327756" data-name="Rectángulo 327756" width="94.492" height="3.42" transform="translate(695.418 202.181)" fill="#fafafa"/>
                <rect id="Rectángulo_327757" data-name="Rectángulo 327757" width="47.246" height="3.42" transform="translate(695.418 216.254)" fill="#fafafa"/>
                <rect id="Rectángulo_327758" data-name="Rectángulo 327758" width="94.492" height="3.42" transform="translate(595.055 243.934)" fill="#fafafa"/>
                <rect id="Rectángulo_327759" data-name="Rectángulo 327759" width="94.492" height="3.42" transform="translate(595.055 258.008)" fill="#fafafa"/>
                <rect id="Rectángulo_327760" data-name="Rectángulo 327760" width="94.492" height="3.42" transform="translate(595.055 272.081)" fill="#fafafa"/>
                <rect id="Rectángulo_327761" data-name="Rectángulo 327761" width="94.492" height="3.42" transform="translate(595.055 286.155)" fill="#fafafa"/>
                <rect id="Rectángulo_327762" data-name="Rectángulo 327762" width="47.246" height="3.42" transform="translate(642.302 300.228)" fill="#fafafa"/>
                <rect id="Rectángulo_327763" data-name="Rectángulo 327763" width="80.86" height="67.278" transform="translate(705.871 240.153)" fill="#fafafa"/>
                <path id="Trazado_625727" data-name="Trazado 625727" d="M545.378,228.1l23.894-16.742,16.674,11.535L612.168,200.7l14.207,14.074v33.639H545.516Z" transform="translate(160.356 59.013)" fill="#ebebeb"/>
                <path id="Trazado_625728" data-name="Trazado 625728" d="M586.12,202.244a6.773,6.773,0,1,1-6.773-6.773,6.772,6.772,0,0,1,6.773,6.773" transform="translate(168.352 57.474)" fill="#ebebeb"/>
                <rect id="Rectángulo_327764" data-name="Rectángulo 327764" width="80.859" height="67.278" transform="translate(595.055 157.889)" fill="#fafafa"/>
                <path id="Trazado_625729" data-name="Trazado 625729" d="M459.741,164.529l23.894-16.742,16.673,11.535,26.222-22.189,14.207,14.074v33.64H459.88Z" transform="translate(135.176 40.321)" fill="#ebebeb"/>
                <path id="Trazado_625730" data-name="Trazado 625730" d="M500.483,138.672a6.773,6.773,0,1,1-6.773-6.773,6.772,6.772,0,0,1,6.773,6.773" transform="translate(143.172 38.782)" fill="#ebebeb"/>
                <path id="Trazado_625731" data-name="Trazado 625731" d="M295.029,332.748H6.019A6.018,6.018,0,0,1,0,326.73V169.688H301.047V326.73a6.018,6.018,0,0,1-6.019,6.019" transform="translate(0 49.893)" fill="#f5f5f5"/>
                <rect id="Rectángulo_327765" data-name="Rectángulo 327765" width="301.047" height="30.293" transform="translate(0 219.581)" fill="#ebebeb"/>
                <path id="Trazado_625732" data-name="Trazado 625732" d="M17.11,181.972a2.375,2.375,0,1,1-2.375-2.375,2.374,2.374,0,0,1,2.375,2.375" transform="translate(3.634 52.806)" fill="#fafafa"/>
                <path id="Trazado_625733" data-name="Trazado 625733" d="M28.121,181.972a2.375,2.375,0,1,1-2.375-2.375,2.374,2.374,0,0,1,2.375,2.375" transform="translate(6.872 52.806)" fill="#fafafa"/>
                <path id="Trazado_625734" data-name="Trazado 625734" d="M39.131,181.972a2.375,2.375,0,1,1-2.375-2.375,2.374,2.374,0,0,1,2.375,2.375" transform="translate(10.109 52.806)" fill="#fafafa"/>
                <rect id="Rectángulo_327766" data-name="Rectángulo 327766" width="113.676" height="4.115" transform="translate(151.171 274.296)" fill="#ebebeb"/>
                <rect id="Rectángulo_327767" data-name="Rectángulo 327767" width="113.676" height="4.115" transform="translate(151.171 291.227)" fill="#ebebeb"/>
                <rect id="Rectángulo_327768" data-name="Rectángulo 327768" width="113.676" height="4.115" transform="translate(151.171 308.157)" fill="#ebebeb"/>
                <rect id="Rectángulo_327769" data-name="Rectángulo 327769" width="113.676" height="4.115" transform="translate(151.171 325.088)" fill="#ebebeb"/>
                <rect id="Rectángulo_327770" data-name="Rectángulo 327770" width="56.839" height="4.115" transform="translate(151.171 342.019)" fill="#ebebeb"/>
                <rect id="Rectángulo_327771" data-name="Rectángulo 327771" width="97.276" height="80.937" transform="translate(25.042 271.414)" fill="#fafafa"/>
                <path id="Trazado_625735" data-name="Trazado 625735" d="M19.223,260.891,47.969,240.75l20.059,13.877,31.546-26.693,17.093,16.931v40.468H19.389Z" transform="translate(5.652 67.019)" fill="#ebebeb"/>
                <path id="Trazado_625736" data-name="Trazado 625736" d="M68.238,229.785a8.148,8.148,0,1,1-8.15-8.149,8.149,8.149,0,0,1,8.15,8.149" transform="translate(15.272 65.167)" fill="#ebebeb"/>
              </g>
            </g>
            <rect id="Rectángulo_327773" data-name="Rectángulo 327773" width="73.368" height="100.399" transform="translate(218.973 73.55) rotate(-12.187)" fill="#fff"/>
            <g id="Grupo_877836" data-name="Grupo 877836">
              <g id="Grupo_877835" data-name="Grupo 877835" clip-path="url(#clip-path)">
                <path id="Trazado_625737" data-name="Trazado 625737" d="M262.219,143.088s-.048-.166-.122-.477c-.075-.331-.18-.788-.317-1.383-.276-1.236-.674-3.028-1.193-5.353-1.033-4.69-2.534-11.509-4.433-20.139-3.766-17.262-9.107-41.745-15.429-70.719l.364.233-71.7,15.518h-.008l.258-.4c7.895,36.661,15.2,70.6,21.134,98.149l-.326-.21L242.559,147.2l14.5-3.06,3.824-.793c.868-.177,1.333-.258,1.333-.258s-.417.11-1.263.3q-1.306.3-3.76.845c-3.337.736-8.2,1.812-14.413,3.185l-52.22,11.425-.269.058-.058-.269c-5.965-27.538-13.316-61.471-21.256-98.123l-.071-.33.33-.071h.008l71.714-15.456.3-.065.065.3c6.216,29.079,11.47,53.653,15.174,70.979,1.825,8.614,3.267,15.423,4.259,20.1.481,2.307.853,4.084,1.109,5.311.119.584.21,1.033.276,1.357.06.3.079.45.079.45" transform="translate(49.663 13.11)" fill="#263238"/>
                <path id="Trazado_625738" data-name="Trazado 625738" d="M214.322,64.763c.039.182-7.732,2.015-17.353,4.093s-17.459,3.616-17.5,3.434,7.729-2.015,17.355-4.093,17.456-3.617,17.5-3.434" transform="translate(52.769 19.038)" fill="#263238"/>
                <path id="Trazado_625739" data-name="Trazado 625739" d="M234.593,68.206c.039.182-11.95,2.926-26.777,6.129s-26.883,5.651-26.922,5.469,11.949-2.925,26.78-6.127,26.881-5.652,26.92-5.47" transform="translate(53.188 20.052)" fill="#263238"/>
                <path id="Trazado_625740" data-name="Trazado 625740" d="M236.078,75.081c.039.182-11.95,2.926-26.777,6.129s-26.883,5.651-26.922,5.469,11.949-2.924,26.78-6.127,26.881-5.651,26.92-5.47" transform="translate(53.624 22.073)" fill="#263238"/>
                <path id="Trazado_625741" data-name="Trazado 625741" d="M237.563,81.956c.039.182-11.95,2.926-26.777,6.129s-26.883,5.651-26.922,5.469,11.948-2.924,26.78-6.127,26.881-5.652,26.92-5.47" transform="translate(54.061 24.094)" fill="#263238"/>
                <path id="Trazado_625742" data-name="Trazado 625742" d="M239.048,88.831c.039.182-11.95,2.926-26.777,6.127s-26.883,5.652-26.922,5.47S197.3,97.5,212.129,94.3s26.881-5.652,26.92-5.47" transform="translate(54.498 26.116)" fill="#263238"/>
                <path id="Trazado_625743" data-name="Trazado 625743" d="M240.533,95.706c.039.182-11.95,2.926-26.777,6.129s-26.883,5.651-26.922,5.469,11.948-2.924,26.78-6.127,26.881-5.652,26.92-5.47" transform="translate(54.934 28.137)" fill="#263238"/>
                <path id="Trazado_625744" data-name="Trazado 625744" d="M242.018,102.581c.039.182-11.95,2.926-26.777,6.127s-26.883,5.652-26.922,5.47,11.948-2.925,26.78-6.127,26.881-5.652,26.92-5.47" transform="translate(55.37 30.159)" fill="#263238"/>
                <path id="Trazado_625745" data-name="Trazado 625745" d="M218.668,113.6c.039.182-6.391,1.725-14.36,3.446s-14.465,2.97-14.5,2.787,6.39-1.724,14.362-3.446,14.463-2.97,14.5-2.787" transform="translate(55.807 33.397)" fill="#263238"/>
              </g>
            </g>
            <g id="Grupo_877840" data-name="Grupo 877840">
              <g id="Grupo_877839" data-name="Grupo 877839" clip-path="url(#clip-path)">
                <path id="Trazado_625752" data-name="Trazado 625752" d="M135.9,259.657c-.186,0-.336-5.277-.336-11.786s.15-11.787.336-11.787.336,5.276.336,11.787-.15,11.786-.336,11.786" transform="translate(39.86 69.415)" fill="#263238"/>
                <path id="Trazado_625753" data-name="Trazado 625753" d="M150.292,245.268c0,.186-5.277.336-11.786.336s-11.787-.15-11.787-.336,5.277-.336,11.787-.336,11.786.15,11.786.336" transform="translate(37.259 72.016)" fill="#263238"/>
              </g>
            </g>
            <g id="Grupo_877842" data-name="Grupo 877842">
              <g id="Grupo_877841" data-name="Grupo 877841" clip-path="url(#clip-path)">
                <path id="Trazado_625754" data-name="Trazado 625754" d="M448.682,329.429c-.157.1-16.412-25.039-36.3-56.144s-35.9-56.413-35.738-56.513,16.408,25.034,36.305,56.149,35.891,56.408,35.734,56.508" transform="translate(110.742 63.737)" fill="#263238"/>
                <path id="Trazado_625755" data-name="Trazado 625755" d="M408.619,325.674a37.72,37.72,0,1,0,37.72-37.72,37.72,37.72,0,0,0-37.72,37.72" transform="translate(120.145 84.666)" fill="#fff"/>
                <path id="Trazado_625756" data-name="Trazado 625756" d="M408.621,325.737s-.013-.207,0-.612c.014-.433.032-1.03.057-1.8q.023-.6.052-1.325c.041-.485.136-1.012.212-1.585a26.841,26.841,0,0,1,.735-3.923,35.789,35.789,0,0,1,4.118-10.117,37.939,37.939,0,0,1,25.538-17.966,35.339,35.339,0,0,1,4.8-.572c.819-.03,1.646-.113,2.478-.1l2.516.122a16.568,16.568,0,0,1,2.538.272c.846.137,1.708.236,2.56.41a39.834,39.834,0,0,1,5.074,1.477,39.291,39.291,0,0,1,4.964,2.171c.8.434,1.576.938,2.372,1.409a19.6,19.6,0,0,1,2.3,1.579,34.768,34.768,0,0,1,8.054,8.067,36.845,36.845,0,0,1,5.448,10.479,37.665,37.665,0,0,1,0,24.017,36.815,36.815,0,0,1-5.448,10.483,34.851,34.851,0,0,1-8.054,8.07,19.471,19.471,0,0,1-2.3,1.579c-.8.471-1.567.977-2.371,1.41a39.589,39.589,0,0,1-4.965,2.171,40.022,40.022,0,0,1-5.075,1.478c-.851.173-1.712.272-2.56.409a16.544,16.544,0,0,1-2.539.272q-1.266.06-2.516.123c-.832.009-1.658-.072-2.477-.1a35.329,35.329,0,0,1-4.8-.572,37.935,37.935,0,0,1-25.536-17.969,35.736,35.736,0,0,1-4.116-10.115,27,27,0,0,1-.736-3.923c-.075-.572-.169-1.1-.212-1.584-.018-.485-.035-.928-.05-1.325-.025-.767-.043-1.363-.057-1.8-.009-.4,0-.611,0-.611s.034.207.065.611c.03.431.071,1.025.124,1.788.025.4.053.835.083,1.317.052.483.157,1,.243,1.574a27.424,27.424,0,0,0,.792,3.886,35.97,35.97,0,0,0,4.185,9.987,37.657,37.657,0,0,0,25.315,17.613,34.979,34.979,0,0,0,4.735.545c.806.027,1.62.106,2.439.093l2.477-.129a16.2,16.2,0,0,0,2.5-.274c.832-.139,1.68-.237,2.517-.41a39.5,39.5,0,0,0,4.988-1.466,39.041,39.041,0,0,0,4.879-2.145c.789-.428,1.546-.928,2.329-1.392a19.213,19.213,0,0,0,2.257-1.555,34.214,34.214,0,0,0,7.905-7.944,36.225,36.225,0,0,0,5.343-10.3,37.053,37.053,0,0,0,0-23.594,36.182,36.182,0,0,0-5.343-10.3,34.259,34.259,0,0,0-7.9-7.94,19.223,19.223,0,0,0-2.257-1.557c-.782-.463-1.539-.963-2.329-1.391a38.76,38.76,0,0,0-4.877-2.145,39.487,39.487,0,0,0-4.987-1.466c-.837-.173-1.685-.272-2.517-.41a16.2,16.2,0,0,0-2.5-.274l-2.477-.129c-.819-.013-1.632.066-2.439.093a34.759,34.759,0,0,0-4.734.545,37.661,37.661,0,0,0-25.316,17.61,36.024,36.024,0,0,0-4.186,9.989,27.421,27.421,0,0,0-.792,3.886c-.087.569-.192,1.092-.243,1.575-.03.481-.058.921-.083,1.317q-.08,1.143-.124,1.788c-.031.4-.065.611-.065.611" transform="translate(120.143 84.603)" fill="#263238"/>
                <path id="Trazado_625757" data-name="Trazado 625757" d="M430.993,306.392,425.828,335.9l15.451-2.126,15.449,2.126-6.213-29.512Z" transform="translate(125.205 90.088)" fill="#eb6f2d"/>
                <path id="Trazado_625758" data-name="Trazado 625758" d="M445.782,308.255c-.111.037-.421-1.049-1.238-2.615a8.217,8.217,0,0,0-1.857-2.4,5.781,5.781,0,0,0-1.509-.879,6.046,6.046,0,0,0-1.85-.321,6.392,6.392,0,0,0-3.522.85,5.635,5.635,0,0,0-1.931,2.257c-.772,1.58-1.031,2.688-1.146,2.651a7.1,7.1,0,0,1,.716-2.856,5.8,5.8,0,0,1,2.019-2.57,6.73,6.73,0,0,1,3.873-1.007,6.5,6.5,0,0,1,2.076.377,6.137,6.137,0,0,1,1.681,1.026,7.976,7.976,0,0,1,1.878,2.654,7.317,7.317,0,0,1,.813,2.827" transform="translate(127.229 88.611)" fill="#263238"/>
                <path id="Trazado_625759" data-name="Trazado 625759" d="M321.526,332.147c-.186,0-.336-25.975-.336-58.01s.15-58.016.336-58.016.336,25.97.336,58.016-.15,58.01-.336,58.01" transform="translate(94.438 63.545)" fill="#263238"/>
                <path id="Trazado_625760" data-name="Trazado 625760" d="M291.7,326.325a37.72,37.72,0,1,0,37.72-37.72,37.719,37.719,0,0,0-37.72,37.72" transform="translate(85.769 84.857)" fill="#fff"/>
                <path id="Trazado_625761" data-name="Trazado 625761" d="M291.707,326.388s-.013-.207,0-.611c.014-.435.032-1.031.057-1.8q.023-.6.05-1.325c.043-.485.137-1.012.214-1.585a26.834,26.834,0,0,1,.735-3.924,35.791,35.791,0,0,1,4.118-10.117,37.94,37.94,0,0,1,25.538-17.966,35.345,35.345,0,0,1,4.8-.572c.819-.03,1.646-.113,2.478-.1l2.516.122a16.568,16.568,0,0,1,2.538.272c.846.137,1.708.236,2.56.41a41.528,41.528,0,0,1,10.038,3.647c.8.435,1.576.939,2.372,1.41a19.594,19.594,0,0,1,2.3,1.579,34.77,34.77,0,0,1,8.054,8.067,36.843,36.843,0,0,1,5.448,10.479,37.664,37.664,0,0,1,0,24.017,36.813,36.813,0,0,1-5.448,10.483,34.85,34.85,0,0,1-8.054,8.07,19.479,19.479,0,0,1-2.3,1.579c-.8.471-1.567.977-2.371,1.41a39.585,39.585,0,0,1-4.965,2.171,40.007,40.007,0,0,1-5.075,1.478c-.851.173-1.712.272-2.56.409a16.545,16.545,0,0,1-2.539.272l-2.516.123c-.832.009-1.658-.071-2.477-.1a35.332,35.332,0,0,1-4.8-.572,37.935,37.935,0,0,1-25.536-17.969,35.738,35.738,0,0,1-4.116-10.115,27.014,27.014,0,0,1-.736-3.922c-.075-.573-.169-1.1-.212-1.585q-.027-.728-.05-1.325c-.025-.766-.043-1.363-.057-1.8-.009-.4,0-.611,0-.611s.034.207.065.611c.03.431.071,1.025.124,1.788.025.4.053.835.083,1.317.052.483.157,1,.243,1.574a27.429,27.429,0,0,0,.792,3.886,35.971,35.971,0,0,0,4.185,9.987,37.665,37.665,0,0,0,25.315,17.613,35.017,35.017,0,0,0,4.735.545c.806.027,1.62.106,2.439.093l2.477-.129a16.2,16.2,0,0,0,2.5-.274c.832-.138,1.68-.237,2.517-.41a39.578,39.578,0,0,0,4.988-1.466,39.054,39.054,0,0,0,4.878-2.145c.789-.428,1.546-.928,2.329-1.392a19.212,19.212,0,0,0,2.257-1.555,34.211,34.211,0,0,0,7.905-7.944,36.229,36.229,0,0,0,5.343-10.3,37.053,37.053,0,0,0,0-23.594,36.181,36.181,0,0,0-5.343-10.3,34.233,34.233,0,0,0-7.905-7.94,19.111,19.111,0,0,0-2.256-1.557c-.782-.463-1.539-.963-2.329-1.391a38.762,38.762,0,0,0-4.877-2.145,39.5,39.5,0,0,0-4.987-1.466c-.837-.173-1.685-.272-2.517-.41a16.2,16.2,0,0,0-2.5-.274l-2.477-.129c-.819-.013-1.632.066-2.439.093a34.766,34.766,0,0,0-4.734.545,37.661,37.661,0,0,0-25.316,17.61,36.026,36.026,0,0,0-4.186,9.989,27.431,27.431,0,0,0-.792,3.886c-.087.569-.192,1.092-.243,1.575-.03.481-.058.921-.083,1.317q-.08,1.143-.124,1.788c-.031.4-.065.611-.065.611" transform="translate(85.767 84.794)" fill="#263238"/>
                <path id="Trazado_625762" data-name="Trazado 625762" d="M324.572,304.7l-16.364,14.866v18.851h12.744v-11.3h8.11v11.3h11.875V319.564Z" transform="translate(90.621 89.589)" fill="#eb6f2d"/>
                <path id="Trazado_625763" data-name="Trazado 625763" d="M208.613,330.827c-.157-.1,16.085-25.778,36.272-57.347s36.686-57.09,36.842-56.989-16.081,25.773-36.275,57.353-36.682,57.083-36.838,56.984" transform="translate(61.338 63.654)" fill="#263238"/>
                <path id="Trazado_625764" data-name="Trazado 625764" d="M250.182,325.955a37.72,37.72,0,1,1-37.72-37.72,37.72,37.72,0,0,1,37.72,37.72" transform="translate(51.379 84.749)" fill="#fff"/>
                <path id="Trazado_625765" data-name="Trazado 625765" d="M250.259,326.018s-.034-.207-.066-.611c-.03-.432-.07-1.026-.123-1.788-.025-.4-.053-.836-.083-1.317-.053-.483-.157-1.005-.243-1.575a27.608,27.608,0,0,0-.792-3.886,36.024,36.024,0,0,0-4.186-9.989,37.662,37.662,0,0,0-25.316-17.61,34.77,34.77,0,0,0-4.734-.545c-.807-.027-1.62-.106-2.441-.093l-2.475.129a16.2,16.2,0,0,0-2.5.274c-.832.138-1.68.237-2.517.41a39.5,39.5,0,0,0-4.987,1.466,38.862,38.862,0,0,0-4.878,2.145c-.789.428-1.546.928-2.328,1.391a19.224,19.224,0,0,0-2.257,1.557,34.258,34.258,0,0,0-7.9,7.94,36.217,36.217,0,0,0-5.344,10.3,37.077,37.077,0,0,0,0,23.594,36.229,36.229,0,0,0,5.344,10.3,34.212,34.212,0,0,0,7.905,7.944,19.1,19.1,0,0,0,2.257,1.555c.782.465,1.54.964,2.329,1.392a38.971,38.971,0,0,0,4.878,2.145,39.507,39.507,0,0,0,4.988,1.466c.837.173,1.684.272,2.517.41a16.2,16.2,0,0,0,2.5.274l2.478.129c.819.013,1.632-.066,2.439-.093a34.8,34.8,0,0,0,4.735-.545,37.665,37.665,0,0,0,25.315-17.613,35.972,35.972,0,0,0,4.185-9.987,27.422,27.422,0,0,0,.792-3.886c.087-.569.19-1.091.243-1.574.03-.483.058-.921.083-1.317.053-.763.093-1.357.123-1.788.032-.4.066-.611.066-.611s.013.207,0,.611c-.014.435-.034,1.03-.058,1.8-.014.4-.031.84-.05,1.325-.041.485-.136,1.012-.212,1.584a26.807,26.807,0,0,1-.735,3.923,35.737,35.737,0,0,1-4.116,10.115,37.935,37.935,0,0,1-25.536,17.969,35.323,35.323,0,0,1-4.8.572c-.819.03-1.645.111-2.478.1q-1.248-.062-2.516-.123a16.554,16.554,0,0,1-2.538-.272c-.848-.137-1.708-.236-2.56-.409a40.014,40.014,0,0,1-5.075-1.478,39.589,39.589,0,0,1-4.965-2.171c-.8-.434-1.576-.939-2.372-1.411a19.56,19.56,0,0,1-2.3-1.579,34.782,34.782,0,0,1-8.054-8.07,36.814,36.814,0,0,1-5.448-10.483,37.665,37.665,0,0,1,0-24.017,36.811,36.811,0,0,1,5.448-10.479,34.8,34.8,0,0,1,8.053-8.067,19.719,19.719,0,0,1,2.3-1.579c.8-.471,1.567-.976,2.372-1.409a39.287,39.287,0,0,1,4.964-2.171,39.777,39.777,0,0,1,5.074-1.477c.851-.175,1.713-.273,2.56-.41a16.543,16.543,0,0,1,2.538-.272l2.516-.122c.832-.012,1.658.07,2.478.1a35.33,35.33,0,0,1,4.8.572,37.94,37.94,0,0,1,25.538,17.966,35.744,35.744,0,0,1,4.116,10.117,26.689,26.689,0,0,1,.736,3.923c.076.573.171,1.1.212,1.585q.029.728.05,1.325c.025.766.044,1.363.058,1.8.009.405,0,.612,0,.612" transform="translate(51.303 84.685)" fill="#263238"/>
                <rect id="Rectángulo_327777" data-name="Rectángulo 327777" width="29.615" height="39.272" transform="translate(248.813 391.068)" fill="#eb6f2d"/>
                <path id="Trazado_625766" data-name="Trazado 625766" d="M207.046,307.133c0,.186-2.177.336-4.863.336s-4.863-.15-4.863-.336,2.178-.336,4.863-.336,4.863.15,4.863.336" transform="translate(58.017 90.206)" fill="#455a64"/>
                <path id="Trazado_625767" data-name="Trazado 625767" d="M215.882,311.4c0,.186-4.356.336-9.726.336s-9.726-.15-9.726-.336,4.353-.336,9.726-.336,9.726.15,9.726.336" transform="translate(57.756 91.462)" fill="#455a64"/>
                <path id="Trazado_625768" data-name="Trazado 625768" d="M215.882,314c0,.186-4.356.336-9.726.336s-9.726-.15-9.726-.336,4.353-.336,9.726-.336,9.726.15,9.726.336" transform="translate(57.756 92.225)" fill="#455a64"/>
                <path id="Trazado_625769" data-name="Trazado 625769" d="M215.882,316.591c0,.186-4.356.336-9.726.336s-9.726-.15-9.726-.336,4.353-.336,9.726-.336,9.726.15,9.726.336" transform="translate(57.756 92.987)" fill="#455a64"/>
                <path id="Trazado_625770" data-name="Trazado 625770" d="M215.882,319.186c0,.186-4.356.336-9.726.336s-9.726-.15-9.726-.336,4.353-.336,9.726-.336,9.726.15,9.726.336" transform="translate(57.756 93.75)" fill="#455a64"/>
                <path id="Trazado_625771" data-name="Trazado 625771" d="M215.882,321.781c0,.186-4.356.336-9.726.336s-9.726-.15-9.726-.336,4.353-.336,9.726-.336,9.726.15,9.726.336" transform="translate(57.756 94.513)" fill="#455a64"/>
                <path id="Trazado_625772" data-name="Trazado 625772" d="M215.882,324.376c0,.186-4.356.336-9.726.336s-9.726-.15-9.726-.336,4.353-.336,9.726-.336,9.726.15,9.726.336" transform="translate(57.756 95.276)" fill="#455a64"/>
                <path id="Trazado_625773" data-name="Trazado 625773" d="M215.882,326.971c0,.186-4.356.336-9.726.336s-9.726-.15-9.726-.336,4.353-.336,9.726-.336,9.726.15,9.726.336" transform="translate(57.756 96.039)" fill="#455a64"/>
                <path id="Trazado_625774" data-name="Trazado 625774" d="M538.417,231.992H204.465a30.785,30.785,0,0,1-30.785-30.786v-3.375a30.785,30.785,0,0,1,30.785-30.785H538.417A30.785,30.785,0,0,1,569.2,197.831v3.375a30.785,30.785,0,0,1-30.785,30.786" transform="translate(51.067 49.116)" fill="#fff"/>
                <path id="Trazado_625775" data-name="Trazado 625775" d="M411.613,166.591v65.536h55.259a32.768,32.768,0,0,0,0-65.536Z" transform="translate(121.025 48.982)" fill="#617a0b"/>
                <path id="Trazado_625776" data-name="Trazado 625776" d="M457.717,193.713a29.1,29.1,0,0,0-.56-3.346,13.784,13.784,0,0,0-5.048-7.461,13.554,13.554,0,0,0-12.833-1.894,13.556,13.556,0,0,0-6.27,4.719,13.462,13.462,0,0,0,0,15.964,13.571,13.571,0,0,0,6.27,4.721,13.548,13.548,0,0,0,12.833-1.9,13.779,13.779,0,0,0,5.048-7.461,29.063,29.063,0,0,0,.56-3.345,10.711,10.711,0,0,1-.305,3.41A13.769,13.769,0,0,1,452.4,204.9a13.91,13.91,0,0,1-5.91,2.679,14.113,14.113,0,0,1-7.424-.578,14.126,14.126,0,0,1-6.589-4.913,14.064,14.064,0,0,1,0-16.746,14.134,14.134,0,0,1,6.589-4.912,14.108,14.108,0,0,1,7.423-.578,13.913,13.913,0,0,1,5.911,2.677,13.771,13.771,0,0,1,5.014,7.777,10.711,10.711,0,0,1,.305,3.41" transform="translate(126.346 52.808)" fill="#fff"/>
                <path id="Trazado_625777" data-name="Trazado 625777" d="M464.817,208c-.109.151-3.678-2.219-7.972-5.294s-7.69-5.692-7.582-5.844,3.678,2.219,7.974,5.3,7.689,5.691,7.58,5.843" transform="translate(132.094 57.879)" fill="#fff"/>
                <rect id="Rectángulo_327778" data-name="Rectángulo 327778" width="241.788" height="13.9" transform="translate(262.356 242.552)" fill="#ebebeb"/>
                <path id="Trazado_625778" data-name="Trazado 625778" d="M538.494,232.069s.758-.062,2.236-.148a20.09,20.09,0,0,0,2.732-.342,28.248,28.248,0,0,0,3.711-.842,31.338,31.338,0,0,0,9.479-4.758l1.287-.968c.414-.356.818-.74,1.238-1.119a25.338,25.338,0,0,0,2.453-2.518c.84-.877,1.505-1.949,2.3-2.965q.5-.829,1.016-1.681l.518-.861.44-.917a29.809,29.809,0,0,0,2.712-8.18q.169-1.126.343-2.277.062-1.163.123-2.354c.07-1.585.053-3.234,0-4.893a30.589,30.589,0,0,0-29.646-29.862c-8.829-.087-18.19-.01-28-.023l-306.873.1a30.636,30.636,0,0,0-20.193,7.684,30.143,30.143,0,0,0-10,18.838,21.063,21.063,0,0,0-.219,2.693c-.062.9-.074,1.8-.063,2.714a52.839,52.839,0,0,0,.216,5.395,29.459,29.459,0,0,0,3.063,10.193,30.675,30.675,0,0,0,15.05,14.241,31,31,0,0,0,10.093,2.421c1.721.123,3.471.107,5.214.1h5.214l20.6,0,39.879.012,137.963.072,93.009.107,25.288.062c2.883.016,5.084.027,6.576.034s2.24.035,2.24.035-.758.023-2.24.035l-6.576.032-25.288.063-93.009.107-137.963.072-39.879.012-20.6,0h-5.214c-1.74,0-3.484.022-5.256-.1a30.885,30.885,0,0,1-25.7-17.016,30.131,30.131,0,0,1-3.132-10.417,53.089,53.089,0,0,1-.221-5.471c-.01-.907,0-1.818.063-2.741a21.511,21.511,0,0,1,.223-2.751,30.808,30.808,0,0,1,10.215-19.256,31.31,31.31,0,0,1,20.64-7.855l306.873.1c9.819.028,19.162-.034,28.017.071a30.948,30.948,0,0,1,29.954,30.284c.045,1.677.057,3.3-.018,4.908q-.066,1.2-.131,2.376-.181,1.163-.355,2.3a30.046,30.046,0,0,1-2.765,8.246l-.448.924-.524.866q-.524.856-1.031,1.69c-.8,1.021-1.479,2.1-2.329,2.978a25.374,25.374,0,0,1-2.482,2.526c-.426.38-.833.766-1.253,1.122l-1.3.968a31.3,31.3,0,0,1-9.56,4.727,28.12,28.12,0,0,1-3.732.814,19.758,19.758,0,0,1-2.743.308c-1.483.063-2.241.079-2.241.079" transform="translate(50.99 49.039)" fill="#263238"/>
              </g>
            </g>
            <g id="Grupo_877862" data-name="Grupo 877862">
              <g id="Grupo_877861" data-name="Grupo 877861" clip-path="url(#clip-path)">
                <path id="Trazado_625779" data-name="Trazado 625779" d="M329.147,188.7c-1.176-1.372-1.3-2.532,1.352-2.77,5.839-.525,10.14-3.075,10.819-4.55s-1.172-2.918-2.756-2.032a21.851,21.851,0,0,1-5.685,1.61,14.279,14.279,0,0,1-4.739.065c-1.359-.214-2.553-.443-3.623-.669,0,0-6.179-1.332-8.846-3.414L302.6,190.91l6.13,6.926s2.926,4.376,8.185,3.856,12.329-4.292,12.329-4.292c.956-1.469,9.422,3.753,12.148,5.711,2.694,1.935,4.743,1.465,4.639-.418-.07-1.282-8.271-7.473-11.013-9.348a34.44,34.44,0,0,1-5.872-4.64" transform="translate(88.973 52.026)" fill="#ffbe9d"/>
                <path id="Trazado_625780" data-name="Trazado 625780" d="M318.351,196.283c.014.079-.377.247-1.052.228a4.5,4.5,0,0,1-3.965-3c-.2-.644-.147-1.066-.067-1.074.186-.043.506,1.537,2,2.633,1.464,1.143,3.071,1.021,3.08,1.211" transform="translate(92.087 56.582)" fill="#eb996e"/>
                <path id="Trazado_625781" data-name="Trazado 625781" d="M322.3,194.693c.009.082-.371.223-1.016.181a4.457,4.457,0,0,1-3.768-2.931c-.2-.615-.155-1.018-.075-1.03.188-.044.534,1.445,1.948,2.51,1.379,1.106,2.909,1.077,2.912,1.269" transform="translate(93.316 56.133)" fill="#eb996e"/>
                <path id="Trazado_625782" data-name="Trazado 625782" d="M345.722,81.575c.546,11.468,14.532,27.176,24.935,29.716,5.469,1.337,11.761.708,16.094,4.382,7.432,6.3,3.085,19.364,8.1,27.816,3.082,5.2,9.2,7.745,12.669,12.68,5.76,8.2,1.893,20.594-5.967,26.7s-18.33,7.275-28.183,7.02c-21.67-.56-43.861-7.447-59.525-22.809-7.359-7.214-36.15-29.495-26.11-82.3" transform="translate(83.983 23.985)" fill="#263238"/>
                <path id="Trazado_625783" data-name="Trazado 625783" d="M441.878,151.359,359.485,126.9a52.235,52.235,0,0,0-12-3.612l-27.816.186A27.04,27.04,0,0,0,309,125.7l-75,24.91c-5.55,1.756-9.384,7.448-9.384,13.932,0,7.992,5.761,14.472,12.868,14.472H272.12c-.1.325-.153.507-.153.507l120.454.452v-.047l45.973.1c7.107,0,12.869-6.541,12.869-14.611,0-6.545-3.834-12.292-9.384-14.065" transform="translate(66.044 36.249)" fill="#ffb338"/>
                <path id="Trazado_625784" data-name="Trazado 625784" d="M396.33,152.522a3.1,3.1,0,0,1-.747-.039l-2.122-.239c-1.839-.234-4.506-.531-7.8-.848a235.028,235.028,0,0,0-51.652.675c-3.288.4-5.946.77-7.777,1.052l-2.116.3a3.074,3.074,0,0,1-.745.058,3.19,3.19,0,0,1,.722-.191l2.1-.421c1.821-.361,4.472-.8,7.759-1.266a207.073,207.073,0,0,1,51.764-.678c3.3.379,5.96.749,7.79,1.062l2.105.366a3.1,3.1,0,0,1,.727.172" transform="translate(95.079 43.993)" fill="#263238"/>
                <g id="Grupo_877845" data-name="Grupo 877845" transform="translate(347.151 171.563)" opacity="0.6">
                  <g id="Grupo_877844" data-name="Grupo 877844">
                    <g id="Grupo_877843" data-name="Grupo 877843" clip-path="url(#clip-path-8)">
                      <path id="Trazado_625785" data-name="Trazado 625785" d="M393.2,137.514a1.462,1.462,0,0,1-.23.277l-.726.766c-.651.66-1.61,1.636-2.913,2.825a46.762,46.762,0,0,1-5.008,4.032,24.786,24.786,0,0,1-7.693,3.666,19.616,19.616,0,0,1-10.294-.206,50.935,50.935,0,0,1-10.839-4.787c-3.666-1.946-7.445-4.2-11.737-5.5a18.1,18.1,0,0,0-13.42.69c-4.335,1.954-8.024,4.935-12.055,7.082-1,.556-2.054.985-3.076,1.448a33.074,33.074,0,0,1-3.163,1.055,30.709,30.709,0,0,1-6.347,1.095,32.694,32.694,0,0,1-21.078-5.8,57.535,57.535,0,0,1-6.367-5.652,31.1,31.1,0,0,0-4.929-4.031,13.682,13.682,0,0,0-5.051-1.892,7.6,7.6,0,0,1,1.408.167,11.831,11.831,0,0,1,3.777,1.5,30.055,30.055,0,0,1,5.053,3.98,58.984,58.984,0,0,0,6.382,5.538,32.394,32.394,0,0,0,20.76,5.567,30.3,30.3,0,0,0,6.217-1.095,31.94,31.94,0,0,0,3.093-1.04c1-.457,2.028-.873,3.007-1.423,3.961-2.114,7.646-5.106,12.094-7.116a18.746,18.746,0,0,1,13.887-.707c4.4,1.343,8.185,3.63,11.84,5.588a50.951,50.951,0,0,0,10.691,4.794,19.216,19.216,0,0,0,10.027.282,24.716,24.716,0,0,0,7.6-3.517,49.545,49.545,0,0,0,5.043-3.914c1.325-1.154,2.312-2.1,2.992-2.727.317-.294.571-.529.773-.718a1.547,1.547,0,0,1,.28-.228" transform="translate(-268.272 -132.581)" fill="#fff"/>
                    </g>
                  </g>
                </g>
                <g id="Grupo_877848" data-name="Grupo 877848" transform="translate(344.045 196.349)" opacity="0.2">
                  <g id="Grupo_877847" data-name="Grupo 877847">
                    <g id="Grupo_877846" data-name="Grupo 877846" clip-path="url(#clip-path-9)">
                      <path id="Trazado_625786" data-name="Trazado 625786" d="M265.872,151.735l52.079,9.818-6.015,9.8-1.584.023Z" transform="translate(-265.872 -151.735)"/>
                    </g>
                  </g>
                </g>
                <g id="Grupo_877851" data-name="Grupo 877851" transform="translate(440.283 186.058)" opacity="0.6">
                  <g id="Grupo_877850" data-name="Grupo 877850">
                    <g id="Grupo_877849" data-name="Grupo 877849" clip-path="url(#clip-path-10)">
                      <path id="Trazado_625787" data-name="Trazado 625787" d="M401.654,143.782a3.574,3.574,0,0,1,.026.8,17.414,17.414,0,0,1-.229,2.279,19.97,19.97,0,0,1-20.3,16.483,33.386,33.386,0,0,1-7.813-1.429c-2.607-.735-5.114-1.546-7.588-2.046a21.988,21.988,0,0,0-7.2-.373,22.964,22.964,0,0,0-11.231,4.6,22.568,22.568,0,0,0-5.579,6.1c-.247.413-.472.785-.673,1.122-.162.322-.3.607-.431.858a3.6,3.6,0,0,1-.393.694,3.464,3.464,0,0,1,.27-.749l.375-.894.626-1.165a21.673,21.673,0,0,1,5.513-6.338,23.115,23.115,0,0,1,11.447-4.84,22.432,22.432,0,0,1,7.4.343c2.526.5,5.049,1.315,7.64,2.045a33.192,33.192,0,0,0,7.654,1.417,19.737,19.737,0,0,0,16.749-8.3,20.513,20.513,0,0,0,3.271-7.571c.393-1.929.392-3.033.461-3.029" transform="translate(-340.243 -143.782)" fill="#fff"/>
                    </g>
                  </g>
                </g>
                <path id="Trazado_625788" data-name="Trazado 625788" d="M231.926,170.809s94.151,41.543,93.666,40.6,14.949-28.19,14.949-28.19l-76.284-37.7Z" transform="translate(68.192 42.787)" fill="#ffb338"/>
                <path id="Trazado_625789" data-name="Trazado 625789" d="M265.324,149.679a12.58,12.58,0,0,1,1.94.813l5.181,2.441c4.362,2.089,10.368,5.014,16.983,8.283s12.59,6.266,16.9,8.463l5.088,2.635a12.5,12.5,0,0,1,1.827,1.049,12.6,12.6,0,0,1-1.938-.813l-5.181-2.441c-4.362-2.089-10.368-5.014-16.987-8.286s-12.59-6.264-16.9-8.462l-5.088-2.635a12.577,12.577,0,0,1-1.826-1.048" transform="translate(78.012 44.008)" fill="#263238"/>
                <g id="Grupo_877854" data-name="Grupo 877854" transform="translate(299.073 205.471)" opacity="0.6">
                  <g id="Grupo_877853" data-name="Grupo 877853">
                    <g id="Grupo_877852" data-name="Grupo 877852" clip-path="url(#clip-path-11)">
                      <path id="Trazado_625790" data-name="Trazado 625790" d="M296.057,159.6a8.131,8.131,0,0,1-.876,2.792,13.188,13.188,0,0,1-5.615,5.612,17.259,17.259,0,0,1-5.229,1.862,20.583,20.583,0,0,1-6.368.075c-4.476-.573-9.094-2.441-13.731-4.607s-9.058-4.264-13.353-5.265a24.005,24.005,0,0,0-6.167-.717,19.334,19.334,0,0,0-5.324.9,14.538,14.538,0,0,0-6.571,4.116,26.5,26.5,0,0,0-1.7,2.34,8.7,8.7,0,0,1,1.5-2.51,14.317,14.317,0,0,1,6.622-4.4A19.3,19.3,0,0,1,244.7,158.8a24.164,24.164,0,0,1,6.326.669c4.391.991,8.867,3.094,13.5,5.26s9.167,4.01,13.532,4.6a20.329,20.329,0,0,0,6.187-.012,17.044,17.044,0,0,0,5.1-1.731,13.3,13.3,0,0,0,5.608-5.315,22.314,22.314,0,0,0,1.109-2.671" transform="translate(-231.118 -158.784)" fill="#fff"/>
                    </g>
                  </g>
                </g>
                <g id="Grupo_877857" data-name="Grupo 877857" transform="translate(369.146 233.964)" opacity="0.6">
                  <g id="Grupo_877856" data-name="Grupo 877856">
                    <g id="Grupo_877855" data-name="Grupo 877855" clip-path="url(#clip-path-12)">
                      <path id="Trazado_625791" data-name="Trazado 625791" d="M320.108,181.6c-.018.125-2.089-.22-5.452-.274a45.718,45.718,0,0,0-5.888.3,44.974,44.974,0,0,0-13.831,3.918,45.838,45.838,0,0,0-5.171,2.833c-2.834,1.81-4.415,3.19-4.5,3.093a6.064,6.064,0,0,1,1.052-1.034,30.622,30.622,0,0,1,3.183-2.457,40.152,40.152,0,0,1,5.167-3,41.878,41.878,0,0,1,14.029-3.974,40.2,40.2,0,0,1,5.971-.158,30.354,30.354,0,0,1,4,.423,6.177,6.177,0,0,1,1.438.327" transform="translate(-285.269 -180.803)" fill="#fff"/>
                    </g>
                  </g>
                </g>
                <g id="Grupo_877860" data-name="Grupo 877860" transform="translate(415.089 159.362)" opacity="0.2">
                  <g id="Grupo_877859" data-name="Grupo 877859">
                    <g id="Grupo_877858" data-name="Grupo 877858" clip-path="url(#clip-path-13)">
                      <path id="Trazado_625792" data-name="Trazado 625792" d="M321.278,123.152c-1.557,4.354.78,9.048,3.049,13.079a35.481,35.481,0,0,0,5.459,7.923A11.956,11.956,0,0,0,338.347,148c4.226-.138,8.013-3.261,12.234-3.018,2.871.166,5.395,1.863,7.778,3.473a61.577,61.577,0,0,0,13.05,7.23c4.683,1.713,9.9,2.359,14.672.921s8.993-5.2,10.153-10.052" transform="translate(-320.773 -123.152)"/>
                    </g>
                  </g>
                </g>
                <path id="Trazado_625793" data-name="Trazado 625793" d="M328.626,138.321c.217-5.069.49-9.656.49-9.656s11.328-1.429,11.816-12.991-.661-38.188-.661-38.188L319.42,67.474,296.987,85.545l3.518,53.1a14.082,14.082,0,0,0,28.121-.327" transform="translate(87.322 19.839)" fill="#ffbe9d"/>
                <path id="Trazado_625794" data-name="Trazado 625794" d="M329.581,91.7a1.442,1.442,0,1,1-1.467-1.453,1.459,1.459,0,0,1,1.467,1.453" transform="translate(96.058 26.534)" fill="#263238"/>
                <path id="Trazado_625795" data-name="Trazado 625795" d="M331.3,89.377c-.182.194-1.262-.716-2.815-.774-1.55-.082-2.7.727-2.869.516-.081-.093.106-.449.608-.817a3.751,3.751,0,0,1,4.537.2c.472.413.628.783.538.87" transform="translate(95.735 25.768)" fill="#263238"/>
                <path id="Trazado_625796" data-name="Trazado 625796" d="M316.3,91.7a1.442,1.442,0,1,1-1.467-1.453A1.461,1.461,0,0,1,316.3,91.7" transform="translate(92.152 26.534)" fill="#263238"/>
                <path id="Trazado_625797" data-name="Trazado 625797" d="M318.017,89.607c-.182.194-1.263-.716-2.815-.774-1.55-.082-2.7.727-2.869.516-.082-.093.1-.449.608-.815a3.746,3.746,0,0,1,4.537.2c.471.412.628.782.538.868" transform="translate(91.829 25.835)" fill="#263238"/>
                <path id="Trazado_625798" data-name="Trazado 625798" d="M321.341,102.68a9.6,9.6,0,0,1,2.53-.386c.4-.028.774-.1.845-.384a2.321,2.321,0,0,0-.245-1.268q-.536-1.564-1.122-3.28c-1.557-4.668-2.676-8.5-2.5-8.561s1.579,3.672,3.134,8.34q.561,1.726,1.073,3.3a2.628,2.628,0,0,1,.179,1.674.985.985,0,0,1-.661.594,2.536,2.536,0,0,1-.674.074,9.479,9.479,0,0,1-2.557-.1" transform="translate(94.333 26.109)" fill="#263238"/>
                <path id="Trazado_625799" data-name="Trazado 625799" d="M317.346,100.8c-1.588-1.042,4.38,2.574,7.544,2.518a4.24,4.24,0,0,1-5.115,1.586c-3.336-1.377-2.429-4.1-2.429-4.1" transform="translate(93.231 29.583)" fill="#fff"/>
                <path id="Trazado_625800" data-name="Trazado 625800" d="M325.224,115.877a27.572,27.572,0,0,1-15-4.911s3.525,8.423,14.8,7.749Z" transform="translate(91.214 32.627)" fill="#eb996e"/>
                <path id="Trazado_625801" data-name="Trazado 625801" d="M287.682,97.994h0c-.039,10.008-2.66,36.47,15.581,40.141l-.663-36.445s17.662-8.328,20.645-25.676l.109.1c1.131,2.619,3.146,8.243,1.922,12.821l16.54,4.076,1.9,1.742s5.89-12.905-5.474-24.614-21.075-3.223-27.165-3.955c-4.053-.487-18.1-.393-23.826,23.8Z" transform="translate(84.461 18.786)" fill="#263238"/>
                <path id="Trazado_625802" data-name="Trazado 625802" d="M300.957,93.51c-1.541-.951-3.647-.168-4.871,1.167a6.644,6.644,0,0,0,6.613,10.909" transform="translate(86.557 27.371)" fill="#ffbe9d"/>
                <path id="Trazado_625803" data-name="Trazado 625803" d="M300.073,101.35c0,.082-.518.171-1.325-.045a3.492,3.492,0,0,1-2.42-2.147,2.575,2.575,0,0,1,.069-1.885,2.728,2.728,0,0,1,.986-1.149c.727-.471,1.281-.437,1.289-.361.029.1-.453.245-1,.738a2.25,2.25,0,0,0-.706,2.443,3.445,3.445,0,0,0,1.941,1.913c.688.308,1.175.393,1.165.494" transform="translate(87.085 28.143)" fill="#eb996e"/>
                <path id="Trazado_625804" data-name="Trazado 625804" d="M298.245,101.836a1.313,1.313,0,1,0,.5-.021" transform="translate(87.404 29.936)" fill="#e8505b"/>
                <path id="Trazado_625805" data-name="Trazado 625805" d="M330.456,171.458V152.453s-28.223,5.855-28.74,18.78Z" transform="translate(88.713 44.825)" fill="#ffbe9d"/>
                <path id="Trazado_625806" data-name="Trazado 625806" d="M321.657,120.951a23.646,23.646,0,0,0,23.158,21.759c4.167.074,8.559-.917,12.363.785,3.308,1.48,5.436,4.686,8.041,7.205a23.866,23.866,0,0,0,23.663,5.35c3.418-1.146,8.849-3.6,9.484-7.151.485-2.7-2.82-5.39-4.767-7.325a24.067,24.067,0,0,0-6.949-4.345c-20.1-9.443-41.686-16.311-63.865-17.484" transform="translate(94.576 35.208)" fill="#263238"/>
              </g>
            </g>
          </g>
        </g>
      </g>
    </g>
  </g>
</svg>
